<svg width="2698" height="3280" xmlns="http://www.w3.org/2000/svg" xmlns:xlink="http://www.w3.org/1999/xlink" xml:space="preserve" overflow="hidden"><defs><clipPath id="clip0"><rect x="23" y="926" width="2698" height="3280"/></clipPath></defs><g clip-path="url(#clip0)" transform="translate(-23 -926)"><path d="M641 1902 641 3331.1" stroke="#7F7F7F" stroke-width="13.75" stroke-miterlimit="8" fill="none" fill-rule="evenodd"/><path d="M270.5 3772C270.5 3805.97 436.602 3833.5 641.5 3833.5 846.397 3833.5 1012.5 3805.97 1012.5 3772L1012.5 4141C1012.5 4174.97 846.397 4202.5 641.5 4202.5 436.602 4202.5 270.5 4174.97 270.5 4141Z" fill="#D9F2D0" fill-rule="evenodd"/><path d="M270.5 3772C270.5 3738.03 436.602 3710.5 641.5 3710.5 846.397 3710.5 1012.5 3738.03 1012.5 3772 1012.5 3805.97 846.397 3833.5 641.5 3833.5 436.602 3833.5 270.5 3805.97 270.5 3772Z" fill="#E8F7E3" fill-rule="evenodd"/><path d="M1012.5 3772C1012.5 3805.97 846.397 3833.5 641.5 3833.5 436.602 3833.5 270.5 3805.97 270.5 3772 270.5 3738.03 436.602 3710.5 641.5 3710.5 846.397 3710.5 1012.5 3738.03 1012.5 3772L1012.5 4141C1012.5 4174.97 846.397 4202.5 641.5 4202.5 436.602 4202.5 270.5 4174.97 270.5 4141L270.5 3772" stroke="#042433" stroke-width="6.875" stroke-miterlimit="8" fill="none" fill-rule="evenodd"/><path d="M547.5 3308.12C547.5 3321.17 589.809 3331.75 642 3331.75 694.192 3331.75 736.501 3321.17 736.501 3308.12L736.5 3754.88C736.5 3767.92 694.191 3778.5 642 3778.5 589.809 3778.5 547.5 3767.92 547.5 3754.88Z" fill="#61CBF4" fill-rule="evenodd"/><path d="M547.5 3308.12C547.5 3295.08 589.809 3284.5 642 3284.5 694.192 3284.5 736.501 3295.08 736.501 3308.12 736.501 3321.17 694.192 3331.75 642 3331.75 589.809 3331.75 547.5 3321.17 547.5 3308.12Z" fill="#A0E0F8" fill-rule="evenodd"/><path d="M736.5 3308.12C736.5 3321.17 694.191 3331.75 642 3331.75 589.809 3331.75 547.5 3321.17 547.5 3308.12 547.5 3295.08 589.809 3284.5 642 3284.5 694.191 3284.5 736.5 3295.08 736.5 3308.12L736.5 3754.88C736.5 3767.92 694.191 3778.5 642 3778.5 589.809 3778.5 547.5 3767.92 547.5 3754.88L547.5 3308.12" stroke="#042433" stroke-width="6.875" stroke-miterlimit="8" fill="none" fill-rule="evenodd"/><path d="M413.249 2774.5C426.366 2774.5 436.999 2731.97 436.999 2679.5 436.999 2627.03 426.366 2584.5 413.249 2584.5L859.75 2584.5C872.867 2584.5 883.5 2627.03 883.5 2679.5 883.5 2731.97 872.867 2774.5 859.75 2774.5Z" fill="#61CBF4" fill-rule="evenodd"/><path d="M413.249 2774.5C400.133 2774.5 389.5 2731.97 389.5 2679.5 389.5 2627.03 400.133 2584.5 413.249 2584.5 426.366 2584.5 436.999 2627.03 436.999 2679.5 436.999 2731.97 426.366 2774.5 413.249 2774.5Z" fill="#A0E0F8" fill-rule="evenodd"/><path d="M413.249 2584.5C426.366 2584.5 436.999 2627.03 436.999 2679.5 436.999 2731.97 426.366 2774.5 413.249 2774.5 400.133 2774.5 389.5 2731.97 389.5 2679.5 389.5 2627.03 400.133 2584.5 413.249 2584.5L859.75 2584.5C872.867 2584.5 883.5 2627.03 883.5 2679.5 883.5 2731.97 872.867 2774.5 859.75 2774.5L413.249 2774.5" stroke="#042433" stroke-width="6.875" stroke-miterlimit="8" fill="none" fill-rule="evenodd"/><path d="M413.25 2076.5C426.366 2076.5 436.999 2033.97 436.999 1981.5 436.999 1929.03 426.366 1886.5 413.25 1886.5L859.75 1886.5C872.867 1886.5 883.5 1929.03 883.5 1981.5 883.5 2033.97 872.867 2076.5 859.75 2076.5Z" fill="#61CBF4" fill-rule="evenodd"/><path d="M413.25 2076.5C400.133 2076.5 389.5 2033.97 389.5 1981.5 389.5 1929.03 400.133 1886.5 413.25 1886.5 426.366 1886.5 436.999 1929.03 436.999 1981.5 436.999 2033.97 426.366 2076.5 413.25 2076.5Z" fill="#A0E0F8" fill-rule="evenodd"/><path d="M413.25 1886.5C426.366 1886.5 436.999 1929.03 436.999 1981.5 436.999 2033.97 426.366 2076.5 413.25 2076.5 400.133 2076.5 389.5 2033.97 389.5 1981.5 389.5 1929.03 400.133 1886.5 413.25 1886.5L859.75 1886.5C872.867 1886.5 883.5 1929.03 883.5 1981.5 883.5 2033.97 872.867 2076.5 859.75 2076.5L413.25 2076.5" stroke="#042433" stroke-width="6.875" stroke-miterlimit="8" fill="none" fill-rule="evenodd"/><path d="M421.148 1992.77 168.173 1985.82 168.551 1972.07 421.526 1979.03ZM174.668 1999.75 134 1978 175.801 1958.52Z" fill="#0070C0"/><path d="M414.148 2689.77 161.173 2682.82 161.551 2669.07 414.526 2676.03ZM167.667 2696.75 127 2675 168.801 2655.52Z" fill="#0070C0"/><path d="M6.87332-0.152068 10.8208 178.271-2.92582 178.575-6.87332 0.152068ZM24.4154 171.093 4.70784 212.789-16.8245 172.006Z" fill="#7F7F7F" transform="matrix(1 0 0 -1 641 3308.79)"/><path d="M61.8372 1853.54 110.284 1853.54 110.284 1856.12 73.5462 1921.91 92.9358 1921.91C95.3349 1921.91 97.1163 1921.69 98.2801 1921.24 99.4438 1920.79 100.402 1920.1 101.154 1919.15 101.906 1918.2 102.586 1916.86 103.195 1915.15 103.803 1913.43 104.537 1910.76 105.397 1907.14L110.66 1907.14 110.66 1926.85 61.0315 1926.85 61.0315 1924.22 97.8235 1858.48 78.3265 1858.48C76.93 1858.48 75.8289 1858.6 75.0232 1858.83 74.2176 1859.06 73.4925 1859.42 72.8479 1859.9 72.2034 1860.39 71.5678 1861.09 70.9412 1862.03 70.3146 1862.96 69.688 1864.24 69.0613 1865.87 68.4347 1867.49 67.7812 1869.53 67.1009 1871.96L61.8372 1871.96Z" fill-rule="evenodd"/><text fill="#000000" fill-opacity="0" font-family="Arial,Arial_MSFontService,sans-serif" font-size="73.3154" x="61.0315" y="1917.69">Z</text><path d="M138.313 1898.73C141.022 1898.73 143.333 1899.03 145.247 1899.64 147.161 1900.26 148.717 1901.08 149.915 1902.13 151.113 1903.17 151.979 1904.42 152.513 1905.88 153.047 1907.33 153.313 1908.91 153.313 1910.6 153.313 1911.62 153.242 1912.56 153.099 1913.43 152.955 1914.31 152.708 1915.17 152.356 1916.01 152.005 1916.86 151.543 1917.71 150.97 1918.57 150.397 1919.43 149.681 1920.34 148.821 1921.3 148.17 1922.14 147.324 1923.1 146.282 1924.2 145.241 1925.29 144.101 1926.46 142.864 1927.71 141.627 1928.96 140.332 1930.26 138.977 1931.62 137.623 1932.97 136.308 1934.31 135.032 1935.64 133.756 1936.97 132.584 1938.26 131.517 1939.51 130.449 1940.76 129.576 1941.9 128.899 1942.95L143.352 1942.95C144.576 1942.95 145.553 1942.9 146.282 1942.81 147.011 1942.72 147.617 1942.52 148.099 1942.2 148.58 1941.89 148.991 1941.42 149.329 1940.78 149.668 1940.14 150.058 1939.26 150.501 1938.14L154.134 1938.14C154.004 1939.99 153.88 1941.85 153.763 1943.73 153.645 1945.6 153.522 1947.46 153.392 1949.31L120.306 1949.31 120.306 1947.28C120.931 1945.88 121.66 1944.49 122.493 1943.12 123.326 1941.75 124.264 1940.37 125.306 1938.96 126.347 1937.55 127.532 1936.1 128.86 1934.61 130.188 1933.11 131.66 1931.55 133.274 1929.94 135.722 1927.49 137.714 1925.4 139.251 1923.67 140.787 1921.94 141.998 1920.39 142.884 1919.04 143.769 1917.69 144.375 1916.44 144.7 1915.29 145.026 1914.14 145.188 1912.92 145.188 1911.62 145.188 1910.29 145 1909.07 144.622 1907.95 144.244 1906.83 143.704 1905.88 143.001 1905.09 142.298 1904.31 141.406 1903.7 140.325 1903.26 139.244 1902.82 138.001 1902.59 136.595 1902.59 134.173 1902.59 132.142 1903.25 130.501 1904.57 128.86 1905.88 127.584 1907.79 126.673 1910.29L121.556 1910.29 121.556 1902.67C124.889 1901.29 127.955 1900.29 130.755 1899.66 133.554 1899.04 136.074 1898.73 138.313 1898.73Z" fill-rule="evenodd"/><text fill="#000000" fill-opacity="0" font-family="Arial,Arial_MSFontService,sans-serif" font-size="50.5859" x="120.306" y="1942.99">2</text><path d="M63.9322 2541.63 112.379 2541.63 112.379 2544.21 75.6412 2610 95.0308 2610C97.4299 2610 99.2113 2609.78 100.375 2609.33 101.539 2608.88 102.497 2608.18 103.249 2607.24 104.001 2606.29 104.681 2604.95 105.29 2603.23 105.898 2601.52 106.632 2598.85 107.492 2595.23L112.755 2595.23 112.755 2614.94 63.1265 2614.94 63.1265 2612.31 99.9185 2546.57 80.4214 2546.57C79.0249 2546.57 77.9239 2546.69 77.1182 2546.92 76.3125 2547.15 75.5874 2547.51 74.9429 2547.99 74.2984 2548.48 73.6628 2549.18 73.0362 2550.11 72.4096 2551.05 71.7829 2552.33 71.1563 2553.95 70.5297 2555.58 69.8762 2557.62 69.1958 2560.05L63.9322 2560.05Z" fill-rule="evenodd"/><text fill="#000000" fill-opacity="0" font-family="Arial,Arial_MSFontService,sans-serif" font-size="73.3154" x="63.1265" y="2605.78">Z</text><path d="M140.912 2587.09 143.294 2587.09C143.242 2588.52 143.203 2589.8 143.177 2590.94 143.151 2592.07 143.132 2593.17 143.119 2594.24 143.106 2595.31 143.099 2596.36 143.099 2597.4L143.099 2627.09C143.099 2627.9 143.125 2628.59 143.177 2629.18 143.229 2629.76 143.314 2630.26 143.431 2630.66 143.548 2631.07 143.704 2631.41 143.9 2631.7 144.095 2631.98 144.323 2632.23 144.583 2632.44 144.896 2632.75 145.313 2632.99 145.833 2633.16 146.354 2633.33 147.018 2633.48 147.826 2633.59 148.633 2633.71 149.603 2633.8 150.736 2633.87 151.869 2633.93 153.229 2633.98 154.818 2634L154.818 2637.4 123.841 2637.4 123.841 2634C125.378 2633.95 126.68 2633.89 127.747 2633.83 128.815 2633.76 129.727 2633.67 130.482 2633.55 131.237 2633.44 131.843 2633.31 132.298 2633.16 132.754 2633.02 133.151 2632.84 133.49 2632.64 133.854 2632.4 134.167 2632.15 134.427 2631.87 134.688 2631.6 134.896 2631.26 135.052 2630.84 135.208 2630.42 135.332 2629.91 135.423 2629.32 135.514 2628.72 135.56 2627.97 135.56 2627.09L135.56 2599.08C135.56 2598.07 135.365 2597.35 134.974 2596.93 134.583 2596.52 134.024 2596.31 133.294 2596.31 132.487 2596.31 131.289 2596.72 129.701 2597.56 128.112 2598.39 126.055 2599.63 123.529 2601.27 123.19 2600.67 122.878 2600.07 122.591 2599.47 122.305 2598.87 122.005 2598.26 121.693 2597.64 124.922 2595.87 128.119 2594.1 131.283 2592.34 134.447 2590.59 137.656 2588.83 140.912 2587.09Z" fill-rule="evenodd"/><text fill="#000000" fill-opacity="0" font-family="Arial,Arial_MSFontService,sans-serif" font-size="50.3125" x="121.693" y="2631.11">1</text><path d="M684.607 3057.85 733.054 3057.85 733.054 3060.43 696.316 3126.23 715.706 3126.23C718.105 3126.23 719.886 3126 721.05 3125.55 722.214 3125.11 723.172 3124.41 723.924 3123.46 724.675 3122.51 725.356 3121.18 725.965 3119.46 726.573 3117.74 727.307 3115.07 728.167 3111.46L733.43 3111.46 733.43 3131.17 683.801 3131.17 683.801 3128.54 720.593 3062.79 701.096 3062.79C699.7 3062.79 698.599 3062.91 697.793 3063.14 696.987 3063.38 696.262 3063.73 695.618 3064.22 694.973 3064.7 694.338 3065.41 693.711 3066.34 693.084 3067.27 692.458 3068.55 691.831 3070.18 691.205 3071.81 690.551 3073.84 689.871 3076.28L684.607 3076.28Z" fill-rule="evenodd"/><text fill="#000000" fill-opacity="0" font-family="Arial,Arial_MSFontService,sans-serif" font-size="73.3154" x="683.801" y="3122">Z</text><path d="M760.927 3106.83C759.104 3106.83 757.581 3107.3 756.357 3108.25 755.133 3109.21 754.163 3110.6 753.447 3112.43 752.731 3114.27 752.223 3116.51 751.923 3119.15 751.624 3121.8 751.474 3124.8 751.474 3128.16 751.474 3132.04 751.663 3135.39 752.04 3138.22 752.418 3141.04 753.004 3143.37 753.798 3145.19 754.592 3147.01 755.589 3148.35 756.786 3149.21 757.984 3150.07 759.417 3150.5 761.083 3150.5 762.646 3150.5 764.013 3150.1 765.185 3149.29 766.357 3148.48 767.327 3147.23 768.095 3145.52 768.863 3143.81 769.443 3141.65 769.833 3139.04 770.224 3136.42 770.419 3133.33 770.419 3129.76 770.419 3125.75 770.204 3122.3 769.775 3119.41 769.345 3116.52 768.74 3114.14 767.958 3112.28 767.177 3110.42 766.194 3109.04 765.009 3108.16 763.824 3107.27 762.464 3106.83 760.927 3106.83ZM761.083 3103.04C764.182 3103.04 766.832 3103.62 769.033 3104.78 771.233 3105.94 773.03 3107.59 774.423 3109.74 775.816 3111.89 776.839 3114.51 777.49 3117.61 778.141 3120.71 778.466 3124.21 778.466 3128.12 778.466 3136.79 776.93 3143.35 773.857 3147.79 770.784 3152.23 766.331 3154.45 760.497 3154.45 754.716 3154.45 750.419 3152.35 747.607 3148.16 744.794 3143.96 743.388 3137.61 743.388 3129.09 743.388 3124.64 743.824 3120.79 744.697 3117.53 745.569 3114.28 746.793 3111.58 748.369 3109.43 749.944 3107.28 751.813 3105.68 753.974 3104.62 756.135 3103.57 758.505 3103.04 761.083 3103.04Z" fill-rule="evenodd"/><text fill="#000000" fill-opacity="0" font-family="Arial,Arial_MSFontService,sans-serif" font-size="51.4062" x="743.388" y="3148.02">0</text><path d="M37.1452 79.2851C4.99199 65.9729-0.991149 41.1744 23.7815 23.8961 48.5541 6.61774 94.7015 3.40255 126.855 16.7147 157.782 29.5193 164.681 53.0836 142.564 70.3726L149.235 75.9775 115.315 75.9928 125.296 55.8633 132.026 61.5178C149.549 49.7466 141.356 34.1521 113.728 26.6864 86.0996 19.2207 49.4972 22.711 31.9742 34.4821 14.4513 46.2533 22.6434 61.8478 50.2719 69.3135 50.553 69.3895 50.8355 69.4644 51.1196 69.5383Z" stroke="#042433" stroke-width="6.875" stroke-miterlimit="8" fill="#156082" fill-rule="evenodd" transform="matrix(-6.12323e-17 -1 -1 6.12323e-17 290.5 2066.5)"/><path d="M307.159 2069.38 311.187 2069.38C311.903 2072.67 313.855 2074.32 317.041 2074.32L320.264 2074.32C322.126 2074.32 323.451 2073.95 324.239 2073.22 325.026 2072.49 325.635 2071.21 326.065 2069.38L330.039 2069.38 330.039 2086.03 326.065 2086.03C325.277 2082.81 323.523 2081.2 320.801 2081.2L316.397 2081.2C314.857 2081.2 313.738 2081.53 313.04 2082.19 312.342 2082.85 311.724 2084.13 311.187 2086.03L307.159 2086.03ZM318.545 2045.32C306.12 2045.32 299.908 2055.95 299.908 2077.22 299.908 2088.21 301.528 2096.58 304.768 2102.3 308.009 2108.03 312.745 2110.9 318.975 2110.9 324.991 2110.9 329.547 2108.1 332.644 2102.49 335.742 2096.89 337.29 2089.2 337.29 2079.42 337.29 2068.36 335.67 2059.91 332.43 2054.07 329.189 2048.24 324.561 2045.32 318.545 2045.32ZM318.921 2040.59C328.446 2040.59 335.697 2043.73 340.674 2050.02 345.651 2056.3 348.14 2065.35 348.14 2077.17 348.14 2089.49 345.463 2098.97 340.11 2105.63 334.757 2112.29 327.318 2115.62 317.793 2115.62 308.412 2115.62 301.277 2112.47 296.39 2106.17 291.502 2099.87 289.058 2090.72 289.058 2078.73 289.058 2066.62 291.77 2057.24 297.195 2050.58 302.62 2043.92 309.862 2040.59 318.921 2040.59Z" fill-rule="evenodd"/><text fill="#000000" fill-opacity="0" font-family="Arial,Arial_MSFontService,sans-serif" font-size="75.0342" x="289.058" y="2106.25">Θ</text><path d="M377.523 2086.64C379.607 2086.64 381.553 2086.86 383.363 2087.3 385.173 2087.74 386.742 2088.42 388.07 2089.31 389.398 2090.21 390.433 2091.33 391.176 2092.67 391.918 2094.01 392.289 2095.57 392.289 2097.34 392.289 2099.01 392.054 2100.48 391.586 2101.76 391.117 2103.03 390.394 2104.19 389.418 2105.23 388.441 2106.27 387.243 2107.22 385.824 2108.06 384.405 2108.91 382.771 2109.72 380.922 2110.51L380.922 2110.97C382.666 2111.29 384.294 2111.79 385.804 2112.48 387.315 2113.17 388.636 2114.04 389.769 2115.09 390.902 2116.15 391.794 2117.37 392.445 2118.75 393.096 2120.13 393.422 2121.65 393.422 2123.32 393.422 2125.4 393.031 2127.33 392.25 2129.12 391.469 2130.9 390.297 2132.45 388.734 2133.75 387.172 2135.05 385.245 2136.06 382.953 2136.79 380.661 2137.52 377.979 2137.89 374.906 2137.89 372.484 2137.89 370.023 2137.65 367.523 2137.17 365.023 2136.68 362.653 2136.05 360.414 2135.27L360.414 2126.83 365.453 2126.83C365.87 2128.14 366.364 2129.25 366.937 2130.17 367.51 2131.1 368.181 2131.85 368.949 2132.44 369.717 2133.02 370.603 2133.45 371.605 2133.71 372.608 2133.97 373.747 2134.1 375.023 2134.1 378.383 2134.1 380.928 2133.3 382.66 2131.7 384.392 2130.09 385.258 2127.67 385.258 2124.41 385.258 2120.95 384.118 2118.32 381.84 2116.54 379.561 2114.76 376.182 2113.86 371.703 2113.86L368.265 2113.86 368.265 2110.11C371 2109.98 373.363 2109.6 375.355 2108.96 377.347 2108.32 379.008 2107.5 380.336 2106.48 381.664 2105.47 382.653 2104.28 383.304 2102.93 383.955 2101.57 384.281 2100.13 384.281 2098.59 384.281 2096.09 383.539 2094.12 382.054 2092.67 380.57 2091.23 378.422 2090.51 375.609 2090.51 373.239 2090.51 371.254 2091.16 369.652 2092.46 368.051 2093.76 366.82 2095.7 365.961 2098.28L361 2098.28 361 2090.58C364.073 2089.28 366.97 2088.3 369.691 2087.63 372.413 2086.97 375.023 2086.64 377.523 2086.64Z" fill-rule="evenodd"/><text fill="#000000" fill-opacity="0" font-family="Arial,Arial_MSFontService,sans-serif" font-size="51.25" x="360.414" y="2131.48">3</text><path d="M37.1452 79.2851C4.99199 65.9729-0.991149 41.1744 23.7815 23.8961 48.5541 6.61774 94.7015 3.40255 126.855 16.7147 157.782 29.5193 164.681 53.0836 142.564 70.3726L149.235 75.9775 115.315 75.9928 125.296 55.8633 132.026 61.5178C149.549 49.7466 141.356 34.1521 113.728 26.6864 86.0996 19.2207 49.4972 22.711 31.9742 34.4821 14.4513 46.2533 22.6434 61.8478 50.2719 69.3135 50.553 69.3895 50.8355 69.4644 51.1196 69.5383Z" stroke="#042433" stroke-width="6.875" stroke-miterlimit="8" fill="#156082" fill-rule="evenodd" transform="matrix(-6.12323e-17 -1 -1 6.12323e-17 264.5 2759.5)"/><path d="M281.155 2762.15 285.183 2762.15C285.899 2765.44 287.85 2767.09 291.037 2767.09L294.26 2767.09C296.122 2767.09 297.447 2766.72 298.235 2765.99 299.022 2765.26 299.631 2763.98 300.061 2762.15L304.035 2762.15 304.035 2778.8 300.061 2778.8C299.273 2775.58 297.518 2773.97 294.797 2773.97L290.393 2773.97C288.853 2773.97 287.734 2774.3 287.036 2774.96 286.338 2775.62 285.72 2776.9 285.183 2778.8L281.155 2778.8ZM292.541 2738.09C280.116 2738.09 273.904 2748.72 273.904 2769.99 273.904 2780.99 275.524 2789.35 278.764 2795.08 282.005 2800.8 286.74 2803.67 292.971 2803.67 298.987 2803.67 303.543 2800.87 306.64 2795.26 309.738 2789.66 311.286 2781.97 311.286 2772.19 311.286 2761.13 309.666 2752.68 306.426 2746.84 303.185 2741.01 298.557 2738.09 292.541 2738.09ZM292.917 2733.36C302.442 2733.36 309.693 2736.5 314.67 2742.79 319.647 2749.07 322.136 2758.12 322.136 2769.94 322.136 2782.26 319.459 2791.75 314.106 2798.41 308.753 2805.07 301.314 2808.4 291.789 2808.4 282.408 2808.4 275.273 2805.24 270.385 2798.94 265.498 2792.64 263.054 2783.49 263.054 2771.5 263.054 2759.39 265.766 2750.01 271.191 2743.35 276.616 2736.69 283.858 2733.36 292.917 2733.36Z" fill-rule="evenodd"/><text fill="#000000" fill-opacity="0" font-family="Arial,Arial_MSFontService,sans-serif" font-size="75.0342" x="263.054" y="2799.02">Θ</text><path d="M351.597 2779.41C354.306 2779.41 356.617 2779.71 358.531 2780.33 360.445 2780.94 362.001 2781.77 363.199 2782.81 364.397 2783.85 365.263 2785.1 365.796 2786.56 366.33 2788.02 366.597 2789.59 366.597 2791.28 366.597 2792.3 366.526 2793.24 366.382 2794.12 366.239 2794.99 365.992 2795.85 365.64 2796.69 365.289 2797.54 364.826 2798.39 364.253 2799.25 363.681 2800.11 362.964 2801.02 362.105 2801.99 361.454 2802.82 360.608 2803.78 359.566 2804.88 358.524 2805.97 357.385 2807.14 356.148 2808.39 354.911 2809.64 353.615 2810.94 352.261 2812.3 350.907 2813.65 349.592 2814.99 348.316 2816.32 347.04 2817.65 345.868 2818.94 344.8 2820.19 343.733 2821.44 342.86 2822.59 342.183 2823.63L356.636 2823.63C357.86 2823.63 358.837 2823.58 359.566 2823.49 360.295 2823.4 360.901 2823.2 361.382 2822.89 361.864 2822.57 362.274 2822.1 362.613 2821.46 362.951 2820.82 363.342 2819.94 363.785 2818.82L367.418 2818.82C367.287 2820.67 367.164 2822.53 367.046 2824.41 366.929 2826.28 366.806 2828.15 366.675 2829.99L333.589 2829.99 333.589 2827.96C334.214 2826.56 334.944 2825.17 335.777 2823.8 336.61 2822.44 337.548 2821.05 338.589 2819.64 339.631 2818.24 340.816 2816.78 342.144 2815.29 343.472 2813.79 344.944 2812.23 346.558 2810.62 349.006 2808.17 350.998 2806.08 352.535 2804.35 354.071 2802.62 355.282 2801.08 356.168 2799.72 357.053 2798.37 357.658 2797.12 357.984 2795.97 358.309 2794.83 358.472 2793.6 358.472 2792.3 358.472 2790.97 358.283 2789.75 357.906 2788.63 357.528 2787.51 356.988 2786.56 356.285 2785.78 355.582 2784.99 354.69 2784.38 353.609 2783.94 352.528 2783.5 351.285 2783.28 349.878 2783.28 347.457 2783.28 345.425 2783.93 343.785 2785.25 342.144 2786.56 340.868 2788.47 339.957 2790.97L334.839 2790.97 334.839 2783.35C338.173 2781.97 341.239 2780.97 344.039 2780.35 346.838 2779.72 349.358 2779.41 351.597 2779.41Z" fill-rule="evenodd"/><text fill="#000000" fill-opacity="0" font-family="Arial,Arial_MSFontService,sans-serif" font-size="50.5859" x="333.589" y="2823.67">2</text><path d="M464.789 3216.72 468.818 3216.72C469.534 3220.02 471.485 3221.67 474.672 3221.67L477.895 3221.67C479.757 3221.67 481.081 3221.3 481.869 3220.57 482.657 3219.83 483.266 3218.55 483.695 3216.72L487.67 3216.72 487.67 3233.38 483.695 3233.38C482.908 3230.15 481.153 3228.54 478.432 3228.54L474.027 3228.54C472.488 3228.54 471.369 3228.87 470.671 3229.53 469.972 3230.2 469.355 3231.48 468.818 3233.38L464.789 3233.38ZM476.176 3192.66C463.751 3192.66 457.538 3203.3 457.538 3224.57 457.538 3235.56 459.158 3243.92 462.399 3249.65 465.64 3255.38 470.375 3258.24 476.606 3258.24 482.621 3258.24 487.178 3255.44 490.275 3249.84 493.372 3244.23 494.921 3236.54 494.921 3226.77 494.921 3215.7 493.301 3207.25 490.06 3201.42 486.82 3195.58 482.192 3192.66 476.176 3192.66ZM476.552 3187.94C486.077 3187.94 493.328 3191.08 498.305 3197.36 503.282 3203.65 505.771 3212.7 505.771 3224.51 505.771 3236.83 503.094 3246.32 497.741 3252.98 492.388 3259.64 484.949 3262.97 475.424 3262.97 466.042 3262.97 458.908 3259.82 454.02 3253.52 449.132 3247.21 446.689 3238.07 446.689 3226.07 446.689 3213.97 449.401 3204.59 454.826 3197.93 460.251 3191.27 467.493 3187.94 476.552 3187.94Z" fill-rule="evenodd"/><text fill="#000000" fill-opacity="0" font-family="Arial,Arial_MSFontService,sans-serif" font-size="75.0342" x="446.689" y="3253.59">Θ</text><path d="M535.735 3234.26 538.118 3234.26C538.066 3235.69 538.027 3236.97 538.001 3238.1 537.975 3239.24 537.955 3240.34 537.942 3241.4 537.929 3242.47 537.922 3243.53 537.922 3244.57L537.922 3274.26C537.922 3275.06 537.949 3275.76 538.001 3276.35 538.053 3276.93 538.137 3277.43 538.255 3277.83 538.372 3278.23 538.528 3278.58 538.723 3278.87 538.919 3279.15 539.146 3279.4 539.407 3279.61 539.719 3279.92 540.136 3280.16 540.657 3280.33 541.178 3280.5 541.842 3280.64 542.649 3280.76 543.456 3280.88 544.426 3280.97 545.559 3281.03 546.692 3281.1 548.053 3281.14 549.641 3281.17L549.641 3284.57 518.665 3284.57 518.665 3281.17C520.201 3281.12 521.503 3281.06 522.571 3280.99 523.639 3280.93 524.55 3280.84 525.305 3280.72 526.061 3280.6 526.666 3280.47 527.122 3280.33 527.577 3280.19 527.975 3280.01 528.313 3279.8 528.678 3279.57 528.99 3279.31 529.251 3279.04 529.511 3278.77 529.719 3278.42 529.876 3278.01 530.032 3277.59 530.156 3277.08 530.247 3276.48 530.338 3275.88 530.383 3275.14 530.383 3274.26L530.383 3246.25C530.383 3245.23 530.188 3244.52 529.797 3244.1 529.407 3243.68 528.847 3243.48 528.118 3243.48 527.311 3243.48 526.113 3243.89 524.524 3244.73 522.936 3245.56 520.878 3246.8 518.352 3248.44 518.014 3247.84 517.701 3247.24 517.415 3246.64 517.128 3246.04 516.829 3245.43 516.516 3244.8 519.745 3243.03 522.942 3241.27 526.106 3239.51 529.27 3237.75 532.48 3236 535.735 3234.26Z" fill-rule="evenodd"/><text fill="#000000" fill-opacity="0" font-family="Arial,Arial_MSFontService,sans-serif" font-size="50.3125" x="516.516" y="3278.28">1</text><path d="M0 0 726.392 755.041" stroke="#7F7F7F" stroke-width="13.75" stroke-miterlimit="8" fill="none" fill-rule="evenodd" transform="matrix(-1 0 0 1 1373.39 1209)"/><path d="M37.1877 79.2306C5.00438 65.9412-1.01098 41.1665 23.752 23.8949 48.515 6.62325 94.679 3.39502 126.862 16.6844 157.846 29.4783 164.756 53.0467 142.592 70.329L149.256 75.9286 115.323 75.9359 125.339 55.8323 132.062 61.4813C149.621 49.7267 141.454 34.143 113.819 26.6741 86.184 19.2052 49.5469 22.6793 31.9875 34.4339 14.4282 46.1884 22.5959 61.7721 50.2307 69.2411 50.538 69.3241 50.8471 69.4059 51.1579 69.4866Z" stroke="#042433" stroke-width="6.875" stroke-miterlimit="8" fill="#156082" fill-rule="evenodd" transform="matrix(0.714097 -0.700046 -0.700046 -0.714097 2052.43 1908.57)"/><rect x="0" y="57.9872" width="313.263" height="67.979" fill="#E59EDD" transform="matrix(0.714097 -0.700046 -0.700046 -0.714097 2241.01 2199.57)"/><path d="M313.263 57.9872 371.25 0 371.25 67.979 313.263 125.966Z" fill="#B87FB2" fill-rule="evenodd" transform="matrix(0.714097 -0.700046 -0.700046 -0.714097 2241.01 2199.57)"/><path d="M0 57.9872 57.9871 0 371.25 0 313.263 57.9872Z" fill="#EAB1E4" fill-rule="evenodd" transform="matrix(0.714097 -0.700046 -0.700046 -0.714097 2241.01 2199.57)"/><path d="M0 57.9872 57.9871 0 371.25 0 371.25 67.979 313.263 125.966 0 125.966ZM0 57.9872 313.263 57.9872 371.25 0M313.263 57.9872 313.263 125.966" stroke="#042433" stroke-width="6.875" stroke-miterlimit="8" fill="none" fill-rule="evenodd" transform="matrix(0.714097 -0.700046 -0.700046 -0.714097 2241.01 2199.57)"/><rect x="0" y="60.1557" width="42.9692" height="295.969" fill="#E59EDD" transform="matrix(0.714097 -0.700046 -0.700046 -0.714097 2642.32 2225.92)"/><path d="M42.9692 60.1557 103.125 0 103.125 295.969 42.9692 356.125Z" fill="#B87FB2" fill-rule="evenodd" transform="matrix(0.714097 -0.700046 -0.700046 -0.714097 2642.32 2225.92)"/><path d="M0 60.1557 60.1558 0 103.125 0 42.9692 60.1557Z" fill="#EAB1E4" fill-rule="evenodd" transform="matrix(0.714097 -0.700046 -0.700046 -0.714097 2642.32 2225.92)"/><path d="M0 60.1557 60.1558 0 103.125 0 103.125 295.969 42.9692 356.125 0 356.125ZM0 60.1557 42.9692 60.1557 103.125 0M42.9692 60.1557 42.9692 356.125" stroke="#042433" stroke-width="6.875" stroke-miterlimit="8" fill="none" fill-rule="evenodd" transform="matrix(0.714097 -0.700046 -0.700046 -0.714097 2642.32 2225.92)"/><path d="M1650.15 1362.26 1905.87 1623.11 1896.05 1632.74 1640.33 1371.88ZM1910.88 1608.57 1925.03 1652.47 1881.42 1637.45Z" fill="#7F7F7F"/><path d="M1002.67 1443.18C992.613 1453.04 1016.43 1493.64 1055.87 1533.87 1095.3 1574.09 1135.42 1598.71 1145.48 1588.85L860.555 1868.17C850.498 1878.03 810.376 1853.41 770.94 1813.19 731.505 1772.96 707.688 1732.36 717.745 1722.5Z" fill="#83CBEB" fill-rule="evenodd"/><path d="M1002.67 1443.18C1012.73 1433.32 1052.85 1457.94 1092.28 1498.17 1131.72 1538.39 1155.54 1579 1145.48 1588.85 1135.42 1598.71 1095.3 1574.09 1055.87 1533.87 1016.43 1493.64 992.613 1453.04 1002.67 1443.18Z" fill="#B5E0F3" fill-rule="evenodd"/><path d="M1145.48 1588.85C1135.42 1598.71 1095.3 1574.09 1055.87 1533.87 1016.43 1493.64 992.613 1453.04 1002.67 1443.18 1012.73 1433.32 1052.85 1457.94 1092.28 1498.16 1131.72 1538.39 1155.54 1579 1145.48 1588.85L860.555 1868.17C850.498 1878.03 810.376 1853.41 770.94 1813.19 731.505 1772.96 707.688 1732.36 717.745 1722.5L1002.67 1443.18" stroke="#000000" stroke-width="6.875" stroke-miterlimit="8" fill="none" fill-rule="evenodd"/><path d="M6.875-1.08153e-05 6.87531 195.035-6.87469 195.035-6.875 1.08153e-05ZM20.6253 188.16 0.000360892 229.41-20.6247 188.16Z" fill="#0070C0" transform="matrix(0.700046 0.714097 0.714097 -0.700046 1075.92 1514.21)"/><path d="M1292.29 1218.81C1330.04 1233 1376.18 1203.15 1395.36 1152.13 1414.53 1101.12 1399.47 1048.27 1361.72 1034.08L1580.36 1116.26C1618.11 1130.45 1633.17 1183.3 1614 1234.31 1594.82 1285.32 1548.68 1315.17 1510.93 1300.99Z" fill="#83CBEB" fill-rule="evenodd"/><path d="M1292.29 1218.81C1254.54 1204.62 1239.49 1151.77 1258.66 1100.76 1277.83 1049.75 1323.98 1019.89 1361.72 1034.08 1399.47 1048.27 1414.53 1101.12 1395.36 1152.13 1376.18 1203.15 1330.04 1233 1292.29 1218.81Z" fill="#B5E0F3" fill-rule="evenodd"/><path d="M1361.72 1034.08C1399.47 1048.27 1414.53 1101.12 1395.36 1152.14 1376.18 1203.15 1330.04 1233 1292.29 1218.81 1254.54 1204.62 1239.49 1151.77 1258.66 1100.76 1277.83 1049.75 1323.98 1019.89 1361.72 1034.08L1580.36 1116.26C1618.11 1130.45 1633.17 1183.3 1614 1234.31 1594.82 1285.32 1548.68 1315.17 1510.93 1300.99L1292.29 1218.81" stroke="#000000" stroke-width="6.875" stroke-miterlimit="8" fill="none" fill-rule="evenodd"/><path d="M2.95071-6.20958 373.823 170.024 367.922 182.443-2.95071 6.20958ZM373.515 154.654 401.92 190.987 355.811 191.912Z" fill="#0070C0" transform="matrix(-0.700046 -0.714097 -0.714097 0.700046 1331.17 1121.15)"/><path d="M0 0 396.111 0.976936" stroke="#7F7F7F" stroke-width="13.75" stroke-miterlimit="8" fill="none" fill-rule="evenodd" transform="matrix(0.700046 0.714097 0.714097 -0.700046 2018.82 1750.57)"/><path d="M916.818 1032.74 965.265 1032.74 965.265 1035.32 928.527 1101.12 947.917 1101.12C950.316 1101.12 952.097 1100.89 953.261 1100.45 954.425 1100 955.382 1099.3 956.134 1098.35 956.886 1097.4 957.567 1096.07 958.175 1094.35 958.784 1092.63 959.518 1089.96 960.378 1086.35L965.641 1086.35 965.641 1106.06 916.012 1106.06 916.012 1103.43 952.804 1037.69 933.307 1037.69C931.911 1037.69 930.81 1037.8 930.004 1038.03 929.198 1038.27 928.473 1038.63 927.829 1039.11 927.184 1039.59 926.549 1040.3 925.922 1041.23 925.295 1042.16 924.669 1043.44 924.042 1045.07 923.415 1046.7 922.762 1048.73 922.082 1051.17L916.818 1051.17Z" fill-rule="evenodd"/><text fill="#000000" fill-opacity="0" font-family="Arial,Arial_MSFontService,sans-serif" font-size="73.3154" x="916.012" y="1096.9">Z</text><path d="M995.13 1087.62C992.63 1091.24 990.137 1094.83 987.65 1098.4 985.163 1101.97 982.656 1105.55 980.13 1109.14L980.13 1109.61 995.13 1109.61 995.13 1101.76C995.13 1100.88 995.143 1099.78 995.169 1098.48 995.195 1097.18 995.228 1095.86 995.267 1094.51 995.306 1093.17 995.352 1091.9 995.404 1090.69 995.456 1089.48 995.508 1088.45 995.56 1087.62ZM996.263 1078.48 1002.47 1078.48 1002.47 1109.61 1003.18 1109.61C1004.24 1109.61 1005.11 1109.56 1005.77 1109.46 1006.44 1109.35 1006.97 1109.14 1007.38 1108.81 1007.78 1108.49 1008.12 1108.03 1008.39 1107.44 1008.67 1106.86 1008.96 1106.1 1009.27 1105.16L1012.59 1105.16C1012.51 1106.59 1012.43 1108.01 1012.34 1109.42 1012.25 1110.82 1012.16 1112.26 1012.08 1113.71L1002.47 1113.71 1002.47 1118.83C1002.47 1120.34 1002.51 1121.51 1002.57 1122.35 1002.64 1123.18 1002.83 1123.83 1003.16 1124.3 1003.48 1124.77 1003.96 1125.12 1004.6 1125.35 1005.24 1125.59 1006.13 1125.86 1007.28 1126.17L1007.28 1128.52 990.404 1128.52 990.404 1126.17C991.185 1125.97 991.849 1125.78 992.396 1125.61 992.943 1125.44 993.398 1125.24 993.763 1125.02 994.128 1124.8 994.394 1124.54 994.564 1124.24 994.733 1123.94 994.863 1123.56 994.954 1123.11 995.045 1122.65 995.098 1122.08 995.111 1121.39 995.124 1120.7 995.13 1119.85 995.13 1118.83L995.13 1113.71 973.138 1113.71 973.138 1110.63C977.018 1105.24 980.872 1099.88 984.7 1094.55 988.529 1089.23 992.383 1083.87 996.263 1078.48Z" fill-rule="evenodd"/><text fill="#000000" fill-opacity="0" font-family="Arial,Arial_MSFontService,sans-serif" font-size="50.0391" x="973.138" y="1122.26">4</text><path d="M2158.66 1807.34 2207.11 1807.34 2207.11 1809.92 2170.37 1875.72 2189.76 1875.72C2192.16 1875.72 2193.94 1875.49 2195.1 1875.04 2196.26 1874.6 2197.22 1873.9 2197.97 1872.95 2198.73 1872 2199.41 1870.67 2200.02 1868.95 2200.62 1867.23 2201.36 1864.56 2202.22 1860.95L2207.48 1860.95 2207.48 1880.66 2157.85 1880.66 2157.85 1878.03 2194.64 1812.28 2175.15 1812.28C2173.75 1812.28 2172.65 1812.4 2171.84 1812.63 2171.04 1812.87 2170.31 1813.22 2169.67 1813.71 2169.02 1814.19 2168.39 1814.9 2167.76 1815.83 2167.14 1816.76 2166.51 1818.04 2165.88 1819.67 2165.26 1821.3 2164.6 1823.33 2163.92 1825.76L2158.66 1825.76Z" fill-rule="evenodd"/><text fill="#000000" fill-opacity="0" font-family="Arial,Arial_MSFontService,sans-serif" font-size="73.3154" x="2157.85" y="1871.49">Z</text><path d="M2246.31 1850.65 2249.82 1850.65 2249.28 1860.11 2226.38 1860.11 2226.38 1875.38C2227.76 1874.91 2229.28 1874.53 2230.92 1874.25 2232.56 1873.96 2234.21 1873.82 2235.88 1873.82 2238.27 1873.82 2240.44 1874.15 2242.38 1874.81 2244.32 1875.48 2245.99 1876.43 2247.38 1877.67 2248.77 1878.9 2249.85 1880.4 2250.62 1882.16 2251.39 1883.92 2251.78 1885.89 2251.78 1888.08 2251.78 1890.58 2251.35 1892.8 2250.49 1894.76 2249.63 1896.71 2248.4 1898.37 2246.79 1899.74 2245.19 1901.1 2243.24 1902.15 2240.94 1902.86 2238.63 1903.58 2236.03 1903.94 2233.14 1903.94 2230.85 1903.94 2228.51 1903.71 2226.11 1903.27 2223.72 1902.83 2221.23 1902.18 2218.65 1901.32L2218.65 1892.65 2223.65 1892.65C2224.43 1895.28 2225.6 1897.16 2227.17 1898.29 2228.73 1899.42 2230.79 1899.99 2233.34 1899.99 2236.75 1899.99 2239.33 1899.11 2241.07 1897.33 2242.82 1895.56 2243.69 1892.79 2243.69 1889.01 2243.69 1885.39 2242.76 1882.71 2240.92 1880.95 2239.07 1879.19 2236.48 1878.31 2233.14 1878.31 2232.26 1878.31 2231.46 1878.32 2230.74 1878.35 2230.02 1878.38 2229.31 1878.44 2228.61 1878.55 2227.91 1878.65 2227.21 1878.79 2226.52 1878.97 2225.83 1879.16 2225.06 1879.37 2224.2 1879.6L2220.99 1877.84 2220.99 1853.27 2242.63 1853.27C2243.26 1853.25 2243.76 1853.21 2244.14 1853.15 2244.52 1853.1 2244.82 1852.99 2245.06 1852.8 2245.29 1852.62 2245.5 1852.37 2245.68 1852.04 2245.86 1851.72 2246.07 1851.25 2246.31 1850.65Z" fill-rule="evenodd"/><text fill="#000000" fill-opacity="0" font-family="Arial,Arial_MSFontService,sans-serif" font-size="53.2812" x="2218.65" y="1897.28">5</text><path d="M1199.13 1562.18 1203.16 1562.18C1203.88 1565.47 1205.83 1567.12 1209.02 1567.12L1212.24 1567.12C1214.1 1567.12 1215.42 1566.75 1216.21 1566.02 1217 1565.29 1217.61 1564.01 1218.04 1562.18L1222.01 1562.18 1222.01 1578.83 1218.04 1578.83C1217.25 1575.61 1215.5 1574 1212.77 1574L1208.37 1574C1206.83 1574 1205.71 1574.33 1205.01 1574.99 1204.32 1575.65 1203.7 1576.93 1203.16 1578.83L1199.13 1578.83ZM1210.52 1538.12C1198.09 1538.12 1191.88 1548.75 1191.88 1570.02 1191.88 1581.01 1193.5 1589.38 1196.74 1595.11 1199.98 1600.83 1204.72 1603.7 1210.95 1603.7 1216.96 1603.7 1221.52 1600.9 1224.62 1595.29 1227.72 1589.69 1229.26 1582 1229.26 1572.22 1229.26 1561.16 1227.64 1552.71 1224.4 1546.87 1221.16 1541.04 1216.53 1538.12 1210.52 1538.12ZM1210.89 1533.39C1220.42 1533.39 1227.67 1536.53 1232.65 1542.82 1237.62 1549.1 1240.11 1558.15 1240.11 1569.97 1240.11 1582.29 1237.44 1591.78 1232.08 1598.44 1226.73 1605.1 1219.29 1608.43 1209.77 1608.43 1200.39 1608.43 1193.25 1605.27 1188.36 1598.97 1183.48 1592.67 1181.03 1583.52 1181.03 1571.53 1181.03 1559.42 1183.74 1550.04 1189.17 1543.38 1194.59 1536.72 1201.84 1533.39 1210.89 1533.39Z" fill-rule="evenodd"/><text fill="#000000" fill-opacity="0" font-family="Arial,Arial_MSFontService,sans-serif" font-size="75.0342" x="1181.03" y="1599.05">Θ</text><path d="M1271.41 1589.13C1268.91 1592.75 1266.42 1596.34 1263.93 1599.91 1261.44 1603.47 1258.94 1607.06 1256.41 1610.65L1256.41 1611.12 1271.41 1611.12 1271.41 1603.27C1271.41 1602.38 1271.42 1601.29 1271.45 1599.99 1271.48 1598.68 1271.51 1597.36 1271.55 1596.02 1271.59 1594.68 1271.63 1593.4 1271.68 1592.19 1271.74 1590.98 1271.79 1589.96 1271.84 1589.13ZM1272.54 1579.99 1278.75 1579.99 1278.75 1611.12 1279.46 1611.12C1280.53 1611.12 1281.39 1611.07 1282.06 1610.96 1282.72 1610.86 1283.25 1610.64 1283.66 1610.32 1284.06 1609.99 1284.4 1609.54 1284.67 1608.95 1284.95 1608.36 1285.24 1607.6 1285.55 1606.66L1288.87 1606.66C1288.79 1608.1 1288.71 1609.52 1288.62 1610.92 1288.53 1612.33 1288.44 1613.76 1288.36 1615.22L1278.75 1615.22 1278.75 1620.34C1278.75 1621.85 1278.79 1623.02 1278.85 1623.85 1278.92 1624.69 1279.11 1625.34 1279.44 1625.81 1279.76 1626.27 1280.25 1626.63 1280.88 1626.86 1281.52 1627.09 1282.41 1627.37 1283.56 1627.68L1283.56 1630.02 1266.68 1630.02 1266.68 1627.68C1267.47 1627.47 1268.13 1627.28 1268.68 1627.11 1269.22 1626.94 1269.68 1626.75 1270.04 1626.53 1270.41 1626.31 1270.68 1626.05 1270.84 1625.75 1271.01 1625.45 1271.14 1625.07 1271.24 1624.61 1271.33 1624.16 1271.38 1623.59 1271.39 1622.9 1271.4 1622.21 1271.41 1621.35 1271.41 1620.34L1271.41 1615.22 1249.42 1615.22 1249.42 1612.13C1253.3 1606.74 1257.15 1601.39 1260.98 1596.06 1264.81 1590.73 1268.66 1585.38 1272.54 1579.99Z" fill-rule="evenodd"/><text fill="#000000" fill-opacity="0" font-family="Arial,Arial_MSFontService,sans-serif" font-size="50.0391" x="1249.42" y="1623.77">4</text><path d="M64.9207 102.787C14.5528 88.6766-0.401405 59.1894 31.5196 36.9252 63.4406 14.661 130.149 8.05077 180.517 22.1609 230.885 36.271 245.839 65.7582 213.918 88.0224 211.442 89.7496 208.717 91.4047 205.76 92.9775L217.133 102.328 164.983 97.2204 180.019 71.815 191.386 81.1604C223.018 68.7874 217.918 50.391 179.994 40.0707 142.07 29.7505 85.6838 31.4145 54.0516 43.7874 22.4194 56.1604 27.5198 74.5568 65.4436 84.8771 71.3493 86.4842 77.8659 87.8361 84.8319 88.8992Z" stroke="#042433" stroke-width="6.875" stroke-miterlimit="8" fill="#156082" fill-rule="evenodd" transform="matrix(0.700046 0.714097 0.714097 -0.700046 1030.23 1397.9)"/><path d="M1093.88 1172.42 1097.91 1172.42C1098.62 1175.71 1100.57 1177.36 1103.76 1177.36L1106.98 1177.36C1108.85 1177.36 1110.17 1176.99 1110.96 1176.26 1111.75 1175.52 1112.35 1174.24 1112.78 1172.42L1116.76 1172.42 1116.76 1189.07 1112.78 1189.07C1112 1185.84 1110.24 1184.23 1107.52 1184.23L1103.12 1184.23C1101.58 1184.23 1100.46 1184.56 1099.76 1185.23 1099.06 1185.89 1098.44 1187.17 1097.91 1189.07L1093.88 1189.07ZM1105.27 1148.35C1092.84 1148.35 1086.63 1158.99 1086.63 1180.26 1086.63 1191.25 1088.25 1199.61 1091.49 1205.34 1094.73 1211.07 1099.46 1213.93 1105.69 1213.93 1111.71 1213.93 1116.27 1211.13 1119.36 1205.53 1122.46 1199.92 1124.01 1192.24 1124.01 1182.46 1124.01 1171.4 1122.39 1162.94 1119.15 1157.11 1115.91 1151.27 1111.28 1148.35 1105.27 1148.35ZM1105.64 1143.63C1115.17 1143.63 1122.42 1146.77 1127.39 1153.05 1132.37 1159.34 1134.86 1168.39 1134.86 1180.2 1134.86 1192.52 1132.18 1202.01 1126.83 1208.67 1121.48 1215.33 1114.04 1218.66 1104.51 1218.66 1095.13 1218.66 1088 1215.51 1083.11 1209.21 1078.22 1202.91 1075.78 1193.76 1075.78 1181.76 1075.78 1169.66 1078.49 1160.28 1083.91 1153.62 1089.34 1146.96 1096.58 1143.63 1105.64 1143.63Z" fill-rule="evenodd"/><text fill="#000000" fill-opacity="0" font-family="Arial,Arial_MSFontService,sans-serif" font-size="75.0342" x="1075.78" y="1209.28">Θ</text><path d="M1175.49 1187.8 1179.01 1187.8 1178.46 1197.25 1155.57 1197.25 1155.57 1212.53C1156.95 1212.06 1158.46 1211.68 1160.1 1211.39 1161.74 1211.11 1163.4 1210.96 1165.06 1210.96 1167.46 1210.96 1169.63 1211.3 1171.57 1211.96 1173.51 1212.62 1175.17 1213.57 1176.57 1214.81 1177.96 1216.05 1179.04 1217.55 1179.81 1219.3 1180.58 1221.06 1180.96 1223.03 1180.96 1225.22 1180.96 1227.72 1180.53 1229.95 1179.67 1231.9 1178.81 1233.85 1177.58 1235.51 1175.98 1236.88 1174.38 1238.25 1172.43 1239.29 1170.12 1240.01 1167.82 1240.72 1165.22 1241.08 1162.33 1241.08 1160.04 1241.08 1157.69 1240.86 1155.3 1240.42 1152.9 1239.97 1150.41 1239.32 1147.84 1238.46L1147.84 1229.79 1152.84 1229.79C1153.62 1232.42 1154.79 1234.3 1156.35 1235.44 1157.91 1236.57 1159.97 1237.13 1162.52 1237.13 1165.94 1237.13 1168.51 1236.25 1170.26 1234.48 1172 1232.71 1172.88 1229.93 1172.88 1226.16 1172.88 1222.54 1171.95 1219.85 1170.1 1218.09 1168.25 1216.33 1165.66 1215.46 1162.33 1215.46 1161.44 1215.46 1160.64 1215.47 1159.93 1215.49 1159.21 1215.52 1158.5 1215.59 1157.8 1215.69 1157.09 1215.79 1156.4 1215.94 1155.71 1216.12 1155.02 1216.3 1154.24 1216.51 1153.38 1216.74L1150.18 1214.99 1150.18 1190.42 1171.82 1190.42C1172.45 1190.39 1172.95 1190.35 1173.32 1190.3 1173.7 1190.25 1174.01 1190.13 1174.24 1189.95 1174.48 1189.77 1174.69 1189.51 1174.87 1189.19 1175.05 1188.86 1175.26 1188.4 1175.49 1187.8Z" fill-rule="evenodd"/><text fill="#000000" fill-opacity="0" font-family="Arial,Arial_MSFontService,sans-serif" font-size="53.2812" x="1147.84" y="1234.42">5</text><path d="M29.0526 105.896C3.94418 82.1203 7.30622 46.3046 36.562 25.8993 65.8177 5.49411 109.889 8.22639 134.997 32.0021 153.021 49.0693 156.937 73.1783 144.979 93.4614L154.228 101.233 122.565 103.013 119.841 72.3402 128.994 80.0305C137.322 60.9662 123.044 40.5502 97.1033 34.43 71.163 28.3099 43.3835 38.8032 35.056 57.8675 29.5466 70.4802 33.8359 84.2972 46.2437 93.9057Z" stroke="#042433" stroke-width="6.875" stroke-miterlimit="8" fill="#156082" fill-rule="evenodd" transform="matrix(0.714097 -0.700046 -0.700046 -0.714097 1105.58 1149.51)"/><path d="M2060.64 1939.96 2064.67 1939.96C2065.39 1943.25 2067.34 1944.9 2070.53 1944.9L2073.75 1944.9C2075.61 1944.9 2076.94 1944.53 2077.72 1943.8 2078.51 1943.06 2079.12 1941.78 2079.55 1939.96L2083.53 1939.96 2083.53 1956.61 2079.55 1956.61C2078.76 1953.38 2077.01 1951.77 2074.29 1951.77L2069.88 1951.77C2068.34 1951.77 2067.22 1952.1 2066.53 1952.77 2065.83 1953.43 2065.21 1954.71 2064.67 1956.61L2060.64 1956.61ZM2072.03 1915.89C2059.61 1915.89 2053.39 1926.53 2053.39 1947.8 2053.39 1958.79 2055.01 1967.15 2058.25 1972.88 2061.5 1978.61 2066.23 1981.47 2072.46 1981.47 2078.48 1981.47 2083.03 1978.67 2086.13 1973.07 2089.23 1967.46 2090.78 1959.78 2090.78 1950 2090.78 1938.94 2089.16 1930.48 2085.92 1924.65 2082.68 1918.81 2078.05 1915.89 2072.03 1915.89ZM2072.41 1911.17C2081.93 1911.17 2089.18 1914.31 2094.16 1920.59 2099.14 1926.88 2101.63 1935.93 2101.63 1947.74 2101.63 1960.06 2098.95 1969.55 2093.6 1976.21 2088.24 1982.87 2080.8 1986.2 2071.28 1986.2 2061.9 1986.2 2054.76 1983.05 2049.88 1976.75 2044.99 1970.45 2042.54 1961.3 2042.54 1949.3 2042.54 1937.2 2045.26 1927.82 2050.68 1921.16 2056.11 1914.5 2063.35 1911.17 2072.41 1911.17Z" fill-rule="evenodd"/><text fill="#000000" fill-opacity="0" font-family="Arial,Arial_MSFontService,sans-serif" font-size="75.0342" x="2042.54" y="1976.82">Θ</text><path d="M2132.61 1981.9C2130.87 1981.9 2129.26 1982.14 2127.79 1982.6 2126.32 1983.07 2124.92 1983.71 2123.59 1984.52 2123.04 1984.88 2122.62 1985.22 2122.32 1985.53 2122.02 1985.85 2121.8 1986.22 2121.65 1986.65 2121.51 1987.08 2121.41 1987.61 2121.36 1988.25 2121.31 1988.89 2121.28 1989.75 2121.28 1990.85 2121.28 2000.07 2124.63 2004.67 2131.32 2004.67 2133.14 2004.67 2134.71 2004.41 2136.03 2003.87 2137.34 2003.34 2138.42 2002.57 2139.25 2001.57 2140.08 2000.57 2140.7 1999.33 2141.09 1997.86 2141.48 1996.39 2141.67 1994.71 2141.67 1992.84 2141.67 1989.35 2140.89 1986.65 2139.33 1984.75 2137.77 1982.85 2135.53 1981.9 2132.61 1981.9ZM2142.96 1957.21C2143.27 1957.58 2143.56 1957.93 2143.82 1958.27 2144.08 1958.61 2144.37 1958.95 2144.68 1959.28L2144.68 1961.59C2141.53 1961.54 2138.69 1961.95 2136.17 1962.84 2133.64 1963.72 2131.41 1965.02 2129.49 1966.73 2127.56 1968.43 2125.94 1970.53 2124.64 1973.01 2123.34 1975.5 2122.32 1978.31 2121.6 1981.43L2122.02 1981.63C2123.09 1980.9 2124.15 1980.27 2125.19 1979.73 2126.23 1979.2 2127.29 1978.76 2128.35 1978.41 2129.42 1978.05 2130.53 1977.8 2131.67 1977.64 2132.82 1977.49 2134.04 1977.41 2135.35 1977.41 2137.64 1977.41 2139.66 1977.75 2141.42 1978.42 2143.18 1979.1 2144.67 1980.09 2145.89 1981.39 2147.12 1982.7 2148.04 1984.26 2148.67 1986.08 2149.29 1987.9 2149.6 1989.94 2149.6 1992.17 2149.6 1994.54 2149.21 1996.75 2148.43 1998.78 2147.65 2000.81 2146.48 2002.55 2144.92 2004.01 2143.35 2005.47 2141.42 2006.6 2139.11 2007.41 2136.81 2008.22 2134.11 2008.62 2131.01 2008.62 2125.15 2008.62 2120.73 2006.95 2117.75 2003.6 2114.77 2000.25 2113.27 1995.33 2113.27 1988.82 2113.27 1985.9 2113.6 1983.11 2114.25 1980.44 2114.9 1977.77 2115.86 1975.28 2117.12 1972.98 2118.39 1970.67 2119.92 1968.59 2121.71 1966.73 2123.51 1964.86 2125.51 1963.25 2127.73 1961.88 2129.94 1960.51 2132.34 1959.43 2134.92 1958.64 2137.49 1957.85 2140.18 1957.37 2142.96 1957.21Z" fill-rule="evenodd"/><text fill="#000000" fill-opacity="0" font-family="Arial,Arial_MSFontService,sans-serif" font-size="51.4062" x="2113.27" y="2002.19">6</text><path d="M1.03023e-05-6.875 206.457-6.87469 206.457 6.87531-1.03023e-05 6.875ZM199.582-20.6247 240.832 0.000360892 199.582 20.6253Z" fill="#0070C0" transform="matrix(0.700046 0.714097 0.714097 -0.700046 2427.54 2126.4)"/><path d="M2195.43 2397.95 2218.31 2397.95 2218.31 2400.58C2214.95 2400.97 2213.26 2402.42 2213.26 2404.93 2213.26 2405.97 2213.51 2407.13 2213.99 2408.42 2214.47 2409.71 2215.34 2411.54 2216.59 2413.9L2227.34 2434.36 2237.92 2415.67C2239.35 2413.13 2240.36 2411.04 2240.95 2409.41 2241.54 2407.79 2241.84 2406.29 2241.84 2404.93 2241.84 2403.64 2241.45 2402.63 2240.68 2401.9 2239.91 2401.16 2238.78 2400.72 2237.27 2400.58L2237.27 2397.95 2257.63 2397.95 2257.63 2400.58C2256.16 2401.12 2254.87 2401.86 2253.76 2402.81 2252.65 2403.76 2251.52 2405.04 2250.38 2406.65 2249.23 2408.26 2247.55 2410.98 2245.33 2414.81L2230.4 2440.27 2230.4 2457.67C2230.4 2459.71 2230.51 2461.36 2230.72 2462.62 2230.94 2463.87 2231.29 2464.87 2231.79 2465.62 2232.3 2466.38 2232.96 2466.97 2233.78 2467.4 2234.61 2467.83 2235.89 2468.24 2237.65 2468.63L2237.65 2471.26 2213.1 2471.26 2213.1 2468.63C2214.82 2468.27 2216.09 2467.89 2216.92 2467.48 2217.74 2467.06 2218.4 2466.47 2218.9 2465.7 2219.41 2464.93 2219.77 2463.92 2220 2462.67 2220.24 2461.42 2220.35 2459.75 2220.35 2457.67L2220.35 2440.49 2205.53 2412.93C2203.74 2409.6 2202.38 2407.22 2201.45 2405.79 2200.52 2404.36 2199.59 2403.23 2198.65 2402.41 2197.72 2401.58 2196.65 2400.97 2195.43 2400.58Z" fill-rule="evenodd"/><text fill="#000000" fill-opacity="0" font-family="Arial,Arial_MSFontService,sans-serif" font-size="73.3154" x="2195.43" y="2462.1">Y</text><path d="M2274.26 2467.82C2272.52 2467.82 2270.91 2468.06 2269.44 2468.53 2267.97 2468.99 2266.57 2469.63 2265.24 2470.44 2264.69 2470.8 2264.27 2471.14 2263.97 2471.46 2263.67 2471.77 2263.45 2472.14 2263.31 2472.57 2263.16 2473 2263.07 2473.53 2263.01 2474.17 2262.96 2474.81 2262.94 2475.67 2262.94 2476.77 2262.94 2485.99 2266.28 2490.6 2272.97 2490.6 2274.8 2490.6 2276.37 2490.33 2277.68 2489.8 2279 2489.26 2280.07 2488.49 2280.9 2487.49 2281.74 2486.49 2282.35 2485.25 2282.74 2483.78 2283.13 2482.31 2283.33 2480.64 2283.33 2478.76 2283.33 2475.27 2282.54 2472.58 2280.98 2470.67 2279.42 2468.77 2277.18 2467.82 2274.26 2467.82ZM2284.61 2443.14C2284.93 2443.5 2285.21 2443.85 2285.47 2444.19 2285.73 2444.53 2286.02 2444.87 2286.33 2445.21L2286.33 2447.51C2283.18 2447.46 2280.34 2447.87 2277.82 2448.76 2275.29 2449.65 2273.07 2450.94 2271.14 2452.65 2269.21 2454.35 2267.6 2456.45 2266.29 2458.94 2264.99 2461.42 2263.98 2464.23 2263.25 2467.35L2263.68 2467.55C2264.74 2466.82 2265.8 2466.19 2266.84 2465.65 2267.88 2465.12 2268.94 2464.68 2270.01 2464.33 2271.07 2463.97 2272.18 2463.72 2273.33 2463.56 2274.47 2463.41 2275.7 2463.33 2277 2463.33 2279.29 2463.33 2281.31 2463.67 2283.07 2464.35 2284.83 2465.02 2286.32 2466.01 2287.54 2467.31 2288.77 2468.62 2289.69 2470.18 2290.32 2472 2290.94 2473.83 2291.26 2475.86 2291.26 2478.1 2291.26 2480.47 2290.86 2482.67 2290.08 2484.7 2289.3 2486.73 2288.13 2488.47 2286.57 2489.93 2285.01 2491.39 2283.07 2492.52 2280.77 2493.33 2278.46 2494.14 2275.76 2494.54 2272.66 2494.54 2266.8 2494.54 2262.38 2492.87 2259.4 2489.52 2256.42 2486.18 2254.93 2481.25 2254.93 2474.74 2254.93 2471.82 2255.25 2469.03 2255.9 2466.36 2256.55 2463.69 2257.51 2461.2 2258.77 2458.9 2260.04 2456.59 2261.57 2454.51 2263.36 2452.65 2265.16 2450.78 2267.17 2449.17 2269.38 2447.8 2271.59 2446.44 2273.99 2445.35 2276.57 2444.56 2279.15 2443.77 2281.83 2443.29 2284.61 2443.14Z" fill-rule="evenodd"/><text fill="#000000" fill-opacity="0" font-family="Arial,Arial_MSFontService,sans-serif" font-size="51.4062" x="2254.93" y="2488.12">6</text><path d="M2017.72 2115.55 2040.6 2115.55 2040.6 2118.18C2038.88 2118.43 2037.65 2118.89 2036.89 2119.57 2036.14 2120.25 2035.77 2121.19 2035.77 2122.37 2035.77 2123.37 2036.11 2124.62 2036.79 2126.13 2037.47 2127.63 2038.43 2129.42 2039.69 2131.5L2047.48 2144.55 2055.16 2132.14C2056.3 2130.28 2057.16 2128.79 2057.73 2127.68 2058.31 2126.57 2058.71 2125.64 2058.94 2124.89 2059.18 2124.14 2059.29 2123.37 2059.29 2122.58 2059.29 2121.47 2058.97 2120.53 2058.33 2119.76 2057.68 2118.99 2056.61 2118.46 2055.1 2118.18L2055.1 2115.55 2075.03 2115.55 2075.03 2118.18C2073.7 2118.61 2072.51 2119.23 2071.46 2120.06 2070.4 2120.88 2069.27 2122.08 2068.07 2123.66 2066.87 2125.23 2065.16 2127.72 2062.94 2131.12L2050.81 2149.92 2064.45 2172.37C2066.38 2175.56 2067.77 2177.79 2068.61 2179.06 2069.45 2180.33 2070.24 2181.4 2070.97 2182.28 2071.71 2183.16 2072.5 2183.92 2073.34 2184.56 2074.18 2185.21 2075.23 2185.76 2076.48 2186.23L2076.48 2188.86 2052.9 2188.86 2052.9 2186.23C2054.55 2185.94 2055.77 2185.49 2056.55 2184.86 2057.34 2184.23 2057.73 2183.29 2057.73 2182.04 2057.73 2181.04 2057.48 2179.93 2056.96 2178.71 2056.44 2177.49 2055.64 2175.99 2054.57 2174.2L2044.84 2157.98 2034.59 2174.79C2032.87 2177.62 2032.01 2179.95 2032.01 2181.77 2032.01 2182.95 2032.33 2183.92 2032.97 2184.67 2033.62 2185.42 2034.69 2185.94 2036.2 2186.23L2036.2 2188.86 2015.89 2188.86 2015.89 2186.23C2017.22 2185.84 2018.31 2185.36 2019.17 2184.81 2020.03 2184.25 2020.85 2183.54 2021.64 2182.68 2022.43 2181.82 2023.31 2180.73 2024.27 2179.41 2025.24 2178.08 2026.78 2175.77 2028.89 2172.48L2041.57 2152.71 2026.42 2127.79C2024.99 2125.5 2023.91 2123.83 2023.17 2122.8 2022.44 2121.76 2021.76 2120.92 2021.13 2120.27 2020.5 2119.63 2019.94 2119.17 2019.44 2118.9 2018.94 2118.63 2018.36 2118.39 2017.72 2118.18Z" fill-rule="evenodd"/><text fill="#000000" fill-opacity="0" font-family="Arial,Arial_MSFontService,sans-serif" font-size="73.3154" x="2015.89" y="2179.7">X</text><path d="M2105.86 2185.42C2104.12 2185.42 2102.51 2185.66 2101.04 2186.12 2099.57 2186.59 2098.17 2187.23 2096.84 2188.04 2096.29 2188.4 2095.87 2188.74 2095.57 2189.05 2095.27 2189.37 2095.05 2189.74 2094.9 2190.17 2094.76 2190.6 2094.66 2191.13 2094.61 2191.77 2094.56 2192.41 2094.53 2193.27 2094.53 2194.37 2094.53 2203.58 2097.88 2208.19 2104.57 2208.19 2106.4 2208.19 2107.96 2207.93 2109.28 2207.39 2110.59 2206.86 2111.67 2206.09 2112.5 2205.09 2113.34 2204.09 2113.95 2202.85 2114.34 2201.38 2114.73 2199.91 2114.92 2198.23 2114.92 2196.36 2114.92 2192.87 2114.14 2190.17 2112.58 2188.27 2111.02 2186.37 2108.78 2185.42 2105.86 2185.42ZM2116.21 2160.73C2116.53 2161.1 2116.81 2161.45 2117.07 2161.79 2117.33 2162.13 2117.62 2162.47 2117.93 2162.8L2117.93 2165.11C2114.78 2165.06 2111.94 2165.47 2109.42 2166.36 2106.89 2167.24 2104.66 2168.54 2102.74 2170.25 2100.81 2171.95 2099.2 2174.05 2097.89 2176.53 2096.59 2179.02 2095.58 2181.83 2094.85 2184.95L2095.28 2185.15C2096.34 2184.42 2097.4 2183.79 2098.44 2183.25 2099.48 2182.72 2100.54 2182.28 2101.6 2181.92 2102.67 2181.57 2103.78 2181.32 2104.92 2181.16 2106.07 2181.01 2107.29 2180.93 2108.6 2180.93 2110.89 2180.93 2112.91 2181.27 2114.67 2181.94 2116.43 2182.62 2117.92 2183.61 2119.14 2184.91 2120.37 2186.22 2121.29 2187.78 2121.92 2189.6 2122.54 2191.42 2122.85 2193.45 2122.85 2195.69 2122.85 2198.06 2122.46 2200.26 2121.68 2202.3 2120.9 2204.33 2119.73 2206.07 2118.17 2207.53 2116.6 2208.99 2114.67 2210.12 2112.37 2210.93 2110.06 2211.74 2107.36 2212.14 2104.26 2212.14 2098.4 2212.14 2093.98 2210.47 2091 2207.12 2088.02 2203.77 2086.53 2198.85 2086.53 2192.33 2086.53 2189.42 2086.85 2186.63 2087.5 2183.96 2088.15 2181.29 2089.11 2178.8 2090.37 2176.5 2091.64 2174.19 2093.17 2172.11 2094.96 2170.25 2096.76 2168.38 2098.77 2166.77 2100.98 2165.4 2103.19 2164.03 2105.59 2162.95 2108.17 2162.16 2110.74 2161.36 2113.43 2160.89 2116.21 2160.73Z" fill-rule="evenodd"/><text fill="#000000" fill-opacity="0" font-family="Arial,Arial_MSFontService,sans-serif" font-size="51.4062" x="2086.53" y="2205.71">6</text><path d="M2599.94 2320.47 2648.39 2320.47 2648.39 2323.05 2611.65 2388.85 2631.04 2388.85C2633.44 2388.85 2635.22 2388.62 2636.39 2388.18 2637.55 2387.73 2638.51 2387.03 2639.26 2386.08 2640.01 2385.13 2640.69 2383.8 2641.3 2382.08 2641.91 2380.36 2642.65 2377.69 2643.5 2374.08L2648.77 2374.08 2648.77 2393.79 2599.14 2393.79 2599.14 2391.16 2635.93 2325.41 2616.43 2325.41C2615.04 2325.41 2613.94 2325.53 2613.13 2325.76 2612.33 2326 2611.6 2326.35 2610.96 2326.84 2610.31 2327.32 2609.68 2328.03 2609.05 2328.96 2608.42 2329.89 2607.8 2331.17 2607.17 2332.8 2606.54 2334.43 2605.89 2336.46 2605.21 2338.9L2599.94 2338.9Z" fill-rule="evenodd"/><text fill="#000000" fill-opacity="0" font-family="Arial,Arial_MSFontService,sans-serif" font-size="73.3154" x="2599.14" y="2384.62">Z</text><path d="M2677.94 2390.35C2676.2 2390.35 2674.59 2390.58 2673.12 2391.05 2671.65 2391.52 2670.25 2392.16 2668.92 2392.97 2668.37 2393.33 2667.95 2393.67 2667.65 2393.98 2667.35 2394.29 2667.13 2394.66 2666.99 2395.09 2666.84 2395.52 2666.75 2396.06 2666.69 2396.7 2666.64 2397.33 2666.62 2398.2 2666.62 2399.29 2666.62 2408.51 2669.96 2413.12 2676.66 2413.12 2678.48 2413.12 2680.05 2412.85 2681.36 2412.32 2682.68 2411.79 2683.75 2411.02 2684.59 2410.02 2685.42 2409.01 2686.03 2407.78 2686.42 2406.3 2686.81 2404.83 2687.01 2403.16 2687.01 2401.29 2687.01 2397.8 2686.23 2395.1 2684.66 2393.2 2683.1 2391.3 2680.86 2390.35 2677.94 2390.35ZM2688.3 2365.66C2688.61 2366.02 2688.9 2366.38 2689.16 2366.72 2689.42 2367.05 2689.7 2367.39 2690.01 2367.73L2690.01 2370.04C2686.86 2369.98 2684.03 2370.4 2681.5 2371.29 2678.97 2372.17 2676.75 2373.47 2674.82 2375.17 2672.89 2376.88 2671.28 2378.97 2669.98 2381.46 2668.67 2383.95 2667.66 2386.75 2666.93 2389.88L2667.36 2390.07C2668.43 2389.35 2669.48 2388.71 2670.52 2388.18 2671.56 2387.65 2672.62 2387.2 2673.69 2386.85 2674.75 2386.5 2675.86 2386.25 2677.01 2386.09 2678.15 2385.93 2679.38 2385.86 2680.68 2385.86 2682.97 2385.86 2685 2386.19 2686.75 2386.87 2688.51 2387.55 2690 2388.54 2691.23 2389.84 2692.45 2391.14 2693.37 2392.7 2694 2394.53 2694.62 2396.35 2694.94 2398.38 2694.94 2400.62 2694.94 2402.99 2694.55 2405.19 2693.76 2407.22 2692.98 2409.25 2691.81 2411 2690.25 2412.46 2688.69 2413.92 2686.75 2415.05 2684.45 2415.86 2682.14 2416.66 2679.44 2417.07 2676.34 2417.07 2670.48 2417.07 2666.06 2415.39 2663.08 2412.05 2660.1 2408.7 2658.61 2403.77 2658.61 2397.26 2658.61 2394.35 2658.93 2391.55 2659.59 2388.88 2660.24 2386.21 2661.19 2383.73 2662.46 2381.42 2663.72 2379.12 2665.25 2377.03 2667.05 2375.17 2668.84 2373.31 2670.85 2371.7 2673.06 2370.33 2675.28 2368.96 2677.67 2367.88 2680.25 2367.09 2682.83 2366.29 2685.51 2365.82 2688.3 2365.66Z" fill-rule="evenodd"/><text fill="#000000" fill-opacity="0" font-family="Arial,Arial_MSFontService,sans-serif" font-size="51.4062" x="2658.61" y="2410.64">6</text><path d="M4.86136-4.86136 203.486 193.763 193.763 203.486-4.86136 4.86136ZM208.347 179.179 222.931 222.931 179.179 208.347Z" fill="#FF0000" transform="matrix(-0.700046 -0.714097 -0.714097 0.700046 2427.93 2130.08)"/><path d="M2427.94 2139.7 2213.51 2349.91 2203.89 2340.09 2418.31 2129.88ZM2228.05 2354.91 2184.15 2369.06 2199.17 2325.46Z" fill="#4EA72E"/><rect x="0" y="60.1557" width="42.9692" height="295.969" fill="#E59EDD" transform="matrix(0.714097 -0.700046 -0.700046 -0.714097 2450.85 2413.62)"/><path d="M42.9692 60.1557 103.125 0 103.125 295.969 42.9692 356.125Z" fill="#B87FB2" fill-rule="evenodd" transform="matrix(0.714097 -0.700046 -0.700046 -0.714097 2450.85 2413.62)"/><path d="M0 60.1557 60.1558 0 103.125 0 42.9692 60.1557Z" fill="#EAB1E4" fill-rule="evenodd" transform="matrix(0.714097 -0.700046 -0.700046 -0.714097 2450.85 2413.62)"/><path d="M0 60.1557 60.1558 0 103.125 0 103.125 295.969 42.9692 356.125 0 356.125ZM0 60.1557 42.9692 60.1557 103.125 0M42.9692 60.1557 42.9692 356.125" stroke="#042433" stroke-width="6.875" stroke-miterlimit="8" fill="none" fill-rule="evenodd" transform="matrix(0.714097 -0.700046 -0.700046 -0.714097 2450.85 2413.62)"/><path d="M2427.53 2130.48 2344.77 2211.61" stroke="#4EA72E" stroke-width="13.75" stroke-miterlimit="8" fill="none" fill-rule="evenodd"/><path d="M1242.91 1385.76 1291.36 1385.76 1291.36 1388.34 1254.62 1454.13 1274.01 1454.13C1276.41 1454.13 1278.19 1453.91 1279.36 1453.46 1280.52 1453.01 1281.48 1452.31 1282.23 1451.37 1282.98 1450.42 1283.66 1449.08 1284.27 1447.36 1284.88 1445.65 1285.61 1442.98 1286.47 1439.36L1291.74 1439.36 1291.74 1459.07 1242.11 1459.07 1242.11 1456.44 1278.9 1390.7 1259.4 1390.7C1258.01 1390.7 1256.91 1390.82 1256.1 1391.05 1255.29 1391.28 1254.57 1391.64 1253.92 1392.12 1253.28 1392.61 1252.64 1393.31 1252.02 1394.24 1251.39 1395.18 1250.76 1396.46 1250.14 1398.08 1249.51 1399.71 1248.86 1401.75 1248.18 1404.18L1242.91 1404.18Z" fill-rule="evenodd"/><text fill="#000000" fill-opacity="0" font-family="Arial,Arial_MSFontService,sans-serif" font-size="73.3154" x="1242.11" y="1449.91">Z</text><path d="M1319.31 1430.95C1321.4 1430.95 1323.34 1431.17 1325.15 1431.61 1326.96 1432.05 1328.53 1432.72 1329.86 1433.62 1331.19 1434.52 1332.22 1435.64 1332.96 1436.98 1333.71 1438.32 1334.08 1439.88 1334.08 1441.65 1334.08 1443.32 1333.84 1444.79 1333.37 1446.06 1332.91 1447.34 1332.18 1448.5 1331.21 1449.54 1330.23 1450.58 1329.03 1451.53 1327.61 1452.37 1326.19 1453.22 1324.56 1454.03 1322.71 1454.81L1322.71 1455.28C1324.46 1455.59 1326.08 1456.1 1327.59 1456.79 1329.1 1457.48 1330.43 1458.35 1331.56 1459.4 1332.69 1460.46 1333.58 1461.68 1334.23 1463.06 1334.88 1464.44 1335.21 1465.96 1335.21 1467.63 1335.21 1469.71 1334.82 1471.64 1334.04 1473.43 1333.26 1475.21 1332.09 1476.75 1330.52 1478.06 1328.96 1479.36 1327.03 1480.37 1324.74 1481.1 1322.45 1481.83 1319.77 1482.2 1316.69 1482.2 1314.27 1482.2 1311.81 1481.96 1309.31 1481.47 1306.81 1480.99 1304.44 1480.36 1302.2 1479.58L1302.2 1471.14 1307.24 1471.14C1307.66 1472.44 1308.15 1473.56 1308.73 1474.48 1309.3 1475.41 1309.97 1476.16 1310.74 1476.75 1311.51 1477.33 1312.39 1477.76 1313.39 1478.02 1314.4 1478.28 1315.54 1478.41 1316.81 1478.41 1320.17 1478.41 1322.72 1477.61 1324.45 1476 1326.18 1474.4 1327.05 1471.97 1327.05 1468.72 1327.05 1465.26 1325.91 1462.63 1323.63 1460.85 1321.35 1459.06 1317.97 1458.17 1313.49 1458.17L1310.05 1458.17 1310.05 1454.42C1312.79 1454.29 1315.15 1453.91 1317.14 1453.27 1319.14 1452.63 1320.8 1451.81 1322.12 1450.79 1323.45 1449.77 1324.44 1448.59 1325.09 1447.24 1325.74 1445.88 1326.07 1444.44 1326.07 1442.9 1326.07 1440.4 1325.33 1438.43 1323.84 1436.98 1322.36 1435.54 1320.21 1434.81 1317.4 1434.81 1315.03 1434.81 1313.04 1435.46 1311.44 1436.77 1309.84 1438.07 1308.61 1440.01 1307.75 1442.59L1302.79 1442.59 1302.79 1434.89C1305.86 1433.59 1308.76 1432.61 1311.48 1431.94 1314.2 1431.28 1316.81 1430.95 1319.31 1430.95Z" fill-rule="evenodd"/><text fill="#000000" fill-opacity="0" font-family="Arial,Arial_MSFontService,sans-serif" font-size="51.25" x="1302.2" y="1475.79">3</text><path d="M6.8749-0.0363311 9.11917 424.644-4.63064 424.717-6.8749 0.0363311ZM22.8326 417.696 2.42592 459.055-18.4168 417.914Z" fill="#0070C0" transform="matrix(1 0 0 -1 643 3555.05)"/><path d="M639 3542.12 943.912 3542.12 943.912 3555.88 639 3555.87ZM937.037 3528.38 978.287 3549 937.037 3569.62Z" fill="#4EA72E"/><path d="M987.152 3503.36 1010.03 3503.36 1010.03 3505.99C1006.67 3506.39 1004.98 3507.84 1004.98 3510.34 1004.98 3511.38 1005.23 3512.54 1005.71 3513.83 1006.19 3515.12 1007.06 3516.95 1008.31 3519.31L1019.06 3539.78 1029.64 3521.08C1031.07 3518.54 1032.08 3516.46 1032.67 3514.83 1033.26 3513.2 1033.56 3511.7 1033.56 3510.34 1033.56 3509.05 1033.17 3508.04 1032.4 3507.31 1031.63 3506.57 1030.5 3506.13 1028.99 3505.99L1028.99 3503.36 1049.35 3503.36 1049.35 3505.99C1047.88 3506.53 1046.59 3507.27 1045.48 3508.22 1044.37 3509.17 1043.24 3510.45 1042.1 3512.06 1040.95 3513.67 1039.27 3516.39 1037.05 3520.22L1022.12 3545.68 1022.12 3563.09C1022.12 3565.13 1022.23 3566.77 1022.44 3568.03 1022.66 3569.28 1023.01 3570.28 1023.51 3571.04 1024.02 3571.79 1024.68 3572.38 1025.5 3572.81 1026.33 3573.24 1027.61 3573.65 1029.37 3574.04L1029.37 3576.67 1004.82 3576.67 1004.82 3574.04C1006.54 3573.68 1007.81 3573.3 1008.64 3572.89 1009.46 3572.48 1010.12 3571.89 1010.62 3571.12 1011.13 3570.35 1011.49 3569.33 1011.73 3568.08 1011.96 3566.83 1012.07 3565.16 1012.07 3563.09L1012.07 3545.9 997.25 3518.34C995.46 3515.01 994.099 3512.63 993.168 3511.2 992.237 3509.77 991.306 3508.64 990.375 3507.82 989.444 3506.99 988.37 3506.39 987.152 3505.99Z" fill-rule="evenodd"/><text fill="#000000" fill-opacity="0" font-family="Arial,Arial_MSFontService,sans-serif" font-size="73.3154" x="987.152" y="3567.51">Y</text><path d="M1064.3 3552.34C1062.48 3552.34 1060.96 3552.81 1059.73 3553.76 1058.51 3554.71 1057.54 3556.11 1056.82 3557.94 1056.11 3559.78 1055.6 3562.02 1055.3 3564.66 1055 3567.3 1054.85 3570.31 1054.85 3573.66 1054.85 3577.54 1055.04 3580.9 1055.42 3583.72 1055.79 3586.55 1056.38 3588.87 1057.17 3590.7 1057.97 3592.52 1058.97 3593.86 1060.16 3594.72 1061.36 3595.58 1062.79 3596.01 1064.46 3596.01 1066.02 3596.01 1067.39 3595.6 1068.56 3594.8 1069.73 3593.99 1070.7 3592.73 1071.47 3591.03 1072.24 3589.32 1072.82 3587.16 1073.21 3584.54 1073.6 3581.93 1073.8 3578.83 1073.8 3575.27 1073.8 3571.26 1073.58 3567.81 1073.15 3564.91 1072.72 3562.02 1072.12 3559.65 1071.33 3557.79 1070.55 3555.92 1069.57 3554.55 1068.39 3553.66 1067.2 3552.78 1065.84 3552.34 1064.3 3552.34ZM1064.46 3548.55C1067.56 3548.55 1070.21 3549.13 1072.41 3550.29 1074.61 3551.44 1076.41 3553.1 1077.8 3555.25 1079.19 3557.4 1080.22 3560.02 1080.87 3563.12 1081.52 3566.22 1081.84 3569.72 1081.84 3573.63 1081.84 3582.3 1080.31 3588.85 1077.23 3593.29 1074.16 3597.73 1069.71 3599.95 1063.87 3599.95 1058.09 3599.95 1053.8 3597.86 1050.98 3593.66 1048.17 3589.47 1046.76 3583.12 1046.76 3574.6 1046.76 3570.15 1047.2 3566.29 1048.07 3563.04 1048.95 3559.78 1050.17 3557.08 1051.75 3554.93 1053.32 3552.79 1055.19 3551.18 1057.35 3550.13 1059.51 3549.07 1061.88 3548.55 1064.46 3548.55Z" fill-rule="evenodd"/><text fill="#000000" fill-opacity="0" font-family="Arial,Arial_MSFontService,sans-serif" font-size="51.4062" x="1046.76" y="3593.53">0</text><path d="M363.893 3613.26 386.774 3613.26 386.774 3615.9C385.055 3616.15 383.819 3616.61 383.067 3617.29 382.316 3617.97 381.94 3618.9 381.94 3620.09 381.94 3621.09 382.28 3622.34 382.96 3623.85 383.64 3625.35 384.607 3627.14 385.86 3629.22L393.649 3642.27 401.329 3629.86C402.475 3628 403.334 3626.51 403.907 3625.4 404.48 3624.29 404.883 3623.36 405.116 3622.61 405.349 3621.86 405.465 3621.09 405.465 3620.3 405.465 3619.19 405.143 3618.25 404.498 3617.48 403.854 3616.71 402.779 3616.18 401.275 3615.9L401.275 3613.26 421.202 3613.26 421.202 3615.9C419.877 3616.33 418.687 3616.95 417.63 3617.78 416.574 3618.6 415.446 3619.8 414.247 3621.38 413.047 3622.95 411.337 3625.44 409.117 3628.84L396.979 3647.64 410.621 3670.09C412.555 3673.28 413.942 3675.51 414.784 3676.78 415.625 3678.05 416.413 3679.12 417.147 3680 417.881 3680.88 418.669 3681.64 419.51 3682.28 420.352 3682.93 421.399 3683.48 422.652 3683.95L422.652 3686.58 399.073 3686.58 399.073 3683.95C400.72 3683.66 401.938 3683.21 402.726 3682.58 403.513 3681.95 403.907 3681.01 403.907 3679.76 403.907 3678.76 403.648 3677.65 403.129 3676.43 402.609 3675.21 401.813 3673.71 400.738 3671.92L391.017 3655.7 380.758 3672.51C379.039 3675.34 378.18 3677.66 378.18 3679.49 378.18 3680.67 378.502 3681.64 379.147 3682.39 379.791 3683.14 380.865 3683.66 382.369 3683.95L382.369 3686.58 362.066 3686.58 362.066 3683.95C363.391 3683.55 364.483 3683.08 365.343 3682.53 366.202 3681.97 367.026 3681.26 367.814 3680.4 368.601 3679.54 369.479 3678.45 370.445 3677.13 371.412 3675.8 372.952 3673.49 375.065 3670.2L387.74 3650.43 372.594 3625.51C371.162 3623.22 370.078 3621.55 369.344 3620.52 368.61 3619.48 367.93 3618.64 367.303 3617.99 366.677 3617.35 366.113 3616.89 365.611 3616.62 365.11 3616.35 364.537 3616.11 363.893 3615.9Z" fill-rule="evenodd"/><text fill="#000000" fill-opacity="0" font-family="Arial,Arial_MSFontService,sans-serif" font-size="73.3154" x="362.066" y="3677.42">X</text><path d="M450.355 3662.24C448.532 3662.24 447.008 3662.72 445.784 3663.67 444.56 3664.62 443.59 3666.01 442.874 3667.85 442.158 3669.68 441.65 3671.92 441.351 3674.57 441.051 3677.21 440.902 3680.21 440.902 3683.57 440.902 3687.45 441.09 3690.8 441.468 3693.63 441.846 3696.45 442.432 3698.78 443.226 3700.6 444.02 3702.42 445.016 3703.77 446.214 3704.62 447.412 3705.48 448.844 3705.91 450.511 3705.91 452.073 3705.91 453.441 3705.51 454.613 3704.7 455.784 3703.9 456.754 3702.64 457.523 3700.93 458.291 3699.23 458.87 3697.07 459.261 3694.45 459.652 3691.83 459.847 3688.74 459.847 3685.17 459.847 3681.16 459.632 3677.71 459.202 3674.82 458.773 3671.93 458.167 3669.55 457.386 3667.69 456.605 3665.83 455.622 3664.46 454.437 3663.57 453.252 3662.68 451.891 3662.24 450.355 3662.24ZM450.511 3658.45C453.61 3658.45 456.26 3659.03 458.46 3660.19 460.661 3661.35 462.458 3663 463.851 3665.15 465.244 3667.3 466.266 3669.92 466.917 3673.02 467.568 3676.12 467.894 3679.62 467.894 3683.53 467.894 3692.2 466.357 3698.76 463.284 3703.2 460.211 3707.64 455.758 3709.86 449.925 3709.86 444.144 3709.86 439.847 3707.76 437.034 3703.57 434.222 3699.38 432.816 3693.02 432.816 3684.51 432.816 3680.05 433.252 3676.2 434.124 3672.94 434.997 3669.69 436.221 3666.99 437.796 3664.84 439.372 3662.69 441.24 3661.09 443.402 3660.03 445.563 3658.98 447.933 3658.45 450.511 3658.45Z" fill-rule="evenodd"/><text fill="#000000" fill-opacity="0" font-family="Arial,Arial_MSFontService,sans-serif" font-size="51.4062" x="432.816" y="3703.43">0</text><path d="M4.86136-4.86136 149.452 139.729 139.729 149.452-4.86136 4.86136ZM154.314 125.145 168.898 168.898 125.145 154.314Z" fill="#FF0000" transform="matrix(-1 0 0 1 642.898 3546)"/><path d="M1529.76 1240.54 2091.91 1813.97 2082.09 1823.6 1519.94 1250.16ZM2096.92 1799.44 2130.32 1862.97 2067.46 1828.31Z" fill="#0070C0"/><path d="M2092.1 1679.61C2082.24 1669.55 2041.64 1693.37 2001.41 1732.81 1961.18 1772.24 1936.56 1812.36 1946.42 1822.42L1667.1 1537.49C1657.25 1527.44 1681.86 1487.32 1722.09 1447.88 1762.32 1408.44 1802.92 1384.63 1812.78 1394.69Z" fill="#83CBEB" fill-rule="evenodd"/><path d="M2092.1 1679.61C2101.96 1689.67 2077.34 1729.79 2037.11 1769.22 1996.89 1808.66 1956.28 1832.48 1946.42 1822.42 1936.56 1812.36 1961.18 1772.24 2001.41 1732.81 2041.64 1693.37 2082.24 1669.55 2092.1 1679.61Z" fill="#B5E0F3" fill-rule="evenodd"/><path d="M1946.42 1822.42C1936.56 1812.36 1961.18 1772.24 2001.41 1732.81 2041.64 1693.37 2082.24 1669.55 2092.1 1679.61 2101.96 1689.67 2077.34 1729.79 2037.11 1769.22 1996.89 1808.66 1956.28 1832.48 1946.42 1822.42L1667.1 1537.49C1657.25 1527.44 1681.86 1487.32 1722.09 1447.88 1762.32 1408.44 1802.92 1384.63 1812.78 1394.69L2092.1 1679.61" stroke="#000000" stroke-width="6.875" stroke-miterlimit="8" fill="none" fill-rule="evenodd"/><path d="M64.7193 102.801C14.4923 88.6596-0.355323 59.1526 31.5561 36.895 63.4676 14.6375 130.054 8.05787 180.281 22.1991 230.508 36.3403 245.355 65.8474 213.444 88.1049 211.011 89.8017 208.339 91.4287 205.443 92.9763L216.822 102.343 164.715 97.2519 179.711 71.7934 191.085 81.1564C222.571 68.7609 217.389 50.3595 179.511 40.0558 141.632 29.7521 85.4011 31.4479 53.9151 43.8435 22.429 56.239 27.6111 74.6404 65.4895 84.9441 71.3228 86.5309 77.7508 87.8676 84.6178 88.922Z" stroke="#042433" stroke-width="6.875" stroke-miterlimit="8" fill="#156082" fill-rule="evenodd" transform="matrix(1 -1.22465e-16 -1.22465e-16 -1 523.5 3260.5)"/><path d="M6.51088-2.20772 796.371 2327.21 783.349 2331.62-6.51088 2.20772ZM807.189 2316.29 800.902 2361.98 768.124 2329.54Z" transform="matrix(1 0 0 -1 646 3554.98)"/><path d="M4.3072-5.35851 1750.91 1398.57 1742.3 1409.29-4.3072 5.35851ZM1754.18 1383.55 1773.41 1425.47 1728.33 1415.71Z" transform="matrix(1 0 0 -1 649 3555.47)"/><path d="M1363.8 1822.46C1361.98 1822.46 1360.18 1823.08 1358.41 1824.32 1356.63 1825.55 1354.69 1827.53 1352.58 1830.25 1350.47 1832.97 1348.82 1835.66 1347.64 1838.31 1346.46 1840.96 1345.52 1844 1344.84 1847.44L1344.41 1849.7C1344.06 1851.59 1343.83 1853.04 1343.74 1854.05 1343.65 1855.05 1343.61 1856.03 1343.61 1857 1343.61 1859.79 1344.21 1861.83 1345.41 1863.1 1346.61 1864.37 1348.68 1865 1351.61 1865 1353.44 1865 1355.12 1864.65 1356.66 1863.93 1358.2 1863.21 1359.66 1862.17 1361.04 1860.81 1362.42 1859.45 1363.66 1857.81 1364.77 1855.87 1365.88 1853.94 1366.87 1851.69 1367.75 1849.13 1368.63 1846.57 1369.29 1843.94 1369.74 1841.24 1370.19 1838.53 1370.41 1836 1370.41 1833.64 1370.41 1829.88 1369.88 1827.07 1368.83 1825.23 1367.77 1823.39 1366.1 1822.46 1363.8 1822.46ZM1341.19 1816.13C1343.41 1816.13 1345.18 1816.86 1346.48 1818.33 1347.79 1819.8 1348.44 1821.75 1348.44 1824.18 1348.44 1826.19 1348.03 1828.3 1347.21 1830.52L1347.85 1830.74C1354.48 1821.03 1361.06 1816.18 1367.62 1816.18 1371.52 1816.18 1374.55 1817.67 1376.72 1820.64 1378.89 1823.61 1379.97 1827.8 1379.97 1833.21 1379.97 1839.11 1378.78 1844.92 1376.4 1850.64 1374.02 1856.35 1370.71 1860.88 1366.49 1864.22 1362.26 1867.57 1357.54 1869.25 1352.31 1869.25 1347.55 1869.25 1343.59 1868.21 1340.44 1866.13L1337.97 1877.89C1337.43 1880.44 1337.16 1882.53 1337.16 1884.18 1337.16 1885.75 1337.57 1886.87 1338.37 1887.54 1339.18 1888.2 1340.74 1888.64 1343.07 1888.85L1342.64 1891.48 1326.05 1891.48 1338.99 1834.5C1339.74 1831.2 1340.12 1828.5 1340.12 1826.39 1340.12 1824.95 1339.88 1823.91 1339.42 1823.27 1338.95 1822.63 1338.22 1822.3 1337.22 1822.3 1336.11 1822.3 1334.93 1822.76 1333.7 1823.67 1332.46 1824.59 1330.77 1826.24 1328.62 1828.64L1325.56 1825.63C1328.78 1822.27 1331.51 1819.84 1333.75 1818.36 1335.99 1816.87 1338.47 1816.13 1341.19 1816.13Z" fill-rule="evenodd"/><text fill="#000000" fill-opacity="0" font-family="Arial,Arial_MSFontService,sans-serif" font-size="75.3564" x="1325.56" y="1882.06">𝑝</text><path d="M1384.22 1851.78 1395.51 1851.78 1398.55 1883.5C1400.22 1880.92 1401.69 1878.59 1402.97 1876.51 1404.24 1874.43 1405.36 1872.51 1406.33 1870.77 1407.29 1869.02 1408.13 1867.41 1408.83 1865.92 1409.53 1864.44 1410.12 1863.02 1410.61 1861.67 1411.09 1860.31 1411.49 1858.98 1411.82 1857.68 1412.14 1856.38 1412.42 1855.04 1412.66 1853.66L1413.13 1851.78 1419.38 1851.78 1422.77 1883.5C1427.07 1877.64 1430.32 1872.52 1432.52 1868.13 1434.72 1863.74 1435.82 1860.23 1435.82 1857.6 1435.82 1856.46 1435.55 1855.65 1435 1855.18 1434.45 1854.71 1433.46 1854.41 1432.03 1854.28L1432.5 1851.78 1443.52 1851.78 1444.88 1854.05C1443.79 1856.89 1442.58 1859.69 1441.27 1862.45 1439.95 1865.21 1438.41 1868.08 1436.64 1871.06 1434.87 1874.04 1432.8 1877.2 1430.43 1880.53 1428.06 1883.87 1425.27 1887.51 1422.07 1891.47L1417.07 1891.47 1413.91 1864.36C1412.19 1868.32 1410.02 1872.54 1407.4 1877.02 1404.79 1881.5 1401.71 1886.31 1398.16 1891.47L1392.46 1891.47 1388.79 1861.98C1388.58 1860.42 1388.4 1859.16 1388.24 1858.21 1388.09 1857.26 1387.85 1856.52 1387.52 1855.98 1387.19 1855.45 1386.73 1855.06 1386.13 1854.83 1385.53 1854.6 1384.7 1854.41 1383.63 1854.28Z" fill-rule="evenodd"/><text fill="#000000" fill-opacity="0" font-family="Arial,Arial_MSFontService,sans-serif" font-size="39.6875" x="1383.63" y="1886.51">𝑤</text><path d="M2043.07 2542.09C2041.24 2542.09 2039.44 2542.7 2037.67 2543.94 2035.9 2545.17 2033.95 2547.15 2031.84 2549.87 2029.73 2552.6 2028.08 2555.28 2026.9 2557.93 2025.72 2560.58 2024.79 2563.62 2024.11 2567.06L2023.68 2569.32C2023.32 2571.21 2023.1 2572.67 2023.01 2573.67 2022.92 2574.67 2022.87 2575.66 2022.87 2576.62 2022.87 2579.41 2023.47 2581.45 2024.67 2582.72 2025.87 2583.99 2027.94 2584.62 2030.88 2584.62 2032.7 2584.62 2034.38 2584.27 2035.92 2583.55 2037.46 2582.83 2038.92 2581.8 2040.3 2580.44 2041.68 2579.07 2042.92 2577.43 2044.03 2575.49 2045.14 2573.56 2046.14 2571.31 2047.02 2568.75 2047.89 2566.19 2048.55 2563.56 2049 2560.86 2049.45 2558.15 2049.67 2555.62 2049.67 2553.26 2049.67 2549.5 2049.15 2546.7 2048.09 2544.85 2047.03 2543.01 2045.36 2542.09 2043.07 2542.09ZM2020.46 2535.75C2022.68 2535.75 2024.44 2536.48 2025.75 2537.95 2027.05 2539.42 2027.71 2541.37 2027.71 2543.8 2027.71 2545.81 2027.29 2547.92 2026.47 2550.14L2027.12 2550.36C2033.74 2540.65 2040.33 2535.8 2046.88 2535.8 2050.78 2535.8 2053.82 2537.29 2055.98 2540.26 2058.15 2543.23 2059.23 2547.42 2059.23 2552.83 2059.23 2558.74 2058.04 2564.55 2055.66 2570.26 2053.28 2575.97 2049.98 2580.5 2045.75 2583.85 2041.53 2587.19 2036.8 2588.87 2031.57 2588.87 2026.81 2588.87 2022.85 2587.83 2019.7 2585.75L2017.23 2597.52C2016.7 2600.06 2016.43 2602.15 2016.43 2603.8 2016.43 2605.38 2016.83 2606.49 2017.64 2607.16 2018.44 2607.82 2020.01 2608.26 2022.34 2608.47L2021.91 2611.1 2005.31 2611.1 2018.25 2554.12C2019.01 2550.82 2019.38 2548.12 2019.38 2546.01 2019.38 2544.57 2019.15 2543.54 2018.68 2542.89 2018.22 2542.25 2017.48 2541.92 2016.48 2541.92 2015.37 2541.92 2014.2 2542.38 2012.96 2543.29 2011.73 2544.21 2010.04 2545.86 2007.89 2548.26L2004.83 2545.25C2008.05 2541.89 2010.78 2539.46 2013.02 2537.98 2015.25 2536.49 2017.73 2535.75 2020.46 2535.75Z" fill-rule="evenodd"/><text fill="#000000" fill-opacity="0" font-family="Arial,Arial_MSFontService,sans-serif" font-size="75.3564" x="2004.83" y="2601.68">𝑝</text><path d="M2132.37 2574.45C2130.93 2574.45 2129.52 2574.8 2128.13 2575.51 2126.73 2576.21 2125.42 2577.21 2124.18 2578.49 2122.94 2579.78 2121.82 2581.35 2120.8 2583.18 2119.79 2585.02 2118.94 2587.07 2118.26 2589.33 2121.57 2589.31 2124.42 2589.05 2126.8 2588.55 2129.18 2588.06 2131.14 2587.38 2132.66 2586.52 2134.18 2585.66 2135.3 2584.65 2136.02 2583.47 2136.73 2582.3 2137.09 2581.01 2137.09 2579.61 2137.09 2577.99 2136.69 2576.73 2135.88 2575.82 2135.07 2574.91 2133.9 2574.45 2132.37 2574.45ZM2088.37 2574.45C2086.93 2574.45 2085.52 2574.8 2084.13 2575.51 2082.73 2576.21 2081.42 2577.21 2080.18 2578.49 2078.94 2579.78 2077.82 2581.35 2076.8 2583.18 2075.79 2585.02 2074.94 2587.07 2074.26 2589.33 2077.57 2589.31 2080.42 2589.05 2082.8 2588.55 2085.18 2588.06 2087.14 2587.38 2088.66 2586.52 2090.18 2585.66 2091.3 2584.65 2092.02 2583.47 2092.73 2582.3 2093.09 2581.01 2093.09 2579.61 2093.09 2577.99 2092.69 2576.73 2091.88 2575.82 2091.07 2574.91 2089.9 2574.45 2088.37 2574.45ZM2134.05 2570.58C2137.38 2570.58 2139.91 2571.31 2141.64 2572.77 2143.37 2574.23 2144.24 2576.3 2144.24 2578.98 2144.24 2588.41 2135.32 2593.12 2117.48 2593.12 2117.35 2593.8 2117.25 2594.54 2117.17 2595.33 2117.09 2596.12 2117.05 2596.99 2117.05 2597.93 2117.05 2600.77 2117.63 2602.84 2118.79 2604.14 2119.95 2605.44 2121.75 2606.09 2124.2 2606.09 2125.48 2606.09 2126.69 2605.96 2127.83 2605.68 2128.98 2605.41 2130.11 2604.99 2131.21 2604.41 2132.32 2603.84 2133.43 2603.1 2134.55 2602.21 2135.67 2601.31 2136.84 2600.23 2138.07 2598.98L2141 2602.15C2137.98 2605.14 2134.96 2607.39 2131.96 2608.9 2128.95 2610.41 2125.71 2611.17 2122.25 2611.17 2120.22 2611.17 2118.41 2610.86 2116.84 2610.25 2115.26 2609.64 2113.93 2608.75 2112.85 2607.58 2111.77 2606.4 2110.95 2604.98 2110.39 2603.3 2109.83 2601.62 2109.55 2599.72 2109.55 2597.62 2109.55 2596.13 2109.68 2594.59 2109.94 2592.99 2110.2 2591.38 2110.61 2589.78 2111.15 2588.18 2111.7 2586.58 2112.38 2585.02 2113.19 2583.49 2113.99 2581.97 2114.94 2580.54 2116.04 2579.22 2118.22 2576.51 2120.86 2574.39 2123.95 2572.87 2127.03 2571.35 2130.4 2570.58 2134.05 2570.58ZM2090.05 2570.58C2093.38 2570.58 2095.91 2571.31 2097.64 2572.77 2099.37 2574.23 2100.24 2576.3 2100.24 2578.98 2100.24 2588.41 2091.32 2593.12 2073.48 2593.12 2073.35 2593.8 2073.25 2594.54 2073.17 2595.33 2073.09 2596.12 2073.05 2596.99 2073.05 2597.93 2073.05 2600.77 2073.63 2602.84 2074.79 2604.14 2075.95 2605.44 2077.75 2606.09 2080.2 2606.09 2081.48 2606.09 2082.69 2605.96 2083.83 2605.68 2084.98 2605.41 2086.11 2604.99 2087.21 2604.41 2088.32 2603.84 2089.43 2603.1 2090.55 2602.21 2091.67 2601.31 2092.84 2600.23 2094.07 2598.98L2097 2602.15C2093.98 2605.14 2090.96 2607.39 2087.96 2608.9 2084.95 2610.41 2081.71 2611.17 2078.25 2611.17 2076.22 2611.17 2074.41 2610.86 2072.84 2610.25 2071.26 2609.64 2069.93 2608.75 2068.85 2607.58 2067.77 2606.4 2066.95 2604.98 2066.39 2603.3 2065.83 2601.62 2065.55 2599.72 2065.55 2597.62 2065.55 2596.13 2065.68 2594.59 2065.94 2592.99 2066.2 2591.38 2066.61 2589.78 2067.15 2588.18 2067.7 2586.58 2068.38 2585.02 2069.19 2583.49 2069.99 2581.97 2070.94 2580.54 2072.04 2579.22 2074.22 2576.51 2076.86 2574.39 2079.95 2572.87 2083.03 2571.35 2086.4 2570.58 2090.05 2570.58Z" fill-rule="evenodd"/><text fill="#000000" fill-opacity="0" font-family="Arial,Arial_MSFontService,sans-serif" font-size="40.5859" x="2065.55" y="2606.1">𝑒𝑒</text><path d="M2574.81 1939.83 1668.19 1017.33 1678 1007.7 2584.61 1930.19ZM2589.6 1915.65 2603.8 1959.53 2560.18 1944.56ZM1663.2 1031.88 1649 988 1692.62 1002.96Z"/><path d="M0 0 0.000360892 286.816" stroke="#000000" stroke-width="6.875" stroke-miterlimit="8" stroke-dasharray="27.5 20.625" fill="none" fill-rule="evenodd" transform="matrix(0.701929 0.712247 0.712247 -0.701929 2415.88 2135.61)"/><text font-family="Aptos,Aptos_MSFontService,sans-serif" font-weight="400" font-size="110" transform="matrix(0.701929 0.712247 -0.712247 0.701929 2016.16 1318)">15</text><text font-family="Aptos,Aptos_MSFontService,sans-serif" font-weight="400" font-size="110" transform="matrix(0.701929 0.712247 -0.712247 0.701929 2114.68 1418)">cm</text><path d="M0 0 0.000360892 286.816" stroke="#000000" stroke-width="6.875" stroke-miterlimit="8" stroke-dasharray="27.5 20.625" fill="none" fill-rule="evenodd" transform="matrix(0.701929 0.712247 0.712247 -0.701929 1457.69 1169.49)"/></g></svg>