<svg width="772" height="916" xmlns="http://www.w3.org/2000/svg" xmlns:xlink="http://www.w3.org/1999/xlink" xml:space="preserve" overflow="hidden"><g transform="translate(-278 -782)"><path d="M6.875-7.34509e-06 6.87532 303.42-6.87468 303.42-6.875 7.34509e-06ZM20.6253 296.545 0.000360892 337.795-20.6247 296.545Z" fill="#0070C0" transform="matrix(1 0 0 -1 585 1477.8)"/><path d="M7.34509e-06-6.875 303.42-6.87468 303.42 6.87532-7.34509e-06 6.875ZM296.545-20.6247 337.795 0.000360892 296.545 20.6253Z" fill="#4EA72E" transform="matrix(1 0 0 -1 581 1465)"/><path d="M944.835 1434.53 962.099 1434.53 962.099 1436.51C959.56 1436.81 958.29 1437.9 958.29 1439.79 958.29 1440.58 958.472 1441.46 958.837 1442.43 959.202 1443.4 959.857 1444.78 960.802 1446.56L968.908 1462 976.892 1447.9C977.972 1445.98 978.736 1444.41 979.182 1443.18 979.627 1441.95 979.85 1440.82 979.85 1439.79 979.85 1438.82 979.56 1438.06 978.979 1437.5 978.398 1436.95 977.54 1436.62 976.405 1436.51L976.405 1434.53 991.765 1434.53 991.765 1436.51C990.658 1436.92 989.685 1437.48 988.847 1438.19 988.01 1438.91 987.159 1439.88 986.294 1441.09 985.43 1442.31 984.16 1444.36 982.484 1447.25L971.218 1466.46 971.218 1479.59C971.218 1481.13 971.299 1482.37 971.461 1483.32 971.623 1484.27 971.893 1485.02 972.272 1485.59 972.65 1486.16 973.15 1486.6 973.771 1486.93 974.393 1487.25 975.365 1487.56 976.689 1487.86L976.689 1489.85 958.168 1489.85 958.168 1487.86C959.465 1487.59 960.424 1487.3 961.046 1486.99 961.667 1486.68 962.167 1486.23 962.545 1485.65 962.923 1485.07 963.2 1484.31 963.376 1483.36 963.551 1482.42 963.639 1481.16 963.639 1479.59L963.639 1466.62 952.454 1445.83C951.103 1443.32 950.076 1441.52 949.374 1440.44 948.671 1439.36 947.969 1438.51 947.266 1437.89 946.564 1437.27 945.753 1436.81 944.835 1436.51Z" fill-rule="evenodd"/><text fill="#000000" fill-opacity="0" font-family="Arial,Arial_MSFontService,sans-serif" font-size="55.3198" x="944.835" y="1482.93">Y</text><path d="M360.834 1602.69 378.099 1602.69 378.099 1604.67C376.802 1604.86 375.87 1605.21 375.302 1605.72 374.735 1606.24 374.451 1606.94 374.451 1607.83 374.451 1608.59 374.708 1609.53 375.221 1610.67 375.734 1611.8 376.464 1613.15 377.41 1614.72L383.286 1624.57 389.081 1615.21C389.946 1613.8 390.594 1612.68 391.027 1611.84 391.459 1611.01 391.763 1610.3 391.939 1609.74 392.114 1609.17 392.202 1608.59 392.202 1607.99 392.202 1607.16 391.959 1606.45 391.473 1605.87 390.986 1605.29 390.176 1604.89 389.041 1604.67L389.041 1602.69 404.077 1602.69 404.077 1604.67C403.077 1605 402.178 1605.47 401.381 1606.09 400.584 1606.71 399.733 1607.62 398.828 1608.8 397.923 1609.99 396.633 1611.87 394.958 1614.44L385.799 1628.62 396.093 1645.56C397.552 1647.97 398.599 1649.65 399.234 1650.61 399.868 1651.57 400.463 1652.38 401.017 1653.04 401.571 1653.7 402.165 1654.28 402.8 1654.76 403.435 1655.25 404.225 1655.67 405.171 1656.02L405.171 1658 387.379 1658 387.379 1656.02C388.622 1655.8 389.541 1655.46 390.135 1654.99 390.73 1654.51 391.027 1653.8 391.027 1652.86 391.027 1652.1 390.831 1651.26 390.439 1650.35 390.047 1649.43 389.446 1648.29 388.636 1646.94L381.3 1634.7 373.559 1647.39C372.263 1649.52 371.614 1651.28 371.614 1652.66 371.614 1653.55 371.857 1654.28 372.344 1654.84 372.83 1655.41 373.641 1655.8 374.775 1656.02L374.775 1658 359.456 1658 359.456 1656.02C360.456 1655.72 361.28 1655.36 361.928 1654.95 362.577 1654.53 363.198 1653.99 363.792 1653.34 364.387 1652.7 365.049 1651.87 365.778 1650.87 366.508 1649.87 367.669 1648.13 369.264 1645.64L378.828 1630.73 367.399 1611.93C366.319 1610.2 365.501 1608.94 364.947 1608.16 364.394 1607.37 363.88 1606.74 363.407 1606.25 362.935 1605.77 362.509 1605.42 362.131 1605.22 361.752 1605.02 361.32 1604.83 360.834 1604.67Z" fill-rule="evenodd"/><text fill="#000000" fill-opacity="0" font-family="Arial,Arial_MSFontService,sans-serif" font-size="55.3198" x="359.456" y="1651.09">X</text><path d="M565.999 1066.81 602.555 1066.81 602.555 1068.76 574.834 1118.4 589.464 1118.4C591.275 1118.4 592.619 1118.23 593.497 1117.9 594.375 1117.56 595.098 1117.03 595.665 1116.32 596.232 1115.6 596.746 1114.59 597.205 1113.3 597.664 1112 598.218 1109.99 598.867 1107.26L602.838 1107.26 602.838 1122.13 565.391 1122.13 565.391 1120.15 593.152 1070.54 578.441 1070.54C577.387 1070.54 576.556 1070.63 575.948 1070.8 575.341 1070.98 574.793 1071.25 574.307 1071.61 573.821 1071.98 573.341 1072.51 572.868 1073.22 572.396 1073.92 571.923 1074.88 571.45 1076.11 570.977 1077.34 570.484 1078.88 569.971 1080.71L565.999 1080.71Z" fill-rule="evenodd"/><text fill="#000000" fill-opacity="0" font-family="Arial,Arial_MSFontService,sans-serif" font-size="55.3198" x="565.391" y="1115.22">Z</text><path d="M4.86136-4.86136 149.452 139.729 139.729 149.452-4.86136 4.86136ZM154.314 125.145 168.898 168.898 125.145 154.314Z" fill="#FF0000" transform="matrix(-1 0 0 1 584.898 1468)"/><path d="M6.45385-2.36928 213.915 562.751 201.008 567.489-6.45385 2.36928ZM224.454 551.558 219.308 597.389 185.731 565.774Z" fill="#A02B93" transform="matrix(1 0 0 -1 584 1477.39)"/><path d="M819.33 836.55 830.881 836.55 830.881 857.179C830.881 860.34 831.002 862.744 831.245 864.392 831.488 866.041 831.853 867.283 832.34 868.121 832.826 868.958 833.515 869.661 834.406 870.228 835.298 870.796 836.527 871.079 838.094 871.079 839.121 871.079 840.107 870.877 841.053 870.471 841.999 870.066 843.052 869.357 844.214 868.344 845.376 867.331 846.207 866.324 846.706 865.325 847.206 864.325 847.456 863.163 847.456 861.839L847.456 846.641C847.456 845.101 847.416 843.94 847.335 843.156 847.254 842.373 847.119 841.744 846.929 841.272 846.74 840.799 846.517 840.414 846.261 840.117 846.004 839.819 845.639 839.549 845.166 839.306 844.694 839.063 843.93 838.806 842.877 838.536L842.877 836.55 854.427 836.55 854.427 864.23C854.427 866.311 854.467 867.81 854.549 868.729 854.63 869.647 854.805 870.377 855.075 870.917 855.346 871.458 855.764 871.897 856.332 872.234 856.899 872.572 857.912 872.89 859.371 873.187L859.371 875.294 850.091 875.7 847.618 875.7 847.862 869.053 847.254 868.891C845.011 871.323 842.87 873.106 840.83 874.241 838.79 875.375 836.744 875.943 834.69 875.943 832.231 875.943 830.205 875.456 828.611 874.484 827.017 873.511 825.828 872.059 825.045 870.127 824.261 868.195 823.869 865.473 823.869 861.961L823.869 846.641C823.869 844.372 823.781 842.812 823.606 841.961 823.43 841.109 823.093 840.434 822.593 839.934 822.093 839.434 821.005 838.968 819.33 838.536Z" fill-rule="evenodd"/><text fill="#000000" fill-opacity="0" font-family="Arial,Arial_MSFontService,sans-serif" font-size="39.3926" x="819.33" y="871.019">u</text><path d="M852.203 809.964 862.375 818.759 862.375 821.109 852.203 829.904 850.055 827.472 856.539 821.839 840.711 821.839 831.818 821.839 816.395 821.839 816.395 818.029 831.818 818.029 840.711 818.029 856.539 818.029 850.055 812.396Z" fill-rule="evenodd"/><path d="M673.009 1052.88C668.965 1064.04 691.38 1083.54 729.724 1102.2L733.705 1091.22 765.078 1129.75 717.779 1135.17 721.76 1124.18C683.417 1105.51 661.002 1086.02 665.046 1074.86Z" fill="#156082" fill-rule="evenodd"/><path d="M781.005 1085.8C738.855 1070.53 698.365 1063.18 677.877 1067.08 659.498 1044.69 689.879 1037.38 745.735 1050.75 759.658 1054.09 774.376 1058.54 788.968 1063.82Z" fill="#114D69" fill-rule="evenodd"/><path d="M673.009 1052.88C668.965 1064.04 691.38 1083.54 729.724 1102.2L733.705 1091.22 765.078 1129.75 717.779 1135.17 721.76 1124.18C683.417 1105.51 661.002 1086.02 665.046 1074.86L673.009 1052.88C678.507 1037.71 730.423 1042.61 788.968 1063.82L781.005 1085.8C738.855 1070.53 698.365 1063.18 677.877 1067.08" stroke="#042433" stroke-width="6.875" stroke-miterlimit="8" fill="none" fill-rule="evenodd"/><path d="M0 0 54.812 153.571" stroke="#A02B93" stroke-width="13.75" stroke-miterlimit="8" fill="none" fill-rule="evenodd" transform="matrix(-1 0 0 1 781.812 935)"/><path d="M801.816 1130.8C802.113 1146.55 805.558 1154.43 812.15 1154.43 818.743 1154.43 822.093 1146.55 822.201 1130.8ZM812.029 1103.4C805.436 1103.4 802.032 1111.16 801.816 1126.67L822.16 1126.67C821.782 1111.16 818.405 1103.4 812.029 1103.4ZM812.191 1100.2C818.108 1100.2 822.498 1102.49 825.362 1107.05 828.226 1111.62 829.658 1118.67 829.658 1128.21 829.658 1138.04 828.145 1145.41 825.119 1150.31 822.093 1155.22 817.567 1157.67 811.542 1157.67 805.598 1157.67 801.248 1155.35 798.492 1150.72 795.737 1146.09 794.359 1139.01 794.359 1129.5 794.359 1119.97 795.872 1112.7 798.898 1107.7 801.924 1102.7 806.355 1100.2 812.191 1100.2Z" fill-rule="evenodd"/><text fill="#000000" fill-opacity="0" font-family="Arial,Arial_MSFontService,sans-serif" font-size="57.4678" x="794.359" y="1150.49">θ</text></g></svg>