<svg width="2712" height="2986" xmlns="http://www.w3.org/2000/svg" xmlns:xlink="http://www.w3.org/1999/xlink" xml:space="preserve" overflow="hidden"><g transform="translate(-362 -1140)"><path d="M0 0 446.661 650.814" stroke="#7F7F7F" stroke-width="13.75" stroke-miterlimit="8" stroke-dasharray="55 41.25" fill="none" fill-rule="evenodd" transform="matrix(-1 0 0 1 2334.66 1635)"/><path d="M0 0 538.398 819.477" stroke="#7F7F7F" stroke-width="13.75" stroke-miterlimit="8" stroke-dasharray="55 41.25" fill="none" fill-rule="evenodd" transform="matrix(-1 0 0 1 1155.4 1687)"/><path d="M747.173 2538.37C786.351 2482.49 774.173 2406.39 719.973 2368.39 665.773 2330.39 590.076 2344.88 550.898 2400.76L692.773 2198.4C731.95 2142.52 807.648 2128.03 861.847 2166.03 916.047 2204.03 928.225 2280.13 889.048 2336.01Z" fill="#61CBF4" fill-rule="evenodd"/><path d="M747.173 2538.37C707.996 2594.25 632.298 2608.75 578.099 2570.75 523.899 2532.75 511.721 2456.64 550.898 2400.76 590.076 2344.88 665.773 2330.39 719.973 2368.39 774.173 2406.39 786.351 2482.49 747.173 2538.37Z" fill="#A0E0F8" fill-rule="evenodd"/><path d="M550.898 2400.76C590.076 2344.88 665.773 2330.39 719.973 2368.39 774.173 2406.39 786.351 2482.49 747.173 2538.37 707.996 2594.25 632.298 2608.75 578.099 2570.75 523.899 2532.75 511.721 2456.64 550.898 2400.76L692.773 2198.4C731.95 2142.52 807.648 2128.03 861.847 2166.03 916.047 2204.03 928.225 2280.13 889.048 2336.01L747.173 2538.37" stroke="#042433" stroke-width="6.875" stroke-miterlimit="8" fill="none" fill-rule="evenodd"/><path d="M382.5 3691.12C382.5 3725.16 548.602 3752.75 753.5 3752.75 958.398 3752.75 1124.5 3725.16 1124.5 3691.12L1124.5 4060.88C1124.5 4094.91 958.398 4122.5 753.5 4122.5 548.602 4122.5 382.5 4094.91 382.5 4060.88Z" fill="#D9F2D0" fill-rule="evenodd"/><path d="M382.5 3691.12C382.5 3657.09 548.602 3629.5 753.5 3629.5 958.398 3629.5 1124.5 3657.09 1124.5 3691.12 1124.5 3725.16 958.398 3752.75 753.5 3752.75 548.602 3752.75 382.5 3725.16 382.5 3691.12Z" fill="#E8F7E3" fill-rule="evenodd"/><path d="M1124.5 3691.12C1124.5 3725.16 958.398 3752.75 753.5 3752.75 548.602 3752.75 382.5 3725.16 382.5 3691.12 382.5 3657.09 548.602 3629.5 753.5 3629.5 958.398 3629.5 1124.5 3657.09 1124.5 3691.12L1124.5 4060.88C1124.5 4094.91 958.398 4122.5 753.5 4122.5 548.602 4122.5 382.5 4094.91 382.5 4060.88L382.5 3691.12" stroke="#042433" stroke-width="6.875" stroke-miterlimit="8" fill="none" fill-rule="evenodd"/><path d="M602.5 3178.13C602.5 3196.7 662.718 3211.75 737 3211.75 811.282 3211.75 871.5 3196.7 871.5 3178.13L871.5 3670.88C871.5 3689.45 811.282 3704.5 737 3704.5 662.718 3704.5 602.5 3689.45 602.5 3670.88Z" fill="#61CBF4" fill-rule="evenodd"/><path d="M602.5 3178.13C602.5 3159.55 662.718 3144.5 737 3144.5 811.282 3144.5 871.5 3159.55 871.5 3178.13 871.5 3196.7 811.282 3211.75 737 3211.75 662.718 3211.75 602.5 3196.7 602.5 3178.13Z" fill="#A0E0F8" fill-rule="evenodd"/><path d="M871.5 3178.13C871.5 3196.7 811.282 3211.75 737 3211.75 662.718 3211.75 602.5 3196.7 602.5 3178.13 602.5 3159.55 662.718 3144.5 737 3144.5 811.282 3144.5 871.5 3159.55 871.5 3178.13L871.5 3670.88C871.5 3689.45 811.282 3704.5 737 3704.5 662.718 3704.5 602.5 3689.45 602.5 3670.88L602.5 3178.13" stroke="#042433" stroke-width="6.875" stroke-miterlimit="8" fill="none" fill-rule="evenodd"/><path d="M454.279 2509.57 502.726 2509.57 502.726 2512.15 465.988 2577.94 485.378 2577.94C487.777 2577.94 489.558 2577.72 490.722 2577.27 491.886 2576.82 492.844 2576.13 493.596 2575.18 494.348 2574.23 495.028 2572.89 495.637 2571.18 496.245 2569.46 496.979 2566.79 497.839 2563.17L503.102 2563.17 503.102 2582.88 453.473 2582.88 453.473 2580.25 490.265 2514.51 470.768 2514.51C469.372 2514.51 468.271 2514.63 467.465 2514.86 466.66 2515.09 465.934 2515.45 465.29 2515.93 464.645 2516.42 464.01 2517.12 463.383 2518.05 462.757 2518.99 462.13 2520.27 461.503 2521.9 460.877 2523.52 460.223 2525.56 459.543 2527.99L454.279 2527.99Z" fill-rule="evenodd"/><text fill="#000000" fill-opacity="0" font-family="Arial,Arial_MSFontService,sans-serif" font-size="73.3154" x="453.473" y="2573.72">Z</text><path d="M531.258 2555.03 533.641 2555.03C533.589 2556.46 533.55 2557.74 533.524 2558.88 533.498 2560.01 533.479 2561.11 533.466 2562.18 533.453 2563.25 533.446 2564.3 533.446 2565.34L533.446 2595.03C533.446 2595.84 533.472 2596.53 533.524 2597.12 533.576 2597.71 533.661 2598.2 533.778 2598.6 533.895 2599.01 534.051 2599.35 534.247 2599.64 534.442 2599.93 534.67 2600.17 534.93 2600.38 535.243 2600.69 535.66 2600.94 536.18 2601.1 536.701 2601.27 537.365 2601.42 538.173 2601.53 538.98 2601.65 539.95 2601.74 541.083 2601.81 542.216 2601.87 543.576 2601.92 545.165 2601.94L545.165 2605.34 514.188 2605.34 514.188 2601.94C515.725 2601.89 517.027 2601.83 518.094 2601.77 519.162 2601.7 520.074 2601.61 520.829 2601.49 521.584 2601.38 522.189 2601.25 522.645 2601.1 523.101 2600.96 523.498 2600.79 523.837 2600.58 524.201 2600.34 524.514 2600.09 524.774 2599.82 525.035 2599.54 525.243 2599.2 525.399 2598.78 525.555 2598.36 525.679 2597.86 525.77 2597.26 525.861 2596.66 525.907 2595.92 525.907 2595.03L525.907 2567.02C525.907 2566.01 525.712 2565.29 525.321 2564.87 524.93 2564.46 524.37 2564.25 523.641 2564.25 522.834 2564.25 521.636 2564.67 520.048 2565.5 518.459 2566.33 516.402 2567.57 513.876 2569.21 513.537 2568.61 513.225 2568.01 512.938 2567.41 512.652 2566.81 512.352 2566.2 512.04 2565.58 515.269 2563.81 518.466 2562.04 521.63 2560.28 524.794 2558.53 528.003 2556.77 531.258 2555.03Z" fill-rule="evenodd"/><text fill="#000000" fill-opacity="0" font-family="Arial,Arial_MSFontService,sans-serif" font-size="50.3125" x="512.04" y="2599.05">1</text><path d="M621.062 1707.74 669.509 1707.74 669.509 1710.32 632.771 1776.12 652.16 1776.12C654.559 1776.12 656.341 1775.89 657.504 1775.44 658.668 1775 659.626 1774.3 660.378 1773.35 661.13 1772.4 661.81 1771.07 662.419 1769.35 663.028 1767.63 663.762 1764.96 664.621 1761.35L669.885 1761.35 669.885 1781.06 620.256 1781.06 620.256 1778.43 657.048 1712.68 637.551 1712.68C636.154 1712.68 635.053 1712.8 634.248 1713.03 633.442 1713.27 632.717 1713.62 632.072 1714.11 631.428 1714.59 630.792 1715.3 630.166 1716.23 629.539 1717.16 628.912 1718.44 628.286 1720.07 627.659 1721.7 627.006 1723.73 626.325 1726.17L621.062 1726.17Z" fill-rule="evenodd"/><text fill="#000000" fill-opacity="0" font-family="Arial,Arial_MSFontService,sans-serif" font-size="73.3154" x="620.256" y="1771.89">Z</text><path d="M697.382 1756.72C695.559 1756.72 694.035 1757.19 692.811 1758.15 691.587 1759.1 690.617 1760.49 689.901 1762.32 689.185 1764.16 688.677 1766.4 688.378 1769.04 688.078 1771.69 687.928 1774.69 687.928 1778.05 687.928 1781.93 688.117 1785.28 688.495 1788.11 688.872 1790.93 689.458 1793.26 690.253 1795.08 691.047 1796.9 692.043 1798.24 693.241 1799.1 694.439 1799.96 695.871 1800.39 697.538 1800.39 699.1 1800.39 700.468 1799.99 701.639 1799.18 702.811 1798.37 703.781 1797.12 704.55 1795.41 705.318 1793.7 705.897 1791.54 706.288 1788.93 706.678 1786.31 706.874 1783.22 706.874 1779.65 706.874 1775.64 706.659 1772.19 706.229 1769.3 705.8 1766.41 705.194 1764.03 704.413 1762.17 703.632 1760.31 702.648 1758.93 701.464 1758.05 700.279 1757.16 698.918 1756.72 697.382 1756.72ZM697.538 1752.93C700.637 1752.93 703.287 1753.51 705.487 1754.67 707.688 1755.83 709.484 1757.48 710.878 1759.63 712.271 1761.78 713.293 1764.4 713.944 1767.5 714.595 1770.6 714.921 1774.1 714.921 1778.01 714.921 1786.68 713.384 1793.24 710.311 1797.68 707.238 1802.12 702.785 1804.34 696.952 1804.34 691.171 1804.34 686.874 1802.24 684.061 1798.05 681.249 1793.85 679.843 1787.5 679.843 1778.98 679.843 1774.53 680.279 1770.68 681.151 1767.42 682.023 1764.17 683.247 1761.47 684.823 1759.32 686.398 1757.17 688.267 1755.57 690.428 1754.51 692.59 1753.46 694.96 1752.93 697.538 1752.93Z" fill-rule="evenodd"/><text fill="#000000" fill-opacity="0" font-family="Arial,Arial_MSFontService,sans-serif" font-size="51.4062" x="679.843" y="1797.91">0</text><path d="M582.341 2654.47 586.37 2654.47C587.086 2657.76 589.037 2659.41 592.224 2659.41L595.447 2659.41C597.309 2659.41 598.633 2659.04 599.421 2658.31 600.209 2657.58 600.818 2656.3 601.247 2654.47L605.222 2654.47 605.222 2671.12 601.247 2671.12C600.46 2667.9 598.705 2666.29 595.984 2666.29L591.579 2666.29C590.04 2666.29 588.921 2666.62 588.223 2667.28 587.524 2667.94 586.907 2669.22 586.37 2671.12L582.341 2671.12ZM593.728 2630.41C581.303 2630.41 575.09 2641.04 575.09 2662.31 575.09 2673.31 576.711 2681.67 579.951 2687.4 583.192 2693.12 587.927 2695.99 594.158 2695.99 600.173 2695.99 604.73 2693.19 607.827 2687.58 610.924 2681.98 612.473 2674.29 612.473 2664.51 612.473 2653.45 610.853 2645 607.612 2639.16 604.372 2633.33 599.744 2630.41 593.728 2630.41ZM594.104 2625.68C603.629 2625.68 610.88 2628.82 615.857 2635.11 620.834 2641.39 623.323 2650.44 623.323 2662.26 623.323 2674.58 620.646 2684.07 615.293 2690.73 609.94 2697.39 602.501 2700.72 592.976 2700.72 583.594 2700.72 576.46 2697.56 571.572 2691.26 566.684 2684.96 564.241 2675.81 564.241 2663.82 564.241 2651.71 566.953 2642.33 572.378 2635.67 577.803 2629.01 585.045 2625.68 594.104 2625.68Z" fill-rule="evenodd"/><text fill="#000000" fill-opacity="0" font-family="Arial,Arial_MSFontService,sans-serif" font-size="75.0342" x="564.241" y="2691.34">Θ</text><path d="M652.784 2671.73C655.492 2671.73 657.803 2672.03 659.718 2672.65 661.632 2673.26 663.188 2674.09 664.385 2675.13 665.583 2676.17 666.449 2677.42 666.983 2678.88 667.517 2680.34 667.784 2681.91 667.784 2683.6 667.784 2684.62 667.712 2685.56 667.569 2686.44 667.426 2687.31 667.178 2688.17 666.827 2689.01 666.475 2689.86 666.013 2690.71 665.44 2691.57 664.867 2692.43 664.151 2693.34 663.292 2694.31 662.641 2695.14 661.794 2696.1 660.753 2697.2 659.711 2698.29 658.572 2699.46 657.335 2700.71 656.098 2701.96 654.802 2703.26 653.448 2704.62 652.094 2705.97 650.779 2707.31 649.503 2708.64 648.227 2709.97 647.055 2711.26 645.987 2712.51 644.919 2713.76 644.047 2714.91 643.37 2715.95L657.823 2715.95C659.047 2715.95 660.023 2715.9 660.753 2715.81 661.482 2715.72 662.087 2715.52 662.569 2715.21 663.051 2714.89 663.461 2714.42 663.8 2713.78 664.138 2713.14 664.529 2712.26 664.971 2711.14L668.604 2711.14C668.474 2712.99 668.35 2714.85 668.233 2716.73 668.116 2718.6 667.992 2720.47 667.862 2722.31L634.776 2722.31 634.776 2720.28C635.401 2718.88 636.13 2717.49 636.964 2716.12 637.797 2714.76 638.734 2713.37 639.776 2711.96 640.818 2710.56 642.003 2709.1 643.331 2707.61 644.659 2706.11 646.13 2704.55 647.745 2702.94 650.193 2700.49 652.185 2698.4 653.721 2696.67 655.258 2694.94 656.469 2693.4 657.354 2692.04 658.24 2690.69 658.845 2689.44 659.171 2688.29 659.496 2687.15 659.659 2685.92 659.659 2684.62 659.659 2683.29 659.47 2682.07 659.093 2680.95 658.715 2679.83 658.175 2678.88 657.471 2678.1 656.768 2677.31 655.876 2676.7 654.796 2676.26 653.715 2675.82 652.471 2675.6 651.065 2675.6 648.643 2675.6 646.612 2676.25 644.971 2677.57 643.331 2678.88 642.055 2680.79 641.143 2683.29L636.026 2683.29 636.026 2675.67C639.359 2674.29 642.426 2673.29 645.225 2672.67 648.025 2672.04 650.544 2671.73 652.784 2671.73Z" fill-rule="evenodd"/><text fill="#000000" fill-opacity="0" font-family="Arial,Arial_MSFontService,sans-serif" font-size="50.5859" x="634.776" y="2715.99">2</text><path d="M542.785 3018.95 546.814 3018.95C547.53 3022.24 549.481 3023.89 552.668 3023.89L555.891 3023.89C557.753 3023.89 559.078 3023.52 559.865 3022.79 560.653 3022.05 561.262 3020.77 561.691 3018.95L565.666 3018.95 565.666 3035.6 561.691 3035.6C560.904 3032.37 559.149 3030.76 556.428 3030.76L552.023 3030.76C550.484 3030.76 549.365 3031.09 548.667 3031.76 547.968 3032.42 547.351 3033.7 546.814 3035.6L542.785 3035.6ZM554.172 2994.88C541.747 2994.88 535.534 3005.52 535.534 3026.79 535.534 3037.78 537.155 3046.14 540.395 3051.87 543.636 3057.6 548.371 3060.46 554.602 3060.46 560.617 3060.46 565.174 3057.66 568.271 3052.06 571.368 3046.45 572.917 3038.76 572.917 3028.99 572.917 3017.92 571.297 3009.47 568.056 3003.64 564.816 2997.8 560.188 2994.88 554.172 2994.88ZM554.548 2990.16C564.073 2990.16 571.324 2993.3 576.301 2999.58 581.278 3005.87 583.767 3014.92 583.767 3026.73 583.767 3039.05 581.09 3048.54 575.737 3055.2 570.384 3061.86 562.945 3065.19 553.42 3065.19 544.038 3065.19 536.904 3062.04 532.016 3055.74 527.128 3049.44 524.685 3040.29 524.685 3028.29 524.685 3016.19 527.397 3006.81 532.822 3000.15 538.247 2993.49 545.489 2990.16 554.548 2990.16Z" fill-rule="evenodd"/><text fill="#000000" fill-opacity="0" font-family="Arial,Arial_MSFontService,sans-serif" font-size="75.0342" x="524.685" y="3055.81">Θ</text><path d="M613.731 3036.48 616.114 3036.48C616.062 3037.91 616.023 3039.19 615.997 3040.32 615.971 3041.46 615.951 3042.56 615.938 3043.63 615.925 3044.69 615.919 3045.75 615.919 3046.79L615.919 3076.48C615.919 3077.28 615.945 3077.98 615.997 3078.57 616.049 3079.15 616.133 3079.65 616.251 3080.05 616.368 3080.45 616.524 3080.8 616.719 3081.09 616.915 3081.37 617.143 3081.62 617.403 3081.83 617.715 3082.14 618.132 3082.38 618.653 3082.55 619.174 3082.72 619.838 3082.86 620.645 3082.98 621.452 3083.1 622.422 3083.19 623.555 3083.25 624.688 3083.32 626.049 3083.36 627.637 3083.39L627.637 3086.79 596.661 3086.79 596.661 3083.39C598.197 3083.34 599.499 3083.28 600.567 3083.22 601.635 3083.15 602.546 3083.06 603.301 3082.94 604.057 3082.82 604.662 3082.69 605.118 3082.55 605.574 3082.41 605.971 3082.23 606.309 3082.02 606.674 3081.79 606.986 3081.54 607.247 3081.26 607.507 3080.99 607.715 3080.64 607.872 3080.23 608.028 3079.81 608.152 3079.3 608.243 3078.7 608.334 3078.1 608.38 3077.36 608.38 3076.48L608.38 3048.47C608.38 3047.45 608.184 3046.74 607.794 3046.32 607.403 3045.9 606.843 3045.7 606.114 3045.7 605.307 3045.7 604.109 3046.11 602.52 3046.95 600.932 3047.78 598.874 3049.02 596.348 3050.66 596.01 3050.06 595.697 3049.46 595.411 3048.86 595.124 3048.26 594.825 3047.65 594.512 3047.02 597.742 3045.25 600.938 3043.49 604.102 3041.73 607.266 3039.97 610.476 3038.22 613.731 3036.48Z" fill-rule="evenodd"/><text fill="#000000" fill-opacity="0" font-family="Arial,Arial_MSFontService,sans-serif" font-size="50.3125" x="594.512" y="3080.5">1</text><path d="M0 0 1061.79 130.499" stroke="#7F7F7F" stroke-width="13.75" stroke-miterlimit="8" fill="none" fill-rule="evenodd" transform="matrix(-1 0 0 1 1800.79 2193)"/><path d="M737.478 2321.75 737.147 1802.38 750.897 1802.37 751.228 2321.74ZM723.401 1809.26 744 1768 764.651 1809.24Z" fill="#00B050"/><path d="M753 2323.12 1117.18 2323.13 1117.18 2336.88 753 2336.88ZM1110.3 2309.38 1151.55 2330 1110.3 2350.63Z" fill="#FF0000"/><path d="M1328.34 2093.63C1321.07 2093.7 1315.63 2094.66 1312.01 2096.53 1308.4 2098.39 1306.59 2101.2 1306.59 2104.96 1306.59 2107 1307 2108.61 1307.82 2109.79 1308.65 2110.97 1309.68 2111.79 1310.94 2112.24 1312.19 2112.68 1313.68 2112.91 1315.4 2112.91 1317.83 2112.91 1320.04 2112.32 1322.03 2111.14 1324.02 2109.95 1325.57 2108.45 1326.68 2106.62 1327.79 2104.8 1328.34 2102.99 1328.34 2101.2ZM1322.54 2065.86C1326.08 2065.86 1328.93 2066.42 1331.08 2067.55 1333.23 2068.68 1334.84 2070.4 1335.91 2072.73 1336.99 2075.06 1337.53 2078.57 1337.53 2083.26L1337.53 2101.95C1337.53 2104.6 1337.54 2106.47 1337.58 2107.56 1337.61 2108.66 1337.72 2109.67 1337.9 2110.6 1338.08 2111.53 1338.35 2112.27 1338.71 2112.83 1339.06 2113.38 1339.59 2113.86 1340.29 2114.25 1340.99 2114.64 1342.13 2115.06 1343.7 2115.49L1343.7 2118.12 1328.98 2118.12 1329.25 2110.44 1328.45 2110.22C1325.33 2113.41 1322.41 2115.67 1319.67 2116.99 1316.93 2118.31 1314.02 2118.98 1310.94 2118.98 1308.22 2118.98 1305.82 2118.45 1303.74 2117.39 1301.66 2116.34 1300.07 2114.85 1298.96 2112.93 1297.85 2111.02 1297.3 2108.81 1297.3 2106.3 1297.3 2101.07 1299.88 2097.04 1305.06 2094.19 1310.23 2091.34 1317.99 2089.69 1328.34 2089.22L1328.34 2085.73C1328.34 2082.01 1327.98 2079.07 1327.27 2076.92 1326.55 2074.77 1325.42 2073.2 1323.88 2072.2 1322.34 2071.19 1320.28 2070.69 1317.71 2070.69 1314.91 2070.69 1312.67 2071.43 1310.96 2072.89 1309.26 2074.36 1307.98 2076.56 1307.12 2079.5L1300.09 2079.5 1300.09 2072.52C1303.53 2070.73 1306.39 2069.41 1308.68 2068.57 1310.97 2067.73 1313.27 2067.07 1315.56 2066.58 1317.85 2066.1 1320.18 2065.86 1322.54 2065.86Z" fill-rule="evenodd"/><text fill="#000000" fill-opacity="0" font-family="Arial,Arial_MSFontService,sans-serif" font-size="53.1201" x="1297.3" y="2112.34">a</text><path d="M1372.33 2089.99C1375.04 2089.99 1377.35 2090.3 1379.26 2090.91 1381.17 2091.52 1382.73 2092.35 1383.93 2093.39 1385.13 2094.43 1385.99 2095.68 1386.53 2097.14 1387.06 2098.6 1387.33 2100.17 1387.33 2101.87 1387.33 2102.88 1387.26 2103.82 1387.11 2104.7 1386.97 2105.57 1386.72 2106.43 1386.37 2107.28 1386.02 2108.12 1385.56 2108.97 1384.98 2109.83 1384.41 2110.69 1383.69 2111.6 1382.84 2112.57 1382.18 2113.4 1381.34 2114.37 1380.3 2115.46 1379.25 2116.55 1378.11 2117.72 1376.88 2118.97 1375.64 2120.22 1374.35 2121.53 1372.99 2122.88 1371.64 2124.24 1370.32 2125.58 1369.05 2126.9 1367.77 2128.23 1366.6 2129.52 1365.53 2130.77 1364.46 2132.02 1363.59 2133.17 1362.91 2134.21L1377.37 2134.21C1378.59 2134.21 1379.57 2134.16 1380.3 2134.07 1381.03 2133.98 1381.63 2133.78 1382.11 2133.47 1382.59 2133.15 1383 2132.68 1383.34 2132.04 1383.68 2131.4 1384.07 2130.52 1384.51 2129.4L1388.15 2129.4C1388.02 2131.25 1387.89 2133.12 1387.78 2134.99 1387.66 2136.87 1387.54 2138.73 1387.41 2140.58L1354.32 2140.58 1354.32 2138.54C1354.94 2137.14 1355.67 2135.75 1356.51 2134.38 1357.34 2133.02 1358.28 2131.63 1359.32 2130.22 1360.36 2128.82 1361.55 2127.37 1362.87 2125.87 1364.2 2124.37 1365.67 2122.82 1367.29 2121.2 1369.74 2118.75 1371.73 2116.66 1373.26 2114.93 1374.8 2113.2 1376.01 2111.66 1376.9 2110.3 1377.78 2108.95 1378.39 2107.7 1378.71 2106.55 1379.04 2105.41 1379.2 2104.18 1379.2 2102.88 1379.2 2101.55 1379.01 2100.33 1378.64 2099.21 1378.26 2098.09 1377.72 2097.14 1377.01 2096.36 1376.31 2095.58 1375.42 2094.96 1374.34 2094.52 1373.26 2094.08 1372.01 2093.86 1370.61 2093.86 1368.19 2093.86 1366.16 2094.51 1364.51 2095.83 1362.87 2097.15 1361.6 2099.05 1360.69 2101.55L1355.57 2101.55 1355.57 2093.94C1358.9 2092.56 1361.97 2091.55 1364.77 2090.93 1367.57 2090.3 1370.09 2089.99 1372.33 2089.99Z" fill-rule="evenodd"/><text fill="#000000" fill-opacity="0" font-family="Arial,Arial_MSFontService,sans-serif" font-size="50.5859" x="1354.32" y="2134.25">2</text><path d="M5.70063-3.84297 320.185 462.66 308.783 470.346-5.70063 3.84297ZM327.743 449.273 333.699 495.006 293.539 472.331Z" fill="#0070C0" transform="matrix(-1 0 0 1 738.699 2335)"/><path d="M29.8671 102.267C3.79528 80.0687 6.01172 45.7859 34.8177 25.6944 63.6237 5.60287 108.111 7.3109 134.183 29.5094 153.651 46.0849 157.918 70.1698 144.929 90.1604L153.849 97.6557 121.857 99.3565 120.989 70.0455 129.867 77.5045C139.27 59.4784 125.474 39.6645 99.0515 33.2491 72.6293 26.8336 43.5867 36.246 34.1831 54.2722 27.542 67.0029 32.3565 81.2061 46.5159 90.655Z" stroke="#042433" stroke-width="6.875" stroke-miterlimit="8" fill="#156082" fill-rule="evenodd" transform="matrix(-0.826654 -0.56271 -0.56271 0.826654 594.527 2688.5)"/><path d="M806.214 1724.48 829.095 1724.48 829.095 1727.11C825.729 1727.51 824.046 1728.96 824.046 1731.46 824.046 1732.5 824.288 1733.66 824.772 1734.95 825.255 1736.24 826.123 1738.07 827.377 1740.43L838.119 1760.9 848.7 1742.2C850.132 1739.66 851.144 1737.58 851.734 1735.95 852.325 1734.32 852.621 1732.82 852.621 1731.46 852.621 1730.17 852.236 1729.16 851.466 1728.43 850.696 1727.69 849.559 1727.25 848.055 1727.11L848.055 1724.48 868.412 1724.48 868.412 1727.11C866.944 1727.65 865.655 1728.39 864.544 1729.34 863.434 1730.29 862.307 1731.57 861.161 1733.18 860.015 1734.79 858.332 1737.51 856.112 1741.35L841.18 1766.8 841.18 1784.21C841.18 1786.25 841.288 1787.89 841.503 1789.15 841.717 1790.4 842.075 1791.4 842.577 1792.16 843.078 1792.91 843.74 1793.5 844.564 1793.93 845.388 1794.36 846.677 1794.77 848.431 1795.16L848.431 1797.8 823.885 1797.8 823.885 1795.16C825.604 1794.81 826.875 1794.42 827.699 1794.01 828.522 1793.6 829.185 1793.01 829.686 1792.24 830.187 1791.47 830.554 1790.45 830.787 1789.2 831.02 1787.95 831.136 1786.28 831.136 1784.21L831.136 1767.02 816.312 1739.47C814.522 1736.14 813.161 1733.75 812.23 1732.32 811.299 1730.89 810.368 1729.76 809.437 1728.94 808.506 1728.11 807.432 1727.51 806.214 1727.11Z" fill-rule="evenodd"/><text fill="#000000" fill-opacity="0" font-family="Arial,Arial_MSFontService,sans-serif" font-size="73.3154" x="806.214" y="1788.63">Y</text><path d="M884.025 1769.94 886.408 1769.94C886.356 1771.37 886.317 1772.66 886.291 1773.79 886.265 1774.92 886.245 1776.02 886.232 1777.09 886.219 1778.16 886.213 1779.21 886.213 1780.25L886.213 1809.94C886.213 1810.75 886.239 1811.44 886.291 1812.03 886.343 1812.62 886.428 1813.11 886.545 1813.52 886.662 1813.92 886.818 1814.26 887.013 1814.55 887.209 1814.84 887.437 1815.08 887.697 1815.29 888.01 1815.61 888.426 1815.85 888.947 1816.02 889.468 1816.18 890.132 1816.33 890.939 1816.44 891.747 1816.56 892.717 1816.65 893.849 1816.72 894.982 1816.78 896.343 1816.83 897.931 1816.86L897.931 1820.25 866.955 1820.25 866.955 1816.86C868.491 1816.8 869.793 1816.74 870.861 1816.68 871.929 1816.61 872.84 1816.52 873.596 1816.41 874.351 1816.29 874.956 1816.16 875.412 1816.02 875.868 1815.87 876.265 1815.7 876.603 1815.49 876.968 1815.25 877.28 1815 877.541 1814.73 877.801 1814.45 878.01 1814.11 878.166 1813.69 878.322 1813.27 878.446 1812.77 878.537 1812.17 878.628 1811.57 878.674 1810.83 878.674 1809.94L878.674 1781.93C878.674 1780.92 878.478 1780.2 878.088 1779.78 877.697 1779.37 877.137 1779.16 876.408 1779.16 875.601 1779.16 874.403 1779.58 872.814 1780.41 871.226 1781.24 869.168 1782.48 866.642 1784.12 866.304 1783.52 865.991 1782.92 865.705 1782.32 865.418 1781.72 865.119 1781.11 864.806 1780.49 868.036 1778.72 871.232 1776.95 874.396 1775.19 877.56 1773.44 880.77 1771.69 884.025 1769.94Z" fill-rule="evenodd"/><text fill="#000000" fill-opacity="0" font-family="Arial,Arial_MSFontService,sans-serif" font-size="50.3125" x="864.806" y="1813.96">1</text><path d="M0 0 8.24964 832.02" stroke="#7F7F7F" stroke-width="13.75" stroke-miterlimit="8" fill="none" fill-rule="evenodd" transform="matrix(-1 0 0 1 745.25 2338)"/><path d="M737 2329.5C737 2324.81 740.582 2321 745 2321 749.418 2321 753 2324.81 753 2329.5 753 2334.19 749.418 2338 745 2338 740.582 2338 737 2334.19 737 2329.5Z" fill="#262626" fill-rule="evenodd"/><path d="M64.7193 102.801C14.4923 88.6596-0.355323 59.1526 31.5561 36.895 63.4676 14.6375 130.054 8.05787 180.281 22.1991 230.508 36.3403 245.355 65.8474 213.444 88.1049 211.011 89.8017 208.339 91.4287 205.443 92.9763L216.822 102.343 164.715 97.2519 179.711 71.7934 191.085 81.1564C222.571 68.7609 217.389 50.3595 179.511 40.0558 141.632 29.7521 85.4011 31.4479 53.9151 43.8435 22.429 56.239 27.6111 74.6404 65.4895 84.9441 71.3228 86.5309 77.7508 87.8676 84.6178 88.922Z" stroke="#042433" stroke-width="6.875" stroke-miterlimit="8" fill="#156082" fill-rule="evenodd" transform="matrix(1 -1.22465e-16 -1.22465e-16 -1 601.5 3062.5)"/><path d="M1037.42 2392.14 1060.3 2392.14 1060.3 2394.78C1058.58 2395.03 1057.34 2395.49 1056.59 2396.17 1055.84 2396.85 1055.46 2397.78 1055.46 2398.97 1055.46 2399.97 1055.8 2401.22 1056.48 2402.72 1057.16 2404.23 1058.13 2406.02 1059.38 2408.1L1067.17 2421.15 1074.85 2408.74C1076 2406.88 1076.86 2405.39 1077.43 2404.28 1078 2403.17 1078.41 2402.24 1078.64 2401.49 1078.87 2400.74 1078.99 2399.97 1078.99 2399.18 1078.99 2398.07 1078.67 2397.13 1078.02 2396.36 1077.38 2395.59 1076.3 2395.06 1074.8 2394.78L1074.8 2392.14 1094.73 2392.14 1094.73 2394.78C1093.4 2395.21 1092.21 2395.83 1091.15 2396.66 1090.1 2397.48 1088.97 2398.68 1087.77 2400.25 1086.57 2401.83 1084.86 2404.32 1082.64 2407.72L1070.5 2426.52 1084.15 2448.97C1086.08 2452.16 1087.47 2454.39 1088.31 2455.66 1089.15 2456.93 1089.94 2458 1090.67 2458.88 1091.41 2459.76 1092.19 2460.52 1093.03 2461.16 1093.88 2461.81 1094.92 2462.36 1096.18 2462.83L1096.18 2465.46 1072.6 2465.46 1072.6 2462.83C1074.24 2462.54 1075.46 2462.08 1076.25 2461.46 1077.04 2460.83 1077.43 2459.89 1077.43 2458.64 1077.43 2457.64 1077.17 2456.53 1076.65 2455.31 1076.13 2454.09 1075.34 2452.59 1074.26 2450.8L1064.54 2434.58 1054.28 2451.39C1052.56 2454.22 1051.7 2456.54 1051.7 2458.37 1051.7 2459.55 1052.03 2460.52 1052.67 2461.27 1053.32 2462.02 1054.39 2462.54 1055.89 2462.83L1055.89 2465.46 1035.59 2465.46 1035.59 2462.83C1036.92 2462.43 1038.01 2461.96 1038.87 2461.4 1039.73 2460.85 1040.55 2460.14 1041.34 2459.28 1042.13 2458.42 1043 2457.33 1043.97 2456.01 1044.94 2454.68 1046.48 2452.37 1048.59 2449.08L1061.26 2429.31 1046.12 2404.39C1044.69 2402.1 1043.6 2400.43 1042.87 2399.39 1042.13 2398.36 1041.45 2397.51 1040.83 2396.87 1040.2 2396.23 1039.64 2395.77 1039.14 2395.5 1038.63 2395.23 1038.06 2394.99 1037.42 2394.78Z" fill-rule="evenodd"/><text fill="#000000" fill-opacity="0" font-family="Arial,Arial_MSFontService,sans-serif" font-size="73.3154" x="1035.59" y="2456.29">X</text><path d="M1124.54 2437.6 1126.92 2437.6C1126.87 2439.04 1126.83 2440.32 1126.8 2441.45 1126.78 2442.59 1126.76 2443.69 1126.75 2444.75 1126.73 2445.82 1126.73 2446.88 1126.73 2447.92L1126.73 2477.6C1126.73 2478.41 1126.75 2479.11 1126.8 2479.69 1126.86 2480.28 1126.94 2480.78 1127.06 2481.18 1127.17 2481.58 1127.33 2481.93 1127.53 2482.21 1127.72 2482.5 1127.95 2482.75 1128.21 2482.96 1128.52 2483.27 1128.94 2483.51 1129.46 2483.68 1129.98 2483.85 1130.64 2483.99 1131.45 2484.11 1132.26 2484.23 1133.23 2484.32 1134.36 2484.38 1135.5 2484.45 1136.86 2484.49 1138.44 2484.52L1138.44 2487.92 1107.47 2487.92 1107.47 2484.52C1109 2484.47 1110.31 2484.41 1111.37 2484.34 1112.44 2484.28 1113.35 2484.19 1114.11 2484.07 1114.86 2483.95 1115.47 2483.82 1115.92 2483.68 1116.38 2483.54 1116.78 2483.36 1117.12 2483.15 1117.48 2482.92 1117.79 2482.66 1118.05 2482.39 1118.31 2482.12 1118.52 2481.77 1118.68 2481.35 1118.83 2480.94 1118.96 2480.43 1119.05 2479.83 1119.14 2479.23 1119.19 2478.49 1119.19 2477.6L1119.19 2449.6C1119.19 2448.58 1118.99 2447.87 1118.6 2447.45 1118.21 2447.03 1117.65 2446.82 1116.92 2446.82 1116.11 2446.82 1114.92 2447.24 1113.33 2448.07 1111.74 2448.91 1109.68 2450.14 1107.16 2451.78 1106.82 2451.19 1106.5 2450.59 1106.22 2449.99 1105.93 2449.39 1105.63 2448.78 1105.32 2448.15 1108.55 2446.38 1111.75 2444.62 1114.91 2442.86 1118.07 2441.1 1121.28 2439.35 1124.54 2437.6Z" fill-rule="evenodd"/><text fill="#000000" fill-opacity="0" font-family="Arial,Arial_MSFontService,sans-serif" font-size="50.3125" x="1105.32" y="2481.63">1</text><path d="M1977.67 2372.9C2020.7 2319.93 2010.1 2240.05 1954 2194.49 1897.91 2148.93 1817.55 2154.93 1774.52 2207.91L1930.33 2016.07C1973.36 1963.1 2053.72 1957.09 2109.81 2002.65 2165.91 2048.22 2176.51 2128.1 2133.48 2181.07Z" fill="#61CBF4" fill-rule="evenodd"/><path d="M1977.67 2372.9C1934.65 2425.88 1854.29 2431.89 1798.19 2386.32 1742.1 2340.76 1731.5 2260.88 1774.52 2207.91 1817.55 2154.93 1897.91 2148.93 1954 2194.49 2010.1 2240.05 2020.7 2319.93 1977.67 2372.9Z" fill="#A0E0F8" fill-rule="evenodd"/><path d="M1774.52 2207.91C1817.55 2154.93 1897.91 2148.93 1954 2194.49 2010.1 2240.05 2020.7 2319.93 1977.67 2372.9 1934.65 2425.88 1854.29 2431.89 1798.19 2386.32 1742.1 2340.76 1731.5 2260.88 1774.52 2207.91L1930.33 2016.07C1973.36 1963.1 2053.72 1957.09 2109.81 2002.65 2165.91 2048.22 2176.51 2128.1 2133.48 2181.07L1977.67 2372.9" stroke="#042433" stroke-width="6.875" stroke-miterlimit="8" fill="none" fill-rule="evenodd"/><path d="M0 0 624.745 514.423" stroke="#7F7F7F" stroke-width="13.75" stroke-miterlimit="8" fill="none" fill-rule="evenodd" transform="matrix(-1 0 0 1 2608.74 1633)"/><path d="M1623.89 2406.64 1672.33 2406.64 1672.33 2409.22 1635.59 2475.01 1654.98 2475.01C1657.38 2475.01 1659.16 2474.79 1660.33 2474.34 1661.49 2473.89 1662.45 2473.2 1663.2 2472.25 1663.95 2471.3 1664.63 2469.96 1665.24 2468.25 1665.85 2466.53 1666.59 2463.86 1667.44 2460.24L1672.71 2460.24 1672.71 2479.95 1623.08 2479.95 1623.08 2477.32 1659.87 2411.58 1640.37 2411.58C1638.98 2411.58 1637.88 2411.7 1637.07 2411.93 1636.27 2412.16 1635.54 2412.52 1634.9 2413 1634.25 2413.49 1633.62 2414.19 1632.99 2415.12 1632.36 2416.06 1631.74 2417.34 1631.11 2418.97 1630.48 2420.59 1629.83 2422.63 1629.15 2425.06L1623.89 2425.06Z" fill-rule="evenodd"/><text fill="#000000" fill-opacity="0" font-family="Arial,Arial_MSFontService,sans-serif" font-size="73.3154" x="1623.08" y="2470.79">Z</text><path d="M1700.36 2451.83C1703.07 2451.83 1705.38 2452.13 1707.29 2452.74 1709.21 2453.36 1710.77 2454.18 1711.96 2455.22 1713.16 2456.27 1714.03 2457.52 1714.56 2458.97 1715.09 2460.43 1715.36 2462.01 1715.36 2463.7 1715.36 2464.72 1715.29 2465.66 1715.15 2466.53 1715 2467.41 1714.76 2468.27 1714.4 2469.11 1714.05 2469.96 1713.59 2470.81 1713.02 2471.67 1712.44 2472.53 1711.73 2473.44 1710.87 2474.4 1710.22 2475.24 1709.37 2476.2 1708.33 2477.3 1707.29 2478.39 1706.15 2479.56 1704.91 2480.81 1703.68 2482.06 1702.38 2483.36 1701.03 2484.72 1699.67 2486.07 1698.36 2487.41 1697.08 2488.74 1695.8 2490.07 1694.63 2491.36 1693.56 2492.61 1692.5 2493.86 1691.62 2495 1690.95 2496.05L1705.4 2496.05C1706.62 2496.05 1707.6 2496 1708.33 2495.91 1709.06 2495.82 1709.66 2495.62 1710.15 2495.3 1710.63 2494.99 1711.04 2494.52 1711.38 2493.88 1711.72 2493.24 1712.11 2492.36 1712.55 2491.24L1716.18 2491.24C1716.05 2493.09 1715.93 2494.95 1715.81 2496.83 1715.69 2498.7 1715.57 2500.56 1715.44 2502.41L1682.35 2502.41 1682.35 2500.38C1682.98 2498.97 1683.71 2497.59 1684.54 2496.22 1685.37 2494.85 1686.31 2493.47 1687.35 2492.06 1688.4 2490.65 1689.58 2489.2 1690.91 2487.71 1692.24 2486.21 1693.71 2484.65 1695.32 2483.04 1697.77 2480.59 1699.76 2478.5 1701.3 2476.77 1702.84 2475.04 1704.05 2473.49 1704.93 2472.14 1705.82 2470.78 1706.42 2469.53 1706.75 2468.39 1707.07 2467.24 1707.24 2466.02 1707.24 2464.72 1707.24 2463.39 1707.05 2462.17 1706.67 2461.05 1706.29 2459.93 1705.75 2458.97 1705.05 2458.19 1704.35 2457.41 1703.45 2456.8 1702.37 2456.36 1701.29 2455.92 1700.05 2455.69 1698.64 2455.69 1696.22 2455.69 1694.19 2456.35 1692.55 2457.67 1690.91 2458.98 1689.63 2460.89 1688.72 2463.39L1683.6 2463.39 1683.6 2455.77C1686.94 2454.39 1690 2453.39 1692.8 2452.76 1695.6 2452.14 1698.12 2451.83 1700.36 2451.83Z" fill-rule="evenodd"/><text fill="#000000" fill-opacity="0" font-family="Arial,Arial_MSFontService,sans-serif" font-size="50.5859" x="1682.35" y="2496.09">2</text><path d="M1787.11 2529.77 1791.14 2529.77C1791.86 2533.07 1793.81 2534.71 1797 2534.71L1800.22 2534.71C1802.08 2534.71 1803.41 2534.35 1804.19 2533.61 1804.98 2532.88 1805.59 2531.6 1806.02 2529.77L1809.99 2529.77 1809.99 2546.42 1806.02 2546.42C1805.23 2543.2 1803.48 2541.59 1800.76 2541.59L1796.35 2541.59C1794.81 2541.59 1793.69 2541.92 1793 2542.58 1792.3 2543.25 1791.68 2544.53 1791.14 2546.42L1787.11 2546.42ZM1798.5 2505.71C1786.08 2505.71 1779.86 2516.35 1779.86 2537.62 1779.86 2548.61 1781.48 2556.97 1784.72 2562.7 1787.96 2568.43 1792.7 2571.29 1798.93 2571.29 1804.95 2571.29 1809.5 2568.49 1812.6 2562.89 1815.7 2557.28 1817.25 2549.59 1817.25 2539.82 1817.25 2528.75 1815.63 2520.3 1812.39 2514.47 1809.14 2508.63 1804.52 2505.71 1798.5 2505.71ZM1798.88 2500.98C1808.4 2500.98 1815.65 2504.13 1820.63 2510.41 1825.61 2516.69 1828.1 2525.75 1828.1 2537.56 1828.1 2549.88 1825.42 2559.37 1820.07 2566.03 1814.71 2572.69 1807.27 2576.02 1797.75 2576.02 1788.37 2576.02 1781.23 2572.87 1776.34 2566.57 1771.46 2560.26 1769.01 2551.11 1769.01 2539.12 1769.01 2527.02 1771.73 2517.63 1777.15 2510.97 1782.58 2504.31 1789.82 2500.98 1798.88 2500.98Z" fill-rule="evenodd"/><text fill="#000000" fill-opacity="0" font-family="Arial,Arial_MSFontService,sans-serif" font-size="75.0342" x="1769.01" y="2566.64">Θ</text><path d="M1857.48 2547.03C1859.56 2547.03 1861.51 2547.25 1863.32 2547.7 1865.13 2548.14 1866.7 2548.81 1868.03 2549.71 1869.35 2550.61 1870.39 2551.73 1871.13 2553.07 1871.87 2554.41 1872.24 2555.96 1872.24 2557.73 1872.24 2559.4 1872.01 2560.87 1871.54 2562.15 1871.07 2563.43 1870.35 2564.58 1869.37 2565.63 1868.4 2566.67 1867.2 2567.61 1865.78 2568.46 1864.36 2569.3 1862.73 2570.12 1860.88 2570.9L1860.88 2571.37C1862.62 2571.68 1864.25 2572.18 1865.76 2572.87 1867.27 2573.56 1868.59 2574.43 1869.72 2575.49 1870.86 2576.54 1871.75 2577.76 1872.4 2579.14 1873.05 2580.52 1873.38 2582.04 1873.38 2583.71 1873.38 2585.79 1872.99 2587.73 1872.21 2589.51 1871.42 2591.3 1870.25 2592.84 1868.69 2594.14 1867.13 2595.44 1865.2 2596.46 1862.91 2597.19 1860.62 2597.92 1857.93 2598.28 1854.86 2598.28 1852.44 2598.28 1849.98 2598.04 1847.48 2597.56 1844.98 2597.08 1842.61 2596.45 1840.37 2595.66L1840.37 2587.23 1845.41 2587.23C1845.82 2588.53 1846.32 2589.64 1846.89 2590.57 1847.47 2591.49 1848.14 2592.25 1848.9 2592.83 1849.67 2593.42 1850.56 2593.84 1851.56 2594.1 1852.56 2594.36 1853.7 2594.49 1854.98 2594.49 1858.34 2594.49 1860.88 2593.69 1862.62 2592.09 1864.35 2590.49 1865.21 2588.06 1865.21 2584.81 1865.21 2581.34 1864.07 2578.72 1861.79 2576.93 1859.52 2575.15 1856.14 2574.26 1851.66 2574.26L1848.22 2574.26 1848.22 2570.51C1850.96 2570.38 1853.32 2569.99 1855.31 2569.36 1857.3 2568.72 1858.96 2567.89 1860.29 2566.88 1861.62 2565.86 1862.61 2564.68 1863.26 2563.32 1863.91 2561.97 1864.24 2560.52 1864.24 2558.98 1864.24 2556.48 1863.49 2554.51 1862.01 2553.07 1860.53 2551.62 1858.38 2550.9 1855.56 2550.9 1853.19 2550.9 1851.21 2551.55 1849.61 2552.85 1848.01 2554.15 1846.78 2556.09 1845.92 2558.67L1840.96 2558.67 1840.96 2550.98C1844.03 2549.68 1846.93 2548.69 1849.65 2548.03 1852.37 2547.36 1854.98 2547.03 1857.48 2547.03Z" fill-rule="evenodd"/><text fill="#000000" fill-opacity="0" font-family="Arial,Arial_MSFontService,sans-serif" font-size="51.25" x="1840.37" y="2591.88">3</text><path d="M5.6293-3.94673 224.644 308.439 213.386 316.332-5.6293 3.94673ZM231.956 294.916 238.749 340.532 198.18 318.596Z" fill="#0070C0" transform="matrix(-1 0 0 1 1975.75 2157)"/><path d="M29.8671 102.267C3.79528 80.0687 6.01172 45.7859 34.8177 25.6944 63.6237 5.60287 108.111 7.3109 134.183 29.5094 153.651 46.0849 157.918 70.1698 144.929 90.1604L153.849 97.6557 121.857 99.3565 120.989 70.0455 129.867 77.5045C139.27 59.4784 125.474 39.6645 99.0515 33.2491 72.6293 26.8336 43.5867 36.246 34.1831 54.2722 27.542 67.0029 32.3565 81.2061 46.5159 90.655Z" stroke="#042433" stroke-width="6.875" stroke-miterlimit="8" fill="#156082" fill-rule="evenodd" transform="matrix(-0.826654 -0.56271 -0.56271 0.826654 1907.18 2387.31)"/><path d="M2362.64 1737.13C2355.37 1737.2 2349.93 1738.17 2346.31 1740.03 2342.69 1741.89 2340.89 1744.7 2340.89 1748.46 2340.89 1750.51 2341.3 1752.12 2342.12 1753.3 2342.94 1754.48 2343.98 1755.29 2345.24 1755.74 2346.49 1756.19 2347.98 1756.41 2349.69 1756.41 2352.13 1756.41 2354.34 1755.82 2356.33 1754.64 2358.31 1753.46 2359.86 1751.96 2360.97 1750.13 2362.08 1748.3 2362.64 1746.5 2362.64 1744.7ZM2356.84 1709.36C2360.38 1709.36 2363.23 1709.93 2365.38 1711.05 2367.53 1712.18 2369.14 1713.91 2370.21 1716.24 2371.29 1718.57 2371.82 1722.07 2371.82 1726.77L2371.82 1745.46C2371.82 1748.11 2371.84 1749.98 2371.88 1751.07 2371.91 1752.16 2372.02 1753.17 2372.2 1754.1 2372.38 1755.04 2372.65 1755.78 2373 1756.33 2373.36 1756.89 2373.89 1757.36 2374.59 1757.76 2375.29 1758.15 2376.42 1758.56 2378 1758.99L2378 1761.62 2363.28 1761.62 2363.55 1753.94 2362.75 1753.73C2359.63 1756.92 2356.7 1759.17 2353.96 1760.5 2351.22 1761.82 2348.32 1762.48 2345.24 1762.48 2342.51 1762.48 2340.12 1761.95 2338.04 1760.9 2335.96 1759.84 2334.37 1758.36 2333.26 1756.44 2332.15 1754.53 2331.59 1752.31 2331.59 1749.81 2331.59 1744.58 2334.18 1740.54 2339.35 1737.7 2344.53 1734.85 2352.29 1733.19 2362.64 1732.73L2362.64 1729.24C2362.64 1725.51 2362.28 1722.58 2361.56 1720.43 2360.85 1718.28 2359.72 1716.7 2358.18 1715.7 2356.64 1714.7 2354.58 1714.2 2352 1714.2 2349.21 1714.2 2346.96 1714.93 2345.26 1716.4 2343.56 1717.87 2342.28 1720.07 2341.42 1723.01L2334.39 1723.01 2334.39 1716.02C2337.82 1714.23 2340.69 1712.92 2342.98 1712.08 2345.27 1711.23 2347.56 1710.57 2349.86 1710.09 2352.15 1709.6 2354.47 1709.36 2356.84 1709.36Z" fill-rule="evenodd"/><text fill="#000000" fill-opacity="0" font-family="Arial,Arial_MSFontService,sans-serif" font-size="53.1201" x="2331.59" y="1755.84">a</text><path d="M2406.55 1733.5C2408.63 1733.5 2410.58 1733.72 2412.39 1734.16 2414.2 1734.6 2415.77 1735.27 2417.09 1736.17 2418.42 1737.07 2419.46 1738.19 2420.2 1739.53 2420.94 1740.87 2421.31 1742.43 2421.31 1744.2 2421.31 1745.87 2421.08 1747.34 2420.61 1748.61 2420.14 1749.89 2419.42 1751.05 2418.44 1752.09 2417.47 1753.13 2416.27 1754.08 2414.85 1754.92 2413.43 1755.77 2411.79 1756.58 2409.95 1757.36L2409.95 1757.83C2411.69 1758.14 2413.32 1758.65 2414.83 1759.34 2416.34 1760.03 2417.66 1760.9 2418.79 1761.95 2419.93 1763.01 2420.82 1764.23 2421.47 1765.61 2422.12 1766.99 2422.45 1768.51 2422.45 1770.18 2422.45 1772.26 2422.05 1774.19 2421.27 1775.98 2420.49 1777.76 2419.32 1779.3 2417.76 1780.61 2416.2 1781.91 2414.27 1782.92 2411.98 1783.65 2409.69 1784.38 2407 1784.75 2403.93 1784.75 2401.51 1784.75 2399.05 1784.51 2396.55 1784.02 2394.05 1783.54 2391.68 1782.91 2389.44 1782.13L2389.44 1773.69 2394.48 1773.69C2394.89 1774.99 2395.39 1776.11 2395.96 1777.03 2396.53 1777.96 2397.2 1778.71 2397.97 1779.3 2398.74 1779.88 2399.63 1780.31 2400.63 1780.57 2401.63 1780.83 2402.77 1780.96 2404.05 1780.96 2407.41 1780.96 2409.95 1780.16 2411.68 1778.55 2413.42 1776.95 2414.28 1774.52 2414.28 1771.27 2414.28 1767.81 2413.14 1765.18 2410.86 1763.4 2408.58 1761.61 2405.21 1760.72 2400.73 1760.72L2397.29 1760.72 2397.29 1756.97C2400.02 1756.84 2402.39 1756.46 2404.38 1755.82 2406.37 1755.18 2408.03 1754.36 2409.36 1753.34 2410.69 1752.32 2411.68 1751.14 2412.33 1749.79 2412.98 1748.43 2413.3 1746.99 2413.3 1745.45 2413.3 1742.95 2412.56 1740.98 2411.08 1739.53 2409.59 1738.09 2407.45 1737.36 2404.63 1737.36 2402.26 1737.36 2400.28 1738.01 2398.68 1739.32 2397.07 1740.62 2395.84 1742.56 2394.98 1745.14L2390.02 1745.14 2390.02 1737.44C2393.1 1736.14 2395.99 1735.16 2398.72 1734.49 2401.44 1733.83 2404.05 1733.5 2406.55 1733.5Z" fill-rule="evenodd"/><text fill="#000000" fill-opacity="0" font-family="Arial,Arial_MSFontService,sans-serif" font-size="51.25" x="2389.44" y="1778.34">3</text><path d="M2.37714-6.45096 370.074 129.043 365.32 141.945-2.37714 6.45096ZM368.377 113.764 399.952 147.38 354.115 152.47Z" fill="#FF0000" transform="matrix(1 0 0 -1 1979 2157.38)"/><path d="M1968.48 2153.64 1771.39 1791.48 1783.47 1784.91 1980.56 2147.07ZM1762.6 1804.09 1761 1758 1798.83 1784.37Z" fill="#00B050"/><path d="M1688.63 1645.42 1711.51 1645.42 1711.51 1648.05C1708.14 1648.45 1706.46 1649.9 1706.46 1652.41 1706.46 1653.44 1706.7 1654.61 1707.19 1655.9 1707.67 1657.19 1708.54 1659.01 1709.79 1661.38L1720.53 1681.84 1731.11 1663.15C1732.55 1660.61 1733.56 1658.52 1734.15 1656.89 1734.74 1655.26 1735.04 1653.77 1735.04 1652.41 1735.04 1651.12 1734.65 1650.1 1733.88 1649.37 1733.11 1648.64 1731.97 1648.2 1730.47 1648.05L1730.47 1645.42 1750.83 1645.42 1750.83 1648.05C1749.36 1648.59 1748.07 1649.34 1746.96 1650.28 1745.85 1651.23 1744.72 1652.51 1743.58 1654.12 1742.43 1655.74 1740.75 1658.46 1738.53 1662.29L1723.6 1687.75 1723.6 1705.15C1723.6 1707.19 1723.7 1708.84 1723.92 1710.09 1724.13 1711.34 1724.49 1712.35 1724.99 1713.1 1725.49 1713.85 1726.16 1714.44 1726.98 1714.87 1727.8 1715.3 1729.09 1715.71 1730.85 1716.11L1730.85 1718.74 1706.3 1718.74 1706.3 1716.11C1708.02 1715.75 1709.29 1715.36 1710.11 1714.95 1710.94 1714.54 1711.6 1713.95 1712.1 1713.18 1712.6 1712.41 1712.97 1711.4 1713.2 1710.14 1713.43 1708.89 1713.55 1707.23 1713.55 1705.15L1713.55 1687.96 1698.73 1660.41C1696.94 1657.08 1695.58 1654.7 1694.65 1653.26 1693.71 1651.83 1692.78 1650.7 1691.85 1649.88 1690.92 1649.06 1689.85 1648.45 1688.63 1648.05Z" fill-rule="evenodd"/><text fill="#000000" fill-opacity="0" font-family="Arial,Arial_MSFontService,sans-serif" font-size="73.3154" x="1688.63" y="1709.57">Y</text><path d="M1765.94 1690.61C1768.65 1690.61 1770.96 1690.92 1772.87 1691.53 1774.78 1692.14 1776.34 1692.97 1777.54 1694.01 1778.74 1695.05 1779.6 1696.3 1780.14 1697.76 1780.67 1699.22 1780.94 1700.79 1780.94 1702.49 1780.94 1703.5 1780.87 1704.45 1780.72 1705.32 1780.58 1706.19 1780.33 1707.05 1779.98 1707.9 1779.63 1708.74 1779.17 1709.6 1778.59 1710.45 1778.02 1711.31 1777.3 1712.23 1776.44 1713.19 1775.79 1714.02 1774.95 1714.99 1773.91 1716.08 1772.86 1717.17 1771.72 1718.35 1770.49 1719.6 1769.25 1720.85 1767.96 1722.15 1766.6 1723.5 1765.25 1724.86 1763.93 1726.2 1762.66 1727.53 1761.38 1728.85 1760.21 1730.14 1759.14 1731.39 1758.07 1732.64 1757.2 1733.79 1756.52 1734.83L1770.98 1734.83C1772.2 1734.83 1773.18 1734.78 1773.91 1734.69 1774.64 1734.6 1775.24 1734.4 1775.72 1734.09 1776.2 1733.78 1776.61 1733.3 1776.95 1732.66 1777.29 1732.02 1777.68 1731.14 1778.12 1730.03L1781.76 1730.03C1781.63 1731.87 1781.5 1733.74 1781.39 1735.61 1781.27 1737.49 1781.15 1739.35 1781.02 1741.2L1747.93 1741.2 1747.93 1739.17C1748.55 1737.76 1749.28 1736.37 1750.12 1735.01 1750.95 1733.64 1751.89 1732.25 1752.93 1730.85 1753.97 1729.44 1755.16 1727.99 1756.48 1726.49 1757.81 1724.99 1759.28 1723.44 1760.9 1721.82 1763.35 1719.37 1765.34 1717.28 1766.87 1715.55 1768.41 1713.82 1769.62 1712.28 1770.51 1710.92 1771.39 1709.57 1772 1708.32 1772.32 1707.17 1772.65 1706.03 1772.81 1704.8 1772.81 1703.5 1772.81 1702.17 1772.62 1700.95 1772.25 1699.83 1771.87 1698.71 1771.33 1697.76 1770.62 1696.98 1769.92 1696.2 1769.03 1695.58 1767.95 1695.14 1766.87 1694.7 1765.62 1694.48 1764.22 1694.48 1761.8 1694.48 1759.77 1695.14 1758.12 1696.45 1756.48 1697.77 1755.21 1699.67 1754.3 1702.17L1749.18 1702.17 1749.18 1694.56C1752.51 1693.18 1755.58 1692.17 1758.38 1691.55 1761.18 1690.92 1763.7 1690.61 1765.94 1690.61Z" fill-rule="evenodd"/><text fill="#000000" fill-opacity="0" font-family="Arial,Arial_MSFontService,sans-serif" font-size="50.5859" x="1747.93" y="1734.87">2</text><path d="M2357.18 2075.13 2380.07 2075.13 2380.07 2077.77C2378.35 2078.02 2377.11 2078.48 2376.36 2079.16 2375.61 2079.84 2375.23 2080.77 2375.23 2081.96 2375.23 2082.96 2375.57 2084.21 2376.25 2085.71 2376.93 2087.22 2377.9 2089.01 2379.15 2091.09L2386.94 2104.14 2394.62 2091.73C2395.77 2089.87 2396.63 2088.38 2397.2 2087.27 2397.77 2086.16 2398.17 2085.23 2398.41 2084.48 2398.64 2083.73 2398.76 2082.96 2398.76 2082.17 2398.76 2081.06 2398.43 2080.12 2397.79 2079.35 2397.15 2078.58 2396.07 2078.05 2394.57 2077.77L2394.57 2075.13 2414.49 2075.13 2414.49 2077.77C2413.17 2078.2 2411.98 2078.82 2410.92 2079.65 2409.87 2080.47 2408.74 2081.67 2407.54 2083.24 2406.34 2084.82 2404.63 2087.31 2402.41 2090.71L2390.27 2109.51 2403.91 2131.96C2405.85 2135.15 2407.23 2137.38 2408.08 2138.65 2408.92 2139.92 2409.7 2140.99 2410.44 2141.87 2411.17 2142.75 2411.96 2143.51 2412.8 2144.15 2413.64 2144.8 2414.69 2145.35 2415.94 2145.82L2415.94 2148.45 2392.36 2148.45 2392.36 2145.82C2394.01 2145.53 2395.23 2145.07 2396.02 2144.45 2396.81 2143.82 2397.2 2142.88 2397.2 2141.63 2397.2 2140.63 2396.94 2139.52 2396.42 2138.3 2395.9 2137.08 2395.1 2135.58 2394.03 2133.79L2384.31 2117.57 2374.05 2134.38C2372.33 2137.21 2371.47 2139.53 2371.47 2141.36 2371.47 2142.54 2371.79 2143.51 2372.44 2144.26 2373.08 2145.01 2374.16 2145.53 2375.66 2145.82L2375.66 2148.45 2355.36 2148.45 2355.36 2145.82C2356.68 2145.42 2357.78 2144.95 2358.63 2144.39 2359.49 2143.84 2360.32 2143.13 2361.11 2142.27 2361.89 2141.41 2362.77 2140.32 2363.74 2139 2364.7 2137.67 2366.24 2135.36 2368.36 2132.07L2381.03 2112.3 2365.89 2087.38C2364.45 2085.09 2363.37 2083.42 2362.64 2082.38 2361.9 2081.35 2361.22 2080.5 2360.59 2079.86 2359.97 2079.22 2359.4 2078.76 2358.9 2078.49 2358.4 2078.22 2357.83 2077.98 2357.18 2077.77Z" fill-rule="evenodd"/><text fill="#000000" fill-opacity="0" font-family="Arial,Arial_MSFontService,sans-serif" font-size="73.3154" x="2355.36" y="2139.28">X</text><path d="M2443.8 2120.32C2446.51 2120.32 2448.82 2120.63 2450.74 2121.24 2452.65 2121.85 2454.21 2122.68 2455.4 2123.72 2456.6 2124.76 2457.47 2126.01 2458 2127.47 2458.54 2128.93 2458.8 2130.5 2458.8 2132.2 2458.8 2133.21 2458.73 2134.16 2458.59 2135.03 2458.44 2135.9 2458.2 2136.76 2457.85 2137.61 2457.49 2138.45 2457.03 2139.31 2456.46 2140.17 2455.89 2141.02 2455.17 2141.94 2454.31 2142.9 2453.66 2143.73 2452.81 2144.7 2451.77 2145.79 2450.73 2146.88 2449.59 2148.06 2448.35 2149.31 2447.12 2150.56 2445.82 2151.86 2444.47 2153.21 2443.11 2154.57 2441.8 2155.91 2440.52 2157.24 2439.25 2158.56 2438.07 2159.85 2437.01 2161.1 2435.94 2162.35 2435.07 2163.5 2434.39 2164.54L2448.84 2164.54C2450.07 2164.54 2451.04 2164.49 2451.77 2164.4 2452.5 2164.31 2453.11 2164.11 2453.59 2163.8 2454.07 2163.49 2454.48 2163.01 2454.82 2162.37 2455.16 2161.73 2455.55 2160.86 2455.99 2159.74L2459.62 2159.74C2459.49 2161.58 2459.37 2163.45 2459.25 2165.32 2459.13 2167.2 2459.01 2169.06 2458.88 2170.91L2425.79 2170.91 2425.79 2168.88C2426.42 2167.47 2427.15 2166.08 2427.98 2164.72 2428.82 2163.35 2429.75 2161.96 2430.79 2160.56 2431.84 2159.15 2433.02 2157.7 2434.35 2156.2 2435.68 2154.7 2437.15 2153.15 2438.76 2151.53 2441.21 2149.08 2443.2 2146.99 2444.74 2145.26 2446.28 2143.53 2447.49 2141.99 2448.37 2140.63 2449.26 2139.28 2449.86 2138.03 2450.19 2136.88 2450.51 2135.74 2450.68 2134.51 2450.68 2133.21 2450.68 2131.88 2450.49 2130.66 2450.11 2129.54 2449.73 2128.42 2449.19 2127.47 2448.49 2126.69 2447.79 2125.91 2446.9 2125.3 2445.81 2124.85 2444.73 2124.41 2443.49 2124.19 2442.08 2124.19 2439.66 2124.19 2437.63 2124.85 2435.99 2126.16 2434.35 2127.48 2433.07 2129.38 2432.16 2131.88L2427.04 2131.88 2427.04 2124.27C2430.38 2122.89 2433.44 2121.88 2436.24 2121.26 2439.04 2120.63 2441.56 2120.32 2443.8 2120.32Z" fill-rule="evenodd"/><text fill="#000000" fill-opacity="0" font-family="Arial,Arial_MSFontService,sans-serif" font-size="50.5859" x="2425.79" y="2164.58">2</text><path d="M2525.8 1820.52 2574.25 1820.52 2574.25 1823.09 2537.51 1888.89 2556.9 1888.89C2559.3 1888.89 2561.08 1888.67 2562.25 1888.22 2563.41 1887.77 2564.37 1887.07 2565.12 1886.12 2565.87 1885.17 2566.55 1883.84 2567.16 1882.12 2567.77 1880.4 2568.5 1877.74 2569.36 1874.12L2574.63 1874.12 2574.63 1893.83 2525 1893.83 2525 1891.2 2561.79 1825.46 2542.29 1825.46C2540.9 1825.46 2539.8 1825.57 2538.99 1825.81 2538.18 1826.04 2537.46 1826.4 2536.81 1826.88 2536.17 1827.36 2535.53 1828.07 2534.91 1829 2534.28 1829.93 2533.65 1831.21 2533.03 1832.84 2532.4 1834.47 2531.75 1836.5 2531.07 1838.94L2525.8 1838.94Z" fill-rule="evenodd"/><text fill="#000000" fill-opacity="0" font-family="Arial,Arial_MSFontService,sans-serif" font-size="73.3154" x="2525" y="1884.67">Z</text><path d="M2602.2 1865.7C2604.28 1865.7 2606.23 1865.92 2608.04 1866.37 2609.85 1866.81 2611.42 1867.48 2612.75 1868.38 2614.08 1869.28 2615.11 1870.4 2615.85 1871.74 2616.6 1873.08 2616.97 1874.64 2616.97 1876.41 2616.97 1878.07 2616.73 1879.54 2616.26 1880.82 2615.8 1882.1 2615.07 1883.26 2614.1 1884.3 2613.12 1885.34 2611.92 1886.28 2610.5 1887.13 2609.08 1887.98 2607.45 1888.79 2605.6 1889.57L2605.6 1890.04C2607.34 1890.35 2608.97 1890.85 2610.48 1891.54 2611.99 1892.23 2613.31 1893.11 2614.45 1894.16 2615.58 1895.21 2616.47 1896.43 2617.12 1897.81 2617.77 1899.19 2618.1 1900.72 2618.1 1902.38 2618.1 1904.47 2617.71 1906.4 2616.93 1908.18 2616.15 1909.97 2614.98 1911.51 2613.41 1912.81 2611.85 1914.11 2609.92 1915.13 2607.63 1915.86 2605.34 1916.59 2602.66 1916.95 2599.58 1916.95 2597.16 1916.95 2594.7 1916.71 2592.2 1916.23 2589.7 1915.75 2587.33 1915.12 2585.09 1914.34L2585.09 1905.9 2590.13 1905.9C2590.55 1907.2 2591.04 1908.31 2591.62 1909.24 2592.19 1910.16 2592.86 1910.92 2593.63 1911.5 2594.4 1912.09 2595.28 1912.51 2596.28 1912.77 2597.29 1913.03 2598.43 1913.16 2599.7 1913.16 2603.06 1913.16 2605.61 1912.36 2607.34 1910.76 2609.07 1909.16 2609.94 1906.73 2609.94 1903.48 2609.94 1900.01 2608.8 1897.39 2606.52 1895.61 2604.24 1893.82 2600.86 1892.93 2596.38 1892.93L2592.94 1892.93 2592.94 1889.18C2595.68 1889.05 2598.04 1888.67 2600.03 1888.03 2602.03 1887.39 2603.69 1886.56 2605.01 1885.55 2606.34 1884.53 2607.33 1883.35 2607.98 1881.99 2608.63 1880.64 2608.96 1879.19 2608.96 1877.66 2608.96 1875.16 2608.22 1873.18 2606.73 1871.74 2605.25 1870.29 2603.1 1869.57 2600.29 1869.57 2597.92 1869.57 2595.93 1870.22 2594.33 1871.52 2592.73 1872.83 2591.5 1874.77 2590.64 1877.34L2585.68 1877.34 2585.68 1869.65C2588.75 1868.35 2591.65 1867.36 2594.37 1866.7 2597.09 1866.04 2599.7 1865.7 2602.2 1865.7Z" fill-rule="evenodd"/><text fill="#000000" fill-opacity="0" font-family="Arial,Arial_MSFontService,sans-serif" font-size="51.25" x="2585.09" y="1910.55">3</text><path d="M5.58833-4.00451 165.747 219.498 154.57 227.507-5.58833 4.00451ZM172.919 205.901 180.181 251.445 139.389 229.928Z" fill="#0070C0" transform="matrix(-1 0 0 1 2595.18 1639)"/><path d="M2.37714-6.45096 370.074 129.043 365.32 141.945-2.37714 6.45096ZM368.377 113.764 399.952 147.38 354.115 152.47Z" fill="#FF0000" transform="matrix(0.948016 -0.318223 -0.318223 -0.948016 2598.96 1638.06)"/><path d="M2588.37 1638.41 2286.28 1357.79 2295.63 1347.72 2597.72 1628.33ZM2281.95 1372.55 2265.77 1329.36 2310.03 1342.32Z" fill="#00B050"/><path d="M2245.55 1185.21 2268.43 1185.21 2268.43 1187.85C2265.07 1188.24 2263.38 1189.69 2263.38 1192.2 2263.38 1193.23 2263.62 1194.4 2264.11 1195.69 2264.59 1196.98 2265.46 1198.8 2266.71 1201.17L2277.45 1221.63 2288.04 1202.94C2289.47 1200.4 2290.48 1198.31 2291.07 1196.68 2291.66 1195.05 2291.96 1193.56 2291.96 1192.2 2291.96 1190.91 2291.57 1189.9 2290.8 1189.16 2290.03 1188.43 2288.9 1187.99 2287.39 1187.85L2287.39 1185.21 2307.75 1185.21 2307.75 1187.85C2306.28 1188.38 2304.99 1189.13 2303.88 1190.07 2302.77 1191.02 2301.64 1192.3 2300.5 1193.91 2299.35 1195.53 2297.67 1198.25 2295.45 1202.08L2280.52 1227.54 2280.52 1244.94C2280.52 1246.98 2280.62 1248.63 2280.84 1249.88 2281.05 1251.13 2281.41 1252.14 2281.91 1252.89 2282.41 1253.64 2283.08 1254.23 2283.9 1254.66 2284.72 1255.09 2286.01 1255.5 2287.77 1255.9L2287.77 1258.53 2263.22 1258.53 2263.22 1255.9C2264.94 1255.54 2266.21 1255.15 2267.03 1254.74 2267.86 1254.33 2268.52 1253.74 2269.02 1252.97 2269.52 1252.2 2269.89 1251.19 2270.12 1249.94 2270.36 1248.68 2270.47 1247.02 2270.47 1244.94L2270.47 1227.75 2255.65 1200.2C2253.86 1196.87 2252.5 1194.49 2251.57 1193.06 2250.64 1191.62 2249.7 1190.5 2248.77 1189.67 2247.84 1188.85 2246.77 1188.24 2245.55 1187.85Z" fill-rule="evenodd"/><text fill="#000000" fill-opacity="0" font-family="Arial,Arial_MSFontService,sans-serif" font-size="73.3154" x="2245.55" y="1249.36">Y</text><path d="M2322.78 1230.4C2324.86 1230.4 2326.81 1230.62 2328.62 1231.07 2330.43 1231.51 2332 1232.18 2333.33 1233.08 2334.65 1233.98 2335.69 1235.1 2336.43 1236.44 2337.17 1237.78 2337.55 1239.33 2337.55 1241.1 2337.55 1242.77 2337.31 1244.24 2336.84 1245.52 2336.37 1246.79 2335.65 1247.95 2334.67 1249 2333.7 1250.04 2332.5 1250.98 2331.08 1251.83 2329.66 1252.67 2328.03 1253.49 2326.18 1254.27L2326.18 1254.74C2327.92 1255.05 2329.55 1255.55 2331.06 1256.24 2332.57 1256.93 2333.89 1257.8 2335.03 1258.86 2336.16 1259.91 2337.05 1261.13 2337.7 1262.51 2338.35 1263.89 2338.68 1265.41 2338.68 1267.08 2338.68 1269.16 2338.29 1271.1 2337.51 1272.88 2336.73 1274.67 2335.55 1276.21 2333.99 1277.51 2332.43 1278.81 2330.5 1279.83 2328.21 1280.56 2325.92 1281.29 2323.24 1281.65 2320.16 1281.65 2317.74 1281.65 2315.28 1281.41 2312.78 1280.93 2310.28 1280.45 2307.91 1279.82 2305.67 1279.03L2305.67 1270.6 2310.71 1270.6C2311.13 1271.9 2311.62 1273.01 2312.19 1273.94 2312.77 1274.86 2313.44 1275.62 2314.21 1276.2 2314.97 1276.79 2315.86 1277.21 2316.86 1277.47 2317.86 1277.73 2319 1277.86 2320.28 1277.86 2323.64 1277.86 2326.18 1277.06 2327.92 1275.46 2329.65 1273.86 2330.51 1271.43 2330.51 1268.17 2330.51 1264.71 2329.37 1262.09 2327.1 1260.3 2324.82 1258.52 2321.44 1257.63 2316.96 1257.63L2313.52 1257.63 2313.52 1253.88C2316.26 1253.75 2318.62 1253.36 2320.61 1252.73 2322.6 1252.09 2324.26 1251.26 2325.59 1250.25 2326.92 1249.23 2327.91 1248.04 2328.56 1246.69 2329.21 1245.34 2329.54 1243.89 2329.54 1242.35 2329.54 1239.85 2328.8 1237.88 2327.31 1236.44 2325.83 1234.99 2323.68 1234.27 2320.87 1234.27 2318.5 1234.27 2316.51 1234.92 2314.91 1236.22 2313.31 1237.52 2312.08 1239.46 2311.22 1242.04L2306.26 1242.04 2306.26 1234.35C2309.33 1233.04 2312.23 1232.06 2314.95 1231.4 2317.67 1230.73 2320.28 1230.4 2322.78 1230.4Z" fill-rule="evenodd"/><text fill="#000000" fill-opacity="0" font-family="Arial,Arial_MSFontService,sans-serif" font-size="51.25" x="2305.67" y="1275.25">3</text><path d="M2961.13 1351.82 2984.01 1351.82 2984.01 1354.46C2982.29 1354.71 2981.05 1355.17 2980.3 1355.85 2979.55 1356.53 2979.17 1357.46 2979.17 1358.65 2979.17 1359.65 2979.51 1360.9 2980.19 1362.41 2980.88 1363.91 2981.84 1365.7 2983.1 1367.78L2990.88 1380.83 2998.56 1368.42C2999.71 1366.56 3000.57 1365.07 3001.14 1363.96 3001.72 1362.85 3002.12 1361.92 3002.35 1361.17 3002.58 1360.42 3002.7 1359.65 3002.7 1358.86 3002.7 1357.75 3002.38 1356.81 3001.73 1356.04 3001.09 1355.27 3000.01 1354.74 2998.51 1354.46L2998.51 1351.82 3018.44 1351.82 3018.44 1354.46C3017.11 1354.89 3015.92 1355.51 3014.87 1356.34 3013.81 1357.16 3012.68 1358.36 3011.48 1359.94 3010.28 1361.51 3008.57 1364 3006.35 1367.4L2994.21 1386.2 3007.86 1408.65C3009.79 1411.84 3011.18 1414.07 3012.02 1415.34 3012.86 1416.61 3013.65 1417.68 3014.38 1418.56 3015.12 1419.44 3015.9 1420.2 3016.75 1420.84 3017.59 1421.49 3018.63 1422.04 3019.89 1422.51L3019.89 1425.14 2996.31 1425.14 2996.31 1422.51C2997.96 1422.22 2999.17 1421.77 2999.96 1421.14 3000.75 1420.51 3001.14 1419.57 3001.14 1418.32 3001.14 1417.32 3000.88 1416.21 3000.36 1414.99 2999.84 1413.77 2999.05 1412.27 2997.97 1410.48L2988.25 1394.26 2977.99 1411.07C2976.27 1413.9 2975.41 1416.22 2975.41 1418.05 2975.41 1419.23 2975.74 1420.2 2976.38 1420.95 2977.03 1421.7 2978.1 1422.22 2979.6 1422.51L2979.6 1425.14 2959.3 1425.14 2959.3 1422.51C2960.63 1422.11 2961.72 1421.64 2962.58 1421.09 2963.44 1420.53 2964.26 1419.82 2965.05 1418.96 2965.84 1418.1 2966.71 1417.01 2967.68 1415.69 2968.65 1414.36 2970.19 1412.05 2972.3 1408.76L2984.98 1388.99 2969.83 1364.07C2968.4 1361.78 2967.31 1360.11 2966.58 1359.08 2965.84 1358.04 2965.16 1357.2 2964.54 1356.55 2963.91 1355.91 2963.35 1355.45 2962.85 1355.18 2962.34 1354.91 2961.77 1354.67 2961.13 1354.46Z" fill-rule="evenodd"/><text fill="#000000" fill-opacity="0" font-family="Arial,Arial_MSFontService,sans-serif" font-size="73.3154" x="2959.3" y="1415.98">X</text><path d="M3047.67 1397.01C3049.75 1397.01 3051.7 1397.23 3053.51 1397.68 3055.32 1398.12 3056.89 1398.79 3058.21 1399.69 3059.54 1400.59 3060.58 1401.71 3061.32 1403.05 3062.06 1404.39 3062.43 1405.94 3062.43 1407.72 3062.43 1409.38 3062.2 1410.85 3061.73 1412.13 3061.26 1413.41 3060.54 1414.56 3059.56 1415.61 3058.59 1416.65 3057.39 1417.59 3055.97 1418.44 3054.55 1419.28 3052.92 1420.1 3051.07 1420.88L3051.07 1421.35C3052.81 1421.66 3054.44 1422.16 3055.95 1422.85 3057.46 1423.54 3058.78 1424.42 3059.91 1425.47 3061.05 1426.52 3061.94 1427.74 3062.59 1429.12 3063.24 1430.5 3063.57 1432.03 3063.57 1433.69 3063.57 1435.78 3063.18 1437.71 3062.39 1439.49 3061.61 1441.28 3060.44 1442.82 3058.88 1444.12 3057.32 1445.42 3055.39 1446.44 3053.1 1447.17 3050.81 1447.9 3048.12 1448.26 3045.05 1448.26 3042.63 1448.26 3040.17 1448.02 3037.67 1447.54 3035.17 1447.06 3032.8 1446.43 3030.56 1445.65L3030.56 1437.21 3035.6 1437.21C3036.01 1438.51 3036.51 1439.62 3037.08 1440.55 3037.65 1441.47 3038.33 1442.23 3039.09 1442.81 3039.86 1443.4 3040.75 1443.82 3041.75 1444.08 3042.75 1444.34 3043.89 1444.47 3045.17 1444.47 3048.53 1444.47 3051.07 1443.67 3052.8 1442.07 3054.54 1440.47 3055.4 1438.04 3055.4 1434.79 3055.4 1431.32 3054.26 1428.7 3051.98 1426.92 3049.71 1425.13 3046.33 1424.24 3041.85 1424.24L3038.41 1424.24 3038.41 1420.49C3041.14 1420.36 3043.51 1419.97 3045.5 1419.34 3047.49 1418.7 3049.15 1417.87 3050.48 1416.86 3051.81 1415.84 3052.8 1414.66 3053.45 1413.3 3054.1 1411.95 3054.43 1410.5 3054.43 1408.97 3054.43 1406.47 3053.68 1404.49 3052.2 1403.05 3050.71 1401.6 3048.57 1400.88 3045.75 1400.88 3043.38 1400.88 3041.4 1401.53 3039.8 1402.83 3038.2 1404.14 3036.96 1406.08 3036.11 1408.65L3031.14 1408.65 3031.14 1400.96C3034.22 1399.66 3037.11 1398.67 3039.84 1398.01 3042.56 1397.34 3045.17 1397.01 3047.67 1397.01Z" fill-rule="evenodd"/><text fill="#000000" fill-opacity="0" font-family="Arial,Arial_MSFontService,sans-serif" font-size="51.25" x="3030.56" y="1441.86">3</text></g></svg>