<svg width="1375" height="2285" xmlns="http://www.w3.org/2000/svg" xmlns:xlink="http://www.w3.org/1999/xlink" xml:space="preserve" overflow="hidden"><g transform="translate(-378 -582)"><path d="M0 0 479.481 0.000360892" stroke="#000000" stroke-width="6.875" stroke-miterlimit="8" stroke-dasharray="55 20.625" fill="none" fill-rule="evenodd" transform="matrix(-1 0 0 1 1395.98 1540.5)"/><path d="M6.87503 34.375 6.87533 397.992-6.87467 397.992-6.87497 34.375ZM-20.625 41.25 0 0 20.625 41.25ZM20.6253 391.117 0.000360892 432.367-20.6247 391.117Z" transform="matrix(1 0 0 -1 925 1983.37)"/><rect x="1356.5" y="1201.5" width="69.0001" height="874" stroke="#042433" stroke-width="6.875" stroke-miterlimit="8" fill="#96DCF8"/><rect x="1331.5" y="1177.5" width="124" height="374" stroke="#042433" stroke-width="6.875" stroke-miterlimit="8" fill="#BFBFBF"/><path d="M6.87502 34.375 6.87534 507.905-6.87466 507.905-6.87498 34.375ZM-20.625 41.25 0 0 20.625 41.25ZM20.6253 501.03 0.000360892 542.28-20.6247 501.03Z" transform="matrix(1 0 0 -1 925 1534.28)"/><path d="M0 0 479.481 0.000360892" stroke="#000000" stroke-width="6.875" stroke-miterlimit="8" stroke-dasharray="55 20.625" fill="none" fill-rule="evenodd" transform="matrix(-1 0 0 1 1392.98 991.5)"/><path d="M0 0 479.481 0.000360892" stroke="#000000" stroke-width="6.875" stroke-miterlimit="8" stroke-dasharray="55 20.625" fill="none" fill-rule="evenodd" transform="matrix(-1 0 0 1 1392.98 1987.5)"/><rect x="1052.5" y="2647.5" width="697" height="216" stroke="#042433" stroke-width="6.875" stroke-miterlimit="8" fill="#D9F2D0"/><rect x="1327.5" y="1987.5" width="124" height="490" stroke="#042433" stroke-width="6.875" stroke-miterlimit="8" fill="#BFBFBF"/><rect x="1483.5" y="870.5" width="101" height="368" stroke="#042433" stroke-width="6.875" stroke-miterlimit="8" fill="#F2CFEE"/><rect x="1202.5" y="870.5" width="101" height="368" stroke="#042433" stroke-width="6.875" stroke-miterlimit="8" fill="#F2CFEE"/><rect x="1202.5" y="1137.5" width="382" height="101" stroke="#042433" stroke-width="6.875" stroke-miterlimit="8" fill="#F2CFEE"/><path d="M1231.5 2631.5C1231.5 2540.37 1305.37 2466.5 1396.5 2466.5 1487.63 2466.5 1561.5 2540.37 1561.5 2631.5 1561.5 2722.63 1487.63 2796.5 1396.5 2796.5 1305.37 2796.5 1231.5 2722.63 1231.5 2631.5Z" stroke="#042433" stroke-width="6.875" stroke-miterlimit="8" fill="#96DCF8" fill-rule="evenodd"/><path d="M6.87502 34.375 6.87534 600.432-6.87466 600.432-6.87498 34.375ZM-20.625 41.25 0 0 20.625 41.25ZM20.6253 593.556 0.000360892 634.806-20.6247 593.556Z" transform="matrix(1 0 0 -1 925 2635.81)"/><path d="M0 0 471.996 1.94521" stroke="#000000" stroke-width="6.875" stroke-miterlimit="8" stroke-dasharray="55 20.625" fill="none" fill-rule="evenodd" transform="matrix(-1 0 0 1 1393.5 2642.5)"/><text font-family="Aptos,Aptos_MSFontService,sans-serif" font-weight="400" font-size="92" transform="matrix(1 0 0 1 625.305 2260)">0.25 m</text><path d="M1458.56 2562 1461.93 2562C1462.53 2564.75 1464.16 2566.13 1466.83 2566.13L1469.52 2566.13C1471.08 2566.13 1472.19 2565.82 1472.85 2565.21 1473.51 2564.6 1474.02 2563.53 1474.38 2562L1477.7 2562 1477.7 2575.92 1474.38 2575.92C1473.72 2573.23 1472.25 2571.88 1469.97 2571.88L1466.29 2571.88C1465 2571.88 1464.07 2572.16 1463.48 2572.71 1462.9 2573.27 1462.38 2574.34 1461.93 2575.92L1458.56 2575.92ZM1468.09 2541.87C1457.69 2541.87 1452.5 2550.77 1452.5 2568.56 1452.5 2577.75 1453.85 2584.74 1456.56 2589.53 1459.27 2594.33 1463.24 2596.72 1468.45 2596.72 1473.48 2596.72 1477.29 2594.38 1479.88 2589.69 1482.47 2585.01 1483.76 2578.57 1483.76 2570.4 1483.76 2561.14 1482.41 2554.08 1479.7 2549.2 1476.99 2544.31 1473.12 2541.87 1468.09 2541.87ZM1468.4 2537.92C1476.37 2537.92 1482.43 2540.55 1486.59 2545.8 1490.76 2551.06 1492.84 2558.63 1492.84 2568.51 1492.84 2578.81 1490.6 2586.75 1486.12 2592.32 1481.65 2597.89 1475.42 2600.68 1467.46 2600.68 1459.61 2600.68 1453.64 2598.04 1449.56 2592.77 1445.47 2587.5 1443.42 2579.85 1443.42 2569.81 1443.42 2559.69 1445.69 2551.85 1450.23 2546.28 1454.77 2540.7 1460.82 2537.92 1468.4 2537.92Z" fill-rule="evenodd"/><text fill="#000000" fill-opacity="0" font-family="Arial,Arial_MSFontService,sans-serif" font-size="62.7559" x="1443.42" y="2592.83">Θ</text><path d="M1518.19 2576.52 1520.18 2576.52C1520.14 2577.72 1520.11 2578.79 1520.08 2579.74 1520.06 2580.69 1520.05 2581.61 1520.03 2582.51 1520.02 2583.4 1520.02 2584.28 1520.02 2585.16L1520.02 2610.02C1520.02 2610.7 1520.04 2611.28 1520.08 2611.77 1520.13 2612.26 1520.2 2612.68 1520.3 2613.01 1520.39 2613.35 1520.53 2613.64 1520.69 2613.88 1520.85 2614.12 1521.04 2614.33 1521.26 2614.5 1521.52 2614.76 1521.87 2614.97 1522.31 2615.11 1522.74 2615.25 1523.3 2615.37 1523.98 2615.47 1524.65 2615.57 1525.47 2615.64 1526.41 2615.7 1527.36 2615.75 1528.5 2615.79 1529.83 2615.81L1529.83 2618.66 1503.89 2618.66 1503.89 2615.81C1505.18 2615.77 1506.27 2615.72 1507.16 2615.66 1508.06 2615.61 1508.82 2615.53 1509.45 2615.43 1510.08 2615.34 1510.59 2615.23 1510.97 2615.11 1511.35 2614.99 1511.69 2614.84 1511.97 2614.67 1512.28 2614.47 1512.54 2614.26 1512.76 2614.03 1512.97 2613.8 1513.15 2613.51 1513.28 2613.16 1513.41 2612.81 1513.51 2612.39 1513.59 2611.89 1513.67 2611.38 1513.7 2610.76 1513.7 2610.02L1513.7 2586.56C1513.7 2585.71 1513.54 2585.11 1513.21 2584.76 1512.89 2584.42 1512.42 2584.24 1511.81 2584.24 1511.13 2584.24 1510.13 2584.59 1508.8 2585.29 1507.47 2585.99 1505.74 2587.02 1503.63 2588.4 1503.34 2587.89 1503.08 2587.39 1502.84 2586.89 1502.6 2586.39 1502.35 2585.88 1502.09 2585.35 1504.8 2583.87 1507.47 2582.39 1510.12 2580.92 1512.77 2579.45 1515.46 2577.98 1518.19 2576.52Z" fill-rule="evenodd"/><text fill="#000000" fill-opacity="0" font-family="Arial,Arial_MSFontService,sans-serif" font-size="42.1367" x="1502.09" y="2613.39">1</text><path d="M21.5151 118.352C8.85758 78.1258 29.93 34.8371 68.5816 21.664 107.233 8.49089 148.828 30.4217 161.485 70.6479 161.603 71.0242 161.719 71.4014 161.832 71.7796L179.469 70.578 158.426 89.94 130.717 73.8998 148.316 72.7005C136.846 39.7657 102.109 22.8267 70.7305 34.8662 40.1584 46.5962 23.9109 81.6145 33.9639 114.109Z" stroke="#042433" stroke-width="6.875" stroke-miterlimit="8" fill="#156082" fill-rule="evenodd" transform="matrix(1 -1.22465e-16 -1.22465e-16 -1 1311.5 2736.5)"/><path d="M1434 2629.12 1596.32 2629.12 1596.32 2642.88 1434 2642.87ZM1589.44 2615.38 1630.69 2636 1589.44 2656.62Z" fill="#FF0000"/><path d="M6.875-8.10369e-06 6.87532 271.799-6.87468 271.799-6.875 8.10369e-06ZM20.6253 264.923 0.000360892 306.174-20.6247 264.924Z" fill="#4EA72E" transform="matrix(1 0 0 -1 1401 2601.17)"/><path d="M1275.4 2527.51 1315.92 2527.51 1315.92 2529.66 1285.19 2584.69 1301.41 2584.69C1303.41 2584.69 1304.9 2584.51 1305.88 2584.13 1306.85 2583.76 1307.65 2583.17 1308.28 2582.38 1308.91 2581.59 1309.48 2580.47 1309.99 2579.03 1310.5 2577.6 1311.11 2575.37 1311.83 2572.34L1316.23 2572.34 1316.23 2588.83 1274.72 2588.83 1274.72 2586.63 1305.49 2531.64 1289.19 2531.64C1288.02 2531.64 1287.1 2531.74 1286.42 2531.93 1285.75 2532.13 1285.14 2532.43 1284.61 2532.83 1284.07 2533.24 1283.53 2533.83 1283.01 2534.61 1282.49 2535.38 1281.96 2536.46 1281.44 2537.82 1280.91 2539.18 1280.37 2540.88 1279.8 2542.92L1275.4 2542.92Z" fill-rule="evenodd"/><text fill="#000000" fill-opacity="0" font-family="Arial,Arial_MSFontService,sans-serif" font-size="61.3184" x="1274.72" y="2581.16">Z</text><path d="M1339.17 2568.33C1337.64 2568.33 1336.37 2568.73 1335.34 2569.53 1334.32 2570.32 1333.51 2571.49 1332.91 2573.03 1332.31 2574.57 1331.88 2576.44 1331.63 2578.66 1331.38 2580.87 1331.25 2583.38 1331.25 2586.2 1331.25 2589.45 1331.41 2592.25 1331.73 2594.62 1332.04 2596.99 1332.54 2598.93 1333.2 2600.46 1333.87 2601.99 1334.7 2603.11 1335.7 2603.83 1336.71 2604.55 1337.91 2604.91 1339.3 2604.91 1340.61 2604.91 1341.76 2604.57 1342.74 2603.9 1343.72 2603.22 1344.53 2602.17 1345.17 2600.74 1345.82 2599.31 1346.3 2597.5 1346.63 2595.31 1346.96 2593.12 1347.12 2590.53 1347.12 2587.54 1347.12 2584.18 1346.94 2581.29 1346.58 2578.87 1346.22 2576.45 1345.71 2574.46 1345.06 2572.9 1344.41 2571.34 1343.58 2570.19 1342.59 2569.45 1341.6 2568.71 1340.46 2568.33 1339.17 2568.33ZM1339.3 2565.16C1341.9 2565.16 1344.12 2565.65 1345.96 2566.62 1347.8 2567.59 1349.31 2568.97 1350.47 2570.77 1351.64 2572.57 1352.5 2574.77 1353.04 2577.36 1353.59 2579.96 1353.86 2582.89 1353.86 2586.16 1353.86 2593.43 1352.57 2598.92 1350 2602.64 1347.43 2606.35 1343.7 2608.21 1338.81 2608.21 1333.97 2608.21 1330.37 2606.46 1328.01 2602.95 1325.66 2599.44 1324.48 2594.11 1324.48 2586.98 1324.48 2583.25 1324.85 2580.02 1325.58 2577.3 1326.31 2574.57 1327.33 2572.31 1328.65 2570.51 1329.97 2568.71 1331.54 2567.37 1333.35 2566.49 1335.16 2565.6 1337.14 2565.16 1339.3 2565.16Z" fill-rule="evenodd"/><text fill="#000000" fill-opacity="0" font-family="Arial,Arial_MSFontService,sans-serif" font-size="43.0527" x="1324.48" y="2602.83">0</text><path d="M1367 2636C1367 2618.88 1381.1 2605 1398.5 2605 1415.9 2605 1430 2618.88 1430 2636 1430 2653.12 1415.9 2667 1398.5 2667 1381.1 2667 1367 2653.12 1367 2636Z" stroke="#0070C0" stroke-width="10.3125" stroke-miterlimit="8" fill="#FFFFFF" fill-rule="evenodd"/><path d="M1390.5 2636.5C1390.5 2632.08 1394.31 2628.5 1399 2628.5 1403.69 2628.5 1407.5 2632.08 1407.5 2636.5 1407.5 2640.92 1403.69 2644.5 1399 2644.5 1394.31 2644.5 1390.5 2640.92 1390.5 2636.5Z" stroke="#0070C0" stroke-width="1.14583" stroke-miterlimit="8" fill="#0070C0" fill-rule="evenodd"/><path d="M1464.05 2275.99 1481.32 2275.99 1481.32 2277.97C1478.78 2278.27 1477.51 2279.36 1477.51 2281.25 1477.51 2282.04 1477.69 2282.92 1478.06 2283.89 1478.42 2284.86 1479.08 2286.24 1480.02 2288.02L1488.13 2303.46 1496.11 2289.36C1497.19 2287.44 1497.96 2285.87 1498.4 2284.64 1498.85 2283.41 1499.07 2282.28 1499.07 2281.25 1499.07 2280.28 1498.78 2279.52 1498.2 2278.96 1497.62 2278.41 1496.76 2278.08 1495.63 2277.97L1495.63 2275.99 1510.99 2275.99 1510.99 2277.97C1509.88 2278.38 1508.91 2278.94 1508.07 2279.65 1507.23 2280.37 1506.38 2281.34 1505.51 2282.55 1504.65 2283.77 1503.38 2285.82 1501.7 2288.71L1490.44 2307.92 1490.44 2321.05C1490.44 2322.59 1490.52 2323.83 1490.68 2324.78 1490.84 2325.73 1491.11 2326.48 1491.49 2327.05 1491.87 2327.62 1492.37 2328.06 1492.99 2328.39 1493.61 2328.71 1494.59 2329.02 1495.91 2329.32L1495.91 2331.31 1477.39 2331.31 1477.39 2329.32C1478.69 2329.05 1479.64 2328.76 1480.27 2328.45 1480.89 2328.14 1481.39 2327.69 1481.77 2327.11 1482.14 2326.53 1482.42 2325.77 1482.6 2324.82 1482.77 2323.88 1482.86 2322.62 1482.86 2321.05L1482.86 2308.08 1471.67 2287.29C1470.32 2284.78 1469.3 2282.98 1468.59 2281.9 1467.89 2280.82 1467.19 2279.97 1466.49 2279.35 1465.78 2278.73 1464.97 2278.27 1464.05 2277.97Z" fill-rule="evenodd"/><text fill="#000000" fill-opacity="0" font-family="Arial,Arial_MSFontService,sans-serif" font-size="55.3198" x="1464.05" y="2324.39">Y</text><path d="M1521.92 2312.47C1520.53 2312.47 1519.37 2312.83 1518.43 2313.55 1517.5 2314.28 1516.76 2315.34 1516.21 2316.74 1515.67 2318.14 1515.28 2319.85 1515.05 2321.86 1514.82 2323.88 1514.71 2326.17 1514.71 2328.73 1514.71 2331.69 1514.85 2334.24 1515.14 2336.4 1515.43 2338.55 1515.88 2340.33 1516.48 2341.72 1517.09 2343.11 1517.85 2344.13 1518.76 2344.78 1519.67 2345.44 1520.77 2345.77 1522.04 2345.77 1523.23 2345.77 1524.27 2345.46 1525.16 2344.84 1526.06 2344.23 1526.8 2343.27 1527.38 2341.97 1527.97 2340.67 1528.41 2339.02 1528.71 2337.02 1529.01 2335.03 1529.16 2332.67 1529.16 2329.95 1529.16 2326.89 1528.99 2324.26 1528.66 2322.06 1528.34 2319.85 1527.87 2318.04 1527.28 2316.62 1526.68 2315.2 1525.93 2314.15 1525.03 2313.48 1524.13 2312.8 1523.09 2312.47 1521.92 2312.47ZM1522.04 2309.58C1524.4 2309.58 1526.42 2310.02 1528.1 2310.9 1529.78 2311.79 1531.15 2313.05 1532.21 2314.69 1533.27 2316.32 1534.05 2318.32 1534.55 2320.69 1535.04 2323.05 1535.29 2325.72 1535.29 2328.7 1535.29 2335.31 1534.12 2340.31 1531.78 2343.7 1529.43 2347.08 1526.04 2348.77 1521.59 2348.77 1517.18 2348.77 1513.91 2347.18 1511.76 2343.98 1509.62 2340.78 1508.54 2335.94 1508.54 2329.44 1508.54 2326.05 1508.88 2323.11 1509.54 2320.63 1510.21 2318.15 1511.14 2316.09 1512.34 2314.45 1513.54 2312.81 1514.97 2311.59 1516.62 2310.78 1518.26 2309.98 1520.07 2309.58 1522.04 2309.58Z" fill-rule="evenodd"/><text fill="#000000" fill-opacity="0" font-family="Arial,Arial_MSFontService,sans-serif" font-size="39.1973" x="1508.54" y="2343.88">0</text><path d="M1643.93 2561.49 1661.2 2561.49 1661.2 2563.47C1659.9 2563.66 1658.97 2564.01 1658.4 2564.53 1657.84 2565.04 1657.55 2565.74 1657.55 2566.63 1657.55 2567.39 1657.81 2568.34 1658.32 2569.47 1658.84 2570.61 1659.56 2571.96 1660.51 2573.52L1666.39 2583.37 1672.18 2574.01C1673.05 2572.6 1673.7 2571.48 1674.13 2570.65 1674.56 2569.81 1674.86 2569.11 1675.04 2568.54 1675.21 2567.97 1675.3 2567.39 1675.3 2566.8 1675.3 2565.96 1675.06 2565.25 1674.57 2564.67 1674.09 2564.09 1673.28 2563.69 1672.14 2563.47L1672.14 2561.49 1687.18 2561.49 1687.18 2563.47C1686.18 2563.8 1685.28 2564.27 1684.48 2564.89 1683.69 2565.51 1682.83 2566.42 1681.93 2567.61 1681.02 2568.8 1679.73 2570.67 1678.06 2573.24L1668.9 2587.42 1679.19 2604.36C1680.65 2606.77 1681.7 2608.45 1682.33 2609.41 1682.97 2610.37 1683.56 2611.18 1684.12 2611.84 1684.67 2612.5 1685.27 2613.08 1685.9 2613.56 1686.54 2614.05 1687.33 2614.47 1688.27 2614.82L1688.27 2616.81 1670.48 2616.81 1670.48 2614.82C1671.72 2614.6 1672.64 2614.26 1673.24 2613.79 1673.83 2613.31 1674.13 2612.61 1674.13 2611.66 1674.13 2610.9 1673.93 2610.07 1673.54 2609.15 1673.15 2608.23 1672.55 2607.09 1671.74 2605.74L1664.4 2593.5 1656.66 2606.19C1655.36 2608.32 1654.71 2610.08 1654.71 2611.46 1654.71 2612.35 1654.96 2613.08 1655.44 2613.65 1655.93 2614.21 1656.74 2614.6 1657.88 2614.82L1657.88 2616.81 1642.56 2616.81 1642.56 2614.82C1643.56 2614.52 1644.38 2614.17 1645.03 2613.75 1645.68 2613.33 1646.3 2612.79 1646.89 2612.15 1647.49 2611.5 1648.15 2610.67 1648.88 2609.67 1649.61 2608.67 1650.77 2606.93 1652.36 2604.45L1661.93 2589.53 1650.5 2570.73C1649.42 2569 1648.6 2567.74 1648.05 2566.96 1647.49 2566.17 1646.98 2565.54 1646.51 2565.05 1646.04 2564.57 1645.61 2564.22 1645.23 2564.02 1644.85 2563.82 1644.42 2563.63 1643.93 2563.47Z" fill-rule="evenodd"/><text fill="#000000" fill-opacity="0" font-family="Arial,Arial_MSFontService,sans-serif" font-size="55.3198" x="1642.56" y="2609.89">X</text><path d="M1708.75 2597.97C1707.36 2597.97 1706.2 2598.33 1705.27 2599.05 1704.34 2599.78 1703.6 2600.84 1703.05 2602.24 1702.5 2603.64 1702.12 2605.35 1701.89 2607.36 1701.66 2609.38 1701.55 2611.67 1701.55 2614.23 1701.55 2617.19 1701.69 2619.75 1701.98 2621.9 1702.27 2624.05 1702.71 2625.83 1703.32 2627.22 1703.92 2628.61 1704.68 2629.63 1705.6 2630.28 1706.51 2630.94 1707.6 2631.27 1708.87 2631.27 1710.06 2631.27 1711.11 2630.96 1712 2630.34 1712.89 2629.73 1713.63 2628.77 1714.22 2627.47 1714.8 2626.17 1715.25 2624.52 1715.54 2622.53 1715.84 2620.53 1715.99 2618.17 1715.99 2615.45 1715.99 2612.39 1715.83 2609.76 1715.5 2607.56 1715.17 2605.35 1714.71 2603.54 1714.11 2602.12 1713.52 2600.7 1712.77 2599.66 1711.87 2598.98 1710.96 2598.31 1709.93 2597.97 1708.75 2597.97ZM1708.87 2595.08C1711.24 2595.08 1713.26 2595.52 1714.93 2596.4 1716.61 2597.29 1717.98 2598.55 1719.04 2600.19 1720.11 2601.82 1720.89 2603.83 1721.38 2606.19 1721.88 2608.55 1722.13 2611.22 1722.13 2614.2 1722.13 2620.81 1720.96 2625.81 1718.61 2629.2 1716.27 2632.58 1712.87 2634.28 1708.43 2634.28 1704.02 2634.28 1700.74 2632.68 1698.6 2629.48 1696.45 2626.28 1695.38 2621.44 1695.38 2614.95 1695.38 2611.55 1695.71 2608.61 1696.38 2606.13 1697.04 2603.65 1697.98 2601.59 1699.18 2599.95 1700.38 2598.31 1701.8 2597.09 1703.45 2596.28 1705.1 2595.48 1706.91 2595.08 1708.87 2595.08Z" fill-rule="evenodd"/><text fill="#000000" fill-opacity="0" font-family="Arial,Arial_MSFontService,sans-serif" font-size="39.1973" x="1695.38" y="2629.38">0</text><path d="M7.46629e-06-6.875 297.937-6.87468 297.937 6.87532-7.46629e-06 6.875ZM291.062-20.6247 332.312 0.000360892 291.061 20.6253Z" fill="#4EA72E" transform="matrix(-1 0 0 1 1434.31 990)"/><path d="M6.875-8.10369e-06 6.87532 271.799-6.87468 271.799-6.875 8.10369e-06ZM20.6253 264.923 0.000360892 306.174-20.6247 264.924Z" fill="#FF0000" transform="matrix(1 0 0 -1 1401 956.174)"/><path d="M1338.34 1038.63 1378.86 1038.63 1378.86 1040.79 1348.13 1095.82 1364.35 1095.82C1366.36 1095.82 1367.85 1095.63 1368.82 1095.25 1369.79 1094.88 1370.59 1094.3 1371.22 1093.5 1371.85 1092.71 1372.42 1091.59 1372.93 1090.16 1373.44 1088.72 1374.05 1086.49 1374.77 1083.46L1379.17 1083.46 1379.17 1099.95 1337.67 1099.95 1337.67 1097.75 1368.44 1042.76 1352.13 1042.76C1350.96 1042.76 1350.04 1042.86 1349.37 1043.05 1348.69 1043.25 1348.09 1043.55 1347.55 1043.95 1347.01 1044.36 1346.48 1044.95 1345.95 1045.73 1345.43 1046.51 1344.91 1047.58 1344.38 1048.94 1343.86 1050.3 1343.31 1052 1342.74 1054.04L1338.34 1054.04Z" fill-rule="evenodd"/><text fill="#000000" fill-opacity="0" font-family="Arial,Arial_MSFontService,sans-serif" font-size="61.3184" x="1337.67" y="1092.28">Z</text><path d="M1442.01 1088.49C1440.81 1088.49 1439.62 1088.78 1438.46 1089.37 1437.29 1089.96 1436.19 1090.79 1435.15 1091.87 1434.12 1092.95 1433.17 1094.26 1432.32 1095.8 1431.47 1097.33 1430.76 1099.05 1430.2 1100.95 1432.97 1100.93 1435.35 1100.71 1437.35 1100.3 1439.34 1099.88 1440.98 1099.31 1442.25 1098.59 1443.53 1097.87 1444.47 1097.02 1445.07 1096.04 1445.67 1095.06 1445.97 1093.98 1445.97 1092.8 1445.97 1091.45 1445.63 1090.39 1444.95 1089.63 1444.28 1088.87 1443.29 1088.49 1442.01 1088.49ZM1406.01 1088.49C1404.81 1088.49 1403.62 1088.78 1402.46 1089.37 1401.29 1089.96 1400.19 1090.79 1399.15 1091.87 1398.12 1092.95 1397.17 1094.26 1396.32 1095.8 1395.47 1097.33 1394.76 1099.05 1394.2 1100.95 1396.97 1100.93 1399.35 1100.71 1401.35 1100.3 1403.34 1099.88 1404.98 1099.31 1406.25 1098.59 1407.53 1097.87 1408.47 1097.02 1409.07 1096.04 1409.67 1095.06 1409.97 1093.98 1409.97 1092.8 1409.97 1091.45 1409.63 1090.39 1408.95 1089.63 1408.28 1088.87 1407.29 1088.49 1406.01 1088.49ZM1443.41 1085.25C1446.21 1085.25 1448.33 1085.86 1449.78 1087.08 1451.23 1088.3 1451.95 1090.03 1451.95 1092.28 1451.95 1100.18 1444.48 1104.12 1429.54 1104.12 1429.43 1104.69 1429.35 1105.31 1429.28 1105.97 1429.22 1106.64 1429.18 1107.36 1429.18 1108.15 1429.18 1110.52 1429.67 1112.26 1430.64 1113.35 1431.61 1114.44 1433.12 1114.98 1435.17 1114.98 1436.24 1114.98 1437.25 1114.87 1438.21 1114.64 1439.17 1114.41 1440.12 1114.06 1441.04 1113.58 1441.97 1113.1 1442.9 1112.48 1443.84 1111.73 1444.78 1110.98 1445.76 1110.08 1446.78 1109.03L1449.24 1111.68C1446.71 1114.19 1444.18 1116.07 1441.66 1117.34 1439.15 1118.6 1436.44 1119.24 1433.53 1119.24 1431.83 1119.24 1430.32 1118.98 1429 1118.47 1427.68 1117.96 1426.57 1117.21 1425.67 1116.23 1424.76 1115.25 1424.07 1114.05 1423.61 1112.65 1423.14 1111.24 1422.9 1109.65 1422.9 1107.89 1422.9 1106.64 1423.01 1105.35 1423.23 1104.01 1423.45 1102.67 1423.79 1101.33 1424.24 1099.98 1424.7 1098.64 1425.27 1097.33 1425.94 1096.06 1426.62 1094.78 1427.42 1093.59 1428.33 1092.48 1430.16 1090.21 1432.37 1088.44 1434.96 1087.16 1437.54 1085.88 1440.36 1085.25 1443.41 1085.25ZM1407.41 1085.25C1410.21 1085.25 1412.33 1085.86 1413.78 1087.08 1415.23 1088.3 1415.95 1090.03 1415.95 1092.28 1415.95 1100.18 1408.48 1104.12 1393.54 1104.12 1393.43 1104.69 1393.35 1105.31 1393.28 1105.97 1393.22 1106.64 1393.18 1107.36 1393.18 1108.15 1393.18 1110.52 1393.67 1112.26 1394.64 1113.35 1395.61 1114.44 1397.12 1114.98 1399.17 1114.98 1400.24 1114.98 1401.25 1114.87 1402.21 1114.64 1403.17 1114.41 1404.12 1114.06 1405.04 1113.58 1405.97 1113.1 1406.9 1112.48 1407.84 1111.73 1408.78 1110.98 1409.76 1110.08 1410.78 1109.03L1413.24 1111.68C1410.71 1114.19 1408.18 1116.07 1405.66 1117.34 1403.15 1118.6 1400.44 1119.24 1397.53 1119.24 1395.83 1119.24 1394.32 1118.98 1393 1118.47 1391.68 1117.96 1390.57 1117.21 1389.67 1116.23 1388.76 1115.25 1388.07 1114.05 1387.61 1112.65 1387.14 1111.24 1386.9 1109.65 1386.9 1107.89 1386.9 1106.64 1387.01 1105.35 1387.23 1104.01 1387.45 1102.67 1387.79 1101.33 1388.24 1099.98 1388.7 1098.64 1389.27 1097.33 1389.94 1096.06 1390.62 1094.78 1391.42 1093.59 1392.33 1092.48 1394.16 1090.21 1396.37 1088.44 1398.96 1087.16 1401.54 1085.88 1404.36 1085.25 1407.41 1085.25Z" fill-rule="evenodd"/><text fill="#000000" fill-opacity="0" font-family="Arial,Arial_MSFontService,sans-serif" font-size="33.9907" x="1386.9" y="1114.99">𝑒𝑒</text><path d="M1367 990C1367 972.879 1381.1 959 1398.5 959 1415.9 959 1430 972.879 1430 990 1430 1007.12 1415.9 1021 1398.5 1021 1381.1 1021 1367 1007.12 1367 990Z" stroke="#0070C0" stroke-width="10.3125" stroke-miterlimit="8" fill="#FFFFFF" fill-rule="evenodd"/><path d="M1390.5 990.5C1390.5 986.082 1394.31 982.5 1399 982.5 1403.69 982.5 1407.5 986.082 1407.5 990.5 1407.5 994.918 1403.69 998.5 1399 998.5 1394.31 998.5 1390.5 994.918 1390.5 990.5Z" stroke="#0070C0" stroke-width="1.14583" stroke-miterlimit="8" fill="#0070C0" fill-rule="evenodd"/><path d="M1053.98 893.96 1071.25 893.96 1071.25 895.945C1068.71 896.243 1067.44 897.337 1067.44 899.228 1067.44 900.012 1067.62 900.89 1067.99 901.862 1068.35 902.835 1069.01 904.213 1069.95 905.996L1078.06 921.437 1086.04 907.334C1087.12 905.415 1087.88 903.841 1088.33 902.612 1088.78 901.383 1089 900.255 1089 899.228 1089 898.255 1088.71 897.492 1088.13 896.938 1087.55 896.384 1086.69 896.053 1085.55 895.945L1085.55 893.96 1100.91 893.96 1100.91 895.945C1099.81 896.351 1098.83 896.911 1098 897.627 1097.16 898.343 1096.31 899.309 1095.44 900.525 1094.58 901.741 1093.31 903.794 1091.63 906.685L1080.37 925.895 1080.37 939.026C1080.37 940.566 1080.45 941.809 1080.61 942.754 1080.77 943.7 1081.04 944.457 1081.42 945.024 1081.8 945.591 1082.3 946.037 1082.92 946.361 1083.54 946.686 1084.51 946.996 1085.84 947.294L1085.84 949.279 1067.32 949.279 1067.32 947.294C1068.61 947.023 1069.57 946.733 1070.19 946.422 1070.82 946.111 1071.32 945.666 1071.69 945.085 1072.07 944.504 1072.35 943.741 1072.53 942.795 1072.7 941.849 1072.79 940.593 1072.79 939.026L1072.79 926.057 1061.6 905.267C1060.25 902.754 1059.23 900.957 1058.52 899.877 1057.82 898.796 1057.12 897.945 1056.42 897.323 1055.71 896.702 1054.9 896.243 1053.98 895.945Z" fill-rule="evenodd"/><text fill="#000000" fill-opacity="0" font-family="Arial,Arial_MSFontService,sans-serif" font-size="55.3198" x="1053.98" y="942.364">Y</text><path d="M1144.94 938.661C1143.86 938.661 1142.9 938.875 1142.03 939.302 1141.17 939.729 1140.41 940.349 1139.77 941.163 1139.12 941.977 1138.6 942.975 1138.19 944.157 1137.78 945.338 1137.52 946.673 1137.4 948.163L1151.22 948.163C1151.02 944.926 1150.43 942.533 1149.45 940.984 1148.46 939.436 1146.96 938.661 1144.94 938.661ZM1111.94 938.661C1110.86 938.661 1109.9 938.875 1109.03 939.302 1108.17 939.729 1107.41 940.349 1106.77 941.163 1106.12 941.977 1105.6 942.975 1105.19 944.157 1104.78 945.338 1104.52 946.673 1104.4 948.163L1118.22 948.163C1118.02 944.926 1117.43 942.533 1116.45 940.984 1115.46 939.436 1113.96 938.661 1111.94 938.661ZM1145.29 935.712C1147.4 935.712 1149.21 936.035 1150.74 936.68 1152.27 937.326 1153.51 938.214 1154.47 939.346 1154.94 939.902 1155.37 940.538 1155.75 941.253 1156.12 941.967 1156.45 942.796 1156.72 943.74 1156.98 944.683 1157.19 945.76 1157.34 946.971 1157.49 948.182 1157.58 949.563 1157.62 951.111L1137.22 951.111 1137.22 951.379C1137.22 955.132 1137.92 957.942 1139.32 959.809 1140.72 961.675 1142.94 962.608 1145.98 962.608 1146.79 962.608 1147.57 962.524 1148.32 962.355 1149.06 962.187 1149.8 961.923 1150.54 961.566 1151.27 961.209 1152.01 960.747 1152.75 960.181 1153.5 959.615 1154.28 958.945 1155.09 958.17L1157.18 960.643C1156.07 961.735 1155.01 962.663 1154.01 963.428 1153 964.192 1152 964.813 1151.01 965.289 1150.02 965.766 1149.01 966.113 1147.97 966.332 1146.94 966.55 1145.85 966.659 1144.7 966.659 1140.17 966.659 1136.76 965.364 1134.48 962.772 1132.2 960.181 1131.06 956.364 1131.06 951.32 1131.06 948.997 1131.39 946.877 1132.07 944.961 1132.74 943.045 1133.71 941.401 1134.96 940.031 1136.21 938.661 1137.71 937.599 1139.45 936.844 1141.2 936.09 1143.15 935.712 1145.29 935.712ZM1112.29 935.712C1114.4 935.712 1116.21 936.035 1117.74 936.68 1119.27 937.326 1120.51 938.214 1121.47 939.346 1121.94 939.902 1122.37 940.538 1122.75 941.253 1123.12 941.967 1123.45 942.796 1123.72 943.74 1123.98 944.683 1124.19 945.76 1124.34 946.971 1124.49 948.182 1124.58 949.563 1124.62 951.111L1104.22 951.111 1104.22 951.379C1104.22 955.132 1104.92 957.942 1106.32 959.809 1107.72 961.675 1109.94 962.608 1112.98 962.608 1113.79 962.608 1114.57 962.524 1115.32 962.355 1116.06 962.187 1116.8 961.923 1117.54 961.566 1118.27 961.209 1119.01 960.747 1119.75 960.181 1120.5 959.615 1121.28 958.945 1122.09 958.17L1124.18 960.643C1123.07 961.735 1122.01 962.663 1121.01 963.428 1120 964.192 1119 964.813 1118.01 965.289 1117.02 965.766 1116.01 966.113 1114.97 966.332 1113.94 966.55 1112.85 966.659 1111.7 966.659 1107.17 966.659 1103.76 965.364 1101.48 962.772 1099.2 960.181 1098.06 956.364 1098.06 951.32 1098.06 948.997 1098.39 946.877 1099.07 944.961 1099.74 943.045 1100.71 941.401 1101.96 940.031 1103.21 938.661 1104.71 937.599 1106.45 936.844 1108.2 936.09 1110.15 935.712 1112.29 935.712Z" fill-rule="evenodd"/><text fill="#000000" fill-opacity="0" font-family="Arial,Arial_MSFontService,sans-serif" font-size="30.9468" x="1098.06" y="962.791">ee</text><path d="M1433.31 619.922 1450.58 619.922 1450.58 621.908C1449.28 622.097 1448.35 622.448 1447.78 622.961 1447.21 623.475 1446.93 624.177 1446.93 625.069 1446.93 625.825 1447.19 626.771 1447.7 627.906 1448.21 629.04 1448.94 630.391 1449.89 631.958L1455.77 641.806 1461.56 632.445C1462.43 631.04 1463.07 629.918 1463.51 629.081 1463.94 628.243 1464.24 627.541 1464.42 626.973 1464.59 626.406 1464.68 625.825 1464.68 625.231 1464.68 624.393 1464.44 623.684 1463.95 623.103 1463.47 622.522 1462.66 622.124 1461.52 621.908L1461.52 619.922 1476.56 619.922 1476.56 621.908C1475.56 622.232 1474.66 622.705 1473.86 623.326 1473.06 623.947 1472.21 624.853 1471.31 626.041 1470.4 627.23 1469.11 629.108 1467.44 631.675L1458.28 645.859 1468.57 662.8C1470.03 665.204 1471.08 666.886 1471.71 667.845 1472.35 668.804 1472.94 669.615 1473.5 670.277 1474.05 670.939 1474.64 671.513 1475.28 671.999 1475.91 672.486 1476.7 672.904 1477.65 673.256L1477.65 675.242 1459.86 675.242 1459.86 673.256C1461.1 673.04 1462.02 672.695 1462.61 672.222 1463.21 671.749 1463.51 671.04 1463.51 670.095 1463.51 669.338 1463.31 668.5 1462.92 667.582 1462.53 666.663 1461.93 665.528 1461.12 664.178L1453.78 651.938 1446.04 664.623C1444.74 666.758 1444.09 668.514 1444.09 669.892 1444.09 670.784 1444.34 671.513 1444.82 672.08 1445.31 672.648 1446.12 673.04 1447.26 673.256L1447.26 675.242 1431.94 675.242 1431.94 673.256C1432.94 672.958 1433.76 672.6 1434.41 672.182 1435.06 671.763 1435.68 671.229 1436.27 670.581 1436.87 669.932 1437.53 669.108 1438.26 668.109 1438.99 667.109 1440.15 665.366 1441.74 662.881L1451.31 647.967 1439.88 629.162C1438.8 627.433 1437.98 626.176 1437.43 625.393 1436.87 624.609 1436.36 623.974 1435.89 623.488 1435.41 623.002 1434.99 622.657 1434.61 622.455 1434.23 622.252 1433.8 622.07 1433.31 621.908Z" fill-rule="evenodd"/><text fill="#000000" fill-opacity="0" font-family="Arial,Arial_MSFontService,sans-serif" font-size="55.3198" x="1431.94" y="668.327">X</text><path d="M1531.22 664.623C1530.15 664.623 1529.18 664.837 1528.32 665.264 1527.45 665.691 1526.7 666.311 1526.05 667.125 1525.41 667.939 1524.88 668.937 1524.48 670.119 1524.07 671.3 1523.81 672.636 1523.69 674.125L1537.51 674.125C1537.31 670.888 1536.72 668.495 1535.73 666.947 1534.75 665.398 1533.25 664.623 1531.22 664.623ZM1498.22 664.623C1497.15 664.623 1496.18 664.837 1495.32 665.264 1494.45 665.691 1493.7 666.311 1493.05 667.125 1492.41 667.939 1491.88 668.937 1491.48 670.119 1491.07 671.3 1490.81 672.636 1490.69 674.125L1504.51 674.125C1504.31 670.888 1503.72 668.495 1502.73 666.947 1501.75 665.398 1500.25 664.623 1498.22 664.623ZM1531.58 661.675C1533.68 661.675 1535.5 661.997 1537.03 662.643 1538.56 663.288 1539.8 664.177 1540.75 665.308 1541.23 665.864 1541.66 666.5 1542.03 667.215 1542.41 667.93 1542.73 668.759 1543 669.702 1543.27 670.645 1543.48 671.722 1543.63 672.933 1543.78 674.145 1543.87 675.525 1543.91 677.074L1523.51 677.074 1523.51 677.342C1523.51 681.095 1524.21 683.904 1525.61 685.771 1527.01 687.637 1529.23 688.571 1532.26 688.571 1533.08 688.571 1533.86 688.486 1534.6 688.317 1535.35 688.149 1536.09 687.886 1536.82 687.528 1537.56 687.171 1538.3 686.709 1539.04 686.143 1539.79 685.577 1540.56 684.907 1541.38 684.133L1543.46 686.605C1542.35 687.697 1541.29 688.625 1540.29 689.39 1539.29 690.154 1538.29 690.775 1537.3 691.251 1536.31 691.728 1535.29 692.075 1534.26 692.294 1533.23 692.512 1532.14 692.621 1530.98 692.621 1526.46 692.621 1523.05 691.326 1520.77 688.734 1518.48 686.143 1517.34 682.326 1517.34 677.282 1517.34 674.959 1517.68 672.839 1518.35 670.923 1519.03 669.007 1519.99 667.364 1521.24 665.993 1522.5 664.623 1523.99 663.561 1525.74 662.806 1527.49 662.052 1529.44 661.675 1531.58 661.675ZM1498.58 661.675C1500.68 661.675 1502.5 661.997 1504.03 662.643 1505.56 663.288 1506.8 664.177 1507.75 665.308 1508.23 665.864 1508.66 666.5 1509.03 667.215 1509.41 667.93 1509.73 668.759 1510 669.702 1510.27 670.645 1510.48 671.722 1510.63 672.933 1510.78 674.145 1510.87 675.525 1510.91 677.074L1490.51 677.074 1490.51 677.342C1490.51 681.095 1491.21 683.904 1492.61 685.771 1494.01 687.637 1496.23 688.571 1499.26 688.571 1500.08 688.571 1500.86 688.486 1501.6 688.317 1502.35 688.149 1503.09 687.886 1503.82 687.528 1504.56 687.171 1505.3 686.709 1506.04 686.143 1506.79 685.577 1507.56 684.907 1508.38 684.133L1510.46 686.605C1509.35 687.697 1508.29 688.625 1507.29 689.39 1506.29 690.154 1505.29 690.775 1504.3 691.251 1503.31 691.728 1502.29 692.075 1501.26 692.294 1500.23 692.512 1499.14 692.621 1497.98 692.621 1493.46 692.621 1490.05 691.326 1487.77 688.734 1485.48 686.143 1484.34 682.326 1484.34 677.282 1484.34 674.959 1484.68 672.839 1485.35 670.923 1486.03 669.007 1486.99 667.364 1488.24 665.993 1489.5 664.623 1490.99 663.561 1492.74 662.806 1494.49 662.052 1496.44 661.675 1498.58 661.675Z" fill-rule="evenodd"/><text fill="#000000" fill-opacity="0" font-family="Arial,Arial_MSFontService,sans-serif" font-size="30.9468" x="1484.34" y="688.753">ee</text><text font-family="Aptos,Aptos_MSFontService,sans-serif" font-weight="400" font-size="92" transform="matrix(1 0 0 1 642.292 1303)">0.2 m</text><text font-family="Aptos,Aptos_MSFontService,sans-serif" font-weight="400" font-size="92" transform="matrix(1 0 0 1 433.548 1780)">0.1 </text><text font-family="Aptos,Aptos_MSFontService,sans-serif" font-weight="400" font-size="92" transform="matrix(1 0 0 1 576.205 1780)">-</text><text font-family="Aptos,Aptos_MSFontService,sans-serif" font-weight="400" font-size="92" transform="matrix(1 0 0 1 626.048 1780)">0.</text><text font-family="Aptos,Aptos_MSFontService,sans-serif" font-weight="400" font-size="92" transform="matrix(1 0 0 1 701.1 1780)">3</text><text font-family="Aptos,Aptos_MSFontService,sans-serif" font-weight="400" font-size="92" transform="matrix(1 0 0 1 768.705 1780)">m</text><path d="M6.875-9.02383e-06 6.87532 240.579-6.87468 240.579-6.875 9.02383e-06ZM20.6253 233.704 0.000360892 274.954-20.6247 233.704Z" fill="#0070C0" transform="matrix(1 0 0 -1 1389 1986.95)"/><path d="M1456.59 1707.29 1493.14 1707.29 1493.14 1709.23 1465.42 1758.88 1480.05 1758.88C1481.86 1758.88 1483.21 1758.71 1484.09 1758.37 1484.96 1758.04 1485.69 1757.51 1486.25 1756.79 1486.82 1756.08 1487.33 1755.07 1487.79 1753.77 1488.25 1752.48 1488.81 1750.46 1489.46 1747.73L1493.43 1747.73 1493.43 1762.61 1455.98 1762.61 1455.98 1760.62 1483.74 1711.02 1469.03 1711.02C1467.98 1711.02 1467.14 1711.1 1466.54 1711.28 1465.93 1711.46 1465.38 1711.73 1464.9 1712.09 1464.41 1712.46 1463.93 1712.99 1463.46 1713.69 1462.98 1714.39 1462.51 1715.36 1462.04 1716.59 1461.57 1717.82 1461.07 1719.35 1460.56 1721.19L1456.59 1721.19Z" fill-rule="evenodd"/><text fill="#000000" fill-opacity="0" font-family="Arial,Arial_MSFontService,sans-serif" font-size="55.3198" x="1455.98" y="1755.69">Z</text><path d="M1514.49 1741.09 1516.3 1741.09C1516.26 1742.18 1516.23 1743.16 1516.21 1744.02 1516.2 1744.89 1516.18 1745.73 1516.17 1746.54 1516.16 1747.35 1516.16 1748.16 1516.16 1748.95L1516.16 1771.59C1516.16 1772.2 1516.18 1772.74 1516.21 1773.18 1516.25 1773.63 1516.32 1774.01 1516.41 1774.31 1516.5 1774.62 1516.62 1774.88 1516.77 1775.1 1516.91 1775.32 1517.09 1775.51 1517.29 1775.67 1517.53 1775.91 1517.84 1776.09 1518.24 1776.22 1518.64 1776.35 1519.14 1776.46 1519.76 1776.55 1520.38 1776.64 1521.11 1776.71 1521.98 1776.76 1522.84 1776.81 1523.88 1776.84 1525.09 1776.86L1525.09 1779.45 1501.47 1779.45 1501.47 1776.86C1502.64 1776.82 1503.64 1776.78 1504.45 1776.73 1505.26 1776.68 1505.96 1776.61 1506.53 1776.52 1507.11 1776.43 1507.57 1776.33 1507.92 1776.22 1508.27 1776.11 1508.57 1775.98 1508.83 1775.82 1509.11 1775.64 1509.34 1775.45 1509.54 1775.24 1509.74 1775.03 1509.9 1774.77 1510.02 1774.45 1510.14 1774.13 1510.23 1773.74 1510.3 1773.29 1510.37 1772.83 1510.41 1772.26 1510.41 1771.59L1510.41 1750.23C1510.41 1749.46 1510.26 1748.91 1509.96 1748.59 1509.66 1748.28 1509.24 1748.12 1508.68 1748.12 1508.06 1748.12 1507.15 1748.44 1505.94 1749.07 1504.73 1749.71 1503.16 1750.65 1501.23 1751.9 1500.97 1751.44 1500.74 1750.99 1500.52 1750.53 1500.3 1750.07 1500.07 1749.61 1499.83 1749.13 1502.3 1747.78 1504.73 1746.43 1507.15 1745.09 1509.56 1743.75 1512.01 1742.42 1514.49 1741.09Z" fill-rule="evenodd"/><text fill="#000000" fill-opacity="0" font-family="Arial,Arial_MSFontService,sans-serif" font-size="38.3633" x="1499.83" y="1774.66">1</text><path d="M1271.5 1734 1306 1699.5 1340.5 1734 1323.25 1734 1323.25 1957.5 1288.75 1957.5 1288.75 1734Z" stroke="#042433" stroke-width="6.875" stroke-miterlimit="8" fill="#156082" fill-rule="evenodd"/><path d="M1201.73 1788.71C1198.27 1788.71 1195.64 1790.09 1193.82 1792.86 1192.01 1795.63 1191.11 1799.61 1191.11 1804.8 1191.11 1809.98 1191.85 1813.93 1193.34 1816.63 1194.82 1819.33 1197.08 1820.68 1200.11 1820.68 1201.3 1820.68 1202.28 1820.58 1203.07 1820.38 1203.85 1820.18 1204.62 1819.85 1205.38 1819.41 1206.13 1818.96 1206.9 1818.35 1207.69 1817.56 1208.47 1816.78 1209.04 1816.06 1209.41 1815.41 1209.77 1814.77 1210.05 1814.02 1210.24 1813.19 1210.43 1812.35 1210.52 1811.27 1210.52 1809.94L1210.52 1800.87C1210.52 1798.76 1210.43 1797.07 1210.24 1795.8 1210.05 1794.53 1209.73 1793.46 1209.29 1792.6 1208.84 1791.73 1208.24 1791 1207.48 1790.41 1206.73 1789.81 1205.9 1789.38 1204.99 1789.11 1204.08 1788.84 1203 1788.71 1201.73 1788.71ZM1215.1 1766.9 1217.49 1766.9 1217.49 1813.83C1217.49 1815.94 1217.53 1817.45 1217.61 1818.35 1217.7 1819.26 1217.87 1819.98 1218.14 1820.52 1218.41 1821.06 1218.84 1821.5 1219.42 1821.84 1220 1822.18 1221.02 1822.49 1222.48 1822.79L1222.48 1824.9 1212.91 1825.3 1210.48 1825.3 1210.97 1818.66 1210.36 1818.49C1208.66 1820.3 1207.18 1821.66 1205.92 1822.57 1204.67 1823.47 1203.33 1824.2 1201.91 1824.74 1200.49 1825.28 1198.97 1825.55 1197.35 1825.55 1192.92 1825.55 1189.5 1823.86 1187.1 1820.5 1184.69 1817.14 1183.49 1812.28 1183.49 1805.93 1183.49 1801.5 1184.27 1797.74 1185.84 1794.64 1187.41 1791.55 1189.52 1789.25 1192.18 1787.73 1194.84 1786.22 1197.84 1785.46 1201.16 1785.46 1202.94 1785.46 1204.56 1785.61 1206.02 1785.89 1207.48 1786.17 1208.98 1786.64 1210.52 1787.29L1210.52 1780.84C1210.52 1778.25 1210.5 1776.44 1210.46 1775.41 1210.42 1774.39 1210.31 1773.52 1210.14 1772.8 1209.96 1772.08 1209.72 1771.52 1209.41 1771.12 1209.1 1770.71 1208.68 1770.39 1208.15 1770.15 1207.62 1769.9 1206.67 1769.66 1205.29 1769.42L1205.29 1767.31Z" fill-rule="evenodd"/><text fill="#000000" fill-opacity="0" font-family="Arial,Arial_MSFontService,sans-serif" font-size="58.6431" x="1183.49" y="1818.22">d</text><path d="M1242.85 1803.17C1244.92 1803.17 1246.68 1803.4 1248.14 1803.87 1249.6 1804.34 1250.78 1804.97 1251.7 1805.76 1252.61 1806.56 1253.27 1807.51 1253.68 1808.62 1254.08 1809.73 1254.29 1810.93 1254.29 1812.22 1254.29 1813 1254.23 1813.72 1254.12 1814.38 1254.01 1815.05 1253.83 1815.7 1253.56 1816.35 1253.29 1817 1252.94 1817.65 1252.5 1818.3 1252.06 1818.96 1251.52 1819.65 1250.86 1820.39 1250.37 1821.02 1249.72 1821.76 1248.93 1822.59 1248.13 1823.42 1247.26 1824.32 1246.32 1825.27 1245.38 1826.22 1244.39 1827.22 1243.36 1828.25 1242.32 1829.28 1241.32 1830.3 1240.35 1831.32 1239.38 1832.33 1238.48 1833.31 1237.67 1834.27 1236.85 1835.22 1236.19 1836.09 1235.67 1836.89L1246.69 1836.89C1247.63 1836.89 1248.37 1836.85 1248.93 1836.78 1249.48 1836.71 1249.94 1836.56 1250.31 1836.32 1250.68 1836.08 1250.99 1835.72 1251.25 1835.23 1251.51 1834.75 1251.81 1834.08 1252.14 1833.22L1254.91 1833.22C1254.81 1834.63 1254.72 1836.05 1254.63 1837.48 1254.54 1838.91 1254.45 1840.33 1254.35 1841.74L1229.12 1841.74 1229.12 1840.19C1229.6 1839.12 1230.15 1838.06 1230.79 1837.02 1231.42 1835.98 1232.14 1834.92 1232.93 1833.85 1233.73 1832.78 1234.63 1831.67 1235.64 1830.53 1236.65 1829.39 1237.78 1828.2 1239.01 1826.97 1240.87 1825.1 1242.39 1823.51 1243.56 1822.19 1244.74 1820.87 1245.66 1819.69 1246.33 1818.66 1247.01 1817.63 1247.47 1816.67 1247.72 1815.8 1247.97 1814.93 1248.09 1813.99 1248.09 1813 1248.09 1811.99 1247.95 1811.05 1247.66 1810.2 1247.37 1809.35 1246.96 1808.62 1246.42 1808.03 1245.89 1807.43 1245.21 1806.96 1244.38 1806.63 1243.56 1806.29 1242.61 1806.12 1241.54 1806.12 1239.69 1806.12 1238.14 1806.62 1236.89 1807.62 1235.64 1808.63 1234.67 1810.08 1233.97 1811.99L1230.07 1811.99 1230.07 1806.18C1232.61 1805.13 1234.95 1804.36 1237.09 1803.88 1239.22 1803.41 1241.14 1803.17 1242.85 1803.17Z" fill-rule="evenodd"/><text fill="#000000" fill-opacity="0" font-family="Arial,Arial_MSFontService,sans-serif" font-size="38.5718" x="1229.12" y="1836.92">2</text></g></svg>