<svg width="1266" height="2091" xmlns="http://www.w3.org/2000/svg" xmlns:xlink="http://www.w3.org/1999/xlink" xml:space="preserve" overflow="hidden"><g transform="translate(-362 -1095)"><path d="M1232.19 2162.33 764.5 2156.5" stroke="#000000" stroke-width="6.875" stroke-miterlimit="8" stroke-dasharray="55 20.625" fill="none" fill-rule="evenodd"/><path d="M6.87502 34.375 6.87534 623.788-6.87466 623.788-6.87498 34.375ZM-20.625 41.25 0 0 20.625 41.25ZM20.6253 616.913 0.000360892 658.163-20.6247 616.913Z" transform="matrix(1 0 0 -1 732 2159.16)"/><path d="M0 0 479.481 0.000360892" stroke="#000000" stroke-width="6.875" stroke-miterlimit="8" stroke-dasharray="55 20.625" fill="none" fill-rule="evenodd" transform="matrix(-1 0 0 1 1205.98 1503.5)"/><rect x="858.5" y="2966.5" width="696" height="216" stroke="#042433" stroke-width="6.875" stroke-miterlimit="8" fill="#D9F2D0"/><rect x="1134.5" y="2310.5" width="124" height="490" stroke="#042433" stroke-width="6.875" stroke-miterlimit="8" fill="#BFBFBF"/><rect x="1138.5" y="1561.5" width="124" height="490" stroke="#042433" stroke-width="6.875" stroke-miterlimit="8" fill="#BFBFBF"/><path d="M1038.5 2954.5C1038.5 2863.37 1112.37 2789.5 1203.5 2789.5 1294.63 2789.5 1368.5 2863.37 1368.5 2954.5 1368.5 3045.63 1294.63 3119.5 1203.5 3119.5 1112.37 3119.5 1038.5 3045.63 1038.5 2954.5Z" stroke="#042433" stroke-width="6.875" stroke-miterlimit="8" fill="#96DCF8" fill-rule="evenodd"/><path d="M1038.5 2156.5C1038.5 2065.37 1112.37 1991.5 1203.5 1991.5 1294.63 1991.5 1368.5 2065.37 1368.5 2156.5 1368.5 2247.63 1294.63 2321.5 1203.5 2321.5 1112.37 2321.5 1038.5 2247.63 1038.5 2156.5Z" stroke="#042433" stroke-width="6.875" stroke-miterlimit="8" fill="#96DCF8" fill-rule="evenodd"/><path d="M1107.43 2043.03 1147.95 2043.03 1147.95 2045.19 1117.22 2100.22 1133.44 2100.22C1135.45 2100.22 1136.94 2100.03 1137.91 2099.66 1138.88 2099.28 1139.68 2098.7 1140.31 2097.9 1140.94 2097.11 1141.51 2096 1142.02 2094.56 1142.53 2093.12 1143.14 2090.89 1143.86 2087.86L1148.26 2087.86 1148.26 2104.35 1106.76 2104.35 1106.76 2102.15 1137.53 2047.17 1121.22 2047.17C1120.05 2047.17 1119.13 2047.26 1118.46 2047.46 1117.79 2047.65 1117.18 2047.95 1116.64 2048.36 1116.1 2048.76 1115.57 2049.35 1115.04 2050.13 1114.52 2050.91 1114 2051.98 1113.47 2053.34 1112.95 2054.7 1112.4 2056.4 1111.83 2058.44L1107.43 2058.44Z" fill-rule="evenodd"/><text fill="#000000" fill-opacity="0" font-family="Arial,Arial_MSFontService,sans-serif" font-size="61.3184" x="1106.76" y="2096.69">Z</text><path d="M1171.76 2080.91 1173.75 2080.91C1173.71 2082.11 1173.68 2083.19 1173.65 2084.14 1173.63 2085.08 1173.62 2086.01 1173.6 2086.9 1173.59 2087.79 1173.59 2088.68 1173.59 2089.55L1173.59 2114.41C1173.59 2115.09 1173.61 2115.67 1173.65 2116.16 1173.7 2116.65 1173.77 2117.07 1173.87 2117.41 1173.96 2117.75 1174.1 2118.03 1174.26 2118.27 1174.42 2118.51 1174.61 2118.72 1174.83 2118.9 1175.09 2119.16 1175.44 2119.36 1175.88 2119.5 1176.31 2119.64 1176.87 2119.76 1177.55 2119.86 1178.22 2119.96 1179.04 2120.04 1179.98 2120.09 1180.93 2120.14 1182.07 2120.18 1183.4 2120.2L1183.4 2123.05 1157.46 2123.05 1157.46 2120.2C1158.75 2120.16 1159.84 2120.11 1160.73 2120.06 1161.63 2120 1162.39 2119.93 1163.02 2119.83 1163.65 2119.73 1164.16 2119.62 1164.54 2119.5 1164.92 2119.38 1165.26 2119.23 1165.54 2119.06 1165.85 2118.86 1166.11 2118.65 1166.33 2118.42 1166.54 2118.19 1166.72 2117.9 1166.85 2117.55 1166.98 2117.21 1167.08 2116.78 1167.16 2116.28 1167.24 2115.78 1167.27 2115.16 1167.27 2114.41L1167.27 2090.96C1167.27 2090.11 1167.11 2089.51 1166.78 2089.16 1166.46 2088.81 1165.99 2088.63 1165.38 2088.63 1164.7 2088.63 1163.7 2088.98 1162.37 2089.68 1161.04 2090.38 1159.31 2091.42 1157.2 2092.79 1156.91 2092.29 1156.65 2091.79 1156.41 2091.28 1156.17 2090.78 1155.92 2090.27 1155.66 2089.75 1158.36 2088.26 1161.04 2086.79 1163.69 2085.31 1166.34 2083.84 1169.03 2082.38 1171.76 2080.91Z" fill-rule="evenodd"/><text fill="#000000" fill-opacity="0" font-family="Arial,Arial_MSFontService,sans-serif" font-size="42.1367" x="1155.66" y="2117.78">1</text><path d="M1200 2193C1182.88 2193 1169 2178.9 1169 2161.5 1169 2144.1 1182.88 2130 1200 2130 1217.12 2130 1231 2144.1 1231 2161.5 1231 2178.9 1217.12 2193 1200 2193Z" stroke="#0070C0" stroke-width="10.3125" stroke-miterlimit="8" fill="#FFFFFF" fill-rule="evenodd"/><path d="M1200.5 2170.5C1196.08 2170.5 1192.5 2166.69 1192.5 2162 1192.5 2157.31 1196.08 2153.5 1200.5 2153.5 1204.92 2153.5 1208.5 2157.31 1208.5 2162 1208.5 2166.69 1204.92 2170.5 1200.5 2170.5Z" stroke="#0070C0" stroke-width="1.14583" stroke-miterlimit="8" fill="#0070C0" fill-rule="evenodd"/><path d="M6.87502 34.3753 6.87535 765.709-6.87465 765.709-6.87498 34.3753ZM-20.625 41.25 0 0 20.625 41.25ZM20.6253 758.834 0.000360892 800.084-20.6247 758.834Z" transform="matrix(1 0 0 -1 732 2959.08)"/><path d="M1200.19 2965.33 732.5 2959.5" stroke="#000000" stroke-width="6.875" stroke-miterlimit="8" stroke-dasharray="55 20.625" fill="none" fill-rule="evenodd"/><text font-family="Aptos,Aptos_MSFontService,sans-serif" font-weight="400" font-size="92" transform="matrix(1 0 0 1 432.479 2583)">0.35 m</text><path d="M1265.74 2885.09 1269.11 2885.09C1269.71 2887.85 1271.34 2889.23 1274 2889.23L1276.7 2889.23C1278.26 2889.23 1279.36 2888.92 1280.02 2888.31 1280.68 2887.69 1281.19 2886.62 1281.55 2885.09L1284.87 2885.09 1284.87 2899.02 1281.55 2899.02C1280.89 2896.33 1279.42 2894.98 1277.15 2894.98L1273.46 2894.98C1272.18 2894.98 1271.24 2895.25 1270.66 2895.81 1270.07 2896.36 1269.56 2897.43 1269.11 2899.02L1265.74 2899.02ZM1275.26 2864.97C1264.87 2864.97 1259.67 2873.86 1259.67 2891.65 1259.67 2900.85 1261.03 2907.84 1263.74 2912.63 1266.45 2917.42 1270.41 2919.82 1275.62 2919.82 1280.65 2919.82 1284.46 2917.48 1287.05 2912.79 1289.64 2908.1 1290.94 2901.67 1290.94 2893.5 1290.94 2884.24 1289.58 2877.17 1286.87 2872.29 1284.16 2867.41 1280.29 2864.97 1275.26 2864.97ZM1275.58 2861.02C1283.54 2861.02 1289.61 2863.64 1293.77 2868.9 1297.93 2874.16 1300.01 2881.73 1300.01 2891.61 1300.01 2901.91 1297.77 2909.85 1293.3 2915.42 1288.82 2920.99 1282.6 2923.77 1274.63 2923.77 1266.79 2923.77 1260.82 2921.14 1256.73 2915.87 1252.64 2910.6 1250.6 2902.94 1250.6 2892.91 1250.6 2882.79 1252.87 2874.94 1257.4 2869.37 1261.94 2863.8 1268 2861.02 1275.58 2861.02Z" fill-rule="evenodd"/><text fill="#000000" fill-opacity="0" font-family="Arial,Arial_MSFontService,sans-serif" font-size="62.7559" x="1250.6" y="2915.93">Θ</text><path d="M1325.36 2899.62 1327.36 2899.62C1327.31 2900.82 1327.28 2901.89 1327.26 2902.84 1327.24 2903.79 1327.22 2904.71 1327.21 2905.6 1327.2 2906.5 1327.19 2907.38 1327.19 2908.25L1327.19 2933.12C1327.19 2933.79 1327.21 2934.38 1327.26 2934.87 1327.3 2935.36 1327.37 2935.77 1327.47 2936.11 1327.57 2936.45 1327.7 2936.74 1327.86 2936.98 1328.03 2937.22 1328.22 2937.42 1328.44 2937.6 1328.7 2937.86 1329.05 2938.06 1329.48 2938.2 1329.92 2938.35 1330.48 2938.47 1331.15 2938.56 1331.83 2938.66 1332.64 2938.74 1333.59 2938.79 1334.54 2938.85 1335.68 2938.89 1337.01 2938.91L1337.01 2941.75 1311.06 2941.75 1311.06 2938.91C1312.35 2938.86 1313.44 2938.82 1314.34 2938.76 1315.23 2938.71 1315.99 2938.63 1316.63 2938.53 1317.26 2938.43 1317.77 2938.32 1318.15 2938.2 1318.53 2938.08 1318.86 2937.94 1319.15 2937.76 1319.45 2937.57 1319.71 2937.35 1319.93 2937.12 1320.15 2936.9 1320.32 2936.61 1320.45 2936.26 1320.58 2935.91 1320.69 2935.48 1320.76 2934.98 1320.84 2934.48 1320.88 2933.86 1320.88 2933.12L1320.88 2909.66C1320.88 2908.81 1320.72 2908.21 1320.39 2907.86 1320.06 2907.51 1319.59 2907.34 1318.98 2907.34 1318.31 2907.34 1317.3 2907.69 1315.97 2908.39 1314.64 2909.08 1312.92 2910.12 1310.8 2911.49 1310.52 2910.99 1310.26 2910.49 1310.02 2909.99 1309.78 2909.49 1309.53 2908.97 1309.27 2908.45 1311.97 2906.97 1314.65 2905.49 1317.3 2904.02 1319.95 2902.55 1322.63 2901.08 1325.36 2899.62Z" fill-rule="evenodd"/><text fill="#000000" fill-opacity="0" font-family="Arial,Arial_MSFontService,sans-serif" font-size="42.1367" x="1309.27" y="2936.49">1</text><path d="M21.3093 118.752C8.87089 78.1606 29.9891 34.621 68.4782 21.5032 106.967 8.38548 148.252 30.6571 160.691 71.2482 160.805 71.6221 160.917 71.9969 161.026 72.3727L178.579 71.1766 157.564 90.4645 130.094 74.4801 147.613 73.2864C136.369 39.9411 101.907 22.6308 70.6401 34.6228 40.1646 46.3114 23.8337 81.6309 33.6922 114.531Z" stroke="#042433" stroke-width="6.875" stroke-miterlimit="8" fill="#156082" fill-rule="evenodd" transform="matrix(1 -1.22465e-16 -1.22465e-16 -1 1119.5 3060.5)"/><path d="M1280.55 2100.73 1283.92 2100.73C1284.52 2103.48 1286.15 2104.86 1288.82 2104.86L1291.51 2104.86C1293.07 2104.86 1294.18 2104.56 1294.84 2103.94 1295.5 2103.33 1296.01 2102.26 1296.37 2100.73L1299.69 2100.73 1299.69 2114.66 1296.37 2114.66C1295.71 2111.96 1294.24 2110.61 1291.96 2110.61L1288.28 2110.61C1286.99 2110.61 1286.06 2110.89 1285.47 2111.44 1284.89 2112 1284.37 2113.07 1283.92 2114.66L1280.55 2114.66ZM1290.08 2080.6C1279.69 2080.6 1274.49 2089.5 1274.49 2107.29 1274.49 2116.48 1275.84 2123.47 1278.55 2128.27 1281.27 2133.06 1285.23 2135.45 1290.44 2135.45 1295.47 2135.45 1299.28 2133.11 1301.87 2128.42 1304.46 2123.74 1305.76 2117.31 1305.76 2109.13 1305.76 2099.88 1304.4 2092.81 1301.69 2087.93 1298.98 2083.05 1295.11 2080.6 1290.08 2080.6ZM1290.39 2076.65C1298.36 2076.65 1304.42 2079.28 1308.59 2084.54 1312.75 2089.79 1314.83 2097.36 1314.83 2107.24 1314.83 2117.55 1312.59 2125.48 1308.11 2131.05 1303.64 2136.62 1297.41 2139.41 1289.45 2139.41 1281.6 2139.41 1275.63 2136.77 1271.55 2131.5 1267.46 2126.23 1265.42 2118.58 1265.42 2108.55 1265.42 2098.42 1267.68 2090.58 1272.22 2085.01 1276.76 2079.44 1282.81 2076.65 1290.39 2076.65Z" fill-rule="evenodd"/><text fill="#000000" fill-opacity="0" font-family="Arial,Arial_MSFontService,sans-serif" font-size="62.7559" x="1265.42" y="2131.56">Θ</text><path d="M1339.76 2115.02C1342.02 2115.02 1343.96 2115.28 1345.56 2115.79 1347.17 2116.3 1348.47 2117 1349.47 2117.87 1350.48 2118.74 1351.2 2119.79 1351.65 2121.01 1352.1 2122.23 1352.32 2123.55 1352.32 2124.97 1352.32 2125.82 1352.26 2126.61 1352.14 2127.34 1352.02 2128.07 1351.81 2128.79 1351.52 2129.5 1351.22 2130.21 1350.84 2130.92 1350.36 2131.64 1349.88 2132.36 1349.28 2133.12 1348.56 2133.93 1348.01 2134.63 1347.3 2135.44 1346.43 2136.35 1345.56 2137.27 1344.6 2138.25 1343.57 2139.3 1342.53 2140.34 1341.45 2141.43 1340.31 2142.57 1339.18 2143.7 1338.08 2144.83 1337.01 2145.94 1335.94 2147.05 1334.96 2148.13 1334.06 2149.18 1333.17 2150.22 1332.44 2151.18 1331.87 2152.06L1343.98 2152.06C1345 2152.06 1345.82 2152.02 1346.43 2151.94 1347.04 2151.86 1347.55 2151.7 1347.95 2151.43 1348.35 2151.17 1348.7 2150.77 1348.98 2150.24 1349.27 2149.71 1349.59 2148.97 1349.96 2148.03L1353.01 2148.03C1352.9 2149.58 1352.79 2151.14 1352.7 2152.71 1352.6 2154.28 1352.49 2155.84 1352.38 2157.39L1324.67 2157.39 1324.67 2155.69C1325.2 2154.51 1325.81 2153.35 1326.51 2152.2 1327.2 2151.06 1327.99 2149.9 1328.86 2148.72 1329.73 2147.54 1330.73 2146.33 1331.84 2145.07 1332.95 2143.82 1334.18 2142.51 1335.54 2141.16 1337.59 2139.11 1339.25 2137.36 1340.54 2135.91 1341.83 2134.46 1342.84 2133.17 1343.58 2132.03 1344.33 2130.9 1344.83 2129.85 1345.11 2128.89 1345.38 2127.93 1345.51 2126.91 1345.51 2125.82 1345.51 2124.71 1345.36 2123.68 1345.04 2122.74 1344.72 2121.81 1344.27 2121.01 1343.68 2120.36 1343.09 2119.7 1342.35 2119.19 1341.44 2118.82 1340.54 2118.45 1339.49 2118.26 1338.32 2118.26 1336.29 2118.26 1334.59 2118.81 1333.21 2119.91 1331.84 2121.01 1330.77 2122.61 1330.01 2124.71L1325.72 2124.71 1325.72 2118.33C1328.51 2117.17 1331.08 2116.33 1333.43 2115.81 1335.77 2115.28 1337.88 2115.02 1339.76 2115.02Z" fill-rule="evenodd"/><text fill="#000000" fill-opacity="0" font-family="Arial,Arial_MSFontService,sans-serif" font-size="42.3657" x="1324.67" y="2152.09">2</text><path d="M21.5151 118.352C8.85758 78.1258 29.93 34.8371 68.5816 21.664 107.233 8.49089 148.828 30.4217 161.485 70.6479 161.603 71.0242 161.719 71.4014 161.832 71.7796L179.469 70.578 158.426 89.94 130.717 73.8998 148.316 72.7005C136.846 39.7657 102.109 22.8267 70.7305 34.8662 40.1584 46.5962 23.9109 81.6145 33.9639 114.109Z" stroke="#042433" stroke-width="6.875" stroke-miterlimit="8" fill="#156082" fill-rule="evenodd" transform="matrix(1 -1.22465e-16 -1.22465e-16 -1 1114.5 2250.5)"/><path d="M1242 2952.12 1404.32 2952.13 1404.32 2965.88 1242 2965.88ZM1397.44 2938.38 1438.69 2959 1397.44 2979.63Z" fill="#FF0000"/><path d="M6.875-8.10369e-06 6.87532 271.799-6.87468 271.799-6.875 8.10369e-06ZM20.6253 264.923 0.000360892 306.174-20.6247 264.924Z" fill="#4EA72E" transform="matrix(1 0 0 -1 1208 2924.17)"/><path d="M1082.57 2850.61 1123.09 2850.61 1123.09 2852.76 1092.36 2907.79 1108.58 2907.79C1110.59 2907.79 1112.08 2907.6 1113.05 2907.23 1114.02 2906.86 1114.82 2906.27 1115.45 2905.48 1116.08 2904.68 1116.65 2903.57 1117.16 2902.13 1117.67 2900.69 1118.28 2898.46 1119 2895.44L1123.4 2895.44 1123.4 2911.92 1081.9 2911.92 1081.9 2909.72 1112.67 2854.74 1096.36 2854.74C1095.19 2854.74 1094.27 2854.84 1093.6 2855.03 1092.93 2855.23 1092.32 2855.52 1091.78 2855.93 1091.24 2856.33 1090.71 2856.92 1090.19 2857.7 1089.66 2858.48 1089.14 2859.55 1088.61 2860.92 1088.09 2862.28 1087.54 2863.98 1086.97 2866.01L1082.57 2866.01Z" fill-rule="evenodd"/><text fill="#000000" fill-opacity="0" font-family="Arial,Arial_MSFontService,sans-serif" font-size="61.3184" x="1081.9" y="2904.26">Z</text><path d="M1146.35 2891.43C1144.82 2891.43 1143.54 2891.83 1142.52 2892.63 1141.49 2893.42 1140.68 2894.59 1140.08 2896.13 1139.48 2897.66 1139.06 2899.54 1138.8 2901.75 1138.55 2903.97 1138.43 2906.48 1138.43 2909.29 1138.43 2912.54 1138.59 2915.35 1138.9 2917.72 1139.22 2920.08 1139.71 2922.03 1140.37 2923.56 1141.04 2925.08 1141.87 2926.21 1142.88 2926.93 1143.88 2927.65 1145.08 2928.01 1146.48 2928.01 1147.78 2928.01 1148.93 2927.67 1149.91 2926.99 1150.89 2926.32 1151.7 2925.26 1152.35 2923.84 1152.99 2922.41 1153.48 2920.6 1153.8 2918.41 1154.13 2916.21 1154.29 2913.62 1154.29 2910.64 1154.29 2907.28 1154.11 2904.39 1153.76 2901.97 1153.4 2899.54 1152.89 2897.55 1152.23 2896 1151.58 2894.44 1150.76 2893.29 1149.76 2892.54 1148.77 2891.8 1147.63 2891.43 1146.35 2891.43ZM1146.48 2888.26C1149.07 2888.26 1151.29 2888.74 1153.13 2889.71 1154.98 2890.68 1156.48 2892.07 1157.65 2893.87 1158.81 2895.67 1159.67 2897.87 1160.22 2900.46 1160.76 2903.06 1161.03 2905.99 1161.03 2909.26 1161.03 2916.52 1159.75 2922.01 1157.17 2925.73 1154.6 2929.45 1150.87 2931.31 1145.99 2931.31 1141.14 2931.31 1137.54 2929.56 1135.19 2926.04 1132.83 2922.53 1131.66 2917.21 1131.66 2910.08 1131.66 2906.35 1132.02 2903.12 1132.75 2900.4 1133.48 2897.67 1134.51 2895.41 1135.83 2893.61 1137.15 2891.81 1138.71 2890.47 1140.52 2889.58 1142.33 2888.7 1144.32 2888.26 1146.48 2888.26Z" fill-rule="evenodd"/><text fill="#000000" fill-opacity="0" font-family="Arial,Arial_MSFontService,sans-serif" font-size="43.0527" x="1131.66" y="2925.93">0</text><path d="M1175 2959C1175 2941.88 1188.88 2928 1206 2928 1223.12 2928 1237 2941.88 1237 2959 1237 2976.12 1223.12 2990 1206 2990 1188.88 2990 1175 2976.12 1175 2959Z" stroke="#0070C0" stroke-width="10.3125" stroke-miterlimit="8" fill="#FFFFFF" fill-rule="evenodd"/><path d="M1198.5 2959.5C1198.5 2955.08 1202.08 2951.5 1206.5 2951.5 1210.92 2951.5 1214.5 2955.08 1214.5 2959.5 1214.5 2963.92 1210.92 2967.5 1206.5 2967.5 1202.08 2967.5 1198.5 2963.92 1198.5 2959.5Z" stroke="#0070C0" stroke-width="1.14583" stroke-miterlimit="8" fill="#0070C0" fill-rule="evenodd"/><path d="M1271.23 2599.08 1288.49 2599.08 1288.49 2601.07C1285.95 2601.37 1284.68 2602.46 1284.68 2604.35 1284.68 2605.13 1284.87 2606.01 1285.23 2606.99 1285.6 2607.96 1286.25 2609.34 1287.2 2611.12L1295.3 2626.56 1303.29 2612.46C1304.37 2610.54 1305.13 2608.96 1305.58 2607.74 1306.02 2606.51 1306.24 2605.38 1306.24 2604.35 1306.24 2603.38 1305.95 2602.62 1305.37 2602.06 1304.79 2601.51 1303.93 2601.18 1302.8 2601.07L1302.8 2599.08 1318.16 2599.08 1318.16 2601.07C1317.05 2601.47 1316.08 2602.03 1315.24 2602.75 1314.4 2603.47 1313.55 2604.43 1312.69 2605.65 1311.82 2606.86 1310.55 2608.92 1308.88 2611.81L1297.61 2631.02 1297.61 2644.15C1297.61 2645.69 1297.69 2646.93 1297.86 2647.88 1298.02 2648.82 1298.29 2649.58 1298.67 2650.15 1299.04 2650.71 1299.54 2651.16 1300.17 2651.48 1300.79 2651.81 1301.76 2652.12 1303.08 2652.42L1303.08 2654.4 1284.56 2654.4 1284.56 2652.42C1285.86 2652.15 1286.82 2651.86 1287.44 2651.55 1288.06 2651.23 1288.56 2650.79 1288.94 2650.21 1289.32 2649.63 1289.59 2648.86 1289.77 2647.92 1289.95 2646.97 1290.03 2645.72 1290.03 2644.15L1290.03 2631.18 1278.85 2610.39C1277.5 2607.88 1276.47 2606.08 1275.77 2605 1275.07 2603.92 1274.36 2603.07 1273.66 2602.45 1272.96 2601.83 1272.15 2601.37 1271.23 2601.07Z" fill-rule="evenodd"/><text fill="#000000" fill-opacity="0" font-family="Arial,Arial_MSFontService,sans-serif" font-size="55.3198" x="1271.23" y="2647.49">Y</text><path d="M1329.09 2635.56C1327.7 2635.56 1326.54 2635.93 1325.61 2636.65 1324.67 2637.38 1323.93 2638.44 1323.39 2639.84 1322.84 2641.24 1322.45 2642.95 1322.23 2644.96 1322 2646.98 1321.88 2649.26 1321.88 2651.83 1321.88 2654.79 1322.03 2657.34 1322.32 2659.5 1322.6 2661.65 1323.05 2663.42 1323.66 2664.81 1324.26 2666.2 1325.02 2667.23 1325.93 2667.88 1326.85 2668.54 1327.94 2668.86 1329.21 2668.86 1330.4 2668.86 1331.44 2668.56 1332.34 2667.94 1333.23 2667.32 1333.97 2666.37 1334.56 2665.07 1335.14 2663.77 1335.58 2662.12 1335.88 2660.12 1336.18 2658.13 1336.33 2655.77 1336.33 2653.05 1336.33 2649.99 1336.17 2647.36 1335.84 2645.15 1335.51 2642.95 1335.05 2641.14 1334.45 2639.72 1333.86 2638.3 1333.11 2637.25 1332.2 2636.58 1331.3 2635.9 1330.26 2635.56 1329.09 2635.56ZM1329.21 2632.67C1331.57 2632.67 1333.59 2633.12 1335.27 2634 1336.95 2634.88 1338.32 2636.14 1339.38 2637.78 1340.44 2639.42 1341.22 2641.42 1341.72 2643.78 1342.22 2646.15 1342.47 2648.82 1342.47 2651.8 1342.47 2658.41 1341.29 2663.41 1338.95 2666.79 1336.61 2670.18 1333.21 2671.87 1328.76 2671.87 1324.36 2671.87 1321.08 2670.27 1318.93 2667.08 1316.79 2663.88 1315.72 2659.03 1315.72 2652.54 1315.72 2649.15 1316.05 2646.21 1316.72 2643.72 1317.38 2641.24 1318.31 2639.18 1319.52 2637.54 1320.72 2635.91 1322.14 2634.69 1323.79 2633.88 1325.44 2633.08 1327.24 2632.67 1329.21 2632.67Z" fill-rule="evenodd"/><text fill="#000000" fill-opacity="0" font-family="Arial,Arial_MSFontService,sans-serif" font-size="39.1973" x="1315.72" y="2666.97">0</text><path d="M1451.11 2884.58 1468.37 2884.58 1468.37 2886.57C1467.08 2886.76 1466.14 2887.11 1465.58 2887.62 1465.01 2888.14 1464.73 2888.84 1464.73 2889.73 1464.73 2890.49 1464.98 2891.43 1465.5 2892.57 1466.01 2893.7 1466.74 2895.05 1467.68 2896.62L1473.56 2906.47 1479.36 2897.11C1480.22 2895.7 1480.87 2894.58 1481.3 2893.74 1481.73 2892.91 1482.04 2892.2 1482.21 2891.64 1482.39 2891.07 1482.48 2890.49 1482.48 2889.89 1482.48 2889.06 1482.23 2888.35 1481.75 2887.77 1481.26 2887.18 1480.45 2886.79 1479.32 2886.57L1479.32 2884.58 1494.35 2884.58 1494.35 2886.57C1493.35 2886.89 1492.45 2887.37 1491.66 2887.99 1490.86 2888.61 1490.01 2889.52 1489.1 2890.7 1488.2 2891.89 1486.91 2893.77 1485.23 2896.34L1476.07 2910.52 1486.37 2927.46C1487.83 2929.87 1488.87 2931.55 1489.51 2932.51 1490.14 2933.47 1490.74 2934.28 1491.29 2934.94 1491.85 2935.6 1492.44 2936.18 1493.08 2936.66 1493.71 2937.15 1494.5 2937.57 1495.45 2937.92L1495.45 2939.9 1477.65 2939.9 1477.65 2937.92C1478.9 2937.7 1479.82 2937.36 1480.41 2936.88 1481 2936.41 1481.3 2935.7 1481.3 2934.76 1481.3 2934 1481.11 2933.16 1480.71 2932.24 1480.32 2931.33 1479.72 2930.19 1478.91 2928.84L1471.58 2916.6 1463.83 2929.29C1462.54 2931.42 1461.89 2933.18 1461.89 2934.55 1461.89 2935.45 1462.13 2936.18 1462.62 2936.74 1463.11 2937.31 1463.92 2937.7 1465.05 2937.92L1465.05 2939.9 1449.73 2939.9 1449.73 2937.92C1450.73 2937.62 1451.55 2937.26 1452.2 2936.84 1452.85 2936.43 1453.47 2935.89 1454.07 2935.24 1454.66 2934.59 1455.32 2933.77 1456.05 2932.77 1456.78 2931.77 1457.94 2930.03 1459.54 2927.54L1469.1 2912.63 1457.67 2893.82C1456.59 2892.1 1455.78 2890.84 1455.22 2890.06 1454.67 2889.27 1454.16 2888.64 1453.68 2888.15 1453.21 2887.66 1452.78 2887.32 1452.41 2887.12 1452.03 2886.91 1451.6 2886.73 1451.11 2886.57Z" fill-rule="evenodd"/><text fill="#000000" fill-opacity="0" font-family="Arial,Arial_MSFontService,sans-serif" font-size="55.3198" x="1449.73" y="2932.99">X</text><path d="M1515.93 2921.07C1514.54 2921.07 1513.38 2921.43 1512.44 2922.15 1511.51 2922.88 1510.77 2923.94 1510.22 2925.34 1509.68 2926.74 1509.29 2928.45 1509.06 2930.46 1508.83 2932.48 1508.72 2934.77 1508.72 2937.33 1508.72 2940.29 1508.86 2942.84 1509.15 2945 1509.44 2947.15 1509.89 2948.92 1510.49 2950.31 1511.1 2951.7 1511.86 2952.73 1512.77 2953.38 1513.68 2954.04 1514.78 2954.36 1516.05 2954.36 1517.24 2954.36 1518.28 2954.06 1519.17 2953.44 1520.07 2952.83 1520.81 2951.87 1521.39 2950.57 1521.98 2949.27 1522.42 2947.62 1522.72 2945.62 1523.02 2943.63 1523.17 2941.27 1523.17 2938.55 1523.17 2935.49 1523 2932.86 1522.67 2930.66 1522.35 2928.45 1521.89 2926.64 1521.29 2925.22 1520.69 2923.8 1519.94 2922.75 1519.04 2922.08 1518.14 2921.4 1517.1 2921.07 1515.93 2921.07ZM1516.05 2918.18C1518.41 2918.18 1520.43 2918.62 1522.11 2919.5 1523.79 2920.39 1525.16 2921.65 1526.22 2923.28 1527.28 2924.92 1528.06 2926.92 1528.56 2929.29 1529.05 2931.65 1529.3 2934.32 1529.3 2937.3 1529.3 2943.91 1528.13 2948.91 1525.79 2952.29 1523.44 2955.68 1520.05 2957.37 1515.6 2957.37 1511.19 2957.37 1507.92 2955.77 1505.77 2952.58 1503.63 2949.38 1502.55 2944.54 1502.55 2938.04 1502.55 2934.65 1502.89 2931.71 1503.55 2929.23 1504.22 2926.74 1505.15 2924.68 1506.35 2923.05 1507.55 2921.41 1508.98 2920.19 1510.63 2919.38 1512.27 2918.58 1514.08 2918.18 1516.05 2918.18Z" fill-rule="evenodd"/><text fill="#000000" fill-opacity="0" font-family="Arial,Arial_MSFontService,sans-serif" font-size="39.1973" x="1502.55" y="2952.47">0</text><text font-family="Aptos,Aptos_MSFontService,sans-serif" font-weight="400" font-size="92" transform="matrix(1 0 0 1 417.885 1725)">0.</text><text font-family="Aptos,Aptos_MSFontService,sans-serif" font-weight="400" font-size="92" transform="matrix(1 0 0 1 492.937 1725)">2</text><text font-family="Aptos,Aptos_MSFontService,sans-serif" font-weight="400" font-size="92" transform="matrix(1 0 0 1 541.635 1725)">5</text><text font-family="Aptos,Aptos_MSFontService,sans-serif" font-weight="400" font-size="92" transform="matrix(1 0 0 1 609.239 1725)">m</text><path d="M1041.5 1510.5C1041.5 1419.37 1115.37 1345.5 1206.5 1345.5 1297.63 1345.5 1371.5 1419.37 1371.5 1510.5 1371.5 1601.63 1297.63 1675.5 1206.5 1675.5 1115.37 1675.5 1041.5 1601.63 1041.5 1510.5Z" stroke="#042433" stroke-width="6.875" stroke-miterlimit="8" fill="#96DCF8" fill-rule="evenodd"/><path d="M1241 1497.12 1494.93 1497.13 1494.93 1510.88 1241 1510.87ZM1488.05 1483.38 1529.3 1504 1488.05 1524.63Z" fill="#4EA72E"/><path d="M6.875-8.10369e-06 6.87532 271.799-6.87468 271.799-6.875 8.10369e-06ZM20.6253 264.923 0.000360892 306.174-20.6247 264.924Z" fill="#FF0000" transform="matrix(1 0 0 -1 1208 1469.17)"/><path d="M1107.36 1562.39 1147.88 1562.39 1147.88 1564.55 1117.16 1619.58 1133.37 1619.58C1135.38 1619.58 1136.87 1619.39 1137.84 1619.02 1138.82 1618.64 1139.62 1618.06 1140.25 1617.26 1140.88 1616.47 1141.45 1615.36 1141.95 1613.92 1142.46 1612.48 1143.08 1610.25 1143.8 1607.22L1148.2 1607.22 1148.2 1623.71 1106.69 1623.71 1106.69 1621.51 1137.46 1566.53 1121.16 1566.53C1119.99 1566.53 1119.07 1566.62 1118.39 1566.82 1117.72 1567.01 1117.11 1567.31 1116.57 1567.72 1116.03 1568.12 1115.5 1568.71 1114.98 1569.49 1114.45 1570.27 1113.93 1571.34 1113.41 1572.7 1112.88 1574.06 1112.34 1575.76 1111.77 1577.8L1107.36 1577.8Z" fill-rule="evenodd"/><text fill="#000000" fill-opacity="0" font-family="Arial,Arial_MSFontService,sans-serif" font-size="61.3184" x="1106.69" y="1616.05">Z</text><path d="M1211.03 1612.25C1209.83 1612.25 1208.65 1612.54 1207.48 1613.13 1206.32 1613.72 1205.21 1614.55 1204.18 1615.63 1203.14 1616.71 1202.2 1618.02 1201.35 1619.56 1200.5 1621.1 1199.79 1622.81 1199.22 1624.71 1201.99 1624.69 1204.37 1624.47 1206.37 1624.06 1208.37 1623.64 1210 1623.08 1211.28 1622.36 1212.55 1621.64 1213.49 1620.79 1214.09 1619.8 1214.69 1618.82 1214.99 1617.74 1214.99 1616.57 1214.99 1615.21 1214.65 1614.16 1213.98 1613.39 1213.3 1612.63 1212.32 1612.25 1211.03 1612.25ZM1175.03 1612.25C1173.83 1612.25 1172.65 1612.54 1171.48 1613.13 1170.32 1613.72 1169.21 1614.55 1168.18 1615.63 1167.14 1616.71 1166.2 1618.02 1165.35 1619.56 1164.5 1621.1 1163.79 1622.81 1163.22 1624.71 1165.99 1624.69 1168.37 1624.47 1170.37 1624.06 1172.37 1623.64 1174 1623.08 1175.28 1622.36 1176.55 1621.64 1177.49 1620.79 1178.09 1619.8 1178.69 1618.82 1178.99 1617.74 1178.99 1616.57 1178.99 1615.21 1178.65 1614.16 1177.98 1613.39 1177.3 1612.63 1176.32 1612.25 1175.03 1612.25ZM1212.44 1609.01C1215.23 1609.01 1217.35 1609.62 1218.8 1610.84 1220.25 1612.06 1220.98 1613.8 1220.98 1616.04 1220.98 1623.94 1213.51 1627.89 1198.57 1627.89 1198.46 1628.45 1198.37 1629.07 1198.31 1629.73 1198.24 1630.4 1198.21 1631.12 1198.21 1631.91 1198.21 1634.29 1198.69 1636.02 1199.66 1637.11 1200.63 1638.2 1202.14 1638.75 1204.19 1638.75 1205.26 1638.75 1206.28 1638.63 1207.24 1638.4 1208.2 1638.17 1209.14 1637.82 1210.07 1637.34 1210.99 1636.86 1211.93 1636.24 1212.86 1635.49 1213.8 1634.74 1214.78 1633.84 1215.81 1632.79L1218.26 1635.44C1215.73 1637.95 1213.21 1639.84 1210.69 1641.1 1208.17 1642.37 1205.46 1643 1202.56 1643 1200.86 1643 1199.35 1642.74 1198.03 1642.23 1196.71 1641.72 1195.6 1640.97 1194.69 1639.99 1193.79 1639.01 1193.1 1637.81 1192.63 1636.41 1192.16 1635 1191.93 1633.41 1191.93 1631.65 1191.93 1630.4 1192.04 1629.11 1192.25 1627.77 1192.47 1626.43 1192.81 1625.09 1193.27 1623.75 1193.73 1622.41 1194.29 1621.1 1194.97 1619.82 1195.65 1618.55 1196.44 1617.35 1197.36 1616.24 1199.19 1613.97 1201.4 1612.2 1203.98 1610.92 1206.57 1609.65 1209.39 1609.01 1212.44 1609.01ZM1176.44 1609.01C1179.23 1609.01 1181.35 1609.62 1182.8 1610.84 1184.25 1612.06 1184.98 1613.8 1184.98 1616.04 1184.98 1623.94 1177.51 1627.89 1162.57 1627.89 1162.46 1628.45 1162.37 1629.07 1162.31 1629.73 1162.24 1630.4 1162.21 1631.12 1162.21 1631.91 1162.21 1634.29 1162.69 1636.02 1163.66 1637.11 1164.63 1638.2 1166.14 1638.75 1168.19 1638.75 1169.26 1638.75 1170.28 1638.63 1171.24 1638.4 1172.2 1638.17 1173.14 1637.82 1174.07 1637.34 1174.99 1636.86 1175.93 1636.24 1176.86 1635.49 1177.8 1634.74 1178.78 1633.84 1179.81 1632.79L1182.26 1635.44C1179.73 1637.95 1177.21 1639.84 1174.69 1641.1 1172.17 1642.37 1169.46 1643 1166.56 1643 1164.86 1643 1163.35 1642.74 1162.03 1642.23 1160.71 1641.72 1159.6 1640.97 1158.69 1639.99 1157.79 1639.01 1157.1 1637.81 1156.63 1636.41 1156.16 1635 1155.93 1633.41 1155.93 1631.65 1155.93 1630.4 1156.04 1629.11 1156.25 1627.77 1156.47 1626.43 1156.81 1625.09 1157.27 1623.75 1157.73 1622.41 1158.29 1621.1 1158.97 1619.82 1159.65 1618.55 1160.44 1617.35 1161.36 1616.24 1163.19 1613.97 1165.4 1612.2 1167.98 1610.92 1170.57 1609.65 1173.39 1609.01 1176.44 1609.01Z" fill-rule="evenodd"/><text fill="#000000" fill-opacity="0" font-family="Arial,Arial_MSFontService,sans-serif" font-size="33.9907" x="1155.93" y="1638.75">𝑒𝑒</text><path d="M1174 1504C1174 1486.88 1188.1 1473 1205.5 1473 1222.9 1473 1237 1486.88 1237 1504 1237 1521.12 1222.9 1535 1205.5 1535 1188.1 1535 1174 1521.12 1174 1504Z" stroke="#0070C0" stroke-width="10.3125" stroke-miterlimit="8" fill="#FFFFFF" fill-rule="evenodd"/><path d="M1523.41 1436.17 1540.68 1436.17 1540.68 1438.16C1538.14 1438.45 1536.87 1439.55 1536.87 1441.44 1536.87 1442.22 1537.05 1443.1 1537.41 1444.07 1537.78 1445.05 1538.43 1446.42 1539.38 1448.21L1547.49 1463.65 1555.47 1449.54C1556.55 1447.63 1557.31 1446.05 1557.76 1444.82 1558.2 1443.59 1558.43 1442.47 1558.43 1441.44 1558.43 1440.47 1558.14 1439.7 1557.56 1439.15 1556.98 1438.6 1556.12 1438.26 1554.98 1438.16L1554.98 1436.17 1570.34 1436.17 1570.34 1438.16C1569.23 1438.56 1568.26 1439.12 1567.42 1439.84 1566.59 1440.55 1565.74 1441.52 1564.87 1442.74 1564.01 1443.95 1562.74 1446.01 1561.06 1448.9L1549.8 1468.11 1549.8 1481.24C1549.8 1482.78 1549.88 1484.02 1550.04 1484.97 1550.2 1485.91 1550.47 1486.67 1550.85 1487.24 1551.23 1487.8 1551.73 1488.25 1552.35 1488.57 1552.97 1488.9 1553.94 1489.21 1555.27 1489.5L1555.27 1491.49 1536.75 1491.49 1536.75 1489.5C1538.04 1489.23 1539 1488.94 1539.62 1488.63 1540.24 1488.32 1540.74 1487.88 1541.12 1487.3 1541.5 1486.72 1541.78 1485.95 1541.95 1485.01 1542.13 1484.06 1542.22 1482.8 1542.22 1481.24L1542.22 1468.27 1531.03 1447.48C1529.68 1444.97 1528.65 1443.17 1527.95 1442.09 1527.25 1441.01 1526.55 1440.16 1525.84 1439.53 1525.14 1438.91 1524.33 1438.45 1523.41 1438.16Z" fill-rule="evenodd"/><text fill="#000000" fill-opacity="0" font-family="Arial,Arial_MSFontService,sans-serif" font-size="55.3198" x="1523.41" y="1484.58">Y</text><path d="M1614.36 1480.87C1613.29 1480.87 1612.32 1481.09 1611.46 1481.51 1610.6 1481.94 1609.84 1482.56 1609.2 1483.37 1608.55 1484.19 1608.02 1485.19 1607.62 1486.37 1607.21 1487.55 1606.95 1488.88 1606.83 1490.37L1620.65 1490.37C1620.45 1487.14 1619.86 1484.74 1618.88 1483.2 1617.89 1481.65 1616.39 1480.87 1614.36 1480.87ZM1581.36 1480.87C1580.29 1480.87 1579.32 1481.09 1578.46 1481.51 1577.6 1481.94 1576.84 1482.56 1576.2 1483.37 1575.55 1484.19 1575.02 1485.19 1574.62 1486.37 1574.21 1487.55 1573.95 1488.88 1573.83 1490.37L1587.65 1490.37C1587.45 1487.14 1586.86 1484.74 1585.88 1483.2 1584.89 1481.65 1583.39 1480.87 1581.36 1480.87ZM1614.72 1477.92C1616.83 1477.92 1618.64 1478.25 1620.17 1478.89 1621.7 1479.54 1622.94 1480.43 1623.89 1481.56 1624.37 1482.11 1624.8 1482.75 1625.18 1483.46 1625.55 1484.18 1625.88 1485.01 1626.14 1485.95 1626.41 1486.89 1626.62 1487.97 1626.77 1489.18 1626.92 1490.39 1627.01 1491.77 1627.05 1493.32L1606.65 1493.32 1606.65 1493.59C1606.65 1497.34 1607.35 1500.15 1608.75 1502.02 1610.15 1503.89 1612.37 1504.82 1615.41 1504.82 1616.22 1504.82 1617 1504.74 1617.74 1504.57 1618.49 1504.4 1619.23 1504.13 1619.96 1503.78 1620.7 1503.42 1621.44 1502.96 1622.18 1502.39 1622.93 1501.83 1623.71 1501.16 1624.52 1500.38L1626.61 1502.85C1625.49 1503.95 1624.44 1504.87 1623.43 1505.64 1622.43 1506.4 1621.43 1507.02 1620.44 1507.5 1619.45 1507.98 1618.43 1508.32 1617.4 1508.54 1616.37 1508.76 1615.28 1508.87 1614.13 1508.87 1609.6 1508.87 1606.19 1507.57 1603.91 1504.98 1601.63 1502.39 1600.48 1498.57 1600.48 1493.53 1600.48 1491.21 1600.82 1489.09 1601.5 1487.17 1602.17 1485.26 1603.13 1483.61 1604.39 1482.24 1605.64 1480.87 1607.14 1479.81 1608.88 1479.06 1610.63 1478.3 1612.58 1477.92 1614.72 1477.92ZM1581.72 1477.92C1583.83 1477.92 1585.64 1478.25 1587.17 1478.89 1588.7 1479.54 1589.94 1480.43 1590.89 1481.56 1591.37 1482.11 1591.8 1482.75 1592.18 1483.46 1592.55 1484.18 1592.88 1485.01 1593.14 1485.95 1593.41 1486.89 1593.62 1487.97 1593.77 1489.18 1593.92 1490.39 1594.01 1491.77 1594.05 1493.32L1573.65 1493.32 1573.65 1493.59C1573.65 1497.34 1574.35 1500.15 1575.75 1502.02 1577.15 1503.89 1579.37 1504.82 1582.41 1504.82 1583.22 1504.82 1584 1504.74 1584.74 1504.57 1585.49 1504.4 1586.23 1504.13 1586.96 1503.78 1587.7 1503.42 1588.44 1502.96 1589.18 1502.39 1589.93 1501.83 1590.71 1501.16 1591.52 1500.38L1593.61 1502.85C1592.49 1503.95 1591.44 1504.87 1590.43 1505.64 1589.43 1506.4 1588.43 1507.02 1587.44 1507.5 1586.45 1507.98 1585.43 1508.32 1584.4 1508.54 1583.37 1508.76 1582.28 1508.87 1581.13 1508.87 1576.6 1508.87 1573.19 1507.57 1570.91 1504.98 1568.63 1502.39 1567.48 1498.57 1567.48 1493.53 1567.48 1491.21 1567.82 1489.09 1568.5 1487.17 1569.17 1485.26 1570.13 1483.61 1571.39 1482.24 1572.64 1480.87 1574.14 1479.81 1575.88 1479.06 1577.63 1478.3 1579.58 1477.92 1581.72 1477.92Z" fill-rule="evenodd"/><text fill="#000000" fill-opacity="0" font-family="Arial,Arial_MSFontService,sans-serif" font-size="30.9468" x="1567.48" y="1505">ee</text><path d="M1240.33 1133.62 1257.6 1133.62 1257.6 1135.61C1256.3 1135.8 1255.37 1136.15 1254.8 1136.66 1254.23 1137.17 1253.95 1137.88 1253.95 1138.77 1253.95 1139.53 1254.21 1140.47 1254.72 1141.61 1255.23 1142.74 1255.96 1144.09 1256.91 1145.66L1262.78 1155.51 1268.58 1146.14C1269.44 1144.74 1270.09 1143.62 1270.52 1142.78 1270.96 1141.94 1271.26 1141.24 1271.44 1140.67 1271.61 1140.11 1271.7 1139.53 1271.7 1138.93 1271.7 1138.09 1271.46 1137.38 1270.97 1136.8 1270.48 1136.22 1269.67 1135.82 1268.54 1135.61L1268.54 1133.62 1283.57 1133.62 1283.57 1135.61C1282.57 1135.93 1281.68 1136.4 1280.88 1137.03 1280.08 1137.65 1279.23 1138.55 1278.33 1139.74 1277.42 1140.93 1276.13 1142.81 1274.46 1145.37L1265.3 1159.56 1275.59 1176.5C1277.05 1178.9 1278.1 1180.59 1278.73 1181.55 1279.37 1182.5 1279.96 1183.31 1280.51 1183.98 1281.07 1184.64 1281.66 1185.21 1282.3 1185.7 1282.93 1186.19 1283.72 1186.6 1284.67 1186.96L1284.67 1188.94 1266.88 1188.94 1266.88 1186.96C1268.12 1186.74 1269.04 1186.4 1269.63 1185.92 1270.23 1185.45 1270.52 1184.74 1270.52 1183.79 1270.52 1183.04 1270.33 1182.2 1269.94 1181.28 1269.55 1180.36 1268.94 1179.23 1268.13 1177.88L1260.8 1165.64 1253.06 1178.32C1251.76 1180.46 1251.11 1182.21 1251.11 1183.59 1251.11 1184.48 1251.36 1185.21 1251.84 1185.78 1252.33 1186.35 1253.14 1186.74 1254.27 1186.96L1254.27 1188.94 1238.95 1188.94 1238.95 1186.96C1239.95 1186.66 1240.78 1186.3 1241.43 1185.88 1242.07 1185.46 1242.7 1184.93 1243.29 1184.28 1243.88 1183.63 1244.55 1182.81 1245.28 1181.81 1246.01 1180.81 1247.17 1179.07 1248.76 1176.58L1258.33 1161.67 1246.9 1142.86C1245.82 1141.13 1245 1139.88 1244.45 1139.09 1243.89 1138.31 1243.38 1137.67 1242.91 1137.19 1242.43 1136.7 1242.01 1136.36 1241.63 1136.15 1241.25 1135.95 1240.82 1135.77 1240.33 1135.61Z" fill-rule="evenodd"/><text fill="#000000" fill-opacity="0" font-family="Arial,Arial_MSFontService,sans-serif" font-size="55.3198" x="1238.95" y="1182.03">X</text><path d="M1338.24 1178.32C1337.17 1178.32 1336.2 1178.54 1335.34 1178.96 1334.47 1179.39 1333.72 1180.01 1333.07 1180.83 1332.43 1181.64 1331.9 1182.64 1331.49 1183.82 1331.09 1185 1330.82 1186.34 1330.7 1187.82L1344.52 1187.82C1344.33 1184.59 1343.74 1182.2 1342.75 1180.65 1341.77 1179.1 1340.27 1178.32 1338.24 1178.32ZM1305.24 1178.32C1304.17 1178.32 1303.2 1178.54 1302.34 1178.96 1301.47 1179.39 1300.72 1180.01 1300.07 1180.83 1299.43 1181.64 1298.9 1182.64 1298.49 1183.82 1298.09 1185 1297.82 1186.34 1297.7 1187.82L1311.52 1187.82C1311.33 1184.59 1310.74 1182.2 1309.75 1180.65 1308.77 1179.1 1307.27 1178.32 1305.24 1178.32ZM1338.6 1175.37C1340.7 1175.37 1342.52 1175.7 1344.05 1176.34 1345.58 1176.99 1346.82 1177.88 1347.77 1179.01 1348.25 1179.56 1348.67 1180.2 1349.05 1180.91 1349.43 1181.63 1349.75 1182.46 1350.02 1183.4 1350.29 1184.34 1350.5 1185.42 1350.65 1186.63 1350.79 1187.84 1350.89 1189.22 1350.93 1190.77L1330.53 1190.77 1330.53 1191.04C1330.53 1194.79 1331.23 1197.6 1332.63 1199.47 1334.03 1201.34 1336.24 1202.27 1339.28 1202.27 1340.1 1202.27 1340.88 1202.19 1341.62 1202.02 1342.37 1201.85 1343.1 1201.59 1343.84 1201.23 1344.57 1200.87 1345.31 1200.41 1346.06 1199.84 1346.8 1199.28 1347.58 1198.61 1348.4 1197.83L1350.48 1200.3C1349.37 1201.4 1348.31 1202.33 1347.31 1203.09 1346.31 1203.85 1345.31 1204.47 1344.32 1204.95 1343.32 1205.43 1342.31 1205.78 1341.28 1205.99 1340.25 1206.21 1339.15 1206.32 1338 1206.32 1333.47 1206.32 1330.07 1205.03 1327.79 1202.43 1325.5 1199.84 1324.36 1196.03 1324.36 1190.98 1324.36 1188.66 1324.7 1186.54 1325.37 1184.62 1326.05 1182.71 1327.01 1181.06 1328.26 1179.69 1329.51 1178.32 1331.01 1177.26 1332.76 1176.51 1334.51 1175.75 1336.45 1175.37 1338.6 1175.37ZM1305.6 1175.37C1307.7 1175.37 1309.52 1175.7 1311.05 1176.34 1312.58 1176.99 1313.82 1177.88 1314.77 1179.01 1315.25 1179.56 1315.67 1180.2 1316.05 1180.91 1316.43 1181.63 1316.75 1182.46 1317.02 1183.4 1317.29 1184.34 1317.5 1185.42 1317.65 1186.63 1317.79 1187.84 1317.89 1189.22 1317.93 1190.77L1297.53 1190.77 1297.53 1191.04C1297.53 1194.79 1298.23 1197.6 1299.63 1199.47 1301.03 1201.34 1303.24 1202.27 1306.28 1202.27 1307.1 1202.27 1307.88 1202.19 1308.62 1202.02 1309.37 1201.85 1310.1 1201.59 1310.84 1201.23 1311.57 1200.87 1312.31 1200.41 1313.06 1199.84 1313.8 1199.28 1314.58 1198.61 1315.4 1197.83L1317.48 1200.3C1316.37 1201.4 1315.31 1202.33 1314.31 1203.09 1313.31 1203.85 1312.31 1204.47 1311.32 1204.95 1310.32 1205.43 1309.31 1205.78 1308.28 1205.99 1307.25 1206.21 1306.15 1206.32 1305 1206.32 1300.47 1206.32 1297.07 1205.03 1294.79 1202.43 1292.5 1199.84 1291.36 1196.03 1291.36 1190.98 1291.36 1188.66 1291.7 1186.54 1292.37 1184.62 1293.05 1182.71 1294.01 1181.06 1295.26 1179.69 1296.51 1178.32 1298.01 1177.26 1299.76 1176.51 1301.51 1175.75 1303.45 1175.37 1305.6 1175.37Z" fill-rule="evenodd"/><text fill="#000000" fill-opacity="0" font-family="Arial,Arial_MSFontService,sans-serif" font-size="30.9468" x="1291.36" y="1202.45">ee</text><path d="M1184.5 1482.5 1228.84 1526.69" stroke="#0070C0" stroke-width="6.875" stroke-miterlimit="8" fill="none" fill-rule="evenodd"/><path d="M0 0 44.3421 44.1942" stroke="#0070C0" stroke-width="6.875" stroke-miterlimit="8" fill="none" fill-rule="evenodd" transform="matrix(1 0 0 -1 1184.5 1526.69)"/><path d="M1275.1 1438.94 1278.47 1438.94C1279.07 1441.69 1280.7 1443.07 1283.36 1443.07L1286.06 1443.07C1287.62 1443.07 1288.72 1442.76 1289.38 1442.15 1290.04 1441.53 1290.55 1440.46 1290.91 1438.94L1294.23 1438.94 1294.23 1452.86 1290.91 1452.86C1290.25 1450.17 1288.78 1448.82 1286.51 1448.82L1282.82 1448.82C1281.54 1448.82 1280.6 1449.1 1280.02 1449.65 1279.43 1450.2 1278.92 1451.27 1278.47 1452.86L1275.1 1452.86ZM1284.62 1418.81C1274.23 1418.81 1269.03 1427.71 1269.03 1445.49 1269.03 1454.69 1270.39 1461.68 1273.1 1466.47 1275.81 1471.26 1279.77 1473.66 1284.98 1473.66 1290.01 1473.66 1293.82 1471.32 1296.41 1466.63 1299 1461.94 1300.3 1455.51 1300.3 1447.34 1300.3 1438.08 1298.94 1431.01 1296.23 1426.13 1293.52 1421.25 1289.65 1418.81 1284.62 1418.81ZM1284.94 1414.86C1292.9 1414.86 1298.97 1417.49 1303.13 1422.74 1307.29 1428 1309.37 1435.57 1309.37 1445.45 1309.37 1455.75 1307.13 1463.69 1302.66 1469.26 1298.18 1474.83 1291.96 1477.61 1283.99 1477.61 1276.15 1477.61 1270.18 1474.98 1266.09 1469.71 1262 1464.44 1259.96 1456.79 1259.96 1446.75 1259.96 1436.63 1262.23 1428.78 1266.76 1423.21 1271.3 1417.64 1277.36 1414.86 1284.94 1414.86Z" fill-rule="evenodd"/><text fill="#000000" fill-opacity="0" font-family="Arial,Arial_MSFontService,sans-serif" font-size="62.7559" x="1259.96" y="1469.77">Θ</text><path d="M1334.23 1453.23C1335.98 1453.23 1337.61 1453.41 1339.13 1453.79 1340.64 1454.16 1341.96 1454.72 1343.07 1455.47 1344.18 1456.22 1345.05 1457.16 1345.67 1458.28 1346.29 1459.41 1346.6 1460.71 1346.6 1462.19 1346.6 1463.59 1346.4 1464.82 1346.01 1465.89 1345.62 1466.96 1345.01 1467.93 1344.2 1468.8 1343.38 1469.67 1342.38 1470.46 1341.19 1471.17 1340 1471.88 1338.63 1472.56 1337.08 1473.22L1337.08 1473.61C1338.54 1473.87 1339.91 1474.29 1341.17 1474.87 1342.44 1475.45 1343.54 1476.18 1344.49 1477.06 1345.44 1477.95 1346.19 1478.97 1346.73 1480.12 1347.28 1481.28 1347.55 1482.55 1347.55 1483.95 1347.55 1485.69 1347.22 1487.31 1346.57 1488.81 1345.91 1490.3 1344.93 1491.59 1343.62 1492.68 1342.32 1493.77 1340.7 1494.62 1338.78 1495.24 1336.86 1495.85 1334.62 1496.15 1332.04 1496.15 1330.01 1496.15 1327.95 1495.95 1325.86 1495.55 1323.77 1495.14 1321.78 1494.61 1319.91 1493.96L1319.91 1486.89 1324.13 1486.89C1324.48 1487.98 1324.89 1488.92 1325.37 1489.69 1325.85 1490.46 1326.41 1491.1 1327.05 1491.59 1327.7 1492.08 1328.44 1492.43 1329.28 1492.65 1330.12 1492.87 1331.07 1492.98 1332.14 1492.98 1334.95 1492.98 1337.09 1492.31 1338.54 1490.97 1339.99 1489.62 1340.71 1487.59 1340.71 1484.86 1340.71 1481.96 1339.76 1479.77 1337.85 1478.27 1335.94 1476.78 1333.11 1476.03 1329.36 1476.03L1326.48 1476.03 1326.48 1472.89C1328.77 1472.78 1330.75 1472.46 1332.42 1471.93 1334.09 1471.39 1335.48 1470.7 1336.59 1469.85 1337.7 1469 1338.53 1468.01 1339.08 1466.87 1339.62 1465.74 1339.89 1464.53 1339.89 1463.24 1339.89 1461.15 1339.27 1459.49 1338.03 1458.28 1336.79 1457.07 1334.99 1456.47 1332.63 1456.47 1330.65 1456.47 1328.98 1457.01 1327.64 1458.1 1326.3 1459.19 1325.27 1460.82 1324.55 1462.98L1320.4 1462.98 1320.4 1456.53C1322.97 1455.44 1325.4 1454.62 1327.68 1454.06 1329.95 1453.51 1332.14 1453.23 1334.23 1453.23Z" fill-rule="evenodd"/><text fill="#000000" fill-opacity="0" font-family="Arial,Arial_MSFontService,sans-serif" font-size="42.9219" x="1319.91" y="1490.79">3</text><path d="M21.5151 118.352C8.85758 78.1257 29.93 34.8371 68.5815 21.664 107.233 8.49087 148.827 30.4216 161.485 70.6477 161.603 71.024 161.719 71.4013 161.832 71.7794L179.469 70.5779 158.425 89.9398 130.717 73.8996 148.316 72.7004C136.845 39.7656 102.109 22.8266 70.7305 34.8661 40.1584 46.5961 23.9108 81.6144 33.9638 114.109Z" stroke="#042433" stroke-width="6.875" stroke-miterlimit="8" fill="#156082" fill-rule="evenodd" transform="matrix(1 -1.22465e-16 -1.22465e-16 -1 1114.5 1595.5)"/></g></svg>