<svg width="3085" height="2332" xmlns="http://www.w3.org/2000/svg" xmlns:xlink="http://www.w3.org/1999/xlink" xml:space="preserve" overflow="hidden"><defs><clipPath id="clip0"><rect x="-500" y="155" width="3085" height="2332"/></clipPath><linearGradient x1="2446.08" y1="413" x2="1250.49" y2="413" gradientUnits="userSpaceOnUse" spreadMethod="reflect" id="fill1"><stop offset="0" stop-color="#FF0000"/><stop offset="0.76" stop-color="#156082"/><stop offset="1" stop-color="#156082"/></linearGradient><linearGradient x1="-2.26469e-06" y1="0.000360892" x2="1137.08" y2="0.000360892" gradientUnits="userSpaceOnUse" spreadMethod="reflect" id="fill2"><stop offset="0" stop-color="#FF0000"/><stop offset="0.76" stop-color="#156082"/><stop offset="1" stop-color="#156082"/></linearGradient><linearGradient x1="-2.38637e-06" y1="0.000360892" x2="1081.22" y2="0.000360892" gradientUnits="userSpaceOnUse" spreadMethod="reflect" id="fill3"><stop offset="0" stop-color="#FF0000"/><stop offset="0.76" stop-color="#156082"/><stop offset="1" stop-color="#156082"/></linearGradient><linearGradient x1="-2.51965e-06" y1="0.000360892" x2="1026.22" y2="0.000360892" gradientUnits="userSpaceOnUse" spreadMethod="reflect" id="fill4"><stop offset="0" stop-color="#FF0000"/><stop offset="0.76" stop-color="#156082"/><stop offset="1" stop-color="#156082"/></linearGradient><linearGradient x1="-2.67613e-06" y1="0.000360892" x2="968.641" y2="0.000360892" gradientUnits="userSpaceOnUse" spreadMethod="reflect" id="fill5"><stop offset="0" stop-color="#FF0000"/><stop offset="0.76" stop-color="#156082"/><stop offset="1" stop-color="#156082"/></linearGradient><linearGradient x1="-2.85334e-06" y1="0.000360892" x2="911.063" y2="0.000360892" gradientUnits="userSpaceOnUse" spreadMethod="reflect" id="fill6"><stop offset="0" stop-color="#FF0000"/><stop offset="0.76" stop-color="#156082"/><stop offset="1" stop-color="#156082"/></linearGradient><linearGradient x1="-3.04278e-06" y1="0.000360892" x2="856.923" y2="0.000360892" gradientUnits="userSpaceOnUse" spreadMethod="reflect" id="fill7"><stop offset="0" stop-color="#FF0000"/><stop offset="0.76" stop-color="#156082"/><stop offset="1" stop-color="#156082"/></linearGradient><linearGradient x1="2445.73" y1="914" x2="1639.49" y2="914" gradientUnits="userSpaceOnUse" spreadMethod="reflect" id="fill8"><stop offset="0" stop-color="#FF0000"/><stop offset="0.76" stop-color="#156082"/><stop offset="1" stop-color="#156082"/></linearGradient><linearGradient x1="-3.53017e-06" y1="0.000360892" x2="744.345" y2="0.000360892" gradientUnits="userSpaceOnUse" spreadMethod="reflect" id="fill9"><stop offset="0" stop-color="#FF0000"/><stop offset="0.76" stop-color="#156082"/><stop offset="1" stop-color="#156082"/></linearGradient><linearGradient x1="-3.81179e-06" y1="0.000360892" x2="692.419" y2="0.000360892" gradientUnits="userSpaceOnUse" spreadMethod="reflect" id="fill10"><stop offset="0" stop-color="#FF0000"/><stop offset="0.76" stop-color="#156082"/><stop offset="1" stop-color="#156082"/></linearGradient><linearGradient x1="2446.06" y1="1124" x2="1806.49" y2="1124" gradientUnits="userSpaceOnUse" spreadMethod="reflect" id="fill11"><stop offset="0" stop-color="#FF0000"/><stop offset="0.76" stop-color="#156082"/><stop offset="1" stop-color="#156082"/></linearGradient><linearGradient x1="-4.61317e-06" y1="0.000360892" x2="579.344" y2="0.000360892" gradientUnits="userSpaceOnUse" spreadMethod="reflect" id="fill12"><stop offset="0" stop-color="#FF0000"/><stop offset="0.76" stop-color="#156082"/><stop offset="1" stop-color="#156082"/></linearGradient><linearGradient x1="2445.93" y1="1269" x2="1914.49" y2="1269" gradientUnits="userSpaceOnUse" spreadMethod="reflect" id="fill13"><stop offset="0" stop-color="#FF0000"/><stop offset="0.76" stop-color="#156082"/><stop offset="1" stop-color="#156082"/></linearGradient></defs><g clip-path="url(#clip0)" transform="translate(500 -155)"><path d="M692.5 2245.5C692.5 2172.05 752.27 2112.5 826 2112.5 899.73 2112.5 959.5 2172.05 959.5 2245.5 959.5 2318.95 899.73 2378.5 826 2378.5 752.27 2378.5 692.5 2318.95 692.5 2245.5Z" stroke="#042433" stroke-width="6.875" stroke-miterlimit="8" fill="#96DCF8" fill-rule="evenodd"/><path d="M790 2245.5C790 2225.89 805.894 2210 825.5 2210 845.106 2210 861 2225.89 861 2245.5 861 2265.11 845.106 2281 825.5 2281 805.894 2281 790 2265.11 790 2245.5Z" stroke="#0070C0" stroke-width="10.3125" stroke-miterlimit="8" fill="#FFFFFF" fill-rule="evenodd"/><path d="M816.5 2246C816.5 2240.75 820.753 2236.5 826 2236.5 831.247 2236.5 835.5 2240.75 835.5 2246 835.5 2251.25 831.247 2255.5 826 2255.5 820.753 2255.5 816.5 2251.25 816.5 2246Z" stroke="#0070C0" stroke-width="1.14583" stroke-miterlimit="8" fill="#0070C0" fill-rule="evenodd"/><path d="M826 413 826 2250 113 413Z" stroke="#042433" stroke-width="13.75" stroke-miterlimit="8" fill="none" fill-rule="evenodd"/><path d="M3.48098e-06-6.875 678.395-6.87466 678.395 6.87534-3.48098e-06 6.875ZM671.52-20.6247 712.77 0.000360892 671.52 20.6253Z" fill="#FF0000" transform="matrix(-1 0 0 1 825.77 413)"/><path d="M3.72802e-06-6.875 631.161-6.87466 631.161 6.87534-3.72802e-06 6.875ZM624.286-20.6247 665.536 0.000360892 624.286 20.6253Z" fill="#FF0000" transform="matrix(-1 0 0 1 825.536 547)"/><path d="M4.07664e-06-6.875 574.248-6.87466 574.248 6.87534-4.07664e-06 6.875ZM567.373-20.6247 608.623 0.000360892 567.373 20.6253Z" fill="#FF0000" transform="matrix(-1 0 0 1 825.623 679)"/><path d="M4.46403e-06-6.875 521.432-6.87466 521.432 6.87534-4.46403e-06 6.875ZM514.557-20.6247 555.807 0.000360892 514.557 20.6253Z" fill="#FF0000" transform="matrix(-1 0 0 1 825.807 811)"/><path d="M4.93553e-06-6.875 468.334-6.87466 468.334 6.87534-4.93553e-06 6.875ZM461.459-20.6247 502.709 0.000360892 461.459 20.6253Z" fill="#FF0000" transform="matrix(-1 0 0 1 825.709 942)"/><path d="M5.49917e-06-6.875 416.809-6.87467 416.809 6.87533-5.49917e-06 6.875ZM409.934-20.6247 451.184 0.000360892 409.934 20.6253Z" fill="#FF0000" transform="matrix(-1 0 0 1 825.184 1074)"/><path d="M6.11834e-06-6.875 371.149-6.87467 371.149 6.87533-6.11834e-06 6.875ZM364.274-20.6247 405.524 0.000360892 364.274 20.6253Z" fill="#FF0000" transform="matrix(-1 0 0 1 825.524 1206)"/><path d="M825.271 1344.77 503.256 1339.44 503.484 1325.69 825.498 1331.02ZM509.903 1353.3 469 1332 510.585 1312.06Z" fill="#FF0000"/><path d="M8.12968e-06-6.875 270.82-6.87468 270.82 6.87532-8.12968e-06 6.875ZM263.945-20.6247 305.195 0.000360892 263.945 20.6253Z" fill="#FF0000" transform="matrix(-1 0 0 1 825.195 1469)"/><path d="M9.67182e-06-6.875 222.157-6.87469 222.157 6.87531-9.67182e-06 6.875ZM215.282-20.6247 256.532 0.000360892 215.282 20.6253Z" fill="#FF0000" transform="matrix(-1 0 0 1 825.532 1601)"/><path d="M1.22741e-05-6.875 167.769-6.8747 167.769 6.8753-1.22741e-05 6.875ZM160.894-20.6247 202.144 0.000360892 160.894 20.6253Z" fill="#FF0000" transform="matrix(-1 0 0 1 825.144 1733)"/><path d="M1.67921e-05-6.875 113.381-6.87472 113.381 6.87528-1.67921e-05 6.875ZM106.506-20.6247 147.756 0.000360892 106.506 20.6253Z" fill="#FF0000" transform="matrix(-1 0 0 1 825.756 1864)"/><path d="M0.557738-6.85234 63.1014-1.76167 61.986 11.943-0.557738 6.85234ZM57.3646-16.0241 96.8054 7.87936 54.0182 25.09Z" fill="#FF0000" transform="matrix(-1 0 0 1 825.806 1996)"/><path d="M-2.26982-20.625 38.98 0.000360892-2.2702 20.625Z" fill="#FF0000" transform="matrix(-1 0 0 1 825.98 2128)"/><path d="M381.196 266.362 417.653 266.362 417.653 270.74C414.913 271.395 412.977 272.021 411.845 272.617 410.713 273.212 409.865 273.987 409.299 274.94 408.733 275.893 408.45 277.174 408.45 278.782 408.45 280.391 408.643 282.073 409.031 283.831 409.418 285.588 410.028 287.628 410.862 289.952L426.41 335.165 444.639 291.828C445.83 288.969 446.664 286.616 447.141 284.769 447.617 282.922 447.855 281.195 447.855 279.586 447.855 277.084 447.185 275.178 445.845 273.868 444.505 272.557 442.047 271.515 438.473 270.74L438.473 266.362 471.892 266.362 471.892 270.74C469.569 271.217 467.782 271.947 466.531 272.929 465.28 273.912 464.029 275.461 462.778 277.576 461.527 279.691 460.038 282.654 458.31 286.467L428.197 352.679 417.653 352.679 393.438 285.931C391.77 281.344 390.445 278.201 389.462 276.504 388.479 274.806 387.406 273.54 386.245 272.706 385.083 271.872 383.4 271.217 381.196 270.74Z" fill-rule="evenodd"/><text fill="#000000" fill-opacity="0" font-family="Arial,Arial_MSFontService,sans-serif" font-size="86.3174" x="381.196" y="341.889">v</text><path d="M511.664 304.935 515.655 304.935C515.568 307.334 515.502 309.482 515.458 311.38 515.415 313.277 515.382 315.12 515.36 316.909 515.339 318.697 515.328 320.464 515.328 322.209L515.328 371.935C515.328 373.287 515.371 374.454 515.458 375.436 515.546 376.417 515.688 377.246 515.884 377.922 516.08 378.598 516.342 379.176 516.669 379.656 516.996 380.136 517.378 380.55 517.814 380.899 518.337 381.422 519.035 381.826 519.908 382.109 520.78 382.393 521.892 382.633 523.245 382.829 524.597 383.025 526.222 383.178 528.119 383.287 530.017 383.396 532.296 383.473 534.957 383.516L534.957 389.209 483.071 389.209 483.071 383.516C485.644 383.429 487.825 383.331 489.614 383.222 491.402 383.113 492.929 382.96 494.194 382.764 495.459 382.567 496.473 382.349 497.236 382.109 498 381.87 498.665 381.575 499.232 381.226 499.843 380.834 500.366 380.408 500.802 379.95 501.238 379.492 501.587 378.914 501.849 378.216 502.111 377.518 502.318 376.668 502.471 375.665 502.623 374.661 502.7 373.418 502.7 371.935L502.7 325.022C502.7 323.321 502.373 322.121 501.718 321.423 501.064 320.725 500.126 320.376 498.905 320.376 497.553 320.376 495.546 321.074 492.885 322.47 490.224 323.866 486.778 325.938 482.547 328.686 481.98 327.683 481.457 326.68 480.977 325.676 480.497 324.673 479.996 323.648 479.472 322.601 484.881 319.635 490.235 316.68 495.535 313.735 500.835 310.791 506.211 307.858 511.664 304.935Z" fill-rule="evenodd"/><text fill="#000000" fill-opacity="0" font-family="Arial,Arial_MSFontService,sans-serif" font-size="84.2734" x="479.472" y="378.674">1</text><rect x="-329.5" y="1245.5" width="107" height="833" stroke="#042433" stroke-width="6.875" stroke-miterlimit="8" fill="#D9D9D9"/><path d="M-406.5 2178.5C-406.5 2105.05-346.954 2045.5-273.5 2045.5-200.046 2045.5-140.5 2105.05-140.5 2178.5-140.5 2251.95-200.046 2311.5-273.5 2311.5-346.954 2311.5-406.5 2251.95-406.5 2178.5Z" stroke="#042433" stroke-width="6.875" stroke-miterlimit="8" fill="#96DCF8" fill-rule="evenodd"/><path d="M-10.9544 2381.85C-14.0449 2396.12-15.5901 2408.12-15.5901 2417.85-15.5901 2425.22-14.4723 2430.63-12.2366 2434.08-10.001 2437.53-6.38442 2439.26-1.38703 2439.26 5.97755 2439.26 12.964 2434.31 19.5724 2424.41 26.1808 2414.52 31.7865 2400.33 36.3893 2381.85ZM29.485 2315.37C21.7917 2315.37 14.6737 2320.24 8.13104 2329.97 1.58839 2339.7-3.98436 2353.64-8.58722 2371.79L38.6579 2371.79C41.7484 2357.92 43.2936 2345.98 43.2936 2335.99 43.2936 2329.08 42.1758 2323.92 39.9401 2320.5 37.7044 2317.08 34.2194 2315.37 29.485 2315.37ZM30.6686 2307.38C49.7376 2307.38 59.2721 2319.48 59.2721 2343.68 59.2721 2350.52 58.4995 2358.69 56.9543 2368.19 55.409 2377.69 52.9596 2387.37 49.6061 2397.24 46.2526 2407.1 42.0114 2415.83 36.8825 2423.43 31.7536 2431.02 25.8356 2436.89 19.1286 2441.03 12.4216 2445.17 5.18849 2447.24-2.57062 2447.24-12.3681 2447.24-19.667 2444.25-24.4671 2438.27-29.2672 2432.29-31.6673 2423.31-31.6673 2411.34-31.6673 2404.83-30.944 2396.81-29.4974 2387.28-28.0508 2377.74-25.6671 2367.99-22.3465 2358.03-19.0259 2348.07-14.7518 2339.23-9.52423 2331.5-4.2967 2323.77 1.71991 2317.82 8.52557 2313.65 15.3312 2309.47 22.7122 2307.38 30.6686 2307.38Z" fill-rule="evenodd"/><text fill="#000000" fill-opacity="0" font-family="Arial,Arial_MSFontService,sans-serif" font-size="139.861" x="-31.6673" y="2429.76">𝜃</text><path d="M29.417 2266.53C32.5075 2266.53 35.1048 2267.63 37.209 2269.84 39.3132 2272.04 40.3653 2274.82 40.3653 2278.17 40.3653 2281.52 39.3132 2284.3 37.209 2286.5 35.1048 2288.71 32.5075 2289.81 29.417 2289.81 26.2608 2289.81 23.6306 2288.71 21.5264 2286.5 19.4222 2284.3 18.3701 2281.52 18.3701 2278.17 18.3701 2274.82 19.4222 2272.04 21.5264 2269.84 23.6306 2267.63 26.2608 2266.53 29.417 2266.53Z" fill-rule="evenodd"/><text fill="#000000" fill-opacity="0" font-family="Arial,Arial_MSFontService,sans-serif" font-size="23.2773" x="18.3701" y="2286.9">ሶ</text><path d="M107.121 2394.38 111.499 2394.38C111.404 2397.01 111.332 2399.36 111.284 2401.45 111.236 2403.53 111.2 2405.55 111.176 2407.51 111.152 2409.47 111.14 2411.41 111.14 2413.32L111.14 2467.88C111.14 2469.36 111.188 2470.64 111.284 2471.72 111.38 2472.79 111.535 2473.7 111.751 2474.44 111.966 2475.19 112.253 2475.82 112.612 2476.35 112.971 2476.87 113.389 2477.33 113.868 2477.71 114.442 2478.28 115.208 2478.73 116.165 2479.04 117.122 2479.35 118.342 2479.61 119.825 2479.83 121.309 2480.04 123.091 2480.21 125.173 2480.33 127.254 2480.45 129.755 2480.53 132.674 2480.58L132.674 2486.82 75.7542 2486.82 75.7542 2480.58C78.5774 2480.48 80.97 2480.38 82.9319 2480.26 84.8938 2480.14 86.5686 2479.97 87.9563 2479.75 89.344 2479.54 90.4566 2479.3 91.294 2479.04 92.1314 2478.77 92.8611 2478.45 93.4832 2478.07 94.1531 2477.64 94.7273 2477.17 95.2058 2476.67 95.6844 2476.17 96.0672 2475.53 96.3543 2474.77 96.6414 2474 96.8687 2473.07 97.0362 2471.97 97.2036 2470.87 97.2874 2469.5 97.2874 2467.88L97.2874 2416.41C97.2874 2414.55 96.9285 2413.23 96.2107 2412.46 95.493 2411.7 94.4641 2411.32 93.1243 2411.32 91.6409 2411.32 89.4397 2412.08 86.5208 2413.61 83.6018 2415.14 79.8216 2417.42 75.18 2420.43 74.5579 2419.33 73.9837 2418.23 73.4573 2417.13 72.9309 2416.03 72.3806 2414.9 71.8064 2413.76 77.74 2410.5 83.6138 2407.26 89.4278 2404.03 95.2417 2400.8 101.139 2397.58 107.121 2394.38Z" fill-rule="evenodd"/><text fill="#000000" fill-opacity="0" font-family="Arial,Arial_MSFontService,sans-serif" font-size="92.4492" x="71.8064" y="2475.27">1</text><path d="M67.8909 374.751C28.0328 247.186 94.7366 110.028 216.878 68.4007 339.019 26.7729 470.346 96.4384 510.204 224.003 510.575 225.191 510.938 226.383 511.291 227.577L567.017 223.78 500.468 284.972 413.011 234.273 468.621 230.484C432.524 125.948 322.864 72.0488 223.688 110.097 127.051 147.171 75.5789 258.207 107.218 361.347Z" stroke="#042433" stroke-width="6.875" stroke-miterlimit="8" fill="#FF0000" fill-rule="evenodd" transform="matrix(0.769977 0.638071 0.638071 -0.769977 -673.212 2210.25)"/><path d="M-236 2167.12-45.5721 2167.12-45.5721 2180.88-236 2180.87ZM-52.447 2153.38-11.1971 2174-52.4471 2194.62Z" fill="#FF0000"/><path d="M6.875-7.0903e-06 6.87533 315.559-6.87467 315.559-6.875 7.0903e-06ZM20.6253 308.684 0.000360892 349.934-20.6247 308.684Z" fill="#4EA72E" transform="matrix(1 0 0 -1 -275 2133.93)"/><path d="M-384.419 2152.31-343.9 2152.31-343.9 2154.47-374.626 2209.5-358.409 2209.5C-356.403 2209.5-354.913 2209.31-353.94 2208.94-352.966 2208.56-352.165 2207.98-351.536 2207.18-350.908 2206.39-350.339 2205.28-349.829 2203.84-349.32 2202.4-348.706 2200.17-347.988 2197.14L-343.585 2197.14-343.585 2213.63-385.093 2213.63-385.093 2211.43-354.322 2156.45-370.628 2156.45C-371.796 2156.45-372.717 2156.54-373.391 2156.74-374.065 2156.93-374.671 2157.23-375.21 2157.64-375.749 2158.04-376.281 2158.63-376.805 2159.41-377.329 2160.19-377.853 2161.26-378.377 2162.62-378.901 2163.98-379.448 2165.68-380.017 2167.72L-384.419 2167.72Z" fill-rule="evenodd"/><text fill="#000000" fill-opacity="0" font-family="Arial,Arial_MSFontService,sans-serif" font-size="61.3184" x="-385.093" y="2205.97">Z</text><path d="M-320.645 2193.14C-322.172 2193.14-323.448 2193.54-324.473 2194.33-325.498 2195.13-326.31 2196.3-326.91 2197.83-327.51 2199.37-327.935 2201.25-328.186 2203.46-328.437 2205.67-328.562 2208.19-328.562 2211-328.562 2214.25-328.404 2217.06-328.088 2219.43-327.771 2221.79-327.281 2223.74-326.615 2225.26-325.95 2226.79-325.116 2227.91-324.113 2228.63-323.109 2229.35-321.91 2229.71-320.514 2229.71-319.206 2229.71-318.061 2229.38-317.079 2228.7-316.098 2228.02-315.285 2226.97-314.642 2225.54-313.998 2224.11-313.513 2222.3-313.186 2220.11-312.859 2217.92-312.695 2215.33-312.695 2212.34-312.695 2208.98-312.875 2206.09-313.235 2203.67-313.595 2201.25-314.102 2199.26-314.756 2197.7-315.411 2196.14-316.234 2194.99-317.226 2194.25-318.219 2193.51-319.358 2193.14-320.645 2193.14ZM-320.514 2189.97C-317.919 2189.97-315.7 2190.45-313.857 2191.42-312.014 2192.39-310.509 2193.78-309.342 2195.58-308.175 2197.38-307.319 2199.57-306.774 2202.17-306.229 2204.76-305.956 2207.7-305.956 2210.97-305.956 2218.23-307.243 2223.72-309.816 2227.44-312.39 2231.16-316.119 2233.02-321.005 2233.02-325.847 2233.02-329.445 2231.26-331.801 2227.75-334.156 2224.24-335.334 2218.92-335.334 2211.79-335.334 2208.06-334.969 2204.83-334.238 2202.1-333.507 2199.38-332.482 2197.11-331.163 2195.31-329.843 2193.51-328.278 2192.17-326.468 2191.29-324.658 2190.41-322.673 2189.97-320.514 2189.97Z" fill-rule="evenodd"/><text fill="#000000" fill-opacity="0" font-family="Arial,Arial_MSFontService,sans-serif" font-size="43.0527" x="-335.334" y="2227.64">0</text><path d="M-313 2173.5C-313 2153.89-296.882 2138-277 2138-257.118 2138-241 2153.89-241 2173.5-241 2193.11-257.118 2209-277 2209-296.882 2209-313 2193.11-313 2173.5Z" stroke="#0070C0" stroke-width="10.3125" stroke-miterlimit="8" fill="#FFFFFF" fill-rule="evenodd"/><path d="M-285.5 2174C-285.5 2168.75-281.247 2164.5-276 2164.5-270.753 2164.5-266.5 2168.75-266.5 2174-266.5 2179.25-270.753 2183.5-276 2183.5-281.247 2183.5-285.5 2179.25-285.5 2174Z" stroke="#0070C0" stroke-width="1.14583" stroke-miterlimit="8" fill="#0070C0" fill-rule="evenodd"/><path d="M-244.263 1791.24-226.998 1791.24-226.998 1793.22C-229.538 1793.52-230.808 1794.61-230.808 1796.51-230.808 1797.29-230.625 1798.17-230.26 1799.14-229.896 1800.11-229.241 1801.49-228.295 1803.27L-220.189 1818.71-212.206 1804.61C-211.125 1802.69-210.362 1801.12-209.916 1799.89-209.47 1798.66-209.247 1797.53-209.247 1796.51-209.247 1795.53-209.537 1794.77-210.118 1794.22-210.699 1793.66-211.557 1793.33-212.692 1793.22L-212.692 1791.24-197.332 1791.24-197.332 1793.22C-198.44 1793.63-199.412 1794.19-200.25 1794.9-201.088 1795.62-201.939 1796.59-202.803 1797.8-203.668 1799.02-204.938 1801.07-206.613 1803.96L-217.879 1823.17-217.879 1836.3C-217.879 1837.84-217.798 1839.09-217.636 1840.03-217.474 1840.98-217.204 1841.73-216.826 1842.3-216.447 1842.87-215.948 1843.31-215.326 1843.64-214.705 1843.96-213.732 1844.27-212.408 1844.57L-212.408 1846.56-230.929 1846.56-230.929 1844.57C-229.632 1844.3-228.673 1844.01-228.052 1843.7-227.43 1843.39-226.93 1842.94-226.552 1842.36-226.174 1841.78-225.897 1841.02-225.721 1840.07-225.546 1839.13-225.458 1837.87-225.458 1836.3L-225.458 1823.33-236.644 1802.54C-237.994 1800.03-239.021 1798.23-239.724 1797.15-240.426 1796.07-241.129 1795.22-241.831 1794.6-242.533 1793.98-243.344 1793.52-244.263 1793.22Z" fill-rule="evenodd"/><text fill="#000000" fill-opacity="0" font-family="Arial,Arial_MSFontService,sans-serif" font-size="55.3198" x="-244.263" y="1839.64">Y</text><path d="M-186.4 1827.72C-187.79 1827.72-188.952 1828.08-189.885 1828.81-190.819 1829.53-191.558 1830.59-192.104 1831.99-192.65 1833.39-193.038 1835.1-193.266 1837.12-193.494 1839.13-193.608 1841.42-193.608 1843.98-193.608 1846.94-193.464 1849.5-193.176 1851.65-192.889 1853.8-192.442 1855.58-191.836 1856.97-191.231 1858.36-190.471 1859.38-189.558 1860.04-188.644 1860.69-187.552 1861.02-186.281 1861.02-185.09 1861.02-184.047 1860.71-183.154 1860.09-182.26 1859.48-181.521 1858.52-180.935 1857.22-180.349 1855.92-179.907 1854.27-179.609 1852.28-179.312 1850.28-179.163 1847.92-179.163 1845.2-179.163 1842.14-179.326 1839.51-179.654 1837.31-179.982 1835.1-180.443 1833.29-181.039 1831.87-181.635 1830.45-182.384 1829.41-183.288 1828.73-184.191 1828.06-185.229 1827.72-186.4 1827.72ZM-186.281 1824.83C-183.918 1824.83-181.898 1825.27-180.22 1826.15-178.542 1827.04-177.172 1828.3-176.11 1829.94-175.047 1831.58-174.268 1833.58-173.771 1835.94-173.275 1838.3-173.027 1840.97-173.027 1843.95-173.027 1850.56-174.198 1855.56-176.541 1858.95-178.885 1862.33-182.28 1864.03-186.728 1864.03-191.136 1864.03-194.413 1862.43-196.557 1859.23-198.702 1856.03-199.774 1851.19-199.774 1844.7-199.774 1841.3-199.441 1838.36-198.776 1835.88-198.111 1833.4-197.178 1831.34-195.976 1829.7-194.775 1828.06-193.35 1826.84-191.702 1826.04-190.054 1825.23-188.247 1824.83-186.281 1824.83Z" fill-rule="evenodd"/><text fill="#000000" fill-opacity="0" font-family="Arial,Arial_MSFontService,sans-serif" font-size="39.1973" x="-199.774" y="1859.13">0</text><path d="M2.06119 2139.83 19.3258 2139.83 19.3258 2141.81C18.029 2142 17.0968 2142.35 16.5295 2142.87 15.9621 2143.38 15.6784 2144.08 15.6784 2144.97 15.6784 2145.73 15.935 2146.67 16.4484 2147.81 16.9617 2148.94 17.6912 2150.3 18.6369 2151.86L24.5133 2161.71 30.3087 2152.35C31.1733 2150.94 31.8218 2149.82 32.2541 2148.98 32.6863 2148.15 32.9903 2147.44 33.1659 2146.88 33.3415 2146.31 33.4293 2145.73 33.4293 2145.13 33.4293 2144.3 33.1862 2143.59 32.6999 2143.01 32.2135 2142.43 31.403 2142.03 30.2682 2141.81L30.2682 2139.83 45.3039 2139.83 45.3039 2141.81C44.3042 2142.14 43.4058 2142.61 42.6088 2143.23 41.8118 2143.85 40.9607 2144.76 40.0556 2145.95 39.1505 2147.13 37.8603 2149.01 36.1852 2151.58L27.026 2165.76 37.32 2182.7C38.779 2185.11 39.8259 2186.79 40.4608 2187.75 41.0958 2188.71 41.6902 2189.52 42.244 2190.18 42.7979 2190.84 43.3923 2191.42 44.0272 2191.9 44.6622 2192.39 45.4525 2192.81 46.3981 2193.16L46.3981 2195.15 28.6066 2195.15 28.6066 2193.16C29.8494 2192.94 30.7681 2192.6 31.3625 2192.13 31.9569 2191.65 32.2541 2190.94 32.2541 2190 32.2541 2189.24 32.0582 2188.4 31.6664 2187.49 31.2746 2186.57 30.6735 2185.43 29.8629 2184.08L22.5275 2171.84 14.7868 2184.53C13.4899 2186.66 12.8415 2188.42 12.8415 2189.8 12.8415 2190.69 13.0846 2191.42 13.571 2191.98 14.0573 2192.55 14.8678 2192.94 16.0026 2193.16L16.0026 2195.15 0.68326 2195.15 0.68326 2193.16C1.68293 2192.86 2.50699 2192.5 3.15543 2192.09 3.80387 2191.67 4.42528 2191.13 5.01969 2190.48 5.61409 2189.84 6.27603 2189.01 7.00553 2188.01 7.73502 2187.01 8.8968 2185.27 10.4909 2182.78L20.0553 2167.87 8.62662 2149.07C7.54589 2147.34 6.72859 2146.08 6.17472 2145.3 5.62084 2144.51 5.1075 2143.88 4.63468 2143.39 4.16186 2142.91 3.73632 2142.56 3.35806 2142.36 2.97981 2142.16 2.54752 2141.97 2.06119 2141.81Z" fill-rule="evenodd"/><text fill="#000000" fill-opacity="0" font-family="Arial,Arial_MSFontService,sans-serif" font-size="55.3198" x="0.68326" y="2188.23">X</text><path d="M66.8802 2176.31C65.4902 2176.31 64.3286 2176.67 63.3953 2177.39 62.4621 2178.12 61.7224 2179.18 61.1763 2180.58 60.6303 2181.98 60.2431 2183.69 60.0147 2185.7 59.7864 2187.72 59.6722 2190.01 59.6722 2192.57 59.6722 2195.53 59.8162 2198.08 60.1041 2200.24 60.392 2202.39 60.8388 2204.17 61.4444 2205.56 62.05 2206.95 62.8096 2207.97 63.723 2208.62 64.6364 2209.28 65.7285 2209.61 66.9993 2209.61 68.1907 2209.61 69.2332 2209.3 70.1268 2208.68 71.0203 2208.07 71.76 2207.11 72.3458 2205.81 72.9315 2204.51 73.3734 2202.86 73.6712 2200.86 73.9691 2198.87 74.118 2196.51 74.118 2193.79 74.118 2190.73 73.9542 2188.1 73.6265 2185.9 73.2989 2183.69 72.8372 2181.88 72.2415 2180.46 71.6458 2179.04 70.8962 2177.99 69.9927 2177.32 69.0893 2176.64 68.0517 2176.31 66.8802 2176.31ZM66.9993 2173.42C69.3623 2173.42 71.3827 2173.86 73.0606 2174.74 74.7385 2175.63 76.1086 2176.89 77.171 2178.53 78.2333 2180.16 79.0127 2182.16 79.5091 2184.53 80.0055 2186.89 80.2537 2189.56 80.2537 2192.54 80.2537 2199.15 79.0822 2204.15 76.7391 2207.54 74.396 2210.92 71.0005 2212.61 66.5526 2212.61 62.1444 2212.61 58.868 2211.02 56.7235 2207.82 54.5789 2204.62 53.5067 2199.78 53.5067 2193.28 53.5067 2189.89 53.8393 2186.95 54.5045 2184.47 55.1697 2181.99 56.1029 2179.93 57.3043 2178.29 58.5056 2176.65 59.9303 2175.43 61.5784 2174.62 63.2266 2173.82 65.0335 2173.42 66.9993 2173.42Z" fill-rule="evenodd"/><text fill="#000000" fill-opacity="0" font-family="Arial,Arial_MSFontService,sans-serif" font-size="39.1973" x="53.5067" y="2207.72">0</text><rect x="-329.5" y="303.5" width="107" height="834" stroke="#042433" stroke-width="6.875" stroke-miterlimit="8" fill="#D9D9D9"/><path d="M-406.5 1236.5C-406.5 1163.05-346.954 1103.5-273.5 1103.5-200.046 1103.5-140.5 1163.05-140.5 1236.5-140.5 1309.95-200.046 1369.5-273.5 1369.5-346.954 1369.5-406.5 1309.95-406.5 1236.5Z" stroke="#042433" stroke-width="6.875" stroke-miterlimit="8" fill="#96DCF8" fill-rule="evenodd"/><path d="M-10.9544 1440.53C-14.0449 1454.8-15.5901 1466.8-15.5901 1476.53-15.5901 1483.89-14.4723 1489.3-12.2366 1492.75-10.001 1496.21-6.38442 1497.93-1.38703 1497.93 5.97755 1497.93 12.964 1492.98 19.5724 1483.09 26.1808 1473.19 31.7865 1459 36.3893 1440.53ZM29.485 1374.05C21.7917 1374.05 14.6737 1378.91 8.13104 1388.65 1.58839 1398.38-3.98436 1412.32-8.58722 1430.47L38.6579 1430.47C41.7484 1416.59 43.2936 1404.66 43.2936 1394.66 43.2936 1387.76 42.1758 1382.6 39.9401 1379.18 37.7044 1375.76 34.2194 1374.05 29.485 1374.05ZM30.6686 1366.06C49.7376 1366.06 59.2721 1378.16 59.2721 1402.36 59.2721 1409.19 58.4995 1417.36 56.9543 1426.87 55.409 1436.37 52.9596 1446.05 49.6061 1455.91 46.2526 1465.78 42.0114 1474.51 36.8825 1482.1 31.7536 1489.7 25.8356 1495.56 19.1286 1499.71 12.4216 1503.85 5.18849 1505.92-2.57062 1505.92-12.3681 1505.92-19.667 1502.93-24.4671 1496.95-29.2672 1490.96-31.6673 1481.99-31.6673 1470.02-31.6673 1463.51-30.944 1455.49-29.4974 1445.95-28.0508 1436.42-25.6671 1426.67-22.3465 1416.71-19.0259 1406.75-14.7518 1397.9-9.52423 1390.18-4.2967 1382.45 1.71991 1376.5 8.52557 1372.32 15.3312 1368.15 22.7122 1366.06 30.6686 1366.06Z" fill-rule="evenodd"/><text fill="#000000" fill-opacity="0" font-family="Arial,Arial_MSFontService,sans-serif" font-size="139.861" x="-31.6673" y="1488.44">𝜃</text><path d="M29.417 1325.21C32.5075 1325.21 35.1048 1326.31 37.209 1328.51 39.3132 1330.71 40.3653 1333.49 40.3653 1336.85 40.3653 1340.2 39.3132 1342.98 37.209 1345.18 35.1048 1347.38 32.5075 1348.48 29.417 1348.48 26.2608 1348.48 23.6306 1347.38 21.5264 1345.18 19.4222 1342.98 18.3701 1340.2 18.3701 1336.85 18.3701 1333.49 19.4222 1330.71 21.5264 1328.51 23.6306 1326.31 26.2608 1325.21 29.417 1325.21Z" fill-rule="evenodd"/><text fill="#000000" fill-opacity="0" font-family="Arial,Arial_MSFontService,sans-serif" font-size="23.2773" x="18.3701" y="1345.57">ሶ</text><path d="M106.197 1452.55C111.174 1452.55 115.421 1453.11 118.938 1454.24 122.455 1455.36 125.314 1456.88 127.515 1458.79 129.716 1460.71 131.307 1463 132.288 1465.68 133.269 1468.36 133.76 1471.26 133.76 1474.37 133.76 1476.24 133.628 1477.97 133.365 1479.57 133.102 1481.18 132.647 1482.76 132.001 1484.31 131.355 1485.87 130.506 1487.43 129.453 1489.01 128.4 1490.59 127.084 1492.27 125.505 1494.04 124.309 1495.57 122.754 1497.34 120.84 1499.35 118.926 1501.36 116.832 1503.51 114.559 1505.81 112.286 1508.1 109.906 1510.5 107.417 1512.99 104.929 1515.47 102.513 1517.94 100.168 1520.38 97.8232 1522.82 95.6699 1525.19 93.708 1527.48 91.7461 1529.78 90.1431 1531.89 88.8989 1533.8L115.457 1533.8C117.706 1533.8 119.5 1533.72 120.84 1533.55 122.18 1533.38 123.292 1533.01 124.177 1532.44 125.063 1531.86 125.816 1530.99 126.438 1529.82 127.061 1528.65 127.778 1527.03 128.592 1524.97L135.267 1524.97C135.028 1528.37 134.801 1531.79 134.585 1535.24 134.37 1538.68 134.143 1542.1 133.903 1545.5L73.1079 1545.5 73.1079 1541.77C74.2563 1539.18 75.5962 1536.64 77.1274 1534.12 78.6587 1531.61 80.3813 1529.06 82.2954 1526.48 84.2095 1523.9 86.3867 1521.23 88.8271 1518.48 91.2676 1515.73 93.9712 1512.87 96.938 1509.9 101.436 1505.4 105.097 1501.56 107.92 1498.38 110.743 1495.2 112.968 1492.36 114.595 1489.87 116.222 1487.39 117.335 1485.09 117.933 1482.98 118.531 1480.88 118.83 1478.63 118.83 1476.24 118.83 1473.8 118.483 1471.55 117.789 1469.49 117.095 1467.43 116.103 1465.68 114.811 1464.25 113.519 1462.81 111.88 1461.69 109.894 1460.88 107.908 1460.06 105.623 1459.66 103.039 1459.66 98.5889 1459.66 94.8564 1460.86 91.8418 1463.28 88.8271 1465.7 86.4824 1469.2 84.8076 1473.8L75.4048 1473.8 75.4048 1459.8C81.5298 1457.26 87.1643 1455.42 92.3083 1454.27 97.4524 1453.12 102.082 1452.55 106.197 1452.55Z" fill-rule="evenodd"/><text fill="#000000" fill-opacity="0" font-family="Arial,Arial_MSFontService,sans-serif" font-size="92.9517" x="73.1079" y="1533.88">2</text><path d="M67.8909 374.751C28.0328 247.186 94.7366 110.028 216.878 68.4007 339.019 26.7729 470.346 96.4384 510.204 224.003 510.575 225.191 510.938 226.383 511.291 227.577L567.017 223.78 500.468 284.972 413.011 234.273 468.621 230.484C432.524 125.948 322.864 72.0488 223.688 110.097 127.051 147.171 75.5789 258.207 107.218 361.347Z" stroke="#042433" stroke-width="6.875" stroke-miterlimit="8" fill="#156082" fill-rule="evenodd" transform="matrix(0.769977 0.638071 0.638071 -0.769977 -673.212 1268.92)"/><path d="M-236 1225.12-45.5721 1225.13-45.5721 1238.88-236 1238.88ZM-52.447 1211.38-11.1971 1232-52.4471 1252.63Z" fill="#FF0000"/><path d="M6.875-7.0903e-06 6.87533 315.559-6.87467 315.559-6.875 7.0903e-06ZM20.6253 308.684 0.000360892 349.934-20.6247 308.684Z" fill="#4EA72E" transform="matrix(1 0 0 -1 -275 1192.93)"/><path d="M-383.342 1210.99-342.823 1210.99-342.823 1213.15-373.549 1268.17-357.332 1268.17C-355.326 1268.17-353.836 1267.99-352.863 1267.61-351.889 1267.24-351.088 1266.65-350.459 1265.86-349.83 1265.07-349.261 1263.95-348.752 1262.51-348.243 1261.08-347.629 1258.85-346.91 1255.82L-342.508 1255.82-342.508 1272.31-384.016 1272.31-384.016 1270.11-353.244 1215.12-369.551 1215.12C-370.719 1215.12-371.64 1215.22-372.314 1215.41-372.988 1215.61-373.594 1215.91-374.133 1216.31-374.672 1216.72-375.204 1217.31-375.728 1218.09-376.252 1218.87-376.776 1219.94-377.3 1221.3-377.824 1222.66-378.371 1224.36-378.94 1226.4L-383.342 1226.4Z" fill-rule="evenodd"/><text fill="#000000" fill-opacity="0" font-family="Arial,Arial_MSFontService,sans-serif" font-size="61.3184" x="-384.016" y="1264.64">Z</text><path d="M-319.017 1248.87-317.021 1248.87C-317.065 1250.07-317.097 1251.14-317.119 1252.09-317.141 1253.04-317.157 1253.96-317.168 1254.86-317.179 1255.75-317.184 1256.63-317.184 1257.51L-317.184 1282.37C-317.184 1283.05-317.163 1283.63-317.119 1284.12-317.075 1284.61-317.005 1285.03-316.906 1285.36-316.808 1285.7-316.677 1285.99-316.514 1286.23-316.35 1286.47-316.159 1286.68-315.941 1286.85-315.68 1287.11-315.331 1287.32-314.894 1287.46-314.458 1287.6-313.902 1287.72-313.226 1287.82-312.55 1287.92-311.737 1287.99-310.789 1288.05-309.84 1288.1-308.7 1288.14-307.37 1288.16L-307.37 1291.01-333.313 1291.01-333.313 1288.16C-332.026 1288.12-330.936 1288.07-330.041 1288.01-329.147 1287.96-328.384 1287.88-327.751 1287.78-327.119 1287.69-326.612 1287.58-326.23 1287.46-325.848 1287.34-325.516 1287.19-325.232 1287.02-324.927 1286.82-324.665 1286.61-324.447 1286.38-324.229 1286.15-324.055 1285.86-323.924 1285.51-323.793 1285.16-323.689 1284.74-323.613 1284.24-323.537 1283.73-323.498 1283.11-323.498 1282.37L-323.498 1258.91C-323.498 1258.06-323.662 1257.46-323.989 1257.11-324.316 1256.77-324.785 1256.59-325.396 1256.59-326.072 1256.59-327.075 1256.94-328.406 1257.64-329.736 1258.34-331.459 1259.37-333.575 1260.75-333.858 1260.24-334.12 1259.74-334.36 1259.24-334.6 1258.74-334.85 1258.23-335.112 1257.7-332.408 1256.22-329.731 1254.74-327.081 1253.27-324.431 1251.8-321.743 1250.33-319.017 1248.87Z" fill-rule="evenodd"/><text fill="#000000" fill-opacity="0" font-family="Arial,Arial_MSFontService,sans-serif" font-size="42.1367" x="-335.112" y="1285.74">1</text><path d="M-313 1232.5C-313 1212.89-296.882 1197-277 1197-257.118 1197-241 1212.89-241 1232.5-241 1252.11-257.118 1268-277 1268-296.882 1268-313 1252.11-313 1232.5Z" stroke="#0070C0" stroke-width="10.3125" stroke-miterlimit="8" fill="#FFFFFF" fill-rule="evenodd"/><path d="M-285.5 1233C-285.5 1227.75-281.247 1223.5-276 1223.5-270.753 1223.5-266.5 1227.75-266.5 1233-266.5 1238.25-270.753 1242.5-276 1242.5-281.247 1242.5-285.5 1238.25-285.5 1233Z" stroke="#0070C0" stroke-width="1.14583" stroke-miterlimit="8" fill="#0070C0" fill-rule="evenodd"/><path d="M-244.263 849.913-226.998 849.913-226.998 851.899C-229.538 852.196-230.808 853.291-230.808 855.182-230.808 855.965-230.625 856.844-230.26 857.816-229.896 858.789-229.241 860.167-228.295 861.95L-220.189 877.391-212.206 863.287C-211.125 861.369-210.362 859.795-209.916 858.566-209.47 857.337-209.247 856.209-209.247 855.182-209.247 854.209-209.537 853.446-210.118 852.892-210.699 852.338-211.557 852.007-212.692 851.899L-212.692 849.913-197.332 849.913-197.332 851.899C-198.44 852.305-199.412 852.865-200.25 853.581-201.088 854.297-201.939 855.263-202.803 856.479-203.668 857.695-204.938 859.748-206.613 862.639L-217.879 881.849-217.879 894.98C-217.879 896.52-217.798 897.763-217.636 898.708-217.474 899.654-217.204 900.41-216.826 900.978-216.447 901.545-215.948 901.991-215.326 902.315-214.705 902.639-213.732 902.95-212.408 903.247L-212.408 905.233-230.929 905.233-230.929 903.247C-229.632 902.977-228.673 902.687-228.052 902.376-227.43 902.065-226.93 901.62-226.552 901.039-226.174 900.458-225.897 899.694-225.721 898.749-225.546 897.803-225.458 896.547-225.458 894.98L-225.458 882.011-236.644 861.221C-237.994 858.708-239.021 856.911-239.724 855.83-240.426 854.75-241.129 853.899-241.831 853.277-242.533 852.656-243.344 852.196-244.263 851.899Z" fill-rule="evenodd"/><text fill="#000000" fill-opacity="0" font-family="Arial,Arial_MSFontService,sans-serif" font-size="55.3198" x="-244.263" y="898.318">Y</text><path d="M-185.86 883.714-184.043 883.714C-184.083 884.806-184.113 885.784-184.133 886.648-184.152 887.511-184.167 888.35-184.177 889.164-184.187 889.979-184.192 890.783-184.192 891.577L-184.192 914.214C-184.192 914.829-184.172 915.36-184.133 915.807-184.093 916.254-184.028 916.631-183.939 916.939-183.85 917.247-183.73 917.51-183.582 917.728-183.433 917.947-183.259 918.135-183.06 918.294-182.822 918.533-182.504 918.716-182.107 918.845-181.71 918.974-181.204 919.084-180.588 919.173-179.973 919.262-179.233 919.332-178.369 919.381-177.505 919.431-176.468 919.466-175.257 919.486L-175.257 922.077-198.876 922.077-198.876 919.486C-197.705 919.446-196.712 919.401-195.898 919.352-195.084 919.302-194.389 919.232-193.813 919.143-193.237 919.054-192.775 918.954-192.428 918.845-192.08 918.736-191.777 918.602-191.519 918.443-191.241 918.264-191.003 918.071-190.804 917.862-190.606 917.654-190.447 917.391-190.328 917.073-190.209 916.755-190.114 916.368-190.045 915.911-189.975 915.455-189.941 914.889-189.941 914.214L-189.941 892.858C-189.941 892.083-190.09 891.537-190.387 891.22-190.685 890.902-191.112 890.743-191.668 890.743-192.284 890.743-193.197 891.061-194.408 891.696-195.62 892.332-197.188 893.275-199.114 894.526-199.373 894.069-199.611 893.612-199.829 893.156-200.048 892.699-200.276 892.232-200.514 891.756-198.052 890.405-195.615 889.06-193.202 887.72-190.79 886.379-188.342 885.044-185.86 883.714Z" fill-rule="evenodd"/><text fill="#000000" fill-opacity="0" font-family="Arial,Arial_MSFontService,sans-serif" font-size="38.3633" x="-200.514" y="917.282">1</text><path d="M2.06119 1198.5 19.3258 1198.5 19.3258 1200.49C18.029 1200.68 17.0968 1201.03 16.5295 1201.54 15.9621 1202.05 15.6784 1202.76 15.6784 1203.65 15.6784 1204.41 15.935 1205.35 16.4484 1206.49 16.9617 1207.62 17.6912 1208.97 18.6369 1210.54L24.5133 1220.39 30.3087 1211.02C31.1733 1209.62 31.8218 1208.5 32.2541 1207.66 32.6863 1206.82 32.9903 1206.12 33.1659 1205.55 33.3415 1204.99 33.4293 1204.41 33.4293 1203.81 33.4293 1202.97 33.1862 1202.26 32.6999 1201.68 32.2135 1201.1 31.403 1200.7 30.2682 1200.49L30.2682 1198.5 45.3039 1198.5 45.3039 1200.49C44.3042 1200.81 43.4058 1201.28 42.6088 1201.91 41.8118 1202.53 40.9607 1203.43 40.0556 1204.62 39.1505 1205.81 37.8603 1207.69 36.1852 1210.25L27.026 1224.44 37.32 1241.38C38.779 1243.78 39.8259 1245.47 40.4608 1246.43 41.0958 1247.38 41.6902 1248.2 42.244 1248.86 42.7979 1249.52 43.3923 1250.09 44.0272 1250.58 44.6622 1251.07 45.4525 1251.48 46.3981 1251.84L46.3981 1253.82 28.6066 1253.82 28.6066 1251.84C29.8494 1251.62 30.7681 1251.28 31.3625 1250.8 31.9569 1250.33 32.2541 1249.62 32.2541 1248.67 32.2541 1247.92 32.0582 1247.08 31.6664 1246.16 31.2746 1245.24 30.6735 1244.11 29.8629 1242.76L22.5275 1230.52 14.7868 1243.2C13.4899 1245.34 12.8415 1247.09 12.8415 1248.47 12.8415 1249.36 13.0846 1250.09 13.571 1250.66 14.0573 1251.23 14.8678 1251.62 16.0026 1251.84L16.0026 1253.82 0.68326 1253.82 0.68326 1251.84C1.68293 1251.54 2.50699 1251.18 3.15543 1250.76 3.80387 1250.34 4.42528 1249.81 5.01969 1249.16 5.61409 1248.51 6.27603 1247.69 7.00553 1246.69 7.73502 1245.69 8.8968 1243.95 10.4909 1241.46L20.0553 1226.55 8.62662 1207.74C7.54589 1206.01 6.72859 1204.76 6.17472 1203.97 5.62084 1203.19 5.1075 1202.55 4.63468 1202.07 4.16186 1201.58 3.73632 1201.24 3.35806 1201.03 2.97981 1200.83 2.54752 1200.65 2.06119 1200.49Z" fill-rule="evenodd"/><text fill="#000000" fill-opacity="0" font-family="Arial,Arial_MSFontService,sans-serif" font-size="55.3198" x="0.68326" y="1246.91">X</text><path d="M67.4205 1232.3 69.2374 1232.3C69.1977 1233.39 69.1679 1234.37 69.148 1235.24 69.1282 1236.1 69.1133 1236.94 69.1034 1237.75 69.0934 1238.57 69.0885 1239.37 69.0885 1240.17L69.0885 1262.8C69.0885 1263.42 69.1083 1263.95 69.148 1264.4 69.1877 1264.84 69.2523 1265.22 69.3416 1265.53 69.431 1265.84 69.5501 1266.1 69.6991 1266.32 69.848 1266.54 70.0217 1266.72 70.2203 1266.88 70.4586 1267.12 70.7763 1267.3 71.1734 1267.43 71.5706 1267.56 72.0769 1267.67 72.6925 1267.76 73.308 1267.85 74.0477 1267.92 74.9115 1267.97 75.7752 1268.02 76.8127 1268.05 78.024 1268.07L78.024 1270.67 54.4044 1270.67 54.4044 1268.07C55.5759 1268.03 56.5688 1267.99 57.3829 1267.94 58.197 1267.89 58.892 1267.82 59.4679 1267.73 60.0437 1267.64 60.5054 1267.54 60.8529 1267.43 61.2004 1267.32 61.5032 1267.19 61.7613 1267.03 62.0393 1266.85 62.2776 1266.66 62.4762 1266.45 62.6747 1266.24 62.8336 1265.98 62.9527 1265.66 63.0719 1265.34 63.1662 1264.96 63.2357 1264.5 63.3052 1264.04 63.3399 1263.48 63.3399 1262.8L63.3399 1241.45C63.3399 1240.67 63.191 1240.13 62.8932 1239.81 62.5953 1239.49 62.1684 1239.33 61.6124 1239.33 60.9968 1239.33 60.0834 1239.65 58.8722 1240.28 57.6609 1240.92 56.0922 1241.86 54.1661 1243.11 53.908 1242.66 53.6697 1242.2 53.4513 1241.74 53.2328 1241.29 53.0045 1240.82 52.7662 1240.34 55.2284 1238.99 57.6659 1237.65 60.0785 1236.31 62.4911 1234.97 64.9384 1233.63 67.4205 1232.3Z" fill-rule="evenodd"/><text fill="#000000" fill-opacity="0" font-family="Arial,Arial_MSFontService,sans-serif" font-size="38.3633" x="52.7662" y="1265.87">1</text><path d="M1123.5 1315.5C1123.5 1242.05 1183.05 1182.5 1256.5 1182.5 1329.95 1182.5 1389.5 1242.05 1389.5 1315.5 1389.5 1388.95 1329.95 1448.5 1256.5 1448.5 1183.05 1448.5 1123.5 1388.95 1123.5 1315.5Z" stroke="#042433" stroke-width="6.875" stroke-miterlimit="8" fill="#96DCF8" fill-rule="evenodd"/><path d="M1220 1315C1220 1295.12 1236.12 1279 1256 1279 1275.88 1279 1292 1295.12 1292 1315 1292 1334.88 1275.88 1351 1256 1351 1236.12 1351 1220 1334.88 1220 1315Z" stroke="#0070C0" stroke-width="10.3125" stroke-miterlimit="8" fill="#FFFFFF" fill-rule="evenodd"/><path d="M1246.5 1315.5C1246.5 1310.53 1250.75 1306.5 1256 1306.5 1261.25 1306.5 1265.5 1310.53 1265.5 1315.5 1265.5 1320.47 1261.25 1324.5 1256 1324.5 1250.75 1324.5 1246.5 1320.47 1246.5 1315.5Z" stroke="#0070C0" stroke-width="1.14583" stroke-miterlimit="8" fill="#0070C0" fill-rule="evenodd"/><path d="M1258 418 1258 1317 861 418Z" stroke="#000000" stroke-width="13.75" stroke-miterlimit="8" fill="none" fill-rule="evenodd"/><path d="M6.26139e-06-6.875 361.884-6.87467 361.884 6.87533-6.26139e-06 6.875ZM355.009-20.6247 396.259 0.000360892 355.009 20.6253Z" fill="#156082" transform="matrix(-1 0 0 1 1257.26 418)"/><path d="M6.70576e-06-6.875 335.626-6.87467 335.626 6.87533-6.70576e-06 6.875ZM328.751-20.6247 370.001 0.000360892 328.751 20.6253Z" fill="#156082" transform="matrix(-1 0 0 1 1258 484)"/><path d="M7.33283e-06-6.875 303.985-6.87468 303.985 6.87532-7.33283e-06 6.875ZM297.11-20.6247 338.36 0.000360892 297.11 20.6253Z" fill="#156082" transform="matrix(-1 0 0 1 1257.36 549)"/><path d="M8.02964e-06-6.875 274.622-6.87468 274.622 6.87532-8.02964e-06 6.875ZM267.747-20.6247 308.997 0.000360892 267.747 20.6253Z" fill="#156082" transform="matrix(-1 0 0 1 1258 613)"/><path d="M8.87775e-06-6.875 245.103-6.87468 245.103 6.87532-8.87775e-06 6.875ZM238.228-20.6247 279.478 0.000360892 238.228 20.6253Z" fill="#156082" transform="matrix(-1 0 0 1 1257.48 677)"/><path d="M9.8916e-06-6.875 216.457-6.87469 216.457 6.87531-9.8916e-06 6.875ZM209.583-20.6247 250.832 0.000360892 209.582 20.6253Z" fill="#156082" transform="matrix(-1 0 0 1 1257.83 742)"/><path d="M1.10053e-05-6.875 191.073-6.87469 191.073 6.87531-1.10053e-05 6.875ZM184.198-20.6247 225.448 0.000360892 184.198 20.6253Z" fill="#156082" transform="matrix(-1 0 0 1 1257.45 806)"/><path d="M1258.03 877.756 1094.27 875.374 1094.47 861.626 1258.23 864.008ZM1100.95 889.223 1060 868 1101.55 847.977Z" fill="#156082"/><path d="M1.46232e-05-6.875 135.296-6.87471 135.296 6.87529-1.46232e-05 6.875ZM128.421-20.6247 169.671 0.000360892 128.421 20.6253Z" fill="#156082" transform="matrix(-1 0 0 1 1257.67 935)"/><path d="M1.73971e-05-6.875 108.242-6.87473 108.242 6.87527-1.73971e-05 6.875ZM101.368-20.6247 142.617 0.000360892 101.367 20.6253Z" fill="#156082" transform="matrix(-1 0 0 1 1257.62 1000)"/><path d="M2.2078e-05-6.875 78.0055-6.87475 78.0054 6.87525-2.2078e-05 6.875ZM71.1305-20.6248 112.38 0.000360892 71.1304 20.6252Z" fill="#156082" transform="matrix(-1 0 0 1 1257.38 1064)"/><path d="M3.02048e-05-6.875 47.7688-6.87479 47.7688 6.87521-3.02048e-05 6.875ZM40.8939-20.6248 82.1438 0.000360892 40.8937 20.6252Z" fill="#156082" transform="matrix(-1 0 0 1 1257.14 1128)"/><path d="M0.491065-6.85744 20.0223-5.4588 19.0402 8.25608-0.491065 6.85744ZM14.147-19.6647 53.8184 3.85397 11.2006 21.4799Z" fill="#156082" transform="matrix(-1 0 0 1 1257.82 1193)"/><path d="M-19.5792-20.6253 21.6705 0.000360892-19.5798 20.6247Z" fill="#156082" transform="matrix(-1 0 0 1 1239.67 1257)"/><path d="M2315.5 2269.5C2315.5 2196.05 2375.05 2136.5 2448.5 2136.5 2521.95 2136.5 2581.5 2196.05 2581.5 2269.5 2581.5 2342.95 2521.95 2402.5 2448.5 2402.5 2375.05 2402.5 2315.5 2342.95 2315.5 2269.5Z" stroke="#042433" stroke-width="6.875" stroke-miterlimit="8" fill="#96DCF8" fill-rule="evenodd"/><path d="M2412 2269.5C2412 2249.89 2428.12 2234 2448 2234 2467.88 2234 2484 2249.89 2484 2269.5 2484 2289.11 2467.88 2305 2448 2305 2428.12 2305 2412 2289.11 2412 2269.5Z" stroke="#0070C0" stroke-width="10.3125" stroke-miterlimit="8" fill="#FFFFFF" fill-rule="evenodd"/><path d="M2439.5 2270C2439.5 2264.75 2443.75 2260.5 2449 2260.5 2454.25 2260.5 2458.5 2264.75 2458.5 2270 2458.5 2275.25 2454.25 2279.5 2449 2279.5 2443.75 2279.5 2439.5 2275.25 2439.5 2270Z" stroke="#0070C0" stroke-width="1.14583" stroke-miterlimit="8" fill="#0070C0" fill-rule="evenodd"/><path d="M2315.5 1339.5C2315.5 1266.05 2375.05 1206.5 2448.5 1206.5 2521.95 1206.5 2581.5 1266.05 2581.5 1339.5 2581.5 1412.95 2521.95 1472.5 2448.5 1472.5 2375.05 1472.5 2315.5 1412.95 2315.5 1339.5Z" stroke="#042433" stroke-width="6.875" stroke-miterlimit="8" fill="#96DCF8" fill-rule="evenodd"/><path d="M2412 1339C2412 1319.12 2428.12 1303 2448 1303 2467.88 1303 2484 1319.12 2484 1339 2484 1358.88 2467.88 1375 2448 1375 2428.12 1375 2412 1358.88 2412 1339Z" stroke="#0070C0" stroke-width="10.3125" stroke-miterlimit="8" fill="#FFFFFF" fill-rule="evenodd"/><path d="M2439.5 1339.5C2439.5 1334.53 2443.75 1330.5 2449 1330.5 2454.25 1330.5 2458.5 1334.53 2458.5 1339.5 2458.5 1344.47 2454.25 1348.5 2449 1348.5 2443.75 1348.5 2439.5 1344.47 2439.5 1339.5Z" stroke="#0070C0" stroke-width="1.14583" stroke-miterlimit="8" fill="#0070C0" fill-rule="evenodd"/><path d="M0 0 0.000360892 1833" stroke="#000000" stroke-width="13.75" stroke-miterlimit="8" fill="none" fill-rule="evenodd" transform="matrix(1 0 0 -1 2448 2260)"/><path d="M2447.83 422.301 1288 411" stroke="#000000" stroke-width="13.75" stroke-miterlimit="8" fill="none" fill-rule="evenodd"/><path d="M1292 411 2021.39 1348.07" stroke="#000000" stroke-width="13.75" stroke-miterlimit="8" fill="none" fill-rule="evenodd"/><path d="M2013 1339 2438.99 2269.28" stroke="#000000" stroke-width="13.75" stroke-miterlimit="8" fill="none" fill-rule="evenodd"/><path d="M5.69791e-06-6.875 401.071-6.87467 401.071 6.87533-5.69791e-06 6.875ZM394.196-20.6247 435.446 0.000360892 394.196 20.6253Z" fill="#FF0000" transform="matrix(-1 0 0 1 2448.45 1348)"/><path d="M6.10229e-06-6.875 372.216-6.87467 372.216 6.87533-6.10229e-06 6.875ZM365.341-20.6247 406.591 0.000360892 365.341 20.6253Z" fill="#FF0000" transform="matrix(-1 0 0 1 2447.59 1418)"/><path d="M6.67294e-06-6.875 337.446-6.87467 337.446 6.87533-6.67294e-06 6.875ZM330.571-20.6247 371.821 0.000360892 330.571 20.6253Z" fill="#FF0000" transform="matrix(-1 0 0 1 2447.82 1487)"/><path d="M7.30704e-06-6.875 305.179-6.87468 305.179 6.87532-7.30704e-06 6.875ZM298.304-20.6247 339.554 0.000360892 298.304 20.6253Z" fill="#FF0000" transform="matrix(-1 0 0 1 2448.55 1555)"/><path d="M8.07883e-06-6.875 272.741-6.87468 272.741 6.87532-8.07883e-06 6.875ZM265.866-20.6247 307.116 0.000360892 265.866 20.6253Z" fill="#FF0000" transform="matrix(-1 0 0 1 2448.12 1624)"/><path d="M9.00144e-06-6.875 241.263-6.87468 241.263 6.87532-9.00144e-06 6.875ZM234.388-20.6247 275.638 0.000360892 234.388 20.6253Z" fill="#FF0000" transform="matrix(-1 0 0 1 2447.64 1692)"/><path d="M1.00149e-05-6.875 213.369-6.87469 213.369 6.87531-1.00149e-05 6.875ZM206.494-20.6247 247.744 0.000360892 206.494 20.6253Z" fill="#FF0000" transform="matrix(-1 0 0 1 2447.74 1761)"/><path d="M2447.63 1835.94 2264.27 1833.36 2264.47 1819.61 2447.82 1822.19ZM2270.96 1847.2 2230 1826 2271.54 1805.96Z" fill="#FF0000"/><path d="M1.33072e-05-6.875 152.075-6.87471 152.075 6.87529-1.33072e-05 6.875ZM145.2-20.6247 186.45 0.000360892 145.2 20.6253Z" fill="#FF0000" transform="matrix(-1 0 0 1 2448.45 1898)"/><path d="M1.58315e-05-6.875 122.346-6.87472 122.346 6.87528-1.58315e-05 6.875ZM115.471-20.6247 156.721 0.000360892 115.471 20.6253Z" fill="#FF0000" transform="matrix(-1 0 0 1 2447.72 1966)"/><path d="M2.00911e-05-6.875 89.1192-6.87474 89.1191 6.87526-2.00911e-05 6.875ZM82.2442-20.6248 123.494 0.000360892 82.2441 20.6252Z" fill="#FF0000" transform="matrix(-1 0 0 1 2448.49 2035)"/><path d="M2.74866e-05-6.875 55.8922-6.87478 55.8921 6.87522-2.74866e-05 6.875ZM49.0172-20.6248 90.2671 0.000360892 49.017 20.6252Z" fill="#FF0000" transform="matrix(-1 0 0 1 2448.27 2103)"/><path d="M0.475073-6.85857 25.3228-5.13744 24.3726 8.57969-0.475073 6.85857ZM19.4143-19.3296 59.1405 4.09649 16.5639 21.8218Z" fill="#FF0000" transform="matrix(-1 0 0 1 2448.14 2171)"/><path d="M2445.92 433.811 1326.29 420.289 1326.45 406.54 2446.08 420.062ZM1333 434.121 1292 413 1333.5 392.874Z" fill="url(#fill1)"/><path d="M2.26469e-06-6.875 1061.2-6.87465 1061.2 6.87535-2.26469e-06 6.875ZM1054.32-20.6247 1095.57 0.000360892 1054.32 20.6253Z" fill="url(#fill2)" transform="matrix(-1 0 0 1 2445.57 486)"/><path d="M2.38637e-06-6.875 1005.34-6.87465 1005.34 6.87535-2.38637e-06 6.875ZM998.463-20.6247 1039.71 0.000360892 998.463 20.6253Z" fill="url(#fill3)" transform="matrix(-1 0 0 1 2445.71 558)"/><path d="M2.51965e-06-6.875 950.337-6.87465 950.337 6.87535-2.51965e-06 6.875ZM943.463-20.6247 984.713 0.000360892 943.463 20.6253Z" fill="url(#fill4)" transform="matrix(-1 0 0 1 2445.71 629)"/><path d="M2.67613e-06-6.875 892.759-6.87465 892.759 6.87535-2.67613e-06 6.875ZM885.884-20.6247 927.134 0.000360892 885.884 20.6253Z" fill="url(#fill5)" transform="matrix(-1 0 0 1 2446.13 701)"/><path d="M2.85334e-06-6.875 835.182-6.87465 835.182 6.87535-2.85334e-06 6.875ZM828.306-20.6247 869.556 0.000360892 828.306 20.6253Z" fill="url(#fill6)" transform="matrix(-1 0 0 1 2445.56 772)"/><path d="M3.04278e-06-6.875 781.041-6.87465 781.041 6.87535-3.04278e-06 6.875ZM774.166-20.6247 815.416 0.000360892 774.166 20.6253Z" fill="url(#fill7)" transform="matrix(-1 0 0 1 2445.42 844)"/><path d="M2445.7 922.557 1715.36 920.951 1715.39 907.201 2445.73 908.807ZM1722.2 934.716 1681 914 1722.3 893.466Z" fill="url(#fill8)"/><path d="M3.53017e-06-6.875 668.463-6.87466 668.463 6.87534-3.53017e-06 6.875ZM661.588-20.6247 702.838 0.000360892 661.588 20.6253Z" fill="url(#fill9)" transform="matrix(-1 0 0 1 2445.84 987)"/><path d="M3.81179e-06-6.875 616.537-6.87466 616.537 6.87534-3.81179e-06 6.875ZM609.662-20.6247 650.912 0.000360892 609.662 20.6253Z" fill="url(#fill10)" transform="matrix(-1 0 0 1 2445.91 1058)"/><path d="M2445.92 1137.05 1882.3 1131.23 1882.45 1117.48 2446.06 1123.3ZM1889.03 1145.05 1848 1124 1889.46 1103.8Z" fill="url(#fill11)"/><path d="M4.61317e-06-6.875 503.462-6.87466 503.462 6.87534-4.61317e-06 6.875ZM496.587-20.6247 537.837 0.000360892 496.587 20.6253Z" fill="url(#fill12)" transform="matrix(-1 0 0 1 2445.84 1202)"/><path d="M2445.82 1279.99 1990.32 1276.16 1990.43 1262.41 2445.93 1266.24ZM1997.08 1289.97 1956 1269 1997.42 1248.72Z" fill="url(#fill13)"/><path d="M993.344 271.449 1029.8 271.449 1029.8 275.827C1027.06 276.483 1025.12 277.108 1023.99 277.704 1022.86 278.299 1022.01 279.074 1021.45 280.027 1020.88 280.98 1020.6 282.261 1020.6 283.869 1020.6 285.478 1020.79 287.161 1021.18 288.918 1021.57 290.675 1022.18 292.716 1023.01 295.039L1038.56 340.253 1056.79 296.915C1057.98 294.056 1058.81 291.703 1059.29 289.856 1059.76 288.009 1060 286.282 1060 284.674 1060 282.172 1059.33 280.265 1057.99 278.955 1056.65 277.644 1054.19 276.602 1050.62 275.827L1050.62 271.449 1084.04 271.449 1084.04 275.827C1081.72 276.304 1079.93 277.034 1078.68 278.017 1077.43 278.999 1076.18 280.548 1074.93 282.663 1073.67 284.778 1072.19 287.741 1070.46 291.554L1040.34 357.766 1029.8 357.766 1005.59 291.018C1003.92 286.431 1002.59 283.289 1001.61 281.591 1000.63 279.893 999.554 278.627 998.392 277.793 997.231 276.959 995.548 276.304 993.344 275.827Z" fill-rule="evenodd"/><text fill="#000000" fill-opacity="0" font-family="Arial,Arial_MSFontService,sans-serif" font-size="86.3174" x="993.344" y="346.977">v</text><path d="M1122.95 309.564C1127.48 309.564 1131.35 310.077 1134.56 311.102 1137.77 312.127 1140.37 313.512 1142.38 315.257 1144.39 317.001 1145.84 319.095 1146.73 321.538 1147.62 323.981 1148.07 326.62 1148.07 329.455 1148.07 331.156 1147.95 332.737 1147.71 334.198 1147.47 335.66 1147.06 337.099 1146.47 338.517 1145.88 339.935 1145.11 341.363 1144.15 342.802 1143.19 344.242 1141.99 345.769 1140.55 347.383 1139.46 348.778 1138.04 350.392 1136.29 352.224 1134.55 354.056 1132.64 356.019 1130.57 358.113 1128.5 360.207 1126.33 362.388 1124.06 364.656 1121.79 366.924 1119.59 369.171 1117.45 371.395 1115.31 373.62 1113.35 375.779 1111.56 377.873 1109.77 379.967 1108.31 381.886 1107.18 383.631L1131.39 383.631C1133.44 383.631 1135.07 383.554 1136.29 383.402 1137.52 383.249 1138.53 382.911 1139.34 382.387 1140.14 381.864 1140.83 381.068 1141.4 379.999 1141.97 378.931 1142.62 377.458 1143.36 375.583L1149.45 375.583C1149.23 378.68 1149.02 381.799 1148.82 384.939 1148.63 388.08 1148.42 391.199 1148.2 394.296L1092.78 394.296 1092.78 390.893C1093.83 388.538 1095.05 386.215 1096.45 383.925 1097.84 381.635 1099.41 379.312 1101.16 376.957 1102.9 374.601 1104.89 372.17 1107.11 369.661 1109.34 367.153 1111.8 364.547 1114.51 361.843 1118.61 357.742 1121.94 354.242 1124.52 351.341 1127.09 348.44 1129.12 345.856 1130.6 343.588 1132.09 341.319 1133.1 339.226 1133.64 337.306 1134.19 335.387 1134.46 333.337 1134.46 331.156 1134.46 328.931 1134.15 326.881 1133.51 325.006 1132.88 323.13 1131.98 321.538 1130.8 320.229 1129.62 318.921 1128.13 317.896 1126.32 317.154 1124.51 316.413 1122.42 316.042 1120.07 316.042 1116.01 316.042 1112.61 317.143 1109.86 319.346 1107.11 321.549 1104.98 324.744 1103.45 328.931L1094.88 328.931 1094.88 316.173C1100.46 313.861 1105.6 312.181 1110.29 311.135 1114.98 310.088 1119.2 309.564 1122.95 309.564Z" fill-rule="evenodd"/><text fill="#000000" fill-opacity="0" font-family="Arial,Arial_MSFontService,sans-serif" font-size="84.7314" x="1092.78" y="383.704">2</text><path d="M1859.08 256.143 1895.54 256.143 1895.54 260.521C1892.8 261.176 1890.87 261.802 1889.73 262.398 1888.6 262.993 1887.75 263.768 1887.19 264.721 1886.62 265.674 1886.34 266.955 1886.34 268.563 1886.34 270.172 1886.53 271.854 1886.92 273.612 1887.31 275.369 1887.92 277.409 1888.75 279.733L1904.3 324.946 1922.53 281.609C1923.72 278.75 1924.55 276.397 1925.03 274.55 1925.51 272.703 1925.74 270.976 1925.74 269.367 1925.74 266.865 1925.07 264.959 1923.73 263.649 1922.39 262.338 1919.94 261.296 1916.36 260.521L1916.36 256.143 1949.78 256.143 1949.78 260.521C1947.46 260.998 1945.67 261.727 1944.42 262.71 1943.17 263.693 1941.92 265.242 1940.67 267.357 1939.42 269.472 1937.93 272.435 1936.2 276.248L1906.09 342.46 1895.54 342.46 1871.33 275.712C1869.66 271.125 1868.33 267.982 1867.35 266.285 1866.37 264.587 1865.3 263.321 1864.13 262.487 1862.97 261.653 1861.29 260.998 1859.08 260.521Z" fill-rule="evenodd"/><text fill="#000000" fill-opacity="0" font-family="Arial,Arial_MSFontService,sans-serif" font-size="86.3174" x="1859.08" y="331.67">v</text><path d="M1989.55 294.716 1993.54 294.716C1993.46 297.115 1993.39 299.263 1993.35 301.161 1993.3 303.058 1993.27 304.901 1993.25 306.69 1993.23 308.478 1993.22 310.245 1993.22 311.99L1993.22 361.716C1993.22 363.068 1993.26 364.235 1993.35 365.217 1993.43 366.198 1993.58 367.027 1993.77 367.703 1993.97 368.379 1994.23 368.957 1994.56 369.437 1994.88 369.917 1995.27 370.331 1995.7 370.68 1996.23 371.203 1996.92 371.607 1997.8 371.89 1998.67 372.174 1999.78 372.414 2001.13 372.61 2002.49 372.806 2004.11 372.959 2006.01 373.068 2007.91 373.177 2010.18 373.254 2012.85 373.297L2012.85 378.99 1960.96 378.99 1960.96 373.297C1963.53 373.21 1965.71 373.112 1967.5 373.003 1969.29 372.894 1970.82 372.741 1972.08 372.545 1973.35 372.348 1974.36 372.13 1975.12 371.89 1975.89 371.65 1976.55 371.356 1977.12 371.007 1977.73 370.615 1978.25 370.189 1978.69 369.731 1979.13 369.273 1979.48 368.695 1979.74 367.997 1980 367.299 1980.21 366.449 1980.36 365.446 1980.51 364.442 1980.59 363.199 1980.59 361.716L1980.59 314.803C1980.59 313.102 1980.26 311.902 1979.61 311.204 1978.95 310.506 1978.01 310.157 1976.79 310.157 1975.44 310.157 1973.43 310.855 1970.77 312.251 1968.11 313.647 1964.67 315.719 1960.44 318.467 1959.87 317.464 1959.35 316.461 1958.87 315.457 1958.39 314.454 1957.88 313.429 1957.36 312.382 1962.77 309.416 1968.12 306.461 1973.42 303.516 1978.72 300.572 1984.1 297.639 1989.55 294.716Z" fill-rule="evenodd"/><text fill="#000000" fill-opacity="0" font-family="Arial,Arial_MSFontService,sans-serif" font-size="84.2734" x="1957.36" y="368.455">1</text><path d="M2066.18 301.259 2076.78 301.259 2076.78 335.675 2109.16 335.675 2109.16 345.686 2076.78 345.686 2076.78 380.102 2066.18 380.102 2066.18 345.686 2033.79 345.686 2033.79 335.675 2066.18 335.675Z" fill-rule="evenodd"/><text fill="#000000" fill-opacity="0" font-family="Arial,Arial_MSFontService,sans-serif" font-size="78.8428" x="2033.79" y="370.246">+</text><path d="M2159.19 294.258C2163.72 294.258 2167.6 294.771 2170.8 295.796 2174.01 296.821 2176.61 298.206 2178.62 299.95 2180.63 301.695 2182.08 303.789 2182.97 306.232 2183.87 308.674 2184.31 311.313 2184.31 314.149 2184.31 315.85 2184.19 317.431 2183.95 318.892 2183.71 320.354 2183.3 321.793 2182.71 323.211 2182.12 324.628 2181.35 326.057 2180.39 327.496 2179.43 328.936 2178.23 330.462 2176.79 332.076 2175.7 333.472 2174.28 335.086 2172.54 336.918 2170.79 338.75 2168.88 340.713 2166.81 342.807 2164.74 344.901 2162.57 347.082 2160.3 349.35 2158.03 351.618 2155.83 353.865 2153.69 356.089 2151.55 358.314 2149.59 360.473 2147.8 362.567 2146.02 364.66 2144.55 366.58 2143.42 368.324L2167.63 368.324C2169.68 368.324 2171.31 368.248 2172.54 368.095 2173.76 367.943 2174.77 367.605 2175.58 367.081 2176.39 366.558 2177.07 365.762 2177.64 364.693 2178.21 363.624 2178.86 362.152 2179.6 360.277L2185.69 360.277C2185.47 363.374 2185.26 366.492 2185.07 369.633 2184.87 372.774 2184.66 375.892 2184.44 378.99L2129.03 378.99 2129.03 375.587C2130.07 373.232 2131.29 370.909 2132.69 368.619 2134.08 366.329 2135.66 364.006 2137.4 361.651 2139.15 359.295 2141.13 356.863 2143.35 354.355 2145.58 351.847 2148.04 349.241 2150.75 346.536 2154.85 342.436 2158.19 338.936 2160.76 336.035 2163.33 333.134 2165.36 330.55 2166.84 328.281 2168.33 326.013 2169.34 323.92 2169.89 322 2170.43 320.081 2170.7 318.031 2170.7 315.85 2170.7 313.625 2170.39 311.575 2169.76 309.699 2169.12 307.824 2168.22 306.232 2167.04 304.923 2165.86 303.615 2164.37 302.589 2162.56 301.848 2160.75 301.106 2158.66 300.736 2156.31 300.736 2152.25 300.736 2148.85 301.837 2146.1 304.04 2143.35 306.243 2141.22 309.438 2139.69 313.625L2131.12 313.625 2131.12 300.866C2136.7 298.555 2141.84 296.875 2146.53 295.828 2151.22 294.781 2155.44 294.258 2159.19 294.258Z" fill-rule="evenodd"/><text fill="#000000" fill-opacity="0" font-family="Arial,Arial_MSFontService,sans-serif" font-size="84.7314" x="2129.03" y="368.398">2</text></g></svg>