<svg width="3596" height="1790" xmlns="http://www.w3.org/2000/svg" xmlns:xlink="http://www.w3.org/1999/xlink" xml:space="preserve" overflow="hidden"><defs><clipPath id="clip0"><rect x="-916" y="671" width="3596" height="1790"/></clipPath></defs><g clip-path="url(#clip0)" transform="translate(916 -671)"><path d="M1185.25 943.976 1308.51 804.678 2386.94 1758.93 2263.68 1898.22Z" stroke="#042433" stroke-width="6.875" stroke-miterlimit="8" fill="#D9D9D9" fill-rule="evenodd"/><path d="M1286.07 834.355 1374.7 734.196 1385 743.308 1296.37 843.467ZM1359.85 730.233 1402.63 713.008 1390.74 757.568Z" fill="#FF0000"/><path d="M6.875-1.98469e-05 6.87526 90.6385-6.87474 90.6385-6.875 1.98469e-05ZM20.6252 83.7634 0.000360892 125.013-20.6248 83.7635Z" fill="#4EA72E" transform="matrix(0.662673 -0.748909 -0.748909 -0.662673 1203.19 835.633)"/><path d="M1210.45 930.194C1184.92 907.606 1182.6 868.531 1205.27 842.917 1227.93 817.304 1267 814.852 1292.52 837.44 1318.05 860.028 1320.37 899.103 1297.71 924.717 1275.05 950.33 1235.98 952.782 1210.45 930.194Z" stroke="#0070C0" stroke-width="10.3125" stroke-miterlimit="8" fill="#FFFFFF" fill-rule="evenodd"/><path d="M1240.65 896.061C1233.92 890.098 1233.3 879.782 1239.29 873.02 1245.27 866.258 1255.58 865.611 1262.32 871.574 1269.06 877.537 1269.67 887.853 1263.69 894.615 1257.71 901.377 1247.39 902.024 1240.65 896.061Z" stroke="#0070C0" stroke-width="1.14583" stroke-miterlimit="8" fill="#0070C0" fill-rule="evenodd"/><path d="M-712.983 1067.52-589.726 928.227 488.704 1882.48 365.447 2021.77Z" stroke="#042433" stroke-width="6.875" stroke-miterlimit="8" fill="#D9D9D9" fill-rule="evenodd"/><path d="M-612.158 957.904-523.532 857.745-513.235 866.857-601.861 967.016ZM-538.386 853.782-495.604 836.557-507.493 881.117Z" fill="#FF0000"/><path d="M6.875-1.98469e-05 6.87526 90.6385-6.87474 90.6385-6.875 1.98469e-05ZM20.6252 83.7634 0.000360892 125.013-20.6248 83.7635Z" fill="#4EA72E" transform="matrix(0.662673 -0.748909 -0.748909 -0.662673 -695.042 959.182)"/><path d="M-687.782 1053.74C-713.309 1031.15-715.631 992.08-692.967 966.466-670.303 940.853-631.236 938.401-605.708 960.989-580.18 983.577-577.859 1022.65-600.523 1048.27-623.187 1073.88-662.254 1076.33-687.782 1053.74Z" stroke="#0070C0" stroke-width="10.3125" stroke-miterlimit="8" fill="#FFFFFF" fill-rule="evenodd"/><path d="M-657.578 1019.61C-664.317 1013.65-664.93 1003.33-658.947 996.569-652.964 989.807-642.651 989.16-635.911 995.123-629.172 1001.09-628.559 1011.4-634.542 1018.16-640.526 1024.93-650.839 1025.57-657.578 1019.61Z" stroke="#0070C0" stroke-width="1.14583" stroke-miterlimit="8" fill="#0070C0" fill-rule="evenodd"/><path d="M352.5 2068.5C352.5 1941.47 455.474 1838.5 582.5 1838.5 709.526 1838.5 812.5 1941.47 812.5 2068.5 812.5 2195.53 709.526 2298.5 582.5 2298.5 455.474 2298.5 352.5 2195.53 352.5 2068.5Z" stroke="#042433" stroke-width="6.875" stroke-miterlimit="8" fill="#96DCF8" fill-rule="evenodd"/><path d="M988.719 2309.5C985.628 2323.76 984.083 2335.77 984.083 2345.5 984.083 2352.86 985.201 2358.27 987.436 2361.72 989.672 2365.17 993.289 2366.9 998.286 2366.9 1005.65 2366.9 1012.64 2361.95 1019.25 2352.06 1025.85 2342.16 1031.46 2327.97 1036.06 2309.5ZM1029.16 2243.02C1021.46 2243.02 1014.35 2247.88 1007.8 2257.62 1001.26 2267.35 995.689 2281.29 991.086 2299.44L1038.33 2299.44C1041.42 2285.56 1042.97 2273.63 1042.97 2263.63 1042.97 2256.73 1041.85 2251.57 1039.61 2248.15 1037.38 2244.73 1033.89 2243.02 1029.16 2243.02ZM1030.34 2235.03C1049.41 2235.03 1058.95 2247.13 1058.95 2271.33 1058.95 2278.16 1058.17 2286.33 1056.63 2295.84 1055.08 2305.34 1052.63 2315.02 1049.28 2324.88 1045.93 2334.75 1041.68 2343.48 1036.56 2351.07 1031.43 2358.66 1025.51 2364.53 1018.8 2368.68 1012.09 2372.82 1004.86 2374.89 997.102 2374.89 987.305 2374.89 980.006 2371.9 975.206 2365.91 970.406 2359.93 968.006 2350.95 968.006 2338.99 968.006 2332.48 968.729 2324.46 970.176 2314.92 971.622 2305.39 974.006 2295.64 977.326 2285.68 980.647 2275.71 984.921 2266.87 990.149 2259.14 995.376 2251.42 1001.39 2245.47 1008.2 2241.29 1015 2237.12 1022.39 2235.03 1030.34 2235.03Z" fill-rule="evenodd"/><text fill="#000000" fill-opacity="0" font-family="Arial,Arial_MSFontService,sans-serif" font-size="139.861" x="968.006" y="2357.41">𝜃</text><path d="M1029.09 2194.18C1032.18 2194.18 1034.78 2195.28 1036.88 2197.48 1038.99 2199.68 1040.04 2202.46 1040.04 2205.81 1040.04 2209.17 1038.99 2211.95 1036.88 2214.15 1034.78 2216.35 1032.18 2217.45 1029.09 2217.45 1025.93 2217.45 1023.3 2216.35 1021.2 2214.15 1019.1 2211.95 1018.04 2209.17 1018.04 2205.81 1018.04 2202.46 1019.1 2199.68 1021.2 2197.48 1023.3 2195.28 1025.93 2194.18 1029.09 2194.18Z" fill-rule="evenodd"/><text fill="#000000" fill-opacity="0" font-family="Arial,Arial_MSFontService,sans-serif" font-size="23.2773" x="1018.04" y="2214.54">ሶ</text><path d="M1106.79 2322.02 1111.17 2322.02C1111.08 2324.65 1111 2327.01 1110.96 2329.09 1110.91 2331.17 1110.87 2333.19 1110.85 2335.16 1110.83 2337.12 1110.81 2339.06 1110.81 2340.97L1110.81 2395.52C1110.81 2397 1110.86 2398.28 1110.96 2399.36 1111.05 2400.44 1111.21 2401.35 1111.42 2402.09 1111.64 2402.83 1111.93 2403.46 1112.28 2403.99 1112.64 2404.52 1113.06 2404.97 1113.54 2405.35 1114.12 2405.93 1114.88 2406.37 1115.84 2406.68 1116.79 2406.99 1118.02 2407.26 1119.5 2407.47 1120.98 2407.69 1122.76 2407.85 1124.85 2407.97 1126.93 2408.09 1129.43 2408.18 1132.35 2408.23L1132.35 2414.47 1075.43 2414.47 1075.43 2408.23C1078.25 2408.13 1080.64 2408.02 1082.6 2407.9 1084.57 2407.78 1086.24 2407.61 1087.63 2407.4 1089.02 2407.18 1090.13 2406.95 1090.97 2406.68 1091.8 2406.42 1092.53 2406.1 1093.16 2405.71 1093.83 2405.28 1094.4 2404.82 1094.88 2404.31 1095.36 2403.81 1095.74 2403.18 1096.03 2402.41 1096.31 2401.65 1096.54 2400.71 1096.71 2399.61 1096.88 2398.51 1096.96 2397.15 1096.96 2395.52L1096.96 2344.06C1096.96 2342.19 1096.6 2340.87 1095.88 2340.11 1095.17 2339.34 1094.14 2338.96 1092.8 2338.96 1091.31 2338.96 1089.11 2339.73 1086.19 2341.26 1083.27 2342.79 1079.49 2345.06 1074.85 2348.08 1074.23 2346.98 1073.66 2345.87 1073.13 2344.77 1072.6 2343.67 1072.05 2342.55 1071.48 2341.4 1077.41 2338.15 1083.29 2334.9 1089.1 2331.67 1094.91 2328.44 1100.81 2325.23 1106.79 2322.02Z" fill-rule="evenodd"/><text fill="#000000" fill-opacity="0" font-family="Arial,Arial_MSFontService,sans-serif" font-size="92.4492" x="1071.48" y="2402.91">1</text><path d="M117.318 647.583C48.4417 427.146 163.708 190.133 374.773 118.199 585.837 46.2646 812.774 166.649 881.65 387.085 882.292 389.139 882.918 391.198 883.53 393.261L979.826 386.7 864.827 492.441 713.698 404.833 809.794 398.285C747.417 217.643 557.92 124.503 386.54 190.252 219.548 254.317 130.603 446.191 185.277 624.421Z" stroke="#042433" stroke-width="6.875" stroke-miterlimit="8" fill="#156082" fill-rule="evenodd" transform="matrix(0.769977 0.638071 0.638071 -0.769977 -108.324 2124.11)"/><path d="M636 2054.13 990.092 2054.13 990.092 2067.88 636 2067.88ZM983.217 2040.38 1024.47 2061 983.217 2081.63Z" fill="#FF0000"/><path d="M6.875-4.1031e-06 6.87534 570.323-6.87466 570.323-6.875 4.1031e-06ZM20.6253 563.448 0.000360892 604.698-20.6247 563.448Z" fill="#4EA72E" transform="matrix(1 0 0 -1 581 1992.7)"/><path d="M420.874 1994.75 461.393 1994.75 461.393 1996.9 430.667 2051.93 446.884 2051.93C448.89 2051.93 450.38 2051.75 451.353 2051.37 452.327 2051 453.128 2050.41 453.757 2049.62 454.386 2048.83 454.955 2047.71 455.464 2046.27 455.973 2044.84 456.587 2042.6 457.305 2039.58L461.708 2039.58 461.708 2056.07 420.2 2056.07 420.2 2053.86 450.971 1998.88 434.665 1998.88C433.497 1998.88 432.576 1998.98 431.902 1999.17 431.228 1999.37 430.622 1999.67 430.083 2000.07 429.544 2000.48 429.012 2001.07 428.488 2001.85 427.964 2002.62 427.44 2003.69 426.916 2005.06 426.392 2006.42 425.845 2008.12 425.276 2010.16L420.874 2010.16Z" fill-rule="evenodd"/><text fill="#000000" fill-opacity="0" font-family="Arial,Arial_MSFontService,sans-serif" font-size="61.3184" x="420.2" y="2048.4">Z</text><path d="M484.648 2035.57C483.121 2035.57 481.846 2035.97 480.82 2036.77 479.795 2037.56 478.983 2038.73 478.383 2040.27 477.783 2041.81 477.358 2043.68 477.107 2045.9 476.857 2048.11 476.731 2050.62 476.731 2053.44 476.731 2056.69 476.889 2059.49 477.205 2061.86 477.522 2064.23 478.012 2066.17 478.678 2067.7 479.343 2069.23 480.177 2070.35 481.18 2071.07 482.184 2071.79 483.383 2072.15 484.779 2072.15 486.088 2072.15 487.233 2071.81 488.214 2071.13 489.195 2070.46 490.008 2069.41 490.651 2067.98 491.295 2066.55 491.78 2064.74 492.107 2062.55 492.434 2060.36 492.598 2057.77 492.598 2054.78 492.598 2051.42 492.418 2048.53 492.058 2046.11 491.698 2043.69 491.191 2041.7 490.537 2040.14 489.882 2038.58 489.059 2037.43 488.067 2036.69 487.074 2035.94 485.935 2035.57 484.648 2035.57ZM484.779 2032.4C487.374 2032.4 489.594 2032.89 491.436 2033.86 493.279 2034.83 494.784 2036.21 495.951 2038.01 497.118 2039.81 497.974 2042.01 498.519 2044.6 499.064 2047.2 499.337 2050.13 499.337 2053.4 499.337 2060.67 498.05 2066.16 495.477 2069.88 492.903 2073.59 489.174 2075.45 484.288 2075.45 479.446 2075.45 475.848 2073.7 473.492 2070.19 471.137 2066.67 469.959 2061.35 469.959 2054.22 469.959 2050.49 470.324 2047.26 471.055 2044.54 471.786 2041.81 472.811 2039.55 474.13 2037.75 475.45 2035.95 477.015 2034.61 478.825 2033.73 480.635 2032.84 482.62 2032.4 484.779 2032.4Z" fill-rule="evenodd"/><text fill="#000000" fill-opacity="0" font-family="Arial,Arial_MSFontService,sans-serif" font-size="43.0527" x="469.959" y="2070.07">0</text><path d="M515 2060.5C515 2026.53 542.534 1999 576.5 1999 610.466 1999 638 2026.53 638 2060.5 638 2094.47 610.466 2122 576.5 2122 542.534 2122 515 2094.47 515 2060.5Z" stroke="#0070C0" stroke-width="10.3125" stroke-miterlimit="8" fill="#FFFFFF" fill-rule="evenodd"/><path d="M560.5 2061C560.5 2051.89 567.888 2044.5 577 2044.5 586.113 2044.5 593.5 2051.89 593.5 2061 593.5 2070.11 586.113 2077.5 577 2077.5 567.888 2077.5 560.5 2070.11 560.5 2061Z" stroke="#0070C0" stroke-width="1.14583" stroke-miterlimit="8" fill="#0070C0" fill-rule="evenodd"/><path d="M608.36 1372.25 625.625 1372.25 625.625 1374.24C623.085 1374.54 621.815 1375.63 621.815 1377.52 621.815 1378.3 621.998 1379.18 622.363 1380.16 622.727 1381.13 623.383 1382.51 624.328 1384.29L632.434 1399.73 640.417 1385.63C641.498 1383.71 642.261 1382.13 642.707 1380.9 643.153 1379.68 643.376 1378.55 643.376 1377.52 643.376 1376.55 643.086 1375.78 642.505 1375.23 641.924 1374.68 641.066 1374.35 639.931 1374.24L639.931 1372.25 655.291 1372.25 655.291 1374.24C654.183 1374.64 653.211 1375.2 652.373 1375.92 651.535 1376.64 650.684 1377.6 649.82 1378.82 648.955 1380.03 647.685 1382.09 646.01 1384.98L634.744 1404.19 634.744 1417.32C634.744 1418.86 634.825 1420.1 634.987 1421.05 635.149 1421.99 635.419 1422.75 635.797 1423.32 636.176 1423.88 636.675 1424.33 637.297 1424.65 637.918 1424.98 638.891 1425.29 640.215 1425.59L640.215 1427.57 621.694 1427.57 621.694 1425.59C622.991 1425.32 623.95 1425.03 624.571 1424.71 625.193 1424.4 625.693 1423.96 626.071 1423.38 626.449 1422.8 626.726 1422.03 626.902 1421.09 627.077 1420.14 627.165 1418.89 627.165 1417.32L627.165 1404.35 615.979 1383.56C614.629 1381.05 613.602 1379.25 612.899 1378.17 612.197 1377.09 611.494 1376.24 610.792 1375.62 610.09 1374.99 609.279 1374.54 608.36 1374.24Z" fill-rule="evenodd"/><text fill="#000000" fill-opacity="0" font-family="Arial,Arial_MSFontService,sans-serif" font-size="55.3198" x="608.36" y="1420.66">Y</text><path d="M666.223 1408.73C664.833 1408.73 663.671 1409.1 662.738 1409.82 661.805 1410.55 661.065 1411.61 660.519 1413.01 659.973 1414.41 659.586 1416.11 659.357 1418.13 659.129 1420.15 659.015 1422.43 659.015 1425 659.015 1427.95 659.159 1430.51 659.447 1432.67 659.734 1434.82 660.181 1436.59 660.787 1437.98 661.393 1439.37 662.152 1440.39 663.065 1441.05 663.979 1441.71 665.071 1442.03 666.342 1442.03 667.533 1442.03 668.576 1441.73 669.469 1441.11 670.363 1440.49 671.102 1439.54 671.688 1438.24 672.274 1436.93 672.716 1435.29 673.014 1433.29 673.312 1431.3 673.46 1428.94 673.46 1426.22 673.46 1423.16 673.297 1420.53 672.969 1418.32 672.641 1416.12 672.18 1414.31 671.584 1412.89 670.988 1411.47 670.239 1410.42 669.335 1409.75 668.432 1409.07 667.394 1408.73 666.223 1408.73ZM666.342 1405.84C668.705 1405.84 670.725 1406.29 672.403 1407.17 674.081 1408.05 675.451 1409.31 676.513 1410.95 677.576 1412.59 678.355 1414.59 678.852 1416.95 679.348 1419.32 679.596 1421.99 679.596 1424.97 679.596 1431.58 678.425 1436.58 676.082 1439.96 673.738 1443.35 670.343 1445.04 665.895 1445.04 661.487 1445.04 658.21 1443.44 656.066 1440.25 653.921 1437.05 652.849 1432.2 652.849 1425.71 652.849 1422.32 653.182 1419.38 653.847 1416.89 654.512 1414.41 655.445 1412.35 656.647 1410.71 657.848 1409.08 659.273 1407.85 660.921 1407.05 662.569 1406.25 664.376 1405.84 666.342 1405.84Z" fill-rule="evenodd"/><text fill="#000000" fill-opacity="0" font-family="Arial,Arial_MSFontService,sans-serif" font-size="39.1973" x="652.849" y="1440.14">0</text><path d="M1032.93 1974.63 1050.19 1974.63 1050.19 1976.61C1048.89 1976.8 1047.96 1977.15 1047.39 1977.66 1046.83 1978.18 1046.54 1978.88 1046.54 1979.77 1046.54 1980.53 1046.8 1981.47 1047.31 1982.61 1047.83 1983.74 1048.56 1985.09 1049.5 1986.66L1055.38 1996.51 1061.17 1987.15C1062.04 1985.74 1062.69 1984.62 1063.12 1983.78 1063.55 1982.95 1063.85 1982.24 1064.03 1981.68 1064.21 1981.11 1064.29 1980.53 1064.29 1979.93 1064.29 1979.1 1064.05 1978.39 1063.56 1977.81 1063.08 1977.23 1062.27 1976.83 1061.13 1976.61L1061.13 1974.63 1076.17 1974.63 1076.17 1976.61C1075.17 1976.94 1074.27 1977.41 1073.47 1978.03 1072.68 1978.65 1071.82 1979.56 1070.92 1980.74 1070.01 1981.93 1068.72 1983.81 1067.05 1986.38L1057.89 2000.56 1068.18 2017.5C1069.64 2019.91 1070.69 2021.59 1071.32 2022.55 1071.96 2023.51 1072.55 2024.32 1073.11 2024.98 1073.66 2025.64 1074.26 2026.22 1074.89 2026.7 1075.53 2027.19 1076.32 2027.61 1077.26 2027.96L1077.26 2029.95 1059.47 2029.95 1059.47 2027.96C1060.71 2027.74 1061.63 2027.4 1062.23 2026.93 1062.82 2026.45 1063.12 2025.74 1063.12 2024.8 1063.12 2024.04 1062.92 2023.2 1062.53 2022.29 1062.14 2021.37 1061.54 2020.23 1060.73 2018.88L1053.39 2006.64 1045.65 2019.33C1044.35 2021.46 1043.71 2023.22 1043.71 2024.6 1043.71 2025.49 1043.95 2026.22 1044.44 2026.78 1044.92 2027.35 1045.73 2027.74 1046.87 2027.96L1046.87 2029.95 1031.55 2029.95 1031.55 2027.96C1032.55 2027.66 1033.37 2027.3 1034.02 2026.89 1034.67 2026.47 1035.29 2025.93 1035.88 2025.28 1036.48 2024.64 1037.14 2023.81 1037.87 2022.81 1038.6 2021.81 1039.76 2020.07 1041.35 2017.58L1050.92 2002.67 1039.49 1983.87C1038.41 1982.14 1037.59 1980.88 1037.04 1980.1 1036.48 1979.31 1035.97 1978.68 1035.5 1978.19 1035.03 1977.71 1034.6 1977.36 1034.22 1977.16 1033.84 1976.96 1033.41 1976.77 1032.93 1976.61Z" fill-rule="evenodd"/><text fill="#000000" fill-opacity="0" font-family="Arial,Arial_MSFontService,sans-serif" font-size="55.3198" x="1031.55" y="2023.03">X</text><path d="M1097.74 2011.11C1096.35 2011.11 1095.19 2011.47 1094.26 2012.19 1093.33 2012.92 1092.59 2013.98 1092.04 2015.38 1091.49 2016.78 1091.11 2018.49 1090.88 2020.5 1090.65 2022.52 1090.54 2024.81 1090.54 2027.37 1090.54 2030.33 1090.68 2032.88 1090.97 2035.04 1091.26 2037.19 1091.7 2038.97 1092.31 2040.36 1092.91 2041.75 1093.67 2042.77 1094.59 2043.42 1095.5 2044.08 1096.59 2044.41 1097.86 2044.41 1099.05 2044.41 1100.1 2044.1 1100.99 2043.48 1101.88 2042.87 1102.62 2041.91 1103.21 2040.61 1103.8 2039.31 1104.24 2037.66 1104.54 2035.66 1104.83 2033.67 1104.98 2031.31 1104.98 2028.59 1104.98 2025.53 1104.82 2022.9 1104.49 2020.7 1104.16 2018.49 1103.7 2016.68 1103.11 2015.26 1102.51 2013.84 1101.76 2012.79 1100.86 2012.12 1099.95 2011.44 1098.92 2011.11 1097.74 2011.11ZM1097.86 2008.22C1100.23 2008.22 1102.25 2008.66 1103.92 2009.54 1105.6 2010.43 1106.97 2011.69 1108.04 2013.33 1109.1 2014.96 1109.88 2016.96 1110.37 2019.33 1110.87 2021.69 1111.12 2024.36 1111.12 2027.34 1111.12 2033.95 1109.95 2038.95 1107.6 2042.34 1105.26 2045.72 1101.86 2047.41 1097.42 2047.41 1093.01 2047.41 1089.73 2045.82 1087.59 2042.62 1085.44 2039.42 1084.37 2034.58 1084.37 2028.08 1084.37 2024.69 1084.7 2021.75 1085.37 2019.27 1086.03 2016.79 1086.97 2014.73 1088.17 2013.09 1089.37 2011.45 1090.79 2010.23 1092.44 2009.42 1094.09 2008.62 1095.9 2008.22 1097.86 2008.22Z" fill-rule="evenodd"/><text fill="#000000" fill-opacity="0" font-family="Arial,Arial_MSFontService,sans-serif" font-size="39.1973" x="1084.37" y="2042.51">0</text><path d="M2216.5 1970.5C2216.5 1843.47 2319.47 1740.5 2446.5 1740.5 2573.53 1740.5 2676.5 1843.47 2676.5 1970.5 2676.5 2097.53 2573.53 2200.5 2446.5 2200.5 2319.47 2200.5 2216.5 2097.53 2216.5 1970.5Z" stroke="#042433" stroke-width="6.875" stroke-miterlimit="8" fill="#96DCF8" fill-rule="evenodd"/><path d="M2384 1970C2384 1935.76 2411.76 1908 2446 1908 2480.24 1908 2508 1935.76 2508 1970 2508 2004.24 2480.24 2032 2446 2032 2411.76 2032 2384 2004.24 2384 1970Z" stroke="#0070C0" stroke-width="10.3125" stroke-miterlimit="8" fill="#FFFFFF" fill-rule="evenodd"/><path d="M2430.5 1962C2430.5 1952.89 2437.66 1945.5 2446.5 1945.5 2455.34 1945.5 2462.5 1952.89 2462.5 1962 2462.5 1971.11 2455.34 1978.5 2446.5 1978.5 2437.66 1978.5 2430.5 1971.11 2430.5 1962Z" stroke="#0070C0" stroke-width="1.14583" stroke-miterlimit="8" fill="#0070C0" fill-rule="evenodd"/><path d="M1249.92 879.383 2428.53 1955.64 788.183 1385.03Z" stroke="#042433" stroke-width="13.75" stroke-miterlimit="8" fill="none" fill-rule="evenodd"/><path d="M3.62341e-06-6.875 650.376-6.87466 650.376 6.87534-3.62341e-06 6.875ZM643.501-20.6247 684.751 0.000360892 643.501 20.6253Z" fill="#FF0000" transform="matrix(-0.674317 0.738442 0.738442 0.674317 1249.92 879.383)"/><path d="M3.88057e-06-6.875 604.999-6.87466 604.999 6.87534-3.88057e-06 6.875ZM598.124-20.6247 639.374 0.000360892 598.124 20.6253Z" fill="#FF0000" transform="matrix(-0.674317 0.738442 0.738442 0.674317 1336.14 958.111)"/><path d="M4.24345e-06-6.875 550.323-6.87466 550.323 6.87534-4.24345e-06 6.875ZM543.448-20.6247 584.698 0.000360892 543.448 20.6253Z" fill="#FF0000" transform="matrix(-0.674317 0.738442 0.738442 0.674317 1420.61 1035.25)"/><path d="M4.64669e-06-6.875 499.583-6.87466 499.583 6.87534-4.64669e-06 6.875ZM492.708-20.6247 533.958 0.000360892 492.708 20.6253Z" fill="#FF0000" transform="matrix(-0.674317 0.738442 0.738442 0.674317 1505.09 1112.4)"/><path d="M5.13748e-06-6.875 448.573-6.87466 448.573 6.87534-5.13748e-06 6.875ZM441.698-20.6247 482.948 0.000360892 441.698 20.6253Z" fill="#FF0000" transform="matrix(-0.674317 0.738442 0.738442 0.674317 1589.57 1189.54)"/><path d="M5.72419e-06-6.875 399.073-6.87467 399.073 6.87533-5.72419e-06 6.875ZM392.198-20.6247 433.448 0.000360892 392.198 20.6253Z" fill="#FF0000" transform="matrix(-0.674317 0.738442 0.738442 0.674317 1674.05 1266.68)"/><path d="M6.36869e-06-6.875 355.208-6.87467 355.208 6.87533-6.36869e-06 6.875ZM348.333-20.6247 389.583 0.000360892 348.333 20.6253Z" fill="#FF0000" transform="matrix(-0.674317 0.738442 0.738442 0.674317 1758.53 1343.82)"/><path d="M1848.01 1425.67 1636.92 1650.01 1626.9 1640.59 1838 1416.25ZM1651.64 1654.43 1608.35 1670.34 1621.6 1626.16Z" fill="#FF0000"/><path d="M8.46233e-06-6.875 258.823-6.87468 258.823 6.87532-8.46233e-06 6.875ZM251.948-20.6247 293.198 0.000360892 251.948 20.6253Z" fill="#FF0000" transform="matrix(-0.674317 0.738442 0.738442 0.674317 1927.48 1498.11)"/><path d="M1.00676e-05-6.875 212.073-6.87469 212.073 6.87531-1.00676e-05 6.875ZM205.198-20.6247 246.448 0.000360892 205.198 20.6253Z" fill="#FF0000" transform="matrix(-0.674317 0.738442 0.738442 0.674317 2011.96 1575.25)"/><path d="M1.27763e-05-6.875 159.823-6.8747 159.823 6.8753-1.27763e-05 6.875ZM152.948-20.6247 194.198 0.000360892 152.948 20.6253Z" fill="#FF0000" transform="matrix(-0.674317 0.738442 0.738442 0.674317 2096.44 1652.39)"/><path d="M1.74792e-05-6.875 107.573-6.87473 107.573 6.87527-1.74792e-05 6.875ZM100.698-20.6247 141.948 0.000360892 100.698 20.6253Z" fill="#FF0000" transform="matrix(-0.674317 0.738442 0.738442 0.674317 2180.92 1729.53)"/><path d="M0.504599-6.85646 59.2225-2.53513 58.2133 11.1778-0.504599 6.85646ZM53.3752-16.7526 93.0002 6.84432 50.3476 24.3861Z" fill="#FF0000" transform="matrix(-0.674317 0.738442 0.738442 0.674317 2265.39 1806.67)"/><path d="M-3.80216-20.625 37.4476 0.000360892-3.80256 20.625Z" fill="#FF0000" transform="matrix(-0.674317 0.738442 0.738442 0.674317 2349.87 1883.82)"/><path d="M-841.407 1048.31-800.888 1048.31-800.888 1050.46-831.614 1105.49-815.398 1105.49C-813.391 1105.49-811.901 1105.31-810.928 1104.93-809.954 1104.56-809.153 1103.97-808.524 1103.18-807.896 1102.39-807.327 1101.27-806.817 1099.83-806.308 1098.4-805.694 1096.17-804.976 1093.14L-800.573 1093.14-800.573 1109.63-842.081 1109.63-842.081 1107.43-811.31 1052.44-827.616 1052.44C-828.784 1052.44-829.705 1052.54-830.379 1052.73-831.053 1052.93-831.659 1053.23-832.198 1053.63-832.737 1054.04-833.269 1054.63-833.793 1055.41-834.317 1056.18-834.841 1057.26-835.365 1058.62-835.889 1059.98-836.436 1061.68-837.005 1063.72L-841.407 1063.72Z" fill-rule="evenodd"/><text fill="#000000" fill-opacity="0" font-family="Arial,Arial_MSFontService,sans-serif" font-size="61.3184" x="-842.081" y="1101.96">Z</text><path d="M-718.086 1112.62C-722.927 1112.73-726.483 1113.35-728.751 1114.49-731.019 1115.62-732.153 1117.35-732.153 1119.66-732.153 1121.45-731.646 1122.74-730.632 1123.53-729.618 1124.33-728.227 1124.73-726.461 1124.73-725.218 1124.73-724.083 1124.51-723.058 1124.07-722.033 1123.64-721.155 1123.08-720.425 1122.39-719.694 1121.7-719.122 1120.94-718.707 1120.1-718.293 1119.26-718.086 1118.44-718.086 1117.63ZM-623.535 1098.16C-624.713 1098.16-625.776 1098.4-626.725 1098.87-627.673 1099.34-628.502 1100.02-629.211 1100.91-629.92 1101.81-630.498 1102.9-630.945 1104.2-631.392 1105.5-631.681 1106.96-631.812 1108.6L-616.632 1108.6C-616.85 1105.04-617.499 1102.42-618.579 1100.72-619.658 1099.01-621.31 1098.16-623.535 1098.16ZM-623.142 1094.92C-620.831 1094.92-618.835 1095.28-617.156 1095.99-615.476 1096.7-614.113 1097.67-613.066 1098.92-612.543 1099.53-612.074 1100.22-611.659 1101.01-611.245 1101.79-610.891 1102.71-610.596 1103.74-610.302 1104.78-610.073 1105.96-609.909 1107.29-609.746 1108.62-609.642 1110.14-609.598 1111.84L-632.008 1111.84-632.008 1112.13C-632.008 1116.25-631.239 1119.34-629.702 1121.39-628.164 1123.44-625.727 1124.47-622.39 1124.47-621.496 1124.47-620.64 1124.37-619.822 1124.19-619.004 1124-618.192 1123.71-617.385 1123.32-616.578 1122.93-615.765 1122.42-614.947 1121.8-614.129 1121.18-613.273 1120.44-612.379 1119.59L-610.089 1122.31C-611.31 1123.51-612.472 1124.53-613.573 1125.37-614.675 1126.21-615.771 1126.89-616.861 1127.41-617.952 1127.93-619.064 1128.32-620.198 1128.56-621.332 1128.8-622.532 1128.92-623.797 1128.92-628.769 1128.92-632.51 1127.49-635.018 1124.65-637.526 1121.8-638.78 1117.61-638.78 1112.07-638.78 1109.52-638.409 1107.19-637.668 1105.08-636.926 1102.98-635.868 1101.17-634.494 1099.67-633.12 1098.16-631.474 1097-629.554 1096.17-627.635 1095.34-625.498 1094.92-623.142 1094.92ZM-679.908 1094.92C-677.509 1094.92-675.584 1095.43-674.134 1096.45-672.683 1097.46-671.62 1099.04-670.944 1101.17-669.723 1100-668.627 1099.01-667.656 1098.23-666.686 1097.44-665.77 1096.81-664.908 1096.33-664.047 1095.85-663.191 1095.51-662.34 1095.3-661.49 1095.09-660.563 1094.97-659.559 1094.92-658.076 1094.95-656.746 1095.16-655.568 1095.56-654.39 1095.97-653.393 1096.61-652.575 1097.51-651.757 1098.4-651.13 1099.58-650.694 1101.04-650.257 1102.5-650.05 1104.29-650.072 1106.41L-650.072 1119.98C-650.072 1121.27-650.056 1122.26-650.023 1122.94-649.99 1123.63-649.854 1124.17-649.614 1124.56-649.374 1124.96-648.987 1125.26-648.453 1125.46-647.918 1125.67-647.15 1125.93-646.146 1126.23L-646.146 1128.33-660.443 1128.33-660.443 1126.23C-659.57 1125.93-658.872 1125.69-658.349 1125.51-657.825 1125.34-657.427 1125.07-657.155 1124.71-656.882 1124.35-656.708 1123.83-656.631 1123.14-656.555 1122.45-656.517 1121.46-656.517 1120.15L-656.517 1109.88C-656.517 1107.56-656.642 1105.72-656.893 1104.35-657.144 1102.97-657.515 1101.92-658.005 1101.19-658.496 1100.46-659.123 1099.98-659.886 1099.77-660.65 1099.55-661.533 1099.44-662.536 1099.44-663.3 1099.44-664.139 1099.64-665.055 1100.04-665.971 1100.45-666.822 1100.99-667.607 1101.68-668.392 1102.37-669.052 1103.16-669.586 1104.05-670.121 1104.95-670.388 1105.87-670.388 1106.83L-670.388 1119.98C-670.388 1121.27-670.366 1122.27-670.323 1122.98-670.279 1123.69-670.132 1124.23-669.881 1124.61-669.63 1125-669.237 1125.29-668.703 1125.5-668.169 1125.7-667.4 1125.95-666.397 1126.23L-666.397 1128.33-680.759 1128.33-680.759 1126.23C-679.886 1125.93-679.194 1125.68-678.681 1125.5-678.169 1125.31-677.776 1125.04-677.503 1124.68-677.231 1124.32-677.056 1123.8-676.98 1123.12-676.904 1122.45-676.865 1121.46-676.865 1120.15L-676.865 1110.3C-676.865 1107.92-676.991 1106.03-677.242 1104.61-677.493 1103.19-677.863 1102.11-678.354 1101.35-678.845 1100.6-679.472 1100.1-680.235 1099.86-680.998 1099.62-681.882 1099.48-682.885 1099.44-683.757 1099.48-684.663 1099.72-685.6 1100.14-686.538 1100.57-687.394 1101.12-688.168 1101.81-688.943 1102.5-689.57 1103.27-690.05 1104.12-690.529 1104.97-690.747 1105.82-690.704 1106.67L-690.704 1119.98C-690.704 1121.34-690.677 1122.37-690.622 1123.08-690.568 1123.78-690.409 1124.32-690.148 1124.68-689.886 1125.04-689.488 1125.31-688.954 1125.48-688.419 1125.65-687.661 1125.91-686.68 1126.23L-686.68 1128.33-701.042 1128.33-701.042 1126.23C-700.191 1125.93-699.51 1125.69-698.997 1125.51-698.485 1125.34-698.092 1125.07-697.819 1124.71-697.547 1124.35-697.372 1123.82-697.296 1123.12-697.22 1122.43-697.181 1121.41-697.181 1120.08L-697.181 1104.67C-697.181 1103.84-697.198 1103.13-697.23 1102.53-697.263 1101.93-697.301 1101.45-697.345 1101.08-697.389 1100.62-697.47 1100.22-697.59 1099.9-697.71 1099.57-697.917 1099.28-698.212 1099.03-698.506 1098.78-698.921 1098.56-699.455 1098.38-699.989 1098.19-700.682 1098.01-701.532 1097.84L-701.532 1095.61-692.961 1095.25-690.638 1095.25C-690.704 1096.19-690.78 1097.11-690.867 1098.02-690.955 1098.92-691.031 1099.83-691.096 1100.75-691.031 1100.79-690.966 1100.81-690.9 1100.81-690.835 1100.81-690.769 1100.84-690.704 1100.88-689.548 1099.74-688.49 1098.8-687.531 1098.05-686.571 1097.3-685.666 1096.69-684.815 1096.23-683.965 1095.78-683.141 1095.45-682.345 1095.25-681.549 1095.06-680.737 1094.95-679.908 1094.92ZM-721.75 1094.92C-720.07 1094.97-718.604 1095.16-717.35 1095.5-716.096 1095.84-715.049 1096.42-714.209 1097.25-713.369 1098.08-712.737 1099.19-712.312 1100.6-711.886 1102.01-711.663 1103.79-711.641 1105.95L-711.641 1118.45C-711.641 1119.86-711.652 1121.01-711.674 1121.88-711.695 1122.75-711.597 1123.46-711.379 1124.01-711.161 1124.55-710.768 1124.98-710.201 1125.3-709.634 1125.62-708.773 1125.93-707.617 1126.23L-707.617 1128.33-717.693 1128.33C-717.65 1127.52-717.617 1126.71-717.595 1125.91-717.573 1125.1-717.54 1124.31-717.497 1123.55-717.562 1123.51-717.628 1123.48-717.693 1123.47-717.759 1123.46-717.846 1123.43-717.955 1123.39-718.98 1124.39-719.956 1125.24-720.883 1125.94-721.81 1126.64-722.737 1127.21-723.664 1127.66-724.591 1128.1-725.528 1128.42-726.477 1128.62-727.426 1128.82-728.413 1128.92-729.438 1128.92-730.855 1128.92-732.137 1128.71-733.282 1128.29-734.427 1127.88-735.397 1127.3-736.193 1126.54-736.989 1125.79-737.6 1124.9-738.025 1123.88-738.451 1122.85-738.663 1121.72-738.663 1120.47-738.663 1117.12-736.946 1114.54-733.511 1112.75-730.076 1110.97-724.934 1109.9-718.086 1109.55L-718.086 1107.19C-718.086 1105.58-718.211 1104.21-718.462 1103.09-718.713 1101.96-719.105 1101.05-719.64 1100.36-720.174 1099.66-720.877 1099.15-721.75 1098.83-722.622 1098.52-723.68 1098.36-724.923 1098.36-726.646 1098.36-728.096 1098.82-729.274 1099.73-730.452 1100.65-731.324 1102.1-731.891 1104.08L-736.733 1104.08-736.733 1099.11C-735.163 1098.37-733.723 1097.74-732.415 1097.21-731.106 1096.69-729.858 1096.26-728.669 1095.92-727.48 1095.58-726.324 1095.34-725.201 1095.19-724.078 1095.03-722.927 1094.95-721.75 1094.92ZM-748.123 1094.92C-746.771 1094.92-745.484 1095.06-744.262 1095.32L-744.262 1103.43-748.45 1103.43C-748.69 1102.82-748.941 1102.29-749.202 1101.84-749.464 1101.4-749.764 1101.03-750.102 1100.73-750.44 1100.44-750.833 1100.22-751.28 1100.08-751.727 1099.94-752.256 1099.86-752.866 1099.86-753.499 1099.86-754.213 1100.07-755.009 1100.47-755.805 1100.87-756.552 1101.42-757.25 1102.12-757.948 1102.82-758.532 1103.63-759 1104.54-759.469 1105.46-759.704 1106.43-759.704 1107.45L-759.704 1119.98C-759.704 1121.36-759.644 1122.41-759.524 1123.14-759.404 1123.87-759.18 1124.42-758.853 1124.79-758.526 1125.16-758.079 1125.43-757.512 1125.59-756.945 1125.76-756.203 1125.97-755.287 1126.23L-755.287 1128.33-770.042 1128.33-770.042 1126.23C-769.191 1125.93-768.51 1125.69-767.997 1125.51-767.485 1125.34-767.092 1125.07-766.819 1124.71-766.547 1124.35-766.372 1123.82-766.296 1123.12-766.22 1122.43-766.181 1121.41-766.181 1120.08L-766.181 1106.02C-766.181 1104.51-766.187 1103.28-766.198 1102.32-766.209 1101.36-766.34 1100.58-766.59 1099.98-766.841 1099.38-767.266 1098.92-767.866 1098.61-768.466 1098.29-769.355 1098.03-770.532 1097.84L-770.532 1095.61-761.961 1095.25-759.638 1095.25-760.096 1101.08C-760.031 1101.12-759.977 1101.15-759.933 1101.16-759.889 1101.17-759.835 1101.2-759.769 1101.24-758.722 1100.1-757.757 1099.13-756.874 1098.33-755.991 1097.52-755.096 1096.87-754.191 1096.36-753.286 1095.86-752.348 1095.5-751.378 1095.27-750.407 1095.04-749.322 1094.92-748.123 1094.92ZM-774.623 1080.37C-773.685 1080.37-772.808 1080.42-771.99 1080.51-771.172 1080.61-770.414 1080.75-769.716 1080.92L-769.716 1087.07-773.478 1087.07C-773.849 1085.85-774.356 1084.96-775 1084.39-775.643 1083.82-776.488 1083.54-777.535 1083.54-778.298 1083.58-778.925 1083.7-779.416 1083.9-779.907 1084.1-780.337 1084.37-780.708 1084.72-781.035 1085-781.335 1085.32-781.608 1085.68-781.881 1086.04-782.115 1086.52-782.311 1087.12-782.508 1087.72-782.655 1088.46-782.753 1089.35-782.851 1090.23-782.9 1091.34-782.9 1092.67L-782.9 1095.61-774.296 1095.61-774.296 1099.24-782.9 1099.24-782.9 1119.98C-782.9 1121.27-782.867 1122.27-782.802 1122.98-782.737 1123.69-782.557 1124.23-782.262 1124.61-781.968 1125-781.526 1125.29-780.937 1125.5-780.348 1125.7-779.531 1125.95-778.484 1126.23L-778.484 1128.33-793.369 1128.33-793.369 1126.23C-792.387 1125.91-791.63 1125.65-791.095 1125.48-790.561 1125.31-790.163 1125.04-789.901 1124.68-789.639 1124.32-789.481 1123.78-789.427 1123.08-789.372 1122.37-789.345 1121.34-789.345 1119.98L-789.345 1099.24-793.663 1099.24-793.663 1097.25C-792.922 1097.2-792.295 1097.11-791.782 1096.97-791.27 1096.83-790.85 1096.61-790.523 1096.32-790.196 1096.02-789.95 1095.62-789.787 1095.1-789.623 1094.59-789.498 1093.94-789.41 1093.16-789.149 1090.76-788.587 1088.74-787.726 1087.11-786.864 1085.47-785.779 1084.16-784.47 1083.16-783.162 1082.17-781.668 1081.46-779.989 1081.02-778.309 1080.58-776.521 1080.37-774.623 1080.37Z" fill-rule="evenodd"/><text fill="#000000" fill-opacity="0" font-family="Arial,Arial_MSFontService,sans-serif" font-size="48.5488" x="-793.663" y="1122.85">frame</text><path d="M-881.779 792.159-864.514 792.159-864.514 794.145C-867.054 794.442-868.324 795.536-868.324 797.428-868.324 798.211-868.142 799.089-867.777 800.062-867.412 801.035-866.757 802.412-865.811 804.196L-857.706 819.637-849.722 805.533C-848.641 803.615-847.878 802.041-847.432 800.812-846.986 799.582-846.763 798.454-846.763 797.428-846.763 796.455-847.054 795.692-847.635 795.138-848.216 794.584-849.073 794.253-850.208 794.145L-850.208 792.159-834.848 792.159-834.848 794.145C-835.956 794.55-836.929 795.111-837.766 795.827-838.604 796.543-839.455 797.509-840.32 798.724-841.184 799.94-842.454 801.994-844.129 804.885L-855.396 824.095-855.396 837.225C-855.396 838.766-855.315 840.008-855.153 840.954-854.99 841.9-854.72 842.656-854.342 843.224-853.964 843.791-853.464 844.237-852.842 844.561-852.221 844.885-851.248 845.196-849.924 845.493L-849.924 847.479-868.445 847.479-868.445 845.493C-867.149 845.223-866.189 844.932-865.568 844.622-864.947 844.311-864.447 843.865-864.069 843.284-863.69 842.703-863.413 841.94-863.238 840.995-863.062 840.049-862.974 838.793-862.974 837.225L-862.974 824.257-874.16 803.466C-875.511 800.953-876.537 799.157-877.24 798.076-877.942 796.995-878.645 796.144-879.347 795.523-880.05 794.901-880.86 794.442-881.779 794.145Z" fill-rule="evenodd"/><text fill="#000000" fill-opacity="0" font-family="Arial,Arial_MSFontService,sans-serif" font-size="55.3198" x="-881.779" y="840.564">Y</text><path d="M-769.777 850.026C-774.185 850.125-777.421 850.691-779.487 851.724-781.552 852.756-782.584 854.325-782.584 856.43-782.584 858.058-782.123 859.234-781.199 859.959-780.276 860.684-779.01 861.046-777.402 861.046-776.27 861.046-775.237 860.848-774.304 860.451-773.371 860.053-772.571 859.542-771.906 858.917-771.241 858.291-770.72 857.596-770.343 856.832-769.965 856.067-769.777 855.318-769.777 854.583ZM-684.827 836.861C-685.9 836.861-686.868 837.074-687.731 837.501-688.595 837.928-689.35 838.549-689.995 839.363-690.641 840.177-691.167 841.175-691.574 842.356-691.981 843.538-692.244 844.873-692.363 846.362L-678.543 846.362C-678.741 843.126-679.332 840.733-680.315 839.184-681.298 837.635-682.802 836.861-684.827 836.861ZM-684.47 833.912C-682.365 833.912-680.548 834.235-679.019 834.88-677.49 835.525-676.249 836.414-675.296 837.546-674.82 838.102-674.393 838.737-674.015 839.452-673.638 840.167-673.315 840.996-673.047 841.939-672.779 842.882-672.571 843.96-672.422 845.171-672.273 846.382-672.179 847.762-672.139 849.311L-692.542 849.311-692.542 849.579C-692.542 853.332-691.842 856.142-690.442 858.008-689.042 859.875-686.823 860.808-683.785 860.808-682.971 860.808-682.191 860.724-681.447 860.555-680.702 860.386-679.963 860.123-679.228 859.766-678.493 859.408-677.753 858.946-677.009 858.38-676.264 857.815-675.485 857.144-674.671 856.37L-672.586 858.842C-673.698 859.934-674.755 860.863-675.758 861.627-676.761 862.392-677.758 863.012-678.751 863.489-679.744 863.965-680.757 864.313-681.789 864.531-682.822 864.75-683.914 864.859-685.066 864.859-689.593 864.859-692.998 863.563-695.282 860.972-697.566 858.38-698.707 854.563-698.707 849.519-698.707 847.196-698.37 845.076-697.695 843.16-697.019 841.244-696.056 839.601-694.805 838.231-693.554 836.861-692.055 835.798-690.308 835.044-688.56 834.289-686.615 833.912-684.47 833.912ZM-735.704 833.912C-733.52 833.912-731.768 834.374-730.447 835.297-729.127 836.22-728.159 837.655-727.543 839.601-726.431 838.529-725.433 837.635-724.55 836.92-723.666 836.205-722.832 835.63-722.048 835.193-721.264 834.756-720.484 834.443-719.71 834.255-718.935 834.066-718.091 833.952-717.178 833.912-715.828 833.932-714.616 834.125-713.544 834.493-712.472 834.86-711.563 835.451-710.819 836.265-710.074 837.079-709.503 838.151-709.106 839.482-708.709 840.812-708.52 842.44-708.54 844.367L-708.54 856.727C-708.54 857.899-708.525 858.797-708.496 859.423-708.466 860.048-708.342 860.54-708.123 860.897-707.905 861.255-707.552 861.528-707.066 861.716-706.579 861.905-705.88 862.138-704.966 862.416L-704.966 864.323-717.982 864.323-717.982 862.416C-717.188 862.138-716.552 861.92-716.076 861.761-715.599 861.602-715.237 861.359-714.989 861.031-714.741 860.704-714.582 860.227-714.512 859.602-714.443 858.976-714.408 858.068-714.408 856.876L-714.408 847.524C-714.408 845.419-714.522 843.741-714.75 842.49-714.979 841.239-715.316 840.281-715.763 839.616-716.21 838.951-716.781 838.519-717.476 838.32-718.171 838.122-718.975 838.022-719.888 838.022-720.583 838.022-721.348 838.206-722.182 838.573-723.016 838.941-723.79 839.437-724.505 840.063-725.22 840.688-725.821 841.408-726.307 842.222-726.794 843.036-727.037 843.88-727.037 844.754L-727.037 856.727C-727.037 857.899-727.017 858.807-726.977 859.453-726.938 860.098-726.804 860.595-726.575 860.942-726.347 861.289-725.989 861.558-725.503 861.746-725.016 861.935-724.317 862.158-723.403 862.416L-723.403 864.323-736.479 864.323-736.479 862.416C-735.685 862.138-735.054 861.915-734.587 861.746-734.121 861.577-733.763 861.329-733.515 861.002-733.267 860.674-733.108 860.202-733.039 859.587-732.969 858.971-732.934 858.068-732.934 856.876L-732.934 847.911C-732.934 845.747-733.049 844.019-733.277 842.728-733.505 841.438-733.843 840.45-734.29 839.765-734.736 839.08-735.307 838.628-736.002 838.41-736.697 838.191-737.501 838.062-738.415 838.022-739.209 838.062-740.033 838.276-740.887 838.663-741.741 839.05-742.52 839.556-743.225 840.182-743.93 840.807-744.501 841.507-744.938 842.282-745.375 843.056-745.573 843.83-745.533 844.605L-745.533 856.727C-745.533 857.959-745.509 858.897-745.459 859.542-745.409 860.187-745.265 860.674-745.027 861.002-744.789 861.329-744.426 861.572-743.94 861.731-743.453 861.89-742.763 862.119-741.87 862.416L-741.87 864.323-754.946 864.323-754.946 862.416C-754.171 862.138-753.551 861.92-753.084 861.761-752.617 861.602-752.26 861.359-752.012 861.031-751.764 860.704-751.605 860.222-751.535 859.587-751.466 858.951-751.431 858.028-751.431 856.817L-751.431 842.788C-751.431 842.033-751.446 841.383-751.476 840.837-751.505 840.291-751.54 839.849-751.58 839.512-751.62 839.095-751.694 838.737-751.803 838.439-751.912 838.141-752.101 837.878-752.369 837.65-752.637 837.422-753.015 837.223-753.501 837.054-753.987 836.886-754.618 836.722-755.392 836.563L-755.392 834.537-747.589 834.21-745.474 834.21C-745.533 835.064-745.603 835.903-745.682 836.727-745.762 837.551-745.831 838.38-745.891 839.214-745.831 839.253-745.772 839.273-745.712 839.273-745.653 839.273-745.593 839.293-745.533 839.333-744.481 838.3-743.518 837.442-742.644 836.756-741.771 836.071-740.947 835.52-740.172 835.103-739.398 834.686-738.648 834.389-737.923 834.21-737.199 834.031-736.459 833.932-735.704 833.912ZM-773.113 833.912C-771.584 833.952-770.248 834.125-769.106 834.433-767.965 834.741-767.012 835.272-766.247 836.027-765.483 836.781-764.907 837.799-764.52 839.08-764.132 840.36-763.929 841.984-763.909 843.95L-763.909 855.328C-763.909 856.618-763.919 857.661-763.939 858.455-763.959 859.249-763.869 859.895-763.671 860.391-763.472 860.887-763.115 861.28-762.598 861.568-762.082 861.855-761.298 862.138-760.245 862.416L-760.245 864.323-769.419 864.323C-769.38 863.588-769.35 862.853-769.33 862.119-769.31 861.384-769.28 860.669-769.24 859.974-769.3 859.934-769.36 859.909-769.419 859.9-769.479 859.89-769.558 859.865-769.657 859.825-770.591 860.738-771.479 861.513-772.323 862.148-773.167 862.784-774.011 863.305-774.855 863.712-775.699 864.119-776.553 864.412-777.417 864.591-778.28 864.769-779.179 864.859-780.112 864.859-781.403 864.859-782.569 864.67-783.612 864.293-784.654 863.916-785.538 863.384-786.263 862.699-786.987 862.014-787.543 861.205-787.931 860.272-788.318 859.339-788.511 858.306-788.511 857.174-788.511 854.116-786.948 851.773-783.82 850.145-780.693 848.517-776.012 847.544-769.777 847.226L-769.777 845.081C-769.777 843.612-769.891 842.366-770.119 841.343-770.348 840.321-770.705 839.492-771.191 838.856-771.678 838.221-772.318 837.759-773.113 837.471-773.907 837.183-774.87 837.039-776.002 837.039-777.57 837.039-778.891 837.456-779.963 838.29-781.035 839.124-781.83 840.445-782.346 842.252L-786.754 842.252-786.754 837.724C-785.324 837.049-784.014 836.474-782.823 835.997-781.631 835.52-780.494 835.128-779.412 834.82-778.33 834.513-777.278 834.289-776.255 834.15-775.232 834.011-774.185 833.932-773.113 833.912ZM-796.99 833.912C-795.758 833.912-794.587 834.031-793.475 834.269L-793.475 841.656-797.287 841.656C-797.506 841.1-797.734 840.619-797.972 840.212-798.211 839.805-798.484 839.467-798.792 839.199-799.099 838.931-799.457 838.732-799.864 838.603-800.271 838.474-800.752 838.41-801.308 838.41-801.884 838.41-802.534 838.593-803.259 838.961-803.984 839.328-804.664 839.829-805.3 840.465-805.935 841.1-806.466 841.835-806.893 842.669-807.32 843.503-807.533 844.386-807.533 845.32L-807.533 856.727C-807.533 857.978-807.479 858.936-807.37 859.602-807.26 860.267-807.057 860.768-806.759 861.106-806.461 861.443-806.054 861.687-805.538 861.836-805.022 861.984-804.346 862.178-803.512 862.416L-803.512 864.323-816.946 864.323-816.946 862.416C-816.171 862.138-815.551 861.92-815.084 861.761-814.617 861.602-814.26 861.359-814.012 861.031-813.763 860.704-813.605 860.222-813.535 859.587-813.466 858.951-813.431 858.028-813.431 856.817L-813.431 844.009C-813.431 842.639-813.436 841.517-813.446 840.643-813.456 839.77-813.575 839.06-813.803 838.514-814.032 837.968-814.419 837.551-814.965 837.263-815.511 836.975-816.32 836.742-817.392 836.563L-817.392 834.537-809.589 834.21-807.474 834.21-807.891 839.512C-807.831 839.551-807.782 839.576-807.742 839.586-807.702 839.596-807.653 839.621-807.593 839.661-806.64 838.628-805.761 837.744-804.957 837.01-804.153 836.275-803.339 835.679-802.515 835.223-801.691 834.766-800.837 834.433-799.953 834.225-799.07 834.016-798.082 833.912-796.99 833.912ZM-821.177 820.658C-820.323 820.658-819.523 820.702-818.779 820.792-818.034 820.881-817.344 821.005-816.709 821.164L-816.709 826.764-820.134 826.764C-820.472 825.652-820.933 824.837-821.519 824.321-822.105 823.805-822.874 823.547-823.827 823.547-824.522 823.586-825.093 823.696-825.54 823.874-825.987 824.053-826.379 824.301-826.717 824.619-827.014 824.877-827.287 825.17-827.536 825.498-827.784 825.825-827.997 826.262-828.176 826.808-828.355 827.354-828.489 828.029-828.578 828.834-828.667 829.638-828.712 830.646-828.712 831.857L-828.712 834.537-820.879 834.537-820.879 837.844-828.712 837.844-828.712 856.727C-828.712 857.899-828.682 858.807-828.623 859.453-828.563 860.098-828.399 860.595-828.131 860.942-827.863 861.289-827.461 861.558-826.925 861.746-826.389 861.935-825.644 862.158-824.691 862.416L-824.691 864.323-838.243 864.323-838.243 862.416C-837.35 862.119-836.66 861.89-836.173 861.731-835.687 861.572-835.324 861.329-835.086 861.002-834.848 860.674-834.704 860.187-834.654 859.542-834.605 858.897-834.58 857.959-834.58 856.727L-834.58 837.844-838.511 837.844-838.511 836.027C-837.836 835.987-837.265 835.903-836.799 835.774-836.332 835.644-835.95 835.446-835.652 835.178-835.354 834.91-835.131 834.542-834.982 834.076-834.833 833.609-834.719 833.018-834.639 832.304-834.401 830.119-833.89 828.283-833.105 826.793-832.321 825.304-831.333 824.108-830.142 823.204-828.95 822.301-827.59 821.65-826.061 821.253-824.532 820.856-822.904 820.658-821.177 820.658Z" fill-rule="evenodd"/><text fill="#000000" fill-opacity="0" font-family="Arial,Arial_MSFontService,sans-serif" font-size="44.2012" x="-838.511" y="859.334">frame</text><path d="M-472.4 784.274-455.135 784.274-455.135 786.26C-456.432 786.449-457.364 786.8-457.931 787.313-458.499 787.827-458.783 788.529-458.783 789.421-458.783 790.177-458.526 791.123-458.012 792.258-457.499 793.393-456.77 794.743-455.824 796.311L-449.948 806.159-444.152 796.797C-443.288 795.392-442.639 794.271-442.207 793.433-441.775 792.596-441.471 791.893-441.295 791.326-441.119 790.758-441.032 790.177-441.032 789.583-441.032 788.745-441.275 788.036-441.761 787.455-442.247 786.874-443.058 786.476-444.193 786.26L-444.193 784.274-429.157 784.274-429.157 786.26C-430.157 786.584-431.055 787.057-431.852 787.678-432.649 788.3-433.5 789.205-434.405 790.394-435.31 791.582-436.601 793.46-438.276 796.027L-447.435 810.211-437.141 827.152C-435.682 829.556-434.635 831.238-434 832.198-433.365 833.157-432.771 833.967-432.217 834.629-431.663 835.291-431.069 835.865-430.434 836.352-429.799 836.838-429.008 837.257-428.063 837.608L-428.063 839.594-445.854 839.594-445.854 837.608C-444.611 837.392-443.693 837.047-443.098 836.574-442.504 836.102-442.207 835.392-442.207 834.447-442.207 833.69-442.403 832.853-442.794 831.934-443.186 831.015-443.787 829.881-444.598 828.53L-451.933 816.291-459.674 828.976C-460.971 831.11-461.619 832.866-461.619 834.244-461.619 835.136-461.376 835.865-460.89 836.433-460.404 837-459.593 837.392-458.458 837.608L-458.458 839.594-473.778 839.594-473.778 837.608C-472.778 837.311-471.954 836.953-471.305 836.534-470.657 836.115-470.036 835.582-469.441 834.933-468.847 834.285-468.185 833.461-467.455 832.461-466.726 831.461-465.564 829.719-463.97 827.233L-454.406 812.319-465.834 793.514C-466.915 791.785-467.732 790.529-468.286 789.745-468.84 788.962-469.353 788.327-469.826 787.84-470.299 787.354-470.725 787.01-471.103 786.807-471.481 786.604-471.913 786.422-472.4 786.26Z" fill-rule="evenodd"/><text fill="#000000" fill-opacity="0" font-family="Arial,Arial_MSFontService,sans-serif" font-size="55.3198" x="-473.778" y="832.679">X</text><path d="M-353.441 842.141C-357.849 842.24-361.085 842.806-363.15 843.838-365.216 844.871-366.248 846.44-366.248 848.544-366.248 850.173-365.786 851.349-364.863 852.074-363.94 852.799-362.674 853.161-361.066 853.161-359.934 853.161-358.901 852.963-357.968 852.565-357.035 852.168-356.235 851.657-355.57 851.031-354.905 850.406-354.384 849.711-354.006 848.947-353.629 848.182-353.441 847.432-353.441 846.698ZM-268.491 828.976C-269.564 828.976-270.532 829.189-271.395 829.616-272.259 830.043-273.014 830.663-273.659 831.478-274.304 832.292-274.831 833.289-275.238 834.471-275.645 835.652-275.908 836.988-276.027 838.477L-262.207 838.477C-262.405 835.24-262.996 832.848-263.979 831.299-264.962 829.75-266.466 828.976-268.491 828.976ZM-268.134 826.027C-266.029 826.027-264.212 826.35-262.683 826.995-261.154 827.64-259.913 828.529-258.96 829.661-258.484 830.217-258.057 830.852-257.679 831.567-257.302 832.282-256.979 833.111-256.711 834.054-256.443 834.997-256.235 836.074-256.086 837.286-255.937 838.497-255.843 839.877-255.803 841.426L-276.206 841.426-276.206 841.694C-276.206 845.447-275.506 848.257-274.106 850.123-272.706 851.99-270.487 852.923-267.449 852.923-266.635 852.923-265.855 852.838-265.111 852.67-264.366 852.501-263.626 852.238-262.892 851.88-262.157 851.523-261.417 851.061-260.673 850.495-259.928 849.929-259.149 849.259-258.335 848.485L-256.25 850.957C-257.362 852.049-258.419 852.977-259.422 853.742-260.424 854.506-261.422 855.127-262.415 855.604-263.408 856.08-264.421 856.428-265.453 856.646-266.486 856.864-267.578 856.974-268.73 856.974-273.257 856.974-276.662 855.678-278.946 853.087-281.229 850.495-282.371 846.678-282.371 841.634-282.371 839.311-282.034 837.191-281.359 835.275-280.683 833.359-279.72 831.716-278.469 830.346-277.218 828.976-275.719 827.913-273.972 827.159-272.224 826.404-270.278 826.027-268.134 826.027ZM-319.368 826.027C-317.184 826.027-315.432 826.489-314.111 827.412-312.791 828.335-311.823 829.77-311.207 831.716-310.095 830.644-309.097 829.75-308.214 829.035-307.33 828.32-306.496 827.744-305.712 827.308-304.927 826.871-304.148 826.558-303.374 826.369-302.599 826.181-301.755 826.067-300.842 826.027-299.492 826.047-298.28 826.24-297.208 826.608-296.136 826.975-295.227 827.566-294.483 828.38-293.738 829.194-293.167 830.266-292.77 831.597-292.373 832.927-292.184 834.555-292.204 836.481L-292.204 848.842C-292.204 850.014-292.189 850.912-292.16 851.538-292.13 852.163-292.006 852.655-291.787 853.012-291.569 853.37-291.216 853.643-290.73 853.831-290.243 854.02-289.543 854.253-288.63 854.531L-288.63 856.438-301.646 856.438-301.646 854.531C-300.852 854.253-300.216 854.035-299.74 853.876-299.263 853.717-298.901 853.474-298.653 853.146-298.404 852.819-298.246 852.342-298.176 851.717-298.107 851.091-298.072 850.183-298.072 848.991L-298.072 839.639C-298.072 837.534-298.186 835.856-298.414 834.605-298.643 833.354-298.98 832.396-299.427 831.731-299.874 831.065-300.445 830.634-301.14 830.435-301.835 830.237-302.639 830.137-303.552 830.137-304.247 830.137-305.012 830.321-305.846 830.688-306.68 831.056-307.454 831.552-308.169 832.177-308.884 832.803-309.485 833.523-309.971 834.337-310.458 835.151-310.701 835.995-310.701 836.869L-310.701 848.842C-310.701 850.014-310.681 850.922-310.641 851.568-310.602 852.213-310.467 852.709-310.239 853.057-310.011 853.404-309.653 853.672-309.167 853.861-308.68 854.05-307.98 854.273-307.067 854.531L-307.067 856.438-320.143 856.438-320.143 854.531C-319.348 854.253-318.718 854.03-318.251 853.861-317.785 853.692-317.427 853.444-317.179 853.116-316.931 852.789-316.772 852.317-316.702 851.702-316.633 851.086-316.598 850.183-316.598 848.991L-316.598 840.026C-316.598 837.862-316.712 836.134-316.941 834.843-317.169 833.553-317.507 832.565-317.953 831.88-318.4 831.195-318.971 830.743-319.666 830.524-320.361 830.306-321.165 830.177-322.079 830.137-322.873 830.177-323.697 830.39-324.551 830.778-325.405 831.165-326.184 831.671-326.889 832.297-327.594 832.922-328.165 833.622-328.602 834.396-329.039 835.171-329.237 835.945-329.197 836.72L-329.197 848.842C-329.197 850.073-329.173 851.012-329.123 851.657-329.073 852.302-328.929 852.789-328.691 853.116-328.453 853.444-328.09 853.687-327.604 853.846-327.117 854.005-326.427 854.233-325.534 854.531L-325.534 856.438-338.609 856.438-338.609 854.531C-337.835 854.253-337.215 854.035-336.748 853.876-336.281 853.717-335.924 853.474-335.676 853.146-335.427 852.819-335.269 852.337-335.199 851.702-335.13 851.066-335.095 850.143-335.095 848.932L-335.095 834.903C-335.095 834.148-335.11 833.498-335.139 832.952-335.169 832.406-335.204 831.964-335.244 831.626-335.283 831.209-335.358 830.852-335.467 830.554-335.576 830.256-335.765 829.993-336.033 829.765-336.301 829.537-336.678 829.338-337.165 829.169-337.651 829-338.282 828.837-339.056 828.678L-339.056 826.652-331.253 826.325-329.138 826.325C-329.197 827.179-329.267 828.018-329.346 828.842-329.426 829.666-329.495 830.495-329.555 831.329-329.495 831.368-329.436 831.388-329.376 831.388-329.316 831.388-329.257 831.408-329.197 831.448-328.145 830.415-327.182 829.556-326.308 828.871-325.435 828.186-324.61 827.635-323.836 827.218-323.062 826.801-322.312 826.503-321.587 826.325-320.862 826.146-320.123 826.047-319.368 826.027ZM-356.776 826.027C-355.247 826.067-353.912 826.24-352.77 826.548-351.629 826.856-350.675 827.387-349.911 828.142-349.146 828.896-348.571 829.914-348.183 831.195-347.796 832.475-347.593 834.099-347.573 836.064L-347.573 847.442C-347.573 848.733-347.583 849.776-347.603 850.57-347.622 851.364-347.533 852.009-347.335 852.506-347.136 853.002-346.779 853.394-346.262 853.682-345.746 853.97-344.962 854.253-343.909 854.531L-343.909 856.438-353.083 856.438C-353.043 855.703-353.014 854.968-352.994 854.233-352.974 853.499-352.944 852.784-352.904 852.089-352.964 852.049-353.024 852.024-353.083 852.014-353.143 852.004-353.222 851.98-353.321 851.94-354.255 852.853-355.143 853.628-355.987 854.263-356.831 854.899-357.675 855.42-358.519 855.827-359.363 856.234-360.217 856.527-361.08 856.706-361.944 856.884-362.843 856.974-363.776 856.974-365.067 856.974-366.233 856.785-367.276 856.408-368.318 856.03-369.202 855.499-369.927 854.814-370.651 854.129-371.207 853.32-371.595 852.387-371.982 851.453-372.175 850.421-372.175 849.289-372.175 846.231-370.612 843.888-367.484 842.26-364.357 840.632-359.676 839.659-353.441 839.341L-353.441 837.196C-353.441 835.727-353.555 834.481-353.783 833.458-354.011 832.436-354.369 831.607-354.855 830.971-355.342 830.336-355.982 829.874-356.776 829.586-357.571 829.298-358.534 829.154-359.666 829.154-361.234 829.154-362.555 829.571-363.627 830.405-364.699 831.239-365.494 832.56-366.01 834.367L-370.418 834.367-370.418 829.839C-368.988 829.164-367.678 828.588-366.486 828.112-365.295 827.635-364.158 827.243-363.076 826.935-361.994 826.628-360.941 826.404-359.919 826.265-358.896 826.126-357.849 826.047-356.776 826.027ZM-380.653 826.027C-379.422 826.027-378.251 826.146-377.139 826.384L-377.139 833.771-380.951 833.771C-381.17 833.215-381.398 832.733-381.636 832.326-381.875 831.919-382.148 831.582-382.455 831.314-382.763 831.046-383.121 830.847-383.528 830.718-383.935 830.589-384.416 830.524-384.972 830.524-385.548 830.524-386.198 830.708-386.923 831.075-387.648 831.443-388.328 831.944-388.963 832.58-389.599 833.215-390.13 833.95-390.557 834.784-390.984 835.618-391.197 836.501-391.197 837.435L-391.197 848.842C-391.197 850.093-391.143 851.051-391.034 851.717-390.924 852.382-390.721 852.883-390.423 853.221-390.125 853.558-389.718 853.802-389.202 853.95-388.685 854.099-388.01 854.293-387.176 854.531L-387.176 856.438-400.609 856.438-400.609 854.531C-399.835 854.253-399.215 854.035-398.748 853.876-398.281 853.717-397.924 853.474-397.676 853.146-397.427 852.819-397.269 852.337-397.199 851.702-397.13 851.066-397.095 850.143-397.095 848.932L-397.095 836.124C-397.095 834.754-397.1 833.632-397.11 832.758-397.12 831.885-397.239 831.175-397.467 830.629-397.695 830.083-398.083 829.666-398.629 829.378-399.175 829.09-399.984 828.856-401.056 828.678L-401.056 826.652-393.253 826.325-391.138 826.325-391.555 831.626C-391.495 831.666-391.446 831.691-391.406 831.701-391.366 831.711-391.316 831.736-391.257 831.775-390.304 830.743-389.425 829.859-388.621 829.125-387.817 828.39-387.003 827.794-386.179 827.337-385.354 826.881-384.501 826.548-383.617 826.34-382.733 826.131-381.746 826.027-380.653 826.027ZM-404.84 812.772C-403.987 812.772-403.187 812.817-402.443 812.906-401.698 812.996-401.008 813.12-400.373 813.279L-400.373 818.878-403.798 818.878C-404.135 817.766-404.597 816.952-405.183 816.436-405.769 815.92-406.538 815.662-407.491 815.662-408.186 815.701-408.757 815.811-409.204 815.989-409.651 816.168-410.043 816.416-410.38 816.734-410.678 816.992-410.951 817.285-411.2 817.613-411.448 817.94-411.661 818.377-411.84 818.923-412.019 819.469-412.153 820.144-412.242 820.948-412.331 821.753-412.376 822.76-412.376 823.972L-412.376 826.652-404.543 826.652-404.543 829.958-412.376 829.958-412.376 848.842C-412.376 850.014-412.346 850.922-412.287 851.568-412.227 852.213-412.063 852.709-411.795 853.057-411.527 853.404-411.125 853.672-410.589 853.861-410.053 854.05-409.308 854.273-408.355 854.531L-408.355 856.438-421.907 856.438-421.907 854.531C-421.014 854.233-420.324 854.005-419.837 853.846-419.351 853.687-418.988 853.444-418.75 853.116-418.512 852.789-418.368 852.302-418.318 851.657-418.269 851.012-418.244 850.073-418.244 848.842L-418.244 829.958-422.175 829.958-422.175 828.142C-421.5 828.102-420.929 828.018-420.463 827.888-419.996 827.759-419.614 827.561-419.316 827.293-419.018 827.025-418.795 826.657-418.646 826.191-418.497 825.724-418.383 825.133-418.303 824.418-418.065 822.234-417.554 820.397-416.769 818.908-415.985 817.419-414.997 816.223-413.806 815.319-412.614 814.416-411.254 813.765-409.725 813.368-408.196 812.971-406.568 812.772-404.84 812.772Z" fill-rule="evenodd"/><text fill="#000000" fill-opacity="0" font-family="Arial,Arial_MSFontService,sans-serif" font-size="44.2012" x="-422.175" y="851.448">frame</text></g></svg>