<svg width="1147" height="1537" xmlns="http://www.w3.org/2000/svg" xmlns:xlink="http://www.w3.org/1999/xlink" xml:space="preserve" overflow="hidden"><g transform="translate(-45 -790)"><rect x="500.5" y="1971.5" width="460" height="352" stroke="#042433" stroke-width="6.875" stroke-miterlimit="8" fill="#96DCF8"/><rect x="646.5" y="1603.5" width="168" height="474" stroke="#042433" stroke-width="6.875" stroke-miterlimit="8" fill="#96DCF8"/><rect x="637.5" y="1105.5" width="186" height="534" stroke="#042433" stroke-width="6.875" stroke-miterlimit="8" fill="#D9D9D9"/><path d="M606.5 1671.5 580 1671.5 580 1950.5 527 1950.5 527 1671.5 500.5 1671.5 553.5 1618.5Z" stroke="#042433" stroke-width="6.875" stroke-miterlimit="8" fill="#156082" fill-rule="evenodd"/><path d="M137.969 1780.53C133.089 1780.53 128.71 1782.5 124.834 1786.45 120.958 1790.4 117.908 1795.72 115.683 1802.42 113.457 1809.12 112.345 1815.8 112.345 1822.45 112.345 1827.42 113.027 1831.14 114.391 1833.61 115.754 1836.07 118.039 1837.31 121.245 1837.31 122.729 1837.31 124.236 1836.98 125.767 1836.34 127.299 1835.69 128.89 1834.65 130.54 1833.21 132.191 1831.78 133.818 1830.03 135.421 1827.97 137.024 1825.92 138.496 1823.85 139.836 1821.77 141.175 1819.68 142.42 1817.22 143.568 1814.37 144.716 1811.53 145.697 1808.09 146.511 1804.07L147.157 1800.99C147.875 1797.54 148.234 1794.29 148.234 1791.22 148.234 1787.49 147.444 1784.78 145.865 1783.08 144.286 1781.38 141.654 1780.53 137.969 1780.53ZM136.677 1774.86C139.644 1774.86 142.467 1775.21 145.147 1775.9 147.827 1776.59 150.602 1777.83 153.473 1779.6L160.077 1774.86 164.671 1776.01 146.296 1857.62C145.482 1861.26 145.075 1863.98 145.075 1865.8 145.075 1867.91 145.614 1869.4 146.69 1870.29 147.767 1871.17 149.884 1871.76 153.043 1872.05L152.397 1875.56 130.002 1875.56 142.348 1828.48 141.343 1828.05C137.228 1833.84 133.029 1838.24 128.746 1841.25 124.463 1844.27 120.288 1845.78 116.221 1845.78 110.957 1845.78 106.878 1843.79 103.983 1839.82 101.088 1835.85 99.6403 1830.27 99.6403 1823.09 99.6403 1814.86 101.255 1806.96 104.485 1799.37 107.715 1791.79 112.154 1785.81 117.8 1781.43 123.446 1777.05 129.739 1774.86 136.677 1774.86Z" fill-rule="evenodd"/><text fill="#000000" fill-opacity="0" font-family="Arial,Arial_MSFontService,sans-serif" font-size="100.704" x="99.6403" y="1862.97">𝑞</text><path d="M138.188 1744.86C140.437 1744.86 142.327 1745.66 143.858 1747.26 145.39 1748.86 146.155 1750.89 146.155 1753.33 146.155 1755.77 145.39 1757.79 143.858 1759.39 142.327 1760.99 140.437 1761.8 138.188 1761.8 135.891 1761.8 133.977 1760.99 132.446 1759.39 130.915 1757.79 130.149 1755.77 130.149 1753.33 130.149 1750.89 130.915 1748.86 132.446 1747.26 133.977 1745.66 135.891 1744.86 138.188 1744.86Z" fill-rule="evenodd"/><text fill="#000000" fill-opacity="0" font-family="Arial,Arial_MSFontService,sans-serif" font-size="16.9395" x="130.149" y="1759.68">ሶ</text><path d="M227.053 1812.83 315.482 1812.83 315.482 1822.38 227.053 1822.38ZM227.053 1783.04 315.482 1783.04 315.482 1792.59 227.053 1792.59Z" fill-rule="evenodd"/><text fill="#000000" fill-opacity="0" font-family="Arial,Arial_MSFontService,sans-serif" font-size="39.334" x="227.053" y="1817.46">=</text><path d="M412.396 1780.53C407.516 1780.53 403.137 1782.5 399.261 1786.45 395.385 1790.4 392.335 1795.72 390.11 1802.42 387.885 1809.12 386.772 1815.8 386.772 1822.45 386.772 1827.42 387.454 1831.14 388.818 1833.61 390.181 1836.07 392.466 1837.31 395.672 1837.31 397.156 1837.31 398.663 1836.98 400.194 1836.34 401.726 1835.69 403.317 1834.65 404.968 1833.21 406.618 1831.78 408.245 1830.03 409.848 1827.97 411.451 1825.92 412.923 1823.85 414.263 1821.77 415.603 1819.68 416.847 1817.22 417.995 1814.37 419.144 1811.53 420.125 1808.09 420.938 1804.07L421.584 1800.99C422.302 1797.54 422.661 1794.29 422.661 1791.22 422.661 1787.49 421.871 1784.78 420.292 1783.08 418.713 1781.38 416.081 1780.53 412.396 1780.53ZM442.471 1742.06 446.706 1742.06 428.833 1821.51C427.781 1826.2 427.254 1829.74 427.254 1832.14 427.254 1834.05 427.565 1835.44 428.188 1836.3 428.81 1837.16 429.791 1837.59 431.13 1837.59 432.566 1837.59 434.097 1837.01 435.724 1835.83 437.351 1834.66 439.648 1832.42 442.615 1829.12L446.706 1833.14C442.304 1837.78 438.595 1841.06 435.581 1842.98 432.566 1844.89 429.312 1845.85 425.819 1845.85 422.852 1845.85 420.483 1844.87 418.713 1842.9 416.942 1840.94 416.057 1838.33 416.057 1835.08 416.057 1832.45 416.607 1829.65 417.708 1826.68L416.775 1826.4C412.181 1833.09 407.827 1838 403.711 1841.11 399.596 1844.22 395.242 1845.78 390.648 1845.78 385.384 1845.78 381.305 1843.79 378.41 1839.82 375.515 1835.85 374.067 1830.27 374.067 1823.09 374.067 1814.86 375.682 1806.96 378.912 1799.37 382.142 1791.79 386.581 1785.81 392.227 1781.43 397.874 1777.05 404.166 1774.86 411.104 1774.86 414.023 1774.86 416.715 1775.16 419.179 1775.76 421.644 1776.35 424.168 1777.4 426.752 1778.88L430.484 1762.3C430.867 1760.72 431.202 1758.97 431.489 1757.06 431.776 1755.14 431.92 1753.47 431.92 1752.03 431.92 1750.6 431.657 1749.51 431.13 1748.77 430.604 1748.03 429.85 1747.49 428.869 1747.15 427.888 1746.82 426.13 1746.58 423.594 1746.44L424.455 1742.7Z" fill-rule="evenodd"/><text fill="#000000" fill-opacity="0" font-family="Arial,Arial_MSFontService,sans-serif" font-size="103.79" x="374.067" y="1832.87">𝑑</text><path d="M423.776 1712.34C426.025 1712.34 427.915 1713.14 429.446 1714.74 430.977 1716.35 431.743 1718.37 431.743 1720.81 431.743 1723.25 430.977 1725.27 429.446 1726.87 427.915 1728.48 426.025 1729.28 423.776 1729.28 421.479 1729.28 419.565 1728.48 418.033 1726.87 416.502 1725.27 415.737 1723.25 415.737 1720.81 415.737 1718.37 416.502 1716.35 418.033 1714.74 419.565 1713.14 421.479 1712.34 423.776 1712.34Z" fill-rule="evenodd"/><text fill="#000000" fill-opacity="0" font-family="Arial,Arial_MSFontService,sans-serif" font-size="16.9395" x="415.737" y="1727.16">ሶ</text><path d="M476.401 1821.81 478.961 1821.81 471.228 1856.6C470.741 1858.66 470.401 1860.29 470.209 1861.51 470.018 1862.73 469.922 1863.83 469.922 1864.81 469.922 1866.13 470.192 1867.09 470.732 1867.68 471.272 1868.27 472.082 1868.57 473.161 1868.57 473.788 1868.57 474.415 1868.45 475.042 1868.2 475.669 1867.96 476.34 1867.57 477.054 1867.05 477.768 1866.53 478.551 1865.86 479.405 1865.04 480.258 1864.22 481.207 1863.24 482.252 1862.09L485.805 1865.54C483.994 1867.38 482.348 1868.94 480.868 1870.21 479.387 1871.48 477.985 1872.52 476.662 1873.32 475.338 1874.12 474.041 1874.7 472.769 1875.05 471.498 1875.39 470.148 1875.57 468.72 1875.57 467.397 1875.57 466.204 1875.32 465.142 1874.84 464.079 1874.35 463.165 1873.68 462.399 1872.83 461.632 1871.97 461.04 1870.95 460.622 1869.77 460.204 1868.58 459.995 1867.28 459.995 1865.85 459.995 1864.7 460.135 1863.27 460.413 1861.57 460.692 1859.86 461.049 1858 461.484 1856 461.92 1854 462.399 1851.9 462.921 1849.71 463.444 1847.51 463.957 1845.34 464.462 1843.18 464.967 1841.02 465.42 1838.94 465.821 1836.93 466.221 1834.93 466.509 1833.11 466.683 1831.47 466.752 1831.19 466.787 1830.92 466.787 1830.66 466.787 1830.4 466.787 1830.17 466.787 1829.96 466.718 1828.6 466.239 1827.61 465.351 1826.98 464.462 1826.35 462.886 1826 460.622 1825.93L461.249 1822.38ZM473.37 1800.75 483.82 1800.75 481.259 1811.98 470.915 1811.98Z" fill-rule="evenodd"/><text fill="#000000" fill-opacity="0" font-family="Arial,Arial_MSFontService,sans-serif" font-size="74.8164" x="459.995" y="1866.22">𝑖</text><path d="M794 1101.12 927.74 1101.13 927.74 1114.88 794 1114.87ZM920.865 1087.38 962.115 1108 920.865 1128.63Z" fill="#FF0000"/><path d="M6.875-1.98469e-05 6.87526 90.6385-6.87474 90.6385-6.875 1.98469e-05ZM20.6252 83.7634 0.000360892 125.013-20.6248 83.7635Z" fill="#4E95D9" transform="matrix(1 0 0 -1 738 1040.01)"/><path d="M737.419 830.034 777.939 830.034 777.939 832.19 747.212 887.219 763.429 887.219C765.435 887.219 766.925 887.032 767.899 886.658 768.872 886.283 769.673 885.699 770.302 884.906 770.931 884.112 771.5 882.997 772.009 881.559 772.518 880.122 773.132 877.89 773.851 874.866L778.253 874.866 778.253 891.352 736.745 891.352 736.745 889.151 767.517 834.166 751.21 834.166C750.042 834.166 749.121 834.264 748.448 834.458 747.774 834.653 747.167 834.953 746.628 835.357 746.089 835.761 745.558 836.353 745.033 837.131 744.509 837.91 743.985 838.981 743.461 840.343 742.937 841.706 742.391 843.405 741.822 845.442L737.419 845.442Z" fill-rule="evenodd"/><text fill="#000000" fill-opacity="0" font-family="Arial,Arial_MSFontService,sans-serif" font-size="61.3184" x="736.745" y="883.687">Z</text><path d="M793.767 876.977 796.123 876.977 796.123 901.71C796.123 903.04 796.155 904.054 796.221 904.752 796.286 905.45 796.455 905.99 796.728 906.372 797.001 906.753 797.404 907.037 797.938 907.222 798.473 907.408 799.209 907.653 800.147 907.958L800.147 910.052 785.785 910.052 785.785 907.958C786.657 907.653 787.35 907.413 787.862 907.239 788.375 907.064 788.762 906.797 789.024 906.437 789.285 906.077 789.454 905.548 789.531 904.85 789.607 904.152 789.645 903.138 789.645 901.808L789.645 886.399C789.645 885.636 789.629 884.987 789.596 884.453 789.563 883.918 789.525 883.466 789.482 883.095 789.438 882.572 789.362 882.13 789.253 881.77 789.143 881.41 788.942 881.094 788.647 880.821 788.353 880.549 787.939 880.314 787.404 880.118 786.87 879.922 786.166 879.736 785.294 879.562L785.294 877.337ZM789.416 863.793 796.319 863.793 796.319 870.827 789.416 870.827Z" fill-rule="evenodd"/><text fill="#000000" fill-opacity="0" font-family="Arial,Arial_MSFontService,sans-serif" font-size="46.2588" x="785.294" y="904.27">i</text><path d="M672 1108C672 1073.76 699.758 1046 734 1046 768.242 1046 796 1073.76 796 1108 796 1142.24 768.242 1170 734 1170 699.758 1170 672 1142.24 672 1108Z" stroke="#00B050" stroke-width="10.3125" stroke-miterlimit="8" fill="#FFFFFF" fill-rule="evenodd"/><path d="M571.077 1047.82 588.341 1047.82 588.341 1049.81C585.802 1050.1 584.532 1051.2 584.532 1053.09 584.532 1053.87 584.714 1054.75 585.079 1055.72 585.444 1056.7 586.099 1058.07 587.044 1059.86L595.15 1075.3 603.134 1061.19C604.214 1059.28 604.978 1057.7 605.424 1056.47 605.869 1055.24 606.092 1054.12 606.092 1053.09 606.092 1052.12 605.802 1051.35 605.221 1050.8 604.64 1050.24 603.782 1049.91 602.647 1049.81L602.647 1047.82 618.007 1047.82 618.007 1049.81C616.9 1050.21 615.927 1050.77 615.089 1051.49 614.252 1052.2 613.401 1053.17 612.536 1054.39 611.672 1055.6 610.402 1057.65 608.727 1060.55L597.46 1079.76 597.46 1092.89C597.46 1094.43 597.541 1095.67 597.703 1096.61 597.865 1097.56 598.135 1098.32 598.514 1098.88 598.892 1099.45 599.392 1099.9 600.013 1100.22 600.635 1100.55 601.607 1100.86 602.931 1101.15L602.931 1103.14 584.41 1103.14 584.41 1101.15C585.707 1100.88 586.666 1100.59 587.288 1100.28 587.909 1099.97 588.409 1099.53 588.787 1098.95 589.165 1098.36 589.442 1097.6 589.618 1096.66 589.793 1095.71 589.881 1094.45 589.881 1092.89L589.881 1079.92 578.696 1059.13C577.345 1056.61 576.318 1054.82 575.616 1053.74 574.913 1052.66 574.211 1051.81 573.508 1051.18 572.806 1050.56 571.995 1050.1 571.077 1049.81Z" fill-rule="evenodd"/><text fill="#000000" fill-opacity="0" font-family="Arial,Arial_MSFontService,sans-serif" font-size="55.3198" x="571.077" y="1096.22">Y</text><path d="M622.178 1089.87 624.322 1089.87 624.322 1112.39C624.322 1113.6 624.352 1114.52 624.411 1115.16 624.471 1115.79 624.625 1116.29 624.873 1116.63 625.121 1116.98 625.489 1117.24 625.975 1117.41 626.462 1117.58 627.132 1117.8 627.986 1118.08L627.986 1119.98 614.91 1119.98 614.91 1118.08C615.704 1117.8 616.335 1117.58 616.801 1117.42 617.268 1117.26 617.62 1117.02 617.859 1116.69 618.097 1116.36 618.251 1115.88 618.32 1115.25 618.39 1114.61 618.425 1113.69 618.425 1112.48L618.425 1098.45C618.425 1097.75 618.41 1097.16 618.38 1096.68 618.35 1096.19 618.315 1095.78 618.276 1095.44 618.236 1094.96 618.167 1094.56 618.067 1094.23 617.968 1093.91 617.784 1093.62 617.516 1093.37 617.248 1093.12 616.871 1092.91 616.384 1092.73 615.898 1092.55 615.258 1092.38 614.463 1092.22L614.463 1090.2ZM618.216 1077.87 624.501 1077.87 624.501 1084.27 618.216 1084.27Z" fill-rule="evenodd"/><text fill="#000000" fill-opacity="0" font-family="Arial,Arial_MSFontService,sans-serif" font-size="42.1162" x="614.463" y="1114.72">i</text><path d="M972.096 1047.82 989.36 1047.82 989.36 1049.81C988.063 1049.99 987.131 1050.35 986.564 1050.86 985.997 1051.37 985.713 1052.08 985.713 1052.97 985.713 1053.72 985.969 1054.67 986.483 1055.8 986.996 1056.94 987.726 1058.29 988.671 1059.86L994.548 1069.7 1000.34 1060.34C1001.21 1058.94 1001.86 1057.82 1002.29 1056.98 1002.72 1056.14 1003.02 1055.44 1003.2 1054.87 1003.38 1054.3 1003.46 1053.72 1003.46 1053.13 1003.46 1052.29 1003.22 1051.58 1002.73 1051 1002.25 1050.42 1001.44 1050.02 1000.3 1049.81L1000.3 1047.82 1015.34 1047.82 1015.34 1049.81C1014.34 1050.13 1013.44 1050.6 1012.64 1051.22 1011.85 1051.85 1011 1052.75 1010.09 1053.94 1009.18 1055.13 1007.89 1057.01 1006.22 1059.57L997.06 1073.76 1007.35 1090.7C1008.81 1093.1 1009.86 1094.78 1010.5 1095.74 1011.13 1096.7 1011.72 1097.51 1012.28 1098.18 1012.83 1098.84 1013.43 1099.41 1014.06 1099.9 1014.7 1100.38 1015.49 1100.8 1016.43 1101.15L1016.43 1103.14 998.641 1103.14 998.641 1101.15C999.884 1100.94 1000.8 1100.59 1001.4 1100.12 1001.99 1099.65 1002.29 1098.94 1002.29 1097.99 1002.29 1097.24 1002.09 1096.4 1001.7 1095.48 1001.31 1094.56 1000.71 1093.43 999.897 1092.08L992.562 1079.84 984.821 1092.52C983.524 1094.66 982.876 1096.41 982.876 1097.79 982.876 1098.68 983.119 1099.41 983.605 1099.98 984.092 1100.55 984.902 1100.94 986.037 1101.15L986.037 1103.14 970.718 1103.14 970.718 1101.15C971.717 1100.86 972.541 1100.5 973.19 1100.08 973.838 1099.66 974.46 1099.13 975.054 1098.48 975.649 1097.83 976.31 1097.01 977.04 1096.01 977.769 1095.01 978.931 1093.26 980.525 1090.78L990.09 1075.86 978.661 1057.06C977.58 1055.33 976.763 1054.07 976.209 1053.29 975.655 1052.51 975.142 1051.87 974.669 1051.39 974.196 1050.9 973.771 1050.56 973.393 1050.35 973.014 1050.15 972.582 1049.97 972.096 1049.81Z" fill-rule="evenodd"/><text fill="#000000" fill-opacity="0" font-family="Arial,Arial_MSFontService,sans-serif" font-size="55.3198" x="970.718" y="1096.22">X</text><path d="M1030.15 1089.87 1032.3 1089.87 1032.3 1112.39C1032.3 1113.6 1032.33 1114.52 1032.39 1115.16 1032.45 1115.79 1032.6 1116.29 1032.85 1116.63 1033.1 1116.98 1033.46 1117.24 1033.95 1117.41 1034.44 1117.58 1035.11 1117.8 1035.96 1118.08L1035.96 1119.98 1022.89 1119.98 1022.89 1118.08C1023.68 1117.8 1024.31 1117.58 1024.78 1117.42 1025.24 1117.26 1025.6 1117.02 1025.83 1116.69 1026.07 1116.36 1026.23 1115.88 1026.3 1115.25 1026.37 1114.61 1026.4 1113.69 1026.4 1112.48L1026.4 1098.45C1026.4 1097.75 1026.39 1097.16 1026.36 1096.68 1026.33 1096.19 1026.29 1095.78 1026.25 1095.44 1026.21 1094.96 1026.14 1094.56 1026.04 1094.23 1025.94 1093.91 1025.76 1093.62 1025.49 1093.37 1025.22 1093.12 1024.85 1092.91 1024.36 1092.73 1023.87 1092.55 1023.23 1092.38 1022.44 1092.22L1022.44 1090.2ZM1026.19 1077.87 1032.48 1077.87 1032.48 1084.27 1026.19 1084.27Z" fill-rule="evenodd"/><text fill="#000000" fill-opacity="0" font-family="Arial,Arial_MSFontService,sans-serif" font-size="42.1162" x="1022.44" y="1114.72">i</text><path d="M690 1064 777.577 1151.28" stroke="#00B050" stroke-width="13.75" stroke-miterlimit="8" fill="none" fill-rule="evenodd"/><path d="M0 0 87.5767 87.2843" stroke="#00B050" stroke-width="13.75" stroke-miterlimit="8" fill="none" fill-rule="evenodd" transform="matrix(-1 0 0 1 777.577 1064)"/><path d="M792 2087.13 925.74 2087.13 925.74 2100.88 792 2100.88ZM918.865 2073.38 960.115 2094 918.865 2114.63Z" fill="#FF0000"/><path d="M6.875-1.98469e-05 6.87526 90.6385-6.87474 90.6385-6.875 1.98469e-05ZM20.6252 83.7634 0.000360892 125.013-20.6248 83.7635Z" fill="#4E95D9" transform="matrix(1 0 0 -1 736 2026.01)"/><path d="M659.83 1823.65 700.349 1823.65 700.349 1825.81 669.623 1880.84 685.84 1880.84C687.846 1880.84 689.336 1880.65 690.309 1880.27 691.283 1879.9 692.084 1879.32 692.713 1878.52 693.342 1877.73 693.911 1876.61 694.42 1875.18 694.929 1873.74 695.543 1871.51 696.262 1868.48L700.664 1868.48 700.664 1884.97 659.156 1884.97 659.156 1882.77 689.928 1827.78 673.621 1827.78C672.453 1827.78 671.532 1827.88 670.858 1828.08 670.184 1828.27 669.578 1828.57 669.039 1828.97 668.5 1829.38 667.968 1829.97 667.444 1830.75 666.92 1831.53 666.396 1832.6 665.872 1833.96 665.348 1835.32 664.801 1837.02 664.232 1839.06L659.83 1839.06Z" fill-rule="evenodd"/><text fill="#000000" fill-opacity="0" font-family="Arial,Arial_MSFontService,sans-serif" font-size="61.3184" x="659.156" y="1877.3">Z</text><path d="M716.178 1870.59 718.533 1870.59 718.533 1895.33C718.533 1896.66 718.566 1897.67 718.631 1898.37 718.697 1899.07 718.866 1899.61 719.139 1899.99 719.411 1900.37 719.815 1900.65 720.349 1900.84 720.883 1901.02 721.619 1901.27 722.557 1901.58L722.557 1903.67 708.195 1903.67 708.195 1901.58C709.068 1901.27 709.76 1901.03 710.273 1900.86 710.785 1900.68 711.172 1900.41 711.434 1900.05 711.696 1899.69 711.865 1899.17 711.941 1898.47 712.018 1897.77 712.056 1896.76 712.056 1895.43L712.056 1880.02C712.056 1879.25 712.039 1878.6 712.007 1878.07 711.974 1877.54 711.936 1877.08 711.892 1876.71 711.849 1876.19 711.772 1875.75 711.663 1875.39 711.554 1875.03 711.352 1874.71 711.058 1874.44 710.764 1874.17 710.349 1873.93 709.815 1873.74 709.28 1873.54 708.577 1873.35 707.705 1873.18L707.705 1870.95ZM711.827 1857.41 718.73 1857.41 718.73 1864.44 711.827 1864.44Z" fill-rule="evenodd"/><text fill="#000000" fill-opacity="0" font-family="Arial,Arial_MSFontService,sans-serif" font-size="46.2588" x="707.705" y="1897.89">i</text><path d="M731.504 1882.01 769.191 1882.01 769.191 1887.02 731.504 1887.02Z" fill-rule="evenodd"/><text fill="#000000" fill-opacity="0" font-family="Arial,Arial_MSFontService,sans-serif" font-size="5.00537" x="731.504" y="1886.39">−</text><path d="M796.755 1861.53 798.751 1861.53C798.707 1862.73 798.675 1863.81 798.653 1864.75 798.631 1865.7 798.615 1866.63 798.604 1867.52 798.593 1868.41 798.588 1869.3 798.588 1870.17L798.588 1895.03C798.588 1895.71 798.609 1896.29 798.653 1896.78 798.697 1897.27 798.767 1897.69 798.866 1898.03 798.964 1898.36 799.095 1898.65 799.258 1898.89 799.422 1899.13 799.613 1899.34 799.831 1899.51 800.092 1899.78 800.441 1899.98 800.878 1900.12 801.314 1900.26 801.87 1900.38 802.546 1900.48 803.222 1900.58 804.035 1900.65 804.983 1900.71 805.932 1900.76 807.072 1900.8 808.402 1900.82L808.402 1903.67 782.459 1903.67 782.459 1900.82C783.746 1900.78 784.836 1900.73 785.731 1900.68 786.625 1900.62 787.388 1900.54 788.021 1900.45 788.653 1900.35 789.16 1900.24 789.542 1900.12 789.924 1900 790.256 1899.85 790.54 1899.68 790.845 1899.48 791.107 1899.27 791.325 1899.04 791.543 1898.81 791.717 1898.52 791.848 1898.17 791.979 1897.82 792.083 1897.4 792.159 1896.9 792.235 1896.4 792.274 1895.77 792.274 1895.03L792.274 1871.58C792.274 1870.73 792.11 1870.13 791.783 1869.78 791.456 1869.43 790.987 1869.25 790.376 1869.25 789.7 1869.25 788.697 1869.6 787.366 1870.3 786.036 1871 784.313 1872.03 782.197 1873.41 781.914 1872.91 781.652 1872.4 781.412 1871.9 781.172 1871.4 780.922 1870.89 780.66 1870.37 783.364 1868.88 786.041 1867.4 788.691 1865.93 791.341 1864.46 794.029 1862.99 796.755 1861.53Z" fill-rule="evenodd"/><text fill="#000000" fill-opacity="0" font-family="Arial,Arial_MSFontService,sans-serif" font-size="42.1367" x="780.66" y="1898.4">1</text><path d="M670 2094.5C670 2060.53 697.758 2033 732 2033 766.242 2033 794 2060.53 794 2094.5 794 2128.47 766.242 2156 732 2156 697.758 2156 670 2128.47 670 2094.5Z" stroke="#00B050" stroke-width="10.3125" stroke-miterlimit="8" fill="#FFFFFF" fill-rule="evenodd"/><path d="M549.092 2089.01 566.357 2089.01 566.357 2091C563.817 2091.29 562.548 2092.39 562.548 2094.28 562.548 2095.06 562.73 2095.94 563.095 2096.91 563.459 2097.89 564.115 2099.26 565.06 2101.05L573.166 2116.49 581.15 2102.38C582.23 2100.47 582.994 2098.89 583.439 2097.66 583.885 2096.43 584.108 2095.3 584.108 2094.28 584.108 2093.31 583.818 2092.54 583.237 2091.99 582.656 2091.43 581.798 2091.1 580.663 2091L580.663 2089.01 596.023 2089.01 596.023 2091C594.915 2091.4 593.943 2091.96 593.105 2092.68 592.268 2093.39 591.417 2094.36 590.552 2095.58 589.687 2096.79 588.417 2098.84 586.742 2101.74L575.476 2120.95 575.476 2134.08C575.476 2135.62 575.557 2136.86 575.719 2137.8 575.881 2138.75 576.151 2139.51 576.529 2140.07 576.908 2140.64 577.408 2141.09 578.029 2141.41 578.65 2141.74 579.623 2142.05 580.947 2142.34L580.947 2144.33 562.426 2144.33 562.426 2142.34C563.723 2142.07 564.682 2141.78 565.303 2141.47 565.925 2141.16 566.425 2140.72 566.803 2140.14 567.181 2139.55 567.458 2138.79 567.634 2137.85 567.809 2136.9 567.897 2135.64 567.897 2134.08L567.897 2121.11 556.712 2100.32C555.361 2097.8 554.334 2096.01 553.632 2094.93 552.929 2093.85 552.227 2092.99 551.524 2092.37 550.822 2091.75 550.011 2091.29 549.092 2091Z" fill-rule="evenodd"/><text fill="#000000" fill-opacity="0" font-family="Arial,Arial_MSFontService,sans-serif" font-size="55.3198" x="549.092" y="2137.41">Y</text><path d="M600.193 2131.06 602.338 2131.06 602.338 2153.58C602.338 2154.79 602.368 2155.71 602.427 2156.35 602.487 2156.98 602.641 2157.48 602.889 2157.82 603.137 2158.17 603.505 2158.43 603.991 2158.6 604.478 2158.77 605.148 2158.99 606.002 2159.27L606.002 2161.17 592.926 2161.17 592.926 2159.27C593.72 2158.99 594.351 2158.77 594.817 2158.61 595.284 2158.45 595.636 2158.21 595.875 2157.88 596.113 2157.55 596.267 2157.07 596.336 2156.44 596.406 2155.8 596.441 2154.88 596.441 2153.67L596.441 2139.64C596.441 2138.94 596.426 2138.35 596.396 2137.87 596.366 2137.38 596.331 2136.97 596.292 2136.63 596.252 2136.15 596.182 2135.75 596.083 2135.42 595.984 2135.1 595.8 2134.81 595.532 2134.56 595.264 2134.31 594.887 2134.1 594.4 2133.92 593.914 2133.74 593.273 2133.57 592.479 2133.41L592.479 2131.39ZM596.232 2119.06 602.517 2119.06 602.517 2125.46 596.232 2125.46Z" fill-rule="evenodd"/><text fill="#000000" fill-opacity="0" font-family="Arial,Arial_MSFontService,sans-serif" font-size="42.1162" x="592.479" y="2155.91">i</text><path d="M613.805 2141.46 648.117 2141.46 648.117 2146.01 613.805 2146.01Z" fill-rule="evenodd"/><text fill="#000000" fill-opacity="0" font-family="Arial,Arial_MSFontService,sans-serif" font-size="4.55713" x="613.805" y="2145.44">−</text><path d="M672.418 2122.81 674.235 2122.81C674.195 2123.9 674.165 2124.88 674.146 2125.74 674.126 2126.61 674.111 2127.45 674.101 2128.26 674.091 2129.07 674.086 2129.88 674.086 2130.67L674.086 2153.31C674.086 2153.93 674.106 2154.46 674.146 2154.9 674.185 2155.35 674.25 2155.73 674.339 2156.04 674.428 2156.34 674.548 2156.61 674.697 2156.82 674.845 2157.04 675.019 2157.23 675.218 2157.39 675.456 2157.63 675.774 2157.81 676.171 2157.94 676.568 2158.07 677.074 2158.18 677.69 2158.27 678.305 2158.36 679.045 2158.43 679.909 2158.48 680.773 2158.53 681.81 2158.56 683.021 2158.58L683.021 2161.17 659.402 2161.17 659.402 2158.58C660.573 2158.54 661.566 2158.5 662.38 2158.45 663.195 2158.4 663.889 2158.33 664.465 2158.24 665.041 2158.15 665.503 2158.05 665.85 2157.94 666.198 2157.83 666.501 2157.7 666.759 2157.54 667.037 2157.36 667.275 2157.17 667.474 2156.96 667.672 2156.75 667.831 2156.49 667.95 2156.17 668.069 2155.85 668.164 2155.46 668.233 2155.01 668.303 2154.55 668.337 2153.99 668.337 2153.31L668.337 2131.95C668.337 2131.18 668.188 2130.63 667.891 2130.32 667.593 2130 667.166 2129.84 666.61 2129.84 665.994 2129.84 665.081 2130.16 663.87 2130.79 662.658 2131.43 661.09 2132.37 659.164 2133.62 658.905 2133.17 658.667 2132.71 658.449 2132.25 658.23 2131.8 658.002 2131.33 657.764 2130.85 660.226 2129.5 662.663 2128.16 665.076 2126.82 667.489 2125.48 669.936 2124.14 672.418 2122.81Z" fill-rule="evenodd"/><text fill="#000000" fill-opacity="0" font-family="Arial,Arial_MSFontService,sans-serif" font-size="38.3633" x="657.764" y="2156.38">1</text><path d="M979.142 2029.5 996.407 2029.5 996.407 2031.49C995.11 2031.68 994.178 2032.03 993.61 2032.54 993.043 2033.05 992.759 2033.76 992.759 2034.65 992.759 2035.4 993.016 2036.35 993.529 2037.49 994.042 2038.62 994.772 2039.97 995.718 2041.54L1001.59 2051.39 1007.39 2042.02C1008.25 2040.62 1008.9 2039.5 1009.33 2038.66 1009.77 2037.82 1010.07 2037.12 1010.25 2036.55 1010.42 2035.99 1010.51 2035.4 1010.51 2034.81 1010.51 2033.97 1010.27 2033.26 1009.78 2032.68 1009.29 2032.1 1008.48 2031.7 1007.35 2031.49L1007.35 2029.5 1022.38 2029.5 1022.38 2031.49C1021.38 2031.81 1020.49 2032.28 1019.69 2032.91 1018.89 2033.53 1018.04 2034.43 1017.14 2035.62 1016.23 2036.81 1014.94 2038.69 1013.27 2041.25L1004.11 2055.44 1014.4 2072.38C1015.86 2074.78 1016.91 2076.47 1017.54 2077.42 1018.18 2078.38 1018.77 2079.19 1019.32 2079.86 1019.88 2080.52 1020.47 2081.09 1021.11 2081.58 1021.74 2082.07 1022.53 2082.48 1023.48 2082.84L1023.48 2084.82 1005.69 2084.82 1005.69 2082.84C1006.93 2082.62 1007.85 2082.27 1008.44 2081.8 1009.04 2081.33 1009.33 2080.62 1009.33 2079.67 1009.33 2078.92 1009.14 2078.08 1008.75 2077.16 1008.36 2076.24 1007.75 2075.11 1006.94 2073.76L999.608 2061.52 991.867 2074.2C990.571 2076.34 989.922 2078.09 989.922 2079.47 989.922 2080.36 990.165 2081.09 990.652 2081.66 991.138 2082.23 991.949 2082.62 993.083 2082.84L993.083 2084.82 977.764 2084.82 977.764 2082.84C978.764 2082.54 979.588 2082.18 980.236 2081.76 980.885 2081.34 981.506 2080.81 982.1 2080.16 982.695 2079.51 983.357 2078.69 984.086 2077.69 984.816 2076.69 985.978 2074.95 987.572 2072.46L997.136 2057.55 985.707 2038.74C984.627 2037.01 983.809 2035.76 983.255 2034.97 982.702 2034.19 982.188 2033.55 981.715 2033.07 981.243 2032.58 980.817 2032.24 980.439 2032.03 980.061 2031.83 979.628 2031.65 979.142 2031.49Z" fill-rule="evenodd"/><text fill="#000000" fill-opacity="0" font-family="Arial,Arial_MSFontService,sans-serif" font-size="55.3198" x="977.764" y="2077.91">X</text><path d="M1037.2 2071.55 1039.34 2071.55 1039.34 2094.07C1039.34 2095.28 1039.37 2096.2 1039.43 2096.84 1039.49 2097.48 1039.65 2097.97 1039.9 2098.31 1040.14 2098.66 1040.51 2098.92 1041 2099.09 1041.48 2099.26 1042.15 2099.48 1043.01 2099.76L1043.01 2101.66 1029.93 2101.66 1029.93 2099.76C1030.73 2099.48 1031.36 2099.26 1031.82 2099.1 1032.29 2098.94 1032.64 2098.7 1032.88 2098.37 1033.12 2098.05 1033.27 2097.56 1033.34 2096.93 1033.41 2096.29 1033.45 2095.37 1033.45 2094.16L1033.45 2080.13C1033.45 2079.44 1033.43 2078.84 1033.4 2078.36 1033.37 2077.87 1033.34 2077.46 1033.3 2077.12 1033.26 2076.65 1033.19 2076.24 1033.09 2075.92 1032.99 2075.59 1032.81 2075.3 1032.54 2075.05 1032.27 2074.8 1031.89 2074.59 1031.41 2074.41 1030.92 2074.23 1030.28 2074.06 1029.49 2073.91L1029.49 2071.88ZM1033.24 2059.55 1039.52 2059.55 1039.52 2065.95 1033.24 2065.95Z" fill-rule="evenodd"/><text fill="#000000" fill-opacity="0" font-family="Arial,Arial_MSFontService,sans-serif" font-size="42.1162" x="1029.49" y="2096.4">i</text><path d="M1050.81 2081.95 1085.12 2081.95 1085.12 2086.5 1050.81 2086.5Z" fill-rule="evenodd"/><text fill="#000000" fill-opacity="0" font-family="Arial,Arial_MSFontService,sans-serif" font-size="4.55713" x="1050.81" y="2085.93">−</text><path d="M1109.42 2063.3 1111.24 2063.3C1111.2 2064.39 1111.17 2065.37 1111.15 2066.24 1111.13 2067.1 1111.12 2067.94 1111.11 2068.75 1111.1 2069.57 1111.09 2070.37 1111.09 2071.16L1111.09 2093.8C1111.09 2094.42 1111.11 2094.95 1111.15 2095.4 1111.19 2095.84 1111.26 2096.22 1111.35 2096.53 1111.43 2096.83 1111.55 2097.1 1111.7 2097.32 1111.85 2097.53 1112.03 2097.72 1112.22 2097.88 1112.46 2098.12 1112.78 2098.3 1113.18 2098.43 1113.57 2098.56 1114.08 2098.67 1114.7 2098.76 1115.31 2098.85 1116.05 2098.92 1116.92 2098.97 1117.78 2099.02 1118.82 2099.05 1120.03 2099.07L1120.03 2101.66 1096.41 2101.66 1096.41 2099.07C1097.58 2099.03 1098.57 2098.99 1099.39 2098.94 1100.2 2098.89 1100.9 2098.82 1101.47 2098.73 1102.05 2098.64 1102.51 2098.54 1102.86 2098.43 1103.2 2098.32 1103.51 2098.19 1103.76 2098.03 1104.04 2097.85 1104.28 2097.66 1104.48 2097.45 1104.68 2097.24 1104.84 2096.98 1104.96 2096.66 1105.08 2096.34 1105.17 2095.96 1105.24 2095.5 1105.31 2095.04 1105.34 2094.48 1105.34 2093.8L1105.34 2072.45C1105.34 2071.67 1105.19 2071.12 1104.9 2070.81 1104.6 2070.49 1104.17 2070.33 1103.62 2070.33 1103 2070.33 1102.09 2070.65 1100.88 2071.28 1099.66 2071.92 1098.1 2072.86 1096.17 2074.11 1095.91 2073.66 1095.67 2073.2 1095.45 2072.74 1095.24 2072.29 1095.01 2071.82 1094.77 2071.34 1097.23 2069.99 1099.67 2068.65 1102.08 2067.31 1104.49 2065.97 1106.94 2064.63 1109.42 2063.3Z" fill-rule="evenodd"/><text fill="#000000" fill-opacity="0" font-family="Arial,Arial_MSFontService,sans-serif" font-size="38.3633" x="1094.77" y="2096.87">1</text><path d="M689 2051 776.577 2138.28" stroke="#00B050" stroke-width="13.75" stroke-miterlimit="8" fill="none" fill-rule="evenodd"/><path d="M0 0 87.5767 87.2843" stroke="#00B050" stroke-width="13.75" stroke-miterlimit="8" fill="none" fill-rule="evenodd" transform="matrix(-1 0 0 1 776.577 2051)"/></g></svg>