<svg width="1984" height="2356" xmlns="http://www.w3.org/2000/svg" xmlns:xlink="http://www.w3.org/1999/xlink" xml:space="preserve" overflow="hidden"><defs><clipPath id="clip0"><rect x="193" y="105" width="1984" height="2356"/></clipPath></defs><g clip-path="url(#clip0)" transform="translate(-193 -105)"><rect x="1844.5" y="473.5" width="186" height="1440" stroke="#042433" stroke-width="6.875" stroke-miterlimit="8" fill="#D9D9D9"/><rect x="484.5" y="456.5" width="186" height="1440" stroke="#042433" stroke-width="6.875" stroke-miterlimit="8" fill="#D9D9D9"/><path d="M352.5 2068.5C352.5 1941.47 455.474 1838.5 582.5 1838.5 709.526 1838.5 812.5 1941.47 812.5 2068.5 812.5 2195.53 709.526 2298.5 582.5 2298.5 455.474 2298.5 352.5 2195.53 352.5 2068.5Z" stroke="#042433" stroke-width="6.875" stroke-miterlimit="8" fill="#96DCF8" fill-rule="evenodd"/><path d="M988.719 2309.5C985.628 2323.76 984.083 2335.77 984.083 2345.5 984.083 2352.86 985.201 2358.27 987.436 2361.72 989.672 2365.17 993.289 2366.9 998.286 2366.9 1005.65 2366.9 1012.64 2361.95 1019.25 2352.06 1025.85 2342.16 1031.46 2327.97 1036.06 2309.5ZM1029.16 2243.02C1021.46 2243.02 1014.35 2247.88 1007.8 2257.62 1001.26 2267.35 995.689 2281.29 991.086 2299.44L1038.33 2299.44C1041.42 2285.56 1042.97 2273.63 1042.97 2263.63 1042.97 2256.73 1041.85 2251.57 1039.61 2248.15 1037.38 2244.73 1033.89 2243.02 1029.16 2243.02ZM1030.34 2235.03C1049.41 2235.03 1058.95 2247.13 1058.95 2271.33 1058.95 2278.16 1058.17 2286.33 1056.63 2295.84 1055.08 2305.34 1052.63 2315.02 1049.28 2324.88 1045.93 2334.75 1041.68 2343.48 1036.56 2351.07 1031.43 2358.66 1025.51 2364.53 1018.8 2368.68 1012.09 2372.82 1004.86 2374.89 997.102 2374.89 987.305 2374.89 980.006 2371.9 975.206 2365.91 970.406 2359.93 968.006 2350.95 968.006 2338.99 968.006 2332.48 968.729 2324.46 970.176 2314.92 971.622 2305.39 974.006 2295.64 977.326 2285.68 980.647 2275.71 984.921 2266.87 990.149 2259.14 995.376 2251.42 1001.39 2245.47 1008.2 2241.29 1015 2237.12 1022.39 2235.03 1030.34 2235.03Z" fill-rule="evenodd"/><text fill="#000000" fill-opacity="0" font-family="Arial,Arial_MSFontService,sans-serif" font-size="139.861" x="968.006" y="2357.41">𝜃</text><path d="M1029.09 2194.18C1032.18 2194.18 1034.78 2195.28 1036.88 2197.48 1038.99 2199.68 1040.04 2202.46 1040.04 2205.81 1040.04 2209.17 1038.99 2211.95 1036.88 2214.15 1034.78 2216.35 1032.18 2217.45 1029.09 2217.45 1025.93 2217.45 1023.3 2216.35 1021.2 2214.15 1019.1 2211.95 1018.04 2209.17 1018.04 2205.81 1018.04 2202.46 1019.1 2199.68 1021.2 2197.48 1023.3 2195.28 1025.93 2194.18 1029.09 2194.18Z" fill-rule="evenodd"/><text fill="#000000" fill-opacity="0" font-family="Arial,Arial_MSFontService,sans-serif" font-size="23.2773" x="1018.04" y="2214.54">ሶ</text><path d="M1106.79 2322.02 1111.17 2322.02C1111.08 2324.65 1111 2327.01 1110.96 2329.09 1110.91 2331.17 1110.87 2333.19 1110.85 2335.16 1110.83 2337.12 1110.81 2339.06 1110.81 2340.97L1110.81 2395.52C1110.81 2397 1110.86 2398.28 1110.96 2399.36 1111.05 2400.44 1111.21 2401.35 1111.42 2402.09 1111.64 2402.83 1111.93 2403.46 1112.28 2403.99 1112.64 2404.52 1113.06 2404.97 1113.54 2405.35 1114.12 2405.93 1114.88 2406.37 1115.84 2406.68 1116.79 2406.99 1118.02 2407.26 1119.5 2407.47 1120.98 2407.69 1122.76 2407.85 1124.85 2407.97 1126.93 2408.09 1129.43 2408.18 1132.35 2408.23L1132.35 2414.47 1075.43 2414.47 1075.43 2408.23C1078.25 2408.13 1080.64 2408.02 1082.6 2407.9 1084.57 2407.78 1086.24 2407.61 1087.63 2407.4 1089.02 2407.18 1090.13 2406.95 1090.97 2406.68 1091.8 2406.42 1092.53 2406.1 1093.16 2405.71 1093.83 2405.28 1094.4 2404.82 1094.88 2404.31 1095.36 2403.81 1095.74 2403.18 1096.03 2402.41 1096.31 2401.65 1096.54 2400.71 1096.71 2399.61 1096.88 2398.51 1096.96 2397.15 1096.96 2395.52L1096.96 2344.06C1096.96 2342.19 1096.6 2340.87 1095.88 2340.11 1095.17 2339.34 1094.14 2338.96 1092.8 2338.96 1091.31 2338.96 1089.11 2339.73 1086.19 2341.26 1083.27 2342.79 1079.49 2345.06 1074.85 2348.08 1074.23 2346.98 1073.66 2345.87 1073.13 2344.77 1072.6 2343.67 1072.05 2342.55 1071.48 2341.4 1077.41 2338.15 1083.29 2334.9 1089.1 2331.67 1094.91 2328.44 1100.81 2325.23 1106.79 2322.02Z" fill-rule="evenodd"/><text fill="#000000" fill-opacity="0" font-family="Arial,Arial_MSFontService,sans-serif" font-size="92.4492" x="1071.48" y="2402.91">1</text><path d="M117.318 647.583C48.4417 427.146 163.708 190.133 374.773 118.199 585.837 46.2646 812.774 166.649 881.65 387.085 882.292 389.139 882.918 391.198 883.53 393.261L979.826 386.7 864.827 492.441 713.698 404.833 809.794 398.285C747.417 217.643 557.92 124.503 386.54 190.252 219.548 254.317 130.603 446.191 185.277 624.421Z" stroke="#042433" stroke-width="6.875" stroke-miterlimit="8" fill="#156082" fill-rule="evenodd" transform="matrix(0.769977 0.638071 0.638071 -0.769977 -108.324 2124.11)"/><path d="M636 2054.13 990.092 2054.13 990.092 2067.88 636 2067.88ZM983.217 2040.38 1024.47 2061 983.217 2081.63Z" fill="#FF0000"/><path d="M6.875-4.1031e-06 6.87534 570.323-6.87466 570.323-6.875 4.1031e-06ZM20.6253 563.448 0.000360892 604.698-20.6247 563.448Z" fill="#4EA72E" transform="matrix(1 0 0 -1 581 1992.7)"/><path d="M420.874 1994.75 461.393 1994.75 461.393 1996.9 430.667 2051.93 446.884 2051.93C448.89 2051.93 450.38 2051.75 451.353 2051.37 452.327 2051 453.128 2050.41 453.757 2049.62 454.386 2048.83 454.955 2047.71 455.464 2046.27 455.973 2044.84 456.587 2042.6 457.305 2039.58L461.708 2039.58 461.708 2056.07 420.2 2056.07 420.2 2053.86 450.971 1998.88 434.665 1998.88C433.497 1998.88 432.576 1998.98 431.902 1999.17 431.228 1999.37 430.622 1999.67 430.083 2000.07 429.544 2000.48 429.012 2001.07 428.488 2001.85 427.964 2002.62 427.44 2003.69 426.916 2005.06 426.392 2006.42 425.845 2008.12 425.276 2010.16L420.874 2010.16Z" fill-rule="evenodd"/><text fill="#000000" fill-opacity="0" font-family="Arial,Arial_MSFontService,sans-serif" font-size="61.3184" x="420.2" y="2048.4">Z</text><path d="M484.648 2035.57C483.121 2035.57 481.846 2035.97 480.82 2036.77 479.795 2037.56 478.983 2038.73 478.383 2040.27 477.783 2041.81 477.358 2043.68 477.107 2045.9 476.857 2048.11 476.731 2050.62 476.731 2053.44 476.731 2056.69 476.889 2059.49 477.205 2061.86 477.522 2064.23 478.012 2066.17 478.678 2067.7 479.343 2069.23 480.177 2070.35 481.18 2071.07 482.184 2071.79 483.383 2072.15 484.779 2072.15 486.088 2072.15 487.233 2071.81 488.214 2071.13 489.195 2070.46 490.008 2069.41 490.651 2067.98 491.295 2066.55 491.78 2064.74 492.107 2062.55 492.434 2060.36 492.598 2057.77 492.598 2054.78 492.598 2051.42 492.418 2048.53 492.058 2046.11 491.698 2043.69 491.191 2041.7 490.537 2040.14 489.882 2038.58 489.059 2037.43 488.067 2036.69 487.074 2035.94 485.935 2035.57 484.648 2035.57ZM484.779 2032.4C487.374 2032.4 489.594 2032.89 491.436 2033.86 493.279 2034.83 494.784 2036.21 495.951 2038.01 497.118 2039.81 497.974 2042.01 498.519 2044.6 499.064 2047.2 499.337 2050.13 499.337 2053.4 499.337 2060.67 498.05 2066.16 495.477 2069.88 492.903 2073.59 489.174 2075.45 484.288 2075.45 479.446 2075.45 475.848 2073.7 473.492 2070.19 471.137 2066.67 469.959 2061.35 469.959 2054.22 469.959 2050.49 470.324 2047.26 471.055 2044.54 471.786 2041.81 472.811 2039.55 474.13 2037.75 475.45 2035.95 477.015 2034.61 478.825 2033.73 480.635 2032.84 482.62 2032.4 484.779 2032.4Z" fill-rule="evenodd"/><text fill="#000000" fill-opacity="0" font-family="Arial,Arial_MSFontService,sans-serif" font-size="43.0527" x="469.959" y="2070.07">0</text><path d="M515 2060.5C515 2026.53 542.534 1999 576.5 1999 610.466 1999 638 2026.53 638 2060.5 638 2094.47 610.466 2122 576.5 2122 542.534 2122 515 2094.47 515 2060.5Z" stroke="#0070C0" stroke-width="10.3125" stroke-miterlimit="8" fill="#FFFFFF" fill-rule="evenodd"/><path d="M560.5 2061C560.5 2051.89 567.888 2044.5 577 2044.5 586.113 2044.5 593.5 2051.89 593.5 2061 593.5 2070.11 586.113 2077.5 577 2077.5 567.888 2077.5 560.5 2070.11 560.5 2061Z" stroke="#0070C0" stroke-width="1.14583" stroke-miterlimit="8" fill="#0070C0" fill-rule="evenodd"/><path d="M608.36 1372.25 625.625 1372.25 625.625 1374.24C623.085 1374.54 621.815 1375.63 621.815 1377.52 621.815 1378.3 621.998 1379.18 622.363 1380.16 622.727 1381.13 623.383 1382.51 624.328 1384.29L632.434 1399.73 640.417 1385.63C641.498 1383.71 642.261 1382.13 642.707 1380.9 643.153 1379.68 643.376 1378.55 643.376 1377.52 643.376 1376.55 643.086 1375.78 642.505 1375.23 641.924 1374.68 641.066 1374.35 639.931 1374.24L639.931 1372.25 655.291 1372.25 655.291 1374.24C654.183 1374.64 653.211 1375.2 652.373 1375.92 651.535 1376.64 650.684 1377.6 649.82 1378.82 648.955 1380.03 647.685 1382.09 646.01 1384.98L634.744 1404.19 634.744 1417.32C634.744 1418.86 634.825 1420.1 634.987 1421.05 635.149 1421.99 635.419 1422.75 635.797 1423.32 636.176 1423.88 636.675 1424.33 637.297 1424.65 637.918 1424.98 638.891 1425.29 640.215 1425.59L640.215 1427.57 621.694 1427.57 621.694 1425.59C622.991 1425.32 623.95 1425.03 624.571 1424.71 625.193 1424.4 625.693 1423.96 626.071 1423.38 626.449 1422.8 626.726 1422.03 626.902 1421.09 627.077 1420.14 627.165 1418.89 627.165 1417.32L627.165 1404.35 615.979 1383.56C614.629 1381.05 613.602 1379.25 612.899 1378.17 612.197 1377.09 611.494 1376.24 610.792 1375.62 610.09 1374.99 609.279 1374.54 608.36 1374.24Z" fill-rule="evenodd"/><text fill="#000000" fill-opacity="0" font-family="Arial,Arial_MSFontService,sans-serif" font-size="55.3198" x="608.36" y="1420.66">Y</text><path d="M666.223 1408.73C664.833 1408.73 663.671 1409.1 662.738 1409.82 661.805 1410.55 661.065 1411.61 660.519 1413.01 659.973 1414.41 659.586 1416.11 659.357 1418.13 659.129 1420.15 659.015 1422.43 659.015 1425 659.015 1427.95 659.159 1430.51 659.447 1432.67 659.734 1434.82 660.181 1436.59 660.787 1437.98 661.393 1439.37 662.152 1440.39 663.065 1441.05 663.979 1441.71 665.071 1442.03 666.342 1442.03 667.533 1442.03 668.576 1441.73 669.469 1441.11 670.363 1440.49 671.102 1439.54 671.688 1438.24 672.274 1436.93 672.716 1435.29 673.014 1433.29 673.312 1431.3 673.46 1428.94 673.46 1426.22 673.46 1423.16 673.297 1420.53 672.969 1418.32 672.641 1416.12 672.18 1414.31 671.584 1412.89 670.988 1411.47 670.239 1410.42 669.335 1409.75 668.432 1409.07 667.394 1408.73 666.223 1408.73ZM666.342 1405.84C668.705 1405.84 670.725 1406.29 672.403 1407.17 674.081 1408.05 675.451 1409.31 676.513 1410.95 677.576 1412.59 678.355 1414.59 678.852 1416.95 679.348 1419.32 679.596 1421.99 679.596 1424.97 679.596 1431.58 678.425 1436.58 676.082 1439.96 673.738 1443.35 670.343 1445.04 665.895 1445.04 661.487 1445.04 658.21 1443.44 656.066 1440.25 653.921 1437.05 652.849 1432.2 652.849 1425.71 652.849 1422.32 653.182 1419.38 653.847 1416.89 654.512 1414.41 655.445 1412.35 656.647 1410.71 657.848 1409.08 659.273 1407.85 660.921 1407.05 662.569 1406.25 664.376 1405.84 666.342 1405.84Z" fill-rule="evenodd"/><text fill="#000000" fill-opacity="0" font-family="Arial,Arial_MSFontService,sans-serif" font-size="39.1973" x="652.849" y="1440.14">0</text><path d="M1032.93 1974.63 1050.19 1974.63 1050.19 1976.61C1048.89 1976.8 1047.96 1977.15 1047.39 1977.66 1046.83 1978.18 1046.54 1978.88 1046.54 1979.77 1046.54 1980.53 1046.8 1981.47 1047.31 1982.61 1047.83 1983.74 1048.56 1985.09 1049.5 1986.66L1055.38 1996.51 1061.17 1987.15C1062.04 1985.74 1062.69 1984.62 1063.12 1983.78 1063.55 1982.95 1063.85 1982.24 1064.03 1981.68 1064.21 1981.11 1064.29 1980.53 1064.29 1979.93 1064.29 1979.1 1064.05 1978.39 1063.56 1977.81 1063.08 1977.23 1062.27 1976.83 1061.13 1976.61L1061.13 1974.63 1076.17 1974.63 1076.17 1976.61C1075.17 1976.94 1074.27 1977.41 1073.47 1978.03 1072.68 1978.65 1071.82 1979.56 1070.92 1980.74 1070.01 1981.93 1068.72 1983.81 1067.05 1986.38L1057.89 2000.56 1068.18 2017.5C1069.64 2019.91 1070.69 2021.59 1071.32 2022.55 1071.96 2023.51 1072.55 2024.32 1073.11 2024.98 1073.66 2025.64 1074.26 2026.22 1074.89 2026.7 1075.53 2027.19 1076.32 2027.61 1077.26 2027.96L1077.26 2029.95 1059.47 2029.95 1059.47 2027.96C1060.71 2027.74 1061.63 2027.4 1062.23 2026.93 1062.82 2026.45 1063.12 2025.74 1063.12 2024.8 1063.12 2024.04 1062.92 2023.2 1062.53 2022.29 1062.14 2021.37 1061.54 2020.23 1060.73 2018.88L1053.39 2006.64 1045.65 2019.33C1044.35 2021.46 1043.71 2023.22 1043.71 2024.6 1043.71 2025.49 1043.95 2026.22 1044.44 2026.78 1044.92 2027.35 1045.73 2027.74 1046.87 2027.96L1046.87 2029.95 1031.55 2029.95 1031.55 2027.96C1032.55 2027.66 1033.37 2027.3 1034.02 2026.89 1034.67 2026.47 1035.29 2025.93 1035.88 2025.28 1036.48 2024.64 1037.14 2023.81 1037.87 2022.81 1038.6 2021.81 1039.76 2020.07 1041.35 2017.58L1050.92 2002.67 1039.49 1983.87C1038.41 1982.14 1037.59 1980.88 1037.04 1980.1 1036.48 1979.31 1035.97 1978.68 1035.5 1978.19 1035.03 1977.71 1034.6 1977.36 1034.22 1977.16 1033.84 1976.96 1033.41 1976.77 1032.93 1976.61Z" fill-rule="evenodd"/><text fill="#000000" fill-opacity="0" font-family="Arial,Arial_MSFontService,sans-serif" font-size="55.3198" x="1031.55" y="2023.03">X</text><path d="M1097.74 2011.11C1096.35 2011.11 1095.19 2011.47 1094.26 2012.19 1093.33 2012.92 1092.59 2013.98 1092.04 2015.38 1091.49 2016.78 1091.11 2018.49 1090.88 2020.5 1090.65 2022.52 1090.54 2024.81 1090.54 2027.37 1090.54 2030.33 1090.68 2032.88 1090.97 2035.04 1091.26 2037.19 1091.7 2038.97 1092.31 2040.36 1092.91 2041.75 1093.67 2042.77 1094.59 2043.42 1095.5 2044.08 1096.59 2044.41 1097.86 2044.41 1099.05 2044.41 1100.1 2044.1 1100.99 2043.48 1101.88 2042.87 1102.62 2041.91 1103.21 2040.61 1103.8 2039.31 1104.24 2037.66 1104.54 2035.66 1104.83 2033.67 1104.98 2031.31 1104.98 2028.59 1104.98 2025.53 1104.82 2022.9 1104.49 2020.7 1104.16 2018.49 1103.7 2016.68 1103.11 2015.26 1102.51 2013.84 1101.76 2012.79 1100.86 2012.12 1099.95 2011.44 1098.92 2011.11 1097.74 2011.11ZM1097.86 2008.22C1100.23 2008.22 1102.25 2008.66 1103.92 2009.54 1105.6 2010.43 1106.97 2011.69 1108.04 2013.33 1109.1 2014.96 1109.88 2016.96 1110.37 2019.33 1110.87 2021.69 1111.12 2024.36 1111.12 2027.34 1111.12 2033.95 1109.95 2038.95 1107.6 2042.34 1105.26 2045.72 1101.86 2047.41 1097.42 2047.41 1093.01 2047.41 1089.73 2045.82 1087.59 2042.62 1085.44 2039.42 1084.37 2034.58 1084.37 2028.08 1084.37 2024.69 1084.7 2021.75 1085.37 2019.27 1086.03 2016.79 1086.97 2014.73 1088.17 2013.09 1089.37 2011.45 1090.79 2010.23 1092.44 2009.42 1094.09 2008.62 1095.9 2008.22 1097.86 2008.22Z" fill-rule="evenodd"/><text fill="#000000" fill-opacity="0" font-family="Arial,Arial_MSFontService,sans-serif" font-size="39.1973" x="1084.37" y="2042.51">0</text><path d="M1713.5 2093.5C1713.5 1966.47 1816.47 1863.5 1943.5 1863.5 2070.53 1863.5 2173.5 1966.47 2173.5 2093.5 2173.5 2220.53 2070.53 2323.5 1943.5 2323.5 1816.47 2323.5 1713.5 2220.53 1713.5 2093.5Z" stroke="#042433" stroke-width="6.875" stroke-miterlimit="8" fill="#96DCF8" fill-rule="evenodd"/><path d="M1881 2093C1881 2058.76 1908.76 2031 1943 2031 1977.24 2031 2005 2058.76 2005 2093 2005 2127.24 1977.24 2155 1943 2155 1908.76 2155 1881 2127.24 1881 2093Z" stroke="#0070C0" stroke-width="10.3125" stroke-miterlimit="8" fill="#FFFFFF" fill-rule="evenodd"/><path d="M1927.5 2093.5C1927.5 2084.66 1934.89 2077.5 1944 2077.5 1953.11 2077.5 1960.5 2084.66 1960.5 2093.5 1960.5 2102.34 1953.11 2109.5 1944 2109.5 1934.89 2109.5 1927.5 2102.34 1927.5 2093.5Z" stroke="#0070C0" stroke-width="1.14583" stroke-miterlimit="8" fill="#0070C0" fill-rule="evenodd"/><path d="M1939 481 1939 2077 1254 481Z" stroke="#042433" stroke-width="13.75" stroke-miterlimit="8" fill="none" fill-rule="evenodd"/><path d="M3.62341e-06-6.875 650.376-6.87466 650.376 6.87534-3.62341e-06 6.875ZM643.501-20.6247 684.751 0.000360892 643.501 20.6253Z" fill="#FF0000" transform="matrix(-1 0 0 1 1938.75 481)"/><path d="M3.88057e-06-6.875 604.999-6.87466 604.999 6.87534-3.88057e-06 6.875ZM598.124-20.6247 639.374 0.000360892 598.124 20.6253Z" fill="#FF0000" transform="matrix(-1 0 0 1 1938.37 598)"/><path d="M4.24345e-06-6.875 550.323-6.87466 550.323 6.87534-4.24345e-06 6.875ZM543.448-20.6247 584.698 0.000360892 543.448 20.6253Z" fill="#FF0000" transform="matrix(-1 0 0 1 1938.7 712)"/><path d="M4.64669e-06-6.875 499.583-6.87466 499.583 6.87534-4.64669e-06 6.875ZM492.708-20.6247 533.958 0.000360892 492.708 20.6253Z" fill="#FF0000" transform="matrix(-1 0 0 1 1938.96 827)"/><path d="M5.13748e-06-6.875 448.573-6.87466 448.573 6.87534-5.13748e-06 6.875ZM441.698-20.6247 482.948 0.000360892 441.698 20.6253Z" fill="#FF0000" transform="matrix(-1 0 0 1 1938.95 941)"/><path d="M5.72419e-06-6.875 399.073-6.87467 399.073 6.87533-5.72419e-06 6.875ZM392.198-20.6247 433.448 0.000360892 392.198 20.6253Z" fill="#FF0000" transform="matrix(-1 0 0 1 1938.45 1055)"/><path d="M6.36869e-06-6.875 355.208-6.87467 355.208 6.87533-6.36869e-06 6.875ZM348.333-20.6247 389.583 0.000360892 348.333 20.6253Z" fill="#FF0000" transform="matrix(-1 0 0 1 1938.58 1170)"/><path d="M1938.27 1290.99 1630.27 1286.39 1630.47 1272.64 1938.48 1277.24ZM1636.94 1300.24 1596 1279 1637.55 1258.99Z" fill="#FF0000"/><path d="M8.46233e-06-6.875 258.823-6.87468 258.823 6.87532-8.46233e-06 6.875ZM251.948-20.6247 293.198 0.000360892 251.948 20.6253Z" fill="#FF0000" transform="matrix(-1 0 0 1 1939.2 1399)"/><path d="M1.00676e-05-6.875 212.073-6.87469 212.073 6.87531-1.00676e-05 6.875ZM205.198-20.6247 246.448 0.000360892 205.198 20.6253Z" fill="#FF0000" transform="matrix(-1 0 0 1 1938.45 1513)"/><path d="M1.27763e-05-6.875 159.823-6.8747 159.823 6.8753-1.27763e-05 6.875ZM152.948-20.6247 194.198 0.000360892 152.948 20.6253Z" fill="#FF0000" transform="matrix(-1 0 0 1 1939.2 1627)"/><path d="M1.74792e-05-6.875 107.573-6.87473 107.573 6.87527-1.74792e-05 6.875ZM100.698-20.6247 141.948 0.000360892 100.698 20.6253Z" fill="#FF0000" transform="matrix(-1 0 0 1 1938.95 1742)"/><path d="M0.504599-6.85646 59.2225-2.53513 58.2133 11.1778-0.504599 6.85646ZM53.3752-16.7526 93.0002 6.84432 50.3476 24.3861Z" fill="#FF0000" transform="matrix(-1 0 0 1 1939 1856)"/><path d="M-3.80216-20.625 37.4476 0.000360892-3.80256 20.625Z" fill="#FF0000" transform="matrix(-1 0 0 1 1938.45 1971)"/><text font-family="Aptos,Aptos_MSFontService,sans-serif" font-weight="400" font-size="183" transform="matrix(1 0 0 1 1266.67 421)">v</text><path d="M633 458.125 766.74 458.125 766.74 471.875 633 471.875ZM759.865 444.375 801.115 465 759.865 485.625Z" fill="#FF0000"/><path d="M6.875-1.98469e-05 6.87526 90.6385-6.87474 90.6385-6.875 1.98469e-05ZM20.6252 83.7634 0.000360892 125.013-20.6248 83.7635Z" fill="#4EA72E" transform="matrix(1 0 0 -1 577 397.013)"/><path d="M258.093 341.71 298.613 341.71 298.613 343.866 267.886 398.896 284.103 398.896C286.109 398.896 287.599 398.709 288.573 398.334 289.546 397.96 290.347 397.376 290.976 396.582 291.605 395.789 292.174 394.673 292.683 393.236 293.192 391.798 293.806 389.567 294.525 386.542L298.927 386.542 298.927 403.029 257.419 403.029 257.419 400.827 288.191 345.843 271.884 345.843C270.716 345.843 269.795 345.94 269.121 346.135 268.448 346.33 267.841 346.629 267.302 347.033 266.763 347.438 266.232 348.029 265.707 348.808 265.183 349.586 264.659 350.657 264.135 352.02 263.611 353.382 263.065 355.082 262.495 357.118L258.093 357.118Z" fill-rule="evenodd"/><text fill="#000000" fill-opacity="0" font-family="Arial,Arial_MSFontService,sans-serif" font-size="61.3184" x="257.419" y="395.364">Z</text><path d="M381.415 406.025C376.573 406.134 373.018 406.756 370.75 407.89 368.482 409.024 367.347 410.747 367.347 413.059 367.347 414.848 367.854 416.14 368.869 416.936 369.883 417.732 371.273 418.13 373.04 418.13 374.283 418.13 375.417 417.912 376.442 417.476 377.467 417.039 378.345 416.478 379.076 415.791 379.806 415.104 380.379 414.34 380.793 413.501 381.208 412.661 381.415 411.838 381.415 411.031ZM475.966 391.565C474.788 391.565 473.725 391.8 472.776 392.269 471.827 392.738 470.998 393.419 470.289 394.314 469.581 395.208 469.003 396.304 468.556 397.601 468.109 398.899 467.82 400.366 467.689 402.001L482.868 402.001C482.65 398.446 482.001 395.818 480.922 394.117 479.842 392.416 478.19 391.565 475.966 391.565ZM476.358 388.327C478.67 388.327 480.666 388.681 482.345 389.39 484.024 390.099 485.387 391.075 486.434 392.318 486.958 392.929 487.427 393.626 487.841 394.412 488.255 395.197 488.61 396.107 488.904 397.143 489.199 398.179 489.428 399.362 489.591 400.693 489.755 402.023 489.858 403.539 489.902 405.24L467.492 405.24 467.492 405.535C467.492 409.657 468.261 412.743 469.799 414.793 471.336 416.843 473.774 417.868 477.111 417.868 478.005 417.868 478.861 417.776 479.679 417.59 480.497 417.405 481.309 417.116 482.116 416.723 482.923 416.331 483.735 415.824 484.553 415.202 485.371 414.58 486.227 413.844 487.121 412.994L489.411 415.709C488.19 416.909 487.029 417.928 485.927 418.768 484.826 419.608 483.73 420.289 482.639 420.813 481.549 421.336 480.437 421.718 479.302 421.958 478.168 422.197 476.969 422.317 475.704 422.317 470.731 422.317 466.991 420.894 464.483 418.048 461.974 415.202 460.72 411.009 460.72 405.469 460.72 402.918 461.091 400.589 461.833 398.485 462.574 396.38 463.632 394.575 465.006 393.07 466.38 391.565 468.027 390.399 469.946 389.57 471.865 388.741 474.003 388.327 476.358 388.327ZM419.592 388.327C421.992 388.327 423.916 388.834 425.367 389.848 426.817 390.862 427.88 392.438 428.556 394.575 429.778 393.397 430.874 392.416 431.844 391.631 432.815 390.846 433.731 390.213 434.592 389.733 435.454 389.254 436.31 388.91 437.16 388.703 438.011 388.496 438.938 388.37 439.941 388.327 441.424 388.349 442.755 388.561 443.932 388.965 445.11 389.368 446.108 390.017 446.926 390.911 447.744 391.805 448.371 392.983 448.807 394.444 449.243 395.906 449.45 397.694 449.428 399.81L449.428 413.386C449.428 414.673 449.445 415.66 449.477 416.347 449.51 417.034 449.647 417.574 449.886 417.966 450.126 418.359 450.513 418.659 451.048 418.866 451.582 419.073 452.351 419.329 453.354 419.635L453.354 421.729 439.058 421.729 439.058 419.635C439.93 419.329 440.628 419.09 441.152 418.915 441.675 418.741 442.073 418.473 442.346 418.114 442.618 417.754 442.793 417.23 442.869 416.543 442.945 415.856 442.984 414.858 442.984 413.55L442.984 403.277C442.984 400.966 442.858 399.123 442.607 397.749 442.357 396.375 441.986 395.322 441.495 394.592 441.004 393.861 440.377 393.387 439.614 393.168 438.851 392.95 437.967 392.841 436.964 392.841 436.201 392.841 435.361 393.043 434.445 393.447 433.529 393.85 432.678 394.395 431.893 395.082 431.108 395.769 430.448 396.56 429.914 397.454 429.38 398.348 429.113 399.275 429.113 400.235L429.113 413.386C429.113 414.673 429.134 415.671 429.178 416.38 429.222 417.089 429.369 417.634 429.62 418.015 429.87 418.397 430.263 418.692 430.797 418.899 431.332 419.106 432.1 419.351 433.104 419.635L433.104 421.729 418.742 421.729 418.742 419.635C419.614 419.329 420.307 419.084 420.819 418.899 421.332 418.713 421.724 418.441 421.997 418.081 422.27 417.721 422.444 417.203 422.52 416.527 422.597 415.851 422.635 414.858 422.635 413.55L422.635 403.703C422.635 401.325 422.51 399.428 422.259 398.01 422.008 396.593 421.637 395.508 421.146 394.755 420.656 394.003 420.029 393.507 419.265 393.267 418.502 393.027 417.619 392.885 416.615 392.841 415.743 392.885 414.838 393.119 413.9 393.545 412.962 393.97 412.106 394.526 411.332 395.213 410.558 395.9 409.931 396.669 409.451 397.52 408.971 398.37 408.753 399.221 408.797 400.071L408.797 413.386C408.797 414.738 408.824 415.769 408.878 416.478 408.933 417.187 409.091 417.721 409.353 418.081 409.614 418.441 410.012 418.708 410.547 418.882 411.081 419.057 411.839 419.308 412.821 419.635L412.821 421.729 398.459 421.729 398.459 419.635C399.309 419.329 399.991 419.09 400.503 418.915 401.016 418.741 401.408 418.473 401.681 418.114 401.954 417.754 402.128 417.225 402.205 416.527 402.281 415.829 402.319 414.815 402.319 413.484L402.319 398.076C402.319 397.247 402.303 396.533 402.27 395.933 402.237 395.333 402.199 394.848 402.155 394.477 402.112 394.019 402.03 393.626 401.91 393.299 401.79 392.972 401.583 392.683 401.289 392.432 400.994 392.182 400.58 391.964 400.045 391.778 399.511 391.593 398.819 391.413 397.968 391.238L397.968 389.014 406.539 388.654 408.862 388.654C408.797 389.592 408.72 390.513 408.633 391.418 408.546 392.323 408.469 393.234 408.404 394.15 408.469 394.194 408.535 394.215 408.6 394.215 408.666 394.215 408.731 394.237 408.797 394.281 409.953 393.147 411.01 392.203 411.97 391.451 412.93 390.699 413.835 390.093 414.685 389.635 415.536 389.177 416.359 388.85 417.155 388.654 417.951 388.458 418.764 388.349 419.592 388.327ZM377.751 388.327C379.43 388.37 380.897 388.561 382.151 388.899 383.405 389.237 384.452 389.821 385.291 390.649 386.131 391.478 386.764 392.596 387.189 394.003 387.614 395.409 387.838 397.192 387.86 399.352L387.86 411.849C387.86 413.266 387.849 414.411 387.827 415.284 387.805 416.156 387.903 416.865 388.121 417.41 388.339 417.955 388.732 418.386 389.299 418.702 389.866 419.019 390.728 419.329 391.884 419.635L391.884 421.729 381.807 421.729C381.851 420.922 381.884 420.115 381.905 419.308 381.927 418.501 381.96 417.716 382.004 416.952 381.938 416.909 381.873 416.881 381.807 416.87 381.742 416.859 381.655 416.832 381.546 416.789 380.521 417.792 379.545 418.642 378.618 419.34 377.691 420.038 376.764 420.611 375.837 421.058 374.91 421.505 373.972 421.827 373.023 422.023 372.075 422.219 371.088 422.317 370.063 422.317 368.645 422.317 367.364 422.11 366.219 421.696 365.074 421.281 364.103 420.698 363.307 419.946 362.511 419.193 361.9 418.304 361.475 417.279 361.05 416.254 360.837 415.12 360.837 413.877 360.837 410.518 362.555 407.945 365.99 406.156 369.425 404.368 374.566 403.299 381.415 402.95L381.415 400.595C381.415 398.981 381.289 397.612 381.039 396.489 380.788 395.366 380.395 394.455 379.861 393.757 379.326 393.059 378.623 392.552 377.751 392.236 376.878 391.92 375.821 391.762 374.577 391.762 372.854 391.762 371.404 392.22 370.226 393.136 369.049 394.052 368.176 395.502 367.609 397.487L362.767 397.487 362.767 392.514C364.338 391.773 365.777 391.14 367.086 390.617 368.394 390.093 369.643 389.663 370.832 389.324 372.02 388.986 373.176 388.741 374.299 388.588 375.422 388.436 376.573 388.349 377.751 388.327ZM351.378 388.327C352.73 388.327 354.017 388.458 355.238 388.719L355.238 396.833 351.051 396.833C350.811 396.222 350.56 395.693 350.298 395.246 350.036 394.799 349.736 394.428 349.398 394.134 349.06 393.839 348.668 393.621 348.221 393.479 347.774 393.338 347.245 393.267 346.634 393.267 346.002 393.267 345.287 393.468 344.491 393.872 343.695 394.275 342.948 394.826 342.25 395.524 341.552 396.222 340.969 397.029 340.5 397.945 340.031 398.861 339.797 399.831 339.797 400.856L339.797 413.386C339.797 414.76 339.857 415.813 339.977 416.543 340.096 417.274 340.32 417.825 340.647 418.195 340.974 418.566 341.421 418.833 341.988 418.997 342.556 419.16 343.297 419.373 344.213 419.635L344.213 421.729 329.459 421.729 329.459 419.635C330.309 419.329 330.991 419.09 331.503 418.915 332.016 418.741 332.409 418.473 332.681 418.114 332.954 417.754 333.128 417.225 333.205 416.527 333.281 415.829 333.319 414.815 333.319 413.484L333.319 399.417C333.319 397.912 333.314 396.68 333.303 395.72 333.292 394.761 333.161 393.981 332.91 393.381 332.659 392.781 332.234 392.323 331.634 392.007 331.034 391.691 330.146 391.435 328.968 391.238L328.968 389.014 337.539 388.654 339.862 388.654 339.404 394.477C339.469 394.521 339.524 394.548 339.568 394.559 339.611 394.57 339.666 394.597 339.731 394.641 340.778 393.507 341.743 392.536 342.626 391.729 343.51 390.922 344.404 390.268 345.309 389.766 346.214 389.265 347.152 388.899 348.123 388.67 349.093 388.441 350.178 388.327 351.378 388.327ZM324.877 373.769C325.815 373.769 326.693 373.818 327.511 373.916 328.329 374.014 329.086 374.15 329.784 374.325L329.784 380.475 326.022 380.475C325.651 379.254 325.144 378.36 324.501 377.793 323.858 377.225 323.012 376.942 321.966 376.942 321.202 376.986 320.575 377.105 320.084 377.302 319.594 377.498 319.163 377.771 318.792 378.12 318.465 378.403 318.165 378.725 317.893 379.085 317.62 379.445 317.385 379.924 317.189 380.524 316.993 381.124 316.846 381.866 316.748 382.749 316.649 383.632 316.6 384.739 316.6 386.069L316.6 389.014 325.204 389.014 325.204 392.645 316.6 392.645 316.6 413.386C316.6 414.673 316.633 415.671 316.698 416.38 316.764 417.089 316.944 417.634 317.238 418.015 317.533 418.397 317.974 418.692 318.563 418.899 319.152 419.106 319.97 419.351 321.017 419.635L321.017 421.729 306.132 421.729 306.132 419.635C307.113 419.308 307.871 419.057 308.405 418.882 308.94 418.708 309.338 418.441 309.599 418.081 309.861 417.721 310.019 417.187 310.074 416.478 310.128 415.769 310.155 414.738 310.155 413.386L310.155 392.645 305.837 392.645 305.837 390.649C306.579 390.606 307.206 390.513 307.718 390.371 308.231 390.23 308.651 390.012 308.978 389.717 309.305 389.423 309.55 389.019 309.714 388.507 309.877 387.994 310.003 387.345 310.09 386.56 310.352 384.161 310.913 382.144 311.775 380.508 312.636 378.872 313.721 377.558 315.03 376.566 316.339 375.573 317.833 374.859 319.512 374.423 321.191 373.987 322.98 373.769 324.877 373.769Z" fill-rule="evenodd"/><text fill="#000000" fill-opacity="0" font-family="Arial,Arial_MSFontService,sans-serif" font-size="48.5488" x="305.837" y="416.249">frame</text><path d="M511 465.5C511 431.534 538.758 404 573 404 607.242 404 635 431.534 635 465.5 635 499.465 607.242 527 573 527 538.758 527 511 499.465 511 465.5Z" stroke="#0070C0" stroke-width="10.3125" stroke-miterlimit="8" fill="#FFFFFF" fill-rule="evenodd"/><path d="M557.5 466C557.5 456.887 564.664 449.5 573.5 449.5 582.337 449.5 589.5 456.887 589.5 466 589.5 475.113 582.337 482.5 573.5 482.5 564.664 482.5 557.5 475.113 557.5 466Z" stroke="#0070C0" stroke-width="1.14583" stroke-miterlimit="8" fill="#0070C0" fill-rule="evenodd"/><path d="M547.436 143.586 564.701 143.586 564.701 145.572C562.161 145.869 560.891 146.964 560.891 148.855 560.891 149.638 561.074 150.517 561.439 151.489 561.803 152.462 562.458 153.84 563.404 155.623L571.51 171.064 579.493 156.96C580.574 155.042 581.337 153.468 581.783 152.239 582.229 151.01 582.452 149.882 582.452 148.855 582.452 147.882 582.161 147.119 581.581 146.565 581 146.011 580.142 145.68 579.007 145.572L579.007 143.586 594.367 143.586 594.367 145.572C593.259 145.977 592.287 146.538 591.449 147.254 590.611 147.97 589.76 148.936 588.896 150.152 588.031 151.368 586.761 153.421 585.086 156.312L573.82 175.522 573.82 188.653C573.82 190.193 573.901 191.436 574.063 192.381 574.225 193.327 574.495 194.083 574.873 194.651 575.252 195.218 575.751 195.664 576.373 195.988 576.994 196.312 577.967 196.623 579.291 196.92L579.291 198.906 560.77 198.906 560.77 196.92C562.067 196.65 563.026 196.36 563.647 196.049 564.269 195.738 564.769 195.292 565.147 194.712 565.525 194.131 565.802 193.367 565.978 192.422 566.153 191.476 566.241 190.22 566.241 188.653L566.241 175.684 555.055 154.893C553.705 152.381 552.678 150.584 551.975 149.503 551.273 148.423 550.57 147.572 549.868 146.95 549.166 146.329 548.355 145.869 547.436 145.572Z" fill-rule="evenodd"/><text fill="#000000" fill-opacity="0" font-family="Arial,Arial_MSFontService,sans-serif" font-size="55.3198" x="547.436" y="191.991">Y</text><path d="M659.439 201.453C655.031 201.552 651.794 202.118 649.729 203.151 647.664 204.183 646.631 205.752 646.631 207.857 646.631 209.485 647.093 210.662 648.016 211.386 648.939 212.111 650.205 212.474 651.814 212.474 652.946 212.474 653.978 212.275 654.911 211.878 655.845 211.481 656.644 210.969 657.309 210.344 657.974 209.718 658.496 209.023 658.873 208.259 659.25 207.494 659.439 206.745 659.439 206.01ZM744.388 188.288C743.316 188.288 742.348 188.501 741.484 188.928 740.62 189.355 739.866 189.976 739.22 190.79 738.575 191.604 738.049 192.602 737.642 193.783 737.234 194.965 736.971 196.3 736.852 197.789L750.673 197.789C750.474 194.553 749.883 192.16 748.9 190.611 747.917 189.062 746.413 188.288 744.388 188.288ZM744.745 185.339C746.85 185.339 748.667 185.662 750.196 186.307 751.725 186.953 752.966 187.841 753.919 188.973 754.396 189.529 754.823 190.164 755.2 190.879 755.577 191.594 755.9 192.423 756.168 193.366 756.436 194.31 756.645 195.387 756.793 196.598 756.942 197.809 757.037 199.189 757.076 200.738L736.674 200.738 736.674 201.006C736.674 204.759 737.374 207.569 738.773 209.435 740.173 211.302 742.392 212.235 745.43 212.235 746.245 212.235 747.024 212.151 747.769 211.982 748.513 211.813 749.253 211.55 749.988 211.193 750.722 210.835 751.462 210.374 752.207 209.808 752.951 209.242 753.731 208.572 754.545 207.797L756.63 210.269C755.518 211.362 754.46 212.29 753.458 213.054 752.455 213.819 751.457 214.439 750.464 214.916 749.471 215.393 748.459 215.74 747.426 215.958 746.393 216.177 745.301 216.286 744.15 216.286 739.622 216.286 736.217 214.99 733.933 212.399 731.65 209.808 730.508 205.99 730.508 200.947 730.508 198.623 730.846 196.504 731.521 194.588 732.196 192.671 733.159 191.028 734.41 189.658 735.661 188.288 737.16 187.226 738.907 186.471 740.655 185.717 742.601 185.339 744.745 185.339ZM693.511 185.339C695.695 185.339 697.448 185.801 698.768 186.724 700.089 187.648 701.057 189.082 701.672 191.028 702.784 189.956 703.782 189.062 704.666 188.348 705.549 187.633 706.383 187.057 707.167 186.62 707.952 186.183 708.731 185.87 709.506 185.682 710.28 185.493 711.124 185.379 712.037 185.339 713.388 185.359 714.599 185.553 715.671 185.92 716.743 186.287 717.652 186.878 718.396 187.692 719.141 188.506 719.712 189.579 720.109 190.909 720.506 192.24 720.695 193.868 720.675 195.794L720.675 208.155C720.675 209.326 720.69 210.225 720.72 210.85 720.75 211.476 720.874 211.967 721.092 212.325 721.31 212.682 721.663 212.955 722.149 213.144 722.636 213.332 723.336 213.566 724.249 213.844L724.249 215.75 711.233 215.75 711.233 213.844C712.027 213.566 712.663 213.347 713.139 213.188 713.616 213.03 713.978 212.786 714.227 212.459 714.475 212.131 714.634 211.654 714.703 211.029 714.773 210.404 714.807 209.495 714.807 208.304L714.807 198.951C714.807 196.846 714.693 195.168 714.465 193.917 714.237 192.666 713.899 191.708 713.452 191.043 713.005 190.378 712.434 189.946 711.74 189.747 711.044 189.549 710.24 189.45 709.327 189.45 708.632 189.45 707.867 189.633 707.033 190.001 706.199 190.368 705.425 190.864 704.71 191.49 703.995 192.115 703.395 192.835 702.908 193.649 702.422 194.463 702.178 195.307 702.178 196.181L702.178 208.155C702.178 209.326 702.198 210.235 702.238 210.88 702.278 211.525 702.412 212.022 702.64 212.369 702.868 212.717 703.226 212.985 703.712 213.174 704.199 213.362 704.899 213.586 705.812 213.844L705.812 215.75 692.737 215.75 692.737 213.844C693.531 213.566 694.161 213.342 694.628 213.174 695.095 213.005 695.452 212.757 695.7 212.429 695.948 212.101 696.107 211.63 696.177 211.014 696.246 210.399 696.281 209.495 696.281 208.304L696.281 199.338C696.281 197.174 696.167 195.446 695.938 194.156 695.71 192.865 695.373 191.877 694.926 191.192 694.479 190.507 693.908 190.055 693.213 189.837 692.518 189.618 691.714 189.489 690.801 189.45 690.006 189.489 689.182 189.703 688.328 190.09 687.474 190.477 686.695 190.984 685.99 191.609 685.285 192.235 684.714 192.935 684.278 193.709 683.841 194.483 683.642 195.258 683.682 196.032L683.682 208.155C683.682 209.386 683.707 210.324 683.756 210.969 683.806 211.615 683.95 212.101 684.188 212.429 684.427 212.757 684.789 213 685.275 213.159 685.762 213.317 686.452 213.546 687.345 213.844L687.345 215.75 674.27 215.75 674.27 213.844C675.044 213.566 675.665 213.347 676.131 213.188 676.598 213.03 676.955 212.786 677.204 212.459 677.452 212.131 677.611 211.65 677.68 211.014 677.75 210.379 677.784 209.455 677.784 208.244L677.784 194.215C677.784 193.461 677.77 192.81 677.74 192.264 677.71 191.718 677.675 191.276 677.635 190.939 677.596 190.522 677.521 190.164 677.412 189.867 677.303 189.569 677.114 189.306 676.846 189.077 676.578 188.849 676.201 188.65 675.714 188.482 675.228 188.313 674.597 188.149 673.823 187.99L673.823 185.965 681.627 185.637 683.741 185.637C683.682 186.491 683.612 187.33 683.533 188.154 683.453 188.978 683.384 189.807 683.324 190.641 683.384 190.681 683.444 190.701 683.503 190.701 683.563 190.701 683.622 190.72 683.682 190.76 684.734 189.728 685.697 188.869 686.571 188.184 687.445 187.499 688.269 186.948 689.043 186.531 689.818 186.114 690.567 185.816 691.292 185.637 692.017 185.458 692.756 185.359 693.511 185.339ZM656.103 185.339C657.632 185.379 658.967 185.553 660.109 185.861 661.251 186.168 662.204 186.699 662.968 187.454 663.733 188.209 664.309 189.226 664.696 190.507 665.083 191.788 665.287 193.411 665.306 195.377L665.306 206.755C665.306 208.046 665.296 209.088 665.277 209.882 665.257 210.677 665.346 211.322 665.545 211.818 665.743 212.315 666.101 212.707 666.617 212.995 667.133 213.283 667.918 213.566 668.97 213.844L668.97 215.75 659.796 215.75C659.836 215.015 659.866 214.281 659.885 213.546 659.905 212.811 659.935 212.096 659.975 211.401 659.915 211.362 659.856 211.337 659.796 211.327 659.737 211.317 659.657 211.292 659.558 211.252 658.625 212.166 657.736 212.94 656.892 213.576 656.048 214.211 655.204 214.732 654.36 215.139 653.516 215.546 652.663 215.839 651.799 216.018 650.935 216.197 650.037 216.286 649.103 216.286 647.813 216.286 646.646 216.097 645.604 215.72 644.561 215.343 643.677 214.812 642.953 214.127 642.228 213.442 641.672 212.632 641.285 211.699 640.897 210.766 640.704 209.733 640.704 208.602 640.704 205.544 642.268 203.2 645.395 201.572 648.522 199.944 653.204 198.971 659.439 198.653L659.439 196.509C659.439 195.039 659.325 193.793 659.096 192.771 658.868 191.748 658.51 190.919 658.024 190.284 657.537 189.648 656.897 189.187 656.103 188.899 655.308 188.611 654.345 188.467 653.214 188.467 651.645 188.467 650.324 188.884 649.252 189.718 648.18 190.552 647.386 191.872 646.869 193.679L642.461 193.679 642.461 189.152C643.891 188.477 645.201 187.901 646.393 187.424 647.584 186.948 648.721 186.556 649.803 186.248 650.885 185.94 651.938 185.717 652.96 185.578 653.983 185.439 655.031 185.359 656.103 185.339ZM632.226 185.339C633.457 185.339 634.628 185.458 635.74 185.697L635.74 193.083 631.928 193.083C631.71 192.527 631.481 192.046 631.243 191.639 631.005 191.232 630.732 190.894 630.424 190.626 630.116 190.358 629.759 190.16 629.352 190.03 628.945 189.901 628.463 189.837 627.907 189.837 627.331 189.837 626.681 190.021 625.956 190.388 625.231 190.755 624.551 191.257 623.916 191.892 623.28 192.527 622.749 193.262 622.322 194.096 621.895 194.93 621.682 195.814 621.682 196.747L621.682 208.155C621.682 209.406 621.737 210.364 621.846 211.029 621.955 211.694 622.158 212.196 622.456 212.533 622.754 212.871 623.161 213.114 623.677 213.263 624.194 213.412 624.869 213.605 625.703 213.844L625.703 215.75 612.27 215.75 612.27 213.844C613.044 213.566 613.665 213.347 614.131 213.188 614.598 213.03 614.955 212.786 615.204 212.459 615.452 212.131 615.611 211.65 615.68 211.014 615.75 210.379 615.784 209.455 615.784 208.244L615.784 195.436C615.784 194.066 615.779 192.944 615.77 192.071 615.76 191.197 615.64 190.487 615.412 189.941 615.184 189.395 614.797 188.978 614.25 188.69 613.704 188.402 612.895 188.169 611.823 187.99L611.823 185.965 619.627 185.637 621.741 185.637 621.324 190.939C621.384 190.979 621.434 191.003 621.473 191.013 621.513 191.023 621.563 191.048 621.622 191.088 622.575 190.055 623.454 189.172 624.258 188.437 625.062 187.702 625.877 187.107 626.701 186.65 627.525 186.193 628.379 185.861 629.262 185.652 630.146 185.444 631.134 185.339 632.226 185.339ZM608.039 172.085C608.893 172.085 609.692 172.13 610.437 172.219 611.181 172.308 611.871 172.432 612.507 172.591L612.507 178.191 609.081 178.191C608.744 177.079 608.282 176.265 607.696 175.748 607.111 175.232 606.341 174.974 605.388 174.974 604.693 175.014 604.122 175.123 603.675 175.302 603.229 175.48 602.836 175.729 602.499 176.046 602.201 176.304 601.928 176.597 601.68 176.925 601.431 177.253 601.218 177.689 601.039 178.236 600.861 178.782 600.727 179.457 600.637 180.261 600.548 181.065 600.503 182.073 600.503 183.284L600.503 185.965 608.337 185.965 608.337 189.271 600.503 189.271 600.503 208.155C600.503 209.326 600.533 210.235 600.593 210.88 600.652 211.525 600.816 212.022 601.084 212.369 601.352 212.717 601.754 212.985 602.29 213.174 602.826 213.362 603.571 213.586 604.524 213.844L604.524 215.75 590.972 215.75 590.972 213.844C591.865 213.546 592.555 213.317 593.042 213.159 593.529 213 593.891 212.757 594.129 212.429 594.367 212.101 594.511 211.615 594.561 210.969 594.611 210.324 594.635 209.386 594.635 208.155L594.635 189.271 590.704 189.271 590.704 187.454C591.379 187.414 591.95 187.33 592.417 187.201 592.883 187.072 593.265 186.873 593.563 186.605 593.861 186.337 594.084 185.97 594.233 185.503 594.382 185.036 594.497 184.446 594.576 183.731 594.814 181.547 595.326 179.71 596.11 178.221 596.894 176.731 597.882 175.535 599.073 174.632 600.265 173.728 601.625 173.078 603.154 172.681 604.683 172.283 606.311 172.085 608.039 172.085Z" fill-rule="evenodd"/><text fill="#000000" fill-opacity="0" font-family="Arial,Arial_MSFontService,sans-serif" font-size="44.2012" x="590.704" y="210.761">frame</text><path d="M809.395 397.327 826.66 397.327 826.66 399.313C825.363 399.502 824.431 399.853 823.864 400.366 823.296 400.88 823.013 401.582 823.013 402.474 823.013 403.23 823.269 404.176 823.783 405.311 824.296 406.446 825.026 407.796 825.971 409.364L831.848 419.212 837.643 409.85C838.508 408.445 839.156 407.324 839.588 406.486 840.021 405.649 840.325 404.946 840.5 404.379 840.676 403.811 840.764 403.23 840.764 402.636 840.764 401.798 840.52 401.089 840.034 400.508 839.548 399.927 838.737 399.529 837.602 399.313L837.602 397.327 852.638 397.327 852.638 399.313C851.638 399.637 850.74 400.11 849.943 400.731 849.146 401.353 848.295 402.258 847.39 403.447 846.485 404.635 845.195 406.513 843.519 409.08L834.36 423.264 844.654 440.205C846.113 442.609 847.16 444.291 847.795 445.25 848.43 446.21 849.024 447.02 849.578 447.682 850.132 448.344 850.727 448.918 851.362 449.405 851.996 449.891 852.787 450.31 853.732 450.661L853.732 452.647 835.941 452.647 835.941 450.661C837.184 450.445 838.102 450.1 838.697 449.627 839.291 449.155 839.588 448.445 839.588 447.5 839.588 446.743 839.392 445.906 839.001 444.987 838.609 444.068 838.008 442.934 837.197 441.583L829.862 429.344 822.121 442.029C820.824 444.163 820.176 445.919 820.176 447.297 820.176 448.189 820.419 448.918 820.905 449.486 821.392 450.053 822.202 450.445 823.337 450.661L823.337 452.647 808.018 452.647 808.018 450.661C809.017 450.364 809.841 450.006 810.49 449.587 811.138 449.168 811.76 448.635 812.354 447.986 812.948 447.338 813.61 446.514 814.34 445.514 815.069 444.514 816.231 442.772 817.825 440.286L827.39 425.372 815.961 406.567C814.88 404.838 814.063 403.582 813.509 402.798 812.955 402.015 812.442 401.38 811.969 400.893 811.496 400.407 811.071 400.062 810.692 399.86 810.314 399.657 809.882 399.475 809.395 399.313Z" fill-rule="evenodd"/><text fill="#000000" fill-opacity="0" font-family="Arial,Arial_MSFontService,sans-serif" font-size="55.3198" x="808.018" y="445.732">X</text><path d="M928.355 455.194C923.946 455.293 920.71 455.859 918.645 456.891 916.58 457.924 915.547 459.493 915.547 461.597 915.547 463.226 916.009 464.402 916.932 465.127 917.855 465.852 919.121 466.214 920.73 466.214 921.861 466.214 922.894 466.016 923.827 465.618 924.76 465.221 925.56 464.71 926.225 464.084 926.89 463.459 927.411 462.764 927.789 462 928.166 461.235 928.355 460.485 928.355 459.751ZM1013.3 442.029C1012.23 442.029 1011.26 442.242 1010.4 442.669 1009.54 443.096 1008.78 443.716 1008.14 444.531 1007.49 445.345 1006.96 446.342 1006.56 447.524 1006.15 448.705 1005.89 450.041 1005.77 451.53L1019.59 451.53C1019.39 448.293 1018.8 445.901 1017.82 444.352 1016.83 442.803 1015.33 442.029 1013.3 442.029ZM1013.66 439.08C1015.77 439.08 1017.58 439.402 1019.11 440.048 1020.64 440.693 1021.88 441.582 1022.84 442.714 1023.31 443.27 1023.74 443.905 1024.12 444.62 1024.49 445.335 1024.82 446.164 1025.08 447.107 1025.35 448.05 1025.56 449.127 1025.71 450.339 1025.86 451.55 1025.95 452.93 1025.99 454.479L1005.59 454.479 1005.59 454.747C1005.59 458.5 1006.29 461.309 1007.69 463.176 1009.09 465.043 1011.31 465.976 1014.35 465.976 1015.16 465.976 1015.94 465.891 1016.68 465.723 1017.43 465.554 1018.17 465.291 1018.9 464.933 1019.64 464.576 1020.38 464.114 1021.12 463.548 1021.87 462.982 1022.65 462.312 1023.46 461.538L1025.55 464.01C1024.43 465.102 1023.38 466.03 1022.37 466.795 1021.37 467.559 1020.37 468.18 1019.38 468.656 1018.39 469.133 1017.37 469.481 1016.34 469.699 1015.31 469.917 1014.22 470.027 1013.07 470.027 1008.54 470.027 1005.13 468.731 1002.85 466.14 1000.57 463.548 999.424 459.731 999.424 454.687 999.424 452.364 999.761 450.244 1000.44 448.328 1001.11 446.412 1002.07 444.769 1003.33 443.399 1004.58 442.029 1006.08 440.966 1007.82 440.212 1009.57 439.457 1011.52 439.08 1013.66 439.08ZM962.427 439.08C964.611 439.08 966.363 439.542 967.684 440.465 969.004 441.388 969.972 442.823 970.588 444.769 971.7 443.697 972.698 442.803 973.581 442.088 974.465 441.373 975.299 440.797 976.083 440.361 976.868 439.924 977.647 439.611 978.422 439.422 979.196 439.234 980.04 439.12 980.953 439.08 982.304 439.1 983.515 439.293 984.587 439.661 985.659 440.028 986.568 440.619 987.312 441.433 988.057 442.247 988.628 443.319 989.025 444.65 989.422 445.98 989.611 447.608 989.591 449.534L989.591 461.895C989.591 463.067 989.606 463.965 989.636 464.591 989.665 465.216 989.789 465.708 990.008 466.065 990.226 466.423 990.579 466.696 991.065 466.884 991.552 467.073 992.252 467.306 993.165 467.584L993.165 469.49 980.149 469.49 980.149 467.584C980.943 467.306 981.579 467.088 982.055 466.929 982.532 466.77 982.894 466.527 983.142 466.199 983.391 465.872 983.549 465.395 983.619 464.77 983.689 464.144 983.723 463.236 983.723 462.044L983.723 452.692C983.723 450.587 983.609 448.909 983.381 447.658 983.152 446.407 982.815 445.449 982.368 444.784 981.921 444.118 981.35 443.687 980.655 443.488 979.96 443.289 979.156 443.19 978.243 443.19 977.548 443.19 976.783 443.374 975.949 443.741 975.115 444.109 974.341 444.605 973.626 445.23 972.911 445.856 972.311 446.576 971.824 447.39 971.338 448.204 971.094 449.048 971.094 449.922L971.094 461.895C971.094 463.067 971.114 463.975 971.154 464.621 971.194 465.266 971.328 465.762 971.556 466.11 971.784 466.457 972.142 466.725 972.628 466.914 973.115 467.103 973.815 467.326 974.728 467.584L974.728 469.49 961.652 469.49 961.652 467.584C962.447 467.306 963.077 467.083 963.544 466.914 964.01 466.745 964.368 466.497 964.616 466.169 964.864 465.842 965.023 465.37 965.093 464.755 965.162 464.139 965.197 463.236 965.197 462.044L965.197 453.079C965.197 450.914 965.083 449.187 964.854 447.896 964.626 446.606 964.288 445.618 963.842 444.933 963.395 444.248 962.824 443.796 962.129 443.577 961.434 443.359 960.63 443.23 959.716 443.19 958.922 443.23 958.098 443.443 957.244 443.831 956.39 444.218 955.611 444.724 954.906 445.35 954.201 445.975 953.63 446.675 953.193 447.449 952.757 448.224 952.558 448.998 952.598 449.773L952.598 461.895C952.598 463.126 952.623 464.065 952.672 464.71 952.722 465.355 952.866 465.842 953.104 466.169 953.342 466.497 953.705 466.74 954.191 466.899 954.678 467.058 955.368 467.286 956.261 467.584L956.261 469.49 943.186 469.49 943.186 467.584C943.96 467.306 944.581 467.088 945.047 466.929 945.514 466.77 945.871 466.527 946.12 466.199 946.368 465.872 946.527 465.39 946.596 464.755 946.666 464.119 946.7 463.196 946.7 461.985L946.7 447.956C946.7 447.201 946.685 446.551 946.656 446.005 946.626 445.459 946.591 445.017 946.551 444.679 946.512 444.262 946.437 443.905 946.328 443.607 946.219 443.309 946.03 443.046 945.762 442.818 945.494 442.59 945.117 442.391 944.63 442.222 944.144 442.053 943.513 441.89 942.739 441.731L942.739 439.705 950.543 439.378 952.657 439.378C952.598 440.232 952.528 441.07 952.449 441.895 952.369 442.719 952.3 443.548 952.24 444.382 952.3 444.421 952.359 444.441 952.419 444.441 952.479 444.441 952.538 444.461 952.598 444.501 953.65 443.468 954.613 442.609 955.487 441.924 956.361 441.239 957.185 440.688 957.959 440.271 958.734 439.854 959.483 439.556 960.208 439.378 960.933 439.199 961.672 439.1 962.427 439.08ZM925.019 439.08C926.548 439.12 927.883 439.293 929.025 439.601 930.167 439.909 931.12 440.44 931.884 441.195 932.649 441.949 933.224 442.967 933.612 444.248 933.999 445.528 934.202 447.152 934.222 449.117L934.222 460.495C934.222 461.786 934.212 462.829 934.193 463.623 934.173 464.417 934.262 465.062 934.461 465.559 934.659 466.055 935.017 466.447 935.533 466.735 936.049 467.023 936.833 467.306 937.886 467.584L937.886 469.49 928.712 469.49C928.752 468.756 928.782 468.021 928.801 467.286 928.821 466.552 928.851 465.837 928.891 465.142 928.831 465.102 928.772 465.077 928.712 465.067 928.652 465.057 928.573 465.033 928.474 464.993 927.54 465.906 926.652 466.681 925.808 467.316 924.964 467.952 924.12 468.473 923.276 468.88 922.432 469.287 921.578 469.58 920.715 469.759 919.851 469.937 918.952 470.027 918.019 470.027 916.728 470.027 915.562 469.838 914.519 469.461 913.477 469.083 912.593 468.552 911.869 467.867 911.144 467.182 910.588 466.373 910.201 465.44 909.813 464.506 909.62 463.474 909.62 462.342 909.62 459.284 911.183 456.941 914.311 455.313 917.438 453.684 922.12 452.712 928.355 452.394L928.355 450.249C928.355 448.78 928.24 447.534 928.012 446.511 927.784 445.489 927.426 444.66 926.94 444.024 926.453 443.389 925.813 442.927 925.019 442.639 924.224 442.351 923.261 442.207 922.13 442.207 920.561 442.207 919.24 442.624 918.168 443.458 917.096 444.292 916.302 445.613 915.785 447.42L911.377 447.42 911.377 442.892C912.807 442.217 914.117 441.641 915.309 441.165 916.5 440.688 917.637 440.296 918.719 439.988 919.801 439.681 920.854 439.457 921.876 439.318 922.899 439.179 923.946 439.1 925.019 439.08ZM901.142 439.08C902.373 439.08 903.544 439.199 904.656 439.437L904.656 446.824 900.844 446.824C900.625 446.268 900.397 445.786 900.159 445.379 899.921 444.972 899.648 444.635 899.34 444.367 899.032 444.099 898.674 443.9 898.267 443.771 897.86 443.642 897.379 443.577 896.823 443.577 896.247 443.577 895.597 443.761 894.872 444.128 894.147 444.496 893.467 444.997 892.832 445.633 892.196 446.268 891.665 447.003 891.238 447.837 890.811 448.671 890.598 449.554 890.598 450.488L890.598 461.895C890.598 463.146 890.652 464.104 890.762 464.77 890.871 465.435 891.074 465.936 891.372 466.274 891.67 466.611 892.077 466.854 892.593 467.003 893.11 467.152 893.785 467.346 894.619 467.584L894.619 469.49 881.186 469.49 881.186 467.584C881.96 467.306 882.581 467.088 883.047 466.929 883.514 466.77 883.871 466.527 884.12 466.199 884.368 465.872 884.527 465.39 884.596 464.755 884.666 464.119 884.7 463.196 884.7 461.985L884.7 449.177C884.7 447.807 884.695 446.685 884.685 445.811 884.675 444.938 884.556 444.228 884.328 443.682 884.1 443.136 883.712 442.719 883.166 442.431 882.62 442.143 881.811 441.909 880.739 441.731L880.739 439.705 888.543 439.378 890.657 439.378 890.24 444.679C890.3 444.719 890.35 444.744 890.389 444.754 890.429 444.764 890.479 444.789 890.538 444.828 891.491 443.796 892.37 442.912 893.174 442.177 893.978 441.443 894.793 440.847 895.617 440.39 896.441 439.934 897.294 439.601 898.178 439.393 899.062 439.184 900.05 439.08 901.142 439.08ZM876.955 425.825C877.809 425.825 878.608 425.87 879.352 425.959 880.097 426.049 880.787 426.173 881.422 426.332L881.422 431.931 877.997 431.931C877.66 430.819 877.198 430.005 876.612 429.489 876.026 428.973 875.257 428.715 874.304 428.715 873.609 428.754 873.038 428.864 872.591 429.042 872.144 429.221 871.752 429.469 871.415 429.787 871.117 430.045 870.844 430.338 870.596 430.666 870.347 430.993 870.134 431.43 869.955 431.976 869.776 432.522 869.642 433.197 869.553 434.001 869.464 434.806 869.419 435.813 869.419 437.025L869.419 439.705 877.253 439.705 877.253 443.011 869.419 443.011 869.419 461.895C869.419 463.067 869.449 463.975 869.508 464.621 869.568 465.266 869.732 465.762 870 466.11 870.268 466.457 870.67 466.725 871.206 466.914 871.742 467.103 872.487 467.326 873.44 467.584L873.44 469.49 859.888 469.49 859.888 467.584C860.781 467.286 861.471 467.058 861.958 466.899 862.444 466.74 862.807 466.497 863.045 466.169 863.283 465.842 863.427 465.355 863.477 464.71 863.527 464.065 863.551 463.126 863.551 461.895L863.551 443.011 859.62 443.011 859.62 441.195C860.295 441.155 860.866 441.07 861.332 440.941 861.799 440.812 862.181 440.614 862.479 440.346 862.777 440.078 863 439.71 863.149 439.244 863.298 438.777 863.412 438.186 863.492 437.471 863.73 435.287 864.241 433.45 865.026 431.961 865.81 430.472 866.798 429.276 867.989 428.372 869.181 427.469 870.541 426.818 872.07 426.421 873.599 426.024 875.227 425.825 876.955 425.825Z" fill-rule="evenodd"/><text fill="#000000" fill-opacity="0" font-family="Arial,Arial_MSFontService,sans-serif" font-size="44.2012" x="859.62" y="464.501">frame</text></g></svg>