<?xml version="1.0" encoding="UTF-8" standalone="no"?>
<!-- Created with Inkscape (http://www.inkscape.org/) -->

<svg
   width="64mm"
   height="158mm"
   viewBox="0 0 64 158"
   version="1.1"
   id="svg1"
   inkscape:version="1.4 (e7c3feb1, 2024-10-09)"
   sodipodi:docname="singularity3.svg"
   xmlns:inkscape="http://www.inkscape.org/namespaces/inkscape"
   xmlns:sodipodi="http://sodipodi.sourceforge.net/DTD/sodipodi-0.dtd"
   xmlns="http://www.w3.org/2000/svg"
   xmlns:svg="http://www.w3.org/2000/svg">
  <sodipodi:namedview
     id="namedview1"
     pagecolor="#ffffff"
     bordercolor="#111111"
     borderopacity="1"
     inkscape:showpageshadow="0"
     inkscape:pageopacity="0"
     inkscape:pagecheckerboard="1"
     inkscape:deskcolor="#d1d1d1"
     inkscape:document-units="mm"
     inkscape:zoom="0.74414063"
     inkscape:cx="163.27559"
     inkscape:cy="284.22047"
     inkscape:window-width="1440"
     inkscape:window-height="900"
     inkscape:window-x="0"
     inkscape:window-y="0"
     inkscape:window-maximized="0"
     inkscape:current-layer="g27" />
  <defs
     id="defs1">
    <inkscape:path-effect
       effect="bspline"
       id="path-effect67"
       is_visible="true"
       lpeversion="1.3"
       weight="33.333333"
       steps="2"
       helper_size="0"
       apply_no_weight="true"
       apply_with_weight="true"
       only_selected="false"
       uniform="false" />
    <inkscape:path-effect
       effect="bspline"
       id="path-effect65"
       is_visible="true"
       lpeversion="1.3"
       weight="33.333333"
       steps="2"
       helper_size="0"
       apply_no_weight="true"
       apply_with_weight="true"
       only_selected="false"
       uniform="false" />
    <inkscape:path-effect
       effect="bspline"
       id="path-effect63"
       is_visible="true"
       lpeversion="1.3"
       weight="33.333333"
       steps="2"
       helper_size="0"
       apply_no_weight="true"
       apply_with_weight="true"
       only_selected="false"
       uniform="false" />
    <inkscape:path-effect
       effect="bspline"
       id="path-effect59"
       is_visible="true"
       lpeversion="1.3"
       weight="33.333333"
       steps="2"
       helper_size="0"
       apply_no_weight="true"
       apply_with_weight="true"
       only_selected="false"
       uniform="false" />
    <inkscape:path-effect
       effect="bspline"
       id="path-effect50"
       is_visible="true"
       lpeversion="1.3"
       weight="33.333333"
       steps="2"
       helper_size="0"
       apply_no_weight="true"
       apply_with_weight="true"
       only_selected="false"
       uniform="false" />
    <inkscape:path-effect
       effect="bspline"
       id="path-effect35"
       is_visible="true"
       lpeversion="1.3"
       weight="33.333333"
       steps="2"
       helper_size="0"
       apply_no_weight="true"
       apply_with_weight="true"
       only_selected="false"
       uniform="false" />
    <inkscape:path-effect
       effect="bspline"
       id="path-effect27"
       is_visible="true"
       lpeversion="1.3"
       weight="33.333333"
       steps="2"
       helper_size="0"
       apply_no_weight="true"
       apply_with_weight="true"
       only_selected="false"
       uniform="false" />
    <inkscape:path-effect
       effect="bspline"
       id="path-effect23"
       is_visible="true"
       lpeversion="1.3"
       weight="33.333333"
       steps="2"
       helper_size="0"
       apply_no_weight="true"
       apply_with_weight="true"
       only_selected="false"
       uniform="false" />
    <inkscape:path-effect
       effect="bspline"
       id="path-effect17"
       is_visible="true"
       lpeversion="1.3"
       weight="33.333333"
       steps="2"
       helper_size="0"
       apply_no_weight="true"
       apply_with_weight="true"
       only_selected="false"
       uniform="false" />
    <inkscape:path-effect
       effect="bspline"
       id="path-effect13"
       is_visible="true"
       lpeversion="1.3"
       weight="33.333333"
       steps="2"
       helper_size="0"
       apply_no_weight="true"
       apply_with_weight="true"
       only_selected="false"
       uniform="false" />
    <inkscape:path-effect
       effect="bspline"
       id="path-effect15"
       is_visible="true"
       lpeversion="1.3"
       weight="33.333333"
       steps="2"
       helper_size="0"
       apply_no_weight="true"
       apply_with_weight="true"
       only_selected="false"
       uniform="false" />
    <inkscape:path-effect
       effect="bspline"
       id="path-effect11"
       is_visible="true"
       lpeversion="1.3"
       weight="33.333333"
       steps="2"
       helper_size="0"
       apply_no_weight="true"
       apply_with_weight="true"
       only_selected="false"
       uniform="false" />
    <inkscape:path-effect
       effect="bspline"
       id="path-effect9"
       is_visible="true"
       lpeversion="1.3"
       weight="33.333333"
       steps="2"
       helper_size="0"
       apply_no_weight="true"
       apply_with_weight="true"
       only_selected="false"
       uniform="false" />
    <inkscape:path-effect
       effect="bspline"
       id="path-effect48"
       is_visible="true"
       lpeversion="1.3"
       weight="33.333333"
       steps="2"
       helper_size="0"
       apply_no_weight="true"
       apply_with_weight="true"
       only_selected="false"
       uniform="false" />
    <inkscape:path-effect
       effect="bspline"
       id="path-effect41"
       is_visible="true"
       lpeversion="1.3"
       weight="33.333333"
       steps="2"
       helper_size="0"
       apply_no_weight="true"
       apply_with_weight="true"
       only_selected="false"
       uniform="false" />
    <inkscape:path-effect
       effect="bspline"
       id="path-effect38"
       is_visible="true"
       lpeversion="1.3"
       weight="33.333333"
       steps="2"
       helper_size="0"
       apply_no_weight="true"
       apply_with_weight="true"
       only_selected="false"
       uniform="false" />
    <inkscape:path-effect
       effect="bspline"
       id="path-effect36"
       is_visible="true"
       lpeversion="1.3"
       weight="33.333333"
       steps="2"
       helper_size="0"
       apply_no_weight="true"
       apply_with_weight="true"
       only_selected="false"
       uniform="false" />
    <inkscape:path-effect
       effect="bspline"
       id="path-effect34"
       is_visible="true"
       lpeversion="1.3"
       weight="33.333333"
       steps="2"
       helper_size="0"
       apply_no_weight="true"
       apply_with_weight="true"
       only_selected="false"
       uniform="false" />
    <inkscape:path-effect
       effect="bspline"
       id="path-effect32"
       is_visible="true"
       lpeversion="1.3"
       weight="33.333333"
       steps="2"
       helper_size="0"
       apply_no_weight="true"
       apply_with_weight="true"
       only_selected="false"
       uniform="false" />
    <inkscape:path-effect
       effect="bspline"
       id="path-effect30"
       is_visible="true"
       lpeversion="1.3"
       weight="33.333333"
       steps="2"
       helper_size="0"
       apply_no_weight="true"
       apply_with_weight="true"
       only_selected="false"
       uniform="false" />
    <inkscape:path-effect
       effect="bspline"
       id="path-effect28"
       is_visible="true"
       lpeversion="1.3"
       weight="33.333333"
       steps="2"
       helper_size="0"
       apply_no_weight="true"
       apply_with_weight="true"
       only_selected="false"
       uniform="false" />
    <inkscape:path-effect
       effect="bspline"
       id="path-effect26"
       is_visible="true"
       lpeversion="1.3"
       weight="33.333333"
       steps="2"
       helper_size="0"
       apply_no_weight="true"
       apply_with_weight="true"
       only_selected="false"
       uniform="false" />
    <inkscape:path-effect
       effect="bspline"
       id="path-effect21"
       is_visible="true"
       lpeversion="1.3"
       weight="33.333333"
       steps="2"
       helper_size="0"
       apply_no_weight="true"
       apply_with_weight="true"
       only_selected="false"
       uniform="false" />
    <inkscape:path-effect
       effect="bspline"
       id="path-effect18"
       is_visible="true"
       lpeversion="1.3"
       weight="33.333333"
       steps="2"
       helper_size="0"
       apply_no_weight="true"
       apply_with_weight="true"
       only_selected="false"
       uniform="false" />
    <inkscape:path-effect
       effect="bspline"
       id="path-effect16"
       is_visible="true"
       lpeversion="1.3"
       weight="33.333333"
       steps="2"
       helper_size="0"
       apply_no_weight="true"
       apply_with_weight="true"
       only_selected="false"
       uniform="false" />
    <inkscape:path-effect
       effect="bspline"
       id="path-effect14"
       is_visible="true"
       lpeversion="1.3"
       weight="33.333333"
       steps="2"
       helper_size="0"
       apply_no_weight="true"
       apply_with_weight="true"
       only_selected="false"
       uniform="false" />
    <inkscape:path-effect
       effect="bspline"
       id="path-effect12"
       is_visible="true"
       lpeversion="1.3"
       weight="33.333333"
       steps="2"
       helper_size="0"
       apply_no_weight="true"
       apply_with_weight="true"
       only_selected="false"
       uniform="false" />
    <inkscape:path-effect
       effect="bspline"
       id="path-effect10"
       is_visible="true"
       lpeversion="1.3"
       weight="33.333333"
       steps="2"
       helper_size="0"
       apply_no_weight="true"
       apply_with_weight="true"
       only_selected="false"
       uniform="false" />
    <inkscape:path-effect
       effect="bspline"
       id="path-effect55"
       is_visible="true"
       lpeversion="1.3"
       weight="33.333333"
       steps="2"
       helper_size="0"
       apply_no_weight="true"
       apply_with_weight="true"
       only_selected="false"
       uniform="false" />
    <inkscape:path-effect
       effect="bspline"
       id="path-effect51"
       is_visible="true"
       lpeversion="1.3"
       weight="33.333333"
       steps="2"
       helper_size="0"
       apply_no_weight="true"
       apply_with_weight="true"
       only_selected="false"
       uniform="false" />
    <inkscape:path-effect
       effect="spiro"
       id="path-effect49"
       is_visible="true"
       lpeversion="1" />
    <inkscape:path-effect
       effect="spiro"
       id="path-effect47"
       is_visible="true"
       lpeversion="1" />
    <inkscape:path-effect
       effect="spiro"
       id="path-effect43"
       is_visible="true"
       lpeversion="1" />
    <inkscape:path-effect
       effect="spiro"
       id="path-effect40"
       is_visible="true"
       lpeversion="1" />
    <inkscape:path-effect
       effect="spiro"
       id="path-effect25"
       is_visible="true"
       lpeversion="1" />
    <inkscape:path-effect
       effect="bspline"
       id="path-effect20"
       is_visible="true"
       lpeversion="1.3"
       weight="33.333333"
       steps="2"
       helper_size="0"
       apply_no_weight="true"
       apply_with_weight="true"
       only_selected="false"
       uniform="false" />
    <inkscape:path-effect
       effect="bspline"
       id="path-effect22"
       is_visible="true"
       lpeversion="1.3"
       weight="33.333333"
       steps="2"
       helper_size="0"
       apply_no_weight="true"
       apply_with_weight="true"
       only_selected="false"
       uniform="false" />
    <inkscape:path-effect
       effect="bspline"
       id="path-effect24"
       is_visible="true"
       lpeversion="1.3"
       weight="33.333333"
       steps="2"
       helper_size="0"
       apply_no_weight="true"
       apply_with_weight="true"
       only_selected="false"
       uniform="false" />
    <inkscape:path-effect
       effect="bspline"
       id="path-effect42"
       is_visible="true"
       lpeversion="1.3"
       weight="33.333333"
       steps="2"
       helper_size="0"
       apply_no_weight="true"
       apply_with_weight="true"
       only_selected="false"
       uniform="false" />
    <inkscape:path-effect
       effect="bspline"
       id="path-effect44"
       is_visible="true"
       lpeversion="1.3"
       weight="33.333333"
       steps="2"
       helper_size="0"
       apply_no_weight="true"
       apply_with_weight="true"
       only_selected="false"
       uniform="false" />
    <inkscape:path-effect
       effect="bspline"
       id="path-effect46"
       is_visible="true"
       lpeversion="1.3"
       weight="33.333333"
       steps="2"
       helper_size="0"
       apply_no_weight="true"
       apply_with_weight="true"
       only_selected="false"
       uniform="false" />
    <inkscape:path-effect
       effect="bspline"
       id="path-effect52"
       is_visible="true"
       lpeversion="1.3"
       weight="33.333333"
       steps="2"
       helper_size="0"
       apply_no_weight="true"
       apply_with_weight="true"
       only_selected="false"
       uniform="false" />
    <inkscape:path-effect
       effect="bspline"
       id="path-effect54"
       is_visible="true"
       lpeversion="1.3"
       weight="33.333333"
       steps="2"
       helper_size="0"
       apply_no_weight="true"
       apply_with_weight="true"
       only_selected="false"
       uniform="false" />
    <inkscape:path-effect
       effect="bspline"
       id="path-effect56"
       is_visible="true"
       lpeversion="1.3"
       weight="33.333333"
       steps="2"
       helper_size="0"
       apply_no_weight="true"
       apply_with_weight="true"
       only_selected="false"
       uniform="false" />
    <inkscape:path-effect
       effect="bspline"
       id="path-effect58"
       is_visible="true"
       lpeversion="1.3"
       weight="33.333333"
       steps="2"
       helper_size="0"
       apply_no_weight="true"
       apply_with_weight="true"
       only_selected="false"
       uniform="false" />
    <inkscape:path-effect
       effect="bspline"
       id="path-effect60"
       is_visible="true"
       lpeversion="1.3"
       weight="33.333333"
       steps="2"
       helper_size="0"
       apply_no_weight="true"
       apply_with_weight="true"
       only_selected="false"
       uniform="false" />
    <inkscape:path-effect
       effect="bspline"
       id="path-effect62"
       is_visible="true"
       lpeversion="1.3"
       weight="33.333333"
       steps="2"
       helper_size="0"
       apply_no_weight="true"
       apply_with_weight="true"
       only_selected="false"
       uniform="false" />
    <inkscape:path-effect
       effect="bspline"
       id="path-effect68"
       is_visible="true"
       lpeversion="1.3"
       weight="33.333333"
       steps="2"
       helper_size="0"
       apply_no_weight="true"
       apply_with_weight="true"
       only_selected="false"
       uniform="false" />
    <inkscape:path-effect
       effect="bspline"
       id="path-effect70"
       is_visible="true"
       lpeversion="1.3"
       weight="33.333333"
       steps="2"
       helper_size="0"
       apply_no_weight="true"
       apply_with_weight="true"
       only_selected="false"
       uniform="false" />
    <inkscape:path-effect
       effect="bspline"
       id="path-effect72"
       is_visible="true"
       lpeversion="1.3"
       weight="33.333333"
       steps="2"
       helper_size="0"
       apply_no_weight="true"
       apply_with_weight="true"
       only_selected="false"
       uniform="false" />
    <inkscape:path-effect
       effect="bspline"
       id="path-effect74"
       is_visible="true"
       lpeversion="1.3"
       weight="33.333333"
       steps="2"
       helper_size="0"
       apply_no_weight="true"
       apply_with_weight="true"
       only_selected="false"
       uniform="false" />
    <inkscape:path-effect
       effect="bspline"
       id="path-effect76"
       is_visible="true"
       lpeversion="1.3"
       weight="33.333333"
       steps="2"
       helper_size="0"
       apply_no_weight="true"
       apply_with_weight="true"
       only_selected="false"
       uniform="false" />
    <inkscape:path-effect
       effect="bspline"
       id="path-effect78"
       is_visible="true"
       lpeversion="1.3"
       weight="33.333333"
       steps="2"
       helper_size="0"
       apply_no_weight="true"
       apply_with_weight="true"
       only_selected="false"
       uniform="false" />
    <g
       id="g6181">
      <g
         id="g1144">
        <path
           d="m 3.140625,-2 c 1.078125,-1.21875 1.9375,-1.984375 3.171875,-3.109375 1.5,-1.28125 2.140625,-1.90625 2.484375,-2.28125 1.734375,-1.703125 2.609375,-3.140625 2.609375,-3.34375 0,-0.1875 -0.203125,-0.1875 -0.25,-0.1875 -0.171875,0 -0.234375,0.09375 -0.359375,0.265625 -0.609375,1.0625 -1.203125,1.59375 -1.84375,1.59375 -0.53125,0 -0.796875,-0.234375 -1.265625,-0.828125 -0.53125,-0.609375 -0.953125,-1.03125 -1.671875,-1.03125 -1.796875,0 -2.890625,2.25 -2.890625,2.765625 0,0.078125 0.015625,0.21875 0.25,0.21875 0.1875,0 0.21875,-0.09375 0.296875,-0.265625 C 4.09375,-9.1875 5.28125,-9.375 5.75,-9.375 c 0.515625,0 1.015625,0.1875 1.53125,0.40625 0.953125,0.390625 1.34375,0.390625 1.59375,0.390625 0.171875,0 0.265625,0 0.390625,-0.015625 C 8.453125,-7.625 7.109375,-6.4375 6,-5.421875 L 3.5,-3.125 c -1.515625,1.53125 -2.4375,3 -2.4375,3.171875 0,0.15625 0.125,0.203125 0.28125,0.203125 0.140625,0 0.171875,-0.03125 0.34375,-0.328125 0.390625,-0.609375 1.1875,-1.53125 2.109375,-1.53125 0.515625,0 0.765625,0.171875 1.265625,0.796875 0.46875,0.546875 0.890625,1.0625 1.671875,1.0625 2.4375,0 3.828125,-3.15625 3.828125,-3.71875 0,-0.09375 -0.03125,-0.25 -0.28125,-0.25 -0.1875,0 -0.21875,0.09375 -0.296875,0.34375 -0.546875,1.46875 -2,2.0625 -2.96875,2.0625 C 6.5,-1.3125 6,-1.484375 5.484375,-1.703125 c -1,-0.40625 -1.265625,-0.40625 -1.59375,-0.40625 -0.25,0 -0.515625,0 -0.75,0.109375 z m 0,0"
           id="path2946" />
      </g>
      <g
         id="g7275">
        <path
           d="m 6.59375,-15.828125 c 0,-0.53125 -0.03125,-0.546875 -0.375,-0.546875 -0.96875,1.15625 -2.421875,1.53125 -3.8125,1.578125 -0.078125,0 -0.203125,0 -0.21875,0.04687 -0.03125,0.0625 -0.03125,0.109375 -0.03125,0.625 0.765625,0 2.0625,-0.15625 3.046875,-0.75 v 13.0625 c 0,0.875 -0.046875,1.171875 -2.1875,1.171875 H 2.28125 V 0 c 1.1875,-0.03125 2.421875,-0.046875 3.609375,-0.046875 1.203125,0 2.4375,0.015625 3.625,0.046875 v -0.640625 h -0.75 c -2.125,0 -2.171875,-0.28125 -2.171875,-1.171875 z m 0,0"
           id="path63" />
      </g>
    </g>
    <g
       id="g791">
      <g
         id="g1096">
        <path
           d="m 3.140625,-2 c 1.078125,-1.21875 1.9375,-1.984375 3.171875,-3.109375 1.5,-1.28125 2.140625,-1.90625 2.484375,-2.28125 1.734375,-1.703125 2.609375,-3.140625 2.609375,-3.34375 0,-0.1875 -0.203125,-0.1875 -0.25,-0.1875 -0.171875,0 -0.234375,0.09375 -0.359375,0.265625 -0.609375,1.0625 -1.203125,1.59375 -1.84375,1.59375 -0.53125,0 -0.796875,-0.234375 -1.265625,-0.828125 -0.53125,-0.609375 -0.953125,-1.03125 -1.671875,-1.03125 -1.796875,0 -2.890625,2.25 -2.890625,2.765625 0,0.078125 0.015625,0.21875 0.25,0.21875 0.1875,0 0.21875,-0.09375 0.296875,-0.265625 C 4.09375,-9.1875 5.28125,-9.375 5.75,-9.375 c 0.515625,0 1.015625,0.1875 1.53125,0.40625 0.953125,0.390625 1.34375,0.390625 1.59375,0.390625 0.171875,0 0.265625,0 0.390625,-0.015625 C 8.453125,-7.625 7.109375,-6.4375 6,-5.421875 L 3.5,-3.125 c -1.515625,1.53125 -2.4375,3 -2.4375,3.171875 0,0.15625 0.125,0.203125 0.28125,0.203125 0.140625,0 0.171875,-0.03125 0.34375,-0.328125 0.390625,-0.609375 1.1875,-1.53125 2.109375,-1.53125 0.515625,0 0.765625,0.171875 1.265625,0.796875 0.46875,0.546875 0.890625,1.0625 1.671875,1.0625 2.4375,0 3.828125,-3.15625 3.828125,-3.71875 0,-0.09375 -0.03125,-0.25 -0.28125,-0.25 -0.1875,0 -0.21875,0.09375 -0.296875,0.34375 -0.546875,1.46875 -2,2.0625 -2.96875,2.0625 C 6.5,-1.3125 6,-1.484375 5.484375,-1.703125 c -1,-0.40625 -1.265625,-0.40625 -1.59375,-0.40625 -0.25,0 -0.515625,0 -0.75,0.109375 z m 0,0"
           id="path3090" />
      </g>
      <g
         id="g8305">
        <path
           d="m 4.578125,-11 c 0,-0.359375 -0.015625,-0.375 -0.25,-0.375 -0.671875,0.796875 -1.6875,1.0625 -2.65625,1.09375 -0.046875,0 -0.140625,0 -0.15625,0.03125 C 1.5,-10.203125 1.5,-10.171875 1.5,-9.8125 c 0.53125,0 1.421875,-0.109375 2.109375,-0.515625 V -1.25 c 0,0.59375 -0.03125,0.796875 -1.515625,0.796875 H 1.578125 V 0 c 0.828125,-0.015625 1.6875,-0.03125 2.515625,-0.03125 0.828125,0 1.6875,0.015625 2.515625,0.03125 V -0.453125 H 6.09375 c -1.484375,0 -1.515625,-0.1875 -1.515625,-0.796875 z m 0,0"
           id="path1595" />
      </g>
    </g>
    <g
       id="g2703">
      <g
         id="g3799">
        <path
           d="M 2.625,-1.671875 C 3.515625,-2.6875 4.234375,-3.328125 5.265625,-4.25 6.5,-5.328125 7.046875,-5.84375 7.328125,-6.15625 8.78125,-7.578125 9.5,-8.78125 9.5,-8.9375 9.5,-9.109375 9.34375,-9.109375 9.296875,-9.109375 9.15625,-9.109375 9.109375,-9.03125 9,-8.875 8.484375,-8 8,-7.5625 7.453125,-7.5625 c -0.4375,0 -0.65625,-0.1875 -1.046875,-0.671875 -0.4375,-0.53125 -0.78125,-0.875 -1.390625,-0.875 -1.5,0 -2.40625,1.875 -2.40625,2.3125 0,0.0625 0.015625,0.1875 0.203125,0.1875 0.15625,0 0.1875,-0.078125 0.25,-0.234375 0.34375,-0.8125 1.34375,-0.96875 1.734375,-0.96875 0.421875,0 0.84375,0.15625 1.28125,0.328125 0.78125,0.34375 1.109375,0.34375 1.3125,0.34375 0.15625,0 0.234375,0 0.328125,-0.03125 C 7.046875,-6.359375 5.921875,-5.375 5,-4.53125 l -2.09375,1.921875 c -1.25,1.28125 -2.015625,2.5 -2.015625,2.65625 0,0.125 0.09375,0.15625 0.21875,0.15625 0.125,0 0.15625,-0.015625 0.296875,-0.265625 0.328125,-0.515625 0.984375,-1.28125 1.75,-1.28125 0.4375,0 0.640625,0.140625 1.0625,0.65625 0.390625,0.453125 0.734375,0.890625 1.40625,0.890625 2.015625,0 3.171875,-2.625 3.171875,-3.09375 0,-0.078125 -0.015625,-0.203125 -0.21875,-0.203125 -0.171875,0 -0.1875,0.078125 -0.25,0.28125 C 7.875,-1.59375 6.65625,-1.09375 5.84375,-1.09375 5.40625,-1.09375 5,-1.234375 4.5625,-1.421875 3.734375,-1.75 3.515625,-1.75 3.25,-1.75 c -0.21875,0 -0.4375,0 -0.625,0.078125 z m 0,0"
           id="path2908" />
      </g>
      <g
         id="g383">
        <path
           d="m 4.125,-9.1875 c 0,-0.34375 0,-0.34375 -0.28125,-0.34375 C 3.5,-9.15625 2.78125,-8.625 1.3125,-8.625 v 0.421875 c 0.328125,0 1.046875,0 1.828125,-0.375 v 7.46875 c 0,0.515625 -0.046875,0.6875 -1.296875,0.6875 H 1.390625 V 0 c 0.390625,-0.03125 1.78125,-0.03125 2.25,-0.03125 0.46875,0 1.859375,0 2.234375,0.03125 V -0.421875 H 5.4375 c -1.265625,0 -1.3125,-0.171875 -1.3125,-0.6875 z m 0,0"
           id="path4852" />
      </g>
    </g>
    <g
       id="g8323">
      <g
         id="g521">
        <path
           d="M 2.625,-1.671875 C 3.515625,-2.6875 4.234375,-3.328125 5.265625,-4.25 6.5,-5.328125 7.046875,-5.84375 7.328125,-6.15625 8.78125,-7.578125 9.5,-8.78125 9.5,-8.9375 9.5,-9.109375 9.34375,-9.109375 9.296875,-9.109375 9.15625,-9.109375 9.109375,-9.03125 9,-8.875 8.484375,-8 8,-7.5625 7.453125,-7.5625 c -0.4375,0 -0.65625,-0.1875 -1.046875,-0.671875 -0.4375,-0.53125 -0.78125,-0.875 -1.390625,-0.875 -1.5,0 -2.40625,1.875 -2.40625,2.3125 0,0.0625 0.015625,0.1875 0.203125,0.1875 0.15625,0 0.1875,-0.078125 0.25,-0.234375 0.34375,-0.8125 1.34375,-0.96875 1.734375,-0.96875 0.421875,0 0.84375,0.15625 1.28125,0.328125 0.78125,0.34375 1.109375,0.34375 1.3125,0.34375 0.15625,0 0.234375,0 0.328125,-0.03125 C 7.046875,-6.359375 5.921875,-5.375 5,-4.53125 l -2.09375,1.921875 c -1.25,1.28125 -2.015625,2.5 -2.015625,2.65625 0,0.125 0.09375,0.15625 0.21875,0.15625 0.125,0 0.15625,-0.015625 0.296875,-0.265625 0.328125,-0.515625 0.984375,-1.28125 1.75,-1.28125 0.4375,0 0.640625,0.140625 1.0625,0.65625 0.390625,0.453125 0.734375,0.890625 1.40625,0.890625 2.015625,0 3.171875,-2.625 3.171875,-3.09375 0,-0.078125 -0.015625,-0.203125 -0.21875,-0.203125 -0.171875,0 -0.1875,0.078125 -0.25,0.28125 C 7.875,-1.59375 6.65625,-1.09375 5.84375,-1.09375 5.40625,-1.09375 5,-1.234375 4.5625,-1.421875 3.734375,-1.75 3.515625,-1.75 3.25,-1.75 c -0.21875,0 -0.4375,0 -0.625,0.078125 z m 0,0"
           id="path5939" />
      </g>
      <g
         id="g2672">
        <path
           d="m 6.421875,-4.59375 c 0,-1.1875 -0.0625,-2.34375 -0.578125,-3.4375 -0.59375,-1.1875 -1.625,-1.5 -2.328125,-1.5 -0.828125,0 -1.859375,0.40625 -2.375,1.59375 -0.40625,0.90625 -0.546875,1.796875 -0.546875,3.34375 0,1.390625 0.09375,2.4375 0.609375,3.453125 0.5625,1.09375 1.546875,1.4375 2.296875,1.4375 1.25,0 1.96875,-0.734375 2.375,-1.578125 0.515625,-1.078125 0.546875,-2.484375 0.546875,-3.3125 z M 3.5,0.015625 C 3.046875,0.015625 2.109375,-0.25 1.84375,-1.8125 1.671875,-2.671875 1.671875,-3.765625 1.671875,-4.765625 1.671875,-5.9375 1.671875,-7 1.90625,-7.84375 2.15625,-8.8125 2.890625,-9.25 3.5,-9.25 c 0.546875,0 1.375,0.328125 1.65625,1.5625 0.171875,0.8125 0.171875,1.953125 0.171875,2.921875 0,0.96875 0,2.046875 -0.15625,2.921875 C 4.90625,-0.265625 4,0.015625 3.5,0.015625 Z m 0,0"
           id="path2196" />
      </g>
    </g>
    <g
       id="g3378">
      <g
         id="g1136">
        <path
           d="M 2.625,-1.671875 C 3.515625,-2.6875 4.234375,-3.328125 5.265625,-4.25 6.5,-5.328125 7.046875,-5.84375 7.328125,-6.15625 8.78125,-7.578125 9.5,-8.78125 9.5,-8.9375 9.5,-9.109375 9.34375,-9.109375 9.296875,-9.109375 9.15625,-9.109375 9.109375,-9.03125 9,-8.875 8.484375,-8 8,-7.5625 7.453125,-7.5625 c -0.4375,0 -0.65625,-0.1875 -1.046875,-0.671875 -0.4375,-0.53125 -0.78125,-0.875 -1.390625,-0.875 -1.5,0 -2.40625,1.875 -2.40625,2.3125 0,0.0625 0.015625,0.1875 0.203125,0.1875 0.15625,0 0.1875,-0.078125 0.25,-0.234375 0.34375,-0.8125 1.34375,-0.96875 1.734375,-0.96875 0.421875,0 0.84375,0.15625 1.28125,0.328125 0.78125,0.34375 1.109375,0.34375 1.3125,0.34375 0.15625,0 0.234375,0 0.328125,-0.03125 C 7.046875,-6.359375 5.921875,-5.375 5,-4.53125 l -2.09375,1.921875 c -1.25,1.28125 -2.015625,2.5 -2.015625,2.65625 0,0.125 0.09375,0.15625 0.21875,0.15625 0.125,0 0.15625,-0.015625 0.296875,-0.265625 0.328125,-0.515625 0.984375,-1.28125 1.75,-1.28125 0.4375,0 0.640625,0.140625 1.0625,0.65625 0.390625,0.453125 0.734375,0.890625 1.40625,0.890625 2.015625,0 3.171875,-2.625 3.171875,-3.09375 0,-0.078125 -0.015625,-0.203125 -0.21875,-0.203125 -0.171875,0 -0.1875,0.078125 -0.25,0.28125 C 7.875,-1.59375 6.65625,-1.09375 5.84375,-1.09375 5.40625,-1.09375 5,-1.234375 4.5625,-1.421875 3.734375,-1.75 3.515625,-1.75 3.25,-1.75 c -0.21875,0 -0.4375,0 -0.625,0.078125 z m 0,0"
           id="path4916" />
      </g>
      <g
         id="g7947">
        <path
           d="M 6.3125,-2.40625 H 6 c -0.046875,0.234375 -0.15625,1.03125 -0.3125,1.265625 -0.09375,0.125 -0.90625,0.125 -1.34375,0.125 H 1.6875 c 0.390625,-0.328125 1.265625,-1.25 1.640625,-1.59375 2.1875,-2.015625 2.984375,-2.75 2.984375,-4.171875 0,-1.65625 -1.3125,-2.75 -2.96875,-2.75 -1.671875,0 -2.640625,1.40625 -2.640625,2.640625 0,0.734375 0.625,0.734375 0.671875,0.734375 0.296875,0 0.671875,-0.21875 0.671875,-0.671875 C 2.046875,-7.234375 1.78125,-7.5 1.375,-7.5 1.25,-7.5 1.21875,-7.5 1.171875,-7.484375 1.453125,-8.46875 2.21875,-9.125 3.15625,-9.125 4.375,-9.125 5.125,-8.109375 5.125,-6.78125 5.125,-5.5625 4.421875,-4.5 3.59375,-3.578125 L 0.703125,-0.34375 V 0 H 5.9375 Z m 0,0"
           id="path7543" />
      </g>
    </g>
    <g
       id="g808">
      <g
         id="g396">
        <path
           d="M 2.625,-1.671875 C 3.515625,-2.6875 4.234375,-3.328125 5.265625,-4.25 6.5,-5.328125 7.046875,-5.84375 7.328125,-6.15625 8.78125,-7.578125 9.5,-8.78125 9.5,-8.9375 9.5,-9.109375 9.34375,-9.109375 9.296875,-9.109375 9.15625,-9.109375 9.109375,-9.03125 9,-8.875 8.484375,-8 8,-7.5625 7.453125,-7.5625 c -0.4375,0 -0.65625,-0.1875 -1.046875,-0.671875 -0.4375,-0.53125 -0.78125,-0.875 -1.390625,-0.875 -1.5,0 -2.40625,1.875 -2.40625,2.3125 0,0.0625 0.015625,0.1875 0.203125,0.1875 0.15625,0 0.1875,-0.078125 0.25,-0.234375 0.34375,-0.8125 1.34375,-0.96875 1.734375,-0.96875 0.421875,0 0.84375,0.15625 1.28125,0.328125 0.78125,0.34375 1.109375,0.34375 1.3125,0.34375 0.15625,0 0.234375,0 0.328125,-0.03125 C 7.046875,-6.359375 5.921875,-5.375 5,-4.53125 l -2.09375,1.921875 c -1.25,1.28125 -2.015625,2.5 -2.015625,2.65625 0,0.125 0.09375,0.15625 0.21875,0.15625 0.125,0 0.15625,-0.015625 0.296875,-0.265625 0.328125,-0.515625 0.984375,-1.28125 1.75,-1.28125 0.4375,0 0.640625,0.140625 1.0625,0.65625 0.390625,0.453125 0.734375,0.890625 1.40625,0.890625 2.015625,0 3.171875,-2.625 3.171875,-3.09375 0,-0.078125 -0.015625,-0.203125 -0.21875,-0.203125 -0.171875,0 -0.1875,0.078125 -0.25,0.28125 C 7.875,-1.59375 6.65625,-1.09375 5.84375,-1.09375 5.40625,-1.09375 5,-1.234375 4.5625,-1.421875 3.734375,-1.75 3.515625,-1.75 3.25,-1.75 c -0.21875,0 -0.4375,0 -0.625,0.078125 z m 0,0"
           id="path3232" />
      </g>
      <g
         id="g4566">
        <path
           d="m 2.640625,-5.15625 c -0.25,0.015625 -0.296875,0.03125 -0.296875,0.171875 0,0.140625 0.0625,0.140625 0.328125,0.140625 h 0.65625 c 1.21875,0 1.765625,1 1.765625,2.375 0,1.875 -0.984375,2.375 -1.6875,2.375 -0.6875,0 -1.859375,-0.328125 -2.265625,-1.265625 0.453125,0.0625 0.875,-0.1875 0.875,-0.703125 0,-0.421875 -0.3125,-0.703125 -0.703125,-0.703125 -0.34375,0 -0.71875,0.203125 -0.71875,0.75 0,1.265625 1.265625,2.3125 2.859375,2.3125 1.703125,0 2.96875,-1.296875 2.96875,-2.75 0,-1.3125 -1.0625,-2.359375 -2.4375,-2.59375 1.25,-0.359375 2.046875,-1.40625 2.046875,-2.53125 0,-1.125 -1.171875,-1.953125 -2.5625,-1.953125 -1.4375,0 -2.5,0.875 -2.5,1.921875 0,0.5625 0.453125,0.6875 0.671875,0.6875 0.296875,0 0.640625,-0.21875 0.640625,-0.65625 0,-0.453125 -0.34375,-0.65625 -0.65625,-0.65625 -0.09375,0 -0.125,0 -0.15625,0.015625 0.546875,-0.96875 1.890625,-0.96875 1.953125,-0.96875 0.484375,0 1.40625,0.203125 1.40625,1.609375 0,0.28125 -0.03125,1.078125 -0.453125,1.703125 -0.4375,0.625 -0.921875,0.671875 -1.3125,0.6875 z m 0,0"
           id="path2217" />
      </g>
    </g>
    <g
       id="g2467">
      <g
         id="g445">
        <path
           d="m 9.796875,-8.421875 c -0.671875,0.125 -0.921875,0.609375 -0.921875,1 0,0.5 0.40625,0.671875 0.6875,0.671875 0.625,0 1.0625,-0.546875 1.0625,-1.09375 0,-0.875 -1,-1.265625 -1.859375,-1.265625 -1.265625,0 -1.96875,1.234375 -2.15625,1.625 -0.46875,-1.546875 -1.75,-1.625 -2.125,-1.625 -2.109375,0 -3.21875,2.703125 -3.21875,3.15625 0,0.09375 0.078125,0.1875 0.21875,0.1875 0.171875,0 0.203125,-0.125 0.25,-0.203125 0.703125,-2.296875 2.09375,-2.734375 2.6875,-2.734375 0.921875,0 1.109375,0.875 1.109375,1.375 0,0.453125 -0.125,0.921875 -0.359375,1.921875 L 4.46875,-2.578125 c -0.3125,1.234375 -0.921875,2.375 -2.015625,2.375 -0.09375,0 -0.609375,0 -1.046875,-0.265625 C 2.140625,-0.625 2.3125,-1.234375 2.3125,-1.484375 2.3125,-1.90625 2,-2.140625 1.609375,-2.140625 c -0.5,0 -1.03125,0.421875 -1.03125,1.09375 0,0.859375 0.96875,1.25 1.859375,1.25 0.984375,0 1.6875,-0.78125 2.125,-1.625 0.328125,1.21875 1.359375,1.625 2.125,1.625 2.109375,0 3.234375,-2.703125 3.234375,-3.15625 0,-0.109375 -0.09375,-0.1875 -0.21875,-0.1875 -0.1875,0 -0.203125,0.109375 -0.265625,0.265625 -0.5625,1.828125 -1.75,2.671875 -2.6875,2.671875 -0.71875,0 -1.109375,-0.546875 -1.109375,-1.390625 0,-0.453125 0.078125,-0.78125 0.40625,-2.140625 l 0.734375,-2.8125 c 0.296875,-1.234375 1,-2.15625 1.953125,-2.15625 0.046875,0 0.625,0 1.0625,0.28125 z m 0,0"
           id="path7070" />
      </g>
      <g
         id="g7755">
        <path
           d="m 2.640625,-5.15625 c -0.25,0.015625 -0.296875,0.03125 -0.296875,0.171875 0,0.140625 0.0625,0.140625 0.328125,0.140625 h 0.65625 c 1.21875,0 1.765625,1 1.765625,2.375 0,1.875 -0.984375,2.375 -1.6875,2.375 -0.6875,0 -1.859375,-0.328125 -2.265625,-1.265625 0.453125,0.0625 0.875,-0.1875 0.875,-0.703125 0,-0.421875 -0.3125,-0.703125 -0.703125,-0.703125 -0.34375,0 -0.71875,0.203125 -0.71875,0.75 0,1.265625 1.265625,2.3125 2.859375,2.3125 1.703125,0 2.96875,-1.296875 2.96875,-2.75 0,-1.3125 -1.0625,-2.359375 -2.4375,-2.59375 1.25,-0.359375 2.046875,-1.40625 2.046875,-2.53125 0,-1.125 -1.171875,-1.953125 -2.5625,-1.953125 -1.4375,0 -2.5,0.875 -2.5,1.921875 0,0.5625 0.453125,0.6875 0.671875,0.6875 0.296875,0 0.640625,-0.21875 0.640625,-0.65625 0,-0.453125 -0.34375,-0.65625 -0.65625,-0.65625 -0.09375,0 -0.125,0 -0.15625,0.015625 0.546875,-0.96875 1.890625,-0.96875 1.953125,-0.96875 0.484375,0 1.40625,0.203125 1.40625,1.609375 0,0.28125 -0.03125,1.078125 -0.453125,1.703125 -0.4375,0.625 -0.921875,0.671875 -1.3125,0.6875 z m 0,0"
           id="path2442" />
      </g>
    </g>
    <g
       id="g85">
      <g
         id="g3403">
        <path
           d="m 5.4375,2.3125 c -0.5625,0.78125 -1.375,1.484375 -2.375,1.484375 -0.25,0 -1.25,-0.03125 -1.546875,-0.984375 C 1.5625,2.828125 1.671875,2.828125 1.71875,2.828125 2.328125,2.828125 2.75,2.296875 2.75,1.8125 2.75,1.34375 2.359375,1.171875 2.046875,1.171875 c -0.328125,0 -1.0625,0.25 -1.0625,1.265625 0,1.046875 0.890625,1.78125 2.078125,1.78125 2.0625,0 4.140625,-1.90625 4.71875,-4.203125 L 9.8125,-8.03125 c 0.015625,-0.109375 0.0625,-0.234375 0.0625,-0.359375 0,-0.3125 -0.25,-0.515625 -0.5625,-0.515625 -0.1875,0 -0.609375,0.09375 -0.78125,0.703125 L 7,-2.125 c -0.09375,0.375 -0.09375,0.40625 -0.265625,0.640625 -0.40625,0.578125 -1.09375,1.28125 -2.09375,1.28125 -1.15625,0 -1.25,-1.140625 -1.25,-1.703125 0,-1.171875 0.5625,-2.765625 1.109375,-4.25 0.234375,-0.59375 0.359375,-0.890625 0.359375,-1.296875 0,-0.875 -0.625,-1.65625 -1.640625,-1.65625 -1.890625,0 -2.65625,3 -2.65625,3.15625 0,0.09375 0.078125,0.1875 0.21875,0.1875 0.1875,0 0.203125,-0.078125 0.296875,-0.375 0.484375,-1.734375 1.28125,-2.5625 2.078125,-2.5625 0.1875,0 0.546875,0 0.546875,0.6875 0,0.53125 -0.234375,1.140625 -0.546875,1.921875 -1.015625,2.703125 -1.015625,3.390625 -1.015625,3.890625 0,1.953125 1.40625,2.40625 2.4375,2.40625 0.609375,0 1.34375,-0.1875 2.078125,-0.953125 l 0.015625,0.03125 C 6.359375,0.5 6.15625,1.296875 5.4375,2.3125 Z m 0,0"
           id="path7625" />
      </g>
      <g
         id="g5461">
        <path
           d="m 2.640625,-5.15625 c -0.25,0.015625 -0.296875,0.03125 -0.296875,0.171875 0,0.140625 0.0625,0.140625 0.328125,0.140625 h 0.65625 c 1.21875,0 1.765625,1 1.765625,2.375 0,1.875 -0.984375,2.375 -1.6875,2.375 -0.6875,0 -1.859375,-0.328125 -2.265625,-1.265625 0.453125,0.0625 0.875,-0.1875 0.875,-0.703125 0,-0.421875 -0.3125,-0.703125 -0.703125,-0.703125 -0.34375,0 -0.71875,0.203125 -0.71875,0.75 0,1.265625 1.265625,2.3125 2.859375,2.3125 1.703125,0 2.96875,-1.296875 2.96875,-2.75 0,-1.3125 -1.0625,-2.359375 -2.4375,-2.59375 1.25,-0.359375 2.046875,-1.40625 2.046875,-2.53125 0,-1.125 -1.171875,-1.953125 -2.5625,-1.953125 -1.4375,0 -2.5,0.875 -2.5,1.921875 0,0.5625 0.453125,0.6875 0.671875,0.6875 0.296875,0 0.640625,-0.21875 0.640625,-0.65625 0,-0.453125 -0.34375,-0.65625 -0.65625,-0.65625 -0.09375,0 -0.125,0 -0.15625,0.015625 0.546875,-0.96875 1.890625,-0.96875 1.953125,-0.96875 0.484375,0 1.40625,0.203125 1.40625,1.609375 0,0.28125 -0.03125,1.078125 -0.453125,1.703125 -0.4375,0.625 -0.921875,0.671875 -1.3125,0.6875 z m 0,0"
           id="path9163" />
      </g>
    </g>
    <g
       id="g8635">
      <g
         id="g2280">
        <path
           d="m 5.4375,2.3125 c -0.5625,0.78125 -1.375,1.484375 -2.375,1.484375 -0.25,0 -1.25,-0.03125 -1.546875,-0.984375 C 1.5625,2.828125 1.671875,2.828125 1.71875,2.828125 2.328125,2.828125 2.75,2.296875 2.75,1.8125 2.75,1.34375 2.359375,1.171875 2.046875,1.171875 c -0.328125,0 -1.0625,0.25 -1.0625,1.265625 0,1.046875 0.890625,1.78125 2.078125,1.78125 2.0625,0 4.140625,-1.90625 4.71875,-4.203125 L 9.8125,-8.03125 c 0.015625,-0.109375 0.0625,-0.234375 0.0625,-0.359375 0,-0.3125 -0.25,-0.515625 -0.5625,-0.515625 -0.1875,0 -0.609375,0.09375 -0.78125,0.703125 L 7,-2.125 c -0.09375,0.375 -0.09375,0.40625 -0.265625,0.640625 -0.40625,0.578125 -1.09375,1.28125 -2.09375,1.28125 -1.15625,0 -1.25,-1.140625 -1.25,-1.703125 0,-1.171875 0.5625,-2.765625 1.109375,-4.25 0.234375,-0.59375 0.359375,-0.890625 0.359375,-1.296875 0,-0.875 -0.625,-1.65625 -1.640625,-1.65625 -1.890625,0 -2.65625,3 -2.65625,3.15625 0,0.09375 0.078125,0.1875 0.21875,0.1875 0.1875,0 0.203125,-0.078125 0.296875,-0.375 0.484375,-1.734375 1.28125,-2.5625 2.078125,-2.5625 0.1875,0 0.546875,0 0.546875,0.6875 0,0.53125 -0.234375,1.140625 -0.546875,1.921875 -1.015625,2.703125 -1.015625,3.390625 -1.015625,3.890625 0,1.953125 1.40625,2.40625 2.4375,2.40625 0.609375,0 1.34375,-0.1875 2.078125,-0.953125 l 0.015625,0.03125 C 6.359375,0.5 6.15625,1.296875 5.4375,2.3125 Z m 0,0"
           id="path6653" />
      </g>
      <g
         id="g8725">
        <path
           d="M 6.3125,-2.40625 H 6 c -0.046875,0.234375 -0.15625,1.03125 -0.3125,1.265625 -0.09375,0.125 -0.90625,0.125 -1.34375,0.125 H 1.6875 c 0.390625,-0.328125 1.265625,-1.25 1.640625,-1.59375 2.1875,-2.015625 2.984375,-2.75 2.984375,-4.171875 0,-1.65625 -1.3125,-2.75 -2.96875,-2.75 -1.671875,0 -2.640625,1.40625 -2.640625,2.640625 0,0.734375 0.625,0.734375 0.671875,0.734375 0.296875,0 0.671875,-0.21875 0.671875,-0.671875 C 2.046875,-7.234375 1.78125,-7.5 1.375,-7.5 1.25,-7.5 1.21875,-7.5 1.171875,-7.484375 1.453125,-8.46875 2.21875,-9.125 3.15625,-9.125 4.375,-9.125 5.125,-8.109375 5.125,-6.78125 5.125,-5.5625 4.421875,-4.5 3.59375,-3.578125 L 0.703125,-0.34375 V 0 H 5.9375 Z m 0,0"
           id="path5689" />
      </g>
    </g>
    <g
       id="g6782">
      <g
         id="g6618">
        <path
           d="m 9.796875,-8.421875 c -0.671875,0.125 -0.921875,0.609375 -0.921875,1 0,0.5 0.40625,0.671875 0.6875,0.671875 0.625,0 1.0625,-0.546875 1.0625,-1.09375 0,-0.875 -1,-1.265625 -1.859375,-1.265625 -1.265625,0 -1.96875,1.234375 -2.15625,1.625 -0.46875,-1.546875 -1.75,-1.625 -2.125,-1.625 -2.109375,0 -3.21875,2.703125 -3.21875,3.15625 0,0.09375 0.078125,0.1875 0.21875,0.1875 0.171875,0 0.203125,-0.125 0.25,-0.203125 0.703125,-2.296875 2.09375,-2.734375 2.6875,-2.734375 0.921875,0 1.109375,0.875 1.109375,1.375 0,0.453125 -0.125,0.921875 -0.359375,1.921875 L 4.46875,-2.578125 c -0.3125,1.234375 -0.921875,2.375 -2.015625,2.375 -0.09375,0 -0.609375,0 -1.046875,-0.265625 C 2.140625,-0.625 2.3125,-1.234375 2.3125,-1.484375 2.3125,-1.90625 2,-2.140625 1.609375,-2.140625 c -0.5,0 -1.03125,0.421875 -1.03125,1.09375 0,0.859375 0.96875,1.25 1.859375,1.25 0.984375,0 1.6875,-0.78125 2.125,-1.625 0.328125,1.21875 1.359375,1.625 2.125,1.625 2.109375,0 3.234375,-2.703125 3.234375,-3.15625 0,-0.109375 -0.09375,-0.1875 -0.21875,-0.1875 -0.1875,0 -0.203125,0.109375 -0.265625,0.265625 -0.5625,1.828125 -1.75,2.671875 -2.6875,2.671875 -0.71875,0 -1.109375,-0.546875 -1.109375,-1.390625 0,-0.453125 0.078125,-0.78125 0.40625,-2.140625 l 0.734375,-2.8125 c 0.296875,-1.234375 1,-2.15625 1.953125,-2.15625 0.046875,0 0.625,0 1.0625,0.28125 z m 0,0"
           id="path9932" />
      </g>
      <g
         id="g5131">
        <path
           d="M 6.3125,-2.40625 H 6 c -0.046875,0.234375 -0.15625,1.03125 -0.3125,1.265625 -0.09375,0.125 -0.90625,0.125 -1.34375,0.125 H 1.6875 c 0.390625,-0.328125 1.265625,-1.25 1.640625,-1.59375 2.1875,-2.015625 2.984375,-2.75 2.984375,-4.171875 0,-1.65625 -1.3125,-2.75 -2.96875,-2.75 -1.671875,0 -2.640625,1.40625 -2.640625,2.640625 0,0.734375 0.625,0.734375 0.671875,0.734375 0.296875,0 0.671875,-0.21875 0.671875,-0.671875 C 2.046875,-7.234375 1.78125,-7.5 1.375,-7.5 1.25,-7.5 1.21875,-7.5 1.171875,-7.484375 1.453125,-8.46875 2.21875,-9.125 3.15625,-9.125 4.375,-9.125 5.125,-8.109375 5.125,-6.78125 5.125,-5.5625 4.421875,-4.5 3.59375,-3.578125 L 0.703125,-0.34375 V 0 H 5.9375 Z m 0,0"
           id="path3386" />
      </g>
    </g>
    <g
       id="g8596">
      <g
         id="g3387">
        <path
           d="m 6.21875,-2.453125 c -0.109375,0.34375 -0.109375,0.390625 -0.390625,0.78125 -0.453125,0.578125 -1.359375,1.46875 -2.34375,1.46875 -0.84375,0 -1.3125,-0.765625 -1.3125,-1.984375 0,-1.140625 0.640625,-3.453125 1.03125,-4.3125 C 3.90625,-7.953125 4.875,-8.703125 5.6875,-8.703125 c 1.359375,0 1.625,1.703125 1.625,1.859375 0,0.03125 -0.0625,0.296875 -0.078125,0.34375 z M 7.546875,-7.75 C 7.3125,-8.28125 6.75,-9.109375 5.6875,-9.109375 c -2.34375,0 -4.859375,3.015625 -4.859375,6.078125 0,2.046875 1.203125,3.234375 2.59375,3.234375 1.140625,0 2.109375,-0.890625 2.6875,-1.5625 0.21875,1.21875 1.1875,1.5625 1.796875,1.5625 0.625,0 1.125,-0.375 1.5,-1.109375 0.328125,-0.703125 0.609375,-1.96875 0.609375,-2.046875 0,-0.109375 -0.078125,-0.1875 -0.203125,-0.1875 -0.1875,0 -0.203125,0.109375 -0.296875,0.40625 -0.296875,1.21875 -0.703125,2.53125 -1.546875,2.53125 -0.59375,0 -0.640625,-0.546875 -0.640625,-0.953125 0,-0.46875 0.0625,-0.703125 0.25,-1.515625 0.140625,-0.515625 0.25,-0.96875 0.421875,-1.5625 0.765625,-3.09375 0.9375,-3.84375 0.9375,-3.96875 0,-0.28125 -0.21875,-0.515625 -0.53125,-0.515625 C 7.75,-8.71875 7.578125,-8 7.546875,-7.75 Z m 0,0"
           id="path8161" />
      </g>
      <g
         id="g2761">
        <path
           d="M 6.3125,-2.40625 H 6 c -0.046875,0.234375 -0.15625,1.03125 -0.3125,1.265625 -0.09375,0.125 -0.90625,0.125 -1.34375,0.125 H 1.6875 c 0.390625,-0.328125 1.265625,-1.25 1.640625,-1.59375 2.1875,-2.015625 2.984375,-2.75 2.984375,-4.171875 0,-1.65625 -1.3125,-2.75 -2.96875,-2.75 -1.671875,0 -2.640625,1.40625 -2.640625,2.640625 0,0.734375 0.625,0.734375 0.671875,0.734375 0.296875,0 0.671875,-0.21875 0.671875,-0.671875 C 2.046875,-7.234375 1.78125,-7.5 1.375,-7.5 1.25,-7.5 1.21875,-7.5 1.171875,-7.484375 1.453125,-8.46875 2.21875,-9.125 3.15625,-9.125 4.375,-9.125 5.125,-8.109375 5.125,-6.78125 5.125,-5.5625 4.421875,-4.5 3.59375,-3.578125 L 0.703125,-0.34375 V 0 H 5.9375 Z m 0,0"
           id="path8835" />
      </g>
    </g>
    <g
       id="g4232">
      <g
         id="g1614">
        <path
           d="m 6.21875,-2.453125 c -0.109375,0.34375 -0.109375,0.390625 -0.390625,0.78125 -0.453125,0.578125 -1.359375,1.46875 -2.34375,1.46875 -0.84375,0 -1.3125,-0.765625 -1.3125,-1.984375 0,-1.140625 0.640625,-3.453125 1.03125,-4.3125 C 3.90625,-7.953125 4.875,-8.703125 5.6875,-8.703125 c 1.359375,0 1.625,1.703125 1.625,1.859375 0,0.03125 -0.0625,0.296875 -0.078125,0.34375 z M 7.546875,-7.75 C 7.3125,-8.28125 6.75,-9.109375 5.6875,-9.109375 c -2.34375,0 -4.859375,3.015625 -4.859375,6.078125 0,2.046875 1.203125,3.234375 2.59375,3.234375 1.140625,0 2.109375,-0.890625 2.6875,-1.5625 0.21875,1.21875 1.1875,1.5625 1.796875,1.5625 0.625,0 1.125,-0.375 1.5,-1.109375 0.328125,-0.703125 0.609375,-1.96875 0.609375,-2.046875 0,-0.109375 -0.078125,-0.1875 -0.203125,-0.1875 -0.1875,0 -0.203125,0.109375 -0.296875,0.40625 -0.296875,1.21875 -0.703125,2.53125 -1.546875,2.53125 -0.59375,0 -0.640625,-0.546875 -0.640625,-0.953125 0,-0.46875 0.0625,-0.703125 0.25,-1.515625 0.140625,-0.515625 0.25,-0.96875 0.421875,-1.5625 0.765625,-3.09375 0.9375,-3.84375 0.9375,-3.96875 0,-0.28125 -0.21875,-0.515625 -0.53125,-0.515625 C 7.75,-8.71875 7.578125,-8 7.546875,-7.75 Z m 0,0"
           id="path3503" />
      </g>
      <g
         id="g9395">
        <path
           d="m 2.640625,-5.15625 c -0.25,0.015625 -0.296875,0.03125 -0.296875,0.171875 0,0.140625 0.0625,0.140625 0.328125,0.140625 h 0.65625 c 1.21875,0 1.765625,1 1.765625,2.375 0,1.875 -0.984375,2.375 -1.6875,2.375 -0.6875,0 -1.859375,-0.328125 -2.265625,-1.265625 0.453125,0.0625 0.875,-0.1875 0.875,-0.703125 0,-0.421875 -0.3125,-0.703125 -0.703125,-0.703125 -0.34375,0 -0.71875,0.203125 -0.71875,0.75 0,1.265625 1.265625,2.3125 2.859375,2.3125 1.703125,0 2.96875,-1.296875 2.96875,-2.75 0,-1.3125 -1.0625,-2.359375 -2.4375,-2.59375 1.25,-0.359375 2.046875,-1.40625 2.046875,-2.53125 0,-1.125 -1.171875,-1.953125 -2.5625,-1.953125 -1.4375,0 -2.5,0.875 -2.5,1.921875 0,0.5625 0.453125,0.6875 0.671875,0.6875 0.296875,0 0.640625,-0.21875 0.640625,-0.65625 0,-0.453125 -0.34375,-0.65625 -0.65625,-0.65625 -0.09375,0 -0.125,0 -0.15625,0.015625 0.546875,-0.96875 1.890625,-0.96875 1.953125,-0.96875 0.484375,0 1.40625,0.203125 1.40625,1.609375 0,0.28125 -0.03125,1.078125 -0.453125,1.703125 -0.4375,0.625 -0.921875,0.671875 -1.3125,0.6875 z m 0,0"
           id="path4649" />
      </g>
    </g>
    <g
       id="g5327">
      <g
         id="g5987">
        <path
           d="m 9.15625,-10.390625 c 0,-2.109375 -0.671875,-4.15625 -2.359375,-4.15625 -2.890625,0 -5.96875,6.0625 -5.96875,10.59375 0,0.953125 0.203125,4.15625 2.375,4.15625 2.8125,0 5.953125,-5.90625 5.953125,-10.59375 z m -6.265625,2.90625 c 0.3125,-1.21875 0.75,-2.953125 1.578125,-4.40625 0.671875,-1.25 1.390625,-2.234375 2.3125,-2.234375 0.671875,0 1.125,0.578125 1.125,2.5625 0,0.734375 -0.0625,1.765625 -0.65625,4.078125 z m 4.21875,0.625 c -0.515625,2.03125 -0.953125,3.328125 -1.703125,4.625 -0.59375,1.0625 -1.3125,2.03125 -2.1875,2.03125 -0.640625,0 -1.15625,-0.5 -1.15625,-2.546875 0,-1.34375 0.328125,-2.75 0.671875,-4.109375 z m 0,0"
           id="path1831" />
      </g>
      <g
         id="g6671">
        <path
           d="m 2.640625,-5.15625 c -0.25,0.015625 -0.296875,0.03125 -0.296875,0.171875 0,0.140625 0.0625,0.140625 0.328125,0.140625 h 0.65625 c 1.21875,0 1.765625,1 1.765625,2.375 0,1.875 -0.984375,2.375 -1.6875,2.375 -0.6875,0 -1.859375,-0.328125 -2.265625,-1.265625 0.453125,0.0625 0.875,-0.1875 0.875,-0.703125 0,-0.421875 -0.3125,-0.703125 -0.703125,-0.703125 -0.34375,0 -0.71875,0.203125 -0.71875,0.75 0,1.265625 1.265625,2.3125 2.859375,2.3125 1.703125,0 2.96875,-1.296875 2.96875,-2.75 0,-1.3125 -1.0625,-2.359375 -2.4375,-2.59375 1.25,-0.359375 2.046875,-1.40625 2.046875,-2.53125 0,-1.125 -1.171875,-1.953125 -2.5625,-1.953125 -1.4375,0 -2.5,0.875 -2.5,1.921875 0,0.5625 0.453125,0.6875 0.671875,0.6875 0.296875,0 0.640625,-0.21875 0.640625,-0.65625 0,-0.453125 -0.34375,-0.65625 -0.65625,-0.65625 -0.09375,0 -0.125,0 -0.15625,0.015625 0.546875,-0.96875 1.890625,-0.96875 1.953125,-0.96875 0.484375,0 1.40625,0.203125 1.40625,1.609375 0,0.28125 -0.03125,1.078125 -0.453125,1.703125 -0.4375,0.625 -0.921875,0.671875 -1.3125,0.6875 z m 0,0"
           id="path7173" />
      </g>
    </g>
    <g
       id="g7115">
      <g
         id="g8498">
        <path
           d="m 9.15625,-10.390625 c 0,-2.109375 -0.671875,-4.15625 -2.359375,-4.15625 -2.890625,0 -5.96875,6.0625 -5.96875,10.59375 0,0.953125 0.203125,4.15625 2.375,4.15625 2.8125,0 5.953125,-5.90625 5.953125,-10.59375 z m -6.265625,2.90625 c 0.3125,-1.21875 0.75,-2.953125 1.578125,-4.40625 0.671875,-1.25 1.390625,-2.234375 2.3125,-2.234375 0.671875,0 1.125,0.578125 1.125,2.5625 0,0.734375 -0.0625,1.765625 -0.65625,4.078125 z m 4.21875,0.625 c -0.515625,2.03125 -0.953125,3.328125 -1.703125,4.625 -0.59375,1.0625 -1.3125,2.03125 -2.1875,2.03125 -0.640625,0 -1.15625,-0.5 -1.15625,-2.546875 0,-1.34375 0.328125,-2.75 0.671875,-4.109375 z m 0,0"
           id="path8894" />
      </g>
      <g
         id="g3174">
        <path
           d="M 6.3125,-2.40625 H 6 c -0.046875,0.234375 -0.15625,1.03125 -0.3125,1.265625 -0.09375,0.125 -0.90625,0.125 -1.34375,0.125 H 1.6875 c 0.390625,-0.328125 1.265625,-1.25 1.640625,-1.59375 2.1875,-2.015625 2.984375,-2.75 2.984375,-4.171875 0,-1.65625 -1.3125,-2.75 -2.96875,-2.75 -1.671875,0 -2.640625,1.40625 -2.640625,2.640625 0,0.734375 0.625,0.734375 0.671875,0.734375 0.296875,0 0.671875,-0.21875 0.671875,-0.671875 C 2.046875,-7.234375 1.78125,-7.5 1.375,-7.5 1.25,-7.5 1.21875,-7.5 1.171875,-7.484375 1.453125,-8.46875 2.21875,-9.125 3.15625,-9.125 4.375,-9.125 5.125,-8.109375 5.125,-6.78125 5.125,-5.5625 4.421875,-4.5 3.59375,-3.578125 L 0.703125,-0.34375 V 0 H 5.9375 Z m 0,0"
           id="path7639" />
      </g>
    </g>
    <g
       id="g2844">
      <g
         id="g7209">
        <path
           d="m 9.15625,-10.390625 c 0,-2.109375 -0.671875,-4.15625 -2.359375,-4.15625 -2.890625,0 -5.96875,6.0625 -5.96875,10.59375 0,0.953125 0.203125,4.15625 2.375,4.15625 2.8125,0 5.953125,-5.90625 5.953125,-10.59375 z m -6.265625,2.90625 c 0.3125,-1.21875 0.75,-2.953125 1.578125,-4.40625 0.671875,-1.25 1.390625,-2.234375 2.3125,-2.234375 0.671875,0 1.125,0.578125 1.125,2.5625 0,0.734375 -0.0625,1.765625 -0.65625,4.078125 z m 4.21875,0.625 c -0.515625,2.03125 -0.953125,3.328125 -1.703125,4.625 -0.59375,1.0625 -1.3125,2.03125 -2.1875,2.03125 -0.640625,0 -1.15625,-0.5 -1.15625,-2.546875 0,-1.34375 0.328125,-2.75 0.671875,-4.109375 z m 0,0"
           id="path8517" />
      </g>
      <g
         id="g3518">
        <path
           d="m 4.125,-9.1875 c 0,-0.34375 0,-0.34375 -0.28125,-0.34375 C 3.5,-9.15625 2.78125,-8.625 1.3125,-8.625 v 0.421875 c 0.328125,0 1.046875,0 1.828125,-0.375 v 7.46875 c 0,0.515625 -0.046875,0.6875 -1.296875,0.6875 H 1.390625 V 0 c 0.390625,-0.03125 1.78125,-0.03125 2.25,-0.03125 0.46875,0 1.859375,0 2.234375,0.03125 V -0.421875 H 5.4375 c -1.265625,0 -1.3125,-0.171875 -1.3125,-0.6875 z m 0,0"
           id="path8333" />
      </g>
    </g>
    <inkscape:path-effect
       effect="bspline"
       id="path-effect79"
       is_visible="true"
       lpeversion="1.3"
       weight="33.333333"
       steps="2"
       helper_size="0"
       apply_no_weight="true"
       apply_with_weight="true"
       only_selected="false"
       uniform="false" />
    <g
       id="g1331">
      <g
         id="g5580">
        <path
           d="M 9.890625,-13.703125 V -14.28125 H 1.46875 v 0.578125 z m 0,0"
           id="path3312" />
      </g>
      <g
         id="g2378">
        <path
           d="m 10.40625,-7.953125 c 0,-1.515625 -0.01563,-4.09375 -1.0625,-6.078125 -0.921875,-1.734375 -2.375,-2.34375 -3.671875,-2.34375 -1.1875,0 -2.703125,0.546875 -3.640625,2.328125 -0.984375,1.859375 -1.09375,4.15625 -1.09375,6.09375 0,1.40625 0.03125,3.5625 0.796875,5.453125 1.0625,2.546875 2.96875,2.890625 3.9375,2.890625 1.140625,0 2.875,-0.46875 3.890625,-2.8125 0.75,-1.71875 0.84375,-3.71875 0.84375,-5.53125 z M 5.671875,0 C 4.09375,0 3.140625,-1.359375 2.796875,-3.25 2.53125,-4.703125 2.53125,-6.84375 2.53125,-8.234375 c 0,-1.90625 0,-3.484375 0.3125,-5 0.484375,-2.109375 1.859375,-2.75 2.828125,-2.75 1.015625,0 2.328125,0.671875 2.796875,2.703125 0.328125,1.40625 0.359375,3.078125 0.359375,5.046875 0,1.625 0,3.59375 -0.296875,5.0625 C 8,-0.46875 6.546875,0 5.671875,0 Z m 0,0"
           id="path1390" />
      </g>
      <g
         id="g1963">
        <path
           d="m 3.140625,-2 c 1.078125,-1.21875 1.9375,-1.984375 3.171875,-3.109375 1.5,-1.28125 2.140625,-1.90625 2.484375,-2.28125 1.734375,-1.703125 2.609375,-3.140625 2.609375,-3.34375 0,-0.1875 -0.203125,-0.1875 -0.25,-0.1875 -0.171875,0 -0.234375,0.09375 -0.359375,0.265625 -0.609375,1.0625 -1.203125,1.59375 -1.84375,1.59375 -0.53125,0 -0.796875,-0.234375 -1.265625,-0.828125 -0.53125,-0.609375 -0.953125,-1.03125 -1.671875,-1.03125 -1.796875,0 -2.890625,2.25 -2.890625,2.765625 0,0.078125 0.015625,0.21875 0.25,0.21875 0.1875,0 0.21875,-0.09375 0.296875,-0.265625 C 4.09375,-9.1875 5.28125,-9.375 5.75,-9.375 c 0.515625,0 1.015625,0.1875 1.53125,0.40625 0.953125,0.390625 1.34375,0.390625 1.59375,0.390625 0.171875,0 0.265625,0 0.390625,-0.015625 C 8.453125,-7.625 7.109375,-6.4375 6,-5.421875 L 3.5,-3.125 c -1.515625,1.53125 -2.4375,3 -2.4375,3.171875 0,0.15625 0.125,0.203125 0.28125,0.203125 0.140625,0 0.171875,-0.03125 0.34375,-0.328125 0.390625,-0.609375 1.1875,-1.53125 2.109375,-1.53125 0.515625,0 0.765625,0.171875 1.265625,0.796875 0.46875,0.546875 0.890625,1.0625 1.671875,1.0625 2.4375,0 3.828125,-3.15625 3.828125,-3.71875 0,-0.09375 -0.03125,-0.25 -0.28125,-0.25 -0.1875,0 -0.21875,0.09375 -0.296875,0.34375 -0.546875,1.46875 -2,2.0625 -2.96875,2.0625 C 6.5,-1.3125 6,-1.484375 5.484375,-1.703125 c -1,-0.40625 -1.265625,-0.40625 -1.59375,-0.40625 -0.25,0 -0.515625,0 -0.75,0.109375 z m 0,0"
           id="path216" />
      </g>
    </g>
    <inkscape:path-effect
       effect="bspline"
       id="path-effect23-0"
       is_visible="true"
       lpeversion="1.3"
       weight="33.333333"
       steps="2"
       helper_size="0"
       apply_no_weight="true"
       apply_with_weight="true"
       only_selected="false"
       uniform="false" />
    <inkscape:path-effect
       effect="bspline"
       id="path-effect29"
       is_visible="true"
       lpeversion="1.3"
       weight="33.333333"
       steps="2"
       helper_size="0"
       apply_no_weight="true"
       apply_with_weight="true"
       only_selected="false"
       uniform="false" />
    <inkscape:path-effect
       effect="bspline"
       id="path-effect33"
       is_visible="true"
       lpeversion="1.3"
       weight="33.333333"
       steps="2"
       helper_size="0"
       apply_no_weight="true"
       apply_with_weight="true"
       only_selected="false"
       uniform="false" />
    <inkscape:path-effect
       effect="bspline"
       id="path-effect37"
       is_visible="true"
       lpeversion="1.3"
       weight="33.333333"
       steps="2"
       helper_size="0"
       apply_no_weight="true"
       apply_with_weight="true"
       only_selected="false"
       uniform="false" />
    <inkscape:path-effect
       effect="bspline"
       id="path-effect45"
       is_visible="true"
       lpeversion="1.3"
       weight="33.333333"
       steps="2"
       helper_size="0"
       apply_no_weight="true"
       apply_with_weight="true"
       only_selected="false"
       uniform="false" />
    <inkscape:path-effect
       effect="bspline"
       id="path-effect53"
       is_visible="true"
       lpeversion="1.3"
       weight="33.333333"
       steps="2"
       helper_size="0"
       apply_no_weight="true"
       apply_with_weight="true"
       only_selected="false"
       uniform="false" />
    <inkscape:path-effect
       effect="bspline"
       id="path-effect52-7"
       is_visible="true"
       lpeversion="1.3"
       weight="33.333333"
       steps="2"
       helper_size="0"
       apply_no_weight="true"
       apply_with_weight="true"
       only_selected="false"
       uniform="false" />
    <inkscape:path-effect
       effect="bspline"
       id="path-effect54-1"
       is_visible="true"
       lpeversion="1.3"
       weight="33.333333"
       steps="2"
       helper_size="0"
       apply_no_weight="true"
       apply_with_weight="true"
       only_selected="false"
       uniform="false" />
    <inkscape:path-effect
       effect="bspline"
       id="path-effect56-8"
       is_visible="true"
       lpeversion="1.3"
       weight="33.333333"
       steps="2"
       helper_size="0"
       apply_no_weight="true"
       apply_with_weight="true"
       only_selected="false"
       uniform="false" />
    <inkscape:path-effect
       effect="bspline"
       id="path-effect58-7"
       is_visible="true"
       lpeversion="1.3"
       weight="33.333333"
       steps="2"
       helper_size="0"
       apply_no_weight="true"
       apply_with_weight="true"
       only_selected="false"
       uniform="false" />
    <inkscape:path-effect
       effect="bspline"
       id="path-effect60-8"
       is_visible="true"
       lpeversion="1.3"
       weight="33.333333"
       steps="2"
       helper_size="0"
       apply_no_weight="true"
       apply_with_weight="true"
       only_selected="false"
       uniform="false" />
    <inkscape:path-effect
       effect="bspline"
       id="path-effect62-7"
       is_visible="true"
       lpeversion="1.3"
       weight="33.333333"
       steps="2"
       helper_size="0"
       apply_no_weight="true"
       apply_with_weight="true"
       only_selected="false"
       uniform="false" />
    <g
       id="g9172">
      <g
         id="g922">
        <path
           d="m 5.96875,-8.453125 c 0.34375,-0.015625 0.671875,0 1.015625,-0.015625 1,-0.0625 2.203125,-0.125 3.203125,-0.15625 -0.703125,0.671875 -1.09375,1.0625 -3.59375,2.953125 -5,3.8125 -5.546875,5.421875 -5.546875,5.515625 0,0.359375 0.34375,0.359375 0.5625,0.359375 0.390625,0 0.421875,-0.03125 0.59375,-0.28125 0.890625,-1.234375 1.8125,-1.40625 2.203125,-1.40625 0.671875,0 1.25,0.421875 1.609375,0.6875 0.78125,0.546875 1.390625,1 2.328125,1 2.78125,0 4.59375,-3.03125 4.59375,-3.96875 0,-0.34375 -0.421875,-0.34375 -0.59375,-0.34375 -0.171875,0 -0.453125,0 -0.515625,0.21875 -0.234375,0.46875 -0.484375,1.09375 -2.140625,1.28125 -0.140625,0.03125 -4.984375,0.234375 -5.53125,0.25 0.703125,-0.65625 1.09375,-1.0625 3.625,-2.96875 5,-3.8125 5.546875,-5.421875 5.546875,-5.53125 0,-0.34375 -0.34375,-0.34375 -0.5625,-0.34375 -0.375,0 -0.421875,0 -0.578125,0.25 -0.59375,0.859375 -1.0625,1.4375 -1.65625,1.4375 -0.640625,0 -1.1875,-0.390625 -1.765625,-0.796875 -0.59375,-0.4375 -1.203125,-0.890625 -2.125,-0.890625 -2.1875,0 -3.59375,2.203125 -3.59375,2.96875 0,0.359375 0.390625,0.359375 0.59375,0.359375 0.21875,0 0.5,0 0.578125,-0.328125 0.34375,-0.171875 0.515625,-0.203125 1.265625,-0.25 z m 0,0"
           id="path5908" />
      </g>
      <g
         id="g9934">
        <path
           d="m 8.671875,-6.625 c 0,-1.265625 -0.015625,-3.40625 -0.890625,-5.0625 -0.765625,-1.453125 -1.984375,-1.96875 -3.046875,-1.96875 -1,0 -2.25,0.453125 -3.046875,1.9375 -0.8125,1.5625 -0.90625,3.484375 -0.90625,5.09375 0,1.171875 0.03125,2.96875 0.671875,4.53125 0.875,2.140625 2.46875,2.421875 3.28125,2.421875 C 5.6875,0.328125 7.125,-0.0625 7.96875,-2.03125 8.59375,-3.453125 8.671875,-5.125 8.671875,-6.625 Z M 4.734375,0 C 3.40625,0 2.625,-1.140625 2.328125,-2.703125 c -0.21875,-1.21875 -0.21875,-3 -0.21875,-4.15625 0,-1.59375 0,-2.90625 0.265625,-4.171875 0.390625,-1.75 1.546875,-2.296875 2.359375,-2.296875 0.84375,0 1.9375,0.5625 2.328125,2.25 0.265625,1.1875 0.296875,2.5625 0.296875,4.21875 0,1.34375 0,3 -0.25,4.21875 C 6.671875,-0.390625 5.453125,0 4.734375,0 Z m 0,0"
           id="path4605" />
      </g>
    </g>
  </defs>
  <g
     inkscape:label="Layer 1"
     inkscape:groupmode="layer"
     id="layer1">
    <path
       style="fill:#666666;stroke:#666666;stroke-width:0.499999;stroke-linecap:round;stroke-miterlimit:1;paint-order:markers stroke fill"
       d="m 59.733333,51.911112 c 16.474074,0 32.948146,0 49.422217,0"
       id="path13"
       inkscape:path-effect="#path-effect17"
       inkscape:original-d="m 59.733333,51.911112 c 16.474074,0 32.948146,0 49.422217,0"
       transform="rotate(45,27.166854,1.6392132)" />
    <path
       style="fill:#666666;stroke:#666666;stroke-width:0.503277;stroke-linecap:round;stroke-miterlimit:1;paint-order:markers stroke fill"
       d="m 59.733333,51.911112 c 16.474074,0 32.948146,0 49.422217,0"
       id="path17"
       inkscape:path-effect="#path-effect23"
       inkscape:original-d="m 59.733333,51.911112 c 16.474074,0 32.948146,0 49.422217,0"
       transform="matrix(0.70250311,-0.70250311,-0.70250311,-0.70250311,9.1520993,138.64536)" />
    <path
       style="fill:#666666;stroke:#666666;stroke-width:0.5;stroke-linecap:round;stroke-dasharray:none"
       d="M 44.435569,99.824694 63.564484,82.532587"
       id="path5" />
    <path
       id="path45"
       style="fill:#333333;stroke:#666666;stroke-width:0.499999;stroke-linecap:round;stroke-dasharray:none;stroke-dashoffset:0"
       d="m 42.875235,147.56067 -6.382648,9.5136 h 19.820215 l 6.38265,-9.5136 z" />
    <path
       style="fill:#666666;stroke:#666666;stroke-width:0.5;stroke-linecap:round;stroke-dasharray:none"
       d="M 49.594015,150.75778 V 95.161574"
       id="path1" />
    <g
       id="g3"
       transform="matrix(0.19893731,0,0,0.19771242,40.981981,43.410676)"
       style="fill:#000080;stroke-width:5.04225">
      <path
         id="path2"
         style="fill:#000080;stroke:#000080;stroke-width:3.02537;stroke-linecap:round"
         d="m 26.978827,383.03494 v 75.77118 h 0.10389 a 16.311403,8.849287 0 0 0 -0.10389,0.93037 16.311403,8.849287 0 0 0 16.310892,8.84888 16.311403,8.849287 0 0 0 16.311845,-8.84888 16.311403,8.849287 0 0 0 -0.09351,-0.93037 h 0.09351 v -75.77118 z" />
      <ellipse
         style="fill:#cccccc;stroke:#000080;stroke-width:3.02537;stroke-linecap:round"
         id="ellipse2"
         cx="43.28994"
         cy="383.03436"
         ry="8.849287"
         rx="16.311403" />
    </g>
    <path
       style="fill:#666666;stroke:#666666;stroke-width:0.499999;stroke-linecap:round;stroke-dasharray:none"
       d="m 49.594012,119.14144 v -8.49938"
       id="path26" />
    <g
       id="g4"
       transform="matrix(-0.0861547,-0.15117502,0.13884574,-0.12289804,-5.0055867,153.46432)"
       style="fill:#000080;stroke-width:5.62737">
      <path
         id="path3"
         style="fill:#000080;stroke:#000080;stroke-width:3.37644;stroke-linecap:round"
         d="m 26.978827,383.03494 v 75.77118 h 0.10389 a 16.311403,8.849287 0 0 0 -0.10389,0.93037 16.311403,8.849287 0 0 0 16.310892,8.84888 16.311403,8.849287 0 0 0 16.311845,-8.84888 16.311403,8.849287 0 0 0 -0.09351,-0.93037 h 0.09351 v -75.77118 z" />
      <ellipse
         style="fill:#cccccc;stroke:#000080;stroke-width:3.37644;stroke-linecap:round"
         id="ellipse3"
         cx="43.28994"
         cy="383.03436"
         ry="8.849287"
         rx="16.311403" />
    </g>
    <path
       style="fill:#666666;stroke:#666666;stroke-width:0.500002;stroke-linecap:round;stroke-dasharray:1, 1.50001;stroke-dashoffset:0"
       d="M 25.959505,116.49484 44.447529,99.845684"
       id="path6" />
    <g
       id="g7"
       transform="matrix(-0.0929699,-0.147082,0.13308729,-0.12911173,-36.803279,120.58824)"
       style="fill:#000080;stroke-width:5.62737">
      <path
         id="path7"
         style="fill:#000080;stroke:#000080;stroke-width:3.37644;stroke-linecap:round"
         d="m 27.141592,385.03212 v 75.77118 h 0.10389 a 16.311403,8.849287 0 0 0 -0.10389,0.93037 16.311403,8.849287 0 0 0 16.310892,8.84888 16.311403,8.849287 0 0 0 16.311845,-8.84888 16.311403,8.849287 0 0 0 -0.09351,-0.93037 h 0.09351 v -75.77118 z" />
      <ellipse
         style="fill:#cccccc;stroke:#000080;stroke-width:3.37644;stroke-linecap:round"
         id="ellipse7"
         cx="43.452702"
         cy="385.03152"
         ry="8.849287"
         rx="16.311403" />
    </g>
    <path
       style="fill:#666666;stroke:#666666;stroke-width:1.10011;stroke-linecap:round;stroke-miterlimit:1;stroke-dasharray:2.20022, 4.40044;stroke-dashoffset:0;paint-order:markers stroke fill"
       d="m 1.6,66.31111 c 10.251852,0 20.503703,0 30.755554,0"
       id="path23"
       inkscape:path-effect="#path-effect27"
       inkscape:original-d="m 1.6,66.31111 c 10.251852,0 20.503703,0 30.755554,0"
       transform="matrix(-0.32138024,0.32138024,-0.32138024,-0.32138024,31.959516,85.547367)" />
    <g
       inkscape:label=""
       transform="translate(9.2376223,70.153087)"
       id="g65"
       style="fill:#000080">
      <g
         fill="#000000"
         fill-opacity="1"
         id="g3-1-1-1-1-1-1-1-1-1-1-1"
         transform="matrix(0.352778,0,0,0.352778,-0.99523,-0.632927)"
         style="fill:#000080">
        <g
           id="use2-1-1-1-1-1-1-1-1-1-1"
           transform="translate(1.993,16.341)"
           style="fill:#000080">
          <path
             d="m 9.15625,-10.390625 c 0,-2.109375 -0.671875,-4.15625 -2.359375,-4.15625 -2.890625,0 -5.96875,6.0625 -5.96875,10.59375 0,0.953125 0.203125,4.15625 2.375,4.15625 2.8125,0 5.953125,-5.90625 5.953125,-10.59375 z m -6.265625,2.90625 c 0.3125,-1.21875 0.75,-2.953125 1.578125,-4.40625 0.671875,-1.25 1.390625,-2.234375 2.3125,-2.234375 0.671875,0 1.125,0.578125 1.125,2.5625 0,0.734375 -0.0625,1.765625 -0.65625,4.078125 z m 4.21875,0.625 c -0.515625,2.03125 -0.953125,3.328125 -1.703125,4.625 -0.59375,1.0625 -1.3125,2.03125 -2.1875,2.03125 -0.640625,0 -1.15625,-0.5 -1.15625,-2.546875 0,-1.34375 0.328125,-2.75 0.671875,-4.109375 z m 0,0"
             id="path4-1-1-1-1-1-1-1-1-1-1-1"
             style="fill:#000080" />
        </g>
      </g>
      <g
         fill="#000000"
         fill-opacity="1"
         id="g4-1-1-1-1-1-1-1-1-1-1-1"
         transform="matrix(0.352778,0,0,0.352778,-0.99523,-0.632927)"
         style="fill:#000080">
        <g
           id="use3-1-1-1-1-1-1-1-1-1-1"
           transform="translate(11.421,19.440001)"
           style="fill:#000080">
          <path
             d="m 2.640625,-5.15625 c -0.25,0.015625 -0.296875,0.03125 -0.296875,0.171875 0,0.140625 0.0625,0.140625 0.328125,0.140625 h 0.65625 c 1.21875,0 1.765625,1 1.765625,2.375 0,1.875 -0.984375,2.375 -1.6875,2.375 -0.6875,0 -1.859375,-0.328125 -2.265625,-1.265625 0.453125,0.0625 0.875,-0.1875 0.875,-0.703125 0,-0.421875 -0.3125,-0.703125 -0.703125,-0.703125 -0.34375,0 -0.71875,0.203125 -0.71875,0.75 0,1.265625 1.265625,2.3125 2.859375,2.3125 1.703125,0 2.96875,-1.296875 2.96875,-2.75 0,-1.3125 -1.0625,-2.359375 -2.4375,-2.59375 1.25,-0.359375 2.046875,-1.40625 2.046875,-2.53125 0,-1.125 -1.171875,-1.953125 -2.5625,-1.953125 -1.4375,0 -2.5,0.875 -2.5,1.921875 0,0.5625 0.453125,0.6875 0.671875,0.6875 0.296875,0 0.640625,-0.21875 0.640625,-0.65625 0,-0.453125 -0.34375,-0.65625 -0.65625,-0.65625 -0.09375,0 -0.125,0 -0.15625,0.015625 0.546875,-0.96875 1.890625,-0.96875 1.953125,-0.96875 0.484375,0 1.40625,0.203125 1.40625,1.609375 0,0.28125 -0.03125,1.078125 -0.453125,1.703125 -0.4375,0.625 -0.921875,0.671875 -1.3125,0.6875 z m 0,0"
             id="path5-1-1-1-1-1-1-1-1-1-1-1"
             style="fill:#000080" />
        </g>
      </g>
    </g>
    <g
       inkscape:label=""
       transform="translate(25.090719,103.38073)"
       id="g66"
       style="fill:#000080">
      <g
         fill="#000000"
         fill-opacity="1"
         id="g3-1-1-1-1-1-1-1-1-1-1-1-1"
         transform="matrix(0.352778,0,0,0.352778,-0.99523,-0.632927)"
         style="fill:#000080">
        <g
           id="use2-1-1-1-1-1-1-1-1-1-1-1"
           transform="translate(1.993,16.341)"
           style="fill:#000080">
          <path
             d="m 9.15625,-10.390625 c 0,-2.109375 -0.671875,-4.15625 -2.359375,-4.15625 -2.890625,0 -5.96875,6.0625 -5.96875,10.59375 0,0.953125 0.203125,4.15625 2.375,4.15625 2.8125,0 5.953125,-5.90625 5.953125,-10.59375 z m -6.265625,2.90625 c 0.3125,-1.21875 0.75,-2.953125 1.578125,-4.40625 0.671875,-1.25 1.390625,-2.234375 2.3125,-2.234375 0.671875,0 1.125,0.578125 1.125,2.5625 0,0.734375 -0.0625,1.765625 -0.65625,4.078125 z m 4.21875,0.625 c -0.515625,2.03125 -0.953125,3.328125 -1.703125,4.625 -0.59375,1.0625 -1.3125,2.03125 -2.1875,2.03125 -0.640625,0 -1.15625,-0.5 -1.15625,-2.546875 0,-1.34375 0.328125,-2.75 0.671875,-4.109375 z m 0,0"
             id="path4-1-1-1-1-1-1-1-1-1-1-1-1"
             style="fill:#000080" />
        </g>
      </g>
      <g
         fill="#000000"
         fill-opacity="1"
         id="g4-1-1-1-1-1-1-1-1-1-1-1-1"
         transform="matrix(0.352778,0,0,0.352778,-0.99523,-0.632927)"
         style="fill:#000080">
        <g
           id="use3-1-1-1-1-1-1-1-1-1-1-1"
           transform="translate(11.421,19.440001)"
           style="fill:#000080">
          <path
             d="M 6.3125,-2.40625 H 6 c -0.046875,0.234375 -0.15625,1.03125 -0.3125,1.265625 -0.09375,0.125 -0.90625,0.125 -1.34375,0.125 H 1.6875 c 0.390625,-0.328125 1.265625,-1.25 1.640625,-1.59375 2.1875,-2.015625 2.984375,-2.75 2.984375,-4.171875 0,-1.65625 -1.3125,-2.75 -2.96875,-2.75 -1.671875,0 -2.640625,1.40625 -2.640625,2.640625 0,0.734375 0.625,0.734375 0.671875,0.734375 0.296875,0 0.671875,-0.21875 0.671875,-0.671875 C 2.046875,-7.234375 1.78125,-7.5 1.375,-7.5 1.25,-7.5 1.21875,-7.5 1.171875,-7.484375 1.453125,-8.46875 2.21875,-9.125 3.15625,-9.125 4.375,-9.125 5.125,-8.109375 5.125,-6.78125 5.125,-5.5625 4.421875,-4.5 3.59375,-3.578125 L 0.703125,-0.34375 V 0 H 5.9375 Z m 0,0"
             id="path5-1-1-1-1-1-1-1-1-1-1-1-1"
             style="fill:#000080" />
        </g>
      </g>
    </g>
    <g
       inkscape:label=""
       transform="translate(54.899931,139.53233)"
       id="g68"
       style="fill:#000080">
      <g
         fill="#000000"
         fill-opacity="1"
         id="g3-1-1-1-1-1-1-1-1-1-1-1-1-1"
         transform="matrix(0.352778,0,0,0.352778,-0.99523,-0.632927)"
         style="fill:#000080">
        <g
           id="use2-1-1-1-1-1-1-1-1-1-1-1-1"
           transform="translate(1.993,16.341)"
           style="fill:#000080">
          <path
             d="m 9.15625,-10.390625 c 0,-2.109375 -0.671875,-4.15625 -2.359375,-4.15625 -2.890625,0 -5.96875,6.0625 -5.96875,10.59375 0,0.953125 0.203125,4.15625 2.375,4.15625 2.8125,0 5.953125,-5.90625 5.953125,-10.59375 z m -6.265625,2.90625 c 0.3125,-1.21875 0.75,-2.953125 1.578125,-4.40625 0.671875,-1.25 1.390625,-2.234375 2.3125,-2.234375 0.671875,0 1.125,0.578125 1.125,2.5625 0,0.734375 -0.0625,1.765625 -0.65625,4.078125 z m 4.21875,0.625 c -0.515625,2.03125 -0.953125,3.328125 -1.703125,4.625 -0.59375,1.0625 -1.3125,2.03125 -2.1875,2.03125 -0.640625,0 -1.15625,-0.5 -1.15625,-2.546875 0,-1.34375 0.328125,-2.75 0.671875,-4.109375 z m 0,0"
             id="path4-1-1-1-1-1-1-1-1-1-1-1-1-1"
             style="fill:#000080" />
        </g>
      </g>
      <g
         fill="#000000"
         fill-opacity="1"
         id="g4-1-1-1-1-1-1-1-1-1-1-1-1-1"
         transform="matrix(0.352778,0,0,0.352778,-0.99523,-0.632927)"
         style="fill:#000080">
        <g
           id="use3-1-1-1-1-1-1-1-1-1-1-1-1"
           transform="translate(11.421,19.440001)"
           style="fill:#000080">
          <path
             d="m 4.125,-9.1875 c 0,-0.34375 0,-0.34375 -0.28125,-0.34375 C 3.5,-9.15625 2.78125,-8.625 1.3125,-8.625 v 0.421875 c 0.328125,0 1.046875,0 1.828125,-0.375 v 7.46875 c 0,0.515625 -0.046875,0.6875 -1.296875,0.6875 H 1.390625 V 0 c 0.390625,-0.03125 1.78125,-0.03125 2.25,-0.03125 0.46875,0 1.859375,0 2.234375,0.03125 V -0.421875 H 5.4375 c -1.265625,0 -1.3125,-0.171875 -1.3125,-0.6875 z m 0,0"
             id="path5-1-1-1-1-1-1-1-1-1-1-1-1-1"
             style="fill:#000080" />
        </g>
      </g>
    </g>
    <path
       style="fill:#666666;stroke:#666666;stroke-width:0.396291;stroke-linecap:round;stroke-miterlimit:1;stroke-dasharray:0.792582, 3.17033;stroke-dashoffset:0;paint-order:markers stroke fill"
       d="m 96.79506,38.466609 c 0,21.118922 0,42.237845 0,63.356771"
       id="path9"
       inkscape:path-effect="#path-effect13"
       inkscape:original-d="m 96.79506,38.466609 c 0,21.118922 0,42.237845 0,63.356771"
       transform="matrix(1.2616968,0,0,1.2616968,-72.759522,-33.276716)" />
    <g
       id="g23"
       transform="translate(-11.398759,-108.10893)">
      <path
         style="fill:#800000;stroke:#800000;stroke-width:0.41421;stroke-linecap:round;stroke-dasharray:none;paint-order:fill markers stroke"
         d="m 32.289051,48.433579 c 0.602565,0 1.205127,0 1.807689,0"
         id="path18"
         inkscape:path-effect="#path-effect21"
         inkscape:original-d="m 32.289051,48.433579 c 0.602565,0 1.205127,0 1.807689,0"
         transform="matrix(0.85356033,-0.85356033,0.85356033,0.85356033,-9.6793524,100.04541)" />
      <path
         style="fill:#800000;stroke:#800000;stroke-width:0.41421;stroke-linecap:round;stroke-dasharray:none;paint-order:fill markers stroke"
         d="m 32.289051,48.433579 c 0.602565,0 1.205127,0 1.807689,0"
         id="path21"
         inkscape:path-effect="#path-effect26"
         inkscape:original-d="m 32.289051,48.433579 c 0.602565,0 1.205127,0 1.807689,0"
         transform="matrix(-0.85356033,-0.85356033,-0.85356033,0.85356033,131.20986,100.04541)" />
      <path
         style="fill:#800000;stroke:#800000;stroke-width:0.500001;stroke-linecap:round;stroke-dasharray:none;stroke-dashoffset:0"
         d="M 60.765254,133.85675 V 112.28276"
         id="path4" />
    </g>
    <g
       inkscape:label=""
       transform="matrix(0.817686,0,0,0.817686,43.9111,4.80002)"
       id="g27"
       style="fill:#800000;stroke-width:1.22296">
      <g
         inkscape:label=""
         transform="matrix(1.22296,0,0,1.22296,-6.8551157,-5.8702497)"
         id="g67"
         style="fill:#800000">
        <g
           fill="#000000"
           fill-opacity="1"
           id="g3-1"
           transform="matrix(0.352778,0,0,0.352778,-1.0724,-0.637072)"
           style="fill:#800000">
          <g
             id="use2"
             transform="translate(1.993,13.009)"
             style="fill:#800000">
            <path
               d="m 5.96875,-8.453125 c 0.34375,-0.015625 0.671875,0 1.015625,-0.015625 1,-0.0625 2.203125,-0.125 3.203125,-0.15625 -0.703125,0.671875 -1.09375,1.0625 -3.59375,2.953125 -5,3.8125 -5.546875,5.421875 -5.546875,5.515625 0,0.359375 0.34375,0.359375 0.5625,0.359375 0.390625,0 0.421875,-0.03125 0.59375,-0.28125 0.890625,-1.234375 1.8125,-1.40625 2.203125,-1.40625 0.671875,0 1.25,0.421875 1.609375,0.6875 0.78125,0.546875 1.390625,1 2.328125,1 2.78125,0 4.59375,-3.03125 4.59375,-3.96875 0,-0.34375 -0.421875,-0.34375 -0.59375,-0.34375 -0.171875,0 -0.453125,0 -0.515625,0.21875 -0.234375,0.46875 -0.484375,1.09375 -2.140625,1.28125 -0.140625,0.03125 -4.984375,0.234375 -5.53125,0.25 0.703125,-0.65625 1.09375,-1.0625 3.625,-2.96875 5,-3.8125 5.546875,-5.421875 5.546875,-5.53125 0,-0.34375 -0.34375,-0.34375 -0.5625,-0.34375 -0.375,0 -0.421875,0 -0.578125,0.25 -0.59375,0.859375 -1.0625,1.4375 -1.65625,1.4375 -0.640625,0 -1.1875,-0.390625 -1.765625,-0.796875 -0.59375,-0.4375 -1.203125,-0.890625 -2.125,-0.890625 -2.1875,0 -3.59375,2.203125 -3.59375,2.96875 0,0.359375 0.390625,0.359375 0.59375,0.359375 0.21875,0 0.5,0 0.578125,-0.328125 0.34375,-0.171875 0.515625,-0.203125 1.265625,-0.25 z m 0,0"
               id="path4-1"
               style="fill:#800000" />
          </g>
        </g>
        <g
           fill="#000000"
           fill-opacity="1"
           id="g4-1"
           transform="matrix(0.352778,0,0,0.352778,-1.0724,-0.637072)"
           style="fill:#800000">
          <g
             id="use3"
             transform="translate(16.796,17.790001)"
             style="fill:#800000">
            <path
               d="m 8.671875,-6.625 c 0,-1.265625 -0.015625,-3.40625 -0.890625,-5.0625 -0.765625,-1.453125 -1.984375,-1.96875 -3.046875,-1.96875 -1,0 -2.25,0.453125 -3.046875,1.9375 -0.8125,1.5625 -0.90625,3.484375 -0.90625,5.09375 0,1.171875 0.03125,2.96875 0.671875,4.53125 0.875,2.140625 2.46875,2.421875 3.28125,2.421875 C 5.6875,0.328125 7.125,-0.0625 7.96875,-2.03125 8.59375,-3.453125 8.671875,-5.125 8.671875,-6.625 Z M 4.734375,0 C 3.40625,0 2.625,-1.140625 2.328125,-2.703125 c -0.21875,-1.21875 -0.21875,-3 -0.21875,-4.15625 0,-1.59375 0,-2.90625 0.265625,-4.171875 0.390625,-1.75 1.546875,-2.296875 2.359375,-2.296875 0.84375,0 1.9375,0.5625 2.328125,2.25 0.265625,1.1875 0.296875,2.5625 0.296875,4.21875 0,1.34375 0,3 -0.25,4.21875 C 6.671875,-0.390625 5.453125,0 4.734375,0 Z m 0,0"
               id="path5-1"
               style="fill:#800000" />
          </g>
        </g>
      </g>
    </g>
    <g
       id="g19"
       transform="rotate(180,20.277405,162.57188)">
      <path
         style="fill:none;stroke:#000080;stroke-width:0.4;stroke-linecap:round;stroke-dasharray:none;stroke-dashoffset:0"
         d="m 33.886944,252.60604 c -0.546901,0.73621 -1.093794,1.47241 -0.957066,2.35589 0.136727,0.88347 0.957048,1.91413 1.914149,2.22966 0.957102,0.31553 2.050883,-0.0841 2.639857,-0.64155 0.588973,-0.55743 0.673111,-1.2726 0.75725,-1.98778"
         id="path13-0"
         inkscape:path-effect="#path-effect23-0"
         inkscape:original-d="m 33.886944,252.60604 c -0.546902,0.73621 -1.093795,1.47241 -1.640708,2.20864 0.82037,1.03072 1.640692,2.06138 2.461064,3.09211 1.093828,-0.39967 2.18761,-0.79932 3.281416,-1.19898 0.08414,-0.7152 0.168277,-1.43037 0.252418,-2.14555"
         sodipodi:nodetypes="ccccc" />
      <path
         style="fill:none;stroke:#000080;stroke-width:0.533026;stroke-linecap:round;stroke-dasharray:none;stroke-dashoffset:0"
         d="m 61.715887,229.4468 c 0.715182,0 1.430362,0 2.145544,0"
         id="path14"
         inkscape:path-effect="#path-effect29"
         inkscape:original-d="m 61.715887,229.4468 c 0.715182,0 1.430362,0 2.145544,0"
         transform="matrix(-0.59147004,0.46185825,0.46185825,0.59147004,-31.227665,90.34736)" />
      <path
         style="fill:none;stroke:#000080;stroke-width:0.533026;stroke-linecap:round;stroke-dasharray:none;stroke-dashoffset:0"
         d="m 61.715887,229.4468 c 0.715182,0 1.430362,0 2.145544,0"
         id="path15"
         inkscape:path-effect="#path-effect33"
         inkscape:original-d="m 61.715887,229.4468 c 0.715182,0 1.430362,0 2.145544,0"
         transform="matrix(0.47157885,0.58374929,-0.58374929,0.47157885,143.07663,110.3334)" />
      <path
         style="fill:none;stroke:#000080;stroke-width:0.4;stroke-linecap:round;stroke-dasharray:none;stroke-dashoffset:0"
         d="m 33.886944,252.60604 c -0.546901,0.73621 -1.093794,1.47241 -0.957066,2.35589 0.136727,0.88347 0.957048,1.91413 1.914149,2.22966 0.957102,0.31553 2.050883,-0.0841 2.639857,-0.64155 0.588973,-0.55743 0.673111,-1.2726 0.75725,-1.98778"
         id="path16"
         inkscape:path-effect="#path-effect37"
         inkscape:original-d="m 33.886944,252.60604 c -0.546902,0.73621 -1.093795,1.47241 -1.640708,2.20864 0.82037,1.03072 1.640692,2.06138 2.461064,3.09211 1.093828,-0.39967 2.18761,-0.79932 3.281416,-1.19898 0.08414,-0.7152 0.168277,-1.43037 0.252418,-2.14555"
         sodipodi:nodetypes="ccccc" />
      <path
         style="fill:none;stroke:#000080;stroke-width:0.533026;stroke-linecap:round;stroke-dasharray:none;stroke-dashoffset:0"
         d="m 61.715887,229.4468 c 0.715182,0 1.430362,0 2.145544,0"
         id="path17-8"
         inkscape:path-effect="#path-effect45"
         inkscape:original-d="m 61.715887,229.4468 c 0.715182,0 1.430362,0 2.145544,0"
         transform="matrix(-0.59147004,0.46185825,0.46185825,0.59147004,-31.227665,90.34736)" />
      <path
         style="fill:none;stroke:#000080;stroke-width:0.533026;stroke-linecap:round;stroke-dasharray:none;stroke-dashoffset:0"
         d="m 61.715887,229.4468 c 0.715182,0 1.430362,0 2.145544,0"
         id="path19"
         inkscape:path-effect="#path-effect53"
         inkscape:original-d="m 61.715887,229.4468 c 0.715182,0 1.430362,0 2.145544,0"
         transform="matrix(0.47157885,0.58374929,-0.58374929,0.47157885,143.07663,110.3334)" />
    </g>
    <g
       id="g24"
       transform="rotate(180,32.615286,183.89799)">
      <path
         style="fill:none;stroke:#000080;stroke-width:0.4;stroke-linecap:round;stroke-dasharray:none;stroke-dashoffset:0"
         d="m 33.886944,252.60604 c -0.546901,0.73621 -1.093794,1.47241 -0.957066,2.35589 0.136727,0.88347 0.957048,1.91413 1.914149,2.22966 0.957102,0.31553 2.050883,-0.0841 2.639857,-0.64155 0.588973,-0.55743 0.673111,-1.2726 0.75725,-1.98778"
         id="path10"
         inkscape:path-effect="#path-effect35"
         inkscape:original-d="m 33.886944,252.60604 c -0.546902,0.73621 -1.093795,1.47241 -1.640708,2.20864 0.82037,1.03072 1.640692,2.06138 2.461064,3.09211 1.093828,-0.39967 2.18761,-0.79932 3.281416,-1.19898 0.08414,-0.7152 0.168277,-1.43037 0.252418,-2.14555"
         sodipodi:nodetypes="ccccc" />
      <path
         style="fill:none;stroke:#000080;stroke-width:0.533026;stroke-linecap:round;stroke-dasharray:none;stroke-dashoffset:0"
         d="m 61.715887,229.4468 c 0.715182,0 1.430362,0 2.145544,0"
         id="path11"
         inkscape:path-effect="#path-effect50"
         inkscape:original-d="m 61.715887,229.4468 c 0.715182,0 1.430362,0 2.145544,0"
         transform="matrix(-0.59147004,0.46185825,0.46185825,0.59147004,-31.227665,90.34736)" />
      <path
         style="fill:none;stroke:#000080;stroke-width:0.533026;stroke-linecap:round;stroke-dasharray:none;stroke-dashoffset:0"
         d="m 61.715887,229.4468 c 0.715182,0 1.430362,0 2.145544,0"
         id="path12"
         inkscape:path-effect="#path-effect59"
         inkscape:original-d="m 61.715887,229.4468 c 0.715182,0 1.430362,0 2.145544,0"
         transform="matrix(0.47157885,0.58374929,-0.58374929,0.47157885,143.07663,110.3334)" />
      <path
         style="fill:none;stroke:#000080;stroke-width:0.4;stroke-linecap:round;stroke-dasharray:none;stroke-dashoffset:0"
         d="m 33.886944,252.60604 c -0.546901,0.73621 -1.093794,1.47241 -0.957066,2.35589 0.136727,0.88347 0.957048,1.91413 1.914149,2.22966 0.957102,0.31553 2.050883,-0.0841 2.639857,-0.64155 0.588973,-0.55743 0.673111,-1.2726 0.75725,-1.98778"
         id="path20"
         inkscape:path-effect="#path-effect63"
         inkscape:original-d="m 33.886944,252.60604 c -0.546902,0.73621 -1.093795,1.47241 -1.640708,2.20864 0.82037,1.03072 1.640692,2.06138 2.461064,3.09211 1.093828,-0.39967 2.18761,-0.79932 3.281416,-1.19898 0.08414,-0.7152 0.168277,-1.43037 0.252418,-2.14555"
         sodipodi:nodetypes="ccccc" />
      <path
         style="fill:none;stroke:#000080;stroke-width:0.533026;stroke-linecap:round;stroke-dasharray:none;stroke-dashoffset:0"
         d="m 61.715887,229.4468 c 0.715182,0 1.430362,0 2.145544,0"
         id="path22"
         inkscape:path-effect="#path-effect65"
         inkscape:original-d="m 61.715887,229.4468 c 0.715182,0 1.430362,0 2.145544,0"
         transform="matrix(-0.59147004,0.46185825,0.46185825,0.59147004,-31.227665,90.34736)" />
      <path
         style="fill:none;stroke:#000080;stroke-width:0.533026;stroke-linecap:round;stroke-dasharray:none;stroke-dashoffset:0"
         d="m 61.715887,229.4468 c 0.715182,0 1.430362,0 2.145544,0"
         id="path24"
         inkscape:path-effect="#path-effect67"
         inkscape:original-d="m 61.715887,229.4468 c 0.715182,0 1.430362,0 2.145544,0"
         transform="matrix(0.47157885,0.58374929,-0.58374929,0.47157885,143.07663,110.3334)" />
    </g>
    <g
       id="g51-4"
       transform="translate(13.627534,-112.3739)">
      <path
         style="fill:none;stroke:#000080;stroke-width:0.4;stroke-linecap:round;stroke-dasharray:none;stroke-dashoffset:0"
         d="m 33.886944,252.60604 c -0.546901,0.73621 -1.093794,1.47241 -0.957066,2.35589 0.136727,0.88347 0.957048,1.91413 1.914149,2.22966 0.957102,0.31553 2.050883,-0.0841 2.639857,-0.64155 0.588973,-0.55743 0.673111,-1.2726 0.75725,-1.98778"
         id="path46-4"
         inkscape:path-effect="#path-effect52-7"
         inkscape:original-d="m 33.886944,252.60604 c -0.546902,0.73621 -1.093795,1.47241 -1.640708,2.20864 0.82037,1.03072 1.640692,2.06138 2.461064,3.09211 1.093828,-0.39967 2.18761,-0.79932 3.281416,-1.19898 0.08414,-0.7152 0.168277,-1.43037 0.252418,-2.14555"
         sodipodi:nodetypes="ccccc" />
      <path
         style="fill:none;stroke:#000080;stroke-width:0.533026;stroke-linecap:round;stroke-dasharray:none;stroke-dashoffset:0"
         d="m 61.715887,229.4468 c 0.715182,0 1.430362,0 2.145544,0"
         id="path47-9"
         inkscape:path-effect="#path-effect54-1"
         inkscape:original-d="m 61.715887,229.4468 c 0.715182,0 1.430362,0 2.145544,0"
         transform="matrix(-0.59147004,0.46185825,0.46185825,0.59147004,-31.227665,90.34736)" />
      <path
         style="fill:none;stroke:#000080;stroke-width:0.533026;stroke-linecap:round;stroke-dasharray:none;stroke-dashoffset:0"
         d="m 61.715887,229.4468 c 0.715182,0 1.430362,0 2.145544,0"
         id="path48-1"
         inkscape:path-effect="#path-effect56-8"
         inkscape:original-d="m 61.715887,229.4468 c 0.715182,0 1.430362,0 2.145544,0"
         transform="matrix(0.47157885,0.58374929,-0.58374929,0.47157885,143.07663,110.3334)" />
      <path
         style="fill:none;stroke:#000080;stroke-width:0.4;stroke-linecap:round;stroke-dasharray:none;stroke-dashoffset:0"
         d="m 33.886944,252.60604 c -0.546901,0.73621 -1.093794,1.47241 -0.957066,2.35589 0.136727,0.88347 0.957048,1.91413 1.914149,2.22966 0.957102,0.31553 2.050883,-0.0841 2.639857,-0.64155 0.588973,-0.55743 0.673111,-1.2726 0.75725,-1.98778"
         id="path49-0"
         inkscape:path-effect="#path-effect58-7"
         inkscape:original-d="m 33.886944,252.60604 c -0.546902,0.73621 -1.093795,1.47241 -1.640708,2.20864 0.82037,1.03072 1.640692,2.06138 2.461064,3.09211 1.093828,-0.39967 2.18761,-0.79932 3.281416,-1.19898 0.08414,-0.7152 0.168277,-1.43037 0.252418,-2.14555"
         sodipodi:nodetypes="ccccc" />
      <path
         style="fill:none;stroke:#000080;stroke-width:0.533026;stroke-linecap:round;stroke-dasharray:none;stroke-dashoffset:0"
         d="m 61.715887,229.4468 c 0.715182,0 1.430362,0 2.145544,0"
         id="path50"
         inkscape:path-effect="#path-effect60-8"
         inkscape:original-d="m 61.715887,229.4468 c 0.715182,0 1.430362,0 2.145544,0"
         transform="matrix(-0.59147004,0.46185825,0.46185825,0.59147004,-31.227665,90.34736)" />
      <path
         style="fill:none;stroke:#000080;stroke-width:0.533026;stroke-linecap:round;stroke-dasharray:none;stroke-dashoffset:0"
         d="m 61.715887,229.4468 c 0.715182,0 1.430362,0 2.145544,0"
         id="path51-5"
         inkscape:path-effect="#path-effect62-7"
         inkscape:original-d="m 61.715887,229.4468 c 0.715182,0 1.430362,0 2.145544,0"
         transform="matrix(0.47157885,0.58374929,-0.58374929,0.47157885,143.07663,110.3334)" />
    </g>
  </g>
</svg>
