<svg width="1812" height="1500" xmlns="http://www.w3.org/2000/svg" xmlns:xlink="http://www.w3.org/1999/xlink" xml:space="preserve" overflow="hidden"><g transform="translate(-194 -1491)"><path d="M0 0 1174.03 863.785" stroke="#7F7F7F" stroke-width="6.875" stroke-miterlimit="8" stroke-dasharray="27.5 20.625" fill="none" fill-rule="evenodd" transform="matrix(1 0 0 -1 409.5 2821.28)"/><path d="M1417.43 1682.8 1467.25 1707.9 1197.74 2242.84 1147.92 2217.75Z" stroke="#000000" stroke-width="6.875" stroke-miterlimit="8" fill="#E8E8E8" fill-rule="evenodd"/><path d="M1608.98 1580.18 1528.22 1745.31 1482.7 1723.05 1563.46 1557.92Z" stroke="#000000" stroke-width="6.875" stroke-miterlimit="8" fill="#F2CFEE" fill-rule="evenodd"/><path d="M1482.68 1518.42 1401.93 1683.55 1356.41 1661.29 1437.17 1496.16Z" stroke="#000000" stroke-width="6.875" stroke-miterlimit="8" fill="#F2CFEE" fill-rule="evenodd"/><path d="M1528.22 1745.31 1356.41 1661.29 1378.67 1615.77 1550.48 1699.8Z" stroke="#000000" stroke-width="6.875" stroke-miterlimit="8" fill="#F2CFEE" fill-rule="evenodd"/><path d="M1265.43 1965.95C1263.51 1940.5 1282.59 1918.33 1308.03 1916.41 1308.17 1916.4 1308.3 1916.4 1308.44 1916.39L1311.5 1962.48Z" stroke="#000000" stroke-width="6.875" stroke-miterlimit="8" fill-rule="evenodd"/><path d="M1308.03 1916.42C1333.48 1914.5 1355.65 1933.58 1357.57 1959.02 1357.58 1959.16 1357.59 1959.29 1357.59 1959.43L1311.5 1962.48Z" stroke="#000000" stroke-width="6.875" stroke-miterlimit="8" fill="#FFFFFF" fill-rule="evenodd"/><path d="M1357.57 1959.02C1359.48 1984.47 1340.4 2006.64 1314.96 2008.56 1314.82 2008.57 1314.69 2008.57 1314.55 2008.58L1311.5 1962.48Z" stroke="#000000" stroke-width="6.875" stroke-miterlimit="8" fill-rule="evenodd"/><path d="M1314.96 2008.55C1289.51 2010.47 1267.34 1991.39 1265.43 1965.95 1265.42 1965.81 1265.41 1965.68 1265.4 1965.54L1311.5 1962.48Z" stroke="#000000" stroke-width="6.875" stroke-miterlimit="8" fill="#FFFFFF" fill-rule="evenodd"/><path d="M1091.22 2290.59 1124.22 2336 462.805 2816.73 429.798 2771.32Z" stroke="#042433" stroke-width="6.875" stroke-miterlimit="8" fill="#E8E8E8" fill-rule="evenodd"/><path d="M405.5 2824.06 1821.38 2824.06 1821.38 2830.94 405.5 2830.94ZM1816.8 2813.75 1844.3 2827.5 1816.8 2841.25Z" fill="#156082"/><path d="M3.4375-1.07613e-06 3.43785 1129.89-3.43715 1129.89-3.4375 1.07613e-06ZM13.7504 1125.3 0.000360892 1152.8-13.7496 1125.3Z" fill="#156082" transform="matrix(1 0 0 -1 405.5 2827.3)"/><path d="M341.5 2827.5C341.5 2792.15 370.154 2763.5 405.5 2763.5 440.846 2763.5 469.5 2792.15 469.5 2827.5 469.5 2862.85 440.846 2891.5 405.5 2891.5 370.154 2891.5 341.5 2862.85 341.5 2827.5Z" stroke="#042433" stroke-width="6.875" stroke-miterlimit="8" fill="#96DCF8" fill-rule="evenodd"/><path d="M1084.5 2277.5C1084.5 2242.15 1113.15 2213.5 1148.5 2213.5 1183.85 2213.5 1212.5 2242.15 1212.5 2277.5 1212.5 2312.85 1183.85 2341.5 1148.5 2341.5 1113.15 2341.5 1084.5 2312.85 1084.5 2277.5Z" stroke="#042433" stroke-width="6.875" stroke-miterlimit="8" fill="#96DCF8" fill-rule="evenodd"/><path d="M731.502 2554.4C731.281 2528.72 751.697 2507.72 777.101 2507.5 777.234 2507.5 777.367 2507.5 777.5 2507.5L777.5 2554Z" stroke="#000000" stroke-width="6.875" stroke-miterlimit="8" fill-rule="evenodd"/><path d="M777.092 2507.5C802.496 2507.27 823.273 2527.91 823.498 2553.59 823.5 2553.73 823.5 2553.86 823.5 2554L777.5 2554Z" stroke="#000000" stroke-width="6.875" stroke-miterlimit="8" fill="#FFFFFF" fill-rule="evenodd"/><path d="M823.498 2553.6C823.719 2579.28 803.303 2600.28 777.899 2600.5 777.766 2600.5 777.633 2600.5 777.5 2600.5L777.5 2554Z" stroke="#000000" stroke-width="6.875" stroke-miterlimit="8" fill-rule="evenodd"/><path d="M777.908 2600.5C752.504 2600.73 731.727 2580.09 731.502 2554.41 731.501 2554.27 731.5 2554.14 731.5 2554L777.5 2554Z" stroke="#000000" stroke-width="6.875" stroke-miterlimit="8" fill="#FFFFFF" fill-rule="evenodd"/><path d="M1140.5 2277.5C1140.5 2273.08 1144.08 2269.5 1148.5 2269.5 1152.92 2269.5 1156.5 2273.08 1156.5 2277.5 1156.5 2281.92 1152.92 2285.5 1148.5 2285.5 1144.08 2285.5 1140.5 2281.92 1140.5 2277.5Z" stroke="#000000" stroke-width="6.875" stroke-miterlimit="8" fill-rule="evenodd"/><path d="M395.5 2827.5C395.5 2823.08 399.306 2819.5 404 2819.5 408.694 2819.5 412.5 2823.08 412.5 2827.5 412.5 2831.92 408.694 2835.5 404 2835.5 399.306 2835.5 395.5 2831.92 395.5 2827.5Z" stroke="#000000" stroke-width="6.875" stroke-miterlimit="8" fill-rule="evenodd"/><path d="M6.87501 34.3753 6.87535 896.458-6.87465 896.458-6.87499 34.3753ZM-20.625 41.25 0 0 20.625 41.25ZM20.6253 889.583 0.000360892 930.833-20.6247 889.583Z" transform="matrix(0.5864 0.810022 0.810022 -0.5864 486.779 2948.63)"/><path d="M0 0 154.233 0.000360892" stroke="#000000" stroke-width="6.875" stroke-miterlimit="8" stroke-dasharray="55 20.625" fill="none" fill-rule="evenodd" transform="matrix(-0.5864 -0.810022 -0.810022 0.5864 486.779 2948.63)"/><path d="M0 0 156.183 0.000360892" stroke="#000000" stroke-width="6.875" stroke-miterlimit="8" stroke-dasharray="55 20.625" fill="none" fill-rule="evenodd" transform="matrix(-0.5864 -0.810022 -0.810022 0.5864 1238.59 2404.37)"/><path d="M6.87502 34.375 6.87534 712.739-6.87466 712.739-6.87498 34.375ZM-20.625 41.25 0 0 20.625 41.25ZM20.6253 705.864 0.000360892 747.114-20.6247 705.864Z" transform="matrix(0.894606 0.446855 0.446855 -0.894606 1423.48 2416.67)"/><path d="M0 0 295.148 0.000360892" stroke="#000000" stroke-width="6.875" stroke-miterlimit="8" stroke-dasharray="55 20.625" fill="none" fill-rule="evenodd" transform="matrix(-0.894606 -0.446855 -0.446855 0.894606 1423.48 2416.67)"/><path d="M0 0 298.879 0.000360892" stroke="#000000" stroke-width="6.875" stroke-miterlimit="8" stroke-dasharray="55 20.625" fill="none" fill-rule="evenodd" transform="matrix(-0.894606 -0.446855 -0.446855 0.894606 1756.36 1750.24)"/><path d="M6.87504 34.375 6.87533 320.707-6.87467 320.707-6.87496 34.375ZM-20.625 41.25 0 0 20.625 41.25ZM20.6253 313.832 0.000360892 355.082-20.6247 313.832Z" transform="matrix(-0.891252 -0.453509 -0.453509 0.891252 1060.73 1838.58)"/><path d="M0 0 295.148 0.000360892" stroke="#000000" stroke-width="6.875" stroke-miterlimit="8" stroke-dasharray="55 20.625" fill="none" fill-rule="evenodd" transform="matrix(0.891252 0.453509 0.453509 -0.891252 1060.73 1838.58)"/><path d="M0 0 298.879 0.000360892" stroke="#000000" stroke-width="6.875" stroke-miterlimit="8" stroke-dasharray="55 20.625" fill="none" fill-rule="evenodd" transform="matrix(0.891252 0.453509 0.453509 -0.891252 900.159 2154.13)"/><path d="M6.87503 34.375 6.87533 427.644-6.87467 427.644-6.87497 34.375ZM-20.625 41.25 0 0 20.625 41.25ZM20.6253 420.769 0.000360892 462.019-20.6247 420.769Z" transform="matrix(-0.577739 -0.816222 -0.816222 0.577739 616.931 2327.49)"/><path d="M0 0 295.148 0.000360892" stroke="#000000" stroke-width="6.875" stroke-miterlimit="8" stroke-dasharray="55 20.625" fill="none" fill-rule="evenodd" transform="matrix(0.577739 0.816222 0.816222 -0.577739 616.931 2327.49)"/><path d="M0 0 298.879 0.000360892" stroke="#000000" stroke-width="6.875" stroke-miterlimit="8" stroke-dasharray="55 20.625" fill="none" fill-rule="evenodd" transform="matrix(0.577739 0.816222 0.816222 -0.577739 240.914 2593.64)"/><path d="M798.25 2659.07C793.824 2662.31 790.911 2665.29 789.512 2668.03 788.113 2670.76 788.239 2673.28 789.892 2675.58 790.789 2676.83 791.75 2677.64 792.775 2678 793.799 2678.37 794.794 2678.41 795.76 2678.13 796.725 2677.86 797.735 2677.34 798.789 2676.59 800.282 2675.51 801.378 2674.18 802.077 2672.58 802.777 2670.98 803.065 2669.38 802.943 2667.77 802.821 2666.17 802.367 2664.81 801.58 2663.71ZM782.486 2644.59C784.66 2643.03 786.654 2642.13 788.467 2641.87 790.28 2641.62 792.028 2641.97 793.71 2642.93 795.392 2643.88 797.264 2645.8 799.326 2648.68L807.543 2660.14C808.708 2661.76 809.541 2662.9 810.043 2663.56 810.545 2664.21 811.056 2664.78 811.575 2665.28 812.094 2665.77 812.585 2666.11 813.049 2666.29 813.512 2666.47 814.045 2666.53 814.646 2666.46 815.247 2666.4 816.126 2666.15 817.281 2665.72L818.438 2667.34 809.413 2673.81 806.201 2668.98 805.612 2669.2C805.103 2672.52 804.299 2675.2 803.202 2677.21 802.104 2679.23 800.611 2680.91 798.723 2682.27 797.054 2683.46 795.351 2684.19 793.613 2684.46 791.875 2684.72 790.244 2684.51 788.721 2683.83 787.198 2683.14 785.886 2682.03 784.784 2680.49 782.486 2677.28 782.298 2673.67 784.219 2669.65 786.141 2665.63 790.173 2661.2 796.314 2656.37L794.78 2654.23C793.142 2651.94 791.632 2650.3 790.248 2649.3 788.865 2648.3 787.48 2647.83 786.096 2647.89 784.711 2647.95 783.227 2648.55 781.646 2649.68 779.934 2650.91 778.878 2652.35 778.481 2653.99 778.083 2655.64 778.266 2657.56 779.03 2659.73L774.715 2662.83 771.645 2658.54C772.966 2655.94 774.145 2653.87 775.18 2652.35 776.216 2650.82 777.33 2649.41 778.523 2648.1 779.715 2646.8 781.037 2645.63 782.486 2644.59Z" fill-rule="evenodd"/><text fill="#000000" fill-opacity="0" font-family="Arial,Arial_MSFontService,sans-serif" font-size="42.7756" x="771.645" y="2679.22">a</text><path d="M823.499 2637.23 824.976 2636.17C825.58 2637.08 826.125 2637.9 826.613 2638.61 827.1 2639.32 827.576 2640.01 828.043 2640.68 828.509 2641.35 828.973 2642.01 829.436 2642.65L842.624 2661.05C842.983 2661.55 843.309 2661.97 843.601 2662.31 843.894 2662.65 844.166 2662.92 844.418 2663.12 844.67 2663.31 844.92 2663.46 845.168 2663.55 845.417 2663.64 845.668 2663.69 845.922 2663.71 846.254 2663.76 846.619 2663.72 847.017 2663.6 847.415 2663.47 847.89 2663.27 848.443 2662.98 848.995 2662.69 849.637 2662.32 850.368 2661.86 851.099 2661.39 851.962 2660.82 852.958 2660.13L854.468 2662.23 835.271 2675.99 833.761 2673.89C834.69 2673.17 835.471 2672.56 836.104 2672.04 836.737 2671.53 837.261 2671.07 837.677 2670.66 838.093 2670.25 838.41 2669.9 838.629 2669.61 838.848 2669.32 839.016 2669.03 839.133 2668.76 839.255 2668.45 839.336 2668.15 839.376 2667.87 839.416 2667.58 839.392 2667.28 839.303 2666.95 839.215 2666.62 839.066 2666.25 838.857 2665.84 838.647 2665.43 838.346 2664.95 837.952 2664.4L825.51 2647.04C825.059 2646.41 824.62 2646.05 824.193 2645.97 823.765 2645.89 823.326 2646 822.874 2646.33 822.374 2646.69 821.816 2647.48 821.202 2648.7 820.588 2649.92 819.862 2651.6 819.026 2653.74 818.55 2653.52 818.09 2653.29 817.647 2653.04 817.203 2652.8 816.745 2652.55 816.274 2652.31 817.489 2649.77 818.686 2647.26 819.866 2644.77 821.046 2642.27 822.257 2639.76 823.499 2637.23Z" fill-rule="evenodd"/><text fill="#000000" fill-opacity="0" font-family="Arial,Arial_MSFontService,sans-serif" font-size="39.8215" x="816.274" y="2671.02">1</text><path d="M1526.44 2101.54C1523.96 2106.43 1522.72 2110.41 1522.71 2113.48 1522.7 2116.55 1523.95 2118.74 1526.47 2120.04 1527.83 2120.75 1529.06 2121.04 1530.13 2120.9 1531.21 2120.76 1532.12 2120.35 1532.85 2119.66 1533.59 2118.98 1534.26 2118.06 1534.85 2116.91 1535.7 2115.28 1536.07 2113.59 1535.97 2111.85 1535.87 2110.11 1535.4 2108.55 1534.57 2107.17 1533.73 2105.79 1532.71 2104.79 1531.51 2104.17ZM1505.83 2095.77C1507.06 2093.39 1508.43 2091.68 1509.93 2090.64 1511.43 2089.59 1513.15 2089.11 1515.08 2089.2 1517.01 2089.29 1519.55 2090.15 1522.69 2091.78L1535.21 2098.28C1536.98 2099.2 1538.24 2099.84 1538.99 2100.2 1539.73 2100.55 1540.44 2100.83 1541.13 2101.04 1541.82 2101.24 1542.41 2101.32 1542.9 2101.27 1543.4 2101.22 1543.9 2101.04 1544.41 2100.7 1544.91 2100.37 1545.58 2099.76 1546.42 2098.85L1548.18 2099.76 1543.07 2109.62 1538.02 2106.77 1537.59 2107.24C1538.64 2110.43 1539.14 2113.17 1539.07 2115.47 1539.01 2117.76 1538.44 2119.94 1537.37 2122 1536.42 2123.83 1535.23 2125.25 1533.8 2126.27 1532.38 2127.3 1530.83 2127.85 1529.16 2127.93 1527.49 2128 1525.81 2127.61 1524.14 2126.73 1520.64 2124.92 1518.83 2121.78 1518.72 2117.33 1518.62 2112.87 1520.2 2107.1 1523.49 2100.01L1521.15 2098.79C1518.66 2097.5 1516.57 2096.72 1514.88 2096.45 1513.19 2096.18 1511.75 2096.39 1510.54 2097.07 1509.33 2097.76 1508.28 2098.96 1507.38 2100.69 1506.41 2102.56 1506.12 2104.32 1506.52 2105.97 1506.91 2107.62 1507.94 2109.24 1509.6 2110.83L1507.16 2115.55 1502.48 2113.12C1502.48 2110.19 1502.59 2107.82 1502.83 2105.99 1503.06 2104.16 1503.41 2102.4 1503.89 2100.7 1504.36 2098.99 1505.01 2097.35 1505.83 2095.77Z" fill-rule="evenodd"/><text fill="#000000" fill-opacity="0" font-family="Arial,Arial_MSFontService,sans-serif" font-size="38.7437" x="1502.48" y="2123.09">a</text><path d="M1538.68 2070.91C1539.63 2069.08 1540.65 2067.62 1541.74 2066.54 1542.82 2065.46 1543.93 2064.7 1545.06 2064.25 1546.18 2063.81 1547.33 2063.66 1548.51 2063.81 1549.68 2063.96 1550.84 2064.34 1551.99 2064.93 1552.67 2065.29 1553.29 2065.67 1553.83 2066.07 1554.37 2066.47 1554.86 2066.94 1555.31 2067.48 1555.76 2068.01 1556.18 2068.63 1556.56 2069.32 1556.94 2070.01 1557.3 2070.81 1557.65 2071.73 1557.99 2072.46 1558.34 2073.38 1558.72 2074.46 1559.09 2075.55 1559.48 2076.74 1559.89 2078.01 1560.31 2079.29 1560.73 2080.62 1561.17 2082.01 1561.61 2083.41 1562.06 2084.77 1562.51 2086.1 1562.96 2087.43 1563.42 2088.67 1563.89 2089.84 1564.36 2091 1564.83 2091.99 1565.3 2092.81L1570.38 2083.03C1570.81 2082.21 1571.12 2081.53 1571.31 2081 1571.51 2080.48 1571.58 2080 1571.54 2079.56 1571.5 2079.13 1571.32 2078.68 1571.01 2078.23 1570.7 2077.77 1570.24 2077.2 1569.64 2076.51L1570.91 2074.05C1572.12 2074.79 1573.33 2075.53 1574.56 2076.26 1575.79 2077 1577.01 2077.74 1578.21 2078.48L1566.59 2100.87 1565.21 2100.15C1564.48 2099.24 1563.8 2098.26 1563.17 2097.21 1562.53 2096.17 1561.92 2095.05 1561.34 2093.85 1560.75 2092.65 1560.19 2091.34 1559.64 2089.91 1559.09 2088.49 1558.56 2086.94 1558.03 2085.28 1557.24 2082.77 1556.52 2080.69 1555.89 2079.04 1555.26 2077.39 1554.64 2076.03 1554.03 2074.95 1553.43 2073.88 1552.79 2073.03 1552.13 2072.41 1551.47 2071.78 1550.7 2071.24 1549.82 2070.79 1548.92 2070.32 1548.03 2070.02 1547.14 2069.88 1546.25 2069.74 1545.41 2069.77 1544.64 2069.97 1543.86 2070.18 1543.13 2070.56 1542.45 2071.14 1541.77 2071.72 1541.19 2072.48 1540.69 2073.43 1539.84 2075.07 1539.57 2076.68 1539.89 2078.25 1540.2 2079.82 1541.04 2081.35 1542.42 2082.85L1540.62 2086.31 1535.46 2083.64C1535.7 2080.9 1536.1 2078.47 1536.66 2076.35 1537.22 2074.24 1537.89 2072.43 1538.68 2070.91Z" fill-rule="evenodd"/><text fill="#000000" fill-opacity="0" font-family="Arial,Arial_MSFontService,sans-serif" font-size="37.1135" x="1535.46" y="2096.23">2</text><path d="M859.517 1966.48 860.637 1964.32 903.117 1986.37C905.179 1987.44 906.662 1988.09 907.565 1988.31 908.468 1988.54 909.269 1988.49 909.969 1988.17 910.668 1987.85 911.492 1987.16 912.438 1986.1L914.201 1987.01 906.788 2001.29 905.025 2000.38C905.336 1999.01 905.445 1998.01 905.352 1997.37 905.259 1996.73 905.031 1996.19 904.67 1995.74 904.308 1995.29 903.747 1994.82 902.987 1994.32 902.228 1993.82 901.2 1993.23 899.905 1992.56L869.799 1976.93C867.497 1975.73 865.881 1974.92 864.951 1974.48 864.021 1974.04 863.198 1973.74 862.482 1973.56 861.765 1973.39 861.156 1973.35 860.653 1973.44 860.15 1973.53 859.669 1973.75 859.211 1974.1 858.752 1974.46 858.097 1975.19 857.247 1976.3L855.376 1975.33Z" fill-rule="evenodd"/><text fill="#000000" fill-opacity="0" font-family="Arial,Arial_MSFontService,sans-serif" font-size="36.9717" x="855.376" y="1996.67">l</text><path d="M904.516 1958.51C905.467 1956.68 906.486 1955.22 907.573 1954.14 908.659 1953.06 909.766 1952.3 910.891 1951.85 912.017 1951.41 913.167 1951.26 914.342 1951.41 915.516 1951.56 916.676 1951.93 917.822 1952.53 918.509 1952.89 919.123 1953.27 919.663 1953.67 920.203 1954.07 920.698 1954.54 921.147 1955.08 921.596 1955.61 922.011 1956.22 922.391 1956.91 922.771 1957.6 923.137 1958.41 923.487 1959.33 923.822 1960.06 924.177 1960.97 924.551 1962.06 924.925 1963.15 925.318 1964.33 925.729 1965.61 926.141 1966.89 926.567 1968.22 927.008 1969.61 927.448 1971.01 927.894 1972.37 928.344 1973.7 928.795 1975.03 929.255 1976.27 929.726 1977.44 930.197 1978.6 930.666 1979.59 931.133 1980.41L936.211 1970.63C936.641 1969.8 936.953 1969.13 937.147 1968.6 937.342 1968.08 937.418 1967.6 937.376 1967.16 937.334 1966.72 937.156 1966.28 936.843 1965.83 936.53 1965.37 936.073 1964.8 935.471 1964.11L936.747 1961.65C937.952 1962.39 939.169 1963.12 940.397 1963.86 941.624 1964.6 942.841 1965.34 944.047 1966.08L932.423 1988.47 931.048 1987.75C930.316 1986.84 929.634 1985.86 929.002 1984.81 928.369 1983.77 927.76 1982.65 927.174 1981.45 926.589 1980.25 926.022 1978.94 925.476 1977.51 924.929 1976.09 924.393 1974.54 923.867 1972.88 923.071 1970.37 922.356 1968.28 921.724 1966.64 921.092 1964.99 920.473 1963.63 919.868 1962.55 919.262 1961.48 918.629 1960.63 917.968 1960 917.307 1959.38 916.536 1958.84 915.655 1958.38 914.756 1957.92 913.861 1957.62 912.971 1957.48 912.08 1957.34 911.247 1957.37 910.471 1957.57 909.696 1957.77 908.968 1958.16 908.289 1958.74 907.61 1959.31 907.023 1960.08 906.529 1961.03 905.678 1962.67 905.409 1964.27 905.723 1965.85 906.037 1967.42 906.879 1968.95 908.251 1970.45L906.453 1973.91 901.298 1971.24C901.535 1968.49 901.934 1966.07 902.495 1963.95 903.055 1961.84 903.729 1960.02 904.516 1958.51Z" fill-rule="evenodd"/><text fill="#000000" fill-opacity="0" font-family="Arial,Arial_MSFontService,sans-serif" font-size="37.1135" x="901.298" y="1983.83">2</text><path d="M335.131 2387.98 337.107 2386.57 364.993 2425.47C366.346 2427.36 367.375 2428.61 368.078 2429.22 368.781 2429.83 369.517 2430.15 370.287 2430.18 371.056 2430.21 372.103 2429.96 373.428 2429.45L374.585 2431.06 361.508 2440.43 360.351 2438.82C361.244 2437.75 361.795 2436.9 362.003 2436.29 362.211 2435.67 362.254 2435.09 362.134 2434.52 362.014 2433.96 361.728 2433.29 361.278 2432.49 360.827 2431.7 360.177 2430.72 359.327 2429.53L339.564 2401.96C338.053 2399.85 336.982 2398.39 336.351 2397.58 335.72 2396.77 335.124 2396.13 334.565 2395.65 334.005 2395.17 333.48 2394.85 332.992 2394.7 332.503 2394.56 331.974 2394.54 331.404 2394.65 330.834 2394.76 329.918 2395.11 328.657 2395.72L327.429 2394Z" fill-rule="evenodd"/><text fill="#000000" fill-opacity="0" font-family="Arial,Arial_MSFontService,sans-serif" font-size="53.8647" x="327.429" y="2433.7">l</text><path d="M379.323 2401.19 380.8 2400.13C381.404 2401.04 381.949 2401.85 382.436 2402.56 382.923 2403.28 383.4 2403.97 383.866 2404.64 384.332 2405.3 384.797 2405.96 385.26 2406.6L398.448 2425C398.807 2425.5 399.132 2425.92 399.425 2426.26 399.717 2426.6 399.99 2426.87 400.242 2427.07 400.494 2427.27 400.744 2427.41 400.992 2427.5 401.24 2427.59 401.491 2427.65 401.745 2427.66 402.078 2427.71 402.443 2427.68 402.841 2427.55 403.239 2427.43 403.714 2427.22 404.266 2426.93 404.819 2426.65 405.461 2426.27 406.191 2425.81 406.922 2425.35 407.786 2424.77 408.782 2424.08L410.292 2426.19 391.095 2439.95 389.585 2437.84C390.514 2437.13 391.295 2436.51 391.928 2436 392.56 2435.48 393.085 2435.02 393.501 2434.61 393.917 2434.21 394.234 2433.86 394.453 2433.57 394.672 2433.27 394.84 2432.99 394.957 2432.71 395.079 2432.4 395.16 2432.11 395.2 2431.82 395.24 2431.54 395.215 2431.23 395.127 2430.9 395.039 2430.57 394.89 2430.2 394.68 2429.79 394.471 2429.38 394.169 2428.9 393.776 2428.35L381.334 2410.99C380.883 2410.37 380.443 2410.01 380.016 2409.92 379.589 2409.84 379.15 2409.96 378.698 2410.28 378.197 2410.64 377.64 2411.43 377.026 2412.65 376.412 2413.88 375.686 2415.56 374.849 2417.7 374.374 2417.47 373.914 2417.24 373.47 2417 373.027 2416.75 372.569 2416.51 372.098 2416.26 373.312 2413.73 374.51 2411.21 375.69 2408.72 376.87 2406.22 378.081 2403.71 379.323 2401.19Z" fill-rule="evenodd"/><text fill="#000000" fill-opacity="0" font-family="Arial,Arial_MSFontService,sans-serif" font-size="39.8215" x="372.098" y="2434.97">1</text><path d="M951.953 2476.52 960.602 2484.5 978.342 2502.72 995.009 2521.79 1010.58 2541.65 1025.03 2562.25 1038.35 2583.55 1050.5 2605.5 1061.46 2628.04 1071.22 2651.13 1079.75 2674.72 1087.03 2698.76 1093.04 2723.2 1097.75 2748 1101.14 2773.09 1103.19 2798.44 1103.87 2823.81 1090.13 2824.18 1089.45 2799 1089.47 2799.37 1087.45 2774.39 1087.49 2774.75 1084.14 2750.02 1084.2 2750.38 1079.56 2725.95 1079.64 2726.31 1073.72 2702.22 1073.82 2702.57 1066.65 2678.88 1066.76 2679.23 1058.35 2655.98 1058.49 2656.32 1048.87 2633.56 1049.02 2633.89 1038.21 2611.68 1038.38 2612 1026.41 2590.37 1026.59 2590.69 1013.47 2569.7 1013.67 2570 999.428 2549.7 999.646 2549.99 984.301 2530.42 984.535 2530.7 968.111 2511.91 968.361 2512.18 950.878 2494.22 951.143 2494.48 942.63 2486.62ZM954.723 2529.24 937.263 2472.32 995.407 2485.14C999.115 2485.96 1001.46 2489.63 1000.64 2493.33 999.823 2497.04 996.154 2499.38 992.446 2498.57L945.811 2488.28 953.865 2479.55 967.869 2525.21C968.982 2528.84 966.942 2532.69 963.312 2533.8 959.682 2534.91 955.837 2532.87 954.723 2529.24Z"/><path d="M1428.33 1828.17 1438.56 1834.36 1459.79 1848.83 1480.17 1864.41 1499.67 1881.06 1518.24 1898.74 1535.84 1917.41 1552.43 1937.03 1567.84 1957.43 1556.87 1965.72 1541.57 1945.47 1541.8 1945.76 1525.46 1926.42 1525.71 1926.7 1508.36 1908.3 1508.63 1908.57 1490.33 1891.15 1490.6 1891.39 1471.39 1874.99 1471.68 1875.22 1451.59 1859.87 1451.89 1860.09 1430.97 1845.82 1431.28 1846.03 1421.22 1839.94ZM1441.58 1879.28 1413.1 1826.99 1472.63 1827.94C1476.43 1828 1479.46 1831.13 1479.4 1834.93 1479.34 1838.72 1476.21 1841.75 1472.41 1841.69L1424.66 1840.93 1430.81 1830.77 1453.65 1872.7C1455.47 1876.04 1454.24 1880.21 1450.9 1882.03 1447.57 1883.85 1443.39 1882.62 1441.58 1879.28Z"/><path d="M1416.05 1923.06C1416.34 1938.81 1419.79 1946.68 1426.38 1946.68 1432.97 1946.68 1436.32 1938.81 1436.43 1923.06ZM1426.26 1895.66C1419.67 1895.66 1416.26 1903.41 1416.05 1918.92L1436.39 1918.92C1436.01 1903.41 1432.64 1895.66 1426.26 1895.66ZM1426.42 1892.46C1432.34 1892.46 1436.73 1894.74 1439.59 1899.31 1442.46 1903.87 1443.89 1910.92 1443.89 1920.46 1443.89 1930.3 1442.38 1937.67 1439.35 1942.57 1436.32 1947.47 1431.8 1949.93 1425.77 1949.93 1419.83 1949.93 1415.48 1947.61 1412.72 1942.98 1409.97 1938.34 1408.59 1931.27 1408.59 1921.76 1408.59 1912.22 1410.1 1904.95 1413.13 1899.96 1416.15 1894.96 1420.59 1892.46 1426.42 1892.46Z" fill-rule="evenodd"/><text fill="#000000" fill-opacity="0" font-family="Arial,Arial_MSFontService,sans-serif" font-size="57.4678" x="1408.59" y="1942.74">θ</text><path d="M1466.65 1927.55C1468.71 1927.55 1470.47 1927.78 1471.93 1928.25 1473.39 1928.72 1474.58 1929.35 1475.49 1930.14 1476.41 1930.93 1477.07 1931.89 1477.47 1933 1477.88 1934.11 1478.08 1935.31 1478.08 1936.6 1478.08 1937.38 1478.03 1938.1 1477.92 1938.76 1477.81 1939.43 1477.62 1940.08 1477.35 1940.73 1477.09 1941.37 1476.73 1942.02 1476.3 1942.68 1475.86 1943.34 1475.31 1944.03 1474.66 1944.76 1474.16 1945.4 1473.52 1946.14 1472.72 1946.97 1471.93 1947.8 1471.06 1948.7 1470.12 1949.65 1469.17 1950.6 1468.19 1951.6 1467.15 1952.63 1466.12 1953.66 1465.12 1954.68 1464.14 1955.7 1463.17 1956.71 1462.28 1957.69 1461.46 1958.64 1460.65 1959.6 1459.98 1960.47 1459.47 1961.27L1470.49 1961.27C1471.42 1961.27 1472.17 1961.23 1472.72 1961.16 1473.28 1961.09 1473.74 1960.94 1474.11 1960.7 1474.47 1960.46 1474.79 1960.1 1475.05 1959.61 1475.3 1959.13 1475.6 1958.46 1475.94 1957.6L1478.71 1957.6C1478.61 1959.01 1478.52 1960.43 1478.43 1961.86 1478.34 1963.29 1478.24 1964.71 1478.14 1966.12L1452.92 1966.12 1452.92 1964.57C1453.39 1963.5 1453.95 1962.44 1454.58 1961.4 1455.22 1960.36 1455.93 1959.3 1456.73 1958.23 1457.52 1957.16 1458.43 1956.05 1459.44 1954.91 1460.45 1953.77 1461.57 1952.58 1462.8 1951.35 1464.67 1949.48 1466.19 1947.89 1467.36 1946.57 1468.53 1945.25 1469.46 1944.07 1470.13 1943.04 1470.81 1942 1471.27 1941.05 1471.52 1940.18 1471.76 1939.3 1471.89 1938.37 1471.89 1937.38 1471.89 1936.37 1471.74 1935.43 1471.46 1934.58 1471.17 1933.72 1470.76 1933 1470.22 1932.4 1469.68 1931.81 1469 1931.34 1468.18 1931 1467.36 1930.67 1466.41 1930.5 1465.34 1930.5 1463.49 1930.5 1461.94 1931 1460.69 1932 1459.44 1933 1458.47 1934.46 1457.77 1936.37L1453.87 1936.37 1453.87 1930.56C1456.41 1929.51 1458.75 1928.74 1460.88 1928.26 1463.02 1927.79 1464.94 1927.55 1466.65 1927.55Z" fill-rule="evenodd"/><text fill="#000000" fill-opacity="0" font-family="Arial,Arial_MSFontService,sans-serif" font-size="38.5718" x="1452.92" y="1961.3">2</text><path d="M1010.43 2747.73C1010.72 2763.48 1014.17 2771.35 1020.76 2771.35 1027.35 2771.35 1030.7 2763.48 1030.81 2747.73ZM1020.64 2720.33C1014.05 2720.33 1010.64 2728.08 1010.43 2743.59L1030.77 2743.59C1030.39 2728.08 1027.02 2720.33 1020.64 2720.33ZM1020.8 2717.13C1026.72 2717.13 1031.11 2719.41 1033.97 2723.98 1036.84 2728.54 1038.27 2735.59 1038.27 2745.13 1038.27 2754.97 1036.76 2762.34 1033.73 2767.24 1030.7 2772.14 1026.18 2774.59 1020.15 2774.59 1014.21 2774.59 1009.86 2772.28 1007.1 2767.64 1004.35 2763.01 1002.97 2755.94 1002.97 2746.43 1002.97 2736.89 1004.48 2729.62 1007.51 2724.62 1010.54 2719.63 1014.97 2717.13 1020.8 2717.13Z" fill-rule="evenodd"/><text fill="#000000" fill-opacity="0" font-family="Arial,Arial_MSFontService,sans-serif" font-size="57.4678" x="1002.97" y="2767.41">θ</text><path d="M1061.45 2752.43 1063.27 2752.43C1063.23 2753.52 1063.2 2754.5 1063.18 2755.36 1063.16 2756.22 1063.14 2757.06 1063.13 2757.88 1063.12 2758.69 1063.12 2759.5 1063.12 2760.29L1063.12 2782.93C1063.12 2783.54 1063.14 2784.07 1063.18 2784.52 1063.22 2784.97 1063.28 2785.34 1063.37 2785.65 1063.46 2785.96 1063.58 2786.22 1063.73 2786.44 1063.88 2786.66 1064.05 2786.85 1064.25 2787.01 1064.49 2787.25 1064.8 2787.43 1065.2 2787.56 1065.6 2787.69 1066.1 2787.8 1066.72 2787.89 1067.34 2787.98 1068.08 2788.05 1068.94 2788.09 1069.8 2788.14 1070.84 2788.18 1072.05 2788.2L1072.05 2790.79 1048.43 2790.79 1048.43 2788.2C1049.6 2788.16 1050.6 2788.11 1051.41 2788.06 1052.22 2788.02 1052.92 2787.95 1053.5 2787.86 1054.07 2787.77 1054.53 2787.67 1054.88 2787.56 1055.23 2787.45 1055.53 2787.32 1055.79 2787.16 1056.07 2786.98 1056.31 2786.78 1056.5 2786.58 1056.7 2786.37 1056.86 2786.1 1056.98 2785.79 1057.1 2785.47 1057.19 2785.08 1057.26 2784.62 1057.33 2784.17 1057.37 2783.6 1057.37 2782.93L1057.37 2761.57C1057.37 2760.8 1057.22 2760.25 1056.92 2759.93 1056.62 2759.62 1056.2 2759.46 1055.64 2759.46 1055.02 2759.46 1054.11 2759.77 1052.9 2760.41 1051.69 2761.04 1050.12 2761.99 1048.19 2763.24 1047.94 2762.78 1047.7 2762.33 1047.48 2761.87 1047.26 2761.41 1047.03 2760.95 1046.79 2760.47 1049.26 2759.12 1051.69 2757.77 1054.11 2756.43 1056.52 2755.09 1058.97 2753.76 1061.45 2752.43Z" fill-rule="evenodd"/><text fill="#000000" fill-opacity="0" font-family="Arial,Arial_MSFontService,sans-serif" font-size="38.3633" x="1046.79" y="2785.99">1</text><path d="M617.01 2479.99C619.711 2479.99 621.913 2480.61 623.616 2481.85 625.318 2483.1 626.493 2485 627.141 2487.57 629.168 2485.51 630.809 2484 632.066 2483.03 633.322 2482.06 634.605 2481.31 635.916 2480.78 637.226 2480.25 638.638 2479.99 640.151 2479.99 641.961 2479.99 643.521 2480.25 644.832 2480.78 646.142 2481.31 647.25 2482.12 648.155 2483.21 649.06 2484.31 649.722 2485.68 650.141 2487.32 650.56 2488.97 650.769 2491.19 650.769 2493.97L650.769 2509.25C650.769 2511.3 650.836 2512.72 650.972 2513.51 651.107 2514.29 651.303 2514.9 651.559 2515.33 651.816 2515.76 652.201 2516.13 652.714 2516.44 653.228 2516.75 654.092 2517.07 655.308 2517.4L655.308 2519.38 639.381 2519.38 639.381 2517.4C640.434 2517.07 641.191 2516.79 641.65 2516.55 642.11 2516.3 642.495 2515.96 642.805 2515.53 643.116 2515.1 643.359 2514.43 643.535 2513.53 643.71 2512.62 643.798 2511.25 643.798 2509.41L643.798 2498.79C643.798 2496.5 643.737 2494.6 643.616 2493.1 643.494 2491.6 643.305 2490.41 643.048 2489.51 642.792 2488.62 642.481 2487.92 642.116 2487.41 641.752 2486.89 641.34 2486.45 640.88 2486.07 640.421 2485.69 639.881 2485.39 639.259 2485.18 638.638 2484.96 637.814 2484.85 636.787 2484.85 635.706 2484.85 634.7 2485.07 633.768 2485.5 632.836 2485.93 631.822 2486.66 630.728 2487.69 629.634 2488.72 628.844 2489.75 628.357 2490.79 627.871 2491.83 627.628 2493.05 627.628 2494.46L627.628 2509.25C627.628 2511.3 627.695 2512.72 627.83 2513.51 627.966 2514.29 628.161 2514.9 628.418 2515.33 628.675 2515.76 629.06 2516.13 629.573 2516.44 630.086 2516.75 630.951 2517.07 632.167 2517.4L632.167 2519.38 616.24 2519.38 616.24 2517.4C617.293 2517.07 618.05 2516.79 618.509 2516.55 618.968 2516.3 619.353 2515.96 619.664 2515.53 619.975 2515.1 620.218 2514.43 620.394 2513.53 620.569 2512.62 620.657 2511.25 620.657 2509.41L620.657 2498.79C620.657 2496.39 620.59 2494.43 620.454 2492.92 620.319 2491.4 620.11 2490.19 619.826 2489.27 619.543 2488.35 619.178 2487.61 618.732 2487.04 618.286 2486.47 617.834 2486.04 617.374 2485.74 616.915 2485.45 616.375 2485.22 615.753 2485.08 615.132 2484.93 614.429 2484.85 613.646 2484.85 612.538 2484.85 611.498 2485.1 610.525 2485.6 609.553 2486.1 608.56 2486.83 607.547 2487.77 606.533 2488.72 605.77 2489.7 605.257 2490.73 604.743 2491.76 604.487 2492.86 604.487 2494.05L604.487 2509.25C604.487 2510.79 604.527 2511.97 604.608 2512.78 604.689 2513.59 604.818 2514.22 604.993 2514.68 605.169 2515.14 605.392 2515.51 605.662 2515.8 605.932 2516.08 606.317 2516.35 606.817 2516.61 607.317 2516.86 608.067 2517.13 609.066 2517.4L609.066 2519.38 593.18 2519.38 593.18 2517.4C594.206 2517.07 594.943 2516.79 595.388 2516.55 595.834 2516.3 596.219 2515.96 596.543 2515.53 596.868 2515.1 597.111 2514.44 597.273 2513.55 597.435 2512.65 597.516 2511.26 597.516 2509.37L597.516 2491.7C597.516 2489.97 597.489 2488.58 597.435 2487.53 597.381 2486.47 597.192 2485.63 596.868 2484.99 596.543 2484.36 596.05 2483.89 595.388 2483.58 594.726 2483.27 593.787 2483 592.572 2482.79L592.572 2480.64 602.055 2480.27 604.527 2480.27 604.081 2486.88 604.649 2487.04C606.27 2485.42 607.601 2484.2 608.641 2483.37 609.681 2482.55 610.687 2481.89 611.66 2481.39 612.633 2480.89 613.545 2480.53 614.396 2480.31 615.247 2480.1 616.118 2479.99 617.01 2479.99Z" fill-rule="evenodd"/><text fill="#000000" fill-opacity="0" font-family="Arial,Arial_MSFontService,sans-serif" font-size="39.3926" x="592.572" y="2514.46">m</text><path d="M668.412 2492.89 670.587 2492.89 670.587 2528.63C670.587 2529.82 670.612 2530.74 670.661 2531.37 670.711 2532.01 670.855 2532.5 671.093 2532.85 671.331 2533.19 671.689 2533.46 672.165 2533.63 672.642 2533.81 673.307 2534.04 674.161 2534.32L674.161 2536.23 661.026 2536.23 661.026 2534.32C661.959 2534.04 662.679 2533.8 663.185 2533.6 663.692 2533.41 664.059 2533.13 664.287 2532.77 664.516 2532.41 664.645 2531.92 664.674 2531.3 664.704 2530.67 664.719 2529.78 664.719 2528.63L664.719 2503.34C664.719 2501.87 664.699 2500.75 664.66 2499.98 664.62 2499.2 664.56 2498.58 664.481 2498.1 664.401 2497.72 664.307 2497.39 664.198 2497.1 664.089 2496.82 663.9 2496.56 663.632 2496.33 663.364 2496.1 662.982 2495.9 662.485 2495.73 661.989 2495.56 661.324 2495.41 660.49 2495.27L660.49 2493.31Z" fill-rule="evenodd"/><text fill="#000000" fill-opacity="0" font-family="Arial,Arial_MSFontService,sans-serif" font-size="43.3374" x="660.49" y="2530.81">l</text><path d="M693.832 2518.48 695.443 2518.48C695.411 2518.82 695.378 2519.65 695.346 2520.97 695.313 2522.29 695.297 2523.62 695.297 2524.95L695.297 2542.14C695.297 2543.16 695.386 2543.9 695.565 2544.34 695.744 2544.78 696.029 2545.12 696.42 2545.37 696.81 2545.63 697.478 2545.82 698.422 2545.96 699.366 2546.1 700.863 2546.18 702.914 2546.22L702.914 2548.49 682.675 2548.49 682.675 2546.22C684.66 2546.17 686.113 2546.08 687.033 2545.95 687.952 2545.82 688.628 2545.63 689.059 2545.37 689.49 2545.12 689.808 2544.78 690.011 2544.34 690.215 2543.9 690.316 2543.16 690.316 2542.14L690.316 2525.95C690.316 2525.37 690.198 2524.94 689.962 2524.68 689.726 2524.42 689.389 2524.29 688.949 2524.29 688.461 2524.29 687.696 2524.56 686.654 2525.09 685.612 2525.61 684.278 2526.39 682.65 2527.42L681.356 2524.95Z" fill-rule="evenodd"/><text fill="#000000" fill-opacity="0" font-family="Arial,Arial_MSFontService,sans-serif" font-size="30.0049" x="681.356" y="2544.74">1</text><path d="M739.258 2366.68 756.36 2366.68 756.36 2368.67C755.171 2368.96 754.313 2369.26 753.787 2369.56 753.26 2369.85 752.841 2370.23 752.53 2370.67 752.219 2371.12 751.99 2371.79 751.841 2372.68 751.693 2373.57 751.618 2374.95 751.618 2376.81L751.618 2411.87C751.618 2413.68 751.679 2415 751.801 2415.84 751.922 2416.68 752.125 2417.34 752.409 2417.83 752.692 2418.31 753.111 2418.72 753.665 2419.04 754.219 2419.37 755.117 2419.69 756.36 2420.01L756.36 2422 739.258 2422 739.258 2420.01C740.933 2419.58 742.054 2419.1 742.621 2418.57 743.189 2418.05 743.56 2417.3 743.736 2416.33 743.911 2415.35 743.999 2413.87 743.999 2411.87L743.999 2376.81C743.999 2374.95 743.932 2373.59 743.797 2372.74 743.661 2371.89 743.439 2371.23 743.128 2370.75 742.817 2370.28 742.405 2369.9 741.892 2369.62 741.378 2369.33 740.5 2369.02 739.258 2368.67Z" fill-rule="evenodd"/><text fill="#000000" fill-opacity="0" font-family="Arial,Arial_MSFontService,sans-serif" font-size="55.3198" x="739.258" y="2415.08">I</text><path d="M771.735 2395.51 773.91 2395.51 773.91 2431.25C773.91 2432.44 773.935 2433.35 773.984 2433.99 774.034 2434.62 774.178 2435.12 774.416 2435.46 774.654 2435.81 775.012 2436.07 775.488 2436.25 775.965 2436.43 776.63 2436.66 777.484 2436.94L777.484 2438.84 764.349 2438.84 764.349 2436.94C765.282 2436.66 766.002 2436.42 766.508 2436.22 767.014 2436.02 767.382 2435.75 767.61 2435.39 767.839 2435.03 767.968 2434.54 767.997 2433.91 768.027 2433.29 768.042 2432.4 768.042 2431.25L768.042 2405.96C768.042 2404.49 768.022 2403.37 767.982 2402.59 767.943 2401.82 767.883 2401.19 767.804 2400.72 767.724 2400.34 767.63 2400.01 767.521 2399.72 767.412 2399.43 767.223 2399.17 766.955 2398.95 766.687 2398.72 766.305 2398.52 765.808 2398.35 765.312 2398.18 764.647 2398.03 763.813 2397.89L763.813 2395.92Z" fill-rule="evenodd"/><text fill="#000000" fill-opacity="0" font-family="Arial,Arial_MSFontService,sans-serif" font-size="43.3374" x="763.813" y="2433.43">l</text><path d="M797.155 2421.1 798.766 2421.1C798.734 2421.44 798.701 2422.27 798.669 2423.59 798.636 2424.91 798.62 2426.23 798.62 2427.57L798.62 2444.76C798.62 2445.78 798.709 2446.51 798.888 2446.95 799.067 2447.39 799.352 2447.74 799.743 2447.99 800.133 2448.24 800.801 2448.44 801.745 2448.58 802.689 2448.72 804.186 2448.8 806.237 2448.83L806.237 2451.1 785.998 2451.1 785.998 2448.83C787.983 2448.78 789.436 2448.69 790.356 2448.56 791.275 2448.43 791.951 2448.24 792.382 2447.99 792.813 2447.74 793.131 2447.39 793.334 2446.95 793.537 2446.51 793.639 2445.78 793.639 2444.76L793.639 2428.57C793.639 2427.98 793.521 2427.56 793.285 2427.3 793.049 2427.04 792.711 2426.91 792.272 2426.91 791.784 2426.91 791.019 2427.17 789.977 2427.7 788.935 2428.23 787.601 2429.01 785.973 2430.03L784.679 2427.57Z" fill-rule="evenodd"/><text fill="#000000" fill-opacity="0" font-family="Arial,Arial_MSFontService,sans-serif" font-size="30.0049" x="784.679" y="2447.35">1</text><path d="M402.034 1596.86 418.529 1596.86 418.529 1598.85C417.259 1599.15 416.368 1599.44 415.854 1599.72 415.341 1600.01 414.963 1600.37 414.72 1600.82 414.476 1601.26 414.355 1601.84 414.355 1602.54 414.355 1603.27 414.443 1604.02 414.618 1604.81 414.794 1605.59 415.071 1606.51 415.449 1607.56L422.663 1627.87 430.768 1608.41C431.228 1607.33 431.586 1606.34 431.842 1605.44 432.099 1604.53 432.227 1603.69 432.227 1602.9 432.227 1601.74 431.91 1600.86 431.275 1600.27 430.64 1599.67 429.539 1599.2 427.972 1598.85L427.972 1596.86 443.129 1596.86 443.129 1598.85C442.075 1599.07 441.265 1599.4 440.698 1599.84 440.13 1600.29 439.563 1600.99 438.995 1601.95 438.428 1602.91 437.753 1604.25 436.969 1605.98L422.298 1638.93C420.812 1642.28 419.367 1645 417.962 1647.08 416.557 1649.16 415.01 1650.72 413.321 1651.78 411.633 1652.83 409.627 1653.36 407.303 1653.36 405.817 1653.36 404.142 1653.18 402.278 1652.83L402.278 1644.81 405.885 1644.81C406.209 1645.92 406.614 1646.69 407.1 1647.12 407.587 1647.55 408.289 1647.77 409.208 1647.77 410.018 1647.77 410.741 1647.61 411.376 1647.3 412.011 1646.99 412.673 1646.46 413.362 1645.7 414.051 1644.94 414.861 1643.78 415.793 1642.21 416.726 1640.65 417.773 1638.66 418.934 1636.26L407.587 1605.74C406.857 1603.77 406.27 1602.39 405.824 1601.61 405.378 1600.82 404.898 1600.23 404.385 1599.82 403.872 1599.42 403.088 1599.09 402.034 1598.85Z" fill-rule="evenodd"/><text fill="#000000" fill-opacity="0" font-family="Arial,Arial_MSFontService,sans-serif" font-size="56.4951" x="402.034" y="1646.3">y</text><path d="M460.709 1616.77C459.319 1616.77 458.158 1617.13 457.225 1617.86 456.291 1618.58 455.552 1619.64 455.006 1621.04 454.46 1622.44 454.072 1624.15 453.844 1626.17 453.616 1628.18 453.501 1630.47 453.501 1633.03 453.501 1635.99 453.645 1638.55 453.933 1640.7 454.221 1642.86 454.668 1644.63 455.274 1646.02 455.879 1647.41 456.639 1648.43 457.552 1649.09 458.466 1649.74 459.558 1650.07 460.829 1650.07 462.02 1650.07 463.062 1649.76 463.956 1649.15 464.85 1648.53 465.589 1647.57 466.175 1646.27 466.761 1644.97 467.203 1643.32 467.5 1641.33 467.798 1639.33 467.947 1636.97 467.947 1634.25 467.947 1631.2 467.783 1628.56 467.456 1626.36 467.128 1624.16 466.666 1622.34 466.071 1620.92 465.475 1619.5 464.725 1618.46 463.822 1617.78 462.918 1617.11 461.881 1616.77 460.709 1616.77ZM460.829 1613.88C463.191 1613.88 465.212 1614.32 466.89 1615.21 468.568 1616.09 469.938 1617.35 471 1618.99 472.063 1620.63 472.842 1622.63 473.338 1624.99 473.835 1627.35 474.083 1630.02 474.083 1633 474.083 1639.61 472.911 1644.61 470.568 1648 468.225 1651.38 464.83 1653.08 460.382 1653.08 455.974 1653.08 452.697 1651.48 450.553 1648.28 448.408 1645.09 447.336 1640.24 447.336 1633.75 447.336 1630.35 447.668 1627.41 448.334 1624.93 448.999 1622.45 449.932 1620.39 451.133 1618.75 452.335 1617.11 453.76 1615.89 455.408 1615.09 457.056 1614.28 458.863 1613.88 460.829 1613.88Z" fill-rule="evenodd"/><text fill="#000000" fill-opacity="0" font-family="Arial,Arial_MSFontService,sans-serif" font-size="39.1973" x="447.336" y="1648.18">0</text><path d="M1885.89 2801.85 1901.77 2801.85 1901.77 2803.83C1899.64 2804.16 1898.57 2804.99 1898.57 2806.35 1898.57 2806.97 1898.71 2807.59 1899 2808.21 1899.28 2808.83 1899.72 2809.52 1900.31 2810.28L1905.26 2817.21 1910.53 2810.52C1911.09 2809.79 1911.55 2809.08 1911.9 2808.39 1912.26 2807.7 1912.43 2806.99 1912.43 2806.26 1912.43 2805.64 1912.2 2805.13 1911.74 2804.72 1911.28 2804.32 1910.57 2804.02 1909.59 2803.83L1909.59 2801.85 1922.85 2801.85 1922.85 2803.83C1921.82 2804.13 1920.77 2804.71 1919.71 2805.58 1918.64 2806.44 1917.33 2807.83 1915.79 2809.75L1907.41 2820.04 1916.65 2832.49C1917.97 2834.27 1919.16 2835.63 1920.21 2836.58 1921.27 2837.52 1922.32 2838.2 1923.37 2838.61L1923.37 2840.59 1907.08 2840.59 1907.08 2838.61C1909.32 2838.33 1910.45 2837.5 1910.45 2836.09 1910.45 2835.53 1910.35 2834.98 1910.16 2834.47 1909.97 2833.96 1909.62 2833.36 1909.11 2832.69L1903.23 2824.5 1896.99 2832.61C1896.53 2833.2 1896.17 2833.75 1895.92 2834.25 1895.66 2834.75 1895.53 2835.31 1895.53 2835.93 1895.53 2836.66 1895.78 2837.26 1896.28 2837.73 1896.78 2838.21 1897.57 2838.5 1898.65 2838.61L1898.65 2840.59 1885.12 2840.59 1885.12 2838.61C1886.01 2838.28 1886.81 2837.88 1887.53 2837.39 1888.24 2836.9 1888.97 2836.27 1889.72 2835.5 1890.46 2834.73 1891.44 2833.61 1892.65 2832.12L1901.08 2821.66 1892.45 2809.83C1891.26 2808.21 1890.32 2807.03 1889.61 2806.3 1888.91 2805.58 1888.26 2805.02 1887.67 2804.64 1887.07 2804.27 1886.48 2803.99 1885.89 2803.83Z" fill-rule="evenodd"/><text fill="#000000" fill-opacity="0" font-family="Arial,Arial_MSFontService,sans-serif" font-size="38.7441" x="1885.12" y="2835.75">x</text><path d="M1943.55 2821.75C1942.16 2821.75 1941 2822.11 1940.07 2822.84 1939.14 2823.56 1938.4 2824.63 1937.85 2826.03 1937.3 2827.43 1936.92 2829.13 1936.69 2831.15 1936.46 2833.16 1936.35 2835.45 1936.35 2838.01 1936.35 2840.97 1936.49 2843.53 1936.78 2845.68 1937.07 2847.84 1937.51 2849.61 1938.12 2851 1938.72 2852.39 1939.48 2853.41 1940.4 2854.07 1941.31 2854.72 1942.4 2855.05 1943.67 2855.05 1944.86 2855.05 1945.91 2854.74 1946.8 2854.13 1947.69 2853.51 1948.43 2852.55 1949.02 2851.25 1949.61 2849.95 1950.05 2848.31 1950.35 2846.31 1950.64 2844.31 1950.79 2841.96 1950.79 2839.24 1950.79 2836.18 1950.63 2833.55 1950.3 2831.34 1949.97 2829.14 1949.51 2827.33 1948.92 2825.91 1948.32 2824.49 1947.57 2823.44 1946.67 2822.76 1945.76 2822.09 1944.73 2821.75 1943.55 2821.75ZM1943.67 2818.86C1946.04 2818.86 1948.06 2819.3 1949.73 2820.19 1951.41 2821.07 1952.78 2822.33 1953.84 2823.97 1954.91 2825.61 1955.69 2827.61 1956.18 2829.97 1956.68 2832.34 1956.93 2835.01 1956.93 2837.99 1956.93 2844.6 1955.76 2849.6 1953.41 2852.98 1951.07 2856.37 1947.67 2858.06 1943.23 2858.06 1938.82 2858.06 1935.54 2856.46 1933.4 2853.26 1931.25 2850.07 1930.18 2845.22 1930.18 2838.73 1930.18 2835.33 1930.51 2832.4 1931.18 2829.91 1931.84 2827.43 1932.78 2825.37 1933.98 2823.73 1935.18 2822.09 1936.6 2820.87 1938.25 2820.07 1939.9 2819.27 1941.71 2818.86 1943.67 2818.86Z" fill-rule="evenodd"/><text fill="#000000" fill-opacity="0" font-family="Arial,Arial_MSFontService,sans-serif" font-size="39.1973" x="1930.18" y="2853.16">0</text><path d="M1122.86 1913.12C1125.56 1913.12 1127.76 1913.74 1129.46 1914.99 1131.17 1916.23 1132.34 1918.13 1132.99 1920.7 1135.02 1918.65 1136.66 1917.14 1137.91 1916.16 1139.17 1915.19 1140.45 1914.44 1141.76 1913.91 1143.07 1913.39 1144.49 1913.12 1146 1913.12 1147.81 1913.12 1149.37 1913.39 1150.68 1913.91 1151.99 1914.44 1153.1 1915.25 1154 1916.34 1154.91 1917.44 1155.57 1918.81 1155.99 1920.46 1156.41 1922.11 1156.62 1924.32 1156.62 1927.1L1156.62 1942.38C1156.62 1944.44 1156.69 1945.86 1156.82 1946.64 1156.96 1947.42 1157.15 1948.03 1157.41 1948.46 1157.66 1948.89 1158.05 1949.27 1158.56 1949.58 1159.08 1949.89 1159.94 1950.21 1161.16 1950.53L1161.16 1952.52 1145.23 1952.52 1145.23 1950.53C1146.28 1950.21 1147.04 1949.92 1147.5 1949.68 1147.96 1949.44 1148.34 1949.1 1148.65 1948.67 1148.96 1948.23 1149.21 1947.56 1149.38 1946.66 1149.56 1945.75 1149.65 1944.38 1149.65 1942.55L1149.65 1931.93C1149.65 1929.63 1149.59 1927.73 1149.46 1926.23 1149.34 1924.73 1149.15 1923.54 1148.9 1922.65 1148.64 1921.76 1148.33 1921.05 1147.97 1920.54 1147.6 1920.03 1147.19 1919.58 1146.73 1919.2 1146.27 1918.82 1145.73 1918.53 1145.11 1918.31 1144.49 1918.09 1143.66 1917.99 1142.64 1917.99 1141.56 1917.99 1140.55 1918.2 1139.62 1918.63 1138.68 1919.07 1137.67 1919.8 1136.58 1920.82 1135.48 1921.85 1134.69 1922.88 1134.21 1923.92 1133.72 1924.96 1133.48 1926.19 1133.48 1927.59L1133.48 1942.38C1133.48 1944.44 1133.54 1945.86 1133.68 1946.64 1133.81 1947.42 1134.01 1948.03 1134.27 1948.46 1134.52 1948.89 1134.91 1949.27 1135.42 1949.58 1135.94 1949.89 1136.8 1950.21 1138.02 1950.53L1138.02 1952.52 1122.09 1952.52 1122.09 1950.53C1123.14 1950.21 1123.9 1949.92 1124.36 1949.68 1124.82 1949.44 1125.2 1949.1 1125.51 1948.67 1125.82 1948.23 1126.07 1947.56 1126.24 1946.66 1126.42 1945.75 1126.51 1944.38 1126.51 1942.55L1126.51 1931.93C1126.51 1929.52 1126.44 1927.56 1126.3 1926.05 1126.17 1924.54 1125.96 1923.32 1125.68 1922.4 1125.39 1921.48 1125.03 1920.74 1124.58 1920.17 1124.14 1919.61 1123.68 1919.17 1123.22 1918.88 1122.76 1918.58 1122.22 1918.36 1121.6 1918.21 1120.98 1918.06 1120.28 1917.99 1119.49 1917.99 1118.39 1917.99 1117.35 1918.24 1116.37 1918.74 1115.4 1919.24 1114.41 1919.96 1113.4 1920.9 1112.38 1921.85 1111.62 1922.84 1111.11 1923.86 1110.59 1924.89 1110.34 1926 1110.34 1927.19L1110.34 1942.38C1110.34 1943.92 1110.38 1945.1 1110.46 1945.91 1110.54 1946.72 1110.67 1947.35 1110.84 1947.81 1111.02 1948.27 1111.24 1948.65 1111.51 1948.93 1111.78 1949.21 1112.17 1949.48 1112.67 1949.74 1113.17 1950 1113.92 1950.26 1114.92 1950.53L1114.92 1952.52 1099.03 1952.52 1099.03 1950.53C1100.06 1950.21 1100.79 1949.92 1101.24 1949.68 1101.68 1949.44 1102.07 1949.1 1102.39 1948.67 1102.72 1948.23 1102.96 1947.57 1103.12 1946.68 1103.28 1945.79 1103.36 1944.4 1103.36 1942.51L1103.36 1924.84C1103.36 1923.11 1103.34 1921.71 1103.28 1920.66 1103.23 1919.61 1103.04 1918.76 1102.72 1918.13 1102.39 1917.49 1101.9 1917.02 1101.24 1916.71 1100.58 1916.4 1099.64 1916.14 1098.42 1915.92L1098.42 1913.77 1107.9 1913.41 1110.38 1913.41 1109.93 1920.01 1110.5 1920.17C1112.12 1918.55 1113.45 1917.33 1114.49 1916.51 1115.53 1915.68 1116.54 1915.02 1117.51 1914.52 1118.48 1914.02 1119.39 1913.66 1120.24 1913.45 1121.1 1913.23 1121.97 1913.12 1122.86 1913.12Z" fill-rule="evenodd"/><text fill="#000000" fill-opacity="0" font-family="Arial,Arial_MSFontService,sans-serif" font-size="39.3926" x="1098.42" y="1947.59">m</text><path d="M1174.26 1926.02 1176.44 1926.02 1176.44 1961.76C1176.44 1962.96 1176.46 1963.87 1176.51 1964.5 1176.56 1965.14 1176.7 1965.63 1176.94 1965.98 1177.18 1966.33 1177.54 1966.59 1178.01 1966.77 1178.49 1966.95 1179.16 1967.17 1180.01 1967.45L1180.01 1969.36 1166.87 1969.36 1166.87 1967.45C1167.81 1967.17 1168.53 1966.94 1169.03 1966.74 1169.54 1966.54 1169.91 1966.26 1170.14 1965.9 1170.36 1965.55 1170.49 1965.06 1170.52 1964.43 1170.55 1963.8 1170.57 1962.92 1170.57 1961.76L1170.57 1936.48C1170.57 1935.01 1170.55 1933.89 1170.51 1933.11 1170.47 1932.34 1170.41 1931.71 1170.33 1931.23 1170.25 1930.86 1170.16 1930.52 1170.05 1930.24 1169.94 1929.95 1169.75 1929.69 1169.48 1929.46 1169.21 1929.23 1168.83 1929.04 1168.33 1928.87 1167.84 1928.7 1167.17 1928.54 1166.34 1928.4L1166.34 1926.44Z" fill-rule="evenodd"/><text fill="#000000" fill-opacity="0" font-family="Arial,Arial_MSFontService,sans-serif" font-size="43.3374" x="1166.34" y="1963.94">l</text><path d="M1197.58 1951.4C1199.45 1951.4 1201 1951.6 1202.23 1952.01 1203.46 1952.41 1204.44 1952.94 1205.17 1953.59 1205.91 1954.24 1206.42 1955.01 1206.71 1955.89 1207 1956.77 1207.15 1957.67 1207.15 1958.6 1207.15 1959.77 1206.92 1960.86 1206.44 1961.86 1205.97 1962.86 1205.2 1963.95 1204.12 1965.13 1203.05 1966.31 1201.13 1968.15 1198.36 1970.66 1195.42 1973.33 1193.28 1975.64 1191.94 1977.59L1200.75 1977.59C1201.58 1977.59 1202.22 1977.55 1202.66 1977.47 1203.1 1977.39 1203.45 1977.26 1203.71 1977.09 1203.97 1976.92 1204.19 1976.7 1204.37 1976.44 1204.55 1976.18 1204.82 1975.61 1205.17 1974.73L1207.64 1974.73 1207.13 1981.62 1186.23 1981.62 1186.23 1980.28C1187.04 1978.54 1188.14 1976.82 1189.52 1975.14 1190.91 1973.45 1192.52 1971.72 1194.36 1969.93 1196.57 1967.81 1198.14 1966.21 1199.07 1965.14 1200 1964.07 1200.69 1963.04 1201.13 1962.08 1201.58 1961.11 1201.8 1960.14 1201.8 1959.16 1201.8 1957.55 1201.35 1956.28 1200.44 1955.35 1199.53 1954.42 1198.22 1953.96 1196.51 1953.96 1195.03 1953.96 1193.77 1954.35 1192.73 1955.13 1191.7 1955.91 1190.92 1957.07 1190.38 1958.6L1186.99 1958.6 1186.99 1953.79C1189.1 1952.92 1191.05 1952.31 1192.83 1951.94 1194.61 1951.58 1196.2 1951.4 1197.58 1951.4Z" fill-rule="evenodd"/><text fill="#000000" fill-opacity="0" font-family="Arial,Arial_MSFontService,sans-serif" font-size="30.2246" x="1186.23" y="1977.84">2</text><path d="M1245.11 1799.81 1262.21 1799.81 1262.21 1801.8C1261.02 1802.1 1260.16 1802.39 1259.64 1802.69 1259.11 1802.99 1258.69 1803.36 1258.38 1803.81 1258.07 1804.25 1257.84 1804.92 1257.69 1805.81 1257.54 1806.7 1257.47 1808.08 1257.47 1809.94L1257.47 1845C1257.47 1846.81 1257.53 1848.14 1257.65 1848.97 1257.77 1849.81 1257.97 1850.47 1258.26 1850.96 1258.54 1851.44 1258.96 1851.85 1259.51 1852.17 1260.07 1852.5 1260.97 1852.82 1262.21 1853.15L1262.21 1855.13 1245.11 1855.13 1245.11 1853.15C1246.78 1852.71 1247.9 1852.24 1248.47 1851.71 1249.04 1851.18 1249.41 1850.43 1249.58 1849.46 1249.76 1848.49 1249.85 1847 1249.85 1845L1249.85 1809.94C1249.85 1808.08 1249.78 1806.72 1249.65 1805.87 1249.51 1805.02 1249.29 1804.36 1248.98 1803.89 1248.67 1803.41 1248.25 1803.04 1247.74 1802.75 1247.23 1802.47 1246.35 1802.15 1245.11 1801.8Z" fill-rule="evenodd"/><text fill="#000000" fill-opacity="0" font-family="Arial,Arial_MSFontService,sans-serif" font-size="55.3198" x="1245.11" y="1848.22">I</text><path d="M1277.58 1828.64 1279.76 1828.64 1279.76 1864.38C1279.76 1865.57 1279.78 1866.49 1279.83 1867.12 1279.88 1867.76 1280.03 1868.25 1280.26 1868.6 1280.5 1868.94 1280.86 1869.21 1281.34 1869.39 1281.81 1869.56 1282.48 1869.79 1283.33 1870.07L1283.33 1871.98 1270.2 1871.98 1270.2 1870.07C1271.13 1869.79 1271.85 1869.55 1272.36 1869.36 1272.86 1869.16 1273.23 1868.88 1273.46 1868.52 1273.69 1868.16 1273.82 1867.67 1273.85 1867.05 1273.88 1866.42 1273.89 1865.53 1273.89 1864.38L1273.89 1839.09C1273.89 1837.62 1273.87 1836.5 1273.83 1835.73 1273.79 1834.95 1273.73 1834.33 1273.65 1833.85 1273.57 1833.47 1273.48 1833.14 1273.37 1832.85 1273.26 1832.57 1273.07 1832.31 1272.8 1832.08 1272.54 1831.85 1272.15 1831.65 1271.66 1831.48 1271.16 1831.31 1270.5 1831.16 1269.66 1831.02L1269.66 1829.06Z" fill-rule="evenodd"/><text fill="#000000" fill-opacity="0" font-family="Arial,Arial_MSFontService,sans-serif" font-size="43.3374" x="1269.66" y="1866.56">l</text><path d="M1300.9 1854.01C1302.78 1854.01 1304.33 1854.22 1305.55 1854.62 1306.78 1855.03 1307.76 1855.56 1308.5 1856.21 1309.23 1856.86 1309.74 1857.63 1310.03 1858.5 1310.33 1859.38 1310.47 1860.29 1310.47 1861.21 1310.47 1862.39 1310.24 1863.47 1309.77 1864.47 1309.29 1865.47 1308.52 1866.57 1307.45 1867.75 1306.37 1868.93 1304.45 1870.77 1301.69 1873.28 1298.74 1875.94 1296.6 1878.26 1295.26 1880.21L1304.08 1880.21C1304.91 1880.21 1305.54 1880.17 1305.98 1880.09 1306.42 1880.01 1306.77 1879.88 1307.03 1879.71 1307.29 1879.54 1307.51 1879.32 1307.69 1879.06 1307.87 1878.8 1308.14 1878.23 1308.5 1877.35L1310.96 1877.35 1310.45 1884.24 1289.55 1884.24 1289.55 1882.89C1290.37 1881.15 1291.46 1879.44 1292.85 1877.76 1294.23 1876.07 1295.84 1874.33 1297.68 1872.54 1299.89 1870.43 1301.47 1868.83 1302.39 1867.76 1303.32 1866.68 1304.01 1865.66 1304.46 1864.69 1304.9 1863.73 1305.13 1862.75 1305.13 1861.78 1305.13 1860.16 1304.67 1858.9 1303.76 1857.97 1302.85 1857.04 1301.54 1856.58 1299.83 1856.58 1298.35 1856.58 1297.09 1856.97 1296.06 1857.75 1295.02 1858.53 1294.24 1859.68 1293.7 1861.21L1290.31 1861.21 1290.31 1856.41C1292.42 1855.54 1294.37 1854.93 1296.16 1854.56 1297.94 1854.2 1299.52 1854.01 1300.9 1854.01Z" fill-rule="evenodd"/><text fill="#000000" fill-opacity="0" font-family="Arial,Arial_MSFontService,sans-serif" font-size="30.2246" x="1289.55" y="1880.46">2</text></g></svg>