<svg width="2387" height="2569" xmlns="http://www.w3.org/2000/svg" xmlns:xlink="http://www.w3.org/1999/xlink" xml:space="preserve" overflow="hidden"><g transform="translate(-101 -966)"><path d="M0 0 1681.18 1626.98" stroke="#7F7F7F" stroke-width="10.3125" stroke-miterlimit="8" stroke-dasharray="41.25 30.9375" fill="none" fill-rule="evenodd" transform="matrix(1 0 0 -1 552 3264.98)"/><path d="M0 0 1448.48 0.000360892" stroke="#7F7F7F" stroke-width="10.3125" stroke-miterlimit="8" stroke-dasharray="41.25 30.9375" fill="none" fill-rule="evenodd" transform="matrix(1 0 0 -1 779 1644)"/><path d="M882.781 1248.84 2186.67 1248.84 2186.67 1259.16 882.781 1259.16ZM887.937 1269.47 857 1254 887.937 1238.53ZM2181.51 1238.53 2212.45 1254 2181.51 1269.47Z"/><text font-family="Aptos,Aptos_MSFontService,sans-serif" font-weight="400" font-size="128" transform="matrix(1 0 0 1 1321.31 1218)">20 cm</text><path d="M10.3125-7.67489e-06 10.3128 433.357-10.3122 433.357-10.3125 7.67489e-06ZM30.9378 423.045 0.000360892 484.92-30.9372 423.045Z" fill="#FF0000" transform="matrix(1 0 0 -1 761.5 3057.42)"/><path d="M0.195551-10.3106 433.562-2.09143 433.171 18.5299-0.195551 10.3106ZM423.643-22.9083 484.92 9.19698 422.469 38.9556Z" fill="#4EA72E" transform="matrix(-1 0 0 1 756.42 3047.5)"/><path d="M713.184 2457.97 739.809 2457.97 739.809 2461.04C737.809 2461.33 736.371 2461.87 735.496 2462.66 734.621 2463.45 734.184 2464.54 734.184 2465.91 734.184 2467.08 734.579 2468.54 735.371 2470.29 736.163 2472.04 737.288 2474.12 738.746 2476.54L747.809 2491.72 756.746 2477.29C758.079 2475.12 759.079 2473.39 759.746 2472.1 760.413 2470.81 760.882 2469.72 761.152 2468.85 761.423 2467.97 761.559 2467.08 761.559 2466.16 761.559 2464.87 761.184 2463.77 760.434 2462.88 759.684 2461.98 758.434 2461.37 756.684 2461.04L756.684 2457.97 779.871 2457.97 779.871 2461.04C778.329 2461.54 776.944 2462.26 775.715 2463.22 774.486 2464.18 773.173 2465.58 771.777 2467.41 770.382 2469.24 768.392 2472.14 765.809 2476.1L751.684 2497.97 767.559 2524.1C769.809 2527.81 771.423 2530.4 772.402 2531.88 773.382 2533.36 774.298 2534.61 775.152 2535.63 776.006 2536.65 776.923 2537.54 777.902 2538.29 778.881 2539.04 780.1 2539.68 781.559 2540.22L781.559 2543.29 754.121 2543.29 754.121 2540.22C756.038 2539.89 757.454 2539.36 758.371 2538.63 759.288 2537.9 759.746 2536.81 759.746 2535.35 759.746 2534.18 759.444 2532.89 758.84 2531.47 758.236 2530.06 757.309 2528.31 756.059 2526.22L744.746 2507.35 732.809 2526.91C730.809 2530.2 729.809 2532.91 729.809 2535.04 729.809 2536.41 730.184 2537.54 730.934 2538.41 731.684 2539.29 732.934 2539.89 734.684 2540.22L734.684 2543.29 711.059 2543.29 711.059 2540.22C712.6 2539.76 713.871 2539.21 714.871 2538.57 715.871 2537.92 716.829 2537.1 717.746 2536.1 718.663 2535.1 719.684 2533.83 720.809 2532.29 721.934 2530.74 723.725 2528.06 726.184 2524.22L740.934 2501.22 723.309 2472.22C721.642 2469.56 720.382 2467.62 719.527 2466.41 718.673 2465.2 717.882 2464.22 717.152 2463.47 716.423 2462.72 715.767 2462.19 715.184 2461.88 714.6 2461.57 713.934 2461.29 713.184 2461.04Z" fill-rule="evenodd"/><text fill="#000000" fill-opacity="0" font-family="Arial,Arial_MSFontService,sans-serif" font-size="85.3125" x="711.059" y="2532.62">X</text><path d="M814.533 2510.99 817.303 2510.99C817.243 2512.66 817.197 2514.15 817.167 2515.46 817.137 2516.78 817.114 2518.06 817.099 2519.3 817.084 2520.54 817.076 2521.77 817.076 2522.98L817.076 2557.49C817.076 2558.43 817.107 2559.24 817.167 2559.92 817.228 2560.6 817.326 2561.18 817.462 2561.65 817.599 2562.11 817.78 2562.52 818.007 2562.85 818.234 2563.18 818.499 2563.47 818.802 2563.71 819.165 2564.08 819.65 2564.36 820.255 2564.55 820.861 2564.75 821.633 2564.92 822.571 2565.05 823.509 2565.19 824.637 2565.29 825.954 2565.37 827.271 2565.45 828.853 2565.5 830.699 2565.53L830.699 2569.48 794.689 2569.48 794.689 2565.53C796.475 2565.47 797.989 2565.4 799.23 2565.32 800.471 2565.25 801.531 2565.14 802.409 2565.01 803.287 2564.87 803.991 2564.72 804.52 2564.55 805.05 2564.39 805.512 2564.18 805.905 2563.94 806.329 2563.67 806.693 2563.37 806.995 2563.05 807.298 2562.74 807.54 2562.33 807.722 2561.85 807.904 2561.37 808.047 2560.78 808.153 2560.08 808.259 2559.38 808.312 2558.52 808.312 2557.49L808.312 2524.93C808.312 2523.75 808.085 2522.92 807.631 2522.43 807.177 2521.95 806.526 2521.71 805.678 2521.71 804.74 2521.71 803.347 2522.19 801.501 2523.16 799.654 2524.13 797.262 2525.57 794.326 2527.47 793.932 2526.78 793.569 2526.08 793.236 2525.39 792.903 2524.69 792.555 2523.98 792.192 2523.25 795.945 2521.19 799.662 2519.14 803.34 2517.1 807.018 2515.05 810.749 2513.02 814.533 2510.99Z" fill-rule="evenodd"/><text fill="#000000" fill-opacity="0" font-family="Arial,Arial_MSFontService,sans-serif" font-size="58.4883" x="792.192" y="2562.17">1</text><path d="M437.222 3278.65 493.597 3278.65 493.597 3281.65 450.847 3358.21 473.409 3358.21C476.201 3358.21 478.274 3357.95 479.628 3357.43 480.982 3356.91 482.097 3356.09 482.972 3354.99 483.847 3353.89 484.638 3352.33 485.347 3350.33 486.055 3348.33 486.909 3345.23 487.909 3341.02L494.034 3341.02 494.034 3363.96 436.284 3363.96 436.284 3360.9 479.097 3284.4 456.409 3284.4C454.784 3284.4 453.503 3284.53 452.566 3284.8 451.628 3285.07 450.784 3285.49 450.034 3286.05 449.284 3286.61 448.545 3287.44 447.816 3288.52 447.086 3289.6 446.357 3291.09 445.628 3292.99 444.899 3294.89 444.138 3297.25 443.347 3300.08L437.222 3300.08Z" fill-rule="evenodd"/><text fill="#000000" fill-opacity="0" font-family="Arial,Arial_MSFontService,sans-serif" font-size="85.3125" x="436.284" y="3353.29">Z</text><path d="M526.855 3331.66 529.625 3331.66C529.564 3333.33 529.519 3334.82 529.489 3336.14 529.458 3337.45 529.436 3338.73 529.421 3339.97 529.405 3341.21 529.398 3342.44 529.398 3343.65L529.398 3378.16C529.398 3379.1 529.428 3379.91 529.489 3380.59 529.549 3381.27 529.648 3381.85 529.784 3382.32 529.92 3382.79 530.102 3383.19 530.329 3383.52 530.556 3383.85 530.821 3384.14 531.123 3384.38 531.487 3384.75 531.971 3385.03 532.577 3385.22 533.182 3385.42 533.954 3385.59 534.892 3385.72 535.831 3385.86 536.959 3385.97 538.276 3386.04 539.592 3386.12 541.174 3386.17 543.021 3386.2L543.021 3390.15 507.011 3390.15 507.011 3386.2C508.797 3386.14 510.31 3386.07 511.552 3386 512.793 3385.92 513.852 3385.82 514.73 3385.68 515.608 3385.54 516.312 3385.39 516.842 3385.22 517.372 3385.06 517.833 3384.85 518.227 3384.61 518.651 3384.34 519.014 3384.04 519.317 3383.73 519.62 3383.41 519.862 3383.01 520.043 3382.52 520.225 3382.04 520.369 3381.45 520.475 3380.75 520.581 3380.06 520.634 3379.19 520.634 3378.16L520.634 3345.6C520.634 3344.42 520.407 3343.59 519.953 3343.11 519.498 3342.62 518.848 3342.38 518 3342.38 517.061 3342.38 515.669 3342.86 513.822 3343.83 511.975 3344.8 509.584 3346.24 506.647 3348.15 506.254 3347.45 505.891 3346.75 505.557 3346.06 505.224 3345.36 504.876 3344.65 504.513 3343.92 508.267 3341.87 511.983 3339.81 515.661 3337.77 519.339 3335.73 523.071 3333.69 526.855 3331.66Z" fill-rule="evenodd"/><text fill="#000000" fill-opacity="0" font-family="Arial,Arial_MSFontService,sans-serif" font-size="58.4883" x="504.513" y="3382.84">1</text><path d="M138.372 2989.94 164.997 2989.94 164.997 2993C161.08 2993.46 159.122 2995.15 159.122 2998.07 159.122 2999.28 159.403 3000.63 159.966 3002.13 160.528 3003.63 161.538 3005.75 162.997 3008.5L175.497 3032.32 187.809 3010.57C189.476 3007.61 190.653 3005.18 191.341 3003.29 192.028 3001.39 192.372 2999.65 192.372 2998.07 192.372 2996.57 191.924 2995.39 191.028 2994.54 190.132 2993.68 188.809 2993.17 187.059 2993L187.059 2989.94 210.747 2989.94 210.747 2993C209.038 2993.63 207.538 2994.49 206.247 2995.6 204.955 2996.7 203.643 2998.19 202.309 3000.07 200.976 3001.94 199.018 3005.11 196.434 3009.57L179.059 3039.19 179.059 3059.44C179.059 3061.82 179.184 3063.73 179.434 3065.19 179.684 3066.65 180.101 3067.82 180.684 3068.69 181.268 3069.57 182.038 3070.25 182.997 3070.75 183.955 3071.25 185.455 3071.73 187.497 3072.19L187.497 3075.25 158.934 3075.25 158.934 3072.19C160.934 3071.78 162.413 3071.33 163.372 3070.85 164.33 3070.37 165.101 3069.68 165.684 3068.79 166.268 3067.89 166.695 3066.71 166.966 3065.25 167.236 3063.8 167.372 3061.86 167.372 3059.44L167.372 3039.44 150.122 3007.38C148.038 3003.5 146.455 3000.73 145.372 2999.07 144.288 2997.4 143.205 2996.09 142.122 2995.13 141.038 2994.17 139.788 2993.46 138.372 2993Z" fill-rule="evenodd"/><text fill="#000000" fill-opacity="0" font-family="Arial,Arial_MSFontService,sans-serif" font-size="85.3125" x="138.372" y="3064.59">Y</text><path d="M228.88 3042.96 231.65 3042.96C231.589 3044.63 231.544 3046.12 231.514 3047.43 231.483 3048.75 231.461 3050.03 231.446 3051.27 231.43 3052.51 231.423 3053.74 231.423 3054.95L231.423 3089.46C231.423 3090.4 231.453 3091.21 231.514 3091.89 231.574 3092.57 231.673 3093.15 231.809 3093.62 231.945 3094.08 232.127 3094.49 232.354 3094.82 232.581 3095.15 232.846 3095.44 233.148 3095.68 233.512 3096.04 233.996 3096.32 234.602 3096.52 235.207 3096.72 235.979 3096.89 236.918 3097.02 237.856 3097.16 238.984 3097.26 240.301 3097.34 241.617 3097.41 243.199 3097.47 245.046 3097.5L245.046 3101.45 209.036 3101.45 209.036 3097.5C210.822 3097.44 212.335 3097.37 213.577 3097.29 214.818 3097.22 215.877 3097.11 216.755 3096.98 217.633 3096.84 218.337 3096.69 218.867 3096.52 219.397 3096.36 219.858 3096.15 220.252 3095.91 220.676 3095.64 221.039 3095.34 221.342 3095.02 221.645 3094.71 221.887 3094.3 222.068 3093.82 222.25 3093.34 222.394 3092.75 222.5 3092.05 222.606 3091.35 222.659 3090.49 222.659 3089.46L222.659 3056.9C222.659 3055.72 222.432 3054.89 221.978 3054.4 221.523 3053.92 220.873 3053.68 220.025 3053.68 219.086 3053.68 217.694 3054.16 215.847 3055.13 214.001 3056.1 211.609 3057.54 208.672 3059.44 208.279 3058.75 207.916 3058.05 207.583 3057.36 207.25 3056.66 206.901 3055.95 206.538 3055.22 210.292 3053.16 214.008 3051.11 217.686 3049.07 221.365 3047.02 225.096 3044.99 228.88 3042.96Z" fill-rule="evenodd"/><text fill="#000000" fill-opacity="0" font-family="Arial,Arial_MSFontService,sans-serif" font-size="58.4883" x="206.538" y="3094.14">1</text><path d="M7.29204-7.29204 213.292 198.707 198.707 213.292-7.29204 7.29204ZM220.584 176.831 242.46 242.46 176.831 220.584Z" fill="#0070C0" transform="matrix(-1 0 0 1 769.96 3051.5)"/><path d="M1552.81 2313.5 1552.81 2747.33 1532.19 2747.33 1532.19 2313.5ZM1573.44 2737.02 1542.5 2798.89 1511.56 2737.02Z" fill="#4EA72E"/><path d="M0.195551-10.3106 433.562-2.09143 433.171 18.5299-0.195551 10.3106ZM423.643-22.9083 484.92 9.19698 422.469 38.9556Z" fill="#FF0000" transform="matrix(-1 0 0 1 1536.42 2304.5)"/><path d="M1172.63 2415.41 1229 2415.41 1229 2418.41 1186.25 2494.97 1208.82 2494.97C1211.61 2494.97 1213.68 2494.71 1215.03 2494.19 1216.39 2493.67 1217.5 2492.86 1218.38 2491.75 1219.25 2490.65 1220.05 2489.09 1220.75 2487.09 1221.46 2485.09 1222.32 2481.99 1223.32 2477.78L1229.44 2477.78 1229.44 2500.72 1171.69 2500.72 1171.69 2497.66 1214.5 2421.16 1191.82 2421.16C1190.19 2421.16 1188.91 2421.29 1187.97 2421.56 1187.03 2421.83 1186.19 2422.25 1185.44 2422.81 1184.69 2423.38 1183.95 2424.2 1183.22 2425.28 1182.49 2426.37 1181.76 2427.86 1181.03 2429.75 1180.31 2431.65 1179.55 2434.01 1178.75 2436.84L1172.63 2436.84Z" fill-rule="evenodd"/><text fill="#000000" fill-opacity="0" font-family="Arial,Arial_MSFontService,sans-serif" font-size="85.3125" x="1171.69" y="2490.06">Z</text><path d="M1261.68 2468.11C1264.82 2468.11 1267.51 2468.46 1269.74 2469.17 1271.96 2469.89 1273.77 2470.85 1275.16 2472.06 1276.56 2473.27 1277.56 2474.72 1278.18 2476.42 1278.8 2478.11 1279.11 2479.94 1279.11 2481.91 1279.11 2483.09 1279.03 2484.19 1278.86 2485.2 1278.7 2486.22 1278.41 2487.22 1278 2488.2 1277.59 2489.19 1277.05 2490.18 1276.39 2491.18 1275.72 2492.17 1274.89 2493.23 1273.89 2494.35 1273.13 2495.32 1272.15 2496.44 1270.94 2497.71 1269.73 2498.99 1268.4 2500.35 1266.97 2501.8 1265.53 2503.25 1264.02 2504.77 1262.45 2506.34 1260.87 2507.92 1259.34 2509.48 1257.86 2511.02 1256.38 2512.56 1255.02 2514.06 1253.77 2515.52 1252.53 2516.97 1251.52 2518.3 1250.73 2519.51L1267.53 2519.51C1268.96 2519.51 1270.09 2519.46 1270.94 2519.35 1271.79 2519.25 1272.49 2519.01 1273.05 2518.65 1273.61 2518.29 1274.09 2517.73 1274.48 2516.99 1274.88 2516.25 1275.33 2515.23 1275.84 2513.93L1280.07 2513.93C1279.92 2516.08 1279.77 2518.24 1279.64 2520.42 1279.5 2522.6 1279.36 2524.76 1279.2 2526.91L1240.74 2526.91 1240.74 2524.55C1241.47 2522.92 1242.32 2521.31 1243.28 2519.72 1244.25 2518.13 1245.34 2516.51 1246.55 2514.88 1247.77 2513.25 1249.14 2511.56 1250.69 2509.82 1252.23 2508.08 1253.94 2506.27 1255.82 2504.39 1258.66 2501.54 1260.98 2499.11 1262.77 2497.1 1264.55 2495.09 1265.96 2493.29 1266.99 2491.72 1268.02 2490.15 1268.72 2488.69 1269.1 2487.36 1269.48 2486.03 1269.67 2484.61 1269.67 2483.09 1269.67 2481.55 1269.45 2480.13 1269.01 2478.82 1268.57 2477.52 1267.94 2476.42 1267.13 2475.51 1266.31 2474.6 1265.27 2473.89 1264.01 2473.38 1262.76 2472.86 1261.31 2472.6 1259.68 2472.6 1256.86 2472.6 1254.5 2473.37 1252.59 2474.9 1250.69 2476.43 1249.2 2478.64 1248.14 2481.55L1242.19 2481.55 1242.19 2472.69C1246.07 2471.09 1249.63 2469.92 1252.89 2469.2 1256.14 2468.47 1259.07 2468.11 1261.68 2468.11Z" fill-rule="evenodd"/><text fill="#000000" fill-opacity="0" font-family="Arial,Arial_MSFontService,sans-serif" font-size="58.8062" x="1240.74" y="2519.56">2</text><path d="M1495.06 2806.33 1521.69 2806.33 1521.69 2809.39C1517.77 2809.85 1515.81 2811.54 1515.81 2814.45 1515.81 2815.66 1516.09 2817.02 1516.66 2818.52 1517.22 2820.02 1518.23 2822.14 1519.69 2824.89L1532.19 2848.7 1544.5 2826.95C1546.17 2824 1547.34 2821.57 1548.03 2819.67 1548.72 2817.78 1549.06 2816.04 1549.06 2814.45 1549.06 2812.95 1548.61 2811.78 1547.72 2810.92 1546.82 2810.07 1545.5 2809.56 1543.75 2809.39L1543.75 2806.33 1567.44 2806.33 1567.44 2809.39C1565.73 2810.02 1564.23 2810.88 1562.94 2811.98 1561.65 2813.09 1560.33 2814.58 1559 2816.45 1557.67 2818.33 1555.71 2821.5 1553.13 2825.95L1535.75 2855.58 1535.75 2875.83C1535.75 2878.2 1535.88 2880.12 1536.13 2881.58 1536.38 2883.04 1536.79 2884.2 1537.38 2885.08 1537.96 2885.95 1538.73 2886.64 1539.69 2887.14 1540.65 2887.64 1542.15 2888.12 1544.19 2888.58L1544.19 2891.64 1515.63 2891.64 1515.63 2888.58C1517.63 2888.16 1519.1 2887.71 1520.06 2887.23 1521.02 2886.76 1521.79 2886.07 1522.38 2885.17 1522.96 2884.28 1523.39 2883.1 1523.66 2881.64 1523.93 2880.18 1524.06 2878.25 1524.06 2875.83L1524.06 2855.83 1506.81 2823.77C1504.73 2819.89 1503.15 2817.12 1502.06 2815.45 1500.98 2813.79 1499.9 2812.47 1498.81 2811.52 1497.73 2810.56 1496.48 2809.85 1495.06 2809.39Z" fill-rule="evenodd"/><text fill="#000000" fill-opacity="0" font-family="Arial,Arial_MSFontService,sans-serif" font-size="85.3125" x="1495.06" y="2880.98">Y</text><path d="M1584.99 2859.03C1588.13 2859.03 1590.82 2859.38 1593.05 2860.1 1595.27 2860.81 1597.08 2861.77 1598.47 2862.98 1599.86 2864.19 1600.87 2865.64 1601.49 2867.34 1602.11 2869.03 1602.42 2870.87 1602.42 2872.83 1602.42 2874.01 1602.34 2875.11 1602.17 2876.13 1602.01 2877.14 1601.72 2878.14 1601.31 2879.12 1600.9 2880.11 1600.36 2881.1 1599.7 2882.1 1599.03 2883.1 1598.2 2884.16 1597.2 2885.28 1596.44 2886.24 1595.46 2887.36 1594.25 2888.64 1593.04 2889.91 1591.71 2891.27 1590.28 2892.72 1588.84 2894.18 1587.33 2895.69 1585.76 2897.26 1584.18 2898.84 1582.65 2900.4 1581.17 2901.94 1579.69 2903.49 1578.32 2904.98 1577.08 2906.44 1575.84 2907.89 1574.83 2909.22 1574.04 2910.43L1590.84 2910.43C1592.27 2910.43 1593.4 2910.38 1594.25 2910.27 1595.1 2910.17 1595.8 2909.93 1596.36 2909.57 1596.92 2909.21 1597.4 2908.65 1597.79 2907.91 1598.18 2907.17 1598.64 2906.15 1599.15 2904.85L1603.38 2904.85C1603.22 2907 1603.08 2909.16 1602.94 2911.34 1602.81 2913.52 1602.66 2915.69 1602.51 2917.83L1564.05 2917.83 1564.05 2915.47C1564.78 2913.84 1565.63 2912.23 1566.59 2910.64 1567.56 2909.05 1568.65 2907.44 1569.86 2905.8 1571.07 2904.17 1572.45 2902.48 1574 2900.74 1575.54 2899 1577.25 2897.19 1579.13 2895.31 1581.97 2892.47 1584.29 2890.04 1586.07 2888.02 1587.86 2886.01 1589.27 2884.22 1590.3 2882.64 1591.33 2881.07 1592.03 2879.61 1592.41 2878.28 1592.79 2876.95 1592.98 2875.53 1592.98 2874.01 1592.98 2872.47 1592.76 2871.05 1592.32 2869.75 1591.88 2868.44 1591.25 2867.34 1590.43 2866.43 1589.62 2865.52 1588.58 2864.81 1587.32 2864.3 1586.07 2863.78 1584.62 2863.52 1582.99 2863.52 1580.17 2863.52 1577.81 2864.29 1575.9 2865.82 1574 2867.35 1572.51 2869.56 1571.45 2872.47L1565.5 2872.47 1565.5 2863.61C1569.38 2862.01 1572.94 2860.84 1576.2 2860.12 1579.45 2859.39 1582.38 2859.03 1584.99 2859.03Z" fill-rule="evenodd"/><text fill="#000000" fill-opacity="0" font-family="Arial,Arial_MSFontService,sans-serif" font-size="58.8062" x="1564.05" y="2910.48">2</text><path d="M917.628 2246.15 944.253 2246.15 944.253 2249.21C942.253 2249.51 940.815 2250.05 939.94 2250.84 939.065 2251.63 938.628 2252.71 938.628 2254.09 938.628 2255.26 939.023 2256.71 939.815 2258.46 940.607 2260.21 941.732 2262.3 943.19 2264.71L952.253 2279.9 961.19 2265.46C962.523 2263.3 963.523 2261.57 964.19 2260.28 964.857 2258.98 965.326 2257.9 965.596 2257.03 965.867 2256.15 966.003 2255.26 966.003 2254.34 966.003 2253.05 965.628 2251.95 964.878 2251.06 964.128 2250.16 962.878 2249.55 961.128 2249.21L961.128 2246.15 984.315 2246.15 984.315 2249.21C982.773 2249.71 981.388 2250.44 980.159 2251.4 978.93 2252.36 977.617 2253.76 976.221 2255.59 974.826 2257.42 972.836 2260.32 970.253 2264.28L956.128 2286.15 972.003 2312.28C974.253 2315.98 975.867 2318.58 976.846 2320.06 977.826 2321.54 978.742 2322.79 979.596 2323.81 980.451 2324.83 981.367 2325.71 982.346 2326.46 983.326 2327.21 984.544 2327.86 986.003 2328.4L986.003 2331.46 958.565 2331.46 958.565 2328.4C960.482 2328.07 961.898 2327.54 962.815 2326.81 963.732 2326.08 964.19 2324.98 964.19 2323.53 964.19 2322.36 963.888 2321.07 963.284 2319.65 962.68 2318.23 961.753 2316.48 960.503 2314.4L949.19 2295.53 937.253 2315.09C935.253 2318.38 934.253 2321.09 934.253 2323.21 934.253 2324.59 934.628 2325.71 935.378 2326.59 936.128 2327.46 937.378 2328.07 939.128 2328.4L939.128 2331.46 915.503 2331.46 915.503 2328.4C917.044 2327.94 918.315 2327.39 919.315 2326.75 920.315 2326.1 921.273 2325.28 922.19 2324.28 923.107 2323.28 924.128 2322.01 925.253 2320.46 926.378 2318.92 928.169 2316.23 930.628 2312.4L945.378 2289.4 927.753 2260.4C926.086 2257.73 924.826 2255.8 923.971 2254.59 923.117 2253.38 922.326 2252.4 921.596 2251.65 920.867 2250.9 920.211 2250.37 919.628 2250.06 919.044 2249.75 918.378 2249.46 917.628 2249.21Z" fill-rule="evenodd"/><text fill="#000000" fill-opacity="0" font-family="Arial,Arial_MSFontService,sans-serif" font-size="85.3125" x="915.503" y="2320.8">X</text><path d="M1018.39 2298.85C1021.54 2298.85 1024.23 2299.21 1026.45 2299.92 1028.68 2300.63 1030.49 2301.59 1031.88 2302.8 1033.27 2304.01 1034.28 2305.47 1034.9 2307.16 1035.52 2308.86 1035.83 2310.69 1035.83 2312.66 1035.83 2313.84 1035.75 2314.93 1035.58 2315.95 1035.41 2316.96 1035.13 2317.96 1034.72 2318.95 1034.31 2319.93 1033.77 2320.92 1033.1 2321.92 1032.44 2322.92 1031.61 2323.98 1030.61 2325.1 1029.85 2326.07 1028.87 2327.19 1027.66 2328.46 1026.44 2329.73 1025.12 2331.09 1023.68 2332.55 1022.24 2334 1020.74 2335.51 1019.16 2337.09 1017.59 2338.66 1016.06 2340.22 1014.58 2341.76 1013.09 2343.31 1011.73 2344.81 1010.49 2346.26 1009.25 2347.71 1008.23 2349.05 1007.45 2350.26L1024.25 2350.26C1025.67 2350.26 1026.81 2350.2 1027.66 2350.1 1028.5 2349.99 1029.21 2349.76 1029.77 2349.39 1030.33 2349.03 1030.8 2348.48 1031.2 2347.74 1031.59 2346.99 1032.05 2345.97 1032.56 2344.67L1036.78 2344.67C1036.63 2346.82 1036.49 2348.98 1036.35 2351.16 1036.22 2353.34 1036.07 2355.51 1035.92 2357.66L997.458 2357.66 997.458 2355.3C998.184 2353.66 999.032 2352.05 1000 2350.46 1000.97 2348.87 1002.06 2347.26 1003.27 2345.62 1004.48 2343.99 1005.86 2342.3 1007.4 2340.56 1008.95 2338.82 1010.66 2337.01 1012.53 2335.13 1015.38 2332.29 1017.7 2329.86 1019.48 2327.85 1021.27 2325.83 1022.68 2324.04 1023.7 2322.47 1024.73 2320.89 1025.44 2319.44 1025.82 2318.11 1026.19 2316.77 1026.38 2315.35 1026.38 2313.84 1026.38 2312.29 1026.16 2310.87 1025.73 2309.57 1025.29 2308.27 1024.66 2307.16 1023.84 2306.25 1023.02 2305.35 1021.99 2304.63 1020.73 2304.12 1019.47 2303.6 1018.03 2303.35 1016.39 2303.35 1013.58 2303.35 1011.22 2304.11 1009.31 2305.64 1007.4 2307.17 1005.92 2309.39 1004.86 2312.29L998.911 2312.29 998.911 2303.44C1002.79 2301.83 1006.35 2300.67 1009.6 2299.94 1012.86 2299.22 1015.79 2298.85 1018.39 2298.85Z" fill-rule="evenodd"/><text fill="#000000" fill-opacity="0" font-family="Arial,Arial_MSFontService,sans-serif" font-size="58.8062" x="997.458" y="2350.31">2</text><path d="M7.29204-7.29204 213.292 198.707 198.707 213.292-7.29204 7.29204ZM220.584 176.831 242.46 242.46 176.831 220.584Z" fill="#0070C0" transform="matrix(-1 0 0 1 1547.96 2300.5)"/><path d="M1960.64 2719.65 1562 2301" stroke="#000000" stroke-width="10.3125" stroke-miterlimit="8" stroke-dasharray="82.5 30.9375" fill="none" fill-rule="evenodd"/><path d="M1183.78 3510.9 763 3069" stroke="#000000" stroke-width="10.3125" stroke-miterlimit="8" stroke-dasharray="82.5 30.9375" fill="none" fill-rule="evenodd"/><path d="M21.8769 14.5849 763.545 756.253 756.253 763.545 14.5849 21.877ZM10.938 32.8142 0 0 32.8142 10.9381ZM767.189 745.313 778.127 778.127 745.313 767.189Z" transform="matrix(-1 0 0 1 1980.13 2726)"/><text font-family="Aptos,Aptos_MSFontService,sans-serif" font-weight="400" font-size="128" transform="matrix(0.695343 -0.718678 0.718678 0.695343 1431.58 3218)">20 cm</text><path d="M10.3125-7.67489e-06 10.3128 433.357-10.3122 433.357-10.3125 7.67489e-06ZM30.9378 423.045 0.000360892 484.92-30.9372 423.045Z" fill="#FF0000" transform="matrix(1 0 0 -1 857.5 1655.42)"/><path d="M7.67489e-06-10.3125 433.357-10.3122 433.357 10.3128-7.67489e-06 10.3125ZM423.045-30.9372 484.92 0.000360892 423.045 30.9378Z" fill="#4EA72E" transform="matrix(-1 0 0 1 852.419 1645.5)"/><path d="M786.386 1016.19 813.011 1016.19 813.011 1019.26C811.011 1019.55 809.573 1020.09 808.698 1020.88 807.823 1021.67 807.386 1022.76 807.386 1024.13 807.386 1025.3 807.782 1026.76 808.573 1028.51 809.365 1030.26 810.49 1032.34 811.948 1034.76L821.011 1049.94 829.948 1035.51C831.282 1033.34 832.282 1031.61 832.948 1030.32 833.615 1029.03 834.084 1027.94 834.354 1027.07 834.625 1026.19 834.761 1025.3 834.761 1024.38 834.761 1023.09 834.386 1022 833.636 1021.1 832.886 1020.2 831.636 1019.59 829.886 1019.26L829.886 1016.19 853.073 1016.19 853.073 1019.26C851.532 1019.76 850.146 1020.48 848.917 1021.44 847.688 1022.4 846.375 1023.8 844.979 1025.63 843.584 1027.46 841.594 1030.36 839.011 1034.32L824.886 1056.19 840.761 1082.32C843.011 1086.03 844.625 1088.62 845.604 1090.1 846.584 1091.58 847.5 1092.83 848.354 1093.85 849.209 1094.87 850.125 1095.76 851.104 1096.51 852.084 1097.26 853.302 1097.9 854.761 1098.44L854.761 1101.51 827.323 1101.51 827.323 1098.44C829.24 1098.11 830.657 1097.58 831.573 1096.85 832.49 1096.12 832.948 1095.03 832.948 1093.57 832.948 1092.4 832.646 1091.11 832.042 1089.69 831.438 1088.28 830.511 1086.53 829.261 1084.44L817.948 1065.57 806.011 1085.13C804.011 1088.42 803.011 1091.13 803.011 1093.26 803.011 1094.63 803.386 1095.76 804.136 1096.63 804.886 1097.51 806.136 1098.11 807.886 1098.44L807.886 1101.51 784.261 1101.51 784.261 1098.44C785.802 1097.98 787.073 1097.43 788.073 1096.79 789.073 1096.14 790.032 1095.32 790.948 1094.32 791.865 1093.32 792.886 1092.05 794.011 1090.51 795.136 1088.96 796.927 1086.28 799.386 1082.44L814.136 1059.44 796.511 1030.44C794.844 1027.78 793.584 1025.84 792.729 1024.63 791.875 1023.42 791.084 1022.44 790.354 1021.69 789.625 1020.94 788.969 1020.41 788.386 1020.1 787.802 1019.79 787.136 1019.51 786.386 1019.26Z" fill-rule="evenodd"/><text fill="#000000" fill-opacity="0" font-family="Arial,Arial_MSFontService,sans-serif" font-size="85.3125" x="784.261" y="1090.84">X</text><path d="M889.284 1080.16C886.378 1084.36 883.479 1088.54 880.588 1092.69 877.697 1096.84 874.783 1101 871.847 1105.18L871.847 1105.72 889.284 1105.72 889.284 1096.59C889.284 1095.56 889.299 1094.29 889.329 1092.78 889.36 1091.27 889.398 1089.73 889.443 1088.17 889.488 1086.61 889.541 1085.13 889.602 1083.72 889.662 1082.31 889.723 1081.12 889.784 1080.16ZM890.601 1069.53 897.821 1069.53 897.821 1105.72 898.639 1105.72C899.88 1105.72 900.886 1105.66 901.658 1105.54 902.43 1105.42 903.051 1105.17 903.52 1104.79 903.989 1104.41 904.383 1103.88 904.701 1103.2 905.019 1102.52 905.359 1101.63 905.723 1100.54L909.582 1100.54C909.492 1102.21 909.393 1103.86 909.287 1105.49 909.181 1107.13 909.083 1108.79 908.992 1110.49L897.821 1110.49 897.821 1116.44C897.821 1118.19 897.859 1119.56 897.935 1120.52 898.01 1121.49 898.237 1122.25 898.616 1122.8 898.994 1123.34 899.554 1123.75 900.296 1124.02 901.038 1124.29 902.075 1124.61 903.407 1124.97L903.407 1127.7 883.789 1127.7 883.789 1124.97C884.698 1124.73 885.47 1124.51 886.105 1124.32 886.741 1124.12 887.271 1123.89 887.695 1123.64 888.119 1123.38 888.429 1123.08 888.626 1122.73 888.822 1122.38 888.974 1121.94 889.08 1121.41 889.186 1120.88 889.246 1120.21 889.261 1119.41 889.276 1118.61 889.284 1117.62 889.284 1116.44L889.284 1110.49 863.718 1110.49 863.718 1106.9C868.229 1100.64 872.709 1094.41 877.16 1088.22 881.61 1082.02 886.09 1075.8 890.601 1069.53Z" fill-rule="evenodd"/><text fill="#000000" fill-opacity="0" font-family="Arial,Arial_MSFontService,sans-serif" font-size="58.1704" x="863.718" y="1120.43">4</text><path d="M531.749 1876.44 588.124 1876.44 588.124 1879.44 545.374 1956 567.937 1956C570.728 1956 572.801 1955.74 574.155 1955.22 575.509 1954.7 576.624 1953.89 577.499 1952.78 578.374 1951.68 579.166 1950.13 579.874 1948.13 580.582 1946.13 581.437 1943.02 582.437 1938.81L588.562 1938.81 588.562 1961.75 530.812 1961.75 530.812 1958.69 573.624 1882.19 550.937 1882.19C549.312 1882.19 548.03 1882.32 547.093 1882.59 546.155 1882.87 545.312 1883.28 544.562 1883.84 543.812 1884.41 543.072 1885.23 542.343 1886.31 541.614 1887.4 540.884 1888.89 540.155 1890.78 539.426 1892.68 538.666 1895.04 537.874 1897.88L531.749 1897.88Z" fill-rule="evenodd"/><text fill="#000000" fill-opacity="0" font-family="Arial,Arial_MSFontService,sans-serif" font-size="85.3125" x="530.812" y="1951.09">Z</text><path d="M622.931 1940.4C620.024 1944.61 617.126 1948.79 614.235 1952.93 611.344 1957.08 608.43 1961.24 605.493 1965.42L605.493 1965.97 622.931 1965.97 622.931 1956.84C622.931 1955.81 622.946 1954.54 622.976 1953.02 623.006 1951.51 623.044 1949.97 623.09 1948.42 623.135 1946.86 623.188 1945.37 623.249 1943.97 623.309 1942.56 623.37 1941.37 623.43 1940.4ZM624.248 1929.77 631.468 1929.77 631.468 1965.97 632.285 1965.97C633.526 1965.97 634.533 1965.91 635.305 1965.78 636.077 1965.66 636.698 1965.41 637.167 1965.04 637.636 1964.66 638.03 1964.13 638.347 1963.45 638.665 1962.77 639.006 1961.88 639.369 1960.79L643.229 1960.79C643.138 1962.45 643.04 1964.1 642.934 1965.74 642.828 1967.37 642.729 1969.04 642.639 1970.73L631.468 1970.73 631.468 1976.68C631.468 1978.44 631.506 1979.8 631.581 1980.77 631.657 1981.74 631.884 1982.5 632.262 1983.04 632.641 1983.59 633.201 1983.99 633.943 1984.27 634.684 1984.54 635.721 1984.86 637.053 1985.22L637.053 1987.94 617.436 1987.94 617.436 1985.22C618.344 1984.98 619.116 1984.76 619.752 1984.56 620.388 1984.37 620.917 1984.14 621.341 1983.88 621.765 1983.62 622.075 1983.32 622.272 1982.97 622.469 1982.62 622.62 1982.19 622.726 1981.66 622.832 1981.13 622.893 1980.46 622.908 1979.66 622.923 1978.86 622.931 1977.86 622.931 1976.68L622.931 1970.73 597.365 1970.73 597.365 1967.15C601.875 1960.88 606.356 1954.65 610.806 1948.46 615.256 1942.27 619.737 1936.04 624.248 1929.77Z" fill-rule="evenodd"/><text fill="#000000" fill-opacity="0" font-family="Arial,Arial_MSFontService,sans-serif" font-size="58.1704" x="597.365" y="1980.67">4</text><path d="M232.899 1587.74 259.524 1587.74 259.524 1590.8C255.607 1591.26 253.649 1592.94 253.649 1595.86 253.649 1597.07 253.93 1598.42 254.493 1599.92 255.055 1601.42 256.066 1603.55 257.524 1606.3L270.024 1630.11 282.337 1608.36C284.003 1605.4 285.18 1602.97 285.868 1601.08 286.555 1599.18 286.899 1597.44 286.899 1595.86 286.899 1594.36 286.451 1593.18 285.555 1592.33 284.66 1591.47 283.337 1590.96 281.587 1590.8L281.587 1587.74 305.274 1587.74 305.274 1590.8C303.566 1591.42 302.066 1592.29 300.774 1593.39 299.482 1594.5 298.17 1595.99 296.837 1597.86 295.503 1599.74 293.545 1602.9 290.962 1607.36L273.587 1636.99 273.587 1657.24C273.587 1659.61 273.712 1661.53 273.962 1662.99 274.212 1664.44 274.628 1665.61 275.212 1666.49 275.795 1667.36 276.566 1668.05 277.524 1668.55 278.482 1669.05 279.982 1669.53 282.024 1669.99L282.024 1673.05 253.462 1673.05 253.462 1669.99C255.462 1669.57 256.941 1669.12 257.899 1668.64 258.857 1668.16 259.628 1667.47 260.212 1666.58 260.795 1665.68 261.222 1664.51 261.493 1663.05 261.764 1661.59 261.899 1659.65 261.899 1657.24L261.899 1637.24 244.649 1605.17C242.566 1601.3 240.982 1598.53 239.899 1596.86 238.816 1595.19 237.732 1593.88 236.649 1592.92 235.566 1591.96 234.316 1591.26 232.899 1590.8Z" fill-rule="evenodd"/><text fill="#000000" fill-opacity="0" font-family="Arial,Arial_MSFontService,sans-serif" font-size="85.3125" x="232.899" y="1662.38">Y</text><path d="M324.956 1651.7C322.049 1655.91 319.151 1660.08 316.26 1664.23 313.369 1668.38 310.455 1672.54 307.518 1676.72L307.518 1677.26 324.956 1677.26 324.956 1668.14C324.956 1667.11 324.971 1665.83 325.001 1664.32 325.031 1662.81 325.069 1661.27 325.115 1659.71 325.16 1658.15 325.213 1656.67 325.274 1655.26 325.334 1653.85 325.395 1652.67 325.455 1651.7ZM326.273 1641.07 333.493 1641.07 333.493 1677.26 334.31 1677.26C335.551 1677.26 336.558 1677.2 337.33 1677.08 338.102 1676.96 338.723 1676.71 339.192 1676.33 339.661 1675.95 340.055 1675.42 340.372 1674.74 340.69 1674.06 341.031 1673.18 341.394 1672.09L345.254 1672.09C345.163 1673.75 345.065 1675.4 344.959 1677.04 344.853 1678.67 344.755 1680.34 344.664 1682.03L333.493 1682.03 333.493 1687.98C333.493 1689.74 333.531 1691.1 333.606 1692.07 333.682 1693.04 333.909 1693.79 334.288 1694.34 334.666 1694.88 335.226 1695.29 335.968 1695.56 336.709 1695.84 337.746 1696.15 339.078 1696.52L339.078 1699.24 319.461 1699.24 319.461 1696.52C320.369 1696.27 321.141 1696.06 321.777 1695.86 322.413 1695.66 322.943 1695.43 323.366 1695.18 323.79 1694.92 324.101 1694.62 324.297 1694.27 324.494 1693.92 324.645 1693.48 324.751 1692.95 324.857 1692.42 324.918 1691.76 324.933 1690.95 324.948 1690.15 324.956 1689.16 324.956 1687.98L324.956 1682.03 299.39 1682.03 299.39 1678.44C303.901 1672.18 308.381 1665.95 312.831 1659.76 317.281 1653.57 321.762 1647.34 326.273 1641.07Z" fill-rule="evenodd"/><text fill="#000000" fill-opacity="0" font-family="Arial,Arial_MSFontService,sans-serif" font-size="58.1704" x="299.39" y="1691.97">4</text><path d="M7.29204-7.29204 213.292 198.707 198.707 213.292-7.29204 7.29204ZM220.584 176.831 242.46 242.46 176.831 220.584Z" fill="#0070C0" transform="matrix(-1 0 0 1 865.96 1649.5)"/><path d="M10.3125-7.67489e-06 10.3128 433.357-10.3122 433.357-10.3125 7.67489e-06ZM30.9378 423.045 0.000360892 484.92-30.9372 423.045Z" fill="#FF0000" transform="matrix(1 0 0 -1 2219.5 1650.42)"/><path d="M7.67488e-06-10.3125 433.357-10.3122 433.357 10.3128-7.67488e-06 10.3125ZM423.045-30.9372 484.92 0.000360892 423.045 30.9378Z" fill="#4EA72E" transform="matrix(-1 0 0 1 2213.42 1640.5)"/><path d="M2161.77 1040.17 2188.4 1040.17 2188.4 1043.23C2186.4 1043.52 2184.96 1044.07 2184.08 1044.86 2183.21 1045.65 2182.77 1046.73 2182.77 1048.11 2182.77 1049.27 2183.17 1050.73 2183.96 1052.48 2184.75 1054.23 2185.87 1056.32 2187.33 1058.73L2196.4 1073.92 2205.33 1059.48C2206.67 1057.32 2207.67 1055.59 2208.33 1054.29 2209 1053 2209.47 1051.92 2209.74 1051.04 2210.01 1050.17 2210.15 1049.27 2210.15 1048.36 2210.15 1047.07 2209.77 1045.97 2209.02 1045.08 2208.27 1044.18 2207.02 1043.57 2205.27 1043.23L2205.27 1040.17 2228.46 1040.17 2228.46 1043.23C2226.92 1043.73 2225.53 1044.46 2224.3 1045.42 2223.07 1046.38 2221.76 1047.77 2220.36 1049.61 2218.97 1051.44 2216.98 1054.34 2214.4 1058.29L2200.27 1080.17 2216.15 1106.29C2218.4 1110 2220.01 1112.6 2220.99 1114.08 2221.97 1115.56 2222.88 1116.81 2223.74 1117.83 2224.59 1118.85 2225.51 1119.73 2226.49 1120.48 2227.47 1121.23 2228.69 1121.88 2230.15 1122.42L2230.15 1125.48 2202.71 1125.48 2202.71 1122.42C2204.62 1122.09 2206.04 1121.56 2206.96 1120.83 2207.87 1120.1 2208.33 1119 2208.33 1117.54 2208.33 1116.38 2208.03 1115.09 2207.43 1113.67 2206.82 1112.25 2205.9 1110.5 2204.65 1108.42L2193.33 1089.54 2181.4 1109.11C2179.4 1112.4 2178.4 1115.11 2178.4 1117.23 2178.4 1118.61 2178.77 1119.73 2179.52 1120.61 2180.27 1121.48 2181.52 1122.09 2183.27 1122.42L2183.27 1125.48 2159.65 1125.48 2159.65 1122.42C2161.19 1121.96 2162.46 1121.41 2163.46 1120.76 2164.46 1120.12 2165.42 1119.29 2166.33 1118.29 2167.25 1117.29 2168.27 1116.02 2169.4 1114.48 2170.52 1112.94 2172.31 1110.25 2174.77 1106.42L2189.52 1083.42 2171.9 1054.42C2170.23 1051.75 2168.97 1049.82 2168.11 1048.61 2167.26 1047.4 2166.47 1046.42 2165.74 1045.67 2165.01 1044.92 2164.35 1044.39 2163.77 1044.08 2163.19 1043.76 2162.52 1043.48 2161.77 1043.23Z" fill-rule="evenodd"/><text fill="#000000" fill-opacity="0" font-family="Arial,Arial_MSFontService,sans-serif" font-size="85.3125" x="2159.65" y="1114.82">X</text><path d="M2262.44 1092.87C2264.86 1092.87 2267.13 1093.13 2269.23 1093.64 2271.34 1094.16 2273.16 1094.94 2274.7 1095.98 2276.25 1097.03 2277.45 1098.33 2278.31 1099.89 2279.18 1101.44 2279.61 1103.25 2279.61 1105.31 2279.61 1107.25 2279.34 1108.96 2278.79 1110.44 2278.25 1111.93 2277.41 1113.27 2276.27 1114.49 2275.14 1115.7 2273.74 1116.79 2272.09 1117.78 2270.44 1118.76 2268.54 1119.71 2266.39 1120.62L2266.39 1121.16C2268.42 1121.52 2270.31 1122.11 2272.07 1122.91 2273.83 1123.71 2275.36 1124.73 2276.68 1125.95 2278 1127.18 2279.03 1128.59 2279.79 1130.2 2280.55 1131.8 2280.93 1133.57 2280.93 1135.51 2280.93 1137.93 2280.47 1140.18 2279.56 1142.25 2278.65 1144.33 2277.29 1146.12 2275.48 1147.63 2273.66 1149.15 2271.42 1150.33 2268.76 1151.18 2266.09 1152.02 2262.97 1152.45 2259.4 1152.45 2256.59 1152.45 2253.72 1152.17 2250.82 1151.61 2247.91 1151.05 2245.16 1150.31 2242.55 1149.41L2242.55 1139.6 2248.41 1139.6C2248.9 1141.11 2249.47 1142.4 2250.14 1143.48 2250.8 1144.55 2251.58 1145.43 2252.48 1146.11 2253.37 1146.79 2254.4 1147.29 2255.56 1147.59 2256.73 1147.89 2258.05 1148.04 2259.54 1148.04 2263.44 1148.04 2266.4 1147.11 2268.41 1145.25 2270.43 1143.39 2271.43 1140.57 2271.43 1136.78 2271.43 1132.76 2270.11 1129.71 2267.46 1127.63 2264.81 1125.56 2260.88 1124.52 2255.68 1124.52L2251.68 1124.52 2251.68 1120.16C2254.86 1120.01 2257.61 1119.56 2259.92 1118.82 2262.24 1118.08 2264.17 1117.12 2265.71 1115.94 2267.26 1114.76 2268.41 1113.38 2269.16 1111.81 2269.92 1110.23 2270.3 1108.55 2270.3 1106.77 2270.3 1103.86 2269.44 1101.57 2267.71 1099.89 2265.99 1098.21 2263.49 1097.37 2260.22 1097.37 2257.46 1097.37 2255.15 1098.12 2253.29 1099.64 2251.43 1101.15 2250 1103.41 2249 1106.4L2243.23 1106.4 2243.23 1097.46C2246.81 1095.94 2250.17 1094.8 2253.34 1094.03 2256.5 1093.26 2259.54 1092.87 2262.44 1092.87Z" fill-rule="evenodd"/><text fill="#000000" fill-opacity="0" font-family="Arial,Arial_MSFontService,sans-serif" font-size="59.5781" x="2242.55" y="1145">3</text><path d="M1980.23 1936.24 2036.6 1936.24 2036.6 1939.24 1993.85 2015.81 2016.42 2015.81C2019.21 2015.81 2021.28 2015.55 2022.64 2015.02 2023.99 2014.5 2025.1 2013.69 2025.98 2012.59 2026.85 2011.48 2027.65 2009.93 2028.35 2007.93 2029.06 2005.93 2029.92 2002.83 2030.92 1998.62L2037.04 1998.62 2037.04 2021.56 1979.29 2021.56 1979.29 2018.49 2022.1 1941.99 1999.42 1941.99C1997.79 1941.99 1996.51 1942.13 1995.57 1942.4 1994.64 1942.67 1993.79 1943.09 1993.04 1943.65 1992.29 1944.21 1991.55 1945.04 1990.82 1946.12 1990.09 1947.2 1989.36 1948.69 1988.64 1950.59 1987.91 1952.48 1987.15 1954.85 1986.35 1957.68L1980.23 1957.68Z" fill-rule="evenodd"/><text fill="#000000" fill-opacity="0" font-family="Arial,Arial_MSFontService,sans-serif" font-size="85.3125" x="1979.29" y="2010.89">Z</text><path d="M2069.19 1988.94C2071.61 1988.94 2073.87 1989.2 2075.97 1989.72 2078.08 1990.23 2079.9 1991.01 2081.45 1992.05 2082.99 1993.1 2084.19 1994.4 2085.06 1995.96 2085.92 1997.52 2086.35 1999.33 2086.35 2001.39 2086.35 2003.32 2086.08 2005.03 2085.53 2006.52 2084.99 2008 2084.15 2009.35 2083.01 2010.56 2081.88 2011.77 2080.49 2012.87 2078.84 2013.85 2077.19 2014.84 2075.29 2015.78 2073.14 2016.69L2073.14 2017.23C2075.16 2017.6 2077.06 2018.18 2078.81 2018.98 2080.57 2019.78 2082.1 2020.8 2083.42 2022.03 2084.74 2023.25 2085.78 2024.67 2086.53 2026.27 2087.29 2027.88 2087.67 2029.65 2087.67 2031.58 2087.67 2034.01 2087.21 2036.25 2086.31 2038.33 2085.4 2040.4 2084.03 2042.19 2082.22 2043.71 2080.4 2045.22 2078.16 2046.4 2075.5 2047.25 2072.83 2048.1 2069.72 2048.52 2066.14 2048.52 2063.33 2048.52 2060.47 2048.24 2057.56 2047.68 2054.65 2047.12 2051.9 2046.39 2049.3 2045.48L2049.3 2035.67 2055.15 2035.67C2055.64 2037.18 2056.21 2038.48 2056.88 2039.55 2057.55 2040.63 2058.32 2041.51 2059.22 2042.19 2060.11 2042.87 2061.14 2043.36 2062.31 2043.66 2063.47 2043.97 2064.8 2044.12 2066.28 2044.12 2070.18 2044.12 2073.14 2043.19 2075.16 2041.32 2077.17 2039.46 2078.18 2036.64 2078.18 2032.86 2078.18 2028.83 2076.85 2025.78 2074.2 2023.71 2071.55 2021.63 2067.63 2020.59 2062.42 2020.59L2058.42 2020.59 2058.42 2016.24C2061.6 2016.08 2064.35 2015.64 2066.67 2014.9 2068.98 2014.15 2070.91 2013.19 2072.46 2012.01 2074 2010.83 2075.15 2009.45 2075.91 2007.88 2076.66 2006.31 2077.04 2004.63 2077.04 2002.84 2077.04 1999.93 2076.18 1997.64 2074.45 1995.96 2072.73 1994.28 2070.23 1993.44 2066.96 1993.44 2064.21 1993.44 2061.9 1994.2 2060.04 1995.71 2058.17 1997.22 2056.74 1999.48 2055.74 2002.48L2049.98 2002.48 2049.98 1993.53C2053.55 1992.02 2056.92 1990.87 2060.08 1990.1 2063.24 1989.33 2066.28 1988.94 2069.19 1988.94Z" fill-rule="evenodd"/><text fill="#000000" fill-opacity="0" font-family="Arial,Arial_MSFontService,sans-serif" font-size="59.5782" x="2049.3" y="2041.07">3</text><path d="M1649.27 1689.38 1675.89 1689.38 1675.89 1692.44C1671.98 1692.9 1670.02 1694.59 1670.02 1697.5 1670.02 1698.71 1670.3 1700.07 1670.86 1701.57 1671.43 1703.07 1672.44 1705.19 1673.89 1707.94L1686.39 1731.75 1698.71 1710C1700.37 1707.05 1701.55 1704.62 1702.24 1702.72 1702.93 1700.83 1703.27 1699.09 1703.27 1697.5 1703.27 1696 1702.82 1694.83 1701.93 1693.97 1701.03 1693.12 1699.71 1692.61 1697.96 1692.44L1697.96 1689.38 1721.64 1689.38 1721.64 1692.44C1719.94 1693.07 1718.44 1693.93 1717.14 1695.04 1715.85 1696.14 1714.54 1697.63 1713.21 1699.5 1711.87 1701.38 1709.92 1704.55 1707.33 1709L1689.96 1738.63 1689.96 1758.88C1689.96 1761.25 1690.08 1763.17 1690.33 1764.63 1690.58 1766.09 1691 1767.25 1691.58 1768.13 1692.17 1769 1692.94 1769.69 1693.89 1770.19 1694.85 1770.69 1696.35 1771.17 1698.39 1771.63L1698.39 1774.69 1669.83 1774.69 1669.83 1771.63C1671.83 1771.21 1673.31 1770.76 1674.27 1770.29 1675.23 1769.81 1676 1769.12 1676.58 1768.22 1677.17 1767.33 1677.59 1766.15 1677.86 1764.69 1678.13 1763.23 1678.27 1761.3 1678.27 1758.88L1678.27 1738.88 1661.02 1706.82C1658.94 1702.94 1657.35 1700.17 1656.27 1698.5 1655.19 1696.84 1654.1 1695.52 1653.02 1694.57 1651.94 1693.61 1650.69 1692.9 1649.27 1692.44Z" fill-rule="evenodd"/><text fill="#000000" fill-opacity="0" font-family="Arial,Arial_MSFontService,sans-serif" font-size="85.3125" x="1649.27" y="1764.03">Y</text><path d="M1739.1 1742.08C1741.52 1742.08 1743.79 1742.34 1745.89 1742.85 1747.99 1743.37 1749.82 1744.15 1751.36 1745.19 1752.91 1746.23 1754.11 1747.54 1754.97 1749.09 1755.84 1750.65 1756.27 1752.46 1756.27 1754.52 1756.27 1756.46 1755.99 1758.17 1755.45 1759.65 1754.9 1761.14 1754.06 1762.48 1752.93 1763.69 1751.79 1764.91 1750.4 1766 1748.75 1766.99 1747.1 1767.97 1745.2 1768.92 1743.05 1769.82L1743.05 1770.37C1745.08 1770.73 1746.97 1771.32 1748.73 1772.12 1750.48 1772.92 1752.02 1773.93 1753.34 1775.16 1754.65 1776.39 1755.69 1777.8 1756.45 1779.41 1757.2 1781.01 1757.58 1782.78 1757.58 1784.72 1757.58 1787.14 1757.13 1789.39 1756.22 1791.46 1755.31 1793.54 1753.95 1795.33 1752.13 1796.84 1750.32 1798.36 1748.08 1799.54 1745.41 1800.39 1742.75 1801.23 1739.63 1801.66 1736.06 1801.66 1733.24 1801.66 1730.38 1801.38 1727.48 1800.82 1724.57 1800.26 1721.82 1799.52 1719.21 1798.61L1719.21 1788.81 1725.07 1788.81C1725.55 1790.32 1726.13 1791.61 1726.8 1792.69 1727.46 1793.76 1728.24 1794.64 1729.13 1795.32 1730.03 1796 1731.06 1796.5 1732.22 1796.8 1733.39 1797.1 1734.71 1797.25 1736.2 1797.25 1740.1 1797.25 1743.06 1796.32 1745.07 1794.46 1747.09 1792.6 1748.09 1789.77 1748.09 1785.99 1748.09 1781.96 1746.77 1778.91 1744.12 1776.84 1741.47 1774.77 1737.54 1773.73 1732.34 1773.73L1728.34 1773.73 1728.34 1769.37C1731.52 1769.22 1734.27 1768.77 1736.58 1768.03 1738.9 1767.29 1740.83 1766.33 1742.37 1765.15 1743.91 1763.97 1745.07 1762.59 1745.82 1761.01 1746.58 1759.44 1746.96 1757.76 1746.96 1755.97 1746.96 1753.07 1746.09 1750.77 1744.37 1749.09 1742.64 1747.41 1740.15 1746.57 1736.88 1746.57 1734.12 1746.57 1731.81 1747.33 1729.95 1748.84 1728.09 1750.36 1726.66 1752.61 1725.66 1755.61L1719.89 1755.61 1719.89 1746.67C1723.47 1745.15 1726.83 1744.01 1730 1743.24 1733.16 1742.46 1736.2 1742.08 1739.1 1742.08Z" fill-rule="evenodd"/><text fill="#000000" fill-opacity="0" font-family="Arial,Arial_MSFontService,sans-serif" font-size="59.5781" x="1719.21" y="1794.21">3</text><path d="M7.29204-7.29204 213.292 198.707 198.707 213.292-7.29204 7.29204ZM220.584 176.831 242.46 242.46 176.831 220.584Z" fill="#0070C0" transform="matrix(-1 0 0 1 2227.96 1644.5)"/><path d="M2462.98 1891.58 2232 1649" stroke="#000000" stroke-width="10.3125" stroke-miterlimit="8" stroke-dasharray="82.5 30.9375" fill="none" fill-rule="evenodd"/><path d="M21.8763 14.5843 635.236 627.944 627.944 635.236 14.5843 21.8763ZM10.9381 32.8142 0 0 32.8142 10.938ZM638.882 617.005 649.82 649.82 617.006 638.882Z" transform="matrix(-1 0 0 1 2456.82 1899)"/><text font-family="Aptos,Aptos_MSFontService,sans-serif" font-weight="400" font-size="128" transform="matrix(0.695343 -0.718678 0.718678 0.695343 1971.61 2341)">15 cm</text><path d="M1542.33 2268.17 1563.18 2218.63 1584.56 2169.47 1595.63 2145.14 1607.02 2121.06 1618.81 2097.27 1631.07 2073.83 1643.86 2050.78 1657.24 2028.17 1671.29 2006.06 1686.06 1984.5 1701.64 1963.54 1718.07 1943.22 1735.43 1923.61 1753.78 1904.75 1773.16 1886.69 1793.52 1869.4 1814.79 1852.83 1836.9 1836.92 1859.79 1821.63 1883.39 1806.9 1907.64 1792.69 1932.46 1778.93 1957.8 1765.59 1983.59 1752.6 2009.77 1739.92 2036.27 1727.49 2089.94 1703.22 2137.89 1682.1 2140.66 1688.39 2092.73 1709.5 2092.76 1709.49 2039.12 1733.75 2039.16 1733.73 2012.71 1746.14 2012.75 1746.12 1986.61 1758.78 1986.66 1758.75 1960.92 1771.71 1960.98 1771.69 1935.7 1785 1935.76 1784.96 1911.01 1798.68 1911.08 1798.64 1886.91 1812.81 1886.99 1812.76 1863.48 1827.44 1863.57 1827.38 1840.77 1842.61 1840.87 1842.54 1818.86 1858.37 1818.97 1858.29 1797.81 1874.78 1797.92 1874.69 1777.67 1891.88 1777.79 1891.78 1758.53 1909.73 1758.65 1909.61 1740.41 1928.35 1740.52 1928.23 1723.27 1947.72 1723.37 1947.61 1707.03 1967.8 1707.11 1967.69 1691.62 1988.55 1691.7 1988.44 1676.99 2009.9 1677.06 2009.8 1663.07 2031.81 1663.13 2031.72 1649.8 2054.24 1649.85 2054.15 1637.1 2077.12 1637.14 2077.05 1624.92 2100.42 1624.96 2100.36 1613.2 2124.08 1613.22 2124.03 1601.85 2148.06 1601.88 2148.01 1590.83 2172.29 1590.86 2172.24 1569.49 2221.35 1569.51 2221.31 1548.67 2270.83ZM2108.03 1678.23 2145.51 1682.49 2123.35 1713.03C2122.24 1714.57 2120.09 1714.91 2118.55 1713.79 2117.02 1712.68 2116.67 1710.53 2117.79 1708.99L2136.49 1683.22 2138.88 1688.66 2107.25 1685.06C2105.36 1684.85 2104.01 1683.15 2104.22 1681.26 2104.44 1679.37 2106.14 1678.02 2108.03 1678.23Z" fill="#747474"/><path d="M1489.07 2424.1 1469.06 2472.41 1445.86 2526.59 1433.85 2553.41 1421.49 2579.94 1408.7 2606.15 1395.41 2631.99 1381.54 2657.38 1367.02 2682.29 1351.79 2706.65 1335.77 2730.41 1318.88 2753.5 1301.06 2775.88 1282.23 2797.49 1262.33 2818.26 1241.31 2838.16 1219.23 2857.21 1196.16 2875.46 1172.18 2892.99 1147.36 2909.84 1121.76 2926.07 1095.46 2941.73 1068.53 2956.89 1041.04 2971.6 1013.06 2985.91 984.662 2999.88 955.914 3013.58 897.682 3040.34 838.904 3066.64 836.096 3060.36 894.858 3034.07 894.827 3034.08 953.022 3007.34 952.979 3007.36 981.686 2993.69 981.646 2993.71 1010 2979.75 1009.95 2979.78 1037.88 2965.49 1037.82 2965.52 1065.25 2950.85 1065.19 2950.88 1092.05 2935.76 1091.97 2935.8 1118.2 2920.19 1118.12 2920.24 1143.63 2904.06 1143.54 2904.12 1168.27 2887.34 1168.17 2887.4 1192.05 2869.95 1191.95 2870.03 1214.91 2851.86 1214.79 2851.95 1236.76 2833 1236.64 2833.11 1257.54 2813.32 1257.42 2813.44 1277.21 2792.79 1277.1 2792.91 1295.82 2771.42 1295.73 2771.54 1313.46 2749.27 1313.37 2749.39 1330.18 2726.4 1330.1 2726.51 1346.06 2702.85 1345.99 2702.95 1361.17 2678.69 1361.11 2678.78 1375.58 2653.96 1375.53 2654.05 1389.35 2628.73 1389.32 2628.8 1402.57 2603.04 1402.54 2603.11 1415.3 2576.96 1415.28 2577.01 1427.61 2550.53 1427.59 2550.57 1439.57 2523.81 1439.55 2523.86 1462.73 2469.73 1462.71 2469.76 1482.72 2421.47ZM1458.47 2439.32 1488.51 2416.49 1493.6 2453.87C1493.85 2455.75 1492.53 2457.48 1490.65 2457.74 1488.77 2458 1487.04 2456.68 1486.78 2454.8L1482.49 2423.25 1487.97 2425.52 1462.63 2444.79C1461.12 2445.94 1458.96 2445.65 1457.81 2444.13 1456.66 2442.62 1456.96 2440.47 1458.47 2439.32Z" fill="#747474"/><path d="M2190.11 1598.5 2125.85 1570.09 2125.88 1570.1 2093.62 1556.18 2093.65 1556.19 2061.23 1542.61 2061.28 1542.63 2028.64 1529.5 2028.7 1529.52 1995.79 1516.97 1995.86 1516.99 1962.63 1505.12 1962.71 1505.14 1929.1 1494.07 1929.2 1494.1 1895.16 1483.93 1895.26 1483.96 1860.75 1474.81 1860.86 1474.84 1825.81 1466.84 1825.93 1466.86 1790.28 1460.11 1790.42 1460.14 1754.13 1454.75 1754.23 1454.76 1735.83 1452.62 1735.9 1452.62 1717.32 1450.86 1717.39 1450.87 1698.62 1449.51 1698.7 1449.51 1679.73 1448.56 1679.81 1448.56 1660.64 1448.04 1660.72 1448.04 1641.34 1447.96 1641.42 1447.96 1621.83 1448.33 1621.9 1448.32 1602.1 1449.13 1602.18 1449.13 1582.18 1450.37 1582.24 1450.36 1562.05 1452.01 1562.11 1452 1541.73 1454.05 1541.79 1454.04 1521.22 1456.48 1521.31 1456.47 1479.66 1462.42 1479.76 1462.41 1437.47 1469.73 1437.56 1469.71 1394.68 1478.29 1394.75 1478.27 1351.33 1487.99 1351.4 1487.97 1307.5 1498.71 1307.55 1498.7 1263.22 1510.35 1263.27 1510.33 1218.56 1522.78 1218.6 1522.77 1173.57 1535.9 1173.6 1535.89 1128.3 1549.58 1128.33 1549.58 1082.82 1563.73 1082.83 1563.72 1037.16 1578.22 1037.18 1578.21 952.033 1605.68 949.922 1599.14 1035.07 1571.67 1080.76 1557.17 1126.3 1543.01 1171.63 1529.3 1216.7 1516.16 1261.45 1503.7 1305.83 1492.04 1349.8 1481.29 1393.29 1471.56 1436.25 1462.96 1478.64 1455.62 1520.38 1449.65 1541.01 1447.21 1561.46 1445.16 1581.72 1443.51 1601.79 1442.27 1621.66 1441.45 1641.33 1441.08 1660.79 1441.17 1680.03 1441.69 1699.08 1442.65 1717.93 1444.02 1736.59 1445.78 1755.08 1447.94 1791.5 1453.34 1827.27 1460.12 1862.45 1468.15 1897.08 1477.33 1931.21 1487.52 1964.9 1498.63 1998.21 1510.53 2031.18 1523.11 2063.86 1536.26 2096.33 1549.86 2128.62 1563.79 2192.89 1592.21ZM981.338 1612.59 944.485 1604.51 969.664 1576.41C970.931 1574.99 973.104 1574.87 974.518 1576.14 975.932 1577.41 976.051 1579.58 974.784 1580.99L953.538 1604.7 951.714 1599.05 982.811 1605.88C984.666 1606.28 985.839 1608.12 985.432 1609.97 985.025 1611.82 983.192 1613 981.338 1612.59Z" fill="#747474"/><path d="M1555.89 1321.21 1623.51 1321.21 1623.51 1342.96 1617.39 1342.96C1616.47 1339.38 1615.57 1336.54 1614.67 1334.46 1613.77 1332.38 1612.83 1330.79 1611.83 1329.71 1610.83 1328.63 1609.75 1327.86 1608.61 1327.4 1607.46 1326.94 1605.74 1326.71 1603.45 1326.71L1595.51 1326.71 1595.51 1390.71C1595.51 1393.17 1595.65 1395.13 1595.92 1396.59 1596.19 1398.04 1596.61 1399.2 1597.17 1400.05 1597.73 1400.91 1598.49 1401.57 1599.45 1402.05 1600.41 1402.53 1601.91 1403 1603.95 1403.46L1603.95 1406.52 1575.39 1406.52 1575.39 1403.46C1576.64 1403.17 1577.74 1402.86 1578.7 1402.52 1579.66 1402.19 1580.44 1401.78 1581.04 1401.3 1581.65 1400.82 1582.15 1400.21 1582.54 1399.46 1582.94 1398.71 1583.25 1397.69 1583.48 1396.4 1583.71 1395.11 1583.83 1393.21 1583.83 1390.71L1583.83 1326.71 1575.95 1326.71C1573.99 1326.71 1572.38 1326.9 1571.11 1327.27 1569.84 1327.65 1568.66 1328.43 1567.58 1329.62 1566.49 1330.8 1565.5 1332.49 1564.61 1334.68 1563.71 1336.87 1562.87 1339.63 1562.08 1342.96L1555.89 1342.96Z" fill="#747474" fill-rule="evenodd"/><text fill="#000000" fill-opacity="0" font-family="Arial,Arial_MSFontService,sans-serif" font-size="85.3125" x="1555.89" y="1395.86">T</text><path d="M1699.17 1385.17C1696.27 1389.38 1693.37 1393.56 1690.48 1397.71 1687.59 1401.85 1684.67 1406.02 1681.74 1410.19L1681.74 1410.74 1699.17 1410.74 1699.17 1401.61C1699.17 1400.58 1699.19 1399.31 1699.22 1397.8 1699.25 1396.28 1699.29 1394.75 1699.33 1393.19 1699.38 1391.63 1699.43 1390.14 1699.49 1388.74 1699.55 1387.33 1699.61 1386.14 1699.67 1385.17ZM1700.49 1374.55 1707.71 1374.55 1707.71 1410.74 1708.53 1410.74C1709.77 1410.74 1710.78 1410.68 1711.55 1410.56 1712.32 1410.44 1712.94 1410.19 1713.41 1409.81 1713.88 1409.43 1714.27 1408.9 1714.59 1408.22 1714.91 1407.54 1715.25 1406.65 1715.61 1405.56L1719.47 1405.56C1719.38 1407.23 1719.28 1408.88 1719.18 1410.51 1719.07 1412.15 1718.97 1413.81 1718.88 1415.51L1707.71 1415.51 1707.71 1421.45C1707.71 1423.21 1707.75 1424.57 1707.82 1425.54 1707.9 1426.51 1708.13 1427.27 1708.51 1427.81 1708.88 1428.36 1709.44 1428.77 1710.19 1429.04 1710.93 1429.31 1711.96 1429.63 1713.3 1429.99L1713.3 1432.72 1693.68 1432.72 1693.68 1429.99C1694.59 1429.75 1695.36 1429.53 1696 1429.33 1696.63 1429.14 1697.16 1428.91 1697.58 1428.65 1698.01 1428.39 1698.32 1428.09 1698.52 1427.74 1698.71 1427.4 1698.86 1426.96 1698.97 1426.43 1699.08 1425.9 1699.14 1425.23 1699.15 1424.43 1699.17 1423.63 1699.17 1422.64 1699.17 1421.45L1699.17 1415.51 1673.61 1415.51 1673.61 1411.92C1678.12 1405.65 1682.6 1399.42 1687.05 1393.23 1691.5 1387.04 1695.98 1380.81 1700.49 1374.55ZM1642.95 1373.91C1645.37 1373.91 1647.63 1374.17 1649.74 1374.68 1651.84 1375.2 1653.67 1375.98 1655.21 1377.02 1656.75 1378.07 1657.96 1379.37 1658.82 1380.93 1659.68 1382.49 1660.11 1384.29 1660.11 1386.35 1660.11 1388.29 1659.84 1390 1659.3 1391.48 1658.75 1392.97 1657.91 1394.31 1656.78 1395.53 1655.64 1396.74 1654.25 1397.83 1652.6 1398.82 1650.95 1399.8 1649.05 1400.75 1646.9 1401.66L1646.9 1402.2C1648.93 1402.56 1650.82 1403.15 1652.58 1403.95 1654.33 1404.75 1655.87 1405.77 1657.19 1406.99 1658.5 1408.22 1659.54 1409.63 1660.3 1411.24 1661.05 1412.84 1661.43 1414.61 1661.43 1416.55 1661.43 1418.97 1660.98 1421.22 1660.07 1423.29 1659.16 1425.37 1657.8 1427.16 1655.98 1428.67 1654.17 1430.19 1651.93 1431.37 1649.26 1432.22 1646.6 1433.06 1643.48 1433.49 1639.91 1433.49 1637.09 1433.49 1634.23 1433.21 1631.32 1432.65 1628.42 1432.09 1625.66 1431.35 1623.06 1430.45L1623.06 1420.64 1628.92 1420.64C1629.4 1422.15 1629.98 1423.45 1630.64 1424.52 1631.31 1425.59 1632.09 1426.47 1632.98 1427.15 1633.87 1427.83 1634.9 1428.33 1636.07 1428.63 1637.23 1428.93 1638.56 1429.08 1640.04 1429.08 1643.95 1429.08 1646.91 1428.15 1648.92 1426.29 1650.93 1424.43 1651.94 1421.61 1651.94 1417.82 1651.94 1413.8 1650.62 1410.75 1647.97 1408.67 1645.32 1406.6 1641.39 1405.56 1636.18 1405.56L1632.19 1405.56 1632.19 1401.2C1635.37 1401.05 1638.11 1400.6 1640.43 1399.86 1642.74 1399.12 1644.67 1398.16 1646.22 1396.98 1647.76 1395.8 1648.91 1394.42 1649.67 1392.85 1650.43 1391.27 1650.81 1389.59 1650.81 1387.81 1650.81 1384.9 1649.94 1382.61 1648.22 1380.93 1646.49 1379.25 1643.99 1378.41 1640.72 1378.41 1637.97 1378.41 1635.66 1379.16 1633.8 1380.68 1631.94 1382.19 1630.51 1384.45 1629.51 1387.44L1623.74 1387.44 1623.74 1378.5C1627.31 1376.98 1630.68 1375.84 1633.84 1375.07 1637.01 1374.3 1640.04 1373.91 1642.95 1373.91Z" fill="#747474" fill-rule="evenodd"/><text fill="#000000" fill-opacity="0" font-family="Arial,Arial_MSFontService,sans-serif" font-size="59.5781" x="1623.06" y="1426.04">34</text><path d="M1549.99 1860.99 1617.62 1860.99 1617.62 1882.74 1611.49 1882.74C1610.58 1879.16 1609.67 1876.33 1608.77 1874.24 1607.88 1872.16 1606.93 1870.58 1605.93 1869.49 1604.93 1868.41 1603.86 1867.64 1602.71 1867.18 1601.57 1866.72 1599.85 1866.49 1597.56 1866.49L1589.62 1866.49 1589.62 1930.49C1589.62 1932.95 1589.75 1934.91 1590.02 1936.37 1590.3 1937.83 1590.71 1938.98 1591.27 1939.84 1591.84 1940.69 1592.6 1941.36 1593.56 1941.84 1594.51 1942.32 1596.01 1942.78 1598.06 1943.24L1598.06 1946.31 1569.49 1946.31 1569.49 1943.24C1570.74 1942.95 1571.85 1942.64 1572.81 1942.31 1573.76 1941.97 1574.55 1941.57 1575.15 1941.09 1575.75 1940.61 1576.25 1939.99 1576.65 1939.24 1577.05 1938.49 1577.36 1937.47 1577.59 1936.18 1577.82 1934.89 1577.93 1932.99 1577.93 1930.49L1577.93 1866.49 1570.06 1866.49C1568.1 1866.49 1566.48 1866.68 1565.21 1867.06 1563.94 1867.43 1562.76 1868.21 1561.68 1869.4 1560.6 1870.59 1559.61 1872.27 1558.71 1874.46 1557.82 1876.65 1556.97 1879.41 1556.18 1882.74L1549.99 1882.74Z" fill="#747474" fill-rule="evenodd"/><text fill="#000000" fill-opacity="0" font-family="Arial,Arial_MSFontService,sans-serif" font-size="85.3125" x="1549.99" y="1935.64">T</text><path d="M1691.05 1913.69C1693.48 1913.69 1695.74 1913.95 1697.84 1914.46 1699.95 1914.98 1701.77 1915.76 1703.31 1916.8 1704.86 1917.85 1706.06 1919.15 1706.92 1920.71 1707.79 1922.27 1708.22 1924.08 1708.22 1926.14 1708.22 1928.07 1707.95 1929.78 1707.4 1931.27 1706.86 1932.75 1706.02 1934.1 1704.88 1935.31 1703.75 1936.52 1702.35 1937.62 1700.7 1938.6 1699.05 1939.58 1697.15 1940.53 1695 1941.44L1695 1941.98C1697.03 1942.35 1698.93 1942.93 1700.68 1943.73 1702.44 1944.53 1703.97 1945.55 1705.29 1946.77 1706.61 1948 1707.64 1949.42 1708.4 1951.02 1709.16 1952.62 1709.54 1954.4 1709.54 1956.33 1709.54 1958.75 1709.08 1961 1708.17 1963.08 1707.27 1965.15 1705.9 1966.94 1704.09 1968.46 1702.27 1969.97 1700.03 1971.15 1697.37 1972 1694.7 1972.85 1691.58 1973.27 1688.01 1973.27 1685.2 1973.27 1682.34 1972.99 1679.43 1972.43 1676.52 1971.87 1673.77 1971.14 1671.16 1970.23L1671.16 1960.42 1677.02 1960.42C1677.51 1961.93 1678.08 1963.23 1678.75 1964.3 1679.41 1965.38 1680.19 1966.25 1681.09 1966.94 1681.98 1967.62 1683.01 1968.11 1684.17 1968.41 1685.34 1968.71 1686.66 1968.87 1688.15 1968.87 1692.05 1968.87 1695.01 1967.94 1697.03 1966.07 1699.04 1964.21 1700.05 1961.39 1700.05 1957.6 1700.05 1953.58 1698.72 1950.53 1696.07 1948.45 1693.42 1946.38 1689.49 1945.34 1684.29 1945.34L1680.29 1945.34 1680.29 1940.98C1683.47 1940.83 1686.22 1940.39 1688.53 1939.64 1690.85 1938.9 1692.78 1937.94 1694.32 1936.76 1695.87 1935.58 1697.02 1934.2 1697.77 1932.63 1698.53 1931.05 1698.91 1929.37 1698.91 1927.59 1698.91 1924.68 1698.05 1922.39 1696.32 1920.71 1694.6 1919.03 1692.1 1918.19 1688.83 1918.19 1686.07 1918.19 1683.77 1918.95 1681.9 1920.46 1680.04 1921.97 1678.61 1924.23 1677.61 1927.22L1671.85 1927.22 1671.85 1918.28C1675.42 1916.77 1678.79 1915.62 1681.95 1914.85 1685.11 1914.08 1688.15 1913.69 1691.05 1913.69ZM1637.14 1913.69C1640.29 1913.69 1642.98 1914.05 1645.21 1914.76 1647.43 1915.47 1649.24 1916.43 1650.63 1917.64 1652.02 1918.85 1653.03 1920.31 1653.65 1922 1654.27 1923.7 1654.58 1925.53 1654.58 1927.5 1654.58 1928.68 1654.5 1929.78 1654.33 1930.79 1654.17 1931.8 1653.88 1932.8 1653.47 1933.79 1653.06 1934.77 1652.52 1935.76 1651.86 1936.76 1651.19 1937.76 1650.36 1938.82 1649.36 1939.94 1648.6 1940.91 1647.62 1942.03 1646.41 1943.3 1645.2 1944.57 1643.87 1945.93 1642.44 1947.39 1641 1948.84 1639.49 1950.35 1637.92 1951.93 1636.34 1953.5 1634.81 1955.06 1633.33 1956.61 1631.85 1958.15 1630.48 1959.65 1629.24 1961.1 1628 1962.55 1626.99 1963.89 1626.2 1965.1L1643 1965.1C1644.43 1965.1 1645.56 1965.04 1646.41 1964.94 1647.26 1964.83 1647.96 1964.6 1648.52 1964.23 1649.08 1963.87 1649.56 1963.32 1649.95 1962.58 1650.34 1961.83 1650.8 1960.81 1651.31 1959.51L1655.54 1959.51C1655.38 1961.66 1655.24 1963.83 1655.1 1966.01 1654.97 1968.18 1654.82 1970.35 1654.67 1972.5L1616.21 1972.5 1616.21 1970.14C1616.94 1968.5 1617.79 1966.89 1618.75 1965.3 1619.72 1963.71 1620.81 1962.1 1622.02 1960.47 1623.23 1958.83 1624.61 1957.14 1626.16 1955.4 1627.7 1953.66 1629.41 1951.85 1631.29 1949.98 1634.13 1947.13 1636.45 1944.7 1638.23 1942.69 1640.02 1940.67 1641.43 1938.88 1642.46 1937.31 1643.49 1935.73 1644.19 1934.28 1644.57 1932.95 1644.95 1931.61 1645.14 1930.19 1645.14 1928.68 1645.14 1927.13 1644.92 1925.71 1644.48 1924.41 1644.04 1923.11 1643.41 1922 1642.59 1921.09 1641.78 1920.19 1640.74 1919.47 1639.48 1918.96 1638.23 1918.45 1636.78 1918.19 1635.15 1918.19 1632.33 1918.19 1629.97 1918.95 1628.06 1920.48 1626.16 1922.01 1624.67 1924.23 1623.61 1927.13L1617.66 1927.13 1617.66 1918.28C1621.54 1916.67 1625.1 1915.51 1628.36 1914.78 1631.61 1914.06 1634.54 1913.69 1637.14 1913.69Z" fill="#747474" fill-rule="evenodd"/><text fill="#000000" fill-opacity="0" font-family="Arial,Arial_MSFontService,sans-serif" font-size="59.5781" x="1616.21" y="1965.82">23</text><path d="M1205.55 2872.04 1273.18 2872.04 1273.18 2893.79 1267.05 2893.79C1266.14 2890.21 1265.23 2887.38 1264.34 2885.29 1263.44 2883.21 1262.49 2881.63 1261.49 2880.54 1260.49 2879.46 1259.42 2878.69 1258.27 2878.23 1257.13 2877.77 1255.41 2877.54 1253.12 2877.54L1245.18 2877.54 1245.18 2941.54C1245.18 2944 1245.31 2945.96 1245.59 2947.42 1245.86 2948.88 1246.27 2950.03 1246.84 2950.89 1247.4 2951.74 1248.16 2952.41 1249.12 2952.89 1250.08 2953.37 1251.58 2953.83 1253.62 2954.29L1253.62 2957.35 1225.05 2957.35 1225.05 2954.29C1226.3 2954 1227.41 2953.69 1228.37 2953.35 1229.33 2953.02 1230.11 2952.62 1230.71 2952.14 1231.31 2951.66 1231.81 2951.04 1232.21 2950.29 1232.61 2949.54 1232.92 2948.52 1233.15 2947.23 1233.38 2945.94 1233.49 2944.04 1233.49 2941.54L1233.49 2877.54 1225.62 2877.54C1223.66 2877.54 1222.04 2877.73 1220.77 2878.1 1219.5 2878.48 1218.33 2879.26 1217.24 2880.45 1216.16 2881.64 1215.17 2883.32 1214.27 2885.51 1213.38 2887.7 1212.53 2890.46 1211.74 2893.79L1205.55 2893.79Z" fill="#747474" fill-rule="evenodd"/><text fill="#000000" fill-opacity="0" font-family="Arial,Arial_MSFontService,sans-serif" font-size="85.3125" x="1205.55" y="2946.69">T</text><path d="M1293.29 2925.06 1296.06 2925.06C1296 2926.73 1295.96 2928.22 1295.93 2929.53 1295.9 2930.85 1295.87 2932.13 1295.86 2933.37 1295.84 2934.61 1295.83 2935.84 1295.83 2937.05L1295.83 2971.56C1295.83 2972.5 1295.86 2973.31 1295.93 2973.99 1295.99 2974.67 1296.08 2975.25 1296.22 2975.72 1296.36 2976.18 1296.54 2976.59 1296.77 2976.92 1296.99 2977.25 1297.26 2977.54 1297.56 2977.78 1297.92 2978.15 1298.41 2978.43 1299.01 2978.62 1299.62 2978.82 1300.39 2978.99 1301.33 2979.12 1302.27 2979.26 1303.4 2979.36 1304.71 2979.44 1306.03 2979.51 1307.61 2979.57 1309.46 2979.6L1309.46 2983.55 1273.45 2983.55 1273.45 2979.6C1275.23 2979.54 1276.75 2979.47 1277.99 2979.39 1279.23 2979.32 1280.29 2979.21 1281.17 2979.08 1282.05 2978.94 1282.75 2978.79 1283.28 2978.62 1283.81 2978.46 1284.27 2978.25 1284.66 2978.01 1285.09 2977.74 1285.45 2977.44 1285.75 2977.12 1286.06 2976.81 1286.3 2976.4 1286.48 2975.92 1286.66 2975.44 1286.81 2974.85 1286.91 2974.15 1287.02 2973.45 1287.07 2972.59 1287.07 2971.56L1287.07 2939C1287.07 2937.82 1286.84 2936.99 1286.39 2936.5 1285.94 2936.02 1285.28 2935.78 1284.44 2935.78 1283.5 2935.78 1282.11 2936.26 1280.26 2937.23 1278.41 2938.2 1276.02 2939.64 1273.08 2941.54 1272.69 2940.85 1272.33 2940.15 1271.99 2939.46 1271.66 2938.76 1271.31 2938.05 1270.95 2937.32 1274.7 2935.26 1278.42 2933.21 1282.1 2931.17 1285.78 2929.12 1289.51 2927.09 1293.29 2925.06ZM1343.75 2924.74C1346.9 2924.74 1349.58 2925.1 1351.81 2925.81 1354.04 2926.52 1355.84 2927.48 1357.24 2928.69 1358.63 2929.9 1359.64 2931.36 1360.26 2933.05 1360.88 2934.75 1361.19 2936.58 1361.19 2938.55 1361.19 2939.73 1361.1 2940.83 1360.94 2941.84 1360.77 2942.85 1360.48 2943.85 1360.07 2944.84 1359.67 2945.82 1359.13 2946.81 1358.46 2947.81 1357.8 2948.81 1356.96 2949.87 1355.97 2950.99 1355.21 2951.96 1354.22 2953.08 1353.01 2954.35 1351.8 2955.62 1350.48 2956.98 1349.04 2958.44 1347.6 2959.89 1346.1 2961.4 1344.52 2962.98 1342.95 2964.55 1341.42 2966.11 1339.94 2967.66 1338.45 2969.2 1337.09 2970.7 1335.85 2972.15 1334.61 2973.6 1333.59 2974.94 1332.81 2976.15L1349.61 2976.15C1351.03 2976.15 1352.17 2976.09 1353.01 2975.99 1353.86 2975.88 1354.56 2975.65 1355.12 2975.28 1355.69 2974.92 1356.16 2974.37 1356.56 2973.63 1356.95 2972.89 1357.4 2971.86 1357.92 2970.56L1362.14 2970.56C1361.99 2972.71 1361.85 2974.88 1361.71 2977.06 1361.57 2979.23 1361.43 2981.4 1361.28 2983.55L1322.82 2983.55 1322.82 2981.19C1323.54 2979.55 1324.39 2977.94 1325.36 2976.35 1326.33 2974.76 1327.42 2973.15 1328.63 2971.52 1329.84 2969.88 1331.22 2968.19 1332.76 2966.45 1334.3 2964.71 1336.01 2962.9 1337.89 2961.03 1340.74 2958.18 1343.05 2955.75 1344.84 2953.74 1346.63 2951.72 1348.03 2949.93 1349.06 2948.36 1350.09 2946.78 1350.8 2945.33 1351.17 2944 1351.55 2942.66 1351.74 2941.24 1351.74 2939.73 1351.74 2938.18 1351.52 2936.76 1351.08 2935.46 1350.64 2934.16 1350.02 2933.05 1349.2 2932.14 1348.38 2931.24 1347.34 2930.52 1346.09 2930.01 1344.83 2929.5 1343.39 2929.24 1341.75 2929.24 1338.94 2929.24 1336.57 2930 1334.67 2931.53 1332.76 2933.06 1331.28 2935.28 1330.22 2938.18L1324.27 2938.18 1324.27 2929.33C1328.14 2927.72 1331.71 2926.56 1334.96 2925.83 1338.22 2925.11 1341.15 2924.74 1343.75 2924.74Z" fill="#747474" fill-rule="evenodd"/><text fill="#000000" fill-opacity="0" font-family="Arial,Arial_MSFontService,sans-serif" font-size="58.8062" x="1270.95" y="2976.2">12</text><path d="M728.631 3013.75 694.812 2927.34 678.3 2884.16 662.272 2841.03 646.888 2797.98 632.313 2755.02 618.707 2712.16 606.235 2669.44 595.062 2626.88 590.008 2605.65 585.342 2584.47 581.081 2563.33 577.247 2542.25 573.859 2521.22 570.939 2500.25 568.506 2479.33 566.581 2458.47 565.185 2437.67 564.339 2416.94 564.062 2396.28 564.376 2375.68 565.302 2355.16 566.859 2334.7 569.242 2314.03 572.586 2292.93 576.836 2271.46 581.935 2249.66 587.828 2227.6 594.462 2205.31 601.781 2182.85 609.73 2160.26 618.255 2137.6 627.303 2114.92 636.818 2092.27 646.752 2069.67 667.626 2024.96 689.505 1981.14 700.692 1959.68 711.962 1938.61 723.266 1917.97 734.549 1897.81 745.758 1878.18 756.838 1859.13 767.735 1840.71 778.395 1822.96 788.763 1805.95 798.786 1789.73 808.408 1774.33 817.577 1759.82 826.236 1746.24 834.33 1733.65 841.81 1722.1 844.908 1717.33 850.672 1721.08 847.582 1725.83 840.113 1737.37 832.023 1749.96 832.029 1749.95 823.377 1763.51 823.385 1763.5 814.225 1778 814.234 1777.98 804.62 1793.36 804.63 1793.35 794.618 1809.56 794.628 1809.54 784.271 1826.53 784.282 1826.52 773.634 1844.24 773.646 1844.22 762.762 1862.62 762.775 1862.6 751.708 1881.62 751.721 1881.6 740.527 1901.21 740.541 1901.18 729.273 1921.32 729.288 1921.29 718 1941.9 718.016 1941.87 706.763 1962.91 706.779 1962.88 695.615 1984.29 695.642 1984.24 673.797 2027.99 673.837 2027.9 652.998 2072.55 653.03 2072.48 643.123 2095.01 643.146 2094.95 633.654 2117.56 633.677 2117.5 624.654 2140.12 624.678 2140.06 616.177 2162.65 616.203 2162.58 608.279 2185.09 608.305 2185.02 601.012 2207.4 601.039 2207.31 594.432 2229.51 594.458 2229.42 588.591 2251.39 588.617 2251.28 583.543 2272.97 583.568 2272.85 579.343 2294.2 579.366 2294.07 576.043 2315.04 576.063 2314.89 573.697 2335.43 573.71 2335.29 572.161 2355.63 572.167 2355.52 571.247 2375.94 571.25 2375.84 570.937 2396.33 570.937 2396.23 571.213 2416.8 571.21 2416.71 572.053 2437.35 572.048 2437.26 573.438 2457.97 573.431 2457.88 575.348 2478.65 575.34 2478.57 577.763 2499.41 577.753 2499.34 580.664 2520.24 580.653 2520.16 584.029 2541.12 584.017 2541.06 587.84 2562.07 587.827 2562.01 592.075 2583.08 592.062 2583.02 596.716 2604.14 596.703 2604.08 601.741 2625.25 601.722 2625.17 612.873 2667.65 612.847 2667.56 625.296 2710.2 625.272 2710.12 638.855 2752.9 638.834 2752.84 653.39 2795.74 653.372 2795.69 668.738 2838.7 668.724 2838.66 684.739 2881.75 684.727 2881.72 701.229 2924.87 701.219 2924.84 735.034 3011.25ZM817.806 1730.45 851.509 1713.49 849.682 1751.17C849.59 1753.07 847.978 1754.53 846.082 1754.44 844.186 1754.35 842.723 1752.74 842.815 1750.84L844.356 1719.04 849.335 1722.28 820.896 1736.59C819.2 1737.44 817.134 1736.76 816.28 1735.06 815.427 1733.37 816.11 1731.3 817.806 1730.45Z" fill="#747474"/><path d="M399.53 2179.46 467.155 2179.46 467.155 2201.21 461.03 2201.21C460.113 2197.63 459.207 2194.79 458.311 2192.71 457.415 2190.63 456.467 2189.04 455.467 2187.96 454.467 2186.88 453.394 2186.11 452.248 2185.65 451.102 2185.19 449.384 2184.96 447.092 2184.96L439.155 2184.96 439.155 2248.96C439.155 2251.42 439.29 2253.38 439.561 2254.84 439.832 2256.29 440.248 2257.45 440.811 2258.3 441.373 2259.16 442.134 2259.82 443.092 2260.3 444.05 2260.78 445.55 2261.25 447.592 2261.71L447.592 2264.77 419.03 2264.77 419.03 2261.71C420.28 2261.42 421.384 2261.11 422.342 2260.77 423.3 2260.44 424.082 2260.03 424.686 2259.55 425.29 2259.07 425.79 2258.46 426.186 2257.71 426.582 2256.96 426.894 2255.94 427.123 2254.65 427.352 2253.36 427.467 2251.46 427.467 2248.96L427.467 2184.96 419.592 2184.96C417.634 2184.96 416.019 2185.15 414.748 2185.52 413.477 2185.9 412.3 2186.68 411.217 2187.87 410.134 2189.05 409.144 2190.74 408.248 2192.93 407.352 2195.12 406.509 2197.88 405.717 2201.21L399.53 2201.21Z" fill="#747474" fill-rule="evenodd"/><text fill="#000000" fill-opacity="0" font-family="Arial,Arial_MSFontService,sans-serif" font-size="85.3125" x="399.53" y="2254.11">T</text><path d="M539.859 2243.42C536.953 2247.63 534.054 2251.81 531.163 2255.96 528.272 2260.1 525.358 2264.27 522.422 2268.44L522.422 2268.99 539.859 2268.99 539.859 2259.86C539.859 2258.83 539.874 2257.56 539.904 2256.05 539.935 2254.53 539.973 2253 540.018 2251.44 540.063 2249.88 540.116 2248.39 540.177 2246.99 540.237 2245.58 540.298 2244.39 540.359 2243.42ZM541.176 2232.8 548.396 2232.8 548.396 2268.99 549.214 2268.99C550.455 2268.99 551.461 2268.93 552.233 2268.81 553.005 2268.69 553.626 2268.44 554.095 2268.06 554.564 2267.68 554.958 2267.15 555.276 2266.47 555.594 2265.79 555.934 2264.9 556.298 2263.81L560.157 2263.81C560.067 2265.48 559.968 2267.13 559.862 2268.76 559.756 2270.4 559.658 2272.06 559.567 2273.76L548.396 2273.76 548.396 2279.71C548.396 2281.46 548.434 2282.82 548.51 2283.79 548.585 2284.76 548.812 2285.52 549.191 2286.06 549.569 2286.61 550.129 2287.02 550.871 2287.29 551.613 2287.56 552.65 2287.88 553.982 2288.24L553.982 2290.97 534.364 2290.97 534.364 2288.24C535.273 2288 536.045 2287.78 536.68 2287.58 537.316 2287.39 537.846 2287.16 538.27 2286.9 538.694 2286.65 539.004 2286.34 539.201 2285.99 539.397 2285.65 539.549 2285.21 539.655 2284.68 539.761 2284.15 539.821 2283.48 539.836 2282.68 539.852 2281.88 539.859 2280.89 539.859 2279.71L539.859 2273.76 514.293 2273.76 514.293 2270.17C518.804 2263.9 523.284 2257.67 527.735 2251.48 532.185 2245.29 536.665 2239.06 541.176 2232.8ZM487.267 2232.48 490.037 2232.48C489.976 2234.14 489.931 2235.63 489.901 2236.95 489.87 2238.27 489.848 2239.55 489.832 2240.79 489.817 2242.03 489.81 2243.26 489.81 2244.47L489.81 2278.98C489.81 2279.92 489.84 2280.73 489.901 2281.41 489.961 2282.09 490.06 2282.66 490.196 2283.13 490.332 2283.6 490.514 2284 490.741 2284.34 490.968 2284.67 491.233 2284.96 491.535 2285.2 491.899 2285.56 492.383 2285.84 492.988 2286.04 493.594 2286.24 494.366 2286.4 495.304 2286.54 496.243 2286.68 497.371 2286.78 498.687 2286.86 500.004 2286.93 501.586 2286.99 503.433 2287.02L503.433 2290.97 467.423 2290.97 467.423 2287.02C469.209 2286.96 470.722 2286.89 471.964 2286.81 473.205 2286.74 474.264 2286.63 475.142 2286.49 476.02 2286.36 476.724 2286.21 477.254 2286.04 477.784 2285.87 478.245 2285.67 478.639 2285.43 479.063 2285.15 479.426 2284.86 479.729 2284.54 480.031 2284.22 480.274 2283.82 480.455 2283.34 480.637 2282.85 480.781 2282.26 480.887 2281.57 480.993 2280.87 481.046 2280.01 481.046 2278.98L481.046 2246.42C481.046 2245.24 480.819 2244.41 480.364 2243.92 479.91 2243.44 479.259 2243.2 478.412 2243.2 477.473 2243.2 476.081 2243.68 474.234 2244.65 472.387 2245.62 469.996 2247.06 467.059 2248.96 466.666 2248.27 466.302 2247.57 465.969 2246.87 465.636 2246.18 465.288 2245.47 464.925 2244.74 468.679 2242.68 472.395 2240.63 476.073 2238.59 479.751 2236.54 483.483 2234.51 487.267 2232.48Z" fill="#747474" fill-rule="evenodd"/><text fill="#000000" fill-opacity="0" font-family="Arial,Arial_MSFontService,sans-serif" font-size="58.4883" x="464.925" y="2283.66">14</text></g></svg>