<svg width="720" height="1280" xmlns="http://www.w3.org/2000/svg" xmlns:xlink="http://www.w3.org/1999/xlink" overflow="hidden"><g><rect x="0" y="0" width="720" height="1280" fill="#FFFFFF"/><path d="M187 1012.13C187 1025.45 251.919 1036.25 332 1036.25 412.081 1036.25 477 1025.45 477 1012.13L477 1156.87C477 1170.2 412.081 1181 332 1181 251.919 1181 187 1170.2 187 1156.87Z" fill="#D9F2D0" fill-rule="evenodd"/><path d="M187 1012.13C187 998.801 251.919 988 332 988 412.081 988 477 998.801 477 1012.13 477 1025.45 412.081 1036.25 332 1036.25 251.919 1036.25 187 1025.45 187 1012.13Z" fill="#E8F7E3" fill-rule="evenodd"/><path d="M477 1012.13C477 1025.45 412.081 1036.25 332 1036.25 251.919 1036.25 187 1025.45 187 1012.13 187 998.801 251.919 988 332 988 412.081 988 477 998.801 477 1012.13L477 1156.87C477 1170.2 412.081 1181 332 1181 251.919 1181 187 1170.2 187 1156.87L187 1012.13" stroke="#042433" stroke-width="2" stroke-miterlimit="8" fill="none" fill-rule="evenodd"/><rect x="0" y="16.2508" width="74.7492" height="118.749" fill="#D9F2D0" transform="matrix(-1 0 0 1 374 888)"/><path d="M74.7492 16.2508 91 0 91 118.749 74.7492 135Z" fill="#AEC3A7" fill-rule="evenodd" transform="matrix(-1 0 0 1 374 888)"/><path d="M0 16.2508 16.2508 0 91 0 74.7492 16.2508Z" fill="#E0F5D9" fill-rule="evenodd" transform="matrix(-1 0 0 1 374 888)"/><path d="M0 16.2508 16.2508 0 91 0 91 118.749 74.7492 135 0 135ZM0 16.2508 74.7492 16.2508 91 0M74.7492 16.2508 74.7492 135" stroke="#042433" stroke-width="2" stroke-miterlimit="8" fill="none" fill-rule="evenodd" transform="matrix(-1 0 0 1 374 888)"/><path d="M236.375 910C241.553 910 245.75 893.211 245.75 872.5 245.75 851.789 241.553 835 236.375 835L410.625 835C415.803 835 420 851.789 420 872.5 420 893.211 415.803 910 410.625 910Z" fill="#61CBF4" fill-rule="evenodd"/><path d="M236.375 910C231.197 910 227 893.211 227 872.5 227 851.789 231.197 835 236.375 835 241.553 835 245.75 851.789 245.75 872.5 245.75 893.211 241.553 910 236.375 910Z" fill="#A0E0F8" fill-rule="evenodd"/><path d="M236.375 835C241.553 835 245.75 851.789 245.75 872.5 245.75 893.211 241.553 910 236.375 910 231.197 910 227 893.211 227 872.5 227 851.789 231.197 835 236.375 835L410.625 835C415.803 835 420 851.789 420 872.5 420 893.211 415.803 910 410.625 910L236.375 910" stroke="#042433" stroke-width="2" stroke-miterlimit="8" fill="none" fill-rule="evenodd"/><rect x="0" y="16.2508" width="74.7492" height="300.749" fill="#BFBFBF" transform="matrix(-1 0 0 1 376 536)"/><path d="M74.7492 16.2508 91 0 91 300.749 74.7492 317Z" fill="#9A9A9A" fill-rule="evenodd" transform="matrix(-1 0 0 1 376 536)"/><path d="M0 16.2508 16.2508 0 91 0 74.7492 16.2508Z" fill="#CCCCCC" fill-rule="evenodd" transform="matrix(-1 0 0 1 376 536)"/><path d="M0 16.2508 16.2508 0 91 0 91 300.749 74.7492 317 0 317ZM0 16.2508 74.7492 16.2508 91 0M74.7492 16.2508 74.7492 317" stroke="#042433" stroke-width="2" stroke-miterlimit="8" fill="none" fill-rule="evenodd" transform="matrix(-1 0 0 1 376 536)"/><path d="M236.25 551C241.359 551 245.5 534.435 245.5 514 245.5 493.566 241.359 477 236.25 477L410.75 477C415.859 477 420 493.566 420 514 420 534.435 415.859 551 410.75 551Z" fill="#61CBF4" fill-rule="evenodd"/><path d="M236.25 551C231.141 551 227 534.435 227 514 227 493.566 231.141 477 236.25 477 241.359 477 245.5 493.566 245.5 514 245.5 534.435 241.359 551 236.25 551Z" fill="#A0E0F8" fill-rule="evenodd"/><path d="M236.25 477C241.359 477 245.5 493.566 245.5 514 245.5 534.435 241.359 551 236.25 551 231.141 551 227 534.435 227 514 227 493.566 231.141 477 236.25 477L410.75 477C415.859 477 420 493.566 420 514 420 534.435 415.859 551 410.75 551L236.25 551" stroke="#042433" stroke-width="2" stroke-miterlimit="8" fill="none" fill-rule="evenodd"/><rect x="0" y="16.2506" width="74.7494" height="301.749" fill="#BFBFBF" transform="matrix(-1 0 0 1 376 177)"/><path d="M74.7494 16.2505 91 0 91 301.749 74.7494 318Z" fill="#9A9A9A" fill-rule="evenodd" transform="matrix(-1 0 0 1 376 177)"/><path d="M0 16.2505 16.2506 0 91 0 74.7494 16.2505Z" fill="#CCCCCC" fill-rule="evenodd" transform="matrix(-1 0 0 1 376 177)"/><path d="M0 16.2505 16.2506 0 91 0 91 301.749 74.7494 318 0 318ZM0 16.2505 74.7494 16.2505 91 0M74.7494 16.2505 74.7494 318" stroke="#042433" stroke-width="2" stroke-miterlimit="8" fill="none" fill-rule="evenodd" transform="matrix(-1 0 0 1 376 177)"/><path d="M328.738 1078.52 239.055 996.453 244.455 990.551 334.139 1072.62ZM236.605 1005.05 227 980 252.807 987.349Z" fill="#FF0000"/><path d="M3.99955-0.0600854 5.21629 80.9315-2.78281 81.0516-3.99955 0.0600854ZM13.1553 76.8117 1.51717 100.989-10.842 77.1723Z" fill="#4EA72E" transform="matrix(-1 0 0 1 331.517 1076)"/><text font-family="Cambria Math,Cambria Math_MSFontService,sans-serif" font-weight="400" font-size="43" transform="translate(159.178 968)">X</text><text font-family="Cambria Math,Cambria Math_MSFontService,sans-serif" font-weight="400" font-size="31" transform="translate(184.765 976)">Base</text><text font-family="Cambria Math,Cambria Math_MSFontService,sans-serif" font-weight="400" font-size="43" transform="translate(62.7824 1102)">Z</text><text font-family="Cambria Math,Cambria Math_MSFontService,sans-serif" font-weight="400" font-size="31" transform="translate(85.7824 1111)">Base</text><text font-family="Cambria Math,Cambria Math_MSFontService,sans-serif" font-weight="400" font-size="43" transform="translate(302.313 1220)">Y</text><text font-family="Cambria Math,Cambria Math_MSFontService,sans-serif" font-weight="400" font-size="31" transform="translate(323.519 1229)">Base</text><path d="M332 1076 560.876 1076" stroke="#0070C0" stroke-width="8" stroke-miterlimit="8" stroke-dasharray="32 24" fill="none" fill-rule="evenodd"/><path d="M1.79291e-06-4 214.226-3.9999 214.226 4.0001-1.79291e-06 4ZM210.226-11.9999 234.226 0.000104987 210.226 12.0001Z" fill="#0070C0" transform="matrix(-1 0 0 1 347.226 1076)"/><path d="M2 9.99989 2.0001 345.384-1.9999 345.384-2 9.99989ZM-6 12 0 0 6 12ZM6.0001 343.384 0.000104987 355.384-5.9999 343.384Z" transform="matrix(1 0 0 -1 534 872.384)"/><path d="M2.00001 9.99981 2.0001 185.86-1.9999 185.86-1.99999 9.99981ZM-5.99999 12 0 0 6.00001 12ZM6.0001 183.86 0.000104987 195.86-5.9999 183.86Z" transform="matrix(1 0 0 -1 534 1069.86)"/><path d="M2 9.99954 2.0001 318.153-1.9999 318.153-2 9.99954ZM-6 12 0 0 6 12ZM6.0001 316.153 0.000104987 328.153-5.9999 316.153Z" transform="matrix(1 0 0 -1 534 512.153)"/><path d="M4-3.88223e-06 4.00009 88.1718-3.99991 88.1718-4 3.88223e-06ZM12.0001 84.1717 0.000104987 108.172-11.9999 84.1718Z" fill="#FF0000" transform="matrix(1 0 0 -1 333 182.172)"/><path d="M0.0605398-3.99954 98.0567-2.5162 97.9357 5.48288-0.0605398 3.99954ZM94.1783-10.5758 117.994 1.78604 93.815 13.4214Z" fill="#4EA72E" transform="matrix(-1 0 0 1 332.994 183)"/><text font-family="Cambria Math,Cambria Math_MSFontService,sans-serif" font-weight="400" font-size="43" transform="translate(311.623 43)">X</text><text font-family="Cambria Math,Cambria Math_MSFontService,sans-serif" font-weight="400" font-size="31" transform="translate(337.21 52)">2</text><text font-family="Cambria Math,Cambria Math_MSFontService,sans-serif" font-weight="400" font-size="43" transform="translate(398.426 265)">Z</text><text font-family="Cambria Math,Cambria Math_MSFontService,sans-serif" font-weight="400" font-size="31" transform="translate(421.426 273)">2</text><text font-family="Cambria Math,Cambria Math_MSFontService,sans-serif" font-weight="400" font-size="43" transform="translate(140.471 175)">Y</text><text font-family="Cambria Math,Cambria Math_MSFontService,sans-serif" font-weight="400" font-size="31" transform="translate(161.677 184)">2</text><path d="M335.945 176.294 375.543 219.391 369.652 224.804 330.055 181.706ZM378.728 211.033 386.129 236.825 361.055 227.271Z" fill="#0070C0"/><path d="M323 183 561.081 183" stroke="#00B050" stroke-width="8" stroke-miterlimit="8" stroke-dasharray="32 24" fill="none" fill-rule="evenodd"/><text font-family="Aptos,Aptos_MSFontService,sans-serif" font-weight="400" font-size="43" transform="translate(543.79 1000)">10 cm</text><text font-family="Aptos,Aptos_MSFontService,sans-serif" font-weight="400" font-size="43" transform="translate(570.369 646)">30 cm</text><text font-family="Aptos,Aptos_MSFontService,sans-serif" font-weight="400" font-size="43" transform="translate(570.369 309)">25 cm</text><path d="M4-7.76447e-06 4.00017 88.1716-3.99983 88.1717-4 7.76447e-06ZM12.0002 84.1716 0.000209974 108.172-11.9998 84.1717Z" fill="#FF0000" transform="matrix(1 0 0 -1 332 874.172)"/><path d="M329.67 877.232 266.104 819.416 271.487 813.498 335.053 871.314ZM263.68 828.026 254 803 279.829 810.271Z" fill="#4EA72E"/><text font-family="Cambria Math,Cambria Math_MSFontService,sans-serif" font-weight="400" font-size="43" transform="translate(310.393 734)">X</text><text font-family="Cambria Math,Cambria Math_MSFontService,sans-serif" font-weight="400" font-size="31" transform="translate(335.98 743)">0</text><text font-family="Cambria Math,Cambria Math_MSFontService,sans-serif" font-weight="400" font-size="43" transform="translate(109.403 879)">Z</text><text font-family="Cambria Math,Cambria Math_MSFontService,sans-serif" font-weight="400" font-size="31" transform="translate(132.403 887)">0</text><text font-family="Cambria Math,Cambria Math_MSFontService,sans-serif" font-weight="400" font-size="43" transform="translate(206.658 779)">Y</text><text font-family="Cambria Math,Cambria Math_MSFontService,sans-serif" font-weight="400" font-size="31" transform="translate(227.865 787)">0</text><path d="M332 874 581.871 874" stroke="#0070C0" stroke-width="8" stroke-miterlimit="8" stroke-dasharray="32 24" fill="none" fill-rule="evenodd"/><path d="M2.36567e-06-4 157.518-3.99991 157.518 4.00009-2.36567e-06 4ZM153.518-11.9999 177.518 0.000104987 153.518 12.0001Z" fill="#0070C0" transform="matrix(-1 0 0 1 347.518 874)"/><text font-family="Cambria Math,Cambria Math_MSFontService,sans-serif" font-weight="400" font-size="43" transform="translate(164.753 832)">Θ</text><text font-family="Cambria Math,Cambria Math_MSFontService,sans-serif" font-weight="400" font-size="31" transform="translate(191.6 841)">1</text><path d="M7.73628 39.1289C8.63711 20.8514 23.5543 6.79731 41.0547 7.73814 54.3486 8.45283 65.802 17.7579 69.7357 31.0396L77.3362 30.5217 68.2595 38.8677 56.3312 31.9529 63.9158 31.4361C58.9925 17.1783 44.0358 9.8269 30.5091 15.0163 20.6682 18.7917 13.9268 28.4088 13.3933 39.433Z" stroke="#042433" stroke-width="2" stroke-miterlimit="8" fill="#156082" fill-rule="evenodd" transform="matrix(-0.577326 -0.816514 -0.816514 0.577326 247.438 894.101)"/><path d="M4-7.76447e-06 4.00017 88.1716-3.99983 88.1717-4 7.76447e-06ZM12.0002 84.1716 0.000209974 108.172-11.9998 84.1717Z" fill="#FF0000" transform="matrix(1 0 0 -1 332 514.172)"/><path d="M329.67 517.232 266.104 459.416 271.487 453.498 335.053 511.314ZM263.68 468.026 254 443 279.829 450.271Z" fill="#4EA72E"/><text font-family="Cambria Math,Cambria Math_MSFontService,sans-serif" font-weight="400" font-size="43" transform="translate(310.393 375)">X</text><text font-family="Cambria Math,Cambria Math_MSFontService,sans-serif" font-weight="400" font-size="31" transform="translate(334.993 384)">1</text><text font-family="Cambria Math,Cambria Math_MSFontService,sans-serif" font-weight="400" font-size="43" transform="translate(109.897 519)">Z</text><text font-family="Cambria Math,Cambria Math_MSFontService,sans-serif" font-weight="400" font-size="31" transform="translate(131.91 528)">1</text><text font-family="Cambria Math,Cambria Math_MSFontService,sans-serif" font-weight="400" font-size="43" transform="translate(206.658 419)">Y</text><text font-family="Cambria Math,Cambria Math_MSFontService,sans-serif" font-weight="400" font-size="31" transform="translate(226.878 428)">1</text><path d="M332 514 581.871 514" stroke="#0070C0" stroke-width="8" stroke-miterlimit="8" stroke-dasharray="32 24" fill="none" fill-rule="evenodd"/><path d="M2.36567e-06-4 157.518-3.99991 157.518 4.00009-2.36567e-06 4ZM153.518-11.9999 177.518 0.000104987 153.518 12.0001Z" fill="#0070C0" transform="matrix(-1 0 0 1 347.518 514)"/><text font-family="Cambria Math,Cambria Math_MSFontService,sans-serif" font-weight="400" font-size="43" transform="translate(157.308 469)">Θ</text><text font-family="Cambria Math,Cambria Math_MSFontService,sans-serif" font-weight="400" font-size="31" transform="translate(185.142 477)">2</text><path d="M7.42918 37.5756C8.29425 20.0237 22.6192 6.52748 39.425 7.43097 52.1911 8.11728 63.1899 17.053 66.9675 29.8074L74.2662 29.3101 65.5498 37.3248 54.095 30.6845 61.3785 30.1882C56.6507 16.4964 42.2877 9.43681 29.298 14.4202 19.8478 18.0458 13.3739 27.2811 12.8617 37.8677Z" stroke="#042433" stroke-width="2" stroke-miterlimit="8" fill="#156082" fill-rule="evenodd" transform="matrix(-0.577326 -0.816514 -0.816514 0.577326 245.579 531.582)"/></g></svg>