<svg width="2580" height="2291" xmlns="http://www.w3.org/2000/svg" xmlns:xlink="http://www.w3.org/1999/xlink" xml:space="preserve" overflow="hidden"><g transform="matrix(1 0 0 1 0 -1053)"><text font-family="Aptos,Aptos_MSFontService,sans-serif" font-weight="400" font-size="92" transform="matrix(1 0 0 1 2234.3 3047)">0.3 m</text><rect x="1599.5" y="2796.5" width="165" height="268" stroke="#042433" stroke-width="6.875" stroke-miterlimit="8" fill="#D9F2D0"/><rect x="1641.5" y="2594.5" width="82.0001" height="239" stroke="#042433" stroke-width="6.875" stroke-miterlimit="8" fill="#96DCF8"/><path d="M1244.5 2319.5 1340.67 2319.5 1340.67 2492.82 1723.5 2492.82 1723.5 2606.5 1244.5 2606.5Z" stroke="#042433" stroke-width="6.875" stroke-miterlimit="8" fill="#BFBFBF" fill-rule="evenodd"/><rect x="1403.5" y="3064.5" width="557" height="268" stroke="#042433" stroke-width="6.875" stroke-miterlimit="8" fill="#D9F2D0"/><rect x="1214.5" y="1657.5" width="124" height="490" stroke="#042433" stroke-width="6.875" stroke-miterlimit="8" fill="#BFBFBF"/><rect x="703.5" y="1441.5" width="490" height="124" stroke="#042433" stroke-width="6.875" stroke-miterlimit="8" fill="#BFBFBF"/><rect x="335.5" y="1312.5" width="368" height="101" stroke="#042433" stroke-width="6.875" stroke-miterlimit="8" fill="#F2CFEE"/><rect x="335.5" y="1593.5" width="368" height="101" stroke="#042433" stroke-width="6.875" stroke-miterlimit="8" fill="#F2CFEE"/><rect x="602.5" y="1312.5" width="101" height="382" stroke="#042433" stroke-width="6.875" stroke-miterlimit="8" fill="#F2CFEE"/><path d="M1118.5 2301.5C1118.5 2210.37 1192.37 2136.5 1283.5 2136.5 1374.63 2136.5 1448.5 2210.37 1448.5 2301.5 1448.5 2392.63 1374.63 2466.5 1283.5 2466.5 1192.37 2466.5 1118.5 2392.63 1118.5 2301.5Z" stroke="#042433" stroke-width="6.875" stroke-miterlimit="8" fill="#96DCF8" fill-rule="evenodd"/><path d="M1118.5 1503.5C1118.5 1412.37 1192.37 1338.5 1283.5 1338.5 1374.63 1338.5 1448.5 1412.37 1448.5 1503.5 1448.5 1594.63 1374.63 1668.5 1283.5 1668.5 1192.37 1668.5 1118.5 1594.63 1118.5 1503.5Z" stroke="#042433" stroke-width="6.875" stroke-miterlimit="8" fill="#96DCF8" fill-rule="evenodd"/><path d="M1162.45 2197.69 1202.97 2197.69 1202.97 2199.84 1172.24 2254.87 1188.46 2254.87C1190.47 2254.87 1191.96 2254.68 1192.93 2254.31 1193.9 2253.93 1194.71 2253.35 1195.33 2252.56 1195.96 2251.76 1196.53 2250.65 1197.04 2249.21 1197.55 2247.77 1198.16 2245.54 1198.88 2242.52L1203.29 2242.52 1203.29 2259 1161.78 2259 1161.78 2256.8 1192.55 2201.82 1176.24 2201.82C1175.07 2201.82 1174.15 2201.92 1173.48 2202.11 1172.81 2202.3 1172.2 2202.6 1171.66 2203.01 1171.12 2203.41 1170.59 2204 1170.07 2204.78 1169.54 2205.56 1169.02 2206.63 1168.49 2207.99 1167.97 2209.36 1167.42 2211.06 1166.85 2213.09L1162.45 2213.09Z" fill-rule="evenodd"/><text fill="#000000" fill-opacity="0" font-family="Arial,Arial_MSFontService,sans-serif" font-size="61.3184" x="1161.78" y="2251.34">Z</text><path d="M1226.78 2235.57 1228.77 2235.57C1228.73 2236.77 1228.7 2237.84 1228.67 2238.79 1228.65 2239.74 1228.64 2240.66 1228.63 2241.55 1228.61 2242.45 1228.61 2243.33 1228.61 2244.2L1228.61 2269.07C1228.61 2269.74 1228.63 2270.33 1228.67 2270.82 1228.72 2271.31 1228.79 2271.72 1228.89 2272.06 1228.98 2272.4 1229.12 2272.69 1229.28 2272.93 1229.44 2273.17 1229.63 2273.37 1229.85 2273.55 1230.11 2273.81 1230.46 2274.01 1230.9 2274.15 1231.33 2274.3 1231.89 2274.42 1232.57 2274.51 1233.24 2274.61 1234.06 2274.69 1235 2274.74 1235.95 2274.8 1237.09 2274.84 1238.42 2274.86L1238.42 2277.7 1212.48 2277.7 1212.48 2274.86C1213.77 2274.81 1214.86 2274.76 1215.75 2274.71 1216.65 2274.66 1217.41 2274.58 1218.04 2274.48 1218.67 2274.38 1219.18 2274.27 1219.56 2274.15 1219.94 2274.03 1220.28 2273.89 1220.56 2273.71 1220.87 2273.52 1221.13 2273.3 1221.35 2273.07 1221.56 2272.85 1221.74 2272.56 1221.87 2272.21 1222 2271.86 1222.1 2271.43 1222.18 2270.93 1222.26 2270.43 1222.29 2269.81 1222.29 2269.07L1222.29 2245.61C1222.29 2244.76 1222.13 2244.16 1221.8 2243.81 1221.48 2243.46 1221.01 2243.29 1220.4 2243.29 1219.72 2243.29 1218.72 2243.64 1217.39 2244.33 1216.06 2245.03 1214.33 2246.07 1212.22 2247.44 1211.94 2246.94 1211.67 2246.44 1211.43 2245.94 1211.19 2245.44 1210.94 2244.92 1210.68 2244.4 1213.39 2242.92 1216.06 2241.44 1218.71 2239.97 1221.36 2238.49 1224.05 2237.03 1226.78 2235.57Z" fill-rule="evenodd"/><text fill="#000000" fill-opacity="0" font-family="Arial,Arial_MSFontService,sans-serif" font-size="42.1367" x="1210.68" y="2272.44">1</text><path d="M1254 2306C1254 2288.88 1268.1 2275 1285.5 2275 1302.9 2275 1317 2288.88 1317 2306 1317 2323.12 1302.9 2337 1285.5 2337 1268.1 2337 1254 2323.12 1254 2306Z" stroke="#0070C0" stroke-width="10.3125" stroke-miterlimit="8" fill="#FFFFFF" fill-rule="evenodd"/><path d="M1277.5 2306.5C1277.5 2302.08 1281.31 2298.5 1286 2298.5 1290.69 2298.5 1294.5 2302.08 1294.5 2306.5 1294.5 2310.92 1290.69 2314.5 1286 2314.5 1281.31 2314.5 1277.5 2310.92 1277.5 2306.5Z" stroke="#0070C0" stroke-width="1.14583" stroke-miterlimit="8" fill="#0070C0" fill-rule="evenodd"/><path d="M1187.31 1390.11 1227.83 1390.11 1227.83 1392.27 1197.1 1447.3 1213.32 1447.3C1215.33 1447.3 1216.82 1447.11 1217.79 1446.74 1218.76 1446.36 1219.56 1445.78 1220.19 1444.98 1220.82 1444.19 1221.39 1443.07 1221.9 1441.64 1222.41 1440.2 1223.02 1437.97 1223.74 1434.94L1228.14 1434.94 1228.14 1451.43 1186.64 1451.43 1186.64 1449.23 1217.41 1394.24 1201.1 1394.24C1199.93 1394.24 1199.01 1394.34 1198.34 1394.54 1197.67 1394.73 1197.06 1395.03 1196.52 1395.43 1195.98 1395.84 1195.45 1396.43 1194.93 1397.21 1194.4 1397.99 1193.88 1399.06 1193.35 1400.42 1192.83 1401.78 1192.28 1403.48 1191.71 1405.52L1187.31 1405.52Z" fill-rule="evenodd"/><text fill="#000000" fill-opacity="0" font-family="Arial,Arial_MSFontService,sans-serif" font-size="61.3184" x="1186.64" y="1443.77">Z</text><path d="M1251.22 1427.76C1253.48 1427.76 1255.42 1428.02 1257.02 1428.53 1258.63 1429.05 1259.93 1429.74 1260.93 1430.61 1261.94 1431.48 1262.66 1432.53 1263.11 1433.75 1263.55 1434.97 1263.78 1436.29 1263.78 1437.71 1263.78 1438.56 1263.72 1439.35 1263.6 1440.08 1263.48 1440.81 1263.27 1441.53 1262.98 1442.24 1262.68 1442.95 1262.3 1443.66 1261.82 1444.38 1261.34 1445.1 1260.74 1445.87 1260.02 1446.67 1259.47 1447.37 1258.76 1448.18 1257.89 1449.09 1257.02 1450.01 1256.06 1450.99 1255.03 1452.04 1253.99 1453.09 1252.91 1454.18 1251.77 1455.31 1250.64 1456.44 1249.54 1457.57 1248.47 1458.68 1247.4 1459.79 1246.42 1460.87 1245.52 1461.92 1244.63 1462.97 1243.9 1463.92 1243.33 1464.8L1255.44 1464.8C1256.46 1464.8 1257.28 1464.76 1257.89 1464.68 1258.5 1464.61 1259.01 1464.44 1259.41 1464.18 1259.81 1463.91 1260.16 1463.52 1260.44 1462.98 1260.73 1462.45 1261.05 1461.71 1261.42 1460.77L1264.47 1460.77C1264.36 1462.32 1264.25 1463.88 1264.15 1465.45 1264.06 1467.02 1263.95 1468.58 1263.84 1470.13L1236.13 1470.13 1236.13 1468.43C1236.66 1467.25 1237.27 1466.09 1237.97 1464.94 1238.66 1463.8 1239.45 1462.64 1240.32 1461.46 1241.19 1460.28 1242.19 1459.07 1243.3 1457.81 1244.41 1456.56 1245.64 1455.26 1247 1453.9 1249.05 1451.85 1250.71 1450.1 1252 1448.65 1253.29 1447.2 1254.3 1445.91 1255.04 1444.78 1255.79 1443.64 1256.29 1442.59 1256.56 1441.64 1256.84 1440.68 1256.97 1439.65 1256.97 1438.56 1256.97 1437.45 1256.82 1436.42 1256.5 1435.48 1256.18 1434.55 1255.73 1433.75 1255.14 1433.1 1254.55 1432.44 1253.81 1431.93 1252.9 1431.56 1252 1431.19 1250.95 1431 1249.78 1431 1247.75 1431 1246.05 1431.55 1244.67 1432.66 1243.3 1433.76 1242.23 1435.35 1241.47 1437.45L1237.18 1437.45 1237.18 1431.07C1239.97 1429.91 1242.54 1429.07 1244.89 1428.55 1247.23 1428.03 1249.34 1427.76 1251.22 1427.76Z" fill-rule="evenodd"/><text fill="#000000" fill-opacity="0" font-family="Arial,Arial_MSFontService,sans-serif" font-size="42.3657" x="1236.13" y="1464.83">2</text><path d="M1280 1540C1262.88 1540 1249 1525.9 1249 1508.5 1249 1491.1 1262.88 1477 1280 1477 1297.12 1477 1311 1491.1 1311 1508.5 1311 1525.9 1297.12 1540 1280 1540Z" stroke="#0070C0" stroke-width="10.3125" stroke-miterlimit="8" fill="#FFFFFF" fill-rule="evenodd"/><path d="M1280.5 1517.5C1276.08 1517.5 1272.5 1513.69 1272.5 1509 1272.5 1504.31 1276.08 1500.5 1280.5 1500.5 1284.92 1500.5 1288.5 1504.31 1288.5 1509 1288.5 1513.69 1284.92 1517.5 1280.5 1517.5Z" stroke="#0070C0" stroke-width="1.14583" stroke-miterlimit="8" fill="#0070C0" fill-rule="evenodd"/><path d="M6.875-1.28739e-05 6.8753 158.351-6.8747 158.351-6.875 1.28739e-05ZM20.6253 151.476 0.000360892 192.726-20.6247 151.476Z" fill="#0070C0" transform="matrix(1 0 0 -1 1680 2813.73)"/><path d="M1.31964e-05-6.875 153.641-6.87471 153.641 6.87529-1.31964e-05 6.875ZM146.766-20.6247 188.016 0.000360892 146.766 20.6253Z" fill="#FF0000" transform="matrix(-1 0 0 1 1676.02 2807)"/><path d="M1630.19 2519.05 1670.71 2519.05 1670.71 2521.21 1639.99 2576.24 1656.2 2576.24C1658.21 2576.24 1659.7 2576.05 1660.67 2575.68 1661.65 2575.3 1662.45 2574.72 1663.08 2573.92 1663.71 2573.13 1664.27 2572.01 1664.78 2570.58 1665.29 2569.14 1665.91 2566.91 1666.63 2563.88L1671.03 2563.88 1671.03 2580.37 1629.52 2580.37 1629.52 2578.17 1660.29 2523.18 1643.99 2523.18C1642.82 2523.18 1641.9 2523.28 1641.22 2523.48 1640.55 2523.67 1639.94 2523.97 1639.4 2524.38 1638.86 2524.78 1638.33 2525.37 1637.81 2526.15 1637.28 2526.93 1636.76 2528 1636.24 2529.36 1635.71 2530.72 1635.17 2532.42 1634.6 2534.46L1630.19 2534.46Z" fill-rule="evenodd"/><text fill="#000000" fill-opacity="0" font-family="Arial,Arial_MSFontService,sans-serif" font-size="61.3184" x="1629.52" y="2572.71">Z</text><path d="M1693.97 2559.88C1692.44 2559.88 1691.17 2560.28 1690.14 2561.07 1689.12 2561.87 1688.3 2563.03 1687.7 2564.57 1687.1 2566.11 1686.68 2567.99 1686.43 2570.2 1686.18 2572.41 1686.05 2574.93 1686.05 2577.74 1686.05 2580.99 1686.21 2583.8 1686.53 2586.16 1686.84 2588.53 1687.33 2590.48 1688 2592 1688.66 2593.53 1689.5 2594.65 1690.5 2595.37 1691.5 2596.09 1692.7 2596.45 1694.1 2596.45 1695.41 2596.45 1696.55 2596.11 1697.53 2595.44 1698.52 2594.76 1699.33 2593.71 1699.97 2592.28 1700.61 2590.85 1701.1 2589.04 1701.43 2586.85 1701.75 2584.66 1701.92 2582.07 1701.92 2579.08 1701.92 2575.72 1701.74 2572.83 1701.38 2570.41 1701.02 2567.99 1700.51 2566 1699.86 2564.44 1699.2 2562.88 1698.38 2561.73 1697.39 2560.99 1696.39 2560.25 1695.26 2559.88 1693.97 2559.88ZM1694.1 2556.7C1696.69 2556.7 1698.91 2557.19 1700.76 2558.16 1702.6 2559.13 1704.1 2560.52 1705.27 2562.31 1706.44 2564.11 1707.29 2566.31 1707.84 2568.91 1708.38 2571.5 1708.66 2574.44 1708.66 2577.71 1708.66 2584.97 1707.37 2590.46 1704.8 2594.18 1702.22 2597.9 1698.49 2599.76 1693.61 2599.76 1688.77 2599.76 1685.17 2598 1682.81 2594.49 1680.46 2590.98 1679.28 2585.66 1679.28 2578.53 1679.28 2574.8 1679.64 2571.57 1680.38 2568.84 1681.11 2566.12 1682.13 2563.85 1683.45 2562.05 1684.77 2560.25 1686.33 2558.91 1688.15 2558.03 1689.96 2557.15 1691.94 2556.7 1694.1 2556.7Z" fill-rule="evenodd"/><text fill="#000000" fill-opacity="0" font-family="Arial,Arial_MSFontService,sans-serif" font-size="43.0527" x="1679.28" y="2594.38">0</text><path d="M1725.91 2713.7 1745.05 2713.7 1745.05 2715.9C1742.23 2716.23 1740.82 2717.44 1740.82 2719.54 1740.82 2720.4 1741.03 2721.38 1741.43 2722.46 1741.83 2723.53 1742.56 2725.06 1743.61 2727.04L1752.59 2744.15 1761.44 2728.52C1762.64 2726.39 1763.49 2724.65 1763.98 2723.29 1764.48 2721.92 1764.72 2720.67 1764.72 2719.54 1764.72 2718.46 1764.4 2717.61 1763.76 2717 1763.11 2716.38 1762.16 2716.02 1760.9 2715.9L1760.9 2713.7 1777.93 2713.7 1777.93 2715.9C1776.7 2716.35 1775.62 2716.97 1774.69 2717.76 1773.77 2718.55 1772.82 2719.63 1771.86 2720.97 1770.91 2722.32 1769.5 2724.6 1767.64 2727.8L1755.15 2749.09 1755.15 2763.65C1755.15 2765.36 1755.24 2766.73 1755.42 2767.78 1755.6 2768.83 1755.9 2769.67 1756.32 2770.3 1756.74 2770.93 1757.3 2771.42 1757.98 2771.78 1758.67 2772.14 1759.75 2772.48 1761.22 2772.81L1761.22 2775.01 1740.69 2775.01 1740.69 2772.81C1742.13 2772.51 1743.19 2772.19 1743.88 2771.85 1744.57 2771.5 1745.12 2771.01 1745.54 2770.36 1745.96 2769.72 1746.27 2768.87 1746.46 2767.83 1746.66 2766.78 1746.75 2765.39 1746.75 2763.65L1746.75 2749.27 1734.36 2726.23C1732.86 2723.44 1731.72 2721.45 1730.94 2720.25 1730.16 2719.06 1729.38 2718.11 1728.61 2717.42 1727.83 2716.74 1726.93 2716.23 1725.91 2715.9Z" fill-rule="evenodd"/><text fill="#000000" fill-opacity="0" font-family="Arial,Arial_MSFontService,sans-serif" font-size="61.3184" x="1725.91" y="2767.35">Y</text><path d="M1789.92 2754.52C1788.4 2754.52 1787.12 2754.92 1786.09 2755.72 1785.07 2756.51 1784.26 2757.68 1783.66 2759.22 1783.06 2760.75 1782.63 2762.63 1782.38 2764.84 1782.13 2767.06 1782.01 2769.57 1782.01 2772.38 1782.01 2775.63 1782.16 2778.44 1782.48 2780.81 1782.8 2783.17 1783.29 2785.12 1783.95 2786.65 1784.62 2788.17 1785.45 2789.3 1786.45 2790.02 1787.46 2790.74 1788.66 2791.1 1790.05 2791.1 1791.36 2791.1 1792.51 2790.76 1793.49 2790.08 1794.47 2789.41 1795.28 2788.35 1795.93 2786.93 1796.57 2785.5 1797.05 2783.69 1797.38 2781.5 1797.71 2779.3 1797.87 2776.71 1797.87 2773.73 1797.87 2770.37 1797.69 2767.48 1797.33 2765.06 1796.97 2762.64 1796.46 2760.64 1795.81 2759.09 1795.16 2757.53 1794.33 2756.38 1793.34 2755.63 1792.35 2754.89 1791.21 2754.52 1789.92 2754.52ZM1790.05 2751.35C1792.65 2751.35 1794.87 2751.83 1796.71 2752.8 1798.55 2753.77 1800.06 2755.16 1801.22 2756.96 1802.39 2758.76 1803.25 2760.96 1803.79 2763.55 1804.34 2766.15 1804.61 2769.08 1804.61 2772.35 1804.61 2779.61 1803.32 2785.1 1800.75 2788.82 1798.18 2792.54 1794.45 2794.4 1789.56 2794.4 1784.72 2794.4 1781.12 2792.65 1778.77 2789.13 1776.41 2785.62 1775.23 2780.3 1775.23 2773.17 1775.23 2769.44 1775.6 2766.21 1776.33 2763.49 1777.06 2760.76 1778.08 2758.5 1779.4 2756.7 1780.72 2754.9 1782.29 2753.56 1784.1 2752.67 1785.91 2751.79 1787.89 2751.35 1790.05 2751.35Z" fill-rule="evenodd"/><text fill="#000000" fill-opacity="0" font-family="Arial,Arial_MSFontService,sans-serif" font-size="43.0527" x="1775.23" y="2789.02">0</text><path d="M1418.73 2785.89 1437.87 2785.89 1437.87 2788.1C1436.43 2788.3 1435.4 2788.69 1434.77 2789.26 1434.14 2789.83 1433.83 2790.61 1433.83 2791.6 1433.83 2792.44 1434.11 2793.49 1434.68 2794.74 1435.25 2796 1436.06 2797.5 1437.11 2799.24L1443.62 2810.15 1450.04 2799.77C1451 2798.22 1451.72 2796.97 1452.2 2796.05 1452.68 2795.12 1453.02 2794.34 1453.21 2793.71 1453.41 2793.08 1453.5 2792.44 1453.5 2791.78 1453.5 2790.85 1453.23 2790.06 1452.69 2789.42 1452.16 2788.78 1451.26 2788.33 1450 2788.1L1450 2785.89 1466.67 2785.89 1466.67 2788.1C1465.56 2788.45 1464.56 2788.98 1463.68 2789.67 1462.79 2790.36 1461.85 2791.36 1460.85 2792.68 1459.84 2793.99 1458.41 2796.08 1456.56 2798.92L1446.41 2814.64 1457.82 2833.42C1459.43 2836.09 1460.59 2837.95 1461.3 2839.01 1462 2840.08 1462.66 2840.98 1463.27 2841.71 1463.89 2842.44 1464.55 2843.08 1465.25 2843.62 1465.95 2844.16 1466.83 2844.62 1467.88 2845.01L1467.88 2847.21 1448.16 2847.21 1448.16 2845.01C1449.54 2844.77 1450.55 2844.39 1451.21 2843.87 1451.87 2843.34 1452.2 2842.56 1452.2 2841.51 1452.2 2840.67 1451.98 2839.74 1451.55 2838.72 1451.11 2837.7 1450.45 2836.45 1449.55 2834.95L1441.42 2821.38 1432.84 2835.44C1431.4 2837.81 1430.68 2839.76 1430.68 2841.28 1430.68 2842.27 1430.95 2843.08 1431.49 2843.71 1432.03 2844.34 1432.93 2844.77 1434.19 2845.01L1434.19 2847.21 1417.21 2847.21 1417.21 2845.01C1418.31 2844.68 1419.23 2844.28 1419.95 2843.82 1420.67 2843.36 1421.35 2842.77 1422.01 2842.05 1422.67 2841.33 1423.41 2840.41 1424.21 2839.31 1425.02 2838.2 1426.31 2836.27 1428.08 2833.51L1438.68 2816.98 1426.01 2796.14C1424.81 2794.22 1423.91 2792.83 1423.29 2791.96 1422.68 2791.09 1422.11 2790.39 1421.59 2789.85 1421.06 2789.31 1420.59 2788.93 1420.17 2788.7 1419.75 2788.48 1419.27 2788.27 1418.73 2788.1Z" fill-rule="evenodd"/><text fill="#000000" fill-opacity="0" font-family="Arial,Arial_MSFontService,sans-serif" font-size="61.3184" x="1417.21" y="2839.55">X</text><path d="M1490.48 2826.72C1488.95 2826.72 1487.68 2827.12 1486.65 2827.91 1485.63 2828.71 1484.81 2829.88 1484.21 2831.41 1483.61 2832.95 1483.19 2834.83 1482.94 2837.04 1482.69 2839.26 1482.56 2841.77 1482.56 2844.58 1482.56 2847.83 1482.72 2850.64 1483.04 2853.01 1483.35 2855.37 1483.84 2857.32 1484.51 2858.85 1485.17 2860.37 1486.01 2861.5 1487.01 2862.22 1488.02 2862.94 1489.21 2863.3 1490.61 2863.3 1491.92 2863.3 1493.06 2862.96 1494.05 2862.28 1495.03 2861.61 1495.84 2860.55 1496.48 2859.12 1497.13 2857.7 1497.61 2855.89 1497.94 2853.69 1498.27 2851.5 1498.43 2848.91 1498.43 2845.92 1498.43 2842.57 1498.25 2839.68 1497.89 2837.25 1497.53 2834.83 1497.02 2832.84 1496.37 2831.28 1495.71 2829.72 1494.89 2828.57 1493.9 2827.83 1492.91 2827.09 1491.77 2826.72 1490.48 2826.72ZM1490.61 2823.55C1493.21 2823.55 1495.42 2824.03 1497.27 2825 1499.11 2825.97 1500.62 2827.36 1501.78 2829.16 1502.95 2830.96 1503.81 2833.15 1504.35 2835.75 1504.9 2838.34 1505.17 2841.28 1505.17 2844.55 1505.17 2851.81 1503.88 2857.3 1501.31 2861.02 1498.73 2864.74 1495.01 2866.6 1490.12 2866.6 1485.28 2866.6 1481.68 2864.84 1479.32 2861.33 1476.97 2857.82 1475.79 2852.5 1475.79 2845.37 1475.79 2841.64 1476.16 2838.41 1476.89 2835.68 1477.62 2832.96 1478.64 2830.7 1479.96 2828.9 1481.28 2827.1 1482.85 2825.76 1484.66 2824.87 1486.47 2823.99 1488.45 2823.55 1490.61 2823.55Z" fill-rule="evenodd"/><text fill="#000000" fill-opacity="0" font-family="Arial,Arial_MSFontService,sans-serif" font-size="43.0527" x="1475.79" y="2861.22">0</text><path d="M1648 2807C1648 2789.88 1662.1 2776 1679.5 2776 1696.9 2776 1711 2789.88 1711 2807 1711 2824.12 1696.9 2838 1679.5 2838 1662.1 2838 1648 2824.12 1648 2807Z" stroke="#4EA72E" stroke-width="10.3125" stroke-miterlimit="8" fill="#FFFFFF" fill-rule="evenodd"/><path d="M1672.5 2807.5C1672.5 2803.08 1676.08 2799.5 1680.5 2799.5 1684.92 2799.5 1688.5 2803.08 1688.5 2807.5 1688.5 2811.92 1684.92 2815.5 1680.5 2815.5 1676.08 2815.5 1672.5 2811.92 1672.5 2807.5Z" stroke="#4EA72E" stroke-width="1.14583" stroke-miterlimit="8" fill="#4EA72E" fill-rule="evenodd"/><path d="M6.875-1.05822e-05 6.87531 200.089-6.87469 200.089-6.875 1.05822e-05ZM20.6253 193.214 0.000360892 234.464-20.6247 193.214Z" fill="#0070C0" transform="matrix(1 0 0 -1 1683 3220.46)"/><path d="M1679 3208.12 1835.43 3208.13 1835.43 3221.88 1679 3221.88ZM1828.56 3194.38 1869.81 3215 1828.56 3235.63Z" fill="#FF0000"/><path d="M1699.37 3076 1739.89 3076 1739.89 3078.16 1709.17 3133.19 1725.38 3133.19C1727.39 3133.19 1728.88 3133 1729.85 3132.63 1730.83 3132.25 1731.63 3131.67 1732.26 3130.87 1732.89 3130.08 1733.45 3128.97 1733.96 3127.53 1734.47 3126.09 1735.09 3123.86 1735.81 3120.83L1740.21 3120.83 1740.21 3137.32 1698.7 3137.32 1698.7 3135.12 1729.47 3080.14 1713.16 3080.14C1712 3080.14 1711.08 3080.23 1710.4 3080.43 1709.73 3080.62 1709.12 3080.92 1708.58 3081.33 1708.04 3081.73 1707.51 3082.32 1706.99 3083.1 1706.46 3083.88 1705.94 3084.95 1705.42 3086.31 1704.89 3087.67 1704.35 3089.37 1703.78 3091.41L1699.37 3091.41Z" fill-rule="evenodd"/><text fill="#000000" fill-opacity="0" font-family="Arial,Arial_MSFontService,sans-serif" font-size="61.3184" x="1698.7" y="3129.66">Z</text><path d="M1813.7 3140.32C1808.85 3140.43 1805.3 3141.05 1803.03 3142.18 1800.76 3143.32 1799.63 3145.04 1799.63 3147.35 1799.63 3149.14 1800.14 3150.43 1801.15 3151.23 1802.16 3152.02 1803.55 3152.42 1805.32 3152.42 1806.56 3152.42 1807.7 3152.2 1808.72 3151.77 1809.75 3151.33 1810.63 3150.77 1811.36 3150.08 1812.09 3149.4 1812.66 3148.63 1813.07 3147.79 1813.49 3146.95 1813.7 3146.13 1813.7 3145.32ZM1759.45 3134.69 1759.45 3152.29C1760.19 3152.36 1761.05 3152.41 1762.02 3152.44 1762.99 3152.47 1764.04 3152.49 1765.18 3152.49 1767.18 3152.49 1768.93 3152.33 1770.41 3152.01 1771.89 3151.7 1773.12 3151.18 1774.09 3150.46 1775.06 3149.74 1775.79 3148.8 1776.27 3147.65 1776.75 3146.49 1776.99 3145.08 1776.99 3143.43 1776.99 3141.88 1776.75 3140.55 1776.27 3139.45 1775.79 3138.35 1775.05 3137.44 1774.06 3136.74 1773.07 3136.03 1771.8 3135.51 1770.25 3135.18 1768.7 3134.85 1766.86 3134.69 1764.72 3134.69ZM1879.25 3125.86C1878.07 3125.86 1877.01 3126.09 1876.06 3126.56 1875.11 3127.03 1874.28 3127.71 1873.57 3128.61 1872.86 3129.5 1872.28 3130.6 1871.84 3131.89 1871.39 3133.19 1871.1 3134.66 1870.97 3136.29L1886.15 3136.29C1885.93 3132.74 1885.28 3130.11 1884.2 3128.41 1883.12 3126.71 1881.47 3125.86 1879.25 3125.86ZM1879.64 3122.62C1881.95 3122.62 1883.95 3122.97 1885.63 3123.68 1887.3 3124.39 1888.67 3125.37 1889.71 3126.61 1890.24 3127.22 1890.71 3127.92 1891.12 3128.7 1891.54 3129.49 1891.89 3130.4 1892.18 3131.44 1892.48 3132.47 1892.71 3133.66 1892.87 3134.99 1893.04 3136.32 1893.14 3137.83 1893.18 3139.53L1870.77 3139.53 1870.77 3139.83C1870.77 3143.95 1871.54 3147.04 1873.08 3149.09 1874.62 3151.14 1877.05 3152.16 1880.39 3152.16 1881.29 3152.16 1882.14 3152.07 1882.96 3151.88 1883.78 3151.7 1884.59 3151.41 1885.4 3151.02 1886.2 3150.62 1887.02 3150.12 1887.83 3149.49 1888.65 3148.87 1889.51 3148.14 1890.4 3147.29L1892.69 3150C1891.47 3151.2 1890.31 3152.22 1889.21 3153.06 1888.11 3153.9 1887.01 3154.58 1885.92 3155.1 1884.83 3155.63 1883.72 3156.01 1882.58 3156.25 1881.45 3156.49 1880.25 3156.61 1878.98 3156.61 1874.01 3156.61 1870.27 3155.19 1867.76 3152.34 1865.26 3149.49 1864 3145.3 1864 3139.76 1864 3137.21 1864.37 3134.88 1865.11 3132.78 1865.85 3130.67 1866.91 3128.87 1868.29 3127.36 1869.66 3125.86 1871.31 3124.69 1873.23 3123.86 1875.15 3123.03 1877.28 3122.62 1879.64 3122.62ZM1844.74 3122.62C1845.5 3122.62 1846.25 3122.64 1846.98 3122.67 1847.71 3122.7 1848.48 3122.77 1849.27 3122.86 1850.07 3122.96 1850.93 3123.09 1851.86 3123.24 1852.78 3123.39 1853.83 3123.59 1854.98 3123.83L1854.98 3131.12 1851.22 3131.12C1850.89 3130.21 1850.5 3129.42 1850.06 3128.75 1849.61 3128.09 1849.09 3127.54 1848.5 3127.12 1847.91 3126.69 1847.23 3126.38 1846.46 3126.17 1845.68 3125.96 1844.8 3125.86 1843.79 3125.86 1841.92 3125.86 1840.43 3126.25 1839.34 3127.04 1838.25 3127.82 1837.71 3128.94 1837.71 3130.41 1837.71 3131.02 1837.78 3131.56 1837.94 3132.04 1838.09 3132.52 1838.43 3133.01 1838.95 3133.5 1839.47 3133.99 1840.25 3134.51 1841.27 3135.05 1842.3 3135.6 1843.68 3136.23 1845.43 3136.95 1847.17 3137.65 1848.67 3138.32 1849.91 3138.98 1851.15 3139.63 1852.18 3140.33 1852.99 3141.07 1853.79 3141.81 1854.38 3142.64 1854.75 3143.56 1855.12 3144.47 1855.31 3145.53 1855.31 3146.73 1855.31 3148.43 1855.01 3149.9 1854.41 3151.13 1853.81 3152.36 1852.94 3153.39 1851.81 3154.21 1850.67 3155.02 1849.29 3155.63 1847.65 3156.02 1846.02 3156.41 1844.17 3156.61 1842.12 3156.61 1838.22 3156.61 1834.4 3156.08 1830.67 3155.01L1830.67 3147.55 1834.37 3147.55C1835.03 3149.62 1835.97 3151.12 1837.22 3152.05 1838.46 3152.97 1840.18 3153.44 1842.39 3153.44 1843.32 3153.44 1844.19 3153.34 1844.99 3153.14 1845.78 3152.95 1846.48 3152.64 1847.06 3152.23 1847.65 3151.81 1848.12 3151.29 1848.45 3150.66 1848.79 3150.02 1848.96 3149.27 1848.96 3148.4 1848.96 3147.88 1848.91 3147.41 1848.8 3147.01 1848.69 3146.6 1848.52 3146.23 1848.29 3145.88 1848.06 3145.53 1847.77 3145.2 1847.41 3144.88 1847.05 3144.57 1846.62 3144.25 1846.12 3143.95 1844.94 3143.27 1843.75 3142.67 1842.57 3142.13 1841.38 3141.6 1840.24 3141.08 1839.15 3140.56 1838.06 3140.05 1837.04 3139.53 1836.09 3139.01 1835.14 3138.49 1834.31 3137.89 1833.6 3137.23 1832.89 3136.56 1832.34 3135.8 1831.93 3134.95 1831.53 3134.1 1831.33 3133.11 1831.33 3131.98 1831.33 3130.38 1831.67 3129 1832.34 3127.82 1833.02 3126.64 1833.96 3125.67 1835.16 3124.91 1836.36 3124.15 1837.77 3123.57 1839.41 3123.19 1841.04 3122.81 1842.82 3122.62 1844.74 3122.62ZM1810.03 3122.62C1811.71 3122.66 1813.18 3122.85 1814.43 3123.19 1815.69 3123.53 1816.73 3124.11 1817.57 3124.94 1818.41 3125.77 1819.04 3126.89 1819.47 3128.3 1819.89 3129.7 1820.12 3131.48 1820.14 3133.64L1820.14 3146.14C1820.14 3147.56 1820.13 3148.7 1820.11 3149.58 1820.09 3150.45 1820.18 3151.16 1820.4 3151.7 1820.62 3152.25 1821.01 3152.68 1821.58 3152.99 1822.15 3153.31 1823.01 3153.62 1824.16 3153.93L1824.16 3156.02 1814.09 3156.02C1814.13 3155.21 1814.16 3154.41 1814.19 3153.6 1814.21 3152.79 1814.24 3152.01 1814.28 3151.24 1814.22 3151.2 1814.15 3151.17 1814.09 3151.16 1814.02 3151.15 1813.94 3151.12 1813.83 3151.08 1812.8 3152.08 1811.83 3152.93 1810.9 3153.63 1809.97 3154.33 1809.04 3154.9 1808.12 3155.35 1807.19 3155.8 1806.25 3156.12 1805.3 3156.32 1804.36 3156.51 1803.37 3156.61 1802.34 3156.61 1800.93 3156.61 1799.64 3156.4 1798.5 3155.99 1797.35 3155.57 1796.38 3154.99 1795.59 3154.24 1794.79 3153.49 1794.18 3152.6 1793.76 3151.57 1793.33 3150.55 1793.12 3149.41 1793.12 3148.17 1793.12 3144.81 1794.84 3142.24 1798.27 3140.45 1801.71 3138.66 1806.85 3137.59 1813.7 3137.24L1813.7 3134.89C1813.7 3133.27 1813.57 3131.9 1813.32 3130.78 1813.07 3129.66 1812.68 3128.75 1812.14 3128.05 1811.61 3127.35 1810.9 3126.84 1810.03 3126.53 1809.16 3126.21 1808.1 3126.05 1806.86 3126.05 1805.14 3126.05 1803.68 3126.51 1802.51 3127.43 1801.33 3128.34 1800.46 3129.79 1799.89 3131.78L1795.05 3131.78 1795.05 3126.81C1796.62 3126.07 1798.06 3125.43 1799.37 3124.91 1800.67 3124.39 1801.92 3123.96 1803.11 3123.62 1804.3 3123.28 1805.46 3123.03 1806.58 3122.88 1807.7 3122.73 1808.85 3122.64 1810.03 3122.62ZM1766.29 3115C1765.79 3115 1765.24 3115 1764.64 3115.01 1764.04 3115.02 1763.44 3115.03 1762.84 3115.05 1762.24 3115.06 1761.64 3115.07 1761.05 3115.08 1760.47 3115.09 1759.93 3115.11 1759.45 3115.13L1759.45 3131.12 1765.63 3131.12C1769.12 3131.12 1771.8 3130.37 1773.65 3128.87 1775.5 3127.36 1776.43 3125.15 1776.43 3122.23 1776.43 3120.96 1776.2 3119.87 1775.74 3118.96 1775.29 3118.04 1774.62 3117.29 1773.75 3116.7 1772.88 3116.11 1771.81 3115.68 1770.56 3115.41 1769.3 3115.13 1767.88 3115 1766.29 3115ZM1748.26 3111.37 1767.89 3111.37C1770.73 3111.37 1773.16 3111.58 1775.19 3112 1777.22 3112.43 1778.88 3113.07 1780.18 3113.92 1781.47 3114.77 1782.43 3115.83 1783.04 3117.09 1783.65 3118.36 1783.95 3119.84 1783.95 3121.54 1783.95 3124.11 1783.2 3126.27 1781.7 3128 1780.19 3129.73 1778.03 3131.17 1775.22 3132.3L1775.22 3132.7C1778.32 3133.68 1780.63 3135.06 1782.17 3136.83 1783.71 3138.61 1784.48 3140.76 1784.48 3143.29 1784.48 3147.64 1782.96 3150.84 1779.93 3152.91 1776.9 3154.99 1772.53 3156.02 1766.81 3156.02L1748.26 3156.02 1748.26 3153.93C1749.31 3153.6 1750.12 3153.33 1750.68 3153.13 1751.25 3152.92 1751.67 3152.62 1751.93 3152.24 1752.19 3151.86 1752.34 3151.33 1752.37 3150.64 1752.4 3149.95 1752.42 3148.97 1752.42 3147.68L1752.42 3119.71C1752.42 3118.38 1752.39 3117.37 1752.34 3116.68 1752.28 3115.99 1752.12 3115.47 1751.86 3115.11 1751.6 3114.75 1751.19 3114.48 1750.63 3114.29 1750.08 3114.11 1749.29 3113.85 1748.26 3113.52Z" fill-rule="evenodd"/><text fill="#000000" fill-opacity="0" font-family="Arial,Arial_MSFontService,sans-serif" font-size="45.2446" x="1748.26" y="3150.95">Base</text><path d="M1526.56 3239.38 1545.69 3239.38 1545.69 3241.58C1542.88 3241.91 1541.47 3243.12 1541.47 3245.21 1541.47 3246.08 1541.67 3247.06 1542.08 3248.13 1542.48 3249.21 1543.21 3250.74 1544.26 3252.72L1553.24 3269.83 1562.09 3254.2C1563.29 3252.07 1564.13 3250.33 1564.63 3248.97 1565.12 3247.6 1565.37 3246.35 1565.37 3245.21 1565.37 3244.14 1565.05 3243.29 1564.4 3242.68 1563.76 3242.06 1562.81 3241.7 1561.55 3241.58L1561.55 3239.38 1578.58 3239.38 1578.58 3241.58C1577.35 3242.03 1576.27 3242.65 1575.34 3243.44 1574.41 3244.23 1573.47 3245.3 1572.51 3246.65 1571.55 3248 1570.15 3250.28 1568.29 3253.48L1555.8 3274.77 1555.8 3289.33C1555.8 3291.04 1555.89 3292.41 1556.07 3293.46 1556.25 3294.51 1556.55 3295.35 1556.97 3295.98 1557.39 3296.61 1557.94 3297.1 1558.63 3297.46 1559.32 3297.82 1560.4 3298.16 1561.87 3298.49L1561.87 3300.69 1541.34 3300.69 1541.34 3298.49C1542.77 3298.19 1543.84 3297.87 1544.53 3297.53 1545.21 3297.18 1545.77 3296.69 1546.19 3296.04 1546.61 3295.4 1546.91 3294.55 1547.11 3293.51 1547.3 3292.46 1547.4 3291.07 1547.4 3289.33L1547.4 3274.95 1535 3251.91C1533.5 3249.12 1532.37 3247.13 1531.59 3245.93 1530.81 3244.74 1530.03 3243.79 1529.25 3243.1 1528.47 3242.41 1527.57 3241.91 1526.56 3241.58Z" fill-rule="evenodd"/><text fill="#000000" fill-opacity="0" font-family="Arial,Arial_MSFontService,sans-serif" font-size="61.3184" x="1526.56" y="3293.03">Y</text><path d="M1641.12 3303.69C1636.27 3303.8 1632.72 3304.42 1630.45 3305.55 1628.18 3306.69 1627.05 3308.41 1627.05 3310.72 1627.05 3312.51 1627.56 3313.8 1628.57 3314.6 1629.58 3315.4 1630.97 3315.79 1632.74 3315.79 1633.98 3315.79 1635.12 3315.58 1636.14 3315.14 1637.17 3314.7 1638.05 3314.14 1638.78 3313.46 1639.51 3312.77 1640.08 3312.01 1640.49 3311.17 1640.91 3310.33 1641.12 3309.5 1641.12 3308.7ZM1586.87 3298.06 1586.87 3315.66C1587.61 3315.73 1588.47 3315.78 1589.44 3315.81 1590.41 3315.84 1591.46 3315.86 1592.6 3315.86 1594.6 3315.86 1596.35 3315.7 1597.83 3315.39 1599.31 3315.07 1600.54 3314.55 1601.51 3313.83 1602.48 3313.11 1603.21 3312.17 1603.69 3311.02 1604.17 3309.86 1604.41 3308.46 1604.41 3306.8 1604.41 3305.25 1604.17 3303.92 1603.69 3302.82 1603.21 3301.72 1602.47 3300.82 1601.48 3300.11 1600.49 3299.4 1599.22 3298.88 1597.67 3298.55 1596.12 3298.23 1594.28 3298.06 1592.14 3298.06ZM1706.67 3289.23C1705.49 3289.23 1704.43 3289.46 1703.48 3289.93 1702.53 3290.4 1701.7 3291.08 1700.99 3291.98 1700.28 3292.87 1699.7 3293.97 1699.26 3295.27 1698.81 3296.56 1698.52 3298.03 1698.39 3299.67L1713.57 3299.67C1713.35 3296.11 1712.7 3293.48 1711.62 3291.78 1710.54 3290.08 1708.89 3289.23 1706.67 3289.23ZM1707.06 3285.99C1709.37 3285.99 1711.37 3286.35 1713.05 3287.05 1714.73 3287.76 1716.09 3288.74 1717.14 3289.98 1717.66 3290.59 1718.13 3291.29 1718.54 3292.08 1718.96 3292.86 1719.31 3293.77 1719.61 3294.81 1719.9 3295.84 1720.13 3297.03 1720.29 3298.36 1720.46 3299.69 1720.56 3301.2 1720.6 3302.91L1698.19 3302.91 1698.19 3303.2C1698.19 3307.32 1698.96 3310.41 1700.5 3312.46 1702.04 3314.51 1704.47 3315.53 1707.81 3315.53 1708.71 3315.53 1709.56 3315.44 1710.38 3315.25 1711.2 3315.07 1712.01 3314.78 1712.82 3314.39 1713.62 3314 1714.44 3313.49 1715.25 3312.87 1716.07 3312.25 1716.93 3311.51 1717.82 3310.66L1720.11 3313.37C1718.89 3314.57 1717.73 3315.59 1716.63 3316.43 1715.53 3317.27 1714.43 3317.95 1713.34 3318.48 1712.25 3319 1711.14 3319.38 1710 3319.62 1708.87 3319.86 1707.67 3319.98 1706.41 3319.98 1701.43 3319.98 1697.69 3318.56 1695.18 3315.71 1692.68 3312.87 1691.42 3308.67 1691.42 3303.13 1691.42 3300.58 1691.79 3298.25 1692.53 3296.15 1693.28 3294.04 1694.33 3292.24 1695.71 3290.74 1697.08 3289.23 1698.73 3288.06 1700.65 3287.23 1702.57 3286.41 1704.7 3285.99 1707.06 3285.99ZM1672.16 3285.99C1672.93 3285.99 1673.67 3286.01 1674.4 3286.04 1675.13 3286.07 1675.9 3286.14 1676.69 3286.24 1677.49 3286.33 1678.35 3286.46 1679.28 3286.61 1680.2 3286.77 1681.25 3286.96 1682.4 3287.2L1682.4 3294.5 1678.64 3294.5C1678.31 3293.58 1677.93 3292.79 1677.48 3292.13 1677.03 3291.46 1676.51 3290.92 1675.92 3290.49 1675.34 3290.06 1674.65 3289.75 1673.88 3289.54 1673.11 3289.33 1672.22 3289.23 1671.21 3289.23 1669.34 3289.23 1667.85 3289.62 1666.76 3290.41 1665.67 3291.19 1665.13 3292.32 1665.13 3293.78 1665.13 3294.39 1665.2 3294.93 1665.36 3295.41 1665.51 3295.89 1665.85 3296.38 1666.37 3296.87 1666.89 3297.36 1667.67 3297.88 1668.69 3298.42 1669.72 3298.97 1671.1 3299.6 1672.85 3300.32 1674.59 3301.02 1676.09 3301.69 1677.33 3302.35 1678.57 3303 1679.6 3303.7 1680.41 3304.44 1681.21 3305.18 1681.8 3306.01 1682.17 3306.93 1682.54 3307.84 1682.73 3308.9 1682.73 3310.1 1682.73 3311.8 1682.43 3313.27 1681.83 3314.5 1681.23 3315.73 1680.36 3316.76 1679.23 3317.58 1678.09 3318.4 1676.71 3319 1675.07 3319.39 1673.44 3319.79 1671.59 3319.98 1669.54 3319.98 1665.64 3319.98 1661.82 3319.45 1658.09 3318.38L1658.09 3310.92 1661.79 3310.92C1662.45 3312.99 1663.39 3314.49 1664.64 3315.42 1665.88 3316.35 1667.6 3316.81 1669.81 3316.81 1670.74 3316.81 1671.61 3316.71 1672.41 3316.51 1673.2 3316.32 1673.9 3316.01 1674.48 3315.6 1675.07 3315.18 1675.54 3314.66 1675.88 3314.03 1676.21 3313.4 1676.38 3312.64 1676.38 3311.77 1676.38 3311.25 1676.33 3310.78 1676.22 3310.38 1676.11 3309.98 1675.94 3309.6 1675.71 3309.25 1675.48 3308.9 1675.19 3308.57 1674.83 3308.25 1674.47 3307.94 1674.04 3307.63 1673.54 3307.32 1672.36 3306.65 1671.17 3306.04 1669.99 3305.51 1668.8 3304.97 1667.66 3304.45 1666.57 3303.94 1665.48 3303.42 1664.46 3302.91 1663.51 3302.38 1662.56 3301.86 1661.73 3301.26 1661.02 3300.6 1660.31 3299.93 1659.76 3299.18 1659.35 3298.32 1658.95 3297.47 1658.75 3296.48 1658.75 3295.35 1658.75 3293.76 1659.09 3292.37 1659.76 3291.19 1660.44 3290.02 1661.38 3289.04 1662.58 3288.28 1663.78 3287.52 1665.19 3286.95 1666.83 3286.56 1668.47 3286.18 1670.24 3285.99 1672.16 3285.99ZM1637.45 3285.99C1639.13 3286.04 1640.6 3286.23 1641.85 3286.56 1643.11 3286.9 1644.15 3287.49 1644.99 3288.31 1645.83 3289.14 1646.46 3290.26 1646.89 3291.67 1647.32 3293.07 1647.54 3294.86 1647.56 3297.02L1647.56 3309.51C1647.56 3310.93 1647.55 3312.08 1647.53 3312.95 1647.51 3313.82 1647.6 3314.53 1647.82 3315.07 1648.04 3315.62 1648.43 3316.05 1649 3316.37 1649.57 3316.68 1650.43 3316.99 1651.58 3317.3L1651.58 3319.39 1641.51 3319.39C1641.55 3318.59 1641.58 3317.78 1641.61 3316.97 1641.63 3316.17 1641.66 3315.38 1641.7 3314.62 1641.64 3314.57 1641.57 3314.55 1641.51 3314.54 1641.44 3314.52 1641.36 3314.5 1641.25 3314.45 1640.22 3315.46 1639.25 3316.31 1638.32 3317.01 1637.39 3317.7 1636.46 3318.28 1635.54 3318.72 1634.61 3319.17 1633.67 3319.49 1632.72 3319.69 1631.78 3319.88 1630.79 3319.98 1629.76 3319.98 1628.35 3319.98 1627.06 3319.77 1625.92 3319.36 1624.77 3318.95 1623.8 3318.36 1623.01 3317.61 1622.21 3316.86 1621.6 3315.97 1621.18 3314.94 1620.75 3313.92 1620.54 3312.78 1620.54 3311.54 1620.54 3308.18 1622.26 3305.61 1625.69 3303.82 1629.13 3302.03 1634.27 3300.96 1641.12 3300.61L1641.12 3298.26C1641.12 3296.65 1640.99 3295.28 1640.74 3294.15 1640.49 3293.03 1640.1 3292.12 1639.56 3291.42 1639.03 3290.72 1638.32 3290.22 1637.45 3289.9 1636.58 3289.58 1635.52 3289.43 1634.28 3289.43 1632.56 3289.43 1631.11 3289.88 1629.93 3290.8 1628.75 3291.72 1627.88 3293.17 1627.31 3295.15L1622.47 3295.15 1622.47 3290.18C1624.04 3289.44 1625.48 3288.8 1626.79 3288.28 1628.1 3287.76 1629.34 3287.33 1630.53 3286.99 1631.72 3286.65 1632.88 3286.41 1634 3286.25 1635.12 3286.1 1636.27 3286.01 1637.45 3285.99ZM1593.71 3278.37C1593.21 3278.37 1592.66 3278.37 1592.06 3278.39 1591.46 3278.4 1590.86 3278.41 1590.26 3278.42 1589.66 3278.43 1589.06 3278.44 1588.47 3278.45 1587.89 3278.46 1587.35 3278.48 1586.87 3278.5L1586.87 3294.5 1593.05 3294.5C1596.54 3294.5 1599.22 3293.74 1601.07 3292.24 1602.92 3290.74 1603.85 3288.52 1603.85 3285.6 1603.85 3284.33 1603.62 3283.24 1603.16 3282.33 1602.71 3281.41 1602.04 3280.66 1601.17 3280.07 1600.3 3279.48 1599.23 3279.05 1597.98 3278.78 1596.72 3278.51 1595.3 3278.37 1593.71 3278.37ZM1575.68 3274.74 1595.31 3274.74C1598.15 3274.74 1600.58 3274.95 1602.61 3275.38 1604.64 3275.8 1606.3 3276.44 1607.6 3277.29 1608.89 3278.14 1609.85 3279.2 1610.46 3280.46 1611.07 3281.73 1611.38 3283.21 1611.38 3284.91 1611.38 3287.49 1610.62 3289.64 1609.12 3291.37 1607.61 3293.11 1605.45 3294.54 1602.64 3295.68L1602.64 3296.07C1605.74 3297.05 1608.05 3298.43 1609.59 3300.21 1611.13 3301.98 1611.9 3304.14 1611.9 3306.67 1611.9 3311.01 1610.38 3314.21 1607.35 3316.29 1604.32 3318.36 1599.95 3319.39 1594.23 3319.39L1575.68 3319.39 1575.68 3317.3C1576.73 3316.97 1577.54 3316.71 1578.1 3316.5 1578.67 3316.29 1579.09 3316 1579.35 3315.61 1579.61 3315.23 1579.76 3314.7 1579.79 3314.01 1579.82 3313.32 1579.84 3312.34 1579.84 3311.05L1579.84 3283.08C1579.84 3281.75 1579.81 3280.74 1579.76 3280.05 1579.7 3279.37 1579.54 3278.84 1579.28 3278.48 1579.02 3278.12 1578.61 3277.85 1578.06 3277.67 1577.5 3277.48 1576.71 3277.22 1575.68 3276.9Z" fill-rule="evenodd"/><text fill="#000000" fill-opacity="0" font-family="Arial,Arial_MSFontService,sans-serif" font-size="45.2446" x="1575.68" y="3314.33">Base</text><path d="M1795.28 3240.05 1814.42 3240.05 1814.42 3242.25C1812.98 3242.46 1811.95 3242.85 1811.32 3243.42 1810.69 3243.98 1810.38 3244.76 1810.38 3245.75 1810.38 3246.59 1810.66 3247.64 1811.23 3248.9 1811.8 3250.15 1812.61 3251.65 1813.66 3253.39L1820.17 3264.3 1826.59 3253.93C1827.55 3252.37 1828.27 3251.13 1828.75 3250.2 1829.23 3249.27 1829.57 3248.49 1829.76 3247.86 1829.95 3247.23 1830.05 3246.59 1830.05 3245.93 1830.05 3245 1829.78 3244.22 1829.24 3243.57 1828.7 3242.93 1827.81 3242.49 1826.55 3242.25L1826.55 3240.05 1843.21 3240.05 1843.21 3242.25C1842.11 3242.61 1841.11 3243.13 1840.23 3243.82 1839.34 3244.51 1838.4 3245.51 1837.4 3246.83 1836.39 3248.15 1834.96 3250.23 1833.11 3253.07L1822.95 3268.8 1834.36 3287.57C1835.98 3290.24 1837.14 3292.1 1837.85 3293.17 1838.55 3294.23 1839.21 3295.13 1839.82 3295.86 1840.44 3296.6 1841.1 3297.23 1841.8 3297.77 1842.5 3298.31 1843.38 3298.77 1844.43 3299.16L1844.43 3301.36 1824.71 3301.36 1824.71 3299.16C1826.08 3298.92 1827.1 3298.54 1827.76 3298.02 1828.42 3297.49 1828.75 3296.71 1828.75 3295.66 1828.75 3294.82 1828.53 3293.89 1828.1 3292.87 1827.66 3291.86 1827 3290.6 1826.1 3289.1L1817.97 3275.53 1809.39 3289.6C1807.95 3291.96 1807.23 3293.91 1807.23 3295.44 1807.23 3296.42 1807.5 3297.23 1808.04 3297.86 1808.58 3298.49 1809.48 3298.92 1810.74 3299.16L1810.74 3301.36 1793.75 3301.36 1793.75 3299.16C1794.86 3298.83 1795.78 3298.44 1796.5 3297.97 1797.21 3297.51 1797.9 3296.92 1798.56 3296.2 1799.22 3295.48 1799.95 3294.57 1800.76 3293.46 1801.57 3292.35 1802.86 3290.42 1804.63 3287.66L1815.23 3271.13 1802.56 3250.29C1801.36 3248.37 1800.46 3246.98 1799.84 3246.11 1799.23 3245.24 1798.66 3244.54 1798.13 3244 1797.61 3243.46 1797.14 3243.08 1796.72 3242.85 1796.3 3242.63 1795.82 3242.43 1795.28 3242.25Z" fill-rule="evenodd"/><text fill="#000000" fill-opacity="0" font-family="Arial,Arial_MSFontService,sans-serif" font-size="61.3184" x="1793.75" y="3293.7">X</text><path d="M1917.58 3304.36C1912.73 3304.47 1909.18 3305.09 1906.91 3306.23 1904.64 3307.36 1903.51 3309.08 1903.51 3311.4 1903.51 3313.18 1904.02 3314.48 1905.03 3315.27 1906.04 3316.07 1907.43 3316.47 1909.2 3316.47 1910.44 3316.47 1911.58 3316.25 1912.6 3315.81 1913.63 3315.38 1914.51 3314.81 1915.24 3314.13 1915.97 3313.44 1916.54 3312.68 1916.95 3311.84 1917.37 3311 1917.58 3310.17 1917.58 3309.37ZM1863.33 3298.73 1863.33 3316.34C1864.07 3316.4 1864.93 3316.45 1865.9 3316.48 1866.87 3316.52 1867.92 3316.53 1869.06 3316.53 1871.06 3316.53 1872.81 3316.37 1874.29 3316.06 1875.77 3315.74 1877 3315.22 1877.97 3314.5 1878.94 3313.78 1879.67 3312.85 1880.15 3311.69 1880.63 3310.53 1880.87 3309.13 1880.87 3307.47 1880.87 3305.92 1880.63 3304.6 1880.15 3303.49 1879.67 3302.39 1878.93 3301.49 1877.94 3300.78 1876.95 3300.07 1875.68 3299.55 1874.13 3299.23 1872.58 3298.9 1870.74 3298.73 1868.6 3298.73ZM1983.13 3289.9C1981.95 3289.9 1980.89 3290.14 1979.94 3290.61 1978.99 3291.07 1978.16 3291.76 1977.45 3292.65 1976.74 3293.54 1976.16 3294.64 1975.72 3295.94 1975.27 3297.24 1974.98 3298.7 1974.85 3300.34L1990.03 3300.34C1989.81 3296.78 1989.16 3294.15 1988.08 3292.45 1987 3290.75 1985.35 3289.9 1983.13 3289.9ZM1983.52 3286.66C1985.83 3286.66 1987.83 3287.02 1989.51 3287.73 1991.18 3288.44 1992.55 3289.41 1993.59 3290.65 1994.12 3291.26 1994.59 3291.96 1995 3292.75 1995.42 3293.53 1995.77 3294.44 1996.06 3295.48 1996.36 3296.52 1996.59 3297.7 1996.75 3299.03 1996.92 3300.36 1997.02 3301.88 1997.06 3303.58L1974.65 3303.58 1974.65 3303.87C1974.65 3307.99 1975.42 3311.08 1976.96 3313.13 1978.5 3315.18 1980.93 3316.2 1984.27 3316.2 1985.17 3316.2 1986.02 3316.11 1986.84 3315.93 1987.66 3315.74 1988.47 3315.45 1989.28 3315.06 1990.08 3314.67 1990.9 3314.16 1991.71 3313.54 1992.53 3312.92 1993.39 3312.18 1994.28 3311.33L1996.57 3314.05C1995.35 3315.24 1994.19 3316.26 1993.09 3317.1 1991.99 3317.94 1990.89 3318.63 1989.8 3319.15 1988.71 3319.67 1987.6 3320.05 1986.46 3320.29 1985.33 3320.53 1984.13 3320.65 1982.86 3320.65 1977.89 3320.65 1974.15 3319.23 1971.64 3316.38 1969.14 3313.54 1967.88 3309.35 1967.88 3303.81 1967.88 3301.25 1968.25 3298.93 1968.99 3296.82 1969.73 3294.72 1970.79 3292.91 1972.17 3291.41 1973.54 3289.9 1975.19 3288.74 1977.11 3287.91 1979.03 3287.08 1981.16 3286.66 1983.52 3286.66ZM1948.62 3286.66C1949.38 3286.66 1950.13 3286.68 1950.86 3286.71 1951.59 3286.74 1952.36 3286.81 1953.15 3286.91 1953.95 3287.01 1954.81 3287.13 1955.74 3287.28 1956.66 3287.44 1957.71 3287.63 1958.86 3287.87L1958.86 3295.17 1955.1 3295.17C1954.77 3294.25 1954.38 3293.46 1953.94 3292.8 1953.49 3292.13 1952.97 3291.59 1952.38 3291.16 1951.79 3290.74 1951.11 3290.42 1950.34 3290.21 1949.56 3290.01 1948.68 3289.9 1947.67 3289.9 1945.8 3289.9 1944.31 3290.29 1943.22 3291.08 1942.13 3291.86 1941.59 3292.99 1941.59 3294.45 1941.59 3295.06 1941.66 3295.61 1941.82 3296.08 1941.97 3296.56 1942.31 3297.05 1942.83 3297.54 1943.35 3298.03 1944.13 3298.55 1945.15 3299.09 1946.18 3299.64 1947.56 3300.27 1949.31 3300.99 1951.05 3301.69 1952.55 3302.37 1953.79 3303.02 1955.03 3303.67 1956.06 3304.37 1956.87 3305.11 1957.67 3305.86 1958.26 3306.68 1958.63 3307.6 1959 3308.52 1959.19 3309.57 1959.19 3310.77 1959.19 3312.48 1958.89 3313.94 1958.29 3315.17 1957.69 3316.41 1956.82 3317.43 1955.69 3318.25 1954.55 3319.07 1953.17 3319.67 1951.53 3320.06 1949.9 3320.46 1948.05 3320.65 1946 3320.65 1942.1 3320.65 1938.28 3320.12 1934.55 3319.05L1934.55 3311.59 1938.25 3311.59C1938.91 3313.66 1939.85 3315.16 1941.1 3316.09 1942.34 3317.02 1944.06 3317.48 1946.27 3317.48 1947.2 3317.48 1948.07 3317.38 1948.87 3317.19 1949.66 3316.99 1950.36 3316.68 1950.94 3316.27 1951.53 3315.86 1952 3315.33 1952.33 3314.7 1952.67 3314.07 1952.84 3313.31 1952.84 3312.44 1952.84 3311.92 1952.79 3311.46 1952.68 3311.05 1952.57 3310.65 1952.4 3310.27 1952.17 3309.92 1951.94 3309.57 1951.65 3309.24 1951.29 3308.93 1950.93 3308.61 1950.5 3308.3 1950 3307.99 1948.82 3307.32 1947.63 3306.71 1946.45 3306.18 1945.26 3305.64 1944.12 3305.12 1943.03 3304.61 1941.94 3304.09 1940.92 3303.58 1939.97 3303.05 1939.02 3302.53 1938.19 3301.94 1937.48 3301.27 1936.77 3300.6 1936.22 3299.85 1935.81 3299 1935.41 3298.15 1935.21 3297.15 1935.21 3296.02 1935.21 3294.43 1935.55 3293.04 1936.22 3291.86 1936.9 3290.69 1937.84 3289.72 1939.04 3288.95 1940.24 3288.19 1941.65 3287.62 1943.29 3287.24 1944.92 3286.85 1946.7 3286.66 1948.62 3286.66ZM1913.91 3286.66C1915.59 3286.71 1917.06 3286.9 1918.31 3287.24 1919.57 3287.57 1920.61 3288.16 1921.45 3288.99 1922.29 3289.81 1922.92 3290.93 1923.35 3292.34 1923.77 3293.75 1924 3295.53 1924.02 3297.69L1924.02 3310.19C1924.02 3311.6 1924.01 3312.75 1923.99 3313.62 1923.97 3314.49 1924.06 3315.2 1924.28 3315.75 1924.5 3316.29 1924.89 3316.72 1925.46 3317.04 1926.03 3317.35 1926.89 3317.67 1928.04 3317.97L1928.04 3320.06 1917.97 3320.06C1918.01 3319.26 1918.04 3318.45 1918.07 3317.64 1918.09 3316.84 1918.12 3316.05 1918.16 3315.29 1918.1 3315.24 1918.03 3315.22 1917.97 3315.21 1917.9 3315.2 1917.82 3315.17 1917.71 3315.12 1916.68 3316.13 1915.71 3316.98 1914.78 3317.68 1913.85 3318.37 1912.92 3318.95 1912 3319.39 1911.07 3319.84 1910.13 3320.16 1909.18 3320.36 1908.24 3320.56 1907.25 3320.65 1906.22 3320.65 1904.81 3320.65 1903.52 3320.45 1902.38 3320.03 1901.23 3319.62 1900.26 3319.03 1899.47 3318.28 1898.67 3317.53 1898.06 3316.64 1897.64 3315.62 1897.21 3314.59 1897 3313.46 1897 3312.21 1897 3308.85 1898.72 3306.28 1902.15 3304.49 1905.59 3302.7 1910.73 3301.64 1917.58 3301.29L1917.58 3298.93C1917.58 3297.32 1917.45 3295.95 1917.2 3294.83 1916.95 3293.7 1916.56 3292.79 1916.02 3292.09 1915.49 3291.4 1914.78 3290.89 1913.91 3290.57 1913.04 3290.26 1911.98 3290.1 1910.74 3290.1 1909.02 3290.1 1907.56 3290.56 1906.39 3291.47 1905.21 3292.39 1904.34 3293.84 1903.77 3295.82L1898.93 3295.82 1898.93 3290.85C1900.5 3290.11 1901.94 3289.48 1903.25 3288.95 1904.55 3288.43 1905.8 3288 1906.99 3287.66 1908.18 3287.32 1909.34 3287.08 1910.46 3286.92 1911.58 3286.77 1912.73 3286.68 1913.91 3286.66ZM1870.17 3279.04C1869.67 3279.04 1869.12 3279.05 1868.52 3279.06 1867.92 3279.07 1867.32 3279.08 1866.72 3279.09 1866.12 3279.1 1865.52 3279.11 1864.93 3279.12 1864.35 3279.13 1863.81 3279.15 1863.33 3279.17L1863.33 3295.17 1869.51 3295.17C1873 3295.17 1875.68 3294.42 1877.53 3292.91 1879.38 3291.41 1880.31 3289.19 1880.31 3286.27 1880.31 3285.01 1880.08 3283.92 1879.62 3283 1879.17 3282.08 1878.5 3281.33 1877.63 3280.74 1876.76 3280.15 1875.69 3279.72 1874.44 3279.45 1873.18 3279.18 1871.76 3279.04 1870.17 3279.04ZM1852.14 3275.41 1871.77 3275.41C1874.61 3275.41 1877.04 3275.62 1879.07 3276.05 1881.1 3276.47 1882.76 3277.11 1884.06 3277.96 1885.35 3278.81 1886.31 3279.87 1886.92 3281.13 1887.53 3282.4 1887.83 3283.88 1887.83 3285.58 1887.83 3288.16 1887.08 3290.31 1885.58 3292.04 1884.07 3293.78 1881.91 3295.21 1879.1 3296.35L1879.1 3296.74C1882.2 3297.72 1884.51 3299.1 1886.05 3300.88 1887.59 3302.66 1888.36 3304.81 1888.36 3307.34 1888.36 3311.68 1886.84 3314.89 1883.81 3316.96 1880.78 3319.03 1876.41 3320.06 1870.69 3320.06L1852.14 3320.06 1852.14 3317.97C1853.19 3317.64 1854 3317.38 1854.56 3317.17 1855.13 3316.96 1855.55 3316.67 1855.81 3316.29 1856.07 3315.9 1856.22 3315.37 1856.25 3314.68 1856.28 3314 1856.3 3313.01 1856.3 3311.72L1856.3 3283.75C1856.3 3282.42 1856.27 3281.41 1856.22 3280.73 1856.16 3280.04 1856 3279.51 1855.74 3279.16 1855.48 3278.8 1855.07 3278.52 1854.51 3278.34 1853.96 3278.15 1853.17 3277.9 1852.14 3277.57Z" fill-rule="evenodd"/><text fill="#000000" fill-opacity="0" font-family="Arial,Arial_MSFontService,sans-serif" font-size="45.2446" x="1852.14" y="3315">Base</text><path d="M1651 3214.5C1651 3197.1 1665.1 3183 1682.5 3183 1699.9 3183 1714 3197.1 1714 3214.5 1714 3231.9 1699.9 3246 1682.5 3246 1665.1 3246 1651 3231.9 1651 3214.5Z" stroke="#4EA72E" stroke-width="10.3125" stroke-miterlimit="8" fill="#FFFFFF" fill-rule="evenodd"/><path d="M1659.35 3190.25 1681.53 3212.42 1703.7 3190.25 1703.7 3190.25 1681.53 3212.42 1703.7 3234.59 1703.7 3234.59 1681.53 3212.42 1659.35 3234.59 1659.35 3234.59 1681.53 3212.42 1659.35 3190.25Z" stroke="#4EA72E" stroke-width="6.875" stroke-miterlimit="8" fill-rule="evenodd"/><path d="M6.875-1.28739e-05 6.8753 158.351-6.8747 158.351-6.875 1.28739e-05ZM20.6253 151.476 0.000360892 192.726-20.6247 151.476Z" fill="#0070C0" transform="matrix(-1.83697e-16 -1 -1 1.83697e-16 374.725 1505)"/><path d="M1.31964e-05-6.875 153.641-6.87471 153.641 6.87529-1.31964e-05 6.875ZM146.766-20.6247 188.016 0.000360892 146.766 20.6253Z" fill="#FF0000" transform="matrix(1.83697e-16 1 1 -1.83697e-16 368 1509)"/><path d="M37.8968 1500.42 78.4164 1500.42 78.4164 1502.57 47.6898 1557.6 63.9066 1557.6C65.9131 1557.6 67.403 1557.41 68.3763 1557.04 69.3496 1556.67 70.1507 1556.08 70.7796 1555.29 71.4086 1554.49 71.9776 1553.38 72.4867 1551.94 72.9958 1550.5 73.6097 1548.27 74.3285 1545.25L78.7308 1545.25 78.7308 1561.73 37.223 1561.73 37.223 1559.53 67.9945 1504.55 51.6879 1504.55C50.5199 1504.55 49.599 1504.65 48.9252 1504.84 48.2513 1505.04 47.6449 1505.33 47.1058 1505.74 46.5668 1506.14 46.0352 1506.73 45.5111 1507.51 44.987 1508.29 44.4629 1509.36 43.9388 1510.73 43.4147 1512.09 42.8682 1513.79 42.2992 1515.82L37.8968 1515.82Z" fill-rule="evenodd"/><text fill="#000000" fill-opacity="0" font-family="Arial,Arial_MSFontService,sans-serif" font-size="61.3184" x="37.223" y="1554.07">Z</text><path d="M186.358 1550.27C183.566 1550.27 181.413 1551.44 179.897 1553.77 178.381 1556.11 177.623 1559.43 177.623 1563.75 177.623 1566 177.82 1567.99 178.212 1569.74 178.605 1571.48 179.177 1572.95 179.93 1574.15 180.682 1575.35 181.604 1576.27 182.694 1576.9 183.785 1577.53 185.028 1577.85 186.424 1577.85 187.994 1577.85 189.33 1577.49 190.431 1576.77 191.533 1576.05 192.421 1575.09 193.097 1573.87 193.773 1572.66 194.264 1571.26 194.57 1569.65 194.875 1568.05 195.028 1566.37 195.028 1564.6 195.028 1562.11 194.804 1559.97 194.357 1558.17 193.91 1556.37 193.299 1554.89 192.525 1553.72 191.751 1552.56 190.835 1551.69 189.777 1551.12 188.719 1550.55 187.579 1550.27 186.358 1550.27ZM146.358 1550.27C143.566 1550.27 141.413 1551.44 139.897 1553.77 138.381 1556.11 137.623 1559.43 137.623 1563.75 137.623 1566 137.82 1567.99 138.212 1569.74 138.605 1571.48 139.177 1572.95 139.93 1574.15 140.682 1575.35 141.604 1576.27 142.694 1576.9 143.785 1577.53 145.028 1577.85 146.424 1577.85 147.994 1577.85 149.33 1577.49 150.431 1576.77 151.533 1576.05 152.421 1575.09 153.097 1573.87 153.773 1572.66 154.264 1571.26 154.57 1569.65 154.875 1568.05 155.028 1566.37 155.028 1564.6 155.028 1562.11 154.804 1559.97 154.357 1558.17 153.91 1556.37 153.299 1554.89 152.525 1553.72 151.751 1552.56 150.835 1551.69 149.777 1551.12 148.719 1550.55 147.579 1550.27 146.358 1550.27ZM186.489 1547.03C189.215 1547.03 191.56 1547.44 193.523 1548.24 195.486 1549.05 197.099 1550.18 198.364 1551.65 199.629 1553.11 200.562 1554.86 201.162 1556.91 201.761 1558.96 202.061 1561.22 202.061 1563.68 202.061 1566.52 201.685 1569.02 200.933 1571.18 200.18 1573.33 199.101 1575.15 197.694 1576.61 196.287 1578.07 194.591 1579.17 192.607 1579.91 190.622 1580.65 188.408 1581.02 185.966 1581.02 183.545 1581.02 181.38 1580.68 179.472 1580.01 177.563 1579.33 175.944 1578.3 174.613 1576.92 173.283 1575.53 172.269 1573.79 171.571 1571.7 170.873 1569.61 170.524 1567.14 170.524 1564.31 170.524 1561.49 170.928 1559.01 171.735 1556.86 172.542 1554.71 173.659 1552.91 175.088 1551.45 176.516 1549.99 178.201 1548.89 180.142 1548.14 182.083 1547.4 184.199 1547.03 186.489 1547.03ZM146.489 1547.03C149.215 1547.03 151.56 1547.44 153.523 1548.24 155.486 1549.05 157.099 1550.18 158.364 1551.65 159.629 1553.11 160.562 1554.86 161.162 1556.91 161.761 1558.96 162.061 1561.22 162.061 1563.68 162.061 1566.52 161.685 1569.02 160.933 1571.18 160.18 1573.33 159.101 1575.15 157.694 1576.61 156.287 1578.07 154.591 1579.17 152.607 1579.91 150.622 1580.65 148.408 1581.02 145.966 1581.02 143.545 1581.02 141.38 1580.68 139.472 1580.01 137.563 1579.33 135.944 1578.3 134.613 1576.92 133.283 1575.53 132.269 1573.79 131.571 1571.7 130.873 1569.61 130.524 1567.14 130.524 1564.31 130.524 1561.49 130.928 1559.01 131.735 1556.86 132.542 1554.71 133.659 1552.91 135.088 1551.45 136.516 1549.99 138.201 1548.89 140.142 1548.14 142.083 1547.4 144.199 1547.03 146.489 1547.03ZM84.5939 1535.78 123.459 1535.78 123.459 1547.85 119.762 1547.85C119.304 1546.15 118.863 1544.76 118.437 1543.68 118.012 1542.6 117.516 1541.75 116.949 1541.13 116.382 1540.51 115.706 1540.07 114.921 1539.83 114.135 1539.6 113.154 1539.45 111.976 1539.41L107.527 1539.41 107.527 1572.03C107.549 1573.12 107.603 1574.02 107.691 1574.73 107.778 1575.43 107.98 1576.02 108.296 1576.48 108.612 1576.93 109.086 1577.3 109.719 1577.57 110.351 1577.84 111.235 1578.1 112.369 1578.34L112.369 1580.43 95.6843 1580.43 95.6843 1578.34C96.5349 1578.19 97.26 1578.02 97.8598 1577.85 98.4596 1577.68 98.9558 1577.39 99.3483 1576.98 99.7409 1576.58 100.03 1575.99 100.215 1575.22 100.401 1574.44 100.493 1573.38 100.493 1572.03L100.493 1539.41 96.0769 1539.41C95.4444 1539.41 94.8937 1539.44 94.4248 1539.49 93.9558 1539.55 93.536 1539.64 93.1652 1539.77 92.7945 1539.9 92.4564 1540.07 92.1511 1540.28 91.8457 1540.48 91.5513 1540.73 91.2678 1541.01 90.7225 1541.54 90.21 1542.32 89.7302 1543.35 89.2504 1544.39 88.7924 1545.89 88.3562 1547.85L84.5939 1547.85ZM217.754 1532.83 220.142 1532.83 220.142 1572.09C220.142 1573.4 220.17 1574.4 220.224 1575.1 220.279 1575.8 220.437 1576.34 220.698 1576.72 220.96 1577.1 221.353 1577.39 221.876 1577.59 222.4 1577.78 223.13 1578.04 224.068 1578.34L224.068 1580.43 209.641 1580.43 209.641 1578.34C210.666 1578.04 211.456 1577.77 212.013 1577.56 212.569 1577.34 212.972 1577.03 213.223 1576.64 213.474 1576.25 213.616 1575.71 213.648 1575.02 213.681 1574.33 213.697 1573.36 213.697 1572.09L213.697 1544.32C213.697 1542.7 213.676 1541.47 213.632 1540.62 213.588 1539.77 213.523 1539.08 213.436 1538.56 213.348 1538.14 213.245 1537.78 213.125 1537.46 213.005 1537.15 212.798 1536.86 212.503 1536.61 212.209 1536.36 211.789 1536.14 211.244 1535.96 210.699 1535.77 209.968 1535.6 209.052 1535.45L209.052 1533.29Z" fill-rule="evenodd"/><text fill="#000000" fill-opacity="0" font-family="Arial,Arial_MSFontService,sans-serif" font-size="48.189" x="84.5939" y="1575">Tool</text><path d="M160.861 1387.77 179.998 1387.77 179.998 1389.97C177.183 1390.3 175.775 1391.52 175.775 1393.61 175.775 1394.48 175.977 1395.45 176.382 1396.53 176.786 1397.61 177.512 1399.14 178.56 1401.11L187.545 1418.23 196.394 1402.6C197.592 1400.47 198.438 1398.73 198.932 1397.36 199.427 1396 199.674 1394.75 199.674 1393.61 199.674 1392.53 199.352 1391.69 198.708 1391.07 198.064 1390.46 197.113 1390.09 195.855 1389.97L195.855 1387.77 212.881 1387.77 212.881 1389.97C211.653 1390.42 210.575 1391.04 209.646 1391.84 208.718 1392.63 207.775 1393.7 206.816 1395.05 205.858 1396.4 204.45 1398.67 202.594 1401.88L190.105 1423.17 190.105 1437.73C190.105 1439.43 190.195 1440.81 190.375 1441.86 190.554 1442.91 190.854 1443.74 191.273 1444.37 191.692 1445 192.247 1445.5 192.935 1445.86 193.624 1446.22 194.702 1446.56 196.17 1446.89L196.17 1449.09 175.64 1449.09 175.64 1446.89C177.078 1446.59 178.141 1446.27 178.83 1445.92 179.519 1445.58 180.073 1445.09 180.492 1444.44 180.911 1443.8 181.218 1442.95 181.413 1441.9 181.608 1440.85 181.705 1439.46 181.705 1437.73L181.705 1423.35 169.306 1400.31C167.809 1397.52 166.671 1395.53 165.892 1394.33 165.114 1393.13 164.335 1392.19 163.556 1391.5 162.778 1390.81 161.879 1390.3 160.861 1389.97Z" fill-rule="evenodd"/><text fill="#000000" fill-opacity="0" font-family="Arial,Arial_MSFontService,sans-serif" font-size="61.3184" x="160.861" y="1441.43">Y</text><path d="M309.56 1437.63C306.769 1437.63 304.615 1438.79 303.099 1441.13 301.583 1443.46 300.825 1446.79 300.825 1451.11 300.825 1453.35 301.022 1455.35 301.414 1457.09 301.807 1458.84 302.379 1460.31 303.132 1461.51 303.884 1462.71 304.806 1463.62 305.896 1464.26 306.987 1464.89 308.23 1465.21 309.626 1465.21 311.196 1465.21 312.532 1464.85 313.633 1464.13 314.735 1463.41 315.623 1462.44 316.299 1461.23 316.976 1460.02 317.466 1458.61 317.772 1457.01 318.077 1455.41 318.23 1453.72 318.23 1451.96 318.23 1449.47 318.006 1447.33 317.559 1445.53 317.112 1443.73 316.501 1442.25 315.727 1441.08 314.953 1439.91 314.037 1439.05 312.979 1438.48 311.921 1437.91 310.782 1437.63 309.56 1437.63ZM269.56 1437.63C266.769 1437.63 264.615 1438.79 263.099 1441.13 261.583 1443.46 260.825 1446.79 260.825 1451.11 260.825 1453.35 261.022 1455.35 261.414 1457.09 261.807 1458.84 262.379 1460.31 263.132 1461.51 263.884 1462.71 264.806 1463.62 265.896 1464.26 266.987 1464.89 268.23 1465.21 269.626 1465.21 271.196 1465.21 272.532 1464.85 273.633 1464.13 274.735 1463.41 275.623 1462.44 276.299 1461.23 276.976 1460.02 277.466 1458.61 277.772 1457.01 278.077 1455.41 278.23 1453.72 278.23 1451.96 278.23 1449.47 278.006 1447.33 277.559 1445.53 277.112 1443.73 276.501 1442.25 275.727 1441.08 274.953 1439.91 274.037 1439.05 272.979 1438.48 271.921 1437.91 270.782 1437.63 269.56 1437.63ZM309.691 1434.39C312.417 1434.39 314.762 1434.79 316.725 1435.6 318.688 1436.41 320.302 1437.54 321.567 1439 322.832 1440.46 323.764 1442.22 324.364 1444.27 324.964 1446.32 325.263 1448.58 325.263 1451.04 325.263 1453.88 324.887 1456.37 324.135 1458.53 323.382 1460.69 322.303 1462.5 320.896 1463.96 319.489 1465.42 317.793 1466.53 315.809 1467.27 313.824 1468.01 311.61 1468.38 309.168 1468.38 306.747 1468.38 304.582 1468.04 302.674 1467.37 300.765 1466.69 299.146 1465.66 297.816 1464.27 296.485 1462.89 295.471 1461.15 294.773 1459.06 294.075 1456.96 293.726 1454.5 293.726 1451.66 293.726 1448.85 294.13 1446.37 294.937 1444.22 295.744 1442.07 296.861 1440.27 298.29 1438.81 299.719 1437.34 301.403 1436.24 303.344 1435.5 305.286 1434.76 307.401 1434.39 309.691 1434.39ZM269.691 1434.39C272.417 1434.39 274.762 1434.79 276.725 1435.6 278.688 1436.41 280.302 1437.54 281.567 1439 282.832 1440.46 283.764 1442.22 284.364 1444.27 284.964 1446.32 285.263 1448.58 285.263 1451.04 285.263 1453.88 284.887 1456.37 284.135 1458.53 283.382 1460.69 282.303 1462.5 280.896 1463.96 279.489 1465.42 277.793 1466.53 275.809 1467.27 273.824 1468.01 271.61 1468.38 269.168 1468.38 266.747 1468.38 264.582 1468.04 262.674 1467.37 260.765 1466.69 259.146 1465.66 257.816 1464.27 256.485 1462.89 255.471 1461.15 254.773 1459.06 254.075 1456.96 253.726 1454.5 253.726 1451.66 253.726 1448.85 254.13 1446.37 254.937 1444.22 255.744 1442.07 256.861 1440.27 258.29 1438.81 259.719 1437.34 261.403 1436.24 263.344 1435.5 265.286 1434.76 267.401 1434.39 269.691 1434.39ZM207.796 1423.13 246.661 1423.13 246.661 1435.21 242.965 1435.21C242.507 1433.51 242.065 1432.11 241.64 1431.04 241.214 1429.96 240.718 1429.11 240.151 1428.48 239.584 1427.86 238.908 1427.43 238.123 1427.19 237.338 1426.95 236.356 1426.81 235.178 1426.77L230.729 1426.77 230.729 1459.38C230.751 1460.47 230.806 1461.37 230.893 1462.08 230.98 1462.79 231.182 1463.37 231.498 1463.83 231.814 1464.29 232.289 1464.66 232.921 1464.93 233.554 1465.2 234.437 1465.46 235.571 1465.7L235.571 1467.79 218.886 1467.79 218.886 1465.7C219.737 1465.54 220.462 1465.38 221.062 1465.21 221.662 1465.03 222.158 1464.74 222.55 1464.34 222.943 1463.94 223.232 1463.35 223.417 1462.57 223.603 1461.8 223.696 1460.73 223.696 1459.38L223.696 1426.77 219.279 1426.77C218.647 1426.77 218.096 1426.79 217.627 1426.85 217.158 1426.9 216.738 1427 216.367 1427.13 215.997 1427.26 215.659 1427.43 215.353 1427.63 215.048 1427.84 214.753 1428.09 214.47 1428.37 213.925 1428.89 213.412 1429.67 212.932 1430.71 212.453 1431.74 211.995 1433.24 211.558 1435.21L207.796 1435.21ZM340.956 1420.19 343.344 1420.19 343.344 1459.45C343.344 1460.76 343.372 1461.76 343.426 1462.46 343.481 1463.16 343.639 1463.7 343.901 1464.08 344.162 1464.46 344.555 1464.75 345.078 1464.94 345.602 1465.14 346.332 1465.39 347.27 1465.7L347.27 1467.79 332.843 1467.79 332.843 1465.7C333.868 1465.39 334.659 1465.13 335.215 1464.91 335.771 1464.69 336.174 1464.39 336.425 1464 336.676 1463.6 336.818 1463.06 336.851 1462.38 336.883 1461.69 336.9 1460.71 336.9 1459.45L336.9 1431.67C336.9 1430.06 336.878 1428.83 336.834 1427.98 336.791 1427.13 336.725 1426.44 336.638 1425.92 336.551 1425.5 336.447 1425.14 336.327 1424.82 336.207 1424.5 336 1424.22 335.706 1423.97 335.411 1423.72 334.991 1423.5 334.446 1423.31 333.901 1423.13 333.17 1422.96 332.254 1422.81L332.254 1420.65Z" fill-rule="evenodd"/><text fill="#000000" fill-opacity="0" font-family="Arial,Arial_MSFontService,sans-serif" font-size="48.189" x="207.796" y="1462.36">Tool</text><path d="M294.118 1708.89 313.255 1708.89 313.255 1711.09C311.817 1711.3 310.784 1711.69 310.155 1712.26 309.526 1712.83 309.212 1713.61 309.212 1714.6 309.212 1715.43 309.496 1716.48 310.065 1717.74 310.634 1719 311.443 1720.5 312.491 1722.23L319.005 1733.15 325.428 1722.77C326.387 1721.21 327.106 1719.97 327.585 1719.04 328.064 1718.11 328.401 1717.34 328.595 1716.71 328.79 1716.08 328.887 1715.43 328.887 1714.78 328.887 1713.85 328.618 1713.06 328.079 1712.42 327.54 1711.77 326.641 1711.33 325.384 1711.09L325.384 1708.89 342.05 1708.89 342.05 1711.09C340.941 1711.45 339.946 1711.98 339.062 1712.66 338.179 1713.35 337.235 1714.36 336.232 1715.67 335.229 1716.99 333.799 1719.07 331.942 1721.92L321.79 1737.64 333.2 1756.42C334.817 1759.08 335.978 1760.95 336.681 1762.01 337.385 1763.07 338.044 1763.97 338.658 1764.71 339.272 1765.44 339.931 1766.08 340.635 1766.62 341.338 1767.15 342.214 1767.62 343.262 1768.01L343.262 1770.21 323.542 1770.21 323.542 1768.01C324.919 1767.77 325.938 1767.39 326.596 1766.86 327.255 1766.34 327.585 1765.55 327.585 1764.5 327.585 1763.67 327.368 1762.74 326.933 1761.72 326.499 1760.7 325.833 1759.44 324.934 1757.95L316.803 1744.38 308.223 1758.44C306.786 1760.81 306.067 1762.75 306.067 1764.28 306.067 1765.27 306.337 1766.08 306.876 1766.71 307.415 1767.33 308.313 1767.77 309.571 1768.01L309.571 1770.21 292.591 1770.21 292.591 1768.01C293.699 1767.68 294.612 1767.28 295.331 1766.82 296.05 1766.35 296.738 1765.76 297.397 1765.04 298.056 1764.32 298.79 1763.41 299.598 1762.3 300.407 1761.2 301.695 1759.26 303.462 1756.51L314.063 1739.98 301.395 1719.13C300.197 1717.22 299.291 1715.82 298.677 1714.96 298.064 1714.09 297.495 1713.38 296.97 1712.84 296.446 1712.31 295.975 1711.92 295.555 1711.7 295.136 1711.47 294.657 1711.27 294.118 1711.09Z" fill-rule="evenodd"/><text fill="#000000" fill-opacity="0" font-family="Arial,Arial_MSFontService,sans-serif" font-size="61.3184" x="292.591" y="1762.54">X</text><path d="M450.551 1758.75C447.759 1758.75 445.605 1759.91 444.09 1762.25 442.574 1764.58 441.816 1767.91 441.816 1772.22 441.816 1774.47 442.012 1776.47 442.405 1778.21 442.797 1779.96 443.37 1781.43 444.122 1782.63 444.875 1783.83 445.796 1784.74 446.887 1785.38 447.977 1786.01 449.22 1786.32 450.616 1786.32 452.187 1786.32 453.522 1785.97 454.624 1785.25 455.725 1784.53 456.614 1783.56 457.29 1782.35 457.966 1781.14 458.457 1779.73 458.762 1778.13 459.068 1776.53 459.22 1774.84 459.22 1773.08 459.22 1770.59 458.997 1768.45 458.55 1766.65 458.102 1764.85 457.492 1763.36 456.718 1762.2 455.943 1761.03 455.027 1760.16 453.97 1759.6 452.912 1759.03 451.772 1758.75 450.551 1758.75ZM410.551 1758.75C407.759 1758.75 405.605 1759.91 404.09 1762.25 402.574 1764.58 401.816 1767.91 401.816 1772.22 401.816 1774.47 402.012 1776.47 402.405 1778.21 402.797 1779.96 403.37 1781.43 404.122 1782.63 404.875 1783.83 405.796 1784.74 406.887 1785.38 407.977 1786.01 409.22 1786.32 410.616 1786.32 412.187 1786.32 413.522 1785.97 414.624 1785.25 415.725 1784.53 416.614 1783.56 417.29 1782.35 417.966 1781.14 418.457 1779.73 418.762 1778.13 419.068 1776.53 419.22 1774.84 419.22 1773.08 419.22 1770.59 418.997 1768.45 418.55 1766.65 418.102 1764.85 417.492 1763.36 416.718 1762.2 415.943 1761.03 415.027 1760.16 413.97 1759.6 412.912 1759.03 411.772 1758.75 410.551 1758.75ZM450.682 1755.51C453.408 1755.51 455.752 1755.91 457.715 1756.72 459.678 1757.53 461.292 1758.66 462.557 1760.12 463.822 1761.58 464.754 1763.34 465.354 1765.39 465.954 1767.44 466.254 1769.69 466.254 1772.16 466.254 1774.99 465.878 1777.49 465.125 1779.65 464.373 1781.81 463.293 1783.62 461.887 1785.08 460.48 1786.54 458.784 1787.64 456.799 1788.39 454.815 1789.13 452.601 1789.5 450.158 1789.5 447.737 1789.5 445.573 1789.16 443.664 1788.48 441.756 1787.81 440.137 1786.78 438.806 1785.39 437.476 1784.01 436.462 1782.27 435.764 1780.17 435.066 1778.08 434.717 1775.62 434.717 1772.78 434.717 1769.97 435.12 1767.49 435.927 1765.34 436.734 1763.19 437.852 1761.39 439.281 1759.92 440.709 1758.46 442.394 1757.36 444.335 1756.62 446.276 1755.88 448.392 1755.51 450.682 1755.51ZM410.682 1755.51C413.408 1755.51 415.752 1755.91 417.715 1756.72 419.678 1757.53 421.292 1758.66 422.557 1760.12 423.822 1761.58 424.754 1763.34 425.354 1765.39 425.954 1767.44 426.254 1769.69 426.254 1772.16 426.254 1774.99 425.878 1777.49 425.125 1779.65 424.373 1781.81 423.293 1783.62 421.887 1785.08 420.48 1786.54 418.784 1787.64 416.799 1788.39 414.815 1789.13 412.601 1789.5 410.158 1789.5 407.737 1789.5 405.573 1789.16 403.664 1788.48 401.756 1787.81 400.137 1786.78 398.806 1785.39 397.476 1784.01 396.462 1782.27 395.764 1780.17 395.066 1778.08 394.717 1775.62 394.717 1772.78 394.717 1769.97 395.12 1767.49 395.927 1765.34 396.734 1763.19 397.852 1761.39 399.281 1759.92 400.709 1758.46 402.394 1757.36 404.335 1756.62 406.276 1755.88 408.392 1755.51 410.682 1755.51ZM348.787 1744.25 387.652 1744.25 387.652 1756.33 383.955 1756.33C383.497 1754.62 383.055 1753.23 382.63 1752.15 382.205 1751.07 381.709 1750.22 381.142 1749.6 380.575 1748.98 379.898 1748.55 379.113 1748.31 378.328 1748.07 377.347 1747.93 376.169 1747.89L371.72 1747.89 371.72 1780.5C371.742 1781.59 371.796 1782.49 371.883 1783.2 371.971 1783.91 372.172 1784.49 372.489 1784.95 372.805 1785.41 373.279 1785.77 373.912 1786.05 374.544 1786.32 375.427 1786.58 376.562 1786.82L376.562 1788.91 359.877 1788.91 359.877 1786.82C360.728 1786.66 361.453 1786.5 362.053 1786.32 362.652 1786.15 363.148 1785.86 363.541 1785.46 363.934 1785.05 364.223 1784.47 364.408 1783.69 364.593 1782.92 364.686 1781.85 364.686 1780.5L364.686 1747.89 360.27 1747.89C359.637 1747.89 359.086 1747.91 358.617 1747.97 358.149 1748.02 357.729 1748.11 357.358 1748.24 356.987 1748.38 356.649 1748.54 356.344 1748.75 356.038 1748.96 355.744 1749.2 355.46 1749.49 354.915 1750.01 354.403 1750.79 353.923 1751.83 353.443 1752.86 352.985 1754.36 352.549 1756.33L348.787 1756.33ZM481.947 1741.31 484.335 1741.31 484.335 1780.57C484.335 1781.88 484.362 1782.88 484.417 1783.58 484.471 1784.27 484.629 1784.81 484.891 1785.2 485.153 1785.58 485.545 1785.87 486.069 1786.06 486.592 1786.26 487.323 1786.51 488.261 1786.82L488.261 1788.91 473.834 1788.91 473.834 1786.82C474.859 1786.51 475.649 1786.25 476.205 1786.03 476.761 1785.81 477.165 1785.51 477.416 1785.11 477.667 1784.72 477.808 1784.18 477.841 1783.5 477.874 1782.81 477.89 1781.83 477.89 1780.57L477.89 1752.79C477.89 1751.18 477.868 1749.95 477.825 1749.1 477.781 1748.24 477.716 1747.56 477.628 1747.03 477.541 1746.62 477.438 1746.25 477.318 1745.94 477.198 1745.62 476.99 1745.34 476.696 1745.09 476.402 1744.84 475.982 1744.62 475.437 1744.43 474.891 1744.25 474.161 1744.08 473.245 1743.93L473.245 1741.77Z" fill-rule="evenodd"/><text fill="#000000" fill-opacity="0" font-family="Arial,Arial_MSFontService,sans-serif" font-size="48.189" x="348.787" y="1783.47">Tool</text><path d="M368 1536C350.879 1536 337 1522.12 337 1505 337 1487.88 350.879 1474 368 1474 385.121 1474 399 1487.88 399 1505 399 1522.12 385.121 1536 368 1536Z" stroke="#4EA72E" stroke-width="10.3125" stroke-miterlimit="8" fill="#FFFFFF" fill-rule="evenodd"/><path d="M368.5 1513.5C364.082 1513.5 360.5 1509.92 360.5 1505.5 360.5 1501.08 364.082 1497.5 368.5 1497.5 372.918 1497.5 376.5 1501.08 376.5 1505.5 376.5 1509.92 372.918 1513.5 368.5 1513.5Z" stroke="#4EA72E" stroke-width="1.14583" stroke-miterlimit="8" fill="#4EA72E" fill-rule="evenodd"/><path d="M6.87503 34.375 6.87533 362.219-6.87467 362.219-6.87497 34.375ZM-20.625 41.25 0 0 20.625 41.25ZM20.6253 355.344 0.000360892 396.594-20.6247 355.344Z" transform="matrix(1 0 0 -1 2190 3211.59)"/><path d="M6.87503 34.375 6.87534 455.661-6.87466 455.661-6.87497 34.375ZM-20.625 41.25 0 0 20.625 41.25ZM20.6253 448.786 0.000360892 490.036-20.6247 448.786Z" transform="matrix(1 0 0 -1 1960 2798.04)"/><path d="M6.87502 34.3753 6.87535 765.709-6.87465 765.709-6.87498 34.3753ZM-20.625 41.25 0 0 20.625 41.25ZM20.6253 758.834 0.000360892 800.084-20.6247 758.834Z" transform="matrix(1 0 0 -1 1791 2306.08)"/><path d="M34.375-6.87498 545.391-6.87466 545.391 6.87534 34.375 6.87502ZM41.25 20.625 0 0 41.25-20.625ZM538.516-20.6247 579.766 0.000360892 538.516 20.6253Z" transform="matrix(-1 0 0 1 1279.77 1215)"/><path d="M34.375-6.87496 290.777-6.87468 290.777 6.87532 34.375 6.87504ZM41.25 20.625 0 0 41.25-20.625ZM283.902-20.6247 325.152 0.000360892 283.902 20.6253Z" transform="matrix(-1 0 0 1 699.152 1215)"/><path d="M0 0 378.807 0.000360892" stroke="#000000" stroke-width="6.875" stroke-miterlimit="8" stroke-dasharray="55 20.625" fill="none" fill-rule="evenodd" transform="matrix(-1 0 0 1 2248.31 3212.5)"/><path d="M0 0 537.024 0.000360892" stroke="#000000" stroke-width="6.875" stroke-miterlimit="8" stroke-dasharray="55 20.625" fill="none" fill-rule="evenodd" transform="matrix(-1 0 0 1 2248.52 2807.5)"/><path d="M0 0 712.329 0.000360892" stroke="#000000" stroke-width="6.875" stroke-miterlimit="8" stroke-dasharray="55 20.625" fill="none" fill-rule="evenodd" transform="matrix(-1 0 0 1 2029.83 2306.5)"/><path d="M0 0 479.481 0.000360892" stroke="#000000" stroke-width="6.875" stroke-miterlimit="8" stroke-dasharray="55 20.625" fill="none" fill-rule="evenodd" transform="matrix(-1 0 0 1 1790.98 1508.5)"/><path d="M0 0 0.000360892 310.387" stroke="#000000" stroke-width="6.875" stroke-miterlimit="8" stroke-dasharray="55 20.625" fill="none" fill-rule="evenodd" transform="matrix(1 0 0 -1 1280.5 1477.89)"/><path d="M6.875-1.28739e-05 6.8753 158.351-6.8747 158.351-6.875 1.28739e-05ZM20.6253 151.476 0.000360892 192.726-20.6247 151.476Z" fill="#0070C0" transform="matrix(1 0 0 -1 700 1507.73)"/><path d="M1.31964e-05-6.875 153.641-6.87471 153.641 6.87529-1.31964e-05 6.875ZM146.766-20.6247 188.016 0.000360892 146.766 20.6253Z" fill="#FF0000" transform="matrix(-1 0 0 1 695.016 1502)"/><path d="M753.612 1293.15 794.132 1293.15 794.132 1295.31 763.405 1350.34 779.622 1350.34C781.628 1350.34 783.118 1350.15 784.092 1349.78 785.065 1349.4 785.866 1348.82 786.495 1348.03 787.124 1347.23 787.693 1346.12 788.202 1344.68 788.711 1343.24 789.325 1341.01 790.044 1337.99L794.446 1337.99 794.446 1354.47 752.938 1354.47 752.938 1352.27 783.71 1297.29 767.403 1297.29C766.235 1297.29 765.314 1297.38 764.64 1297.58 763.967 1297.77 763.36 1298.07 762.821 1298.48 762.282 1298.88 761.75 1299.47 761.226 1300.25 760.702 1301.03 760.178 1302.1 759.654 1303.46 759.13 1304.83 758.583 1306.53 758.014 1308.56L753.612 1308.56Z" fill-rule="evenodd"/><text fill="#000000" fill-opacity="0" font-family="Arial,Arial_MSFontService,sans-serif" font-size="61.3184" x="752.938" y="1346.81">Z</text><path d="M817.452 1330.81C819.197 1330.81 820.827 1330.99 822.343 1331.36 823.858 1331.73 825.172 1332.3 826.285 1333.05 827.397 1333.8 828.264 1334.74 828.886 1335.86 829.507 1336.98 829.818 1338.29 829.818 1339.77 829.818 1341.17 829.622 1342.4 829.229 1343.47 828.837 1344.54 828.231 1345.51 827.413 1346.38 826.596 1347.25 825.592 1348.04 824.404 1348.75 823.215 1349.46 821.846 1350.14 820.298 1350.8L820.298 1351.19C821.759 1351.45 823.122 1351.87 824.387 1352.45 825.652 1353.03 826.759 1353.76 827.708 1354.64 828.657 1355.52 829.404 1356.54 829.949 1357.7 830.494 1358.85 830.767 1360.13 830.767 1361.53 830.767 1363.27 830.44 1364.89 829.785 1366.38 829.131 1367.88 828.15 1369.17 826.841 1370.26 825.532 1371.35 823.918 1372.2 821.999 1372.81 820.08 1373.42 817.833 1373.73 815.26 1373.73 813.232 1373.73 811.171 1373.53 809.077 1373.12 806.983 1372.72 804.998 1372.19 803.123 1371.54L803.123 1364.47 807.343 1364.47C807.692 1365.56 808.106 1366.49 808.586 1367.27 809.066 1368.04 809.628 1368.67 810.271 1369.17 810.914 1369.66 811.656 1370.01 812.495 1370.23 813.335 1370.45 814.289 1370.56 815.358 1370.56 818.172 1370.56 820.303 1369.89 821.754 1368.54 823.204 1367.2 823.929 1365.17 823.929 1362.44 823.929 1359.54 822.975 1357.34 821.067 1355.85 819.158 1354.36 816.329 1353.61 812.577 1353.61L809.698 1353.61 809.698 1350.47C811.988 1350.36 813.968 1350.04 815.636 1349.5 817.305 1348.97 818.695 1348.28 819.807 1347.43 820.92 1346.58 821.748 1345.58 822.294 1344.45 822.839 1343.32 823.111 1342.1 823.111 1340.82 823.111 1338.72 822.49 1337.07 821.247 1335.86 820.004 1334.65 818.204 1334.05 815.849 1334.05 813.864 1334.05 812.201 1334.59 810.86 1335.68 809.518 1336.77 808.488 1338.4 807.768 1340.56L803.613 1340.56 803.613 1334.11C806.187 1333.02 808.613 1332.2 810.892 1331.64 813.172 1331.09 815.358 1330.81 817.452 1330.81Z" fill-rule="evenodd"/><text fill="#000000" fill-opacity="0" font-family="Arial,Arial_MSFontService,sans-serif" font-size="42.9219" x="803.123" y="1368.36">3</text><path d="M734.649 1454.46 753.786 1454.46 753.786 1456.66C750.971 1456.99 749.563 1458.2 749.563 1460.3 749.563 1461.16 749.765 1462.14 750.169 1463.22 750.574 1464.29 751.3 1465.82 752.348 1467.8L761.333 1484.91 770.182 1469.28C771.38 1467.15 772.226 1465.41 772.72 1464.05 773.214 1462.68 773.461 1461.43 773.461 1460.3 773.461 1459.22 773.139 1458.37 772.496 1457.76 771.852 1457.14 770.901 1456.78 769.643 1456.66L769.643 1454.46 786.668 1454.46 786.668 1456.66C785.441 1457.11 784.362 1457.73 783.434 1458.52 782.506 1459.32 781.562 1460.39 780.604 1461.73 779.646 1463.08 778.238 1465.36 776.381 1468.56L763.893 1489.85 763.893 1504.41C763.893 1506.12 763.983 1507.49 764.163 1508.54 764.342 1509.59 764.642 1510.43 765.061 1511.06 765.48 1511.69 766.034 1512.18 766.723 1512.54 767.412 1512.9 768.49 1513.24 769.958 1513.57L769.958 1515.77 749.428 1515.77 749.428 1513.57C750.866 1513.27 751.929 1512.95 752.618 1512.61 753.306 1512.26 753.861 1511.77 754.28 1511.13 754.699 1510.48 755.006 1509.64 755.201 1508.59 755.395 1507.54 755.493 1506.15 755.493 1504.41L755.493 1490.03 743.094 1466.99C741.597 1464.2 740.459 1462.21 739.68 1461.02 738.902 1459.82 738.123 1458.87 737.344 1458.18 736.566 1457.5 735.667 1456.99 734.649 1456.66Z" fill-rule="evenodd"/><text fill="#000000" fill-opacity="0" font-family="Arial,Arial_MSFontService,sans-serif" font-size="61.3184" x="734.649" y="1508.11">Y</text><path d="M798.727 1492.11C800.471 1492.11 802.102 1492.29 803.617 1492.67 805.133 1493.04 806.447 1493.6 807.56 1494.35 808.672 1495.1 809.539 1496.04 810.16 1497.16 810.782 1498.29 811.093 1499.59 811.093 1501.07 811.093 1502.47 810.896 1503.7 810.504 1504.77 810.111 1505.84 809.506 1506.81 808.688 1507.68 807.87 1508.55 806.867 1509.34 805.678 1510.05 804.49 1510.76 803.121 1511.44 801.573 1512.1L801.573 1512.49C803.034 1512.75 804.397 1513.17 805.662 1513.75 806.927 1514.33 808.034 1515.06 808.983 1515.94 809.931 1516.83 810.678 1517.84 811.224 1519 811.769 1520.16 812.041 1521.43 812.041 1522.83 812.041 1524.57 811.714 1526.19 811.06 1527.69 810.406 1529.18 809.424 1530.47 808.116 1531.56 806.807 1532.65 805.193 1533.5 803.274 1534.11 801.355 1534.73 799.108 1535.03 796.535 1535.03 794.506 1535.03 792.445 1534.83 790.352 1534.43 788.258 1534.02 786.273 1533.49 784.397 1532.84L784.397 1525.77 788.618 1525.77C788.967 1526.86 789.381 1527.8 789.861 1528.57 790.341 1529.34 790.902 1529.98 791.546 1530.47 792.189 1530.96 792.931 1531.31 793.77 1531.53 794.61 1531.75 795.564 1531.86 796.633 1531.86 799.446 1531.86 801.578 1531.19 803.029 1529.85 804.479 1528.5 805.204 1526.47 805.204 1523.74 805.204 1520.84 804.25 1518.65 802.341 1517.15 800.433 1515.66 797.603 1514.91 793.852 1514.91L790.973 1514.91 790.973 1511.77C793.263 1511.66 795.242 1511.34 796.911 1510.81 798.579 1510.27 799.97 1509.58 801.082 1508.73 802.194 1507.88 803.023 1506.89 803.568 1505.75 804.114 1504.62 804.386 1503.41 804.386 1502.12 804.386 1500.03 803.765 1498.37 802.521 1497.16 801.278 1495.95 799.479 1495.35 797.123 1495.35 795.139 1495.35 793.476 1495.89 792.134 1496.98 790.793 1498.07 789.763 1499.7 789.043 1501.86L784.888 1501.86 784.888 1495.41C787.462 1494.32 789.888 1493.5 792.167 1492.94 794.446 1492.39 796.633 1492.11 798.727 1492.11Z" fill-rule="evenodd"/><text fill="#000000" fill-opacity="0" font-family="Arial,Arial_MSFontService,sans-serif" font-size="42.9219" x="784.397" y="1529.67">3</text><path d="M438.493 1480.37 457.629 1480.37 457.629 1482.57C456.192 1482.78 455.159 1483.17 454.53 1483.74 453.901 1484.31 453.586 1485.09 453.586 1486.08 453.586 1486.91 453.871 1487.96 454.44 1489.22 455.009 1490.48 455.817 1491.98 456.866 1493.71L463.379 1504.63 469.803 1494.25C470.761 1492.69 471.48 1491.45 471.959 1490.52 472.439 1489.59 472.775 1488.82 472.97 1488.19 473.165 1487.56 473.262 1486.91 473.262 1486.26 473.262 1485.33 472.993 1484.54 472.453 1483.9 471.914 1483.25 471.016 1482.81 469.758 1482.57L469.758 1480.37 486.424 1480.37 486.424 1482.57C485.316 1482.93 484.32 1483.45 483.437 1484.14 482.553 1484.83 481.61 1485.84 480.607 1487.15 479.604 1488.47 478.174 1490.55 476.317 1493.4L466.164 1509.12 477.575 1527.9C479.192 1530.56 480.352 1532.43 481.056 1533.49 481.76 1534.55 482.419 1535.45 483.033 1536.19 483.647 1536.92 484.305 1537.56 485.009 1538.09 485.713 1538.63 486.589 1539.1 487.637 1539.49L487.637 1541.69 467.916 1541.69 467.916 1539.49C469.294 1539.25 470.312 1538.87 470.971 1538.34 471.63 1537.82 471.959 1537.03 471.959 1535.98 471.959 1535.15 471.742 1534.22 471.308 1533.2 470.874 1532.18 470.207 1530.92 469.309 1529.43L461.178 1515.86 452.598 1529.92C451.161 1532.29 450.442 1534.23 450.442 1535.76 450.442 1536.75 450.711 1537.56 451.25 1538.18 451.789 1538.81 452.688 1539.25 453.946 1539.49L453.946 1541.69 436.965 1541.69 436.965 1539.49C438.073 1539.16 438.987 1538.76 439.705 1538.3 440.424 1537.83 441.113 1537.24 441.772 1536.52 442.431 1535.8 443.164 1534.89 443.973 1533.78 444.782 1532.67 446.069 1530.74 447.836 1527.99L458.438 1511.46 445.77 1490.61C444.572 1488.7 443.666 1487.3 443.052 1486.43 442.438 1485.57 441.869 1484.86 441.345 1484.32 440.821 1483.78 440.349 1483.4 439.93 1483.18 439.511 1482.95 439.032 1482.75 438.493 1482.57Z" fill-rule="evenodd"/><text fill="#000000" fill-opacity="0" font-family="Arial,Arial_MSFontService,sans-serif" font-size="61.3184" x="436.965" y="1534.02">X</text><path d="M510.304 1518.02C512.049 1518.02 513.679 1518.21 515.195 1518.58 516.711 1518.95 518.025 1519.51 519.137 1520.26 520.249 1521.02 521.116 1521.95 521.738 1523.08 522.359 1524.2 522.67 1525.5 522.67 1526.99 522.67 1528.38 522.474 1529.61 522.081 1530.68 521.689 1531.75 521.083 1532.72 520.266 1533.6 519.448 1534.47 518.444 1535.26 517.256 1535.97 516.067 1536.68 514.699 1537.36 513.15 1538.01L513.15 1538.4C514.611 1538.67 515.974 1539.09 517.239 1539.66 518.504 1540.24 519.611 1540.97 520.56 1541.86 521.509 1542.74 522.256 1543.76 522.801 1544.91 523.346 1546.07 523.619 1547.35 523.619 1548.74 523.619 1550.49 523.292 1552.11 522.637 1553.6 521.983 1555.09 521.002 1556.39 519.693 1557.48 518.384 1558.57 516.771 1559.42 514.851 1560.03 512.932 1560.64 510.686 1560.94 508.112 1560.94 506.084 1560.94 504.023 1560.74 501.929 1560.34 499.835 1559.94 497.85 1559.41 495.975 1558.75L495.975 1551.69 500.195 1551.69C500.544 1552.78 500.958 1553.71 501.438 1554.48 501.918 1555.26 502.48 1555.89 503.123 1556.38 503.766 1556.87 504.508 1557.23 505.348 1557.44 506.187 1557.66 507.141 1557.77 508.21 1557.77 511.024 1557.77 513.156 1557.1 514.606 1555.76 516.056 1554.42 516.781 1552.38 516.781 1549.66 516.781 1546.76 515.827 1544.56 513.919 1543.07 512.01 1541.57 509.181 1540.83 505.429 1540.83L502.55 1540.83 502.55 1537.68C504.84 1537.58 506.82 1537.25 508.488 1536.72 510.157 1536.19 511.547 1535.49 512.659 1534.64 513.772 1533.79 514.6 1532.8 515.146 1531.67 515.691 1530.53 515.964 1529.32 515.964 1528.03 515.964 1525.94 515.342 1524.29 514.099 1523.08 512.856 1521.87 511.056 1521.26 508.701 1521.26 506.716 1521.26 505.053 1521.81 503.712 1522.9 502.371 1523.99 501.34 1525.61 500.62 1527.77L496.465 1527.77 496.465 1521.33C499.039 1520.24 501.465 1519.41 503.745 1518.86 506.024 1518.3 508.21 1518.02 510.304 1518.02Z" fill-rule="evenodd"/><text fill="#000000" fill-opacity="0" font-family="Arial,Arial_MSFontService,sans-serif" font-size="42.9219" x="495.975" y="1555.58">3</text><path d="M668 1501.5C668 1484.1 682.103 1470 699.5 1470 716.897 1470 731 1484.1 731 1501.5 731 1518.9 716.897 1533 699.5 1533 682.103 1533 668 1518.9 668 1501.5Z" stroke="#4EA72E" stroke-width="10.3125" stroke-miterlimit="8" fill="#FFFFFF" fill-rule="evenodd"/><path d="M691.5 1502C691.5 1497.31 695.306 1493.5 700 1493.5 704.694 1493.5 708.5 1497.31 708.5 1502 708.5 1506.69 704.694 1510.5 700 1510.5 695.306 1510.5 691.5 1506.69 691.5 1502Z" stroke="#4EA72E" stroke-width="1.14583" stroke-miterlimit="8" fill="#4EA72E" fill-rule="evenodd"/><path d="M0 0 0.000360892 176.37" stroke="#000000" stroke-width="6.875" stroke-miterlimit="8" stroke-dasharray="55 20.625" fill="none" fill-rule="evenodd" transform="matrix(1 0 0 -1 703.5 1319.87)"/><path d="M0 0 0.000360892 333.464" stroke="#000000" stroke-width="6.875" stroke-miterlimit="8" stroke-dasharray="55 20.625" fill="none" fill-rule="evenodd" transform="matrix(1 0 0 -1 370.5 1500.96)"/><text font-family="Aptos,Aptos_MSFontService,sans-serif" font-weight="400" font-size="92" transform="matrix(1 0 0 1 1997.71 2592)">0.1 </text><text font-family="Aptos,Aptos_MSFontService,sans-serif" font-weight="400" font-size="92" transform="matrix(1 0 0 1 2140.37 2592)">-</text><text font-family="Aptos,Aptos_MSFontService,sans-serif" font-weight="400" font-size="92" transform="matrix(1 0 0 1 2190.21 2592)">0.4  m</text><text font-family="Aptos,Aptos_MSFontService,sans-serif" font-weight="400" font-size="92" transform="matrix(1 0 0 1 1823.61 1936)">0.6 m</text><text font-family="Aptos,Aptos_MSFontService,sans-serif" font-weight="400" font-size="92" transform="matrix(1 0 0 1 877.6 1173)">0.4 m</text><text font-family="Aptos,Aptos_MSFontService,sans-serif" font-weight="400" font-size="92" transform="matrix(1 0 0 1 405.644 1166)">0.25 m</text><path d="M34.375-6.87497 353.116-6.87467 353.116 6.87533 34.375 6.87503ZM41.25 20.625 0 0 41.25-20.625ZM346.241-20.6247 387.491 0.000360892 346.241 20.6253Z" transform="matrix(-1 0 0 1 1681.49 2923)"/><path d="M0 0 0.000360892 694.505" stroke="#000000" stroke-width="6.875" stroke-miterlimit="8" stroke-dasharray="55 20.625" fill="none" fill-rule="evenodd" transform="matrix(1 0 0 -1 1286.5 3012)"/><path d="M0 0 0.000360892 176.37" stroke="#000000" stroke-width="6.875" stroke-miterlimit="8" stroke-dasharray="55 20.625" fill="none" fill-rule="evenodd" transform="matrix(1 0 0 -1 1682.5 2988.87)"/><text font-family="Aptos,Aptos_MSFontService,sans-serif" font-weight="400" font-size="92" transform="matrix(1 0 0 1 1362.86 3005)">0.3 m</text><path d="M1345.62 2232.17 1348.99 2232.17C1349.59 2234.93 1351.22 2236.31 1353.88 2236.31L1356.58 2236.31C1358.14 2236.31 1359.24 2236 1359.9 2235.39 1360.56 2234.77 1361.07 2233.7 1361.43 2232.17L1364.75 2232.17 1364.75 2246.1 1361.43 2246.1C1360.77 2243.4 1359.3 2242.06 1357.03 2242.06L1353.34 2242.06C1352.06 2242.06 1351.12 2242.33 1350.54 2242.89 1349.95 2243.44 1349.44 2244.51 1348.99 2246.1L1345.62 2246.1ZM1355.14 2212.05C1344.75 2212.05 1339.55 2220.94 1339.55 2238.73 1339.55 2247.93 1340.91 2254.92 1343.62 2259.71 1346.33 2264.5 1350.29 2266.9 1355.5 2266.9 1360.53 2266.9 1364.34 2264.56 1366.93 2259.87 1369.52 2255.18 1370.82 2248.75 1370.82 2240.57 1370.82 2231.32 1369.46 2224.25 1366.75 2219.37 1364.04 2214.49 1360.17 2212.05 1355.14 2212.05ZM1355.46 2208.1C1363.42 2208.1 1369.49 2210.72 1373.65 2215.98 1377.81 2221.24 1379.89 2228.81 1379.89 2238.69 1379.89 2248.99 1377.65 2256.93 1373.18 2262.5 1368.7 2268.07 1362.48 2270.85 1354.51 2270.85 1346.67 2270.85 1340.7 2268.22 1336.61 2262.95 1332.52 2257.68 1330.48 2250.02 1330.48 2239.99 1330.48 2229.87 1332.75 2222.02 1337.29 2216.45 1341.82 2210.88 1347.88 2208.1 1355.46 2208.1Z" fill-rule="evenodd"/><text fill="#000000" fill-opacity="0" font-family="Arial,Arial_MSFontService,sans-serif" font-size="62.7559" x="1330.48" y="2263.01">Θ</text><path d="M1404.82 2246.47C1407.09 2246.47 1409.02 2246.72 1410.63 2247.24 1412.23 2247.75 1413.53 2248.44 1414.54 2249.31 1415.54 2250.19 1416.27 2251.23 1416.71 2252.45 1417.16 2253.68 1417.38 2255 1417.38 2256.41 1417.38 2257.26 1417.32 2258.05 1417.2 2258.78 1417.08 2259.52 1416.88 2260.24 1416.58 2260.94 1416.29 2261.65 1415.9 2262.37 1415.42 2263.09 1414.94 2263.81 1414.34 2264.57 1413.62 2265.38 1413.08 2266.07 1412.37 2266.88 1411.49 2267.8 1410.62 2268.71 1409.67 2269.7 1408.63 2270.74 1407.6 2271.79 1406.51 2272.88 1405.38 2274.01 1404.24 2275.15 1403.14 2276.27 1402.07 2277.38 1401 2278.5 1400.02 2279.57 1399.13 2280.62 1398.23 2281.67 1397.5 2282.63 1396.94 2283.5L1409.04 2283.5C1410.07 2283.5 1410.88 2283.46 1411.49 2283.39 1412.11 2283.31 1412.61 2283.14 1413.02 2282.88 1413.42 2282.62 1413.76 2282.22 1414.05 2281.69 1414.33 2281.15 1414.66 2280.41 1415.03 2279.48L1418.07 2279.48C1417.96 2281.03 1417.86 2282.58 1417.76 2284.16 1417.66 2285.73 1417.56 2287.28 1417.45 2288.83L1389.74 2288.83 1389.74 2287.13C1390.26 2285.95 1390.87 2284.79 1391.57 2283.65 1392.27 2282.5 1393.05 2281.34 1393.93 2280.16 1394.8 2278.99 1395.79 2277.77 1396.9 2276.52 1398.02 2275.26 1399.25 2273.96 1400.6 2272.61 1402.65 2270.56 1404.32 2268.81 1405.61 2267.36 1406.89 2265.91 1407.91 2264.61 1408.65 2263.48 1409.39 2262.35 1409.9 2261.3 1410.17 2260.34 1410.44 2259.38 1410.58 2258.35 1410.58 2257.26 1410.58 2256.15 1410.42 2255.13 1410.1 2254.19 1409.79 2253.25 1409.34 2252.45 1408.75 2251.8 1408.16 2251.15 1407.41 2250.63 1406.51 2250.26 1405.6 2249.89 1404.56 2249.71 1403.38 2249.71 1401.35 2249.71 1399.65 2250.26 1398.28 2251.36 1396.9 2252.46 1395.83 2254.06 1395.07 2256.15L1390.79 2256.15 1390.79 2249.77C1393.58 2248.62 1396.15 2247.78 1398.49 2247.25 1400.83 2246.73 1402.95 2246.47 1404.82 2246.47Z" fill-rule="evenodd"/><text fill="#000000" fill-opacity="0" font-family="Arial,Arial_MSFontService,sans-serif" font-size="42.3657" x="1389.74" y="2283.54">2</text><path d="M21.4712 118.867C8.88794 78.353 30.0401 34.8244 68.7159 21.643 107.392 8.46165 148.945 30.6191 161.529 71.1331 161.645 71.5093 161.759 71.8863 161.871 72.2643L179.514 71.0622 158.427 90.44 130.762 74.3839 148.37 73.1841C136.98 39.9586 102.285 22.7913 70.8772 34.8399 40.2701 46.5812 23.9372 81.842 33.921 114.624Z" stroke="#042433" stroke-width="6.875" stroke-miterlimit="8" fill="#156082" fill-rule="evenodd" transform="matrix(1 -1.22465e-16 -1.22465e-16 -1 1198.5 2407.5)"/><path d="M1567.5 2632.5 1596.5 2603.5 1625.5 2632.5 1604.08 2632.5 1604.08 2788.5 1588.92 2788.5 1588.92 2632.5Z" stroke="#042433" stroke-width="6.875" stroke-miterlimit="8" fill="#156082" fill-rule="evenodd"/><path d="M1502.32 2646.35C1498.49 2646.35 1495.57 2647.89 1493.56 2650.96 1491.55 2654.03 1490.55 2658.44 1490.55 2664.19 1490.55 2669.94 1491.37 2674.31 1493.02 2677.3 1494.67 2680.3 1497.17 2681.79 1500.52 2681.79 1501.84 2681.79 1502.93 2681.68 1503.8 2681.46 1504.67 2681.23 1505.52 2680.87 1506.36 2680.38 1507.2 2679.89 1508.05 2679.2 1508.92 2678.34 1509.79 2677.47 1510.43 2676.67 1510.83 2675.95 1511.24 2675.24 1511.54 2674.41 1511.75 2673.48 1511.96 2672.56 1512.07 2671.36 1512.07 2669.89L1512.07 2659.83C1512.07 2657.49 1511.96 2655.62 1511.75 2654.21 1511.54 2652.8 1511.19 2651.62 1510.7 2650.66 1510.2 2649.71 1509.54 2648.9 1508.7 2648.24 1507.86 2647.58 1506.94 2647.1 1505.93 2646.8 1504.93 2646.5 1503.73 2646.35 1502.32 2646.35ZM1517.14 2622.18 1519.79 2622.18 1519.79 2674.2C1519.79 2676.54 1519.84 2678.21 1519.93 2679.21 1520.02 2680.21 1520.21 2681.02 1520.51 2681.61 1520.81 2682.21 1521.28 2682.7 1521.93 2683.07 1522.57 2683.45 1523.7 2683.8 1525.32 2684.13L1525.32 2686.47 1514.72 2686.92 1512.02 2686.92 1512.56 2679.55 1511.89 2679.37C1510 2681.38 1508.36 2682.88 1506.97 2683.88 1505.58 2684.89 1504.09 2685.69 1502.52 2686.29 1500.95 2686.89 1499.26 2687.19 1497.47 2687.19 1492.56 2687.19 1488.77 2685.32 1486.1 2681.59 1483.44 2677.86 1482.1 2672.48 1482.1 2665.44 1482.1 2660.53 1482.97 2656.36 1484.71 2652.93 1486.45 2649.5 1488.79 2646.95 1491.74 2645.27 1494.69 2643.6 1498.01 2642.76 1501.69 2642.76 1503.67 2642.76 1505.46 2642.91 1507.08 2643.23 1508.7 2643.54 1510.36 2644.06 1512.07 2644.78L1512.07 2637.64C1512.07 2634.76 1512.04 2632.75 1512 2631.62 1511.95 2630.48 1511.83 2629.51 1511.64 2628.72 1511.45 2627.93 1511.18 2627.3 1510.83 2626.85 1510.49 2626.41 1510.02 2626.05 1509.44 2625.78 1508.85 2625.51 1507.8 2625.24 1506.27 2624.97L1506.27 2622.63Z" fill-rule="evenodd"/><text fill="#000000" fill-opacity="0" font-family="Arial,Arial_MSFontService,sans-serif" font-size="65.002" x="1482.1" y="2679.06">d</text><path d="M1548.33 2663.03 1550.32 2663.03C1550.28 2664.23 1550.25 2665.3 1550.23 2666.25 1550.2 2667.2 1550.19 2668.12 1550.18 2669.02 1550.17 2669.91 1550.16 2670.79 1550.16 2671.67L1550.16 2696.53C1550.16 2697.21 1550.18 2697.79 1550.23 2698.28 1550.27 2698.77 1550.34 2699.18 1550.44 2699.52 1550.54 2699.86 1550.67 2700.15 1550.83 2700.39 1550.99 2700.63 1551.18 2700.84 1551.4 2701.01 1551.66 2701.27 1552.01 2701.47 1552.45 2701.62 1552.89 2701.76 1553.44 2701.88 1554.12 2701.98 1554.79 2702.07 1555.61 2702.15 1556.56 2702.21 1557.5 2702.26 1558.64 2702.3 1559.97 2702.32L1559.97 2705.17 1534.03 2705.17 1534.03 2702.32C1535.32 2702.28 1536.41 2702.23 1537.3 2702.17 1538.2 2702.12 1538.96 2702.04 1539.59 2701.94 1540.23 2701.85 1540.73 2701.74 1541.11 2701.62 1541.5 2701.5 1541.83 2701.35 1542.11 2701.18 1542.42 2700.98 1542.68 2700.77 1542.9 2700.54 1543.12 2700.31 1543.29 2700.02 1543.42 2699.67 1543.55 2699.32 1543.66 2698.9 1543.73 2698.39 1543.81 2697.89 1543.85 2697.27 1543.85 2696.53L1543.85 2673.07C1543.85 2672.22 1543.68 2671.62 1543.36 2671.27 1543.03 2670.92 1542.56 2670.75 1541.95 2670.75 1541.27 2670.75 1540.27 2671.1 1538.94 2671.8 1537.61 2672.5 1535.89 2673.53 1533.77 2674.91 1533.49 2674.4 1533.22 2673.9 1532.98 2673.4 1532.74 2672.9 1532.49 2672.39 1532.23 2671.86 1534.94 2670.38 1537.61 2668.9 1540.26 2667.43 1542.91 2665.96 1545.6 2664.49 1548.33 2663.03Z" fill-rule="evenodd"/><text fill="#000000" fill-opacity="0" font-family="Arial,Arial_MSFontService,sans-serif" font-size="42.1367" x="1532.23" y="2699.9">1</text><path d="M1360.43 1447.81 1363.8 1447.81C1364.4 1450.56 1366.03 1451.94 1368.7 1451.94L1371.4 1451.94C1372.95 1451.94 1374.06 1451.63 1374.72 1451.02 1375.38 1450.41 1375.89 1449.34 1376.25 1447.81L1379.57 1447.81 1379.57 1461.73 1376.25 1461.73C1375.59 1459.04 1374.12 1457.69 1371.84 1457.69L1368.16 1457.69C1366.87 1457.69 1365.94 1457.97 1365.35 1458.52 1364.77 1459.08 1364.25 1460.15 1363.8 1461.73L1360.43 1461.73ZM1369.96 1427.68C1359.57 1427.68 1354.37 1436.58 1354.37 1454.37 1354.37 1463.56 1355.72 1470.55 1358.44 1475.35 1361.15 1480.14 1365.11 1482.53 1370.32 1482.53 1375.35 1482.53 1379.16 1480.19 1381.75 1475.5 1384.34 1470.82 1385.64 1464.38 1385.64 1456.21 1385.64 1446.96 1384.28 1439.89 1381.57 1435.01 1378.86 1430.12 1374.99 1427.68 1369.96 1427.68ZM1370.27 1423.73C1378.24 1423.73 1384.3 1426.36 1388.47 1431.61 1392.63 1436.87 1394.71 1444.44 1394.71 1454.32 1394.71 1464.62 1392.47 1472.56 1387.99 1478.13 1383.52 1483.7 1377.29 1486.49 1369.33 1486.49 1361.48 1486.49 1355.52 1483.85 1351.43 1478.58 1347.34 1473.31 1345.3 1465.66 1345.3 1455.63 1345.3 1445.5 1347.56 1437.66 1352.1 1432.09 1356.64 1426.52 1362.7 1423.73 1370.27 1423.73Z" fill-rule="evenodd"/><text fill="#000000" fill-opacity="0" font-family="Arial,Arial_MSFontService,sans-serif" font-size="62.7559" x="1345.3" y="1478.64">Θ</text><path d="M1419.57 1462.1C1421.32 1462.1 1422.95 1462.29 1424.46 1462.66 1425.98 1463.03 1427.29 1463.59 1428.4 1464.34 1429.52 1465.1 1430.38 1466.03 1431.01 1467.16 1431.63 1468.28 1431.94 1469.58 1431.94 1471.07 1431.94 1472.46 1431.74 1473.69 1431.35 1474.76 1430.96 1475.83 1430.35 1476.8 1429.53 1477.67 1428.72 1478.55 1427.71 1479.34 1426.52 1480.05 1425.33 1480.76 1423.97 1481.44 1422.42 1482.09L1422.42 1482.48C1423.88 1482.75 1425.24 1483.16 1426.51 1483.74 1427.77 1484.32 1428.88 1485.05 1429.83 1485.93 1430.78 1486.82 1431.52 1487.84 1432.07 1488.99 1432.61 1490.15 1432.89 1491.43 1432.89 1492.82 1432.89 1494.57 1432.56 1496.19 1431.9 1497.68 1431.25 1499.17 1430.27 1500.47 1428.96 1501.56 1427.65 1502.65 1426.04 1503.5 1424.12 1504.11 1422.2 1504.72 1419.95 1505.02 1417.38 1505.02 1415.35 1505.02 1413.29 1504.82 1411.2 1504.42 1409.1 1504.02 1407.12 1503.49 1405.24 1502.83L1405.24 1495.77 1409.46 1495.77C1409.81 1496.86 1410.23 1497.79 1410.71 1498.56 1411.19 1499.34 1411.75 1499.97 1412.39 1500.46 1413.03 1500.95 1413.78 1501.31 1414.61 1501.52 1415.45 1501.74 1416.41 1501.85 1417.48 1501.85 1420.29 1501.85 1422.42 1501.18 1423.87 1499.84 1425.32 1498.5 1426.05 1496.46 1426.05 1493.74 1426.05 1490.84 1425.09 1488.64 1423.19 1487.15 1421.28 1485.65 1418.45 1484.9 1414.7 1484.9L1411.82 1484.9 1411.82 1481.76C1414.11 1481.65 1416.09 1481.33 1417.76 1480.8 1419.42 1480.26 1420.81 1479.57 1421.93 1478.72 1423.04 1477.87 1423.87 1476.88 1424.41 1475.74 1424.96 1474.61 1425.23 1473.4 1425.23 1472.11 1425.23 1470.02 1424.61 1468.37 1423.37 1467.16 1422.12 1465.95 1420.32 1465.34 1417.97 1465.34 1415.98 1465.34 1414.32 1465.89 1412.98 1466.98 1411.64 1468.07 1410.61 1469.69 1409.89 1471.85L1405.73 1471.85 1405.73 1465.41C1408.31 1464.32 1410.73 1463.49 1413.01 1462.94 1415.29 1462.38 1417.48 1462.1 1419.57 1462.1Z" fill-rule="evenodd"/><text fill="#000000" fill-opacity="0" font-family="Arial,Arial_MSFontService,sans-serif" font-size="42.9219" x="1405.24" y="1499.66">3</text><path d="M21.5151 118.352C8.85766 78.1258 29.93 34.8372 68.5816 21.6641 107.233 8.49096 148.827 30.4218 161.485 70.648 161.603 71.0243 161.719 71.4015 161.832 71.7797L179.469 70.578 158.425 89.94 130.717 73.8998 148.316 72.7005C136.846 39.7657 102.109 22.8266 70.7307 34.8661 40.1586 46.5961 23.9111 81.6144 33.964 114.109Z" stroke="#042433" stroke-width="6.875" stroke-miterlimit="8" fill="#156082" fill-rule="evenodd" transform="matrix(1 -1.22465e-16 -1.22465e-16 -1 1194.5 1597.5)"/></g></svg>