<svg width="1196" height="2281" xmlns="http://www.w3.org/2000/svg" xmlns:xlink="http://www.w3.org/1999/xlink" xml:space="preserve" overflow="hidden"><g transform="translate(-362 -905)"><path d="M1232.19 2162.33 764.5 2156.5" stroke="#000000" stroke-width="6.875" stroke-miterlimit="8" stroke-dasharray="55 20.625" fill="none" fill-rule="evenodd"/><path d="M6.87501 34.3753 6.87535 815.32-6.87465 815.32-6.87499 34.3753ZM-20.625 41.25 0 0 20.625 41.25ZM20.6253 808.445 0.000360892 849.695-20.6247 808.445Z" transform="matrix(1 0 0 -1 732 2158.7)"/><path d="M0 0 479.481 0.000360892" stroke="#000000" stroke-width="6.875" stroke-miterlimit="8" stroke-dasharray="55 20.625" fill="none" fill-rule="evenodd" transform="matrix(-1 0 0 1 1205.98 1312.5)"/><rect x="858.5" y="2966.5" width="696" height="216" stroke="#042433" stroke-width="6.875" stroke-miterlimit="8" fill="#D9F2D0"/><rect x="1134.5" y="2310.5" width="124" height="490" stroke="#042433" stroke-width="6.875" stroke-miterlimit="8" fill="#BFBFBF"/><rect x="1138.5" y="1561.5" width="124" height="490" stroke="#042433" stroke-width="6.875" stroke-miterlimit="8" fill="#BFBFBF"/><rect x="1290.5" y="1193.5" width="101" height="368" stroke="#042433" stroke-width="6.875" stroke-miterlimit="8" fill="#F2CFEE"/><rect x="1009.5" y="1193.5" width="101" height="368" stroke="#042433" stroke-width="6.875" stroke-miterlimit="8" fill="#F2CFEE"/><rect x="1009.5" y="1460.5" width="382" height="101" stroke="#042433" stroke-width="6.875" stroke-miterlimit="8" fill="#F2CFEE"/><path d="M1038.5 2954.5C1038.5 2863.37 1112.37 2789.5 1203.5 2789.5 1294.63 2789.5 1368.5 2863.37 1368.5 2954.5 1368.5 3045.63 1294.63 3119.5 1203.5 3119.5 1112.37 3119.5 1038.5 3045.63 1038.5 2954.5Z" stroke="#042433" stroke-width="6.875" stroke-miterlimit="8" fill="#96DCF8" fill-rule="evenodd"/><path d="M1038.5 2156.5C1038.5 2065.37 1112.37 1991.5 1203.5 1991.5 1294.63 1991.5 1368.5 2065.37 1368.5 2156.5 1368.5 2247.63 1294.63 2321.5 1203.5 2321.5 1112.37 2321.5 1038.5 2247.63 1038.5 2156.5Z" stroke="#042433" stroke-width="6.875" stroke-miterlimit="8" fill="#96DCF8" fill-rule="evenodd"/><path d="M1107.43 2043.03 1147.95 2043.03 1147.95 2045.19 1117.22 2100.22 1133.44 2100.22C1135.45 2100.22 1136.94 2100.03 1137.91 2099.66 1138.88 2099.28 1139.68 2098.7 1140.31 2097.9 1140.94 2097.11 1141.51 2096 1142.02 2094.56 1142.53 2093.12 1143.14 2090.89 1143.86 2087.86L1148.26 2087.86 1148.26 2104.35 1106.76 2104.35 1106.76 2102.15 1137.53 2047.17 1121.22 2047.17C1120.05 2047.17 1119.13 2047.26 1118.46 2047.46 1117.79 2047.65 1117.18 2047.95 1116.64 2048.36 1116.1 2048.76 1115.57 2049.35 1115.04 2050.13 1114.52 2050.91 1114 2051.98 1113.47 2053.34 1112.95 2054.7 1112.4 2056.4 1111.83 2058.44L1107.43 2058.44Z" fill-rule="evenodd"/><text fill="#000000" fill-opacity="0" font-family="Arial,Arial_MSFontService,sans-serif" font-size="61.3184" x="1106.76" y="2096.69">Z</text><path d="M1171.76 2080.91 1173.75 2080.91C1173.71 2082.11 1173.68 2083.19 1173.65 2084.14 1173.63 2085.08 1173.62 2086.01 1173.6 2086.9 1173.59 2087.79 1173.59 2088.68 1173.59 2089.55L1173.59 2114.41C1173.59 2115.09 1173.61 2115.67 1173.65 2116.16 1173.7 2116.65 1173.77 2117.07 1173.87 2117.41 1173.96 2117.75 1174.1 2118.03 1174.26 2118.27 1174.42 2118.51 1174.61 2118.72 1174.83 2118.9 1175.09 2119.16 1175.44 2119.36 1175.88 2119.5 1176.31 2119.64 1176.87 2119.76 1177.55 2119.86 1178.22 2119.96 1179.04 2120.04 1179.98 2120.09 1180.93 2120.14 1182.07 2120.18 1183.4 2120.2L1183.4 2123.05 1157.46 2123.05 1157.46 2120.2C1158.75 2120.16 1159.84 2120.11 1160.73 2120.06 1161.63 2120 1162.39 2119.93 1163.02 2119.83 1163.65 2119.73 1164.16 2119.62 1164.54 2119.5 1164.92 2119.38 1165.26 2119.23 1165.54 2119.06 1165.85 2118.86 1166.11 2118.65 1166.33 2118.42 1166.54 2118.19 1166.72 2117.9 1166.85 2117.55 1166.98 2117.21 1167.08 2116.78 1167.16 2116.28 1167.24 2115.78 1167.27 2115.16 1167.27 2114.41L1167.27 2090.96C1167.27 2090.11 1167.11 2089.51 1166.78 2089.16 1166.46 2088.81 1165.99 2088.63 1165.38 2088.63 1164.7 2088.63 1163.7 2088.98 1162.37 2089.68 1161.04 2090.38 1159.31 2091.42 1157.2 2092.79 1156.91 2092.29 1156.65 2091.79 1156.41 2091.28 1156.17 2090.78 1155.92 2090.27 1155.66 2089.75 1158.36 2088.26 1161.04 2086.79 1163.69 2085.31 1166.34 2083.84 1169.03 2082.38 1171.76 2080.91Z" fill-rule="evenodd"/><text fill="#000000" fill-opacity="0" font-family="Arial,Arial_MSFontService,sans-serif" font-size="42.1367" x="1155.66" y="2117.78">1</text><path d="M1200 2193C1182.88 2193 1169 2178.9 1169 2161.5 1169 2144.1 1182.88 2130 1200 2130 1217.12 2130 1231 2144.1 1231 2161.5 1231 2178.9 1217.12 2193 1200 2193Z" stroke="#0070C0" stroke-width="10.3125" stroke-miterlimit="8" fill="#FFFFFF" fill-rule="evenodd"/><path d="M1200.5 2170.5C1196.08 2170.5 1192.5 2166.69 1192.5 2162 1192.5 2157.31 1196.08 2153.5 1200.5 2153.5 1204.92 2153.5 1208.5 2157.31 1208.5 2162 1208.5 2166.69 1204.92 2170.5 1200.5 2170.5Z" stroke="#0070C0" stroke-width="1.14583" stroke-miterlimit="8" fill="#0070C0" fill-rule="evenodd"/><path d="M6.87502 34.3753 6.87535 765.709-6.87465 765.709-6.87498 34.3753ZM-20.625 41.25 0 0 20.625 41.25ZM20.6253 758.834 0.000360892 800.084-20.6247 758.834Z" transform="matrix(1 0 0 -1 732 2959.08)"/><path d="M1200.19 2965.33 732.5 2959.5" stroke="#000000" stroke-width="6.875" stroke-miterlimit="8" stroke-dasharray="55 20.625" fill="none" fill-rule="evenodd"/><text font-family="Aptos,Aptos_MSFontService,sans-serif" font-weight="400" font-size="92" transform="matrix(1 0 0 1 432.479 2583)">0.</text><text font-family="Aptos,Aptos_MSFontService,sans-serif" font-weight="400" font-size="92" transform="matrix(1 0 0 1 507.531 2583)">35</text><text font-family="Aptos,Aptos_MSFontService,sans-serif" font-weight="400" font-size="92" transform="matrix(1 0 0 1 623.833 2583)">m</text><path d="M1265.74 2885.09 1269.11 2885.09C1269.71 2887.85 1271.34 2889.23 1274 2889.23L1276.7 2889.23C1278.26 2889.23 1279.36 2888.92 1280.02 2888.31 1280.68 2887.69 1281.19 2886.62 1281.55 2885.09L1284.87 2885.09 1284.87 2899.02 1281.55 2899.02C1280.89 2896.33 1279.42 2894.98 1277.15 2894.98L1273.46 2894.98C1272.18 2894.98 1271.24 2895.25 1270.66 2895.81 1270.07 2896.36 1269.56 2897.43 1269.11 2899.02L1265.74 2899.02ZM1275.26 2864.97C1264.87 2864.97 1259.67 2873.86 1259.67 2891.65 1259.67 2900.85 1261.03 2907.84 1263.74 2912.63 1266.45 2917.42 1270.41 2919.82 1275.62 2919.82 1280.65 2919.82 1284.46 2917.48 1287.05 2912.79 1289.64 2908.1 1290.94 2901.67 1290.94 2893.5 1290.94 2884.24 1289.58 2877.17 1286.87 2872.29 1284.16 2867.41 1280.29 2864.97 1275.26 2864.97ZM1275.58 2861.02C1283.54 2861.02 1289.61 2863.64 1293.77 2868.9 1297.93 2874.16 1300.01 2881.73 1300.01 2891.61 1300.01 2901.91 1297.77 2909.85 1293.3 2915.42 1288.82 2920.99 1282.6 2923.77 1274.63 2923.77 1266.79 2923.77 1260.82 2921.14 1256.73 2915.87 1252.64 2910.6 1250.6 2902.94 1250.6 2892.91 1250.6 2882.79 1252.87 2874.94 1257.4 2869.37 1261.94 2863.8 1268 2861.02 1275.58 2861.02Z" fill-rule="evenodd"/><text fill="#000000" fill-opacity="0" font-family="Arial,Arial_MSFontService,sans-serif" font-size="62.7559" x="1250.6" y="2915.93">Θ</text><path d="M1325.36 2899.62 1327.36 2899.62C1327.31 2900.82 1327.28 2901.89 1327.26 2902.84 1327.24 2903.79 1327.22 2904.71 1327.21 2905.6 1327.2 2906.5 1327.19 2907.38 1327.19 2908.25L1327.19 2933.12C1327.19 2933.79 1327.21 2934.38 1327.26 2934.87 1327.3 2935.36 1327.37 2935.77 1327.47 2936.11 1327.57 2936.45 1327.7 2936.74 1327.86 2936.98 1328.03 2937.22 1328.22 2937.42 1328.44 2937.6 1328.7 2937.86 1329.05 2938.06 1329.48 2938.2 1329.92 2938.35 1330.48 2938.47 1331.15 2938.56 1331.83 2938.66 1332.64 2938.74 1333.59 2938.79 1334.54 2938.85 1335.68 2938.89 1337.01 2938.91L1337.01 2941.75 1311.06 2941.75 1311.06 2938.91C1312.35 2938.86 1313.44 2938.82 1314.34 2938.76 1315.23 2938.71 1315.99 2938.63 1316.63 2938.53 1317.26 2938.43 1317.77 2938.32 1318.15 2938.2 1318.53 2938.08 1318.86 2937.94 1319.15 2937.76 1319.45 2937.57 1319.71 2937.35 1319.93 2937.12 1320.15 2936.9 1320.32 2936.61 1320.45 2936.26 1320.58 2935.91 1320.69 2935.48 1320.76 2934.98 1320.84 2934.48 1320.88 2933.86 1320.88 2933.12L1320.88 2909.66C1320.88 2908.81 1320.72 2908.21 1320.39 2907.86 1320.06 2907.51 1319.59 2907.34 1318.98 2907.34 1318.31 2907.34 1317.3 2907.69 1315.97 2908.39 1314.64 2909.08 1312.92 2910.12 1310.8 2911.49 1310.52 2910.99 1310.26 2910.49 1310.02 2909.99 1309.78 2909.49 1309.53 2908.97 1309.27 2908.45 1311.97 2906.97 1314.65 2905.49 1317.3 2904.02 1319.95 2902.55 1322.63 2901.08 1325.36 2899.62Z" fill-rule="evenodd"/><text fill="#000000" fill-opacity="0" font-family="Arial,Arial_MSFontService,sans-serif" font-size="42.1367" x="1309.27" y="2936.49">1</text><path d="M21.3093 118.752C8.87089 78.1606 29.9891 34.621 68.4782 21.5032 106.967 8.38548 148.252 30.6571 160.691 71.2482 160.805 71.6221 160.917 71.9969 161.026 72.3727L178.579 71.1766 157.564 90.4645 130.094 74.4801 147.613 73.2864C136.369 39.9411 101.907 22.6308 70.6401 34.6228 40.1646 46.3114 23.8337 81.6309 33.6922 114.531Z" stroke="#042433" stroke-width="6.875" stroke-miterlimit="8" fill="#156082" fill-rule="evenodd" transform="matrix(1 -1.22465e-16 -1.22465e-16 -1 1119.5 3060.5)"/><path d="M1280.55 2100.73 1283.92 2100.73C1284.52 2103.48 1286.15 2104.86 1288.82 2104.86L1291.51 2104.86C1293.07 2104.86 1294.18 2104.56 1294.84 2103.94 1295.5 2103.33 1296.01 2102.26 1296.37 2100.73L1299.69 2100.73 1299.69 2114.66 1296.37 2114.66C1295.71 2111.96 1294.24 2110.61 1291.96 2110.61L1288.28 2110.61C1286.99 2110.61 1286.06 2110.89 1285.47 2111.44 1284.89 2112 1284.37 2113.07 1283.92 2114.66L1280.55 2114.66ZM1290.08 2080.6C1279.69 2080.6 1274.49 2089.5 1274.49 2107.29 1274.49 2116.48 1275.84 2123.47 1278.55 2128.27 1281.27 2133.06 1285.23 2135.45 1290.44 2135.45 1295.47 2135.45 1299.28 2133.11 1301.87 2128.42 1304.46 2123.74 1305.76 2117.31 1305.76 2109.13 1305.76 2099.88 1304.4 2092.81 1301.69 2087.93 1298.98 2083.05 1295.11 2080.6 1290.08 2080.6ZM1290.39 2076.65C1298.36 2076.65 1304.42 2079.28 1308.59 2084.54 1312.75 2089.79 1314.83 2097.36 1314.83 2107.24 1314.83 2117.55 1312.59 2125.48 1308.11 2131.05 1303.64 2136.62 1297.41 2139.41 1289.45 2139.41 1281.6 2139.41 1275.63 2136.77 1271.55 2131.5 1267.46 2126.23 1265.42 2118.58 1265.42 2108.55 1265.42 2098.42 1267.68 2090.58 1272.22 2085.01 1276.76 2079.44 1282.81 2076.65 1290.39 2076.65Z" fill-rule="evenodd"/><text fill="#000000" fill-opacity="0" font-family="Arial,Arial_MSFontService,sans-serif" font-size="62.7559" x="1265.42" y="2131.56">Θ</text><path d="M1339.76 2115.02C1342.02 2115.02 1343.96 2115.28 1345.56 2115.79 1347.17 2116.3 1348.47 2117 1349.47 2117.87 1350.48 2118.74 1351.2 2119.79 1351.65 2121.01 1352.1 2122.23 1352.32 2123.55 1352.32 2124.97 1352.32 2125.82 1352.26 2126.61 1352.14 2127.34 1352.02 2128.07 1351.81 2128.79 1351.52 2129.5 1351.22 2130.21 1350.84 2130.92 1350.36 2131.64 1349.88 2132.36 1349.28 2133.12 1348.56 2133.93 1348.01 2134.63 1347.3 2135.44 1346.43 2136.35 1345.56 2137.27 1344.6 2138.25 1343.57 2139.3 1342.53 2140.34 1341.45 2141.43 1340.31 2142.57 1339.18 2143.7 1338.08 2144.83 1337.01 2145.94 1335.94 2147.05 1334.96 2148.13 1334.06 2149.18 1333.17 2150.22 1332.44 2151.18 1331.87 2152.06L1343.98 2152.06C1345 2152.06 1345.82 2152.02 1346.43 2151.94 1347.04 2151.86 1347.55 2151.7 1347.95 2151.43 1348.35 2151.17 1348.7 2150.77 1348.98 2150.24 1349.27 2149.71 1349.59 2148.97 1349.96 2148.03L1353.01 2148.03C1352.9 2149.58 1352.79 2151.14 1352.7 2152.71 1352.6 2154.28 1352.49 2155.84 1352.38 2157.39L1324.67 2157.39 1324.67 2155.69C1325.2 2154.51 1325.81 2153.35 1326.51 2152.2 1327.2 2151.06 1327.99 2149.9 1328.86 2148.72 1329.73 2147.54 1330.73 2146.33 1331.84 2145.07 1332.95 2143.82 1334.18 2142.51 1335.54 2141.16 1337.59 2139.11 1339.25 2137.36 1340.54 2135.91 1341.83 2134.46 1342.84 2133.17 1343.58 2132.03 1344.33 2130.9 1344.83 2129.85 1345.11 2128.89 1345.38 2127.93 1345.51 2126.91 1345.51 2125.82 1345.51 2124.71 1345.36 2123.68 1345.04 2122.74 1344.72 2121.81 1344.27 2121.01 1343.68 2120.36 1343.09 2119.7 1342.35 2119.19 1341.44 2118.82 1340.54 2118.45 1339.49 2118.26 1338.32 2118.26 1336.29 2118.26 1334.59 2118.81 1333.21 2119.91 1331.84 2121.01 1330.77 2122.61 1330.01 2124.71L1325.72 2124.71 1325.72 2118.33C1328.51 2117.17 1331.08 2116.33 1333.43 2115.81 1335.77 2115.28 1337.88 2115.02 1339.76 2115.02Z" fill-rule="evenodd"/><text fill="#000000" fill-opacity="0" font-family="Arial,Arial_MSFontService,sans-serif" font-size="42.3657" x="1324.67" y="2152.09">2</text><path d="M21.5151 118.352C8.85758 78.1258 29.93 34.8371 68.5816 21.664 107.233 8.49089 148.828 30.4217 161.485 70.6479 161.603 71.0242 161.719 71.4014 161.832 71.7796L179.469 70.578 158.426 89.94 130.717 73.8998 148.316 72.7005C136.846 39.7657 102.109 22.8267 70.7305 34.8662 40.1584 46.5962 23.9109 81.6145 33.9639 114.109Z" stroke="#042433" stroke-width="6.875" stroke-miterlimit="8" fill="#156082" fill-rule="evenodd" transform="matrix(1 -1.22465e-16 -1.22465e-16 -1 1114.5 2250.5)"/><path d="M1242 2952.12 1404.32 2952.13 1404.32 2965.88 1242 2965.88ZM1397.44 2938.38 1438.69 2959 1397.44 2979.63Z" fill="#FF0000"/><path d="M6.875-8.10369e-06 6.87532 271.799-6.87468 271.799-6.875 8.10369e-06ZM20.6253 264.923 0.000360892 306.174-20.6247 264.924Z" fill="#4EA72E" transform="matrix(1 0 0 -1 1208 2924.17)"/><path d="M1082.57 2850.61 1123.09 2850.61 1123.09 2852.76 1092.36 2907.79 1108.58 2907.79C1110.59 2907.79 1112.08 2907.6 1113.05 2907.23 1114.02 2906.86 1114.82 2906.27 1115.45 2905.48 1116.08 2904.68 1116.65 2903.57 1117.16 2902.13 1117.67 2900.69 1118.28 2898.46 1119 2895.44L1123.4 2895.44 1123.4 2911.92 1081.9 2911.92 1081.9 2909.72 1112.67 2854.74 1096.36 2854.74C1095.19 2854.74 1094.27 2854.84 1093.6 2855.03 1092.93 2855.23 1092.32 2855.52 1091.78 2855.93 1091.24 2856.33 1090.71 2856.92 1090.19 2857.7 1089.66 2858.48 1089.14 2859.55 1088.61 2860.92 1088.09 2862.28 1087.54 2863.98 1086.97 2866.01L1082.57 2866.01Z" fill-rule="evenodd"/><text fill="#000000" fill-opacity="0" font-family="Arial,Arial_MSFontService,sans-serif" font-size="61.3184" x="1081.9" y="2904.26">Z</text><path d="M1146.35 2891.43C1144.82 2891.43 1143.54 2891.83 1142.52 2892.63 1141.49 2893.42 1140.68 2894.59 1140.08 2896.13 1139.48 2897.66 1139.06 2899.54 1138.8 2901.75 1138.55 2903.97 1138.43 2906.48 1138.43 2909.29 1138.43 2912.54 1138.59 2915.35 1138.9 2917.72 1139.22 2920.08 1139.71 2922.03 1140.37 2923.56 1141.04 2925.08 1141.87 2926.21 1142.88 2926.93 1143.88 2927.65 1145.08 2928.01 1146.48 2928.01 1147.78 2928.01 1148.93 2927.67 1149.91 2926.99 1150.89 2926.32 1151.7 2925.26 1152.35 2923.84 1152.99 2922.41 1153.48 2920.6 1153.8 2918.41 1154.13 2916.21 1154.29 2913.62 1154.29 2910.64 1154.29 2907.28 1154.11 2904.39 1153.76 2901.97 1153.4 2899.54 1152.89 2897.55 1152.23 2896 1151.58 2894.44 1150.76 2893.29 1149.76 2892.54 1148.77 2891.8 1147.63 2891.43 1146.35 2891.43ZM1146.48 2888.26C1149.07 2888.26 1151.29 2888.74 1153.13 2889.71 1154.98 2890.68 1156.48 2892.07 1157.65 2893.87 1158.81 2895.67 1159.67 2897.87 1160.22 2900.46 1160.76 2903.06 1161.03 2905.99 1161.03 2909.26 1161.03 2916.52 1159.75 2922.01 1157.17 2925.73 1154.6 2929.45 1150.87 2931.31 1145.99 2931.31 1141.14 2931.31 1137.54 2929.56 1135.19 2926.04 1132.83 2922.53 1131.66 2917.21 1131.66 2910.08 1131.66 2906.35 1132.02 2903.12 1132.75 2900.4 1133.48 2897.67 1134.51 2895.41 1135.83 2893.61 1137.15 2891.81 1138.71 2890.47 1140.52 2889.58 1142.33 2888.7 1144.32 2888.26 1146.48 2888.26Z" fill-rule="evenodd"/><text fill="#000000" fill-opacity="0" font-family="Arial,Arial_MSFontService,sans-serif" font-size="43.0527" x="1131.66" y="2925.93">0</text><path d="M1175 2959C1175 2941.88 1188.88 2928 1206 2928 1223.12 2928 1237 2941.88 1237 2959 1237 2976.12 1223.12 2990 1206 2990 1188.88 2990 1175 2976.12 1175 2959Z" stroke="#0070C0" stroke-width="10.3125" stroke-miterlimit="8" fill="#FFFFFF" fill-rule="evenodd"/><path d="M1198.5 2959.5C1198.5 2955.08 1202.08 2951.5 1206.5 2951.5 1210.92 2951.5 1214.5 2955.08 1214.5 2959.5 1214.5 2963.92 1210.92 2967.5 1206.5 2967.5 1202.08 2967.5 1198.5 2963.92 1198.5 2959.5Z" stroke="#0070C0" stroke-width="1.14583" stroke-miterlimit="8" fill="#0070C0" fill-rule="evenodd"/><path d="M1271.23 2599.08 1288.49 2599.08 1288.49 2601.07C1285.95 2601.37 1284.68 2602.46 1284.68 2604.35 1284.68 2605.13 1284.87 2606.01 1285.23 2606.99 1285.6 2607.96 1286.25 2609.34 1287.2 2611.12L1295.3 2626.56 1303.29 2612.46C1304.37 2610.54 1305.13 2608.96 1305.58 2607.74 1306.02 2606.51 1306.24 2605.38 1306.24 2604.35 1306.24 2603.38 1305.95 2602.62 1305.37 2602.06 1304.79 2601.51 1303.93 2601.18 1302.8 2601.07L1302.8 2599.08 1318.16 2599.08 1318.16 2601.07C1317.05 2601.47 1316.08 2602.03 1315.24 2602.75 1314.4 2603.47 1313.55 2604.43 1312.69 2605.65 1311.82 2606.86 1310.55 2608.92 1308.88 2611.81L1297.61 2631.02 1297.61 2644.15C1297.61 2645.69 1297.69 2646.93 1297.86 2647.88 1298.02 2648.82 1298.29 2649.58 1298.67 2650.15 1299.04 2650.71 1299.54 2651.16 1300.17 2651.48 1300.79 2651.81 1301.76 2652.12 1303.08 2652.42L1303.08 2654.4 1284.56 2654.4 1284.56 2652.42C1285.86 2652.15 1286.82 2651.86 1287.44 2651.55 1288.06 2651.23 1288.56 2650.79 1288.94 2650.21 1289.32 2649.63 1289.59 2648.86 1289.77 2647.92 1289.95 2646.97 1290.03 2645.72 1290.03 2644.15L1290.03 2631.18 1278.85 2610.39C1277.5 2607.88 1276.47 2606.08 1275.77 2605 1275.07 2603.92 1274.36 2603.07 1273.66 2602.45 1272.96 2601.83 1272.15 2601.37 1271.23 2601.07Z" fill-rule="evenodd"/><text fill="#000000" fill-opacity="0" font-family="Arial,Arial_MSFontService,sans-serif" font-size="55.3198" x="1271.23" y="2647.49">Y</text><path d="M1329.09 2635.56C1327.7 2635.56 1326.54 2635.93 1325.61 2636.65 1324.67 2637.38 1323.93 2638.44 1323.39 2639.84 1322.84 2641.24 1322.45 2642.95 1322.23 2644.96 1322 2646.98 1321.88 2649.26 1321.88 2651.83 1321.88 2654.79 1322.03 2657.34 1322.32 2659.5 1322.6 2661.65 1323.05 2663.42 1323.66 2664.81 1324.26 2666.2 1325.02 2667.23 1325.93 2667.88 1326.85 2668.54 1327.94 2668.86 1329.21 2668.86 1330.4 2668.86 1331.44 2668.56 1332.34 2667.94 1333.23 2667.32 1333.97 2666.37 1334.56 2665.07 1335.14 2663.77 1335.58 2662.12 1335.88 2660.12 1336.18 2658.13 1336.33 2655.77 1336.33 2653.05 1336.33 2649.99 1336.17 2647.36 1335.84 2645.15 1335.51 2642.95 1335.05 2641.14 1334.45 2639.72 1333.86 2638.3 1333.11 2637.25 1332.2 2636.58 1331.3 2635.9 1330.26 2635.56 1329.09 2635.56ZM1329.21 2632.67C1331.57 2632.67 1333.59 2633.12 1335.27 2634 1336.95 2634.88 1338.32 2636.14 1339.38 2637.78 1340.44 2639.42 1341.22 2641.42 1341.72 2643.78 1342.22 2646.15 1342.47 2648.82 1342.47 2651.8 1342.47 2658.41 1341.29 2663.41 1338.95 2666.79 1336.61 2670.18 1333.21 2671.87 1328.76 2671.87 1324.36 2671.87 1321.08 2670.27 1318.93 2667.08 1316.79 2663.88 1315.72 2659.03 1315.72 2652.54 1315.72 2649.15 1316.05 2646.21 1316.72 2643.72 1317.38 2641.24 1318.31 2639.18 1319.52 2637.54 1320.72 2635.91 1322.14 2634.69 1323.79 2633.88 1325.44 2633.08 1327.24 2632.67 1329.21 2632.67Z" fill-rule="evenodd"/><text fill="#000000" fill-opacity="0" font-family="Arial,Arial_MSFontService,sans-serif" font-size="39.1973" x="1315.72" y="2666.97">0</text><path d="M1451.11 2884.58 1468.37 2884.58 1468.37 2886.57C1467.08 2886.76 1466.14 2887.11 1465.58 2887.62 1465.01 2888.14 1464.73 2888.84 1464.73 2889.73 1464.73 2890.49 1464.98 2891.43 1465.5 2892.57 1466.01 2893.7 1466.74 2895.05 1467.68 2896.62L1473.56 2906.47 1479.36 2897.11C1480.22 2895.7 1480.87 2894.58 1481.3 2893.74 1481.73 2892.91 1482.04 2892.2 1482.21 2891.64 1482.39 2891.07 1482.48 2890.49 1482.48 2889.89 1482.48 2889.06 1482.23 2888.35 1481.75 2887.77 1481.26 2887.18 1480.45 2886.79 1479.32 2886.57L1479.32 2884.58 1494.35 2884.58 1494.35 2886.57C1493.35 2886.89 1492.45 2887.37 1491.66 2887.99 1490.86 2888.61 1490.01 2889.52 1489.1 2890.7 1488.2 2891.89 1486.91 2893.77 1485.23 2896.34L1476.07 2910.52 1486.37 2927.46C1487.83 2929.87 1488.87 2931.55 1489.51 2932.51 1490.14 2933.47 1490.74 2934.28 1491.29 2934.94 1491.85 2935.6 1492.44 2936.18 1493.08 2936.66 1493.71 2937.15 1494.5 2937.57 1495.45 2937.92L1495.45 2939.9 1477.65 2939.9 1477.65 2937.92C1478.9 2937.7 1479.82 2937.36 1480.41 2936.88 1481 2936.41 1481.3 2935.7 1481.3 2934.76 1481.3 2934 1481.11 2933.16 1480.71 2932.24 1480.32 2931.33 1479.72 2930.19 1478.91 2928.84L1471.58 2916.6 1463.83 2929.29C1462.54 2931.42 1461.89 2933.18 1461.89 2934.55 1461.89 2935.45 1462.13 2936.18 1462.62 2936.74 1463.11 2937.31 1463.92 2937.7 1465.05 2937.92L1465.05 2939.9 1449.73 2939.9 1449.73 2937.92C1450.73 2937.62 1451.55 2937.26 1452.2 2936.84 1452.85 2936.43 1453.47 2935.89 1454.07 2935.24 1454.66 2934.59 1455.32 2933.77 1456.05 2932.77 1456.78 2931.77 1457.94 2930.03 1459.54 2927.54L1469.1 2912.63 1457.67 2893.82C1456.59 2892.1 1455.78 2890.84 1455.22 2890.06 1454.67 2889.27 1454.16 2888.64 1453.68 2888.15 1453.21 2887.66 1452.78 2887.32 1452.41 2887.12 1452.03 2886.91 1451.6 2886.73 1451.11 2886.57Z" fill-rule="evenodd"/><text fill="#000000" fill-opacity="0" font-family="Arial,Arial_MSFontService,sans-serif" font-size="55.3198" x="1449.73" y="2932.99">X</text><path d="M1515.93 2921.07C1514.54 2921.07 1513.38 2921.43 1512.44 2922.15 1511.51 2922.88 1510.77 2923.94 1510.22 2925.34 1509.68 2926.74 1509.29 2928.45 1509.06 2930.46 1508.83 2932.48 1508.72 2934.77 1508.72 2937.33 1508.72 2940.29 1508.86 2942.84 1509.15 2945 1509.44 2947.15 1509.89 2948.92 1510.49 2950.31 1511.1 2951.7 1511.86 2952.73 1512.77 2953.38 1513.68 2954.04 1514.78 2954.36 1516.05 2954.36 1517.24 2954.36 1518.28 2954.06 1519.17 2953.44 1520.07 2952.83 1520.81 2951.87 1521.39 2950.57 1521.98 2949.27 1522.42 2947.62 1522.72 2945.62 1523.02 2943.63 1523.17 2941.27 1523.17 2938.55 1523.17 2935.49 1523 2932.86 1522.67 2930.66 1522.35 2928.45 1521.89 2926.64 1521.29 2925.22 1520.69 2923.8 1519.94 2922.75 1519.04 2922.08 1518.14 2921.4 1517.1 2921.07 1515.93 2921.07ZM1516.05 2918.18C1518.41 2918.18 1520.43 2918.62 1522.11 2919.5 1523.79 2920.39 1525.16 2921.65 1526.22 2923.28 1527.28 2924.92 1528.06 2926.92 1528.56 2929.29 1529.05 2931.65 1529.3 2934.32 1529.3 2937.3 1529.3 2943.91 1528.13 2948.91 1525.79 2952.29 1523.44 2955.68 1520.05 2957.37 1515.6 2957.37 1511.19 2957.37 1507.92 2955.77 1505.77 2952.58 1503.63 2949.38 1502.55 2944.54 1502.55 2938.04 1502.55 2934.65 1502.89 2931.71 1503.55 2929.23 1504.22 2926.74 1505.15 2924.68 1506.35 2923.05 1507.55 2921.41 1508.98 2920.19 1510.63 2919.38 1512.27 2918.58 1514.08 2918.18 1516.05 2918.18Z" fill-rule="evenodd"/><text fill="#000000" fill-opacity="0" font-family="Arial,Arial_MSFontService,sans-serif" font-size="39.1973" x="1502.55" y="2952.47">0</text><path d="M7.46629e-06-6.875 297.937-6.87468 297.937 6.87532-7.46629e-06 6.875ZM291.062-20.6247 332.312 0.000360892 291.061 20.6253Z" fill="#4EA72E" transform="matrix(-1 0 0 1 1241.31 1313)"/><path d="M6.875-8.10369e-06 6.87532 271.799-6.87468 271.799-6.875 8.10369e-06ZM20.6253 264.923 0.000360892 306.174-20.6247 264.924Z" fill="#FF0000" transform="matrix(1 0 0 -1 1208 1279.17)"/><path d="M1145.51 1361.73 1186.03 1361.73 1186.03 1363.88 1155.31 1418.91 1171.52 1418.91C1173.53 1418.91 1175.02 1418.73 1175.99 1418.35 1176.97 1417.98 1177.77 1417.39 1178.4 1416.6 1179.03 1415.81 1179.6 1414.69 1180.1 1413.25 1180.61 1411.81 1181.23 1409.58 1181.95 1406.56L1186.35 1406.56 1186.35 1423.05 1144.84 1423.05 1144.84 1420.84 1175.61 1365.86 1159.31 1365.86C1158.14 1365.86 1157.22 1365.96 1156.54 1366.15 1155.87 1366.35 1155.26 1366.65 1154.72 1367.05 1154.18 1367.45 1153.65 1368.05 1153.13 1368.82 1152.61 1369.6 1152.08 1370.67 1151.56 1372.04 1151.03 1373.4 1150.49 1375.1 1149.92 1377.14L1145.51 1377.14Z" fill-rule="evenodd"/><text fill="#000000" fill-opacity="0" font-family="Arial,Arial_MSFontService,sans-serif" font-size="61.3184" x="1144.84" y="1415.38">Z</text><path d="M1249.18 1411.58C1247.98 1411.58 1246.8 1411.88 1245.63 1412.47 1244.47 1413.05 1243.36 1413.89 1242.33 1414.97 1241.29 1416.05 1240.35 1417.36 1239.5 1418.89 1238.65 1420.43 1237.94 1422.15 1237.37 1424.05 1240.14 1424.02 1242.52 1423.81 1244.52 1423.39 1246.52 1422.98 1248.15 1422.41 1249.43 1421.69 1250.7 1420.97 1251.64 1420.12 1252.24 1419.14 1252.84 1418.16 1253.14 1417.08 1253.14 1415.9 1253.14 1414.55 1252.8 1413.49 1252.13 1412.73 1251.45 1411.96 1250.47 1411.58 1249.18 1411.58ZM1213.18 1411.58C1211.98 1411.58 1210.8 1411.88 1209.63 1412.47 1208.47 1413.05 1207.36 1413.89 1206.33 1414.97 1205.29 1416.05 1204.35 1417.36 1203.5 1418.89 1202.65 1420.43 1201.94 1422.15 1201.37 1424.05 1204.14 1424.02 1206.52 1423.81 1208.52 1423.39 1210.52 1422.98 1212.15 1422.41 1213.43 1421.69 1214.7 1420.97 1215.64 1420.12 1216.24 1419.14 1216.84 1418.16 1217.14 1417.08 1217.14 1415.9 1217.14 1414.55 1216.8 1413.49 1216.13 1412.73 1215.45 1411.96 1214.47 1411.58 1213.18 1411.58ZM1250.59 1408.34C1253.38 1408.34 1255.5 1408.95 1256.95 1410.18 1258.4 1411.4 1259.13 1413.13 1259.13 1415.38 1259.13 1423.27 1251.66 1427.22 1236.72 1427.22 1236.61 1427.79 1236.52 1428.4 1236.46 1429.07 1236.39 1429.73 1236.36 1430.46 1236.36 1431.24 1236.36 1433.62 1236.84 1435.36 1237.81 1436.45 1238.78 1437.54 1240.29 1438.08 1242.34 1438.08 1243.41 1438.08 1244.43 1437.97 1245.39 1437.74 1246.35 1437.51 1247.29 1437.15 1248.22 1436.67 1249.14 1436.19 1250.08 1435.58 1251.01 1434.83 1251.95 1434.07 1252.93 1433.17 1253.96 1432.13L1256.41 1434.78C1253.88 1437.29 1251.36 1439.17 1248.84 1440.44 1246.32 1441.7 1243.61 1442.33 1240.71 1442.33 1239.01 1442.33 1237.5 1442.08 1236.18 1441.57 1234.86 1441.05 1233.75 1440.31 1232.84 1439.32 1231.94 1438.34 1231.25 1437.15 1230.78 1435.74 1230.31 1434.34 1230.08 1432.75 1230.08 1430.98 1230.08 1429.74 1230.19 1428.45 1230.4 1427.11 1230.62 1425.76 1230.96 1424.42 1231.42 1423.08 1231.88 1421.74 1232.44 1420.43 1233.12 1419.16 1233.8 1417.88 1234.59 1416.69 1235.51 1415.57 1237.34 1413.31 1239.55 1411.53 1242.13 1410.26 1244.72 1408.98 1247.54 1408.34 1250.59 1408.34ZM1214.59 1408.34C1217.38 1408.34 1219.5 1408.95 1220.95 1410.18 1222.4 1411.4 1223.13 1413.13 1223.13 1415.38 1223.13 1423.27 1215.66 1427.22 1200.72 1427.22 1200.61 1427.79 1200.52 1428.4 1200.46 1429.07 1200.39 1429.73 1200.36 1430.46 1200.36 1431.24 1200.36 1433.62 1200.84 1435.36 1201.81 1436.45 1202.78 1437.54 1204.29 1438.08 1206.34 1438.08 1207.41 1438.08 1208.43 1437.97 1209.39 1437.74 1210.35 1437.51 1211.29 1437.15 1212.22 1436.67 1213.14 1436.19 1214.08 1435.58 1215.01 1434.83 1215.95 1434.07 1216.93 1433.17 1217.96 1432.13L1220.41 1434.78C1217.88 1437.29 1215.36 1439.17 1212.84 1440.44 1210.32 1441.7 1207.61 1442.33 1204.71 1442.33 1203.01 1442.33 1201.5 1442.08 1200.18 1441.57 1198.86 1441.05 1197.75 1440.31 1196.84 1439.32 1195.94 1438.34 1195.25 1437.15 1194.78 1435.74 1194.31 1434.34 1194.08 1432.75 1194.08 1430.98 1194.08 1429.74 1194.19 1428.45 1194.4 1427.11 1194.62 1425.76 1194.96 1424.42 1195.42 1423.08 1195.88 1421.74 1196.44 1420.43 1197.12 1419.16 1197.8 1417.88 1198.59 1416.69 1199.51 1415.57 1201.34 1413.31 1203.55 1411.53 1206.13 1410.26 1208.72 1408.98 1211.54 1408.34 1214.59 1408.34Z" fill-rule="evenodd"/><text fill="#000000" fill-opacity="0" font-family="Arial,Arial_MSFontService,sans-serif" font-size="33.9907" x="1194.08" y="1438.09">𝑒𝑒</text><path d="M1175 1313.5C1175 1296.1 1188.88 1282 1206 1282 1223.12 1282 1237 1296.1 1237 1313.5 1237 1330.9 1223.12 1345 1206 1345 1188.88 1345 1175 1330.9 1175 1313.5Z" stroke="#0070C0" stroke-width="10.3125" stroke-miterlimit="8" fill="#FFFFFF" fill-rule="evenodd"/><path d="M1198.5 1314C1198.5 1309.31 1202.08 1305.5 1206.5 1305.5 1210.92 1305.5 1214.5 1309.31 1214.5 1314 1214.5 1318.69 1210.92 1322.5 1206.5 1322.5 1202.08 1322.5 1198.5 1318.69 1198.5 1314Z" stroke="#0070C0" stroke-width="1.14583" stroke-miterlimit="8" fill="#0070C0" fill-rule="evenodd"/><path d="M861.158 1217.06 878.423 1217.06 878.423 1219.04C875.883 1219.34 874.613 1220.43 874.613 1222.33 874.613 1223.11 874.796 1223.99 875.16 1224.96 875.525 1225.93 876.18 1227.31 877.126 1229.09L885.232 1244.53 893.215 1230.43C894.296 1228.51 895.059 1226.94 895.505 1225.71 895.951 1224.48 896.174 1223.35 896.174 1222.33 896.174 1221.35 895.883 1220.59 895.303 1220.04 894.722 1219.48 893.864 1219.15 892.729 1219.04L892.729 1217.06 908.089 1217.06 908.089 1219.04C906.981 1219.45 906.009 1220.01 905.171 1220.72 904.333 1221.44 903.482 1222.41 902.618 1223.62 901.753 1224.84 900.483 1226.89 898.808 1229.78L887.542 1248.99 887.542 1262.12C887.542 1263.66 887.623 1264.91 887.785 1265.85 887.947 1266.8 888.217 1267.55 888.595 1268.12 888.974 1268.69 889.473 1269.13 890.095 1269.46 890.716 1269.78 891.689 1270.09 893.013 1270.39L893.013 1272.38 874.492 1272.38 874.492 1270.39C875.789 1270.12 876.748 1269.83 877.369 1269.52 877.991 1269.21 878.49 1268.76 878.869 1268.18 879.247 1267.6 879.524 1266.84 879.7 1265.89 879.875 1264.95 879.963 1263.69 879.963 1262.12L879.963 1249.15 868.777 1228.36C867.427 1225.85 866.4 1224.05 865.697 1222.97 864.995 1221.89 864.292 1221.04 863.59 1220.42 862.887 1219.8 862.077 1219.34 861.158 1219.04Z" fill-rule="evenodd"/><text fill="#000000" fill-opacity="0" font-family="Arial,Arial_MSFontService,sans-serif" font-size="55.3198" x="861.158" y="1265.46">Y</text><path d="M952.11 1261.76C951.038 1261.76 950.07 1261.97 949.206 1262.4 948.342 1262.83 947.587 1263.45 946.942 1264.26 946.297 1265.07 945.771 1266.07 945.364 1267.25 944.956 1268.44 944.693 1269.77 944.574 1271.26L958.395 1271.26C958.196 1268.02 957.605 1265.63 956.622 1264.08 955.639 1262.53 954.135 1261.76 952.11 1261.76ZM919.11 1261.76C918.038 1261.76 917.07 1261.97 916.206 1262.4 915.342 1262.83 914.587 1263.45 913.942 1264.26 913.297 1265.07 912.771 1266.07 912.364 1267.25 911.956 1268.44 911.693 1269.77 911.574 1271.26L925.395 1271.26C925.196 1268.02 924.605 1265.63 923.622 1264.08 922.639 1262.53 921.135 1261.76 919.11 1261.76ZM952.467 1258.81C954.572 1258.81 956.389 1259.13 957.918 1259.78 959.447 1260.42 960.688 1261.31 961.641 1262.44 962.118 1263 962.545 1263.63 962.922 1264.35 963.299 1265.06 963.622 1265.89 963.89 1266.84 964.158 1267.78 964.366 1268.86 964.515 1270.07 964.664 1271.28 964.759 1272.66 964.798 1274.21L944.396 1274.21 944.396 1274.48C944.396 1278.23 945.095 1281.04 946.495 1282.91 947.895 1284.77 950.114 1285.71 953.152 1285.71 953.966 1285.71 954.746 1285.62 955.49 1285.45 956.235 1285.28 956.975 1285.02 957.709 1284.66 958.444 1284.31 959.184 1283.84 959.928 1283.28 960.673 1282.71 961.452 1282.04 962.267 1281.27L964.352 1283.74C963.24 1284.83 962.182 1285.76 961.179 1286.52 960.177 1287.29 959.179 1287.91 958.186 1288.39 957.193 1288.86 956.18 1289.21 955.148 1289.43 954.115 1289.65 953.023 1289.76 951.872 1289.76 947.344 1289.76 943.939 1288.46 941.655 1285.87 939.372 1283.28 938.23 1279.46 938.23 1274.42 938.23 1272.09 938.568 1269.97 939.243 1268.06 939.918 1266.14 940.881 1264.5 942.132 1263.13 943.383 1261.76 944.882 1260.7 946.629 1259.94 948.377 1259.19 950.323 1258.81 952.467 1258.81ZM919.467 1258.81C921.572 1258.81 923.389 1259.13 924.918 1259.78 926.447 1260.42 927.688 1261.31 928.641 1262.44 929.118 1263 929.545 1263.63 929.922 1264.35 930.299 1265.06 930.622 1265.89 930.89 1266.84 931.158 1267.78 931.366 1268.86 931.515 1270.07 931.664 1271.28 931.759 1272.66 931.798 1274.21L911.396 1274.21 911.396 1274.48C911.396 1278.23 912.095 1281.04 913.495 1282.91 914.895 1284.77 917.114 1285.71 920.152 1285.71 920.966 1285.71 921.746 1285.62 922.49 1285.45 923.235 1285.28 923.975 1285.02 924.709 1284.66 925.444 1284.31 926.184 1283.84 926.928 1283.28 927.673 1282.71 928.452 1282.04 929.267 1281.27L931.352 1283.74C930.24 1284.83 929.182 1285.76 928.179 1286.52 927.177 1287.29 926.179 1287.91 925.186 1288.39 924.193 1288.86 923.18 1289.21 922.148 1289.43 921.115 1289.65 920.023 1289.76 918.872 1289.76 914.344 1289.76 910.939 1288.46 908.655 1285.87 906.372 1283.28 905.23 1279.46 905.23 1274.42 905.23 1272.09 905.568 1269.97 906.243 1268.06 906.918 1266.14 907.881 1264.5 909.132 1263.13 910.383 1261.76 911.882 1260.7 913.629 1259.94 915.377 1259.19 917.323 1258.81 919.467 1258.81Z" fill-rule="evenodd"/><text fill="#000000" fill-opacity="0" font-family="Arial,Arial_MSFontService,sans-serif" font-size="30.9468" x="905.23" y="1285.89">ee</text><path d="M1240.49 943.019 1257.75 943.019 1257.75 945.005C1256.46 945.194 1255.52 945.545 1254.96 946.058 1254.39 946.572 1254.11 947.274 1254.11 948.166 1254.11 948.922 1254.36 949.868 1254.88 951.003 1255.39 952.138 1256.12 953.488 1257.06 955.056L1262.94 964.904 1268.74 955.542C1269.6 954.137 1270.25 953.016 1270.68 952.178 1271.11 951.341 1271.42 950.638 1271.59 950.071 1271.77 949.503 1271.86 948.922 1271.86 948.328 1271.86 947.49 1271.61 946.781 1271.13 946.2 1270.64 945.619 1269.83 945.221 1268.7 945.005L1268.7 943.019 1283.73 943.019 1283.73 945.005C1282.73 945.329 1281.83 945.802 1281.04 946.423 1280.24 947.045 1279.39 947.95 1278.48 949.139 1277.58 950.327 1276.29 952.205 1274.61 954.772L1265.45 968.956 1275.75 985.897C1277.21 988.301 1278.25 989.983 1278.89 990.943 1279.52 991.902 1280.12 992.712 1280.67 993.374 1281.22 994.036 1281.82 994.61 1282.45 995.097 1283.09 995.583 1283.88 996.002 1284.83 996.353L1284.83 998.339 1267.03 998.339 1267.03 996.353C1268.28 996.137 1269.2 995.792 1269.79 995.319 1270.38 994.847 1270.68 994.137 1270.68 993.192 1270.68 992.435 1270.49 991.598 1270.09 990.679 1269.7 989.76 1269.1 988.626 1268.29 987.275L1260.95 975.036 1253.21 987.721C1251.92 989.855 1251.27 991.611 1251.27 992.989 1251.27 993.881 1251.51 994.61 1252 995.178 1252.48 995.745 1253.29 996.137 1254.43 996.353L1254.43 998.339 1239.11 998.339 1239.11 996.353C1240.11 996.056 1240.93 995.698 1241.58 995.279 1242.23 994.86 1242.85 994.327 1243.45 993.678 1244.04 993.03 1244.7 992.206 1245.43 991.206 1246.16 990.206 1247.32 988.464 1248.92 985.978L1258.48 971.064 1247.05 952.259C1245.97 950.53 1245.16 949.274 1244.6 948.49 1244.05 947.707 1243.53 947.072 1243.06 946.585 1242.59 946.099 1242.16 945.755 1241.79 945.552 1241.41 945.349 1240.97 945.167 1240.49 945.005Z" fill-rule="evenodd"/><text fill="#000000" fill-opacity="0" font-family="Arial,Arial_MSFontService,sans-serif" font-size="55.3198" x="1239.11" y="991.424">X</text><path d="M1338.4 987.721C1337.32 987.721 1336.36 987.934 1335.49 988.361 1334.63 988.788 1333.87 989.408 1333.23 990.223 1332.58 991.037 1332.06 992.034 1331.65 993.216 1331.24 994.397 1330.98 995.733 1330.86 997.222L1344.68 997.222C1344.48 993.985 1343.89 991.593 1342.91 990.044 1341.93 988.495 1340.42 987.721 1338.4 987.721ZM1305.4 987.721C1304.32 987.721 1303.36 987.934 1302.49 988.361 1301.63 988.788 1300.87 989.408 1300.23 990.223 1299.58 991.037 1299.06 992.034 1298.65 993.216 1298.24 994.397 1297.98 995.733 1297.86 997.222L1311.68 997.222C1311.48 993.985 1310.89 991.593 1309.91 990.044 1308.93 988.495 1307.42 987.721 1305.4 987.721ZM1338.75 984.772C1340.86 984.772 1342.68 985.095 1344.2 985.74 1345.73 986.385 1346.97 987.274 1347.93 988.406 1348.4 988.962 1348.83 989.597 1349.21 990.312 1349.59 991.027 1349.91 991.856 1350.18 992.799 1350.44 993.742 1350.65 994.819 1350.8 996.031 1350.95 997.242 1351.05 998.622 1351.09 1000.17L1330.68 1000.17 1330.68 1000.44C1330.68 1004.19 1331.38 1007 1332.78 1008.87 1334.18 1010.73 1336.4 1011.67 1339.44 1011.67 1340.25 1011.67 1341.03 1011.58 1341.78 1011.41 1342.52 1011.25 1343.26 1010.98 1344 1010.63 1344.73 1010.27 1345.47 1009.81 1346.22 1009.24 1346.96 1008.67 1347.74 1008 1348.55 1007.23L1350.64 1009.7C1349.53 1010.79 1348.47 1011.72 1347.47 1012.49 1346.46 1013.25 1345.47 1013.87 1344.47 1014.35 1343.48 1014.83 1342.47 1015.17 1341.43 1015.39 1340.4 1015.61 1339.31 1015.72 1338.16 1015.72 1333.63 1015.72 1330.23 1014.42 1327.94 1011.83 1325.66 1009.24 1324.52 1005.42 1324.52 1000.38 1324.52 998.056 1324.85 995.936 1325.53 994.02 1326.2 992.104 1327.17 990.461 1328.42 989.091 1329.67 987.721 1331.17 986.658 1332.92 985.904 1334.66 985.149 1336.61 984.772 1338.75 984.772ZM1305.75 984.772C1307.86 984.772 1309.68 985.095 1311.2 985.74 1312.73 986.385 1313.97 987.274 1314.93 988.406 1315.4 988.962 1315.83 989.597 1316.21 990.312 1316.59 991.027 1316.91 991.856 1317.18 992.799 1317.44 993.742 1317.65 994.819 1317.8 996.031 1317.95 997.242 1318.05 998.622 1318.09 1000.17L1297.68 1000.17 1297.68 1000.44C1297.68 1004.19 1298.38 1007 1299.78 1008.87 1301.18 1010.73 1303.4 1011.67 1306.44 1011.67 1307.25 1011.67 1308.03 1011.58 1308.78 1011.41 1309.52 1011.25 1310.26 1010.98 1311 1010.63 1311.73 1010.27 1312.47 1009.81 1313.22 1009.24 1313.96 1008.67 1314.74 1008 1315.55 1007.23L1317.64 1009.7C1316.53 1010.79 1315.47 1011.72 1314.47 1012.49 1313.46 1013.25 1312.47 1013.87 1311.47 1014.35 1310.48 1014.83 1309.47 1015.17 1308.43 1015.39 1307.4 1015.61 1306.31 1015.72 1305.16 1015.72 1300.63 1015.72 1297.23 1014.42 1294.94 1011.83 1292.66 1009.24 1291.52 1005.42 1291.52 1000.38 1291.52 998.056 1291.85 995.936 1292.53 994.02 1293.2 992.104 1294.17 990.461 1295.42 989.091 1296.67 987.721 1298.17 986.658 1299.92 985.904 1301.66 985.149 1303.61 984.772 1305.75 984.772Z" fill-rule="evenodd"/><text fill="#000000" fill-opacity="0" font-family="Arial,Arial_MSFontService,sans-serif" font-size="30.9468" x="1291.52" y="1011.85">ee</text><text font-family="Aptos,Aptos_MSFontService,sans-serif" font-weight="400" font-size="92" transform="matrix(1 0 0 1 417.885 1725)">0.</text><text font-family="Aptos,Aptos_MSFontService,sans-serif" font-weight="400" font-size="92" transform="matrix(1 0 0 1 492.937 1725)">4</text><text font-family="Aptos,Aptos_MSFontService,sans-serif" font-weight="400" font-size="92" transform="matrix(1 0 0 1 560.541 1725)">m</text></g></svg>