<svg width="2275" height="1663" xmlns="http://www.w3.org/2000/svg" xmlns:xlink="http://www.w3.org/1999/xlink" xml:space="preserve" overflow="hidden"><g transform="translate(-94 -1166)"><path d="M37.1452 79.2851C4.99199 65.9729-0.991149 41.1744 23.7815 23.8961 48.5541 6.61774 94.7015 3.40255 126.855 16.7147 157.782 29.5193 164.681 53.0836 142.564 70.3726L149.235 75.9775 115.315 75.9928 125.296 55.8633 132.026 61.5178C149.549 49.7466 141.356 34.1521 113.728 26.6864 86.0996 19.2207 49.4972 22.711 31.9742 34.4821 14.4513 46.2533 22.6434 61.8478 50.2719 69.3135 50.553 69.3895 50.8355 69.4644 51.1196 69.5383Z" stroke="#042433" stroke-width="6.875" stroke-miterlimit="8" fill="#156082" fill-rule="evenodd" transform="matrix(-6.12323e-17 -1 -1 6.12323e-17 993.5 1675.5)"/><rect x="0" y="58.0029" width="312.997" height="67.9969" fill="#E59EDD" transform="matrix(-6.12323e-17 -1 -1 6.12323e-17 1949.5 1741.5)"/><path d="M312.997 58.0029 371 0 371 67.9969 312.997 126Z" fill="#B87FB2" fill-rule="evenodd" transform="matrix(-6.12323e-17 -1 -1 6.12323e-17 1949.5 1741.5)"/><path d="M0 58.0029 58.0028 0 371 0 312.997 58.0029Z" fill="#EAB1E4" fill-rule="evenodd" transform="matrix(-6.12323e-17 -1 -1 6.12323e-17 1949.5 1741.5)"/><path d="M0 58.0029 58.0028 0 371 0 371 67.9969 312.997 126 0 126ZM0 58.0029 312.997 58.0029 371 0M312.997 58.0029 312.997 126" stroke="#042433" stroke-width="6.875" stroke-miterlimit="8" fill="none" fill-rule="evenodd" transform="matrix(-6.12323e-17 -1 -1 6.12323e-17 1949.5 1741.5)"/><rect x="0" y="60.0828" width="42.9171" height="295.917" fill="#E59EDD" transform="matrix(-6.12323e-17 -1 -1 6.12323e-17 2248.5 1473.5)"/><path d="M42.9171 60.0828 103 0 103 295.917 42.9171 356Z" fill="#B87FB2" fill-rule="evenodd" transform="matrix(-6.12323e-17 -1 -1 6.12323e-17 2248.5 1473.5)"/><path d="M0 60.0828 60.083 0 103 0 42.9171 60.0828Z" fill="#EAB1E4" fill-rule="evenodd" transform="matrix(-6.12323e-17 -1 -1 6.12323e-17 2248.5 1473.5)"/><path d="M0 60.0828 60.083 0 103 0 103 295.917 42.9171 356 0 356ZM0 60.0828 42.9171 60.0828 103 0M42.9171 60.0828 42.9171 356" stroke="#042433" stroke-width="6.875" stroke-miterlimit="8" fill="none" fill-rule="evenodd" transform="matrix(-6.12323e-17 -1 -1 6.12323e-17 2248.5 1473.5)"/><path d="M937 1577.12 1302.29 1577.13 1302.29 1590.88 937 1590.88ZM1295.42 1563.38 1336.67 1584 1295.42 1604.63Z" fill="#7F7F7F"/><path d="M644 2121 648.743 2821.79" stroke="#7F7F7F" stroke-width="13.75" stroke-miterlimit="8" fill="none" fill-rule="evenodd"/><path d="M0.0423572-6.87487 338.325-4.79066 338.24 8.95908-0.0423572 6.87487ZM331.535-18.5828 372.657 2.296 331.28 22.6665Z" fill="#7F7F7F" transform="matrix(-1 0 0 1 640.657 1584)"/><path d="M0.0167408-6.87498 365.574-5.98483 365.54 7.76513-0.0167408 6.87498ZM358.732-19.7515 427.432 1.04081 358.632 21.4983Z" fill="#7F7F7F" transform="matrix(1 0 0 -1 637 1585.04)"/><path d="M542.5 2096C542.5 2110.08 588.167 2121.5 644.5 2121.5 700.833 2121.5 746.5 2110.08 746.5 2096L746.5 2495C746.5 2509.08 700.833 2520.5 644.5 2520.5 588.167 2520.5 542.5 2509.08 542.5 2495Z" fill="#83CBEB" fill-rule="evenodd"/><path d="M542.5 2096C542.5 2081.92 588.167 2070.5 644.5 2070.5 700.833 2070.5 746.5 2081.92 746.5 2096 746.5 2110.08 700.833 2121.5 644.5 2121.5 588.167 2121.5 542.5 2110.08 542.5 2096Z" fill="#B5E0F3" fill-rule="evenodd"/><path d="M746.5 2096C746.5 2110.08 700.833 2121.5 644.5 2121.5 588.167 2121.5 542.5 2110.08 542.5 2096 542.5 2081.92 588.167 2070.5 644.5 2070.5 700.833 2070.5 746.5 2081.92 746.5 2096L746.5 2495C746.5 2509.08 700.833 2520.5 644.5 2520.5 588.167 2520.5 542.5 2509.08 542.5 2495L542.5 2096" stroke="#000000" stroke-width="6.875" stroke-miterlimit="8" fill="none" fill-rule="evenodd"/><path d="M1593 1483.5C1578.92 1483.5 1567.5 1529.17 1567.5 1585.5 1567.5 1641.83 1578.92 1687.5 1593 1687.5L1194 1687.5C1179.92 1687.5 1168.5 1641.83 1168.5 1585.5 1168.5 1529.17 1179.92 1483.5 1194 1483.5Z" fill="#83CBEB" fill-rule="evenodd"/><path d="M1593 1483.5C1607.08 1483.5 1618.5 1529.17 1618.5 1585.5 1618.5 1641.83 1607.08 1687.5 1593 1687.5 1578.92 1687.5 1567.5 1641.83 1567.5 1585.5 1567.5 1529.17 1578.92 1483.5 1593 1483.5Z" fill="#B5E0F3" fill-rule="evenodd"/><path d="M1593 1687.5C1578.92 1687.5 1567.5 1641.83 1567.5 1585.5 1567.5 1529.17 1578.92 1483.5 1593 1483.5 1607.08 1483.5 1618.5 1529.17 1618.5 1585.5 1618.5 1641.83 1607.08 1687.5 1593 1687.5L1194 1687.5C1179.92 1687.5 1168.5 1641.83 1168.5 1585.5 1168.5 1529.17 1179.92 1483.5 1194 1483.5L1593 1483.5" stroke="#000000" stroke-width="6.875" stroke-miterlimit="8" fill="none" fill-rule="evenodd"/><path d="M636.659 2092.89 630.385 1262.43 644.135 1262.32 650.409 2092.78ZM616.687 1269.4 637 1228 657.936 1269.09Z" fill="#7F7F7F"/><path d="M584.146 1731.86C620.703 1714.84 631.688 1660.99 608.683 1611.59 585.677 1562.19 537.393 1535.94 500.836 1552.96L712.575 1454.36C749.132 1437.34 797.417 1463.59 820.422 1512.99 843.427 1562.39 832.442 1616.24 795.885 1633.26Z" fill="#83CBEB" fill-rule="evenodd"/><path d="M584.146 1731.86C547.589 1748.89 499.305 1722.64 476.299 1673.24 453.294 1623.84 464.28 1569.99 500.836 1552.96 537.393 1535.94 585.677 1562.19 608.683 1611.59 631.688 1660.99 620.703 1714.84 584.146 1731.86Z" fill="#B5E0F3" fill-rule="evenodd"/><path d="M500.836 1552.96C537.393 1535.94 585.677 1562.19 608.683 1611.59 631.688 1660.99 620.703 1714.84 584.146 1731.86 547.589 1748.89 499.305 1722.64 476.3 1673.24 453.294 1623.84 464.28 1569.99 500.836 1552.96L712.575 1454.36C749.132 1437.34 797.417 1463.59 820.422 1512.99 843.427 1562.39 832.442 1616.24 795.885 1633.26L584.146 1731.86" stroke="#000000" stroke-width="6.875" stroke-miterlimit="8" fill="none" fill-rule="evenodd"/><path d="M2.95071-6.20958 373.823 170.024 367.922 182.443-2.95071 6.20958ZM373.515 154.654 401.92 190.987 355.811 191.912Z" fill="#7F7F7F" transform="matrix(-1 0 0 1 541.92 1636)"/><path d="M0 0 237.687 1.81962" stroke="#7F7F7F" stroke-width="13.75" stroke-miterlimit="8" fill="none" fill-rule="evenodd" transform="matrix(1 0 0 -1 1588 1585.82)"/><path d="M683.589 1212.91 700.854 1212.91 700.854 1214.89C699.557 1215.08 698.625 1215.43 698.058 1215.95 697.49 1216.46 697.207 1217.16 697.207 1218.05 697.207 1218.81 697.463 1219.76 697.977 1220.89 698.49 1222.03 699.22 1223.38 700.165 1224.94L706.042 1234.79 711.837 1225.43C712.702 1224.03 713.35 1222.9 713.782 1222.07 714.215 1221.23 714.519 1220.53 714.694 1219.96 714.87 1219.39 714.958 1218.81 714.958 1218.22 714.958 1217.38 714.714 1216.67 714.228 1216.09 713.742 1215.51 712.931 1215.11 711.797 1214.89L711.797 1212.91 726.832 1212.91 726.832 1214.89C725.832 1215.22 724.934 1215.69 724.137 1216.31 723.34 1216.93 722.489 1217.84 721.584 1219.03 720.679 1220.22 719.389 1222.09 717.714 1224.66L708.554 1238.85 718.848 1255.79C720.307 1258.19 721.354 1259.87 721.989 1260.83 722.624 1261.79 723.218 1262.6 723.772 1263.26 724.326 1263.92 724.921 1264.5 725.556 1264.99 726.19 1265.47 726.981 1265.89 727.926 1266.24L727.926 1268.23 710.135 1268.23 710.135 1266.24C711.378 1266.03 712.296 1265.68 712.891 1265.21 713.485 1264.74 713.782 1264.03 713.782 1263.08 713.782 1262.32 713.586 1261.49 713.195 1260.57 712.803 1259.65 712.202 1258.51 711.391 1257.16L704.056 1244.92 696.315 1257.61C695.018 1259.74 694.37 1261.5 694.37 1262.88 694.37 1263.77 694.613 1264.5 695.099 1265.07 695.586 1265.63 696.396 1266.03 697.531 1266.24L697.531 1268.23 682.212 1268.23 682.212 1266.24C683.211 1265.94 684.035 1265.59 684.684 1265.17 685.332 1264.75 685.954 1264.22 686.548 1263.57 687.142 1262.92 687.804 1262.09 688.534 1261.09 689.263 1260.09 690.425 1258.35 692.019 1255.87L701.584 1240.95 690.155 1222.15C689.074 1220.42 688.257 1219.16 687.703 1218.38 687.149 1217.6 686.636 1216.96 686.163 1216.47 685.69 1215.99 685.265 1215.64 684.886 1215.44 684.508 1215.24 684.076 1215.06 683.589 1214.89Z" fill="#FF0000" fill-rule="evenodd"/><text fill="#000000" fill-opacity="0" font-family="Arial,Arial_MSFontService,sans-serif" font-size="55.3198" x="682.212" y="1261.31">X</text><path d="M757.046 1245.07 759.727 1245.07 759.31 1252.28 741.856 1252.28 741.856 1263.92C742.908 1263.57 744.06 1263.28 745.311 1263.06 746.562 1262.84 747.823 1262.73 749.094 1262.73 750.92 1262.73 752.573 1262.99 754.053 1263.49 755.532 1264 756.803 1264.72 757.865 1265.67 758.928 1266.61 759.752 1267.75 760.337 1269.09 760.923 1270.43 761.216 1271.94 761.216 1273.6 761.216 1275.51 760.888 1277.21 760.233 1278.7 759.578 1280.19 758.64 1281.45 757.418 1282.49 756.197 1283.54 754.708 1284.33 752.951 1284.88 751.193 1285.42 749.213 1285.7 747.009 1285.7 745.261 1285.7 743.474 1285.53 741.647 1285.19 739.82 1284.85 737.924 1284.36 735.958 1283.7L735.958 1277.09 739.771 1277.09C740.366 1279.09 741.26 1280.53 742.451 1281.39 743.643 1282.26 745.211 1282.69 747.157 1282.69 749.759 1282.69 751.725 1282.01 753.055 1280.66 754.385 1279.31 755.051 1277.2 755.051 1274.32 755.051 1271.56 754.346 1269.51 752.936 1268.17 751.526 1266.83 749.55 1266.16 747.009 1266.16 746.333 1266.16 745.723 1266.17 745.177 1266.19 744.631 1266.21 744.09 1266.26 743.553 1266.34 743.017 1266.42 742.486 1266.52 741.96 1266.66 741.434 1266.8 740.843 1266.96 740.188 1267.14L737.745 1265.8 737.745 1247.07 754.246 1247.07C754.723 1247.05 755.105 1247.02 755.393 1246.98 755.681 1246.94 755.914 1246.85 756.093 1246.71 756.272 1246.57 756.431 1246.38 756.57 1246.13 756.709 1245.88 756.867 1245.53 757.046 1245.07Z" fill="#FF0000" fill-rule="evenodd"/><text fill="#000000" fill-opacity="0" font-family="Arial,Arial_MSFontService,sans-serif" font-size="40.627" x="735.958" y="1280.62">5</text><path d="M504.815 1204.02 541.371 1204.02 541.371 1205.97 513.65 1255.61 528.28 1255.61C530.091 1255.61 531.435 1255.45 532.313 1255.11 533.191 1254.77 533.914 1254.24 534.481 1253.53 535.048 1252.81 535.562 1251.81 536.021 1250.51 536.48 1249.21 537.034 1247.2 537.683 1244.47L541.654 1244.47 541.654 1259.34 504.207 1259.34 504.207 1257.36 531.968 1207.75 517.257 1207.75C516.203 1207.75 515.372 1207.84 514.764 1208.02 514.156 1208.19 513.609 1208.46 513.123 1208.83 512.637 1209.19 512.157 1209.72 511.684 1210.43 511.212 1211.13 510.739 1212.1 510.266 1213.32 509.793 1214.55 509.3 1216.09 508.787 1217.92L504.815 1217.92Z" fill="#215F9A" fill-rule="evenodd"/><text fill="#000000" fill-opacity="0" font-family="Arial,Arial_MSFontService,sans-serif" font-size="55.3198" x="504.207" y="1252.43">Z</text><path d="M562.234 1237.62C563.823 1237.62 565.307 1237.78 566.687 1238.12 568.067 1238.46 569.264 1238.97 570.276 1239.66 571.289 1240.34 572.078 1241.19 572.644 1242.22 573.21 1243.24 573.493 1244.43 573.493 1245.78 573.493 1247.05 573.314 1248.17 572.957 1249.14 572.599 1250.12 572.048 1251 571.304 1251.79 570.559 1252.59 569.646 1253.31 568.564 1253.95 567.481 1254.6 566.235 1255.22 564.826 1255.81L564.826 1256.17C566.156 1256.41 567.397 1256.79 568.549 1257.32 569.7 1257.84 570.708 1258.51 571.572 1259.31 572.436 1260.12 573.116 1261.05 573.612 1262.1 574.109 1263.15 574.357 1264.31 574.357 1265.58 574.357 1267.17 574.059 1268.65 573.463 1270.01 572.868 1271.37 571.974 1272.54 570.783 1273.54 569.591 1274.53 568.122 1275.3 566.374 1275.86 564.627 1276.42 562.582 1276.69 560.239 1276.69 558.392 1276.69 556.516 1276.51 554.609 1276.14 552.703 1275.78 550.896 1275.29 549.188 1274.7L549.188 1268.26 553.031 1268.26C553.348 1269.26 553.726 1270.11 554.162 1270.81 554.599 1271.52 555.111 1272.09 555.696 1272.54 556.282 1272.99 556.957 1273.31 557.722 1273.51 558.486 1273.7 559.355 1273.8 560.328 1273.8 562.89 1273.8 564.831 1273.19 566.151 1271.97 567.471 1270.75 568.132 1268.9 568.132 1266.42 568.132 1263.78 567.263 1261.78 565.526 1260.42 563.788 1259.06 561.212 1258.38 557.796 1258.38L555.175 1258.38 555.175 1255.52C557.26 1255.42 559.062 1255.12 560.581 1254.64 562.1 1254.15 563.366 1253.52 564.379 1252.75 565.391 1251.97 566.146 1251.07 566.642 1250.04 567.139 1249 567.387 1247.9 567.387 1246.73 567.387 1244.82 566.821 1243.32 565.689 1242.22 564.557 1241.11 562.919 1240.56 560.775 1240.56 558.968 1240.56 557.454 1241.06 556.233 1242.05 555.011 1243.05 554.073 1244.53 553.418 1246.49L549.635 1246.49 549.635 1240.62C551.978 1239.63 554.187 1238.88 556.262 1238.37 558.337 1237.87 560.328 1237.62 562.234 1237.62Z" fill="#215F9A" fill-rule="evenodd"/><text fill="#000000" fill-opacity="0" font-family="Arial,Arial_MSFontService,sans-serif" font-size="39.0781" x="549.188" y="1271.81">3</text><path d="M251.415 1476.21 268.679 1476.21 268.679 1478.19C267.383 1478.38 266.45 1478.73 265.883 1479.25 265.316 1479.76 265.032 1480.46 265.032 1481.35 265.032 1482.11 265.289 1483.06 265.802 1484.19 266.315 1485.32 267.045 1486.68 267.99 1488.24L273.867 1498.09 279.662 1488.73C280.527 1487.32 281.175 1486.2 281.608 1485.37 282.04 1484.53 282.344 1483.83 282.519 1483.26 282.695 1482.69 282.783 1482.11 282.783 1481.52 282.783 1480.68 282.54 1479.97 282.053 1479.39 281.567 1478.81 280.757 1478.41 279.622 1478.19L279.622 1476.21 294.657 1476.21 294.657 1478.19C293.658 1478.52 292.759 1478.99 291.962 1479.61 291.165 1480.23 290.314 1481.14 289.409 1482.33 288.504 1483.51 287.214 1485.39 285.539 1487.96L276.38 1502.14 286.673 1519.08C288.132 1521.49 289.179 1523.17 289.814 1524.13 290.449 1525.09 291.044 1525.9 291.598 1526.56 292.151 1527.22 292.746 1527.8 293.381 1528.28 294.016 1528.77 294.806 1529.19 295.752 1529.54L295.752 1531.53 277.96 1531.53 277.96 1529.54C279.203 1529.32 280.122 1528.98 280.716 1528.51 281.31 1528.03 281.608 1527.32 281.608 1526.38 281.608 1525.62 281.412 1524.79 281.02 1523.87 280.628 1522.95 280.027 1521.81 279.216 1520.46L271.881 1508.22 264.14 1520.91C262.843 1523.04 262.195 1524.8 262.195 1526.18 262.195 1527.07 262.438 1527.8 262.924 1528.36 263.411 1528.93 264.221 1529.32 265.356 1529.54L265.356 1531.53 250.037 1531.53 250.037 1529.54C251.036 1529.24 251.861 1528.89 252.509 1528.47 253.157 1528.05 253.779 1527.51 254.373 1526.87 254.968 1526.22 255.63 1525.39 256.359 1524.39 257.089 1523.39 258.25 1521.65 259.844 1519.17L269.409 1504.25 257.98 1485.45C256.899 1483.72 256.082 1482.46 255.528 1481.68 254.974 1480.89 254.461 1480.26 253.988 1479.77 253.515 1479.29 253.09 1478.94 252.712 1478.74 252.333 1478.54 251.901 1478.35 251.415 1478.19Z" fill="#FF0000" fill-rule="evenodd"/><text fill="#000000" fill-opacity="0" font-family="Arial,Arial_MSFontService,sans-serif" font-size="55.3198" x="250.037" y="1524.61">X</text><path d="M317.753 1517.18C315.847 1519.94 313.945 1522.69 312.049 1525.41 310.153 1528.13 308.241 1530.86 306.315 1533.6L306.315 1533.95 317.753 1533.95 317.753 1527.97C317.753 1527.29 317.763 1526.46 317.783 1525.47 317.802 1524.47 317.827 1523.46 317.857 1522.44 317.887 1521.42 317.922 1520.45 317.961 1519.52 318.001 1518.6 318.041 1517.82 318.08 1517.18ZM318.617 1510.22 323.352 1510.22 323.352 1533.95 323.889 1533.95C324.703 1533.95 325.363 1533.91 325.869 1533.83 326.376 1533.76 326.783 1533.59 327.09 1533.34 327.398 1533.1 327.656 1532.75 327.865 1532.3 328.073 1531.85 328.297 1531.27 328.535 1530.56L331.067 1530.56C331.007 1531.65 330.943 1532.73 330.873 1533.8 330.804 1534.88 330.739 1535.97 330.68 1537.08L323.352 1537.08 323.352 1540.98C323.352 1542.13 323.377 1543.03 323.427 1543.66 323.477 1544.3 323.625 1544.8 323.874 1545.15 324.122 1545.51 324.489 1545.78 324.976 1545.96 325.462 1546.14 326.142 1546.34 327.016 1546.58L327.016 1548.37 314.149 1548.37 314.149 1546.58C314.744 1546.42 315.251 1546.28 315.668 1546.15 316.085 1546.02 316.432 1545.87 316.71 1545.7 316.988 1545.54 317.192 1545.34 317.321 1545.11 317.45 1544.88 317.549 1544.59 317.619 1544.24 317.688 1543.9 317.728 1543.46 317.738 1542.93 317.748 1542.41 317.753 1541.76 317.753 1540.98L317.753 1537.08 300.984 1537.08 300.984 1534.73C303.942 1530.62 306.881 1526.53 309.8 1522.47 312.719 1518.41 315.658 1514.33 318.617 1510.22Z" fill="#FF0000" fill-rule="evenodd"/><text fill="#000000" fill-opacity="0" font-family="Arial,Arial_MSFontService,sans-serif" font-size="38.1548" x="300.984" y="1543.6">4</text><path d="M129.226 1697.09 146.49 1697.09 146.49 1699.08C145.193 1699.27 144.261 1699.62 143.694 1700.13 143.126 1700.64 142.843 1701.35 142.843 1702.24 142.843 1702.99 143.099 1703.94 143.613 1705.07 144.126 1706.21 144.856 1707.56 145.801 1709.13L151.678 1718.98 157.473 1709.61C158.338 1708.21 158.986 1707.09 159.418 1706.25 159.851 1705.41 160.155 1704.71 160.33 1704.14 160.506 1703.57 160.594 1702.99 160.594 1702.4 160.594 1701.56 160.351 1700.85 159.864 1700.27 159.378 1699.69 158.567 1699.29 157.433 1699.08L157.433 1697.09 172.468 1697.09 172.468 1699.08C171.469 1699.4 170.57 1699.87 169.773 1700.49 168.976 1701.12 168.125 1702.02 167.22 1703.21 166.315 1704.4 165.025 1706.28 163.35 1708.84L154.19 1723.03 164.484 1739.97C165.943 1742.37 166.99 1744.05 167.625 1745.01 168.26 1745.97 168.855 1746.78 169.408 1747.45 169.962 1748.11 170.557 1748.68 171.192 1749.17 171.827 1749.65 172.617 1750.07 173.562 1750.42L173.562 1752.41 155.771 1752.41 155.771 1750.42C157.014 1750.21 157.932 1749.86 158.527 1749.39 159.121 1748.92 159.418 1748.21 159.418 1747.26 159.418 1746.51 159.223 1745.67 158.831 1744.75 158.439 1743.83 157.838 1742.7 157.027 1741.35L149.692 1729.11 141.951 1741.79C140.654 1743.93 140.006 1745.68 140.006 1747.06 140.006 1747.95 140.249 1748.68 140.735 1749.25 141.222 1749.82 142.032 1750.21 143.167 1750.42L143.167 1752.41 127.848 1752.41 127.848 1750.42C128.847 1750.13 129.671 1749.77 130.32 1749.35 130.968 1748.93 131.59 1748.4 132.184 1747.75 132.778 1747.1 133.44 1746.28 134.17 1745.28 134.899 1744.28 136.061 1742.54 137.655 1740.05L147.22 1725.14 135.791 1706.33C134.71 1704.6 133.893 1703.35 133.339 1702.56 132.785 1701.78 132.272 1701.14 131.799 1700.66 131.326 1700.17 130.901 1699.83 130.522 1699.62 130.144 1699.42 129.712 1699.24 129.226 1699.08Z" fill="#FF0000" fill-rule="evenodd"/><text fill="#000000" fill-opacity="0" font-family="Arial,Arial_MSFontService,sans-serif" font-size="55.3198" x="127.848" y="1745.5">X</text><path d="M194.104 1730.68C195.693 1730.68 197.177 1730.85 198.557 1731.19 199.937 1731.53 201.133 1732.04 202.146 1732.72 203.159 1733.41 203.948 1734.26 204.514 1735.28 205.08 1736.31 205.363 1737.49 205.363 1738.84 205.363 1740.11 205.184 1741.24 204.827 1742.21 204.469 1743.18 203.918 1744.07 203.174 1744.86 202.429 1745.65 201.516 1746.37 200.434 1747.02 199.351 1747.66 198.105 1748.29 196.695 1748.88L196.695 1749.24C198.026 1749.48 199.267 1749.86 200.419 1750.39 201.57 1750.91 202.578 1751.58 203.442 1752.38 204.306 1753.18 204.986 1754.11 205.482 1755.17 205.979 1756.22 206.227 1757.38 206.227 1758.65 206.227 1760.24 205.929 1761.71 205.333 1763.07 204.737 1764.43 203.844 1765.61 202.652 1766.6 201.461 1767.6 199.992 1768.37 198.244 1768.93 196.497 1769.48 194.452 1769.76 192.109 1769.76 190.262 1769.76 188.385 1769.58 186.479 1769.21 184.573 1768.84 182.766 1768.36 181.058 1767.76L181.058 1761.33 184.901 1761.33C185.218 1762.32 185.596 1763.17 186.032 1763.88 186.469 1764.58 186.981 1765.16 187.566 1765.61 188.152 1766.05 188.827 1766.37 189.592 1766.57 190.356 1766.77 191.225 1766.87 192.198 1766.87 194.759 1766.87 196.7 1766.26 198.021 1765.04 199.341 1763.82 200.002 1761.97 200.002 1759.48 200.002 1756.84 199.133 1754.84 197.395 1753.48 195.658 1752.12 193.082 1751.44 189.666 1751.44L187.045 1751.44 187.045 1748.58C189.13 1748.48 190.932 1748.19 192.451 1747.7 193.97 1747.22 195.236 1746.59 196.249 1745.81 197.261 1745.04 198.016 1744.14 198.512 1743.1 199.009 1742.07 199.257 1740.97 199.257 1739.8 199.257 1737.89 198.691 1736.39 197.559 1735.28 196.427 1734.18 194.789 1733.63 192.645 1733.63 190.838 1733.63 189.324 1734.13 188.102 1735.12 186.881 1736.11 185.943 1737.59 185.288 1739.56L181.505 1739.56 181.505 1733.69C183.848 1732.7 186.057 1731.95 188.132 1731.44 190.207 1730.94 192.198 1730.68 194.104 1730.68Z" fill="#FF0000" fill-rule="evenodd"/><text fill="#000000" fill-opacity="0" font-family="Arial,Arial_MSFontService,sans-serif" font-size="39.0781" x="181.058" y="1764.88">3</text><path d="M191.705 1831.04 228.261 1831.04 228.261 1832.98 200.54 1882.63 215.17 1882.63C216.981 1882.63 218.325 1882.46 219.203 1882.12 220.081 1881.78 220.804 1881.26 221.371 1880.54 221.939 1879.82 222.452 1878.82 222.911 1877.52 223.37 1876.22 223.924 1874.21 224.573 1871.48L228.544 1871.48 228.544 1886.36 191.097 1886.36 191.097 1884.37 218.858 1834.76 204.147 1834.76C203.093 1834.76 202.262 1834.85 201.655 1835.03 201.047 1835.2 200.5 1835.47 200.013 1835.84 199.527 1836.2 199.047 1836.74 198.574 1837.44 198.102 1838.14 197.629 1839.11 197.156 1840.34 196.683 1841.57 196.19 1843.1 195.677 1844.94L191.705 1844.94Z" fill="#215F9A" fill-rule="evenodd"/><text fill="#000000" fill-opacity="0" font-family="Arial,Arial_MSFontService,sans-serif" font-size="55.3198" x="191.097" y="1879.44">Z</text><path d="M250.584 1872.01C248.678 1874.78 246.776 1877.52 244.88 1880.24 242.984 1882.96 241.072 1885.69 239.146 1888.43L239.146 1888.78 250.584 1888.78 250.584 1882.8C250.584 1882.12 250.594 1881.29 250.614 1880.3 250.633 1879.3 250.658 1878.29 250.688 1877.27 250.718 1876.25 250.753 1875.28 250.792 1874.35 250.832 1873.43 250.872 1872.65 250.911 1872.01ZM251.448 1865.05 256.183 1865.05 256.183 1888.78 256.72 1888.78C257.534 1888.78 258.194 1888.74 258.7 1888.66 259.207 1888.59 259.614 1888.42 259.921 1888.17 260.229 1887.93 260.487 1887.58 260.696 1887.13 260.904 1886.68 261.128 1886.1 261.366 1885.39L263.898 1885.39C263.838 1886.48 263.774 1887.56 263.704 1888.64 263.635 1889.71 263.57 1890.8 263.511 1891.91L256.183 1891.91 256.183 1895.81C256.183 1896.96 256.208 1897.86 256.258 1898.49 256.308 1899.13 256.456 1899.63 256.705 1899.98 256.953 1900.34 257.32 1900.61 257.807 1900.79 258.293 1900.97 258.973 1901.17 259.847 1901.41L259.847 1903.2 246.98 1903.2 246.98 1901.41C247.576 1901.25 248.082 1901.11 248.499 1900.98 248.916 1900.85 249.263 1900.7 249.541 1900.53 249.819 1900.37 250.023 1900.17 250.152 1899.94 250.281 1899.71 250.38 1899.42 250.45 1899.07 250.519 1898.73 250.559 1898.29 250.569 1897.76 250.579 1897.24 250.584 1896.59 250.584 1895.81L250.584 1891.91 233.815 1891.91 233.815 1889.56C236.773 1885.45 239.712 1881.36 242.631 1877.3 245.55 1873.24 248.489 1869.16 251.448 1865.05Z" fill="#215F9A" fill-rule="evenodd"/><text fill="#000000" fill-opacity="0" font-family="Arial,Arial_MSFontService,sans-serif" font-size="38.1548" x="233.815" y="1898.43">4</text><path d="M1025.54 1478.02 1062.1 1478.02 1062.1 1479.97 1034.38 1529.61 1049.01 1529.61C1050.82 1529.61 1052.16 1529.45 1053.04 1529.11 1053.92 1528.77 1054.64 1528.24 1055.21 1527.53 1055.77 1526.81 1056.29 1525.81 1056.75 1524.51 1057.21 1523.21 1057.76 1521.2 1058.41 1518.47L1062.38 1518.47 1062.38 1533.34 1024.93 1533.34 1024.93 1531.36 1052.69 1481.75 1037.98 1481.75C1036.93 1481.75 1036.1 1481.84 1035.49 1482.02 1034.88 1482.19 1034.34 1482.46 1033.85 1482.83 1033.36 1483.19 1032.88 1483.72 1032.41 1484.43 1031.94 1485.13 1031.47 1486.1 1030.99 1487.32 1030.52 1488.55 1030.03 1490.09 1029.51 1491.92L1025.54 1491.92Z" fill="#215F9A" fill-rule="evenodd"/><text fill="#000000" fill-opacity="0" font-family="Arial,Arial_MSFontService,sans-serif" font-size="55.3198" x="1024.93" y="1526.43">Z</text><path d="M1091.54 1510.19 1094.22 1510.19 1093.8 1517.39 1076.35 1517.39 1076.35 1529.04C1077.4 1528.68 1078.55 1528.39 1079.8 1528.18 1081.05 1527.96 1082.32 1527.85 1083.59 1527.85 1085.41 1527.85 1087.07 1528.1 1088.55 1528.61 1090.02 1529.11 1091.3 1529.84 1092.36 1530.78 1093.42 1531.73 1094.24 1532.87 1094.83 1534.21 1095.42 1535.55 1095.71 1537.05 1095.71 1538.72 1095.71 1540.63 1095.38 1542.32 1094.73 1543.81 1094.07 1545.3 1093.13 1546.57 1091.91 1547.61 1090.69 1548.65 1089.2 1549.45 1087.44 1549.99 1085.69 1550.54 1083.71 1550.81 1081.5 1550.81 1079.75 1550.81 1077.97 1550.64 1076.14 1550.31 1074.31 1549.97 1072.42 1549.47 1070.45 1548.82L1070.45 1542.2 1074.26 1542.2C1074.86 1544.21 1075.75 1545.64 1076.94 1546.51 1078.14 1547.37 1079.7 1547.8 1081.65 1547.8 1084.25 1547.8 1086.22 1547.13 1087.55 1545.78 1088.88 1544.43 1089.54 1542.31 1089.54 1539.43 1089.54 1536.67 1088.84 1534.62 1087.43 1533.28 1086.02 1531.94 1084.04 1531.27 1081.5 1531.27 1080.83 1531.27 1080.22 1531.28 1079.67 1531.3 1079.12 1531.32 1078.58 1531.37 1078.05 1531.45 1077.51 1531.53 1076.98 1531.64 1076.45 1531.78 1075.93 1531.92 1075.34 1532.08 1074.68 1532.26L1072.24 1530.92 1072.24 1512.18 1088.74 1512.18C1089.22 1512.16 1089.6 1512.13 1089.89 1512.09 1090.17 1512.05 1090.41 1511.96 1090.59 1511.82 1090.76 1511.68 1090.92 1511.49 1091.06 1511.24 1091.2 1510.99 1091.36 1510.64 1091.54 1510.19Z" fill="#215F9A" fill-rule="evenodd"/><text fill="#000000" fill-opacity="0" font-family="Arial,Arial_MSFontService,sans-serif" font-size="40.627" x="1070.45" y="1545.73">5</text><path d="M775.319 2639.63 778.359 2639.63C778.899 2642.12 780.371 2643.36 782.776 2643.36L785.208 2643.36C786.613 2643.36 787.612 2643.08 788.207 2642.53 788.801 2641.97 789.26 2641.01 789.585 2639.63L792.584 2639.63 792.584 2652.19 789.585 2652.19C788.99 2649.76 787.666 2648.55 785.613 2648.55L782.29 2648.55C781.128 2648.55 780.284 2648.8 779.757 2649.3 779.23 2649.8 778.764 2650.76 778.359 2652.19L775.319 2652.19ZM783.911 2621.47C774.536 2621.47 769.848 2629.5 769.848 2645.55 769.848 2653.84 771.07 2660.15 773.516 2664.47 775.961 2668.8 779.534 2670.96 784.235 2670.96 788.774 2670.96 792.212 2668.84 794.549 2664.62 796.886 2660.39 798.055 2654.59 798.055 2647.21 798.055 2638.86 796.832 2632.48 794.387 2628.08 791.942 2623.68 788.45 2621.47 783.911 2621.47ZM784.195 2617.91C791.381 2617.91 796.853 2620.28 800.608 2625.02 804.364 2629.76 806.241 2636.59 806.241 2645.51 806.241 2654.8 804.222 2661.96 800.183 2666.99 796.143 2672.01 790.53 2674.52 783.343 2674.52 776.265 2674.52 770.881 2672.15 767.193 2667.39 763.505 2662.64 761.661 2655.73 761.661 2646.68 761.661 2637.55 763.708 2630.47 767.801 2625.45 771.894 2620.42 777.359 2617.91 784.195 2617.91Z" fill-rule="evenodd"/><text fill="#000000" fill-opacity="0" font-family="Arial,Arial_MSFontService,sans-serif" font-size="56.6167" x="761.661" y="2667.45">Θ</text><path d="M829.874 2659.54C827.968 2662.3 826.067 2665.04 824.171 2667.76 822.274 2670.48 820.363 2673.21 818.437 2675.95L818.437 2676.3 829.874 2676.3 829.874 2670.32C829.874 2669.64 829.884 2668.81 829.904 2667.82 829.924 2666.82 829.949 2665.81 829.979 2664.79 830.008 2663.77 830.043 2662.8 830.083 2661.87 830.123 2660.95 830.162 2660.17 830.202 2659.54ZM830.738 2652.57 835.474 2652.57 835.474 2676.3 836.01 2676.3C836.824 2676.3 837.484 2676.26 837.991 2676.19 838.497 2676.11 838.904 2675.94 839.212 2675.69 839.52 2675.45 839.778 2675.1 839.986 2674.65 840.195 2674.2 840.418 2673.62 840.657 2672.91L843.188 2672.91C843.129 2674 843.064 2675.08 842.995 2676.16 842.925 2677.23 842.861 2678.32 842.801 2679.43L835.474 2679.43 835.474 2683.33C835.474 2684.49 835.499 2685.38 835.548 2686.01 835.598 2686.65 835.747 2687.15 835.995 2687.5 836.243 2687.86 836.611 2688.13 837.097 2688.31 837.584 2688.49 838.264 2688.69 839.138 2688.93L839.138 2690.72 826.27 2690.72 826.27 2688.93C826.866 2688.77 827.372 2688.63 827.789 2688.5 828.206 2688.37 828.554 2688.22 828.832 2688.05 829.11 2687.89 829.313 2687.69 829.443 2687.46 829.572 2687.23 829.671 2686.94 829.74 2686.59 829.81 2686.25 829.85 2685.81 829.859 2685.28 829.869 2684.76 829.874 2684.11 829.874 2683.33L829.874 2679.43 813.105 2679.43 813.105 2677.08C816.064 2672.97 819.003 2668.88 821.922 2664.82 824.841 2660.76 827.779 2656.68 830.738 2652.57Z" fill-rule="evenodd"/><text fill="#000000" fill-opacity="0" font-family="Arial,Arial_MSFontService,sans-serif" font-size="38.1548" x="813.105" y="2685.95">4</text><path d="M64.7193 102.801C14.4923 88.6596-0.355323 59.1526 31.5561 36.895 63.4676 14.6375 130.054 8.05787 180.281 22.1991 230.508 36.3403 245.355 65.8474 213.444 88.1049 211.011 89.8017 208.339 91.4287 205.443 92.9763L216.822 102.343 164.715 97.2519 179.711 71.7934 191.085 81.1564C222.571 68.7609 217.389 50.3595 179.511 40.0558 141.632 29.7521 85.4011 31.4479 53.9151 43.8435 22.429 56.239 27.6111 74.6404 65.4895 84.9441 71.3228 86.5309 77.7508 87.8676 84.6178 88.922Z" stroke="#042433" stroke-width="6.875" stroke-miterlimit="8" fill="#156082" fill-rule="evenodd" transform="matrix(1 -1.22465e-16 -1.22465e-16 -1 518.5 2690.5)"/><path d="M395.25 1814.31 398.29 1814.31C398.83 1816.8 400.303 1818.04 402.707 1818.04L405.139 1818.04C406.544 1818.04 407.544 1817.76 408.138 1817.21 408.732 1816.66 409.192 1815.69 409.516 1814.31L412.515 1814.31 412.515 1826.88 409.516 1826.88C408.922 1824.44 407.598 1823.23 405.544 1823.23L402.221 1823.23C401.059 1823.23 400.215 1823.48 399.688 1823.98 399.161 1824.48 398.695 1825.44 398.29 1826.88L395.25 1826.88ZM403.842 1796.16C394.467 1796.16 389.779 1804.18 389.779 1820.23 389.779 1828.52 391.002 1834.83 393.447 1839.16 395.892 1843.48 399.465 1845.64 404.166 1845.64 408.705 1845.64 412.143 1843.53 414.481 1839.3 416.818 1835.07 417.986 1829.27 417.986 1821.89 417.986 1813.54 416.764 1807.17 414.318 1802.76 411.873 1798.36 408.381 1796.16 403.842 1796.16ZM404.126 1792.59C411.313 1792.59 416.784 1794.96 420.539 1799.7 424.295 1804.44 426.173 1811.27 426.173 1820.19 426.173 1829.48 424.153 1836.64 420.114 1841.67 416.075 1846.69 410.462 1849.21 403.275 1849.21 396.196 1849.21 390.813 1846.83 387.125 1842.07 383.437 1837.32 381.593 1830.42 381.593 1821.36 381.593 1812.23 383.639 1805.15 387.732 1800.13 391.826 1795.1 397.29 1792.59 404.126 1792.59Z" fill-rule="evenodd"/><text fill="#000000" fill-opacity="0" font-family="Arial,Arial_MSFontService,sans-serif" font-size="56.6167" x="381.593" y="1842.13">Θ</text><path d="M456.924 1825.4 459.605 1825.4 459.188 1832.61 441.734 1832.61 441.734 1844.25C442.786 1843.9 443.938 1843.61 445.189 1843.39 446.44 1843.17 447.701 1843.06 448.972 1843.06 450.798 1843.06 452.452 1843.32 453.931 1843.82 455.41 1844.33 456.681 1845.05 457.743 1846 458.806 1846.94 459.63 1848.08 460.216 1849.42 460.801 1850.76 461.094 1852.27 461.094 1853.93 461.094 1855.84 460.767 1857.54 460.111 1859.03 459.456 1860.52 458.518 1861.78 457.297 1862.83 456.075 1863.87 454.586 1864.66 452.829 1865.21 451.072 1865.75 449.091 1866.03 446.887 1866.03 445.139 1866.03 443.352 1865.86 441.525 1865.52 439.699 1865.18 437.802 1864.69 435.836 1864.03L435.836 1857.42 439.649 1857.42C440.245 1859.42 441.138 1860.86 442.33 1861.72 443.521 1862.59 445.09 1863.02 447.036 1863.02 449.637 1863.02 451.603 1862.34 452.933 1860.99 454.263 1859.64 454.929 1857.53 454.929 1854.65 454.929 1851.89 454.224 1849.84 452.814 1848.5 451.404 1847.16 449.428 1846.49 446.887 1846.49 446.212 1846.49 445.601 1846.5 445.055 1846.52 444.509 1846.54 443.968 1846.59 443.432 1846.67 442.895 1846.75 442.364 1846.86 441.838 1846.99 441.312 1847.13 440.721 1847.29 440.066 1847.47L437.624 1846.13 437.624 1827.4 454.124 1827.4C454.601 1827.38 454.983 1827.35 455.271 1827.31 455.559 1827.27 455.792 1827.18 455.971 1827.04 456.15 1826.9 456.309 1826.71 456.448 1826.46 456.587 1826.21 456.746 1825.86 456.924 1825.4Z" fill-rule="evenodd"/><text fill="#000000" fill-opacity="0" font-family="Arial,Arial_MSFontService,sans-serif" font-size="40.627" x="435.836" y="1860.95">5</text><path d="M29.0259 105.948C3.94739 82.1425 7.33454 46.3019 36.5913 25.896 65.8481 5.49002 109.895 8.24609 134.974 32.0518 152.96 49.125 156.866 73.227 144.935 93.5105L154.189 101.286 122.544 103.066 119.777 72.3718 128.933 80.0652C137.234 60.9824 122.95 40.5588 97.0297 34.4477 71.1093 28.3367 43.3676 38.8523 35.0669 57.9351 29.5837 70.5405 33.8599 84.3439 46.2248 93.9525Z" stroke="#042433" stroke-width="6.875" stroke-miterlimit="8" fill="#156082" fill-rule="evenodd" transform="matrix(-6.12323e-17 -1 -1 6.12323e-17 404.5 1817.5)"/><path d="M1004.17 1664.48 1007.21 1664.48C1007.75 1666.97 1009.22 1668.21 1011.63 1668.21L1014.06 1668.21C1015.46 1668.21 1016.46 1667.93 1017.06 1667.38 1017.65 1666.83 1018.11 1665.86 1018.43 1664.48L1021.43 1664.48 1021.43 1677.05 1018.43 1677.05C1017.84 1674.62 1016.52 1673.4 1014.46 1673.4L1011.14 1673.4C1009.98 1673.4 1009.13 1673.65 1008.61 1674.15 1008.08 1674.65 1007.61 1675.61 1007.21 1677.05L1004.17 1677.05ZM1012.76 1646.33C1003.38 1646.33 998.697 1654.35 998.697 1670.4 998.697 1678.69 999.92 1685 1002.36 1689.33 1004.81 1693.65 1008.38 1695.81 1013.08 1695.81 1017.62 1695.81 1021.06 1693.7 1023.4 1689.47 1025.74 1685.24 1026.9 1679.44 1026.9 1672.06 1026.9 1663.71 1025.68 1657.34 1023.24 1652.93 1020.79 1648.53 1017.3 1646.33 1012.76 1646.33ZM1013.04 1642.76C1020.23 1642.76 1025.7 1645.13 1029.46 1649.87 1033.21 1654.61 1035.09 1661.44 1035.09 1670.36 1035.09 1679.65 1033.07 1686.81 1029.03 1691.84 1024.99 1696.86 1019.38 1699.38 1012.19 1699.38 1005.11 1699.38 999.731 1697 996.043 1692.24 992.355 1687.49 990.511 1680.59 990.511 1671.54 990.511 1662.4 992.557 1655.32 996.651 1650.3 1000.74 1645.27 1006.21 1642.76 1013.04 1642.76Z" fill-rule="evenodd"/><text fill="#000000" fill-opacity="0" font-family="Arial,Arial_MSFontService,sans-serif" font-size="56.6167" x="990.511" y="1692.3">Θ</text><path d="M1058.49 1695.83C1057.16 1695.83 1055.93 1696 1054.81 1696.36 1053.69 1696.72 1052.62 1697.21 1051.61 1697.82 1051.19 1698.1 1050.87 1698.36 1050.64 1698.6 1050.41 1698.83 1050.24 1699.12 1050.13 1699.44 1050.02 1699.77 1049.95 1700.18 1049.91 1700.67 1049.87 1701.15 1049.85 1701.81 1049.85 1702.65 1049.85 1709.68 1052.4 1713.19 1057.5 1713.19 1058.89 1713.19 1060.09 1712.99 1061.09 1712.58 1062.09 1712.17 1062.91 1711.59 1063.55 1710.82 1064.18 1710.06 1064.65 1709.11 1064.95 1707.99 1065.25 1706.87 1065.4 1705.59 1065.4 1704.17 1065.4 1701.5 1064.8 1699.45 1063.61 1698 1062.42 1696.55 1060.71 1695.83 1058.49 1695.83ZM1066.38 1677C1066.62 1677.28 1066.84 1677.55 1067.03 1677.81 1067.23 1678.06 1067.45 1678.32 1067.69 1678.58L1067.69 1680.34C1065.29 1680.3 1063.12 1680.61 1061.2 1681.29 1059.27 1681.97 1057.57 1682.95 1056.1 1684.25 1054.63 1685.55 1053.4 1687.15 1052.41 1689.05 1051.42 1690.95 1050.64 1693.08 1050.09 1695.47L1050.41 1695.62C1051.23 1695.06 1052.03 1694.58 1052.83 1694.17 1053.62 1693.77 1054.42 1693.43 1055.24 1693.16 1056.05 1692.89 1056.9 1692.7 1057.77 1692.58 1058.64 1692.46 1059.58 1692.4 1060.57 1692.4 1062.32 1692.4 1063.86 1692.66 1065.2 1693.17 1066.54 1693.69 1067.68 1694.45 1068.61 1695.44 1069.55 1696.43 1070.25 1697.62 1070.73 1699.01 1071.2 1700.4 1071.44 1701.95 1071.44 1703.66 1071.44 1705.47 1071.14 1707.14 1070.55 1708.69 1069.95 1710.24 1069.06 1711.57 1067.87 1712.68 1066.68 1713.8 1065.2 1714.66 1063.44 1715.27 1061.69 1715.89 1059.63 1716.2 1057.26 1716.2 1052.8 1716.2 1049.43 1714.92 1047.15 1712.37 1044.88 1709.82 1043.74 1706.06 1043.74 1701.1 1043.74 1698.87 1043.99 1696.74 1044.49 1694.71 1044.98 1692.67 1045.71 1690.78 1046.68 1689.02 1047.64 1687.26 1048.81 1685.67 1050.18 1684.25 1051.55 1682.83 1053.07 1681.6 1054.76 1680.56 1056.45 1679.52 1058.28 1678.69 1060.24 1678.09 1062.21 1677.48 1064.25 1677.12 1066.38 1677Z" fill-rule="evenodd"/><text fill="#000000" fill-opacity="0" font-family="Arial,Arial_MSFontService,sans-serif" font-size="39.1973" x="1043.74" y="1711.3">6</text><path d="M1.03023e-05-6.875 206.457-6.87469 206.457 6.87531-1.03023e-05 6.875ZM199.582-20.6247 240.832 0.000360892 199.582 20.6253Z" fill="#0070C0" transform="matrix(1 0 0 -1 2027 1557)"/><path d="M2066.01 1881.13 2083.27 1881.13 2083.27 1883.11C2080.73 1883.41 2079.46 1884.5 2079.46 1886.4 2079.46 1887.18 2079.64 1888.06 2080.01 1889.03 2080.37 1890 2081.03 1891.38 2081.97 1893.16L2090.08 1908.6 2098.06 1894.5C2099.14 1892.58 2099.91 1891.01 2100.35 1889.78 2100.8 1888.55 2101.02 1887.42 2101.02 1886.4 2101.02 1885.42 2100.73 1884.66 2100.15 1884.11 2099.57 1883.55 2098.71 1883.22 2097.58 1883.11L2097.58 1881.13 2112.94 1881.13 2112.94 1883.11C2111.83 1883.52 2110.86 1884.08 2110.02 1884.79 2109.18 1885.51 2108.33 1886.48 2107.47 1887.69 2106.6 1888.91 2105.33 1890.96 2103.66 1893.85L2092.39 1913.06 2092.39 1926.19C2092.39 1927.73 2092.47 1928.98 2092.63 1929.92 2092.8 1930.87 2093.07 1931.62 2093.44 1932.19 2093.82 1932.76 2094.32 1933.2 2094.94 1933.53 2095.56 1933.85 2096.54 1934.16 2097.86 1934.46L2097.86 1936.45 2079.34 1936.45 2079.34 1934.46C2080.64 1934.19 2081.6 1933.9 2082.22 1933.59 2082.84 1933.28 2083.34 1932.83 2083.72 1932.25 2084.1 1931.67 2084.37 1930.91 2084.55 1929.96 2084.72 1929.02 2084.81 1927.76 2084.81 1926.19L2084.81 1913.22 2073.63 1892.43C2072.28 1889.92 2071.25 1888.12 2070.55 1887.04 2069.84 1885.96 2069.14 1885.11 2068.44 1884.49 2067.74 1883.87 2066.93 1883.41 2066.01 1883.11Z" fill-rule="evenodd"/><text fill="#000000" fill-opacity="0" font-family="Arial,Arial_MSFontService,sans-serif" font-size="55.3198" x="2066.01" y="1929.53">Y</text><path d="M2125.15 1933.54C2123.82 1933.54 2122.59 1933.72 2121.47 1934.08 2120.35 1934.44 2119.28 1934.92 2118.27 1935.54 2117.85 1935.82 2117.53 1936.07 2117.3 1936.31 2117.07 1936.55 2116.9 1936.83 2116.8 1937.16 2116.69 1937.49 2116.61 1937.9 2116.57 1938.38 2116.53 1938.87 2116.51 1939.53 2116.51 1940.36 2116.51 1947.39 2119.06 1950.91 2124.17 1950.91 2125.56 1950.91 2126.75 1950.7 2127.76 1950.3 2128.76 1949.89 2129.58 1949.3 2130.21 1948.54 2130.85 1947.78 2131.32 1946.83 2131.61 1945.71 2131.91 1944.59 2132.06 1943.31 2132.06 1941.88 2132.06 1939.22 2131.46 1937.17 2130.27 1935.72 2129.08 1934.27 2127.37 1933.54 2125.15 1933.54ZM2133.04 1914.72C2133.28 1915 2133.5 1915.27 2133.7 1915.52 2133.9 1915.78 2134.12 1916.04 2134.35 1916.3L2134.35 1918.05C2131.95 1918.02 2129.79 1918.33 2127.86 1919.01 2125.93 1919.68 2124.24 1920.67 2122.77 1921.97 2121.3 1923.27 2120.07 1924.87 2119.07 1926.77 2118.08 1928.66 2117.31 1930.8 2116.75 1933.19L2117.08 1933.33C2117.89 1932.78 2118.7 1932.3 2119.49 1931.89 2120.28 1931.48 2121.09 1931.15 2121.9 1930.88 2122.72 1930.61 2123.56 1930.42 2124.44 1930.3 2125.31 1930.18 2126.24 1930.12 2127.23 1930.12 2128.98 1930.12 2130.53 1930.38 2131.87 1930.89 2133.21 1931.41 2134.34 1932.16 2135.28 1933.16 2136.21 1934.15 2136.92 1935.34 2137.39 1936.73 2137.87 1938.12 2138.11 1939.67 2138.11 1941.38 2138.11 1943.18 2137.81 1944.86 2137.21 1946.41 2136.62 1947.96 2135.72 1949.29 2134.53 1950.4 2133.34 1951.51 2131.87 1952.38 2130.11 1952.99 2128.35 1953.61 2126.29 1953.92 2123.93 1953.92 2119.46 1953.92 2116.09 1952.64 2113.82 1950.09 2111.54 1947.54 2110.41 1943.78 2110.41 1938.82 2110.41 1936.59 2110.65 1934.46 2111.15 1932.43 2111.65 1930.39 2112.38 1928.49 2113.34 1926.74 2114.3 1924.98 2115.47 1923.39 2116.84 1921.97 2118.21 1920.55 2119.74 1919.32 2121.43 1918.28 2123.11 1917.24 2124.94 1916.41 2126.91 1915.81 2128.87 1915.2 2130.92 1914.84 2133.04 1914.72Z" fill-rule="evenodd"/><text fill="#000000" fill-opacity="0" font-family="Arial,Arial_MSFontService,sans-serif" font-size="39.1973" x="2110.41" y="1949.02">6</text><path d="M1744.9 1788.22 1762.16 1788.22 1762.16 1790.2C1760.86 1790.39 1759.93 1790.75 1759.36 1791.26 1758.8 1791.77 1758.51 1792.47 1758.51 1793.37 1758.51 1794.12 1758.77 1795.07 1759.28 1796.2 1759.8 1797.34 1760.53 1798.69 1761.47 1800.26L1767.35 1810.1 1773.14 1800.74C1774.01 1799.34 1774.66 1798.22 1775.09 1797.38 1775.52 1796.54 1775.82 1795.84 1776 1795.27 1776.18 1794.7 1776.26 1794.12 1776.26 1793.53 1776.26 1792.69 1776.02 1791.98 1775.53 1791.4 1775.05 1790.82 1774.24 1790.42 1773.1 1790.2L1773.1 1788.22 1788.14 1788.22 1788.14 1790.2C1787.14 1790.53 1786.24 1791 1785.44 1791.62 1784.65 1792.24 1783.79 1793.15 1782.89 1794.34 1781.98 1795.53 1780.69 1797.41 1779.02 1799.97L1769.86 1814.16 1780.15 1831.1C1781.61 1833.5 1782.66 1835.18 1783.29 1836.14 1783.93 1837.1 1784.52 1837.91 1785.08 1838.57 1785.63 1839.24 1786.23 1839.81 1786.86 1840.3 1787.5 1840.78 1788.29 1841.2 1789.23 1841.55L1789.23 1843.54 1771.44 1843.54 1771.44 1841.55C1772.68 1841.34 1773.6 1840.99 1774.2 1840.52 1774.79 1840.05 1775.09 1839.34 1775.09 1838.39 1775.09 1837.64 1774.89 1836.8 1774.5 1835.88 1774.11 1834.96 1773.51 1833.83 1772.7 1832.47L1765.36 1820.24 1757.62 1832.92C1756.32 1835.06 1755.68 1836.81 1755.68 1838.19 1755.68 1839.08 1755.92 1839.81 1756.41 1840.38 1756.89 1840.95 1757.7 1841.34 1758.84 1841.55L1758.84 1843.54 1743.52 1843.54 1743.52 1841.55C1744.52 1841.26 1745.34 1840.9 1745.99 1840.48 1746.64 1840.06 1747.26 1839.53 1747.85 1838.88 1748.45 1838.23 1749.11 1837.41 1749.84 1836.41 1750.57 1835.41 1751.73 1833.66 1753.32 1831.18L1762.89 1816.26 1751.46 1797.46C1750.38 1795.73 1749.56 1794.47 1749.01 1793.69 1748.45 1792.91 1747.94 1792.27 1747.47 1791.79 1747 1791.3 1746.57 1790.95 1746.19 1790.75 1745.81 1790.55 1745.38 1790.37 1744.9 1790.2Z" fill-rule="evenodd"/><text fill="#000000" fill-opacity="0" font-family="Arial,Arial_MSFontService,sans-serif" font-size="55.3198" x="1743.52" y="1836.62">X</text><path d="M1810.99 1840.64C1809.66 1840.64 1808.44 1840.81 1807.32 1841.17 1806.19 1841.53 1805.13 1842.02 1804.11 1842.63 1803.7 1842.91 1803.38 1843.17 1803.15 1843.41 1802.92 1843.64 1802.75 1843.93 1802.64 1844.25 1802.53 1844.58 1802.46 1844.99 1802.42 1845.48 1802.38 1845.96 1802.36 1846.62 1802.36 1847.46 1802.36 1854.49 1804.91 1858 1810.01 1858 1811.4 1858 1812.6 1857.8 1813.6 1857.39 1814.6 1856.98 1815.42 1856.4 1816.06 1855.63 1816.69 1854.87 1817.16 1853.92 1817.46 1852.8 1817.76 1851.68 1817.91 1850.4 1817.91 1848.97 1817.91 1846.31 1817.31 1844.26 1816.12 1842.81 1814.93 1841.36 1813.22 1840.64 1810.99 1840.64ZM1818.89 1821.81C1819.13 1822.09 1819.34 1822.36 1819.54 1822.62 1819.74 1822.87 1819.96 1823.13 1820.2 1823.39L1820.2 1825.15C1817.8 1825.11 1815.63 1825.42 1813.71 1826.1 1811.78 1826.78 1810.08 1827.76 1808.61 1829.06 1807.14 1830.36 1805.91 1831.96 1804.92 1833.86 1803.93 1835.76 1803.15 1837.89 1802.6 1840.28L1802.92 1840.43C1803.74 1839.87 1804.54 1839.39 1805.34 1838.98 1806.13 1838.57 1806.93 1838.24 1807.75 1837.97 1808.56 1837.7 1809.41 1837.51 1810.28 1837.39 1811.15 1837.27 1812.09 1837.21 1813.08 1837.21 1814.83 1837.21 1816.37 1837.47 1817.71 1837.98 1819.05 1838.5 1820.19 1839.26 1821.12 1840.25 1822.06 1841.24 1822.76 1842.43 1823.24 1843.82 1823.71 1845.21 1823.95 1846.76 1823.95 1848.47 1823.95 1850.28 1823.65 1851.95 1823.06 1853.5 1822.46 1855.05 1821.57 1856.38 1820.38 1857.49 1819.19 1858.61 1817.71 1859.47 1815.95 1860.08 1814.2 1860.7 1812.14 1861.01 1809.77 1861.01 1805.31 1861.01 1801.94 1859.73 1799.66 1857.18 1797.39 1854.63 1796.25 1850.87 1796.25 1845.91 1796.25 1843.68 1796.5 1841.55 1797 1839.52 1797.49 1837.48 1798.22 1835.59 1799.19 1833.83 1800.15 1832.07 1801.31 1830.48 1802.68 1829.06 1804.06 1827.64 1805.58 1826.41 1807.27 1825.37 1808.96 1824.33 1810.79 1823.5 1812.75 1822.9 1814.72 1822.29 1816.76 1821.93 1818.89 1821.81Z" fill-rule="evenodd"/><text fill="#000000" fill-opacity="0" font-family="Arial,Arial_MSFontService,sans-serif" font-size="39.1973" x="1796.25" y="1856.11">6</text><path d="M2297.38 1549.27 2333.94 1549.27 2333.94 1551.21 2306.22 1600.86 2320.85 1600.86C2322.66 1600.86 2324 1600.69 2324.88 1600.35 2325.76 1600.01 2326.48 1599.49 2327.05 1598.77 2327.61 1598.06 2328.13 1597.05 2328.59 1595.75 2329.05 1594.46 2329.6 1592.44 2330.25 1589.71L2334.22 1589.71 2334.22 1604.59 2296.77 1604.59 2296.77 1602.6 2324.53 1553 2309.82 1553C2308.77 1553 2307.94 1553.08 2307.33 1553.26 2306.72 1553.43 2306.18 1553.7 2305.69 1554.07 2305.2 1554.43 2304.72 1554.97 2304.25 1555.67 2303.78 1556.37 2303.3 1557.34 2302.83 1558.57 2302.36 1559.8 2301.87 1561.33 2301.35 1563.17L2297.38 1563.17Z" fill-rule="evenodd"/><text fill="#000000" fill-opacity="0" font-family="Arial,Arial_MSFontService,sans-serif" font-size="55.3198" x="2296.77" y="1597.67">Z</text><path d="M2356.02 1601.68C2354.69 1601.68 2353.46 1601.86 2352.34 1602.22 2351.22 1602.58 2350.15 1603.06 2349.14 1603.68 2348.72 1603.96 2348.4 1604.21 2348.17 1604.45 2347.94 1604.69 2347.78 1604.97 2347.67 1605.3 2347.56 1605.63 2347.48 1606.04 2347.44 1606.52 2347.4 1607.01 2347.38 1607.67 2347.38 1608.5 2347.38 1615.53 2349.94 1619.05 2355.04 1619.05 2356.43 1619.05 2357.62 1618.84 2358.63 1618.44 2359.63 1618.03 2360.45 1617.44 2361.08 1616.68 2361.72 1615.92 2362.19 1614.97 2362.48 1613.85 2362.78 1612.73 2362.93 1611.45 2362.93 1610.02 2362.93 1607.36 2362.34 1605.31 2361.14 1603.86 2359.95 1602.41 2358.25 1601.68 2356.02 1601.68ZM2363.91 1582.86C2364.15 1583.14 2364.37 1583.41 2364.57 1583.66 2364.77 1583.92 2364.99 1584.18 2365.22 1584.44L2365.22 1586.19C2362.82 1586.16 2360.66 1586.47 2358.73 1587.15 2356.81 1587.82 2355.11 1588.81 2353.64 1590.11 2352.17 1591.41 2350.94 1593.01 2349.95 1594.91 2348.95 1596.8 2348.18 1598.94 2347.62 1601.33L2347.95 1601.47C2348.76 1600.92 2349.57 1600.44 2350.36 1600.03 2351.16 1599.62 2351.96 1599.29 2352.77 1599.02 2353.59 1598.75 2354.43 1598.56 2355.31 1598.44 2356.18 1598.32 2357.11 1598.26 2358.11 1598.26 2359.85 1598.26 2361.4 1598.52 2362.74 1599.03 2364.08 1599.55 2365.21 1600.3 2366.15 1601.3 2367.08 1602.29 2367.79 1603.48 2368.26 1604.87 2368.74 1606.26 2368.98 1607.81 2368.98 1609.52 2368.98 1611.32 2368.68 1613 2368.08 1614.55 2367.49 1616.1 2366.59 1617.43 2365.4 1618.54 2364.21 1619.65 2362.74 1620.52 2360.98 1621.13 2359.22 1621.75 2357.16 1622.06 2354.8 1622.06 2350.33 1622.06 2346.96 1620.78 2344.69 1618.23 2342.41 1615.68 2341.28 1611.92 2341.28 1606.96 2341.28 1604.73 2341.53 1602.6 2342.02 1600.57 2342.52 1598.53 2343.25 1596.63 2344.21 1594.88 2345.17 1593.12 2346.34 1591.53 2347.71 1590.11 2349.08 1588.69 2350.61 1587.46 2352.3 1586.42 2353.99 1585.38 2355.81 1584.55 2357.78 1583.95 2359.74 1583.34 2361.79 1582.98 2363.91 1582.86Z" fill-rule="evenodd"/><text fill="#000000" fill-opacity="0" font-family="Arial,Arial_MSFontService,sans-serif" font-size="39.1973" x="2341.28" y="1617.16">6</text><path d="M4.86136-4.86136 203.486 193.763 193.763 203.486-4.86136 4.86136ZM208.347 179.179 222.931 222.931 179.179 208.347Z" fill="#FF0000" transform="matrix(-1 0 0 1 2029.93 1559)"/><path d="M2036.87 1566 2036.88 1866.28 2023.13 1866.28 2023.12 1566ZM2050.63 1859.4 2030 1900.65 2009.38 1859.4Z" fill="#4EA72E"/><rect x="0" y="60.0828" width="42.9172" height="295.917" fill="#E59EDD" transform="matrix(-6.12323e-17 -1 -1 6.12323e-17 2248.5 1741.5)"/><path d="M42.9172 60.0828 103 0 103 295.917 42.9172 356Z" fill="#B87FB2" fill-rule="evenodd" transform="matrix(-6.12323e-17 -1 -1 6.12323e-17 2248.5 1741.5)"/><path d="M0 60.0828 60.083 0 103 0 42.9172 60.0828Z" fill="#EAB1E4" fill-rule="evenodd" transform="matrix(-6.12323e-17 -1 -1 6.12323e-17 2248.5 1741.5)"/><path d="M0 60.0828 60.083 0 103 0 103 295.917 42.9172 356 0 356ZM0 60.0828 42.9172 60.0828 103 0M42.9172 60.0828 42.9172 356" stroke="#042433" stroke-width="6.875" stroke-miterlimit="8" fill="none" fill-rule="evenodd" transform="matrix(-6.12323e-17 -1 -1 6.12323e-17 2248.5 1741.5)"/><path d="M2030 1559 2030 1674.89" stroke="#4EA72E" stroke-width="13.75" stroke-miterlimit="8" fill="none" fill-rule="evenodd"/></g></svg>